<svg xmlns="http://www.w3.org/2000/svg" viewBox="0 0 1600 900" preserveAspectRatio="xMidYMid slice">
  <path class="trace-line" d="M 1392.71 250.36 L 1372.49 261.98 L 1366.16 263.53 L 1355.63 263.99 L 1331.93 268.29 L 1322.85 271.46 L 1312.40 274.22 L 1303.94 270.52 L 1294.26 263.51 L 1285.25 259.10 L 1273.28 260.17 L 1261.54 266.69 L 1240.10 282.57 L 1240.62 294.17 L 1232.14 309.41 L 1227.30 316.16 L 1230.24 320.65 L 1228.16 325.16 L 1233.87 332.26 L 1226.09 337.10 L 1212.41 351.65 L 1215.36 359.27 L 1215.88 370.51 L 1208.43 387.31 L 1186.11 405.31 L 1174.17 408.94 L 1163.96 409.81 L 1158.25 411.02 L 1149.60 417.60 L 1141.81 426.09 L 1134.54 438.38 L 1120.01 439.59 L 1108.93 448.42 L 1082.80 443.05 L 1077.61 448.59 L 1072.24 450.50 L 1064.11 450.50 L 1055.98 454.65 L 1034.87 471.79 L 1036.42 478.89 L 1049.75 485.29 L 1059.78 494.81 L 1067.22 502.95 L 1064.98 507.79 L 1050.79 508.66 L 1041.44 506.76 L 1027.43 510.22 L 1022.41 513.68 L 1011.16 513.86 L 992.30 517.67 L 969.28 524.94 L 967.55 527.53 L 952.15 534.63 L 941.42 541.72 L 929.65 542.42 L 924.28 545.54 L 915.12 554.19 L 897.98 558.52 L 881.54 564.23 L 864.76 576.52 L 857.14 580.33 L 850.57 588.12 L 840.70 589.33 L 831.36 600.07 L 808.17 611.50 L 785.84 626.03 L 754.35 640.75 L 739.30 648.54 L 724.24 660.31 L 699.50 689.92 L 685.65 703.25 L 679.94 706.88 L 678.73 711.21 L 673.54 721.94 L 659.69 724.02 L 641.00 721.94 L 630.62 724.71 L 618.65 725.82 L 602.76 714.15 L 589.95 701.86 L 578.53 689.92 L 567.98 683.34 L 552.23 675.72 L 546.00 669.14 L 545.83 662.74 L 539.42 649.41 L 523.51 623.44 L 511.56 614.78 L 501.87 611.84 L 495.22 603.17 L 480.31 596.85 L 466.00 594.13 L 459.22 596.09 L 445.81 586.14 L 442.95 577.85 L 443.55 572.42 L 438.89 565.64 L 439.03 557.96 L 436.02 551.78 L 439.79 536.11 L 440.84 526.91 L 436.32 522.55 L 428.94 510.64 L 416.89 497.98 L 412.98 491.20 L 405.89 481.85 L 408.75 476.88 L 397.84 454.18 L 381.85 449.18 L 366.63 442.36 L 357.71 443.42 L 350.63 447.35 L 344.22 443.13 L 326.87 441.95 L 309.52 439.69 L 303.31 390.53 L 267.30 327.25 L 229.61 258.11 L 209.15 174.18" pathLength="1" fill="none" vector-effect="non-scaling-stroke"/>
  <circle class="trace-start" cx="1392.71" cy="250.36" r="5.47"/>
  <circle class="trace-summit-halo" cx="207.29" cy="176.25" r="13.98"/>
  <circle class="trace-summit" cx="207.29" cy="176.25" r="7.90"/>
</svg>
