<svg xmlns="http://www.w3.org/2000/svg" viewBox="0 0 2000 2500" preserveAspectRatio="none">
  <path class="trace-underlay" d="M 1505.95 1082.75 L 1486.97 1091.15 L 1481.03 1092.27 L 1471.14 1092.61 L 1448.89 1095.71 L 1440.36 1098.01 L 1430.55 1100.00 L 1422.61 1097.33 L 1413.52 1092.26 L 1405.07 1089.07 L 1393.83 1089.84 L 1382.81 1094.56 L 1362.68 1106.04 L 1363.17 1114.44 L 1355.21 1125.45 L 1350.66 1130.34 L 1353.42 1133.59 L 1351.47 1136.84 L 1356.83 1141.98 L 1349.52 1145.48 L 1336.68 1156.00 L 1339.45 1161.51 L 1339.93 1169.64 L 1332.95 1181.79 L 1311.99 1194.81 L 1300.78 1197.44 L 1291.19 1198.07 L 1285.83 1198.94 L 1277.71 1203.70 L 1270.40 1209.84 L 1263.57 1218.73 L 1249.93 1219.60 L 1239.53 1225.99 L 1215.00 1222.11 L 1210.12 1226.11 L 1205.08 1227.49 L 1197.45 1227.49 L 1189.82 1230.49 L 1169.99 1242.89 L 1171.46 1248.02 L 1183.97 1252.66 L 1193.39 1259.54 L 1200.37 1265.43 L 1198.26 1268.93 L 1184.94 1269.55 L 1176.17 1268.18 L 1163.01 1270.68 L 1158.30 1273.19 L 1147.74 1273.32 L 1130.03 1276.07 L 1108.42 1281.33 L 1106.80 1283.20 L 1092.34 1288.34 L 1082.26 1293.47 L 1071.21 1293.97 L 1066.18 1296.23 L 1057.57 1302.48 L 1041.48 1305.61 L 1026.05 1309.75 L 1010.29 1318.64 L 1003.14 1321.39 L 996.97 1327.02 L 987.70 1327.90 L 978.93 1335.67 L 957.16 1343.93 L 936.20 1354.44 L 906.63 1365.09 L 892.50 1370.72 L 878.37 1379.23 L 855.14 1400.65 L 842.14 1410.28 L 836.77 1412.92 L 835.64 1416.04 L 830.76 1423.80 L 817.77 1425.31 L 800.22 1423.80 L 790.47 1425.81 L 779.23 1426.61 L 764.31 1418.17 L 752.29 1409.28 L 741.57 1400.65 L 731.66 1395.89 L 716.88 1390.38 L 711.02 1385.62 L 710.86 1380.99 L 704.85 1371.35 L 689.91 1352.57 L 678.69 1346.30 L 669.60 1344.18 L 663.36 1337.91 L 649.36 1333.33 L 635.92 1331.37 L 629.55 1332.79 L 616.97 1325.59 L 614.28 1319.60 L 614.85 1315.67 L 610.46 1310.77 L 610.60 1305.21 L 607.78 1300.74 L 611.31 1289.41 L 612.30 1282.76 L 608.05 1279.60 L 601.12 1270.99 L 589.81 1261.83 L 586.14 1256.93 L 579.49 1250.17 L 582.17 1246.58 L 571.93 1230.15 L 556.91 1226.54 L 542.63 1221.61 L 534.25 1222.37 L 527.61 1225.21 L 521.59 1222.16 L 505.29 1221.31 L 489.01 1219.68 L 483.17 1184.12 L 449.37 1138.35 L 413.99 1088.36 L 394.77 1027.65" pathLength="1" fill="none" vector-effect="non-scaling-stroke"/>
  <path class="trace-line" d="M 1505.95 1082.75 L 1486.97 1091.15 L 1481.03 1092.27 L 1471.14 1092.61 L 1448.89 1095.71 L 1440.36 1098.01 L 1430.55 1100.00 L 1422.61 1097.33 L 1413.52 1092.26 L 1405.07 1089.07 L 1393.83 1089.84 L 1382.81 1094.56 L 1362.68 1106.04 L 1363.17 1114.44 L 1355.21 1125.45 L 1350.66 1130.34 L 1353.42 1133.59 L 1351.47 1136.84 L 1356.83 1141.98 L 1349.52 1145.48 L 1336.68 1156.00 L 1339.45 1161.51 L 1339.93 1169.64 L 1332.95 1181.79 L 1311.99 1194.81 L 1300.78 1197.44 L 1291.19 1198.07 L 1285.83 1198.94 L 1277.71 1203.70 L 1270.40 1209.84 L 1263.57 1218.73 L 1249.93 1219.60 L 1239.53 1225.99 L 1215.00 1222.11 L 1210.12 1226.11 L 1205.08 1227.49 L 1197.45 1227.49 L 1189.82 1230.49 L 1169.99 1242.89 L 1171.46 1248.02 L 1183.97 1252.66 L 1193.39 1259.54 L 1200.37 1265.43 L 1198.26 1268.93 L 1184.94 1269.55 L 1176.17 1268.18 L 1163.01 1270.68 L 1158.30 1273.19 L 1147.74 1273.32 L 1130.03 1276.07 L 1108.42 1281.33 L 1106.80 1283.20 L 1092.34 1288.34 L 1082.26 1293.47 L 1071.21 1293.97 L 1066.18 1296.23 L 1057.57 1302.48 L 1041.48 1305.61 L 1026.05 1309.75 L 1010.29 1318.64 L 1003.14 1321.39 L 996.97 1327.02 L 987.70 1327.90 L 978.93 1335.67 L 957.16 1343.93 L 936.20 1354.44 L 906.63 1365.09 L 892.50 1370.72 L 878.37 1379.23 L 855.14 1400.65 L 842.14 1410.28 L 836.77 1412.92 L 835.64 1416.04 L 830.76 1423.80 L 817.77 1425.31 L 800.22 1423.80 L 790.47 1425.81 L 779.23 1426.61 L 764.31 1418.17 L 752.29 1409.28 L 741.57 1400.65 L 731.66 1395.89 L 716.88 1390.38 L 711.02 1385.62 L 710.86 1380.99 L 704.85 1371.35 L 689.91 1352.57 L 678.69 1346.30 L 669.60 1344.18 L 663.36 1337.91 L 649.36 1333.33 L 635.92 1331.37 L 629.55 1332.79 L 616.97 1325.59 L 614.28 1319.60 L 614.85 1315.67 L 610.46 1310.77 L 610.60 1305.21 L 607.78 1300.74 L 611.31 1289.41 L 612.30 1282.76 L 608.05 1279.60 L 601.12 1270.99 L 589.81 1261.83 L 586.14 1256.93 L 579.49 1250.17 L 582.17 1246.58 L 571.93 1230.15 L 556.91 1226.54 L 542.63 1221.61 L 534.25 1222.37 L 527.61 1225.21 L 521.59 1222.16 L 505.29 1221.31 L 489.01 1219.68 L 483.17 1184.12 L 449.37 1138.35 L 413.99 1088.36 L 394.77 1027.65" pathLength="1" fill="none" vector-effect="non-scaling-stroke"/>
</svg>
