<svg xmlns="http://www.w3.org/2000/svg" viewBox="0 0 2000 2500" preserveAspectRatio="xMidYMid slice">
  <path class="trace-line" d="M 1677.08 1022.02 L 1653.99 1035.28 L 1646.76 1037.05 L 1634.73 1037.58 L 1607.65 1042.49 L 1597.28 1046.12 L 1585.34 1049.26 L 1575.68 1045.03 L 1564.62 1037.03 L 1554.33 1032.00 L 1540.66 1033.22 L 1527.25 1040.66 L 1502.76 1058.80 L 1503.35 1072.05 L 1493.66 1089.45 L 1488.13 1097.16 L 1491.49 1102.29 L 1489.12 1107.43 L 1495.64 1115.54 L 1486.75 1121.07 L 1471.13 1137.69 L 1474.49 1146.38 L 1475.08 1159.23 L 1466.58 1178.41 L 1441.08 1198.97 L 1427.44 1203.12 L 1415.77 1204.10 L 1409.25 1205.49 L 1399.37 1213.01 L 1390.47 1222.69 L 1382.16 1236.73 L 1365.56 1238.11 L 1352.91 1248.20 L 1323.06 1242.06 L 1317.13 1248.39 L 1311.00 1250.57 L 1301.71 1250.57 L 1292.42 1255.30 L 1268.30 1274.88 L 1270.08 1282.99 L 1285.30 1290.30 L 1296.77 1301.17 L 1305.27 1310.47 L 1302.70 1316.00 L 1286.49 1316.99 L 1275.81 1314.82 L 1259.80 1318.77 L 1254.07 1322.72 L 1241.22 1322.93 L 1219.67 1327.28 L 1193.38 1335.58 L 1191.40 1338.54 L 1173.81 1346.65 L 1161.55 1354.74 L 1148.11 1355.54 L 1141.98 1359.10 L 1131.51 1368.98 L 1111.93 1373.92 L 1093.15 1380.45 L 1073.98 1394.49 L 1065.27 1398.84 L 1057.76 1407.73 L 1046.50 1409.11 L 1035.82 1421.38 L 1009.33 1434.42 L 983.83 1451.03 L 947.85 1467.83 L 930.65 1476.72 L 913.46 1490.17 L 885.19 1523.98 L 869.38 1539.20 L 862.85 1543.36 L 861.47 1548.30 L 855.53 1560.55 L 839.72 1562.92 L 818.37 1560.55 L 806.51 1563.72 L 792.83 1564.98 L 774.68 1551.66 L 760.05 1537.62 L 747.00 1523.98 L 734.95 1516.47 L 716.96 1507.77 L 709.84 1500.25 L 709.64 1492.94 L 702.33 1477.72 L 684.14 1448.06 L 670.50 1438.17 L 659.43 1434.82 L 651.84 1424.92 L 634.80 1417.69 L 618.45 1414.59 L 610.71 1416.83 L 595.39 1405.47 L 592.12 1396.00 L 592.81 1389.81 L 587.48 1382.06 L 587.65 1373.29 L 584.21 1366.23 L 588.51 1348.33 L 589.71 1337.83 L 584.55 1332.85 L 576.12 1319.25 L 562.35 1304.79 L 557.88 1297.05 L 549.79 1286.37 L 553.05 1280.70 L 540.59 1254.77 L 522.32 1249.07 L 504.94 1241.28 L 494.75 1242.48 L 486.66 1246.97 L 479.34 1242.15 L 459.51 1240.81 L 439.70 1238.23 L 432.60 1182.09 L 391.46 1109.82 L 348.41 1030.87 L 325.03 935.02" pathLength="1" fill="none" vector-effect="non-scaling-stroke"/>
  <circle class="trace-start" cx="1677.08" cy="1022.02" r="6.25"/>
  <circle class="trace-summit-halo" cx="322.92" cy="937.39" r="15.97"/>
  <circle class="trace-summit" cx="322.92" cy="937.39" r="9.03"/>
</svg>
