<svg xmlns="http://www.w3.org/2000/svg" viewBox="-105.5782720 -37.9653087 0.0191640 0.0070397" preserveAspectRatio="xMidYMid meet">
  <path d="M -105.5607050 -37.9639119 L -105.5609778 -37.9637884 L -105.5610632 -37.9637719 L -105.5612053 -37.9637670 L -105.5615251 -37.9637213 L -105.5616476 -37.9636875 L -105.5617886 -37.9636582 L -105.5619027 -37.9636976 L -105.5620334 -37.9637721 L -105.5621549 -37.9638190 L -105.5623164 -37.9638076 L -105.5624748 -37.9637383 L -105.5627641 -37.9635694 L -105.5627571 -37.9634460 L -105.5628715 -37.9632840 L -105.5629369 -37.9632122 L -105.5628972 -37.9631644 L -105.5629252 -37.9631165 L -105.5628482 -37.9630410 L -105.5629532 -37.9629895 L -105.5631377 -37.9628348 L -105.5630980 -37.9627538 L -105.5630910 -37.9626342 L -105.5631914 -37.9624556 L -105.5634926 -37.9622641 L -105.5636537 -37.9622255 L -105.5637915 -37.9622163 L -105.5638686 -37.9622034 L -105.5639853 -37.9621334 L -105.5640904 -37.9620432 L -105.5641885 -37.9619125 L -105.5643846 -37.9618996 L -105.5645340 -37.9618057 L -105.5648866 -37.9618628 L -105.5649567 -37.9618039 L -105.5650291 -37.9617836 L -105.5651388 -37.9617836 L -105.5652485 -37.9617395 L -105.5655334 -37.9615572 L -105.5655124 -37.9614817 L -105.5653326 -37.9614136 L -105.5651972 -37.9613124 L -105.5650968 -37.9612258 L -105.5651271 -37.9611743 L -105.5653186 -37.9611651 L -105.5654447 -37.9611853 L -105.5656338 -37.9611485 L -105.5657015 -37.9611117 L -105.5658533 -37.9611098 L -105.5661078 -37.9610693 L -105.5664184 -37.9609920 L -105.5664417 -37.9609644 L -105.5666495 -37.9608889 L -105.5667943 -37.9608135 L -105.5669531 -37.9608061 L -105.5670255 -37.9607729 L -105.5671492 -37.9606809 L -105.5673804 -37.9606349 L -105.5676022 -37.9605741 L -105.5678287 -37.9604434 L -105.5679315 -37.9604029 L -105.5680202 -37.9603201 L -105.5681533 -37.9603072 L -105.5682794 -37.9601930 L -105.5685923 -37.9600715 L -105.5688935 -37.9599169 L -105.5693185 -37.9597604 L -105.5695216 -37.9596776 L -105.5697247 -37.9595524 L -105.5700586 -37.9592375 L -105.5702454 -37.9590958 L -105.5703225 -37.9590571 L -105.5703388 -37.9590111 L -105.5704089 -37.9588970 L -105.5705957 -37.9588749 L -105.5708479 -37.9588970 L -105.5709880 -37.9588675 L -105.5711495 -37.9588557 L -105.5713639 -37.9589798 L -105.5715367 -37.9591105 L -105.5716908 -37.9592375 L -105.5718332 -37.9593075 L -105.5720457 -37.9593885 L -105.5721298 -37.9594585 L -105.5721321 -37.9595266 L -105.5722185 -37.9596683 L -105.5724333 -37.9599445 L -105.5725945 -37.9600366 L -105.5727252 -37.9600678 L -105.5728149 -37.9601600 L -105.5730161 -37.9602273 L -105.5732092 -37.9602562 L -105.5733007 -37.9602353 L -105.5734816 -37.9603411 L -105.5735202 -37.9604293 L -105.5735121 -37.9604870 L -105.5735751 -37.9605591 L -105.5735731 -37.9606408 L -105.5736137 -37.9607065 L -105.5735629 -37.9608732 L -105.5735487 -37.9609710 L -105.5736097 -37.9610174 L -105.5737093 -37.9611440 L -105.5738719 -37.9612787 L -105.5739247 -37.9613508 L -105.5740203 -37.9614502 L -105.5739817 -37.9615030 L -105.5741289 -37.9617445 L -105.5743447 -37.9617976 L -105.5745500 -37.9618701 L -105.5746704 -37.9618589 L -105.5747659 -37.9618171 L -105.5748524 -37.9618620 L -105.5750866 -37.9618745 L -105.5753206 -37.9618985 L -105.5754045 -37.9624213 L -105.5758904 -37.9630943 L -105.5763989 -37.9638295 L -105.5766750 -37.9647221" pathLength="1" fill="none" stroke="currentColor" vector-effect="non-scaling-stroke"/>
</svg>
