<svg xmlns="http://www.w3.org/2000/svg" viewBox="0 0 1600 900" preserveAspectRatio="xMidYMid slice">
  <path class="trace-line" d="M 1392.71 123.81 L 1379.86 122.72 L 1370.81 122.85 L 1363.84 123.55 L 1357.48 125.69 L 1349.81 129.42 L 1341.18 135.43 L 1332.96 139.64 L 1326.06 145.73 L 1317.28 157.88 L 1307.81 166.53 L 1299.94 174.60 L 1283.43 192.65 L 1276.60 198.59 L 1269.48 202.32 L 1262.99 209.43 L 1258.63 215.44 L 1252.42 220.28 L 1247.79 225.60 L 1241.65 229.06 L 1235.91 233.20 L 1223.20 246.61 L 1216.36 248.89 L 1203.23 247.85 L 1197.15 248.95 L 1191.15 251.03 L 1175.75 257.87 L 1165.38 259.04 L 1158.75 261.18 L 1150.66 264.85 L 1138.86 266.30 L 1130.84 273.63 L 1123.73 278.53 L 1115.86 281.16 L 1108.19 284.95 L 1103.28 290.76 L 1097.34 300.02 L 1094.64 308.03 L 1093.13 316.40 L 1090.78 325.10 L 1088.36 331.87 L 1084.63 337.20 L 1079.58 341.76 L 1074.89 344.10 L 1066.81 345.42 L 1061.35 348.32 L 1058.66 355.23 L 1052.72 359.10 L 1045.47 360.62 L 1031.65 364.83 L 1019.42 371.67 L 1008.31 392.47 L 1026.19 403.46 L 1012.03 393.03 L 1002.78 391.64 L 987.64 405.80 L 983.78 418.60 L 976.93 430.25 L 973.14 422.46 L 964.58 410.92 L 960.02 407.88 L 955.03 408.35 L 952.76 430.20 L 945.03 442.70 L 933.45 455.01 L 924.86 469.44 L 918.71 472.97 L 915.12 470.41 L 910.08 454.73 L 905.31 446.71 L 901.51 442.70 L 895.85 440.70 L 886.45 456.32 L 862.00 476.35 L 834.58 497.22 L 815.51 508.00 L 799.49 516.15 L 791.61 523.34 L 785.94 530.12 L 773.81 558.52 L 752.58 612.69 L 748.85 626.16 L 743.25 659.12 L 737.94 677.29 L 721.15 721.17 L 704.09 696.99 L 689.38 674.80 L 678.60 699.96 L 669.76 716.61 L 662.72 725.46 L 653.05 735.61 L 633.08 747.57 L 623.55 761.38 L 621.13 777.28 L 614.78 772.66 L 609.25 772.66 L 603.59 770.30 L 594.26 774.03 L 585.00 769.54 L 571.81 758.56 L 557.38 745.85 L 547.35 734.79 L 534.99 726.77 L 518.48 718.55 L 493.48 707.77 L 472.62 699.55 L 431.17 689.53 L 388.49 680.68 L 370.46 674.67 L 353.18 671.57 L 338.61 666.72 L 313.74 676.47 L 279.48 679.03 L 259.58 677.29 L 230.43 678.19 L 216.13 671.63 L 212.75 671.42 L 207.29 672.33" pathLength="1" fill="none" vector-effect="non-scaling-stroke"/>
  <circle class="trace-start" cx="1392.71" cy="123.81" r="5.47"/>
  <circle class="trace-summit-halo" cx="212.51" cy="673.34" r="13.98"/>
  <circle class="trace-summit" cx="212.51" cy="673.34" r="7.90"/>
</svg>
