<svg xmlns="http://www.w3.org/2000/svg" viewBox="0 0 2000 2500" preserveAspectRatio="xMidYMid slice">
  <path class="trace-line" d="M 1677.08 877.50 L 1662.41 876.26 L 1652.08 876.41 L 1644.11 877.20 L 1636.85 879.65 L 1628.08 883.91 L 1618.22 890.77 L 1608.83 895.58 L 1600.95 902.53 L 1590.92 916.41 L 1580.10 926.28 L 1571.11 935.51 L 1552.25 956.11 L 1544.45 962.89 L 1536.32 967.15 L 1528.90 975.28 L 1523.92 982.14 L 1516.83 987.67 L 1511.53 993.74 L 1504.52 997.69 L 1497.96 1002.42 L 1483.44 1017.73 L 1475.63 1020.33 L 1460.64 1019.15 L 1453.69 1020.41 L 1446.83 1022.78 L 1429.24 1030.59 L 1417.40 1031.93 L 1409.82 1034.38 L 1400.58 1038.56 L 1387.10 1040.22 L 1377.94 1048.59 L 1369.81 1054.19 L 1360.82 1057.19 L 1352.07 1061.52 L 1346.45 1068.16 L 1339.67 1078.73 L 1336.59 1087.88 L 1334.86 1097.43 L 1332.18 1107.37 L 1329.41 1115.10 L 1325.15 1121.18 L 1319.39 1126.39 L 1314.02 1129.07 L 1304.79 1130.57 L 1298.56 1133.89 L 1295.49 1141.77 L 1288.70 1146.20 L 1280.41 1147.93 L 1264.63 1152.74 L 1250.66 1160.55 L 1237.96 1184.30 L 1258.39 1196.85 L 1242.21 1184.94 L 1231.65 1183.35 L 1214.36 1199.53 L 1209.95 1214.14 L 1202.12 1227.45 L 1197.79 1218.55 L 1188.01 1205.37 L 1182.80 1201.90 L 1177.10 1202.44 L 1174.51 1227.39 L 1165.67 1241.66 L 1152.45 1255.72 L 1142.63 1272.20 L 1135.61 1276.23 L 1131.51 1273.31 L 1125.75 1255.40 L 1120.30 1246.24 L 1115.97 1241.66 L 1109.49 1239.38 L 1098.76 1257.21 L 1070.83 1280.10 L 1039.50 1303.92 L 1017.72 1316.23 L 999.42 1325.55 L 990.42 1333.75 L 983.94 1341.49 L 970.08 1373.93 L 945.83 1435.78 L 941.57 1451.17 L 935.18 1488.81 L 929.10 1509.57 L 909.92 1559.67 L 890.43 1532.05 L 873.63 1506.72 L 861.32 1535.45 L 851.22 1554.47 L 843.17 1564.57 L 832.12 1576.16 L 809.32 1589.81 L 798.43 1605.59 L 795.67 1623.74 L 788.41 1618.46 L 782.10 1618.46 L 775.63 1615.77 L 764.97 1620.03 L 754.40 1614.90 L 739.32 1602.37 L 722.84 1587.85 L 711.39 1575.22 L 697.27 1566.06 L 678.40 1556.67 L 649.84 1544.36 L 626.01 1534.98 L 578.67 1523.53 L 529.90 1513.43 L 509.31 1506.57 L 489.57 1503.02 L 472.92 1497.48 L 444.51 1508.62 L 405.37 1511.54 L 382.65 1509.57 L 349.35 1510.58 L 333.01 1503.10 L 329.15 1502.86 L 322.92 1503.89" pathLength="1" fill="none" vector-effect="non-scaling-stroke"/>
  <circle class="trace-start" cx="1677.08" cy="877.50" r="6.25"/>
  <circle class="trace-summit-halo" cx="328.87" cy="1505.05" r="15.97"/>
  <circle class="trace-summit" cx="328.87" cy="1505.05" r="9.03"/>
</svg>
