<svg xmlns="http://www.w3.org/2000/svg" viewBox="0 0 2000 2500" preserveAspectRatio="none">
  <path class="trace-underlay" d="M 1459.01 1012.54 L 1446.97 1011.75 L 1438.48 1011.84 L 1431.94 1012.34 L 1425.98 1013.89 L 1418.78 1016.58 L 1410.69 1020.92 L 1402.98 1023.96 L 1396.50 1028.35 L 1388.27 1037.12 L 1379.39 1043.35 L 1372.01 1049.18 L 1356.52 1062.20 L 1350.12 1066.48 L 1343.44 1069.18 L 1337.36 1074.31 L 1333.27 1078.64 L 1327.44 1082.13 L 1323.09 1085.97 L 1317.34 1088.47 L 1311.95 1091.46 L 1300.03 1101.13 L 1293.62 1102.77 L 1281.31 1102.02 L 1275.61 1102.82 L 1269.98 1104.32 L 1255.53 1109.25 L 1245.81 1110.10 L 1239.59 1111.65 L 1232.00 1114.29 L 1220.93 1115.34 L 1213.42 1120.62 L 1206.74 1124.16 L 1199.36 1126.05 L 1192.17 1128.79 L 1187.56 1132.99 L 1182.00 1139.67 L 1179.47 1145.44 L 1178.04 1151.48 L 1175.84 1157.76 L 1173.57 1162.64 L 1170.07 1166.49 L 1165.34 1169.77 L 1160.93 1171.47 L 1153.36 1172.42 L 1148.24 1174.51 L 1145.72 1179.49 L 1140.14 1182.29 L 1133.34 1183.39 L 1120.38 1186.42 L 1108.92 1191.36 L 1098.49 1206.36 L 1115.26 1214.29 L 1101.98 1206.76 L 1093.30 1205.77 L 1079.11 1215.98 L 1075.49 1225.21 L 1069.06 1233.62 L 1065.51 1228.00 L 1057.48 1219.68 L 1053.20 1217.48 L 1048.52 1217.82 L 1046.40 1233.58 L 1039.14 1242.60 L 1028.28 1251.48 L 1020.22 1261.89 L 1014.45 1264.44 L 1011.09 1262.60 L 1006.36 1251.28 L 1001.88 1245.50 L 998.33 1242.60 L 993.02 1241.16 L 984.20 1252.43 L 961.27 1266.88 L 935.55 1281.94 L 917.66 1289.71 L 902.64 1295.60 L 895.25 1300.78 L 889.94 1305.67 L 878.55 1326.17 L 858.64 1365.24 L 855.14 1374.96 L 849.90 1398.74 L 844.91 1411.86 L 829.16 1443.51 L 813.16 1426.06 L 799.37 1410.06 L 789.26 1428.21 L 780.97 1440.22 L 774.36 1446.61 L 765.29 1453.93 L 746.57 1462.55 L 737.63 1472.52 L 735.36 1483.99 L 729.40 1480.66 L 724.22 1480.66 L 718.91 1478.95 L 710.15 1481.65 L 701.48 1478.41 L 675.56 1461.31 L 666.16 1453.34 L 654.57 1447.55 L 639.08 1441.62 L 615.63 1433.84 L 596.07 1427.91 L 557.20 1420.68 L 517.16 1414.30 L 500.25 1409.96 L 484.05 1407.72 L 470.38 1404.22 L 447.06 1411.26 L 414.92 1413.11 L 396.27 1411.86 L 368.92 1412.50 L 355.51 1407.77 L 352.34 1407.62 L 347.22 1408.27" pathLength="1" fill="none" vector-effect="non-scaling-stroke"/>
  <path class="trace-line" d="M 1459.01 1012.54 L 1446.97 1011.75 L 1438.48 1011.84 L 1431.94 1012.34 L 1425.98 1013.89 L 1418.78 1016.58 L 1410.69 1020.92 L 1402.98 1023.96 L 1396.50 1028.35 L 1388.27 1037.12 L 1379.39 1043.35 L 1372.01 1049.18 L 1356.52 1062.20 L 1350.12 1066.48 L 1343.44 1069.18 L 1337.36 1074.31 L 1333.27 1078.64 L 1327.44 1082.13 L 1323.09 1085.97 L 1317.34 1088.47 L 1311.95 1091.46 L 1300.03 1101.13 L 1293.62 1102.77 L 1281.31 1102.02 L 1275.61 1102.82 L 1269.98 1104.32 L 1255.53 1109.25 L 1245.81 1110.10 L 1239.59 1111.65 L 1232.00 1114.29 L 1220.93 1115.34 L 1213.42 1120.62 L 1206.74 1124.16 L 1199.36 1126.05 L 1192.17 1128.79 L 1187.56 1132.99 L 1182.00 1139.67 L 1179.47 1145.44 L 1178.04 1151.48 L 1175.84 1157.76 L 1173.57 1162.64 L 1170.07 1166.49 L 1165.34 1169.77 L 1160.93 1171.47 L 1153.36 1172.42 L 1148.24 1174.51 L 1145.72 1179.49 L 1140.14 1182.29 L 1133.34 1183.39 L 1120.38 1186.42 L 1108.92 1191.36 L 1098.49 1206.36 L 1115.26 1214.29 L 1101.98 1206.76 L 1093.30 1205.77 L 1079.11 1215.98 L 1075.49 1225.21 L 1069.06 1233.62 L 1065.51 1228.00 L 1057.48 1219.68 L 1053.20 1217.48 L 1048.52 1217.82 L 1046.40 1233.58 L 1039.14 1242.60 L 1028.28 1251.48 L 1020.22 1261.89 L 1014.45 1264.44 L 1011.09 1262.60 L 1006.36 1251.28 L 1001.88 1245.50 L 998.33 1242.60 L 993.02 1241.16 L 984.20 1252.43 L 961.27 1266.88 L 935.55 1281.94 L 917.66 1289.71 L 902.64 1295.60 L 895.25 1300.78 L 889.94 1305.67 L 878.55 1326.17 L 858.64 1365.24 L 855.14 1374.96 L 849.90 1398.74 L 844.91 1411.86 L 829.16 1443.51 L 813.16 1426.06 L 799.37 1410.06 L 789.26 1428.21 L 780.97 1440.22 L 774.36 1446.61 L 765.29 1453.93 L 746.57 1462.55 L 737.63 1472.52 L 735.36 1483.99 L 729.40 1480.66 L 724.22 1480.66 L 718.91 1478.95 L 710.15 1481.65 L 701.48 1478.41 L 675.56 1461.31 L 666.16 1453.34 L 654.57 1447.55 L 639.08 1441.62 L 615.63 1433.84 L 596.07 1427.91 L 557.20 1420.68 L 517.16 1414.30 L 500.25 1409.96 L 484.05 1407.72 L 470.38 1404.22 L 447.06 1411.26 L 414.92 1413.11 L 396.27 1411.86 L 368.92 1412.50 L 355.51 1407.77 L 352.34 1407.62 L 347.22 1408.27" pathLength="1" fill="none" vector-effect="non-scaling-stroke"/>
</svg>
