<svg xmlns="http://www.w3.org/2000/svg" viewBox="-106.1412013 -39.3442238 0.0138088 0.0058951" preserveAspectRatio="xMidYMid meet">
  <path d="M -106.1285433 -39.3437243 L -106.1286680 -39.3437325 L -106.1287558 -39.3437315 L -106.1288235 -39.3437263 L -106.1288852 -39.3437102 L -106.1289597 -39.3436822 L -106.1290435 -39.3436371 L -106.1291233 -39.3436055 L -106.1291903 -39.3435598 L -106.1292755 -39.3434686 L -106.1293674 -39.3434037 L -106.1294438 -39.3433431 L -106.1296041 -39.3432077 L -106.1296704 -39.3431631 L -106.1297395 -39.3431351 L -106.1298025 -39.3430817 L -106.1298448 -39.3430366 L -106.1299051 -39.3430003 L -106.1299501 -39.3429604 L -106.1300097 -39.3429344 L -106.1300654 -39.3429033 L -106.1301888 -39.3428027 L -106.1302552 -39.3427856 L -106.1303826 -39.3427934 L -106.1304416 -39.3427851 L -106.1304999 -39.3427695 L -106.1306494 -39.3427182 L -106.1307500 -39.3427094 L -106.1308144 -39.3426933 L -106.1308929 -39.3426658 L -106.1310075 -39.3426549 L -106.1310853 -39.3425999 L -106.1311544 -39.3425631 L -106.1312308 -39.3425434 L -106.1313052 -39.3425149 L -106.1313529 -39.3424713 L -106.1314105 -39.3424018 L -106.1314367 -39.3423417 L -106.1314514 -39.3422789 L -106.1314742 -39.3422136 L -106.1314977 -39.3421628 L -106.1315339 -39.3421228 L -106.1315829 -39.3420886 L -106.1316285 -39.3420710 L -106.1317069 -39.3420611 L -106.1317599 -39.3420393 L -106.1317860 -39.3419875 L -106.1318437 -39.3419584 L -106.1319141 -39.3419470 L -106.1320482 -39.3419154 L -106.1321669 -39.3418641 L -106.1322748 -39.3417080 L -106.1321012 -39.3416255 L -106.1322387 -39.3417038 L -106.1323285 -39.3417142 L -106.1324754 -39.3416079 L -106.1325129 -39.3415119 L -106.1325794 -39.3414244 L -106.1326162 -39.3414829 L -106.1326993 -39.3415695 L -106.1327436 -39.3415923 L -106.1327920 -39.3415888 L -106.1328140 -39.3414248 L -106.1328891 -39.3413310 L -106.1330015 -39.3412386 L -106.1330849 -39.3411303 L -106.1331446 -39.3411038 L -106.1331794 -39.3411230 L -106.1332284 -39.3412407 L -106.1332747 -39.3413009 L -106.1333115 -39.3413310 L -106.1333665 -39.3413460 L -106.1334577 -39.3412288 L -106.1336951 -39.3410784 L -106.1339613 -39.3409218 L -106.1341464 -39.3408409 L -106.1343019 -39.3407797 L -106.1343784 -39.3407258 L -106.1344334 -39.3406749 L -106.1345512 -39.3404617 L -106.1347573 -39.3400552 L -106.1347935 -39.3399541 L -106.1348478 -39.3397067 L -106.1348994 -39.3395703 L -106.1350624 -39.3392410 L -106.1352280 -39.3394225 L -106.1353708 -39.3395890 L -106.1354754 -39.3394002 L -106.1355612 -39.3392752 L -106.1356296 -39.3392088 L -106.1357235 -39.3391326 L -106.1359173 -39.3390429 L -106.1360098 -39.3389392 L -106.1360333 -39.3388199 L -106.1360950 -39.3388546 L -106.1361486 -39.3388546 L -106.1362036 -39.3388723 L -106.1362942 -39.3388443 L -106.1363840 -39.3388780 L -106.1366522 -39.3390558 L -106.1367495 -39.3391388 L -106.1368695 -39.3391990 L -106.1370298 -39.3392607 L -106.1372725 -39.3393416 L -106.1374750 -39.3394033 L -106.1378773 -39.3394785 L -106.1382917 -39.3395449 L -106.1384667 -39.3395900 L -106.1386344 -39.3396133 L -106.1387759 -39.3396497 L -106.1390173 -39.3395765 L -106.1393499 -39.3395573 L -106.1395430 -39.3395703 L -106.1398260 -39.3395636 L -106.1399648 -39.3396128 L -106.1399976 -39.3396144 L -106.1400506 -39.3396076" pathLength="1" fill="none" stroke="currentColor" vector-effect="non-scaling-stroke"/>
</svg>
