<svg xmlns="http://www.w3.org/2000/svg" viewBox="0 0 2000 2500" preserveAspectRatio="xMidYMid slice">
  <path class="trace-line" d="M 322.92 1226.22 L 330.37 1223.27 L 338.07 1221.94 L 349.27 1216.03 L 353.63 1220.08 L 360.03 1231.67 L 360.10 1237.95 L 358.20 1240.84 L 357.95 1243.89 L 358.99 1245.71 L 363.05 1246.85 L 372.95 1241.44 L 378.83 1242.21 L 387.61 1240.57 L 399.40 1235.00 L 431.35 1228.63 L 455.59 1228.38 L 451.06 1234.07 L 444.01 1239.93 L 460.75 1232.67 L 477.04 1227.18 L 472.67 1232.87 L 465.44 1237.60 L 486.90 1229.52 L 501.41 1219.80 L 531.71 1193.55 L 533.59 1195.12 L 524.37 1212.41 L 545.47 1197.46 L 546.72 1197.90 L 542.13 1205.03 L 542.52 1206.08 L 556.73 1195.40 L 569.87 1187.23 L 586.23 1180.35 L 588.26 1184.84 L 582.70 1189.00 L 570.45 1208.62 L 561.00 1236.71 L 559.67 1244.05 L 561.47 1243.83 L 565.41 1238.51 L 576.89 1229.17 L 579.89 1228.29 L 578.27 1237.31 L 596.73 1229.54 L 629.20 1223.73 L 636.05 1223.44 L 645.45 1224.97 L 655.04 1223.46 L 668.55 1223.84 L 691.27 1213.24 L 701.41 1209.69 L 717.78 1198.85 L 727.25 1190.69 L 740.37 1183.20 L 760.81 1174.96 L 780.80 1170.99 L 822.61 1170.82 L 831.26 1172.04 L 839.74 1175.10 L 835.74 1169.86 L 840.85 1172.46 L 844.94 1177.06 L 849.48 1179.01 L 869.03 1179.22 L 861.43 1175.13 L 862.20 1174.56 L 871.14 1177.08 L 882.73 1188.38 L 902.42 1191.81 L 927.47 1179.39 L 942.83 1174.89 L 958.63 1166.79 L 951.23 1165.60 L 974.04 1160.62 L 997.13 1159.72 L 985.40 1155.50 L 1027.17 1152.40 L 1024.52 1148.74 L 1028.56 1149.12 L 1025.41 1145.84 L 1031.97 1145.84 L 1027.93 1143.06 L 1037.40 1139.65 L 1027.43 1136.75 L 1040.62 1131.15 L 1049.01 1120.97 L 1043.23 1118.01 L 1035.38 1118.07 L 1059.45 1103.45 L 1074.91 1096.24 L 1089.09 1094.49 L 1092.98 1092.58 L 1098.04 1087.52 L 1119.07 1089.29 L 1134.85 1096.24 L 1140.64 1095.87 L 1148.31 1099.35 L 1156.58 1098.76 L 1168.81 1102.17 L 1163.76 1093.71 L 1171.33 1098.00 L 1167.29 1092.70 L 1176.26 1096.11 L 1177.70 1093.31 L 1181.35 1091.88 L 1196.99 1096.62 L 1215.01 1110.12 L 1211.90 1119.44 L 1207.05 1124.68 L 1208.14 1129.76 L 1218.42 1125.14 L 1220.09 1126.42 L 1217.39 1130.29 L 1217.78 1131.32 L 1222.72 1128.16 L 1224.85 1129.70 L 1220.53 1137.16 L 1221.68 1138.93 L 1225.89 1138.63 L 1227.86 1137.11 L 1235.00 1139.87 L 1239.79 1155.66 L 1235.36 1163.07 L 1240.56 1160.62 L 1238.81 1166.36 L 1239.58 1166.94 L 1241.20 1165.39 L 1240.14 1169.22 L 1240.83 1174.46 L 1242.26 1173.97 L 1243.56 1170.65 L 1247.81 1166.23 L 1246.47 1171.35 L 1249.14 1168.17 L 1249.48 1170.74 L 1251.93 1167.11 L 1255.17 1165.40 L 1256.52 1162.19 L 1257.46 1164.73 L 1256.89 1166.63 L 1264.42 1162.44 L 1271.44 1160.95 L 1289.05 1153.90 L 1295.39 1153.84 L 1299.75 1155.74 L 1312.76 1152.06 L 1313.36 1147.61 L 1310.16 1143.03 L 1305.52 1139.95 L 1307.06 1133.14 L 1310.33 1131.37 L 1308.97 1125.07 L 1309.93 1123.70 L 1323.72 1121.08 L 1346.36 1129.61 L 1355.16 1127.42 L 1356.11 1130.36 L 1363.27 1132.56 L 1370.91 1130.19 L 1372.67 1122.87 L 1375.42 1122.63 L 1378.39 1117.61 L 1396.23 1106.98 L 1409.25 1105.16 L 1419.11 1105.46 L 1423.11 1103.93 L 1427.55 1105.40 L 1436.94 1101.30 L 1443.65 1104.92 L 1450.07 1103.90 L 1452.02 1104.98 L 1463.49 1099.21 L 1468.37 1093.99 L 1472.37 1091.75 L 1487.17 1091.44 L 1516.33 1084.88 L 1522.27 1080.05 L 1523.46 1077.82 L 1523.11 1072.78 L 1525.48 1071.17 L 1525.57 1069.15 L 1529.03 1067.38 L 1531.37 1067.46 L 1532.08 1061.93 L 1529.68 1057.77 L 1531.70 1051.84 L 1541.80 1043.51 L 1547.53 1029.67 L 1573.88 1018.36 L 1587.38 1019.24 L 1592.67 1022.97 L 1596.63 1022.59 L 1602.19 1019.15 L 1612.87 1020.92 L 1620.67 1026.30 L 1622.52 1029.22 L 1625.09 1029.14 L 1631.50 1036.01 L 1633.34 1036.21 L 1634.55 1038.58 L 1641.21 1043.96 L 1646.84 1052.04 L 1660.58 1061.33 L 1663.00 1064.05 L 1664.92 1069.38 L 1668.52 1073.95 L 1667.71 1083.76 L 1668.40 1086.08 L 1672.71 1089.72 L 1675.60 1094.40 L 1677.08 1109.08 L 1675.77 1115.00 L 1671.44 1118.62 L 1672.45 1124.37 L 1670.34 1125.18 L 1664.38 1124.43 L 1659.39 1126.77 L 1663.15 1138.18 L 1660.83 1146.75 L 1659.38 1147.52 L 1654.95 1145.62 L 1650.50 1146.02 L 1643.32 1149.87 L 1642.41 1153.58 L 1640.25 1152.57 L 1639.84 1154.17 L 1637.77 1154.07 L 1641.06 1163.51 L 1646.52 1170.52 L 1649.13 1176.44 L 1652.65 1188.76 L 1651.10 1193.29 L 1648.59 1195.97 L 1644.05 1194.14 L 1635.66 1185.81 L 1634.68 1185.84 L 1637.70 1195.89 L 1635.24 1202.60 L 1634.95 1224.50 L 1634.36 1228.95 L 1632.15 1233.56 L 1633.98 1239.42 L 1631.60 1242.25 L 1631.80 1245.51 L 1629.09 1246.27 L 1628.95 1249.52 L 1625.90 1248.37 L 1625.63 1251.11 L 1621.97 1249.22 L 1613.37 1265.60 L 1608.06 1271.19 L 1602.86 1274.15 L 1598.34 1281.73 L 1593.54 1283.55 L 1587.46 1289.21 L 1585.59 1307.59 L 1589.32 1319.77 L 1589.97 1325.84 L 1587.78 1330.16 L 1576.55 1341.01 L 1575.35 1344.04 L 1574.58 1347.59 L 1576.14 1359.81 L 1575.97 1367.13 L 1572.23 1384.05 L 1573.43 1391.09 L 1575.82 1393.66 L 1577.88 1395.01 L 1583.68 1394.82 L 1586.94 1397.45 L 1609.32 1420.75 L 1616.35 1435.98 L 1620.26 1438.71 L 1624.09 1444.30 L 1633.51 1464.50 L 1639.68 1472.00 L 1644.89 1480.47" pathLength="1" fill="none" vector-effect="non-scaling-stroke"/>
  <circle class="trace-start" cx="322.92" cy="1226.22" r="6.25"/>
  <circle class="trace-summit-halo" cx="1643.93" cy="1481.64" r="15.97"/>
  <circle class="trace-summit" cx="1643.93" cy="1481.64" r="9.03"/>
</svg>
