<svg xmlns="http://www.w3.org/2000/svg" viewBox="0 0 2000 2500" preserveAspectRatio="none">
  <path class="trace-underlay" d="M -31.72 764.01 L -24.67 761.86 L -17.40 760.90 L -6.82 756.59 L -2.69 759.53 L 3.36 767.97 L 3.42 772.55 L 1.63 774.65 L 1.39 776.87 L 2.38 778.20 L 6.21 779.03 L 15.57 775.09 L 21.13 775.65 L 29.43 774.46 L 40.57 770.40 L 70.76 765.77 L 93.67 765.58 L 89.38 769.72 L 82.72 773.99 L 98.55 768.71 L 113.93 764.71 L 109.80 768.85 L 102.97 772.29 L 123.25 766.41 L 136.97 759.33 L 151.03 749.36 L 165.60 740.22 L 167.38 741.37 L 158.67 753.95 L 178.61 743.07 L 179.79 743.39 L 175.45 748.58 L 175.82 749.34 L 189.25 741.57 L 201.66 735.62 L 217.13 730.61 L 219.05 733.87 L 213.79 736.91 L 202.21 751.20 L 193.28 771.65 L 191.68 775.90 L 192.02 776.99 L 193.73 776.83 L 197.45 772.96 L 208.30 766.15 L 211.13 765.52 L 209.61 772.09 L 227.05 766.43 L 257.73 762.19 L 264.21 761.99 L 273.09 763.10 L 282.15 762.00 L 294.92 762.27 L 316.39 754.55 L 325.97 751.97 L 341.44 744.08 L 350.40 738.13 L 362.80 732.68 L 382.11 726.68 L 401.01 723.79 L 427.55 723.22 L 440.51 723.67 L 448.69 724.56 L 456.70 726.79 L 452.92 722.97 L 457.76 724.86 L 461.62 728.21 L 465.91 729.63 L 484.38 729.79 L 477.20 726.81 L 477.93 726.39 L 486.38 728.23 L 497.33 736.45 L 515.94 738.95 L 539.61 729.91 L 554.13 726.63 L 569.06 720.73 L 562.07 719.87 L 583.63 716.24 L 605.44 715.58 L 594.36 712.51 L 633.84 710.25 L 631.33 707.59 L 635.15 707.87 L 632.17 705.48 L 638.37 705.48 L 634.55 703.45 L 643.50 700.97 L 634.08 698.86 L 646.54 694.78 L 654.48 687.37 L 649.01 685.22 L 641.59 685.26 L 664.34 674.61 L 678.95 669.36 L 692.35 668.08 L 696.03 666.69 L 700.81 663.01 L 706.15 663.77 L 710.45 663.16 L 713.32 664.30 L 720.69 664.30 L 735.60 669.36 L 741.07 669.09 L 748.31 671.62 L 756.13 671.20 L 767.69 673.68 L 762.92 667.52 L 770.07 670.64 L 766.26 666.78 L 774.73 669.27 L 776.10 667.23 L 779.54 666.18 L 794.32 669.63 L 811.35 679.47 L 810.26 683.37 L 808.41 686.25 L 803.83 690.07 L 804.86 693.77 L 814.57 690.40 L 816.15 691.34 L 813.60 694.16 L 813.97 694.91 L 818.64 692.60 L 820.65 693.72 L 816.57 699.15 L 817.65 700.44 L 821.63 700.23 L 823.49 699.12 L 830.25 701.13 L 834.48 710.38 L 834.77 712.63 L 830.93 716.78 L 830.59 718.03 L 835.50 716.24 L 833.85 720.42 L 834.57 720.84 L 836.10 719.71 L 835.10 722.50 L 835.75 726.32 L 837.10 725.96 L 838.33 723.54 L 842.35 720.33 L 841.08 724.05 L 843.60 721.74 L 843.93 723.61 L 846.24 720.97 L 849.31 719.72 L 850.58 717.38 L 851.47 719.23 L 850.93 720.62 L 856.60 718.74 L 858.05 717.57 L 864.68 716.48 L 881.32 711.35 L 887.32 711.30 L 891.43 712.68 L 903.73 710.01 L 904.30 706.76 L 901.28 703.43 L 896.89 701.19 L 898.11 699.15 L 898.34 696.23 L 901.44 694.94 L 900.15 690.35 L 901.05 689.36 L 914.09 687.45 L 935.48 693.66 L 943.80 692.06 L 944.69 694.21 L 951.47 695.81 L 958.68 694.08 L 960.35 688.75 L 962.94 688.58 L 965.75 684.92 L 971.25 682.91 L 982.61 677.18 L 994.92 675.85 L 1004.23 676.07 L 1008.02 674.96 L 1012.21 676.03 L 1021.09 673.04 L 1027.42 675.68 L 1033.49 674.94 L 1035.33 675.73 L 1046.18 671.52 L 1050.79 667.72 L 1054.57 666.09 L 1068.55 665.86 L 1096.11 661.08 L 1101.72 657.57 L 1102.85 655.95 L 1102.52 652.28 L 1104.76 651.10 L 1104.85 649.63 L 1108.11 648.34 L 1110.32 648.40 L 1110.99 644.38 L 1108.73 641.35 L 1110.63 637.03 L 1120.18 630.96 L 1125.60 620.88 L 1150.50 612.65 L 1163.26 613.29 L 1168.26 616.01 L 1172.00 615.73 L 1177.26 613.22 L 1187.35 614.52 L 1194.72 618.43 L 1196.46 620.56 L 1198.90 620.50 L 1204.96 625.50 L 1206.69 625.65 L 1207.84 627.38 L 1214.13 631.29 L 1219.45 637.17 L 1232.44 643.94 L 1234.72 645.92 L 1236.54 649.80 L 1239.94 653.13 L 1239.17 660.27 L 1239.83 661.96 L 1243.90 664.62 L 1246.63 668.02 L 1248.03 678.71 L 1246.79 683.02 L 1242.70 685.65 L 1243.73 687.70 L 1243.65 689.84 L 1241.66 690.43 L 1236.03 689.89 L 1231.31 691.59 L 1234.87 699.90 L 1234.61 702.37 L 1232.67 706.14 L 1231.30 706.70 L 1227.11 705.32 L 1222.91 705.61 L 1216.12 708.41 L 1215.26 711.12 L 1213.22 710.38 L 1212.83 711.55 L 1210.88 711.47 L 1213.99 718.34 L 1219.14 723.45 L 1221.61 727.76 L 1224.71 734.56 L 1224.94 736.73 L 1224.03 737.61 L 1223.47 740.03 L 1221.11 741.98 L 1216.82 740.65 L 1208.88 734.58 L 1207.96 734.60 L 1210.81 741.92 L 1208.49 746.81 L 1208.22 762.76 L 1207.65 766.00 L 1205.56 769.35 L 1207.29 773.62 L 1205.05 775.68 L 1205.24 778.06 L 1202.67 778.61 L 1202.54 780.97 L 1199.66 780.13 L 1199.40 782.13 L 1195.94 780.75 L 1191.67 786.04 L 1187.82 792.68 L 1182.80 796.75 L 1177.88 798.91 L 1173.62 804.43 L 1169.08 805.75 L 1163.33 809.88 L 1162.21 813.89 L 1161.56 823.26 L 1165.09 832.13 L 1165.71 836.55 L 1163.63 839.69 L 1160.15 842.96 L 1153.02 847.60 L 1151.89 849.80 L 1151.17 852.39 L 1152.64 861.29 L 1152.48 866.62 L 1148.94 878.94 L 1150.08 884.06 L 1152.33 885.93 L 1154.28 886.92 L 1159.76 886.78 L 1162.84 888.70 L 1183.99 905.66 L 1190.63 916.75 L 1194.33 918.74 L 1197.95 922.81 L 1206.85 937.52 L 1212.69 942.98 L 1217.61 949.15" pathLength="1" fill="none" vector-effect="non-scaling-stroke"/>
  <path class="trace-line" d="M -31.72 764.01 L -24.67 761.86 L -17.40 760.90 L -6.82 756.59 L -2.69 759.53 L 3.36 767.97 L 3.42 772.55 L 1.63 774.65 L 1.39 776.87 L 2.38 778.20 L 6.21 779.03 L 15.57 775.09 L 21.13 775.65 L 29.43 774.46 L 40.57 770.40 L 70.76 765.77 L 93.67 765.58 L 89.38 769.72 L 82.72 773.99 L 98.55 768.71 L 113.93 764.71 L 109.80 768.85 L 102.97 772.29 L 123.25 766.41 L 136.97 759.33 L 151.03 749.36 L 165.60 740.22 L 167.38 741.37 L 158.67 753.95 L 178.61 743.07 L 179.79 743.39 L 175.45 748.58 L 175.82 749.34 L 189.25 741.57 L 201.66 735.62 L 217.13 730.61 L 219.05 733.87 L 213.79 736.91 L 202.21 751.20 L 193.28 771.65 L 191.68 775.90 L 192.02 776.99 L 193.73 776.83 L 197.45 772.96 L 208.30 766.15 L 211.13 765.52 L 209.61 772.09 L 227.05 766.43 L 257.73 762.19 L 264.21 761.99 L 273.09 763.10 L 282.15 762.00 L 294.92 762.27 L 316.39 754.55 L 325.97 751.97 L 341.44 744.08 L 350.40 738.13 L 362.80 732.68 L 382.11 726.68 L 401.01 723.79 L 427.55 723.22 L 440.51 723.67 L 448.69 724.56 L 456.70 726.79 L 452.92 722.97 L 457.76 724.86 L 461.62 728.21 L 465.91 729.63 L 484.38 729.79 L 477.20 726.81 L 477.93 726.39 L 486.38 728.23 L 497.33 736.45 L 515.94 738.95 L 539.61 729.91 L 554.13 726.63 L 569.06 720.73 L 562.07 719.87 L 583.63 716.24 L 605.44 715.58 L 594.36 712.51 L 633.84 710.25 L 631.33 707.59 L 635.15 707.87 L 632.17 705.48 L 638.37 705.48 L 634.55 703.45 L 643.50 700.97 L 634.08 698.86 L 646.54 694.78 L 654.48 687.37 L 649.01 685.22 L 641.59 685.26 L 664.34 674.61 L 678.95 669.36 L 692.35 668.08 L 696.03 666.69 L 700.81 663.01 L 706.15 663.77 L 710.45 663.16 L 713.32 664.30 L 720.69 664.30 L 735.60 669.36 L 741.07 669.09 L 748.31 671.62 L 756.13 671.20 L 767.69 673.68 L 762.92 667.52 L 770.07 670.64 L 766.26 666.78 L 774.73 669.27 L 776.10 667.23 L 779.54 666.18 L 794.32 669.63 L 811.35 679.47 L 810.26 683.37 L 808.41 686.25 L 803.83 690.07 L 804.86 693.77 L 814.57 690.40 L 816.15 691.34 L 813.60 694.16 L 813.97 694.91 L 818.64 692.60 L 820.65 693.72 L 816.57 699.15 L 817.65 700.44 L 821.63 700.23 L 823.49 699.12 L 830.25 701.13 L 834.48 710.38 L 834.77 712.63 L 830.93 716.78 L 830.59 718.03 L 835.50 716.24 L 833.85 720.42 L 834.57 720.84 L 836.10 719.71 L 835.10 722.50 L 835.75 726.32 L 837.10 725.96 L 838.33 723.54 L 842.35 720.33 L 841.08 724.05 L 843.60 721.74 L 843.93 723.61 L 846.24 720.97 L 849.31 719.72 L 850.58 717.38 L 851.47 719.23 L 850.93 720.62 L 856.60 718.74 L 858.05 717.57 L 864.68 716.48 L 881.32 711.35 L 887.32 711.30 L 891.43 712.68 L 903.73 710.01 L 904.30 706.76 L 901.28 703.43 L 896.89 701.19 L 898.11 699.15 L 898.34 696.23 L 901.44 694.94 L 900.15 690.35 L 901.05 689.36 L 914.09 687.45 L 935.48 693.66 L 943.80 692.06 L 944.69 694.21 L 951.47 695.81 L 958.68 694.08 L 960.35 688.75 L 962.94 688.58 L 965.75 684.92 L 971.25 682.91 L 982.61 677.18 L 994.92 675.85 L 1004.23 676.07 L 1008.02 674.96 L 1012.21 676.03 L 1021.09 673.04 L 1027.42 675.68 L 1033.49 674.94 L 1035.33 675.73 L 1046.18 671.52 L 1050.79 667.72 L 1054.57 666.09 L 1068.55 665.86 L 1096.11 661.08 L 1101.72 657.57 L 1102.85 655.95 L 1102.52 652.28 L 1104.76 651.10 L 1104.85 649.63 L 1108.11 648.34 L 1110.32 648.40 L 1110.99 644.38 L 1108.73 641.35 L 1110.63 637.03 L 1120.18 630.96 L 1125.60 620.88 L 1150.50 612.65 L 1163.26 613.29 L 1168.26 616.01 L 1172.00 615.73 L 1177.26 613.22 L 1187.35 614.52 L 1194.72 618.43 L 1196.46 620.56 L 1198.90 620.50 L 1204.96 625.50 L 1206.69 625.65 L 1207.84 627.38 L 1214.13 631.29 L 1219.45 637.17 L 1232.44 643.94 L 1234.72 645.92 L 1236.54 649.80 L 1239.94 653.13 L 1239.17 660.27 L 1239.83 661.96 L 1243.90 664.62 L 1246.63 668.02 L 1248.03 678.71 L 1246.79 683.02 L 1242.70 685.65 L 1243.73 687.70 L 1243.65 689.84 L 1241.66 690.43 L 1236.03 689.89 L 1231.31 691.59 L 1234.87 699.90 L 1234.61 702.37 L 1232.67 706.14 L 1231.30 706.70 L 1227.11 705.32 L 1222.91 705.61 L 1216.12 708.41 L 1215.26 711.12 L 1213.22 710.38 L 1212.83 711.55 L 1210.88 711.47 L 1213.99 718.34 L 1219.14 723.45 L 1221.61 727.76 L 1224.71 734.56 L 1224.94 736.73 L 1224.03 737.61 L 1223.47 740.03 L 1221.11 741.98 L 1216.82 740.65 L 1208.88 734.58 L 1207.96 734.60 L 1210.81 741.92 L 1208.49 746.81 L 1208.22 762.76 L 1207.65 766.00 L 1205.56 769.35 L 1207.29 773.62 L 1205.05 775.68 L 1205.24 778.06 L 1202.67 778.61 L 1202.54 780.97 L 1199.66 780.13 L 1199.40 782.13 L 1195.94 780.75 L 1191.67 786.04 L 1187.82 792.68 L 1182.80 796.75 L 1177.88 798.91 L 1173.62 804.43 L 1169.08 805.75 L 1163.33 809.88 L 1162.21 813.89 L 1161.56 823.26 L 1165.09 832.13 L 1165.71 836.55 L 1163.63 839.69 L 1160.15 842.96 L 1153.02 847.60 L 1151.89 849.80 L 1151.17 852.39 L 1152.64 861.29 L 1152.48 866.62 L 1148.94 878.94 L 1150.08 884.06 L 1152.33 885.93 L 1154.28 886.92 L 1159.76 886.78 L 1162.84 888.70 L 1183.99 905.66 L 1190.63 916.75 L 1194.33 918.74 L 1197.95 922.81 L 1206.85 937.52 L 1212.69 942.98 L 1217.61 949.15" pathLength="1" fill="none" vector-effect="non-scaling-stroke"/>
</svg>
