<svg xmlns="http://www.w3.org/2000/svg" viewBox="0 0 1600 900" preserveAspectRatio="xMidYMid slice">
  <path class="trace-line" d="M 207.29 429.18 L 213.82 426.59 L 220.56 425.43 L 230.36 420.26 L 234.18 423.80 L 239.78 433.94 L 239.84 439.45 L 238.18 441.98 L 237.96 444.65 L 238.87 446.24 L 242.42 447.24 L 251.09 442.50 L 256.24 443.18 L 263.93 441.75 L 274.25 436.87 L 302.22 431.29 L 323.43 431.07 L 319.47 436.05 L 313.30 441.18 L 327.96 434.83 L 342.21 430.02 L 338.38 435.00 L 332.05 439.14 L 350.84 432.07 L 363.55 423.55 L 390.07 400.57 L 391.71 401.95 L 383.65 417.08 L 402.11 403.99 L 403.21 404.38 L 399.19 410.62 L 399.53 411.54 L 411.97 402.19 L 423.47 395.03 L 437.80 389.01 L 439.57 392.94 L 434.71 396.59 L 423.98 413.77 L 415.70 438.37 L 414.54 444.79 L 416.12 444.60 L 419.57 439.94 L 429.62 431.76 L 432.24 430.99 L 430.83 438.89 L 446.99 432.08 L 475.41 426.99 L 481.40 426.74 L 489.63 428.09 L 498.03 426.76 L 509.85 427.09 L 529.74 417.81 L 538.62 414.70 L 552.95 405.21 L 561.24 398.06 L 572.73 391.50 L 590.62 384.29 L 608.12 380.82 L 644.71 380.66 L 652.29 381.74 L 659.71 384.42 L 656.21 379.82 L 660.68 382.10 L 664.27 386.13 L 668.24 387.83 L 685.35 388.02 L 678.70 384.44 L 679.38 383.94 L 687.20 386.15 L 697.34 396.04 L 714.58 399.04 L 736.51 388.17 L 749.95 384.23 L 763.78 377.13 L 757.31 376.10 L 777.28 371.73 L 797.49 370.94 L 787.22 367.25 L 823.79 364.53 L 821.47 361.33 L 825.00 361.66 L 822.24 358.79 L 827.99 358.79 L 824.45 356.36 L 832.74 353.37 L 824.01 350.83 L 835.55 345.92 L 842.90 337.01 L 837.84 334.42 L 830.97 334.47 L 852.04 321.67 L 865.57 315.36 L 877.98 313.82 L 881.39 312.15 L 885.82 307.72 L 904.23 309.27 L 918.04 315.35 L 923.12 315.03 L 929.82 318.08 L 937.07 317.57 L 947.77 320.55 L 943.35 313.14 L 949.98 316.90 L 946.44 312.26 L 954.29 315.24 L 955.56 312.79 L 958.75 311.54 L 972.44 315.69 L 988.21 327.51 L 985.49 335.67 L 981.25 340.26 L 982.20 344.71 L 991.20 340.66 L 992.66 341.78 L 990.30 345.18 L 990.64 346.08 L 994.97 343.31 L 996.83 344.65 L 993.05 351.19 L 994.05 352.74 L 997.74 352.47 L 999.46 351.15 L 1005.72 353.56 L 1009.91 367.39 L 1006.03 373.88 L 1010.58 371.74 L 1009.05 376.76 L 1009.73 377.27 L 1011.14 375.91 L 1010.22 379.26 L 1010.82 383.85 L 1012.07 383.42 L 1013.20 380.51 L 1016.92 376.65 L 1015.75 381.13 L 1018.09 378.34 L 1018.39 380.59 L 1020.53 377.41 L 1023.37 375.92 L 1024.55 373.11 L 1025.37 375.33 L 1024.87 377.00 L 1031.47 373.33 L 1037.61 372.02 L 1053.03 365.85 L 1058.58 365.79 L 1062.39 367.46 L 1073.78 364.24 L 1074.31 360.34 L 1071.51 356.33 L 1067.45 353.63 L 1068.79 347.67 L 1071.66 346.12 L 1070.47 340.60 L 1071.30 339.41 L 1083.38 337.11 L 1103.20 344.58 L 1110.90 342.66 L 1111.73 345.24 L 1118.00 347.16 L 1124.68 345.08 L 1126.23 338.67 L 1128.63 338.47 L 1131.23 334.07 L 1146.85 324.76 L 1158.25 323.16 L 1166.88 323.43 L 1170.38 322.09 L 1174.27 323.38 L 1182.49 319.79 L 1188.36 322.96 L 1193.98 322.07 L 1195.69 323.01 L 1205.73 317.96 L 1210.00 313.39 L 1213.51 311.43 L 1226.46 311.15 L 1251.98 305.41 L 1257.18 301.18 L 1258.23 299.23 L 1257.92 294.82 L 1259.99 293.40 L 1260.08 291.64 L 1263.10 290.08 L 1265.15 290.16 L 1265.77 285.31 L 1263.67 281.67 L 1265.44 276.47 L 1274.28 269.18 L 1279.30 257.06 L 1302.36 247.16 L 1314.18 247.93 L 1318.81 251.20 L 1322.28 250.86 L 1327.15 247.85 L 1336.49 249.40 L 1343.32 254.11 L 1344.94 256.67 L 1347.19 256.60 L 1352.81 262.62 L 1354.42 262.79 L 1355.48 264.87 L 1361.30 269.57 L 1366.23 276.65 L 1378.26 284.79 L 1380.38 287.17 L 1382.06 291.84 L 1385.21 295.84 L 1384.50 304.42 L 1385.11 306.46 L 1388.87 309.65 L 1391.41 313.74 L 1392.71 326.60 L 1391.56 331.78 L 1387.77 334.95 L 1388.65 339.99 L 1386.80 340.70 L 1381.59 340.04 L 1377.21 342.09 L 1380.51 352.08 L 1378.48 359.58 L 1377.21 360.26 L 1373.33 358.59 L 1369.43 358.94 L 1363.15 362.31 L 1362.35 365.57 L 1360.46 364.68 L 1360.10 366.09 L 1358.29 366.00 L 1361.17 374.26 L 1365.95 380.40 L 1368.23 385.58 L 1371.31 396.37 L 1369.96 400.34 L 1367.76 402.69 L 1363.79 401.08 L 1356.44 393.79 L 1355.58 393.82 L 1358.23 402.62 L 1356.08 408.49 L 1355.82 427.67 L 1355.30 431.57 L 1353.37 435.60 L 1354.97 440.74 L 1352.89 443.21 L 1353.07 446.07 L 1350.69 446.73 L 1350.57 449.58 L 1347.90 448.57 L 1347.66 450.97 L 1344.46 449.31 L 1336.93 463.66 L 1332.29 468.55 L 1327.73 471.15 L 1323.78 477.78 L 1319.57 479.38 L 1314.25 484.33 L 1312.61 500.43 L 1315.88 511.10 L 1316.45 516.41 L 1314.53 520.19 L 1304.70 529.70 L 1303.65 532.35 L 1302.98 535.46 L 1304.35 546.16 L 1304.20 552.57 L 1300.92 567.39 L 1301.97 573.55 L 1304.06 575.80 L 1305.87 576.99 L 1310.94 576.82 L 1313.79 579.12 L 1333.39 599.52 L 1339.54 612.86 L 1342.96 615.25 L 1346.32 620.14 L 1354.56 637.83 L 1359.96 644.40 L 1364.53 651.82" pathLength="1" fill="none" vector-effect="non-scaling-stroke"/>
  <circle class="trace-start" cx="207.29" cy="429.18" r="5.47"/>
  <circle class="trace-summit-halo" cx="1363.68" cy="652.84" r="13.98"/>
  <circle class="trace-summit" cx="1363.68" cy="652.84" r="7.90"/>
</svg>
