<svg xmlns="http://www.w3.org/2000/svg" viewBox="-105.6684926 -37.9973660 0.0690562 0.0185748" preserveAspectRatio="xMidYMid meet">
  <path d="M -105.6627379 -37.9888556 L -105.6624212 -37.9889544 L -105.6620941 -37.9889988 L -105.6616182 -37.9891968 L -105.6614329 -37.9890614 L -105.6611607 -37.9886732 L -105.6611579 -37.9884628 L -105.6612385 -37.9883660 L -105.6612493 -37.9882638 L -105.6612049 -37.9882027 L -105.6610326 -37.9881647 L -105.6606118 -37.9883459 L -105.6603616 -37.9883201 L -105.6599885 -37.9883748 L -105.6594875 -37.9885614 L -105.6581298 -37.9887747 L -105.6570998 -37.9887832 L -105.6572925 -37.9885928 L -105.6575919 -37.9883963 L -105.6568803 -37.9886394 L -105.6561884 -37.9888235 L -105.6563741 -37.9886330 L -105.6566814 -37.9884745 L -105.6557694 -37.9887451 L -105.6551525 -37.9890707 L -105.6545201 -37.9895296 L -105.6538651 -37.9899500 L -105.6537851 -37.9898972 L -105.6541767 -37.9893182 L -105.6532803 -37.9898190 L -105.6532272 -37.9898042 L -105.6534221 -37.9895655 L -105.6534055 -37.9895302 L -105.6528017 -37.9898878 L -105.6522435 -37.9901616 L -105.6515479 -37.9903920 L -105.6514618 -37.9902418 L -105.6516980 -37.9901022 L -105.6522187 -37.9894450 L -105.6526205 -37.9885041 L -105.6526926 -37.9883084 L -105.6526770 -37.9882584 L -105.6526002 -37.9882656 L -105.6524329 -37.9884440 L -105.6519450 -37.9887569 L -105.6518176 -37.9887861 L -105.6518863 -37.9884840 L -105.6511017 -37.9887444 L -105.6497222 -37.9889391 L -105.6494310 -37.9889486 L -105.6490317 -37.9888973 L -105.6486240 -37.9889481 L -105.6480500 -37.9889354 L -105.6470844 -37.9892905 L -105.6466535 -37.9894092 L -105.6459579 -37.9897725 L -105.6455551 -37.9900458 L -105.6449977 -37.9902967 L -105.6441292 -37.9905726 L -105.6432795 -37.9907055 L -105.6420859 -37.9907317 L -105.6415030 -37.9907113 L -105.6411352 -37.9906703 L -105.6407751 -37.9905678 L -105.6409450 -37.9907435 L -105.6407277 -37.9906563 L -105.6405538 -37.9905023 L -105.6403610 -37.9904371 L -105.6395304 -37.9904298 L -105.6398533 -37.9905668 L -105.6398203 -37.9905861 L -105.6394404 -37.9905015 L -105.6389480 -37.9901232 L -105.6381113 -37.9900082 L -105.6370469 -37.9904241 L -105.6363940 -37.9905750 L -105.6357226 -37.9908463 L -105.6360371 -37.9908860 L -105.6350676 -37.9910531 L -105.6340865 -37.9910831 L -105.6345849 -37.9912244 L -105.6328097 -37.9913283 L -105.6329224 -37.9914509 L -105.6327507 -37.9914382 L -105.6328848 -37.9915481 L -105.6326059 -37.9915481 L -105.6327775 -37.9916411 L -105.6323752 -37.9917553 L -105.6327990 -37.9918525 L -105.6322385 -37.9920402 L -105.6318817 -37.9923810 L -105.6321275 -37.9924801 L -105.6324610 -37.9924782 L -105.6314380 -37.9929678 L -105.6307812 -37.9932094 L -105.6301787 -37.9932681 L -105.6300133 -37.9933321 L -105.6297983 -37.9935014 L -105.6295581 -37.9934665 L -105.6293648 -37.9934947 L -105.6292357 -37.9934422 L -105.6289044 -37.9934421 L -105.6282339 -37.9932096 L -105.6279877 -37.9932218 L -105.6276621 -37.9931054 L -105.6273104 -37.9931249 L -105.6267909 -37.9930109 L -105.6270054 -37.9932942 L -105.6266836 -37.9931504 L -105.6268552 -37.9933280 L -105.6264743 -37.9932138 L -105.6264128 -37.9933076 L -105.6262580 -37.9933556 L -105.6255933 -37.9931968 L -105.6248275 -37.9927446 L -105.6248764 -37.9925650 L -105.6249597 -37.9924324 L -105.6251657 -37.9922569 L -105.6251194 -37.9920867 L -105.6246826 -37.9922415 L -105.6246116 -37.9921985 L -105.6247264 -37.9920688 L -105.6247095 -37.9920343 L -105.6244997 -37.9921402 L -105.6244091 -37.9920888 L -105.6245928 -37.9918389 L -105.6245440 -37.9917796 L -105.6243652 -37.9917896 L -105.6242815 -37.9918404 L -105.6239777 -37.9917479 L -105.6237875 -37.9913225 L -105.6237743 -37.9912192 L -105.6239470 -37.9910281 L -105.6239625 -37.9909708 L -105.6237415 -37.9910528 L -105.6238159 -37.9908607 L -105.6237832 -37.9908412 L -105.6237145 -37.9908932 L -105.6237593 -37.9907650 L -105.6237301 -37.9905893 L -105.6236695 -37.9906058 L -105.6236143 -37.9907170 L -105.6234337 -37.9908649 L -105.6234905 -37.9906935 L -105.6233771 -37.9908001 L -105.6233624 -37.9907140 L -105.6232585 -37.9908356 L -105.6231206 -37.9908927 L -105.6230633 -37.9910004 L -105.6230236 -37.9909154 L -105.6230478 -37.9908515 L -105.6227929 -37.9909379 L -105.6227275 -37.9909920 L -105.6224294 -37.9910418 L -105.6216811 -37.9912781 L -105.6214115 -37.9912801 L -105.6212264 -37.9912165 L -105.6206734 -37.9913396 L -105.6206480 -37.9914889 L -105.6207838 -37.9916421 L -105.6209811 -37.9917454 L -105.6209261 -37.9918390 L -105.6209157 -37.9919734 L -105.6207766 -37.9920328 L -105.6208343 -37.9922438 L -105.6207938 -37.9922895 L -105.6202077 -37.9923775 L -105.6192456 -37.9920916 L -105.6188716 -37.9921652 L -105.6188314 -37.9920664 L -105.6185268 -37.9919929 L -105.6182024 -37.9920724 L -105.6181273 -37.9923176 L -105.6180107 -37.9923254 L -105.6178845 -37.9924937 L -105.6176370 -37.9925862 L -105.6171262 -37.9928496 L -105.6165728 -37.9929108 L -105.6161541 -37.9929007 L -105.6159839 -37.9929520 L -105.6157952 -37.9929025 L -105.6153962 -37.9930400 L -105.6151112 -37.9929187 L -105.6148383 -37.9929528 L -105.6147556 -37.9929166 L -105.6142680 -37.9931099 L -105.6140605 -37.9932847 L -105.6138904 -37.9933598 L -105.6132618 -37.9933703 L -105.6120226 -37.9935901 L -105.6117702 -37.9937517 L -105.6117193 -37.9938264 L -105.6117344 -37.9939952 L -105.6116338 -37.9940492 L -105.6116296 -37.9941168 L -105.6114829 -37.9941762 L -105.6113834 -37.9941734 L -105.6113534 -37.9943586 L -105.6114553 -37.9944981 L -105.6113695 -37.9946968 L -105.6109403 -37.9949758 L -105.6106964 -37.9954394 L -105.6095768 -37.9958181 L -105.6090032 -37.9957887 L -105.6087783 -37.9956636 L -105.6086101 -37.9956766 L -105.6083737 -37.9957917 L -105.6079199 -37.9957323 L -105.6075885 -37.9955522 L -105.6075100 -37.9954544 L -105.6074006 -37.9954570 L -105.6071280 -37.9952268 L -105.6070499 -37.9952203 L -105.6069984 -37.9951407 L -105.6067157 -37.9949607 L -105.6064765 -37.9946901 L -105.6058924 -37.9943787 L -105.6057895 -37.9942878 L -105.6057078 -37.9941091 L -105.6055551 -37.9939560 L -105.6055894 -37.9936276 L -105.6055599 -37.9935499 L -105.6053771 -37.9934277 L -105.6052540 -37.9932711 L -105.6051911 -37.9927795 L -105.6052469 -37.9925812 L -105.6054308 -37.9924599 L -105.6053846 -37.9923657 L -105.6053879 -37.9922672 L -105.6054776 -37.9922401 L -105.6057308 -37.9922652 L -105.6059431 -37.9921868 L -105.6057830 -37.9918047 L -105.6057945 -37.9916909 L -105.6058817 -37.9915177 L -105.6059433 -37.9914917 L -105.6061319 -37.9915555 L -105.6063209 -37.9915421 L -105.6066260 -37.9914132 L -105.6066647 -37.9912887 L -105.6067565 -37.9913227 L -105.6067739 -37.9912689 L -105.6068619 -37.9912723 L -105.6067218 -37.9909563 L -105.6064901 -37.9907214 L -105.6063792 -37.9905232 L -105.6062399 -37.9902102 L -105.6062295 -37.9901104 L -105.6062703 -37.9900698 L -105.6062954 -37.9899585 L -105.6064019 -37.9898689 L -105.6065947 -37.9899302 L -105.6069515 -37.9902091 L -105.6069932 -37.9902082 L -105.6068649 -37.9898716 L -105.6069691 -37.9896467 L -105.6069815 -37.9889131 L -105.6070068 -37.9887641 L -105.6071008 -37.9886098 L -105.6070230 -37.9884134 L -105.6071239 -37.9883186 L -105.6071153 -37.9882093 L -105.6072308 -37.9881840 L -105.6072367 -37.9880752 L -105.6073664 -37.9881138 L -105.6073778 -37.9880218 L -105.6075334 -37.9880853 L -105.6077254 -37.9878423 L -105.6078987 -37.9875366 L -105.6081242 -37.9873494 L -105.6083455 -37.9872501 L -105.6085372 -37.9869963 L -105.6087415 -37.9869353 L -105.6089998 -37.9867457 L -105.6090504 -37.9865611 L -105.6090793 -37.9861299 L -105.6089207 -37.9857220 L -105.6088929 -37.9855187 L -105.6089863 -37.9853741 L -105.6091429 -37.9852237 L -105.6094633 -37.9850104 L -105.6095143 -37.9849091 L -105.6095469 -37.9847901 L -105.6094806 -37.9843807 L -105.6094879 -37.9841355 L -105.6096468 -37.9835688 L -105.6095959 -37.9833331 L -105.6094946 -37.9832471 L -105.6094067 -37.9832016 L -105.6091603 -37.9832080 L -105.6090219 -37.9831199 L -105.6080707 -37.9823396 L -105.6077721 -37.9818295 L -105.6076058 -37.9817378 L -105.6074430 -37.9815508 L -105.6070427 -37.9808740 L -105.6067805 -37.9806230 L -105.6065591 -37.9803391" pathLength="1" fill="none" stroke="currentColor" vector-effect="non-scaling-stroke"/>
</svg>
