<svg xmlns="http://www.w3.org/2000/svg" viewBox="0 0 1600 900" preserveAspectRatio="xMidYMid slice">
  <path class="trace-line" d="M 1295.35 75.51 L 1296.54 70.87 L 1296.90 65.61 L 1300.00 49.44 L 1294.75 33.58 L 1290.46 25.07 L 1285.86 10.91 L 1285.03 6.66 L 1283.48 2.25 L 1278.70 -7.04 L 1272.26 -17.56 L 1265.22 -25.60 L 1260.15 -28.47 L 1251.50 -35.51 L 1244.10 -51.13 L 1224.54 -81.15 L 1212.61 -88.81 L 1204.55 -92.68 L 1200.79 -89.59 L 1186.71 -82.08 L 1165.24 -79.68 L 1159.03 -78.37 L 1152.71 -63.98 L 1143.70 -54.62 L 1135.47 -51.21 L 1120.56 -65.83 L 1102.60 -58.87 L 1090.31 -51.21 L 1058.16 -49.36 L 1032.33 -44.95 L 1009.72 -45.41 L 994.27 -44.95 L 981.68 -43.09 L 968.97 -37.83 L 959.25 -34.89 L 948.87 -33.73 L 938.67 -31.02 L 920.95 -29.40 L 907.23 -25.06 L 902.16 -24.21 L 896.97 -20.50 L 866.72 -14.54 L 853.42 -9.74 L 841.31 -6.26 L 833.91 -7.73 L 818.58 -11.76 L 807.37 -15.39 L 796.33 -13.38 L 787.03 -17.33 L 771.34 -21.89 L 763.52 -37.36 L 753.20 -42.86 L 742.16 -53.15 L 732.08 -54.46 L 719.14 -53.07 L 708.04 -54.15 L 682.75 -58.72 L 675.89 -54.93 L 665.51 -50.83 L 656.86 -52.53 L 631.74 -61.58 L 615.52 -59.88 L 592.13 -54.85 L 586.17 -52.30 L 571.61 -52.45 L 545.60 -50.36 L 541.48 -45.26 L 534.39 -42.93 L 518.40 -36.44 L 511.36 -34.89 L 499.61 -34.42 L 487.44 -25.37 L 482.37 -22.66 L 473.95 -23.98 L 456.59 -25.22 L 446.45 -19.34 L 435.60 -8.82 L 430.76 -4.72 L 414.06 2.56 L 394.73 13.85 L 384.59 27.24 L 375.82 31.72 L 367.89 39.07 L 362.76 42.86 L 356.02 55.55 L 357.45 71.26 L 356.20 74.35 L 342.89 94.31 L 344.68 106.15 L 345.99 119.38 L 338.95 132.84 L 336.63 139.34 L 342.24 154.27 L 335.97 161.78 L 318.37 190.94 L 320.70 203.86 L 317.78 214.23 L 317.78 229.31 L 320.58 237.28 L 321.24 248.04 L 312.95 267.22 L 309.07 282.62 L 302.68 289.04 L 302.68 307.53 L 301.43 328.03 L 306.08 338.79 L 305.55 353.25 L 308.65 367.88 L 302.03 387.53 L 302.68 402.23 L 301.91 424.35 L 305.07 434.18 L 305.61 454.99 L 307.40 468.76 L 312.41 477.19 L 310.32 491.82 L 310.02 502.72 L 304.71 508.60 L 306.98 533.90 L 304.24 559.12 L 300.00 586.20 L 313.30 604.38 L 325.11 611.35 L 337.82 621.48 L 350.35 620.40 L 364.07 622.72 L 376.96 625.43 L 390.68 631.93 L 403.74 642.06 L 408.69 651.27 L 418.59 653.97 L 437.03 668.60 L 456.06 687.01 L 460.83 699.70 L 468.65 708.75 L 481.89 718.19 L 485.11 734.82 L 494.48 741.71 L 501.10 754.01 L 512.01 756.56 L 520.96 772.58 L 542.08 777.06 L 579.84 799.42 L 599.59 806.54 L 613.13 808.55 L 628.64 825.11 L 643.85 828.20 L 653.46 837.79 L 663.66 840.35 L 680.78 853.42 L 695.99 872.30 L 702.85 886.77 L 718.36 900.07 L 730.35 914.46 L 753.92 921.58 L 789.11 941.46 L 813.45 943.71 L 823.71 951.68 L 850.02 952.22 L 871.68 969.55 L 888.56 975.66 L 918.51 982.16 L 954.24 988.43 L 976.01 986.18 L 999.70 990.05 L 1043.96 992.68 L 1062.57 986.49 L 1079.63 977.21 L 1123.84 968.31 L 1123.66 961.81 L 1127.36 950.52 L 1122.94 938.14" pathLength="1" fill="none" vector-effect="non-scaling-stroke"/>
  <circle class="trace-start" cx="1295.35" cy="75.51" r="4.62"/>
  <circle class="trace-summit-halo" cx="1123.90" cy="940.77" r="11.79"/>
  <circle class="trace-summit" cx="1123.90" cy="940.77" r="6.67"/>
</svg>
