<svg xmlns="http://www.w3.org/2000/svg" viewBox="0 0 2000 2500" preserveAspectRatio="xMidYMid slice">
  <path class="trace-line" d="M 1670.78 742.59 L 1672.40 736.30 L 1672.88 729.17 L 1677.08 707.27 L 1669.97 685.78 L 1664.16 674.25 L 1657.94 655.06 L 1656.81 649.30 L 1654.71 643.32 L 1648.24 630.74 L 1639.52 616.49 L 1629.99 605.59 L 1623.12 601.71 L 1611.41 592.17 L 1601.39 570.99 L 1574.89 530.32 L 1558.74 519.94 L 1547.83 514.70 L 1542.74 518.89 L 1523.68 529.06 L 1494.59 532.31 L 1486.19 534.09 L 1477.63 553.59 L 1465.43 566.28 L 1454.28 570.89 L 1434.09 551.08 L 1409.77 560.51 L 1393.13 570.89 L 1349.59 573.40 L 1314.61 579.38 L 1283.99 578.75 L 1263.07 579.38 L 1246.02 581.89 L 1228.82 589.02 L 1215.65 593.01 L 1201.59 594.58 L 1187.78 598.25 L 1163.79 600.45 L 1145.21 606.32 L 1138.34 607.47 L 1131.31 612.50 L 1090.36 620.57 L 1072.34 627.07 L 1055.94 631.79 L 1045.92 629.80 L 1025.16 624.35 L 1009.98 619.42 L 995.03 622.15 L 982.43 616.80 L 961.18 610.62 L 950.60 589.65 L 936.63 582.21 L 921.68 568.27 L 908.03 566.49 L 890.50 568.37 L 875.47 566.90 L 841.22 560.72 L 831.93 565.86 L 817.87 571.41 L 806.16 569.11 L 772.15 556.84 L 750.18 559.15 L 718.51 565.96 L 710.43 569.42 L 690.72 569.21 L 655.50 572.04 L 649.93 578.96 L 640.31 582.10 L 618.66 590.91 L 609.13 593.01 L 593.22 593.64 L 576.74 605.90 L 569.87 609.57 L 558.48 607.79 L 534.97 606.11 L 521.24 614.08 L 506.54 628.33 L 499.99 633.89 L 477.37 643.74 L 451.20 659.05 L 437.47 677.18 L 425.59 683.26 L 414.85 693.22 L 407.90 698.36 L 398.77 715.55 L 400.71 736.83 L 399.01 741.02 L 381.00 768.06 L 383.42 784.10 L 385.20 802.03 L 375.67 820.27 L 372.52 829.07 L 380.11 849.30 L 371.63 859.47 L 347.80 898.99 L 350.95 916.50 L 346.99 930.54 L 346.99 950.99 L 350.79 961.78 L 351.68 976.35 L 340.45 1002.35 L 335.20 1023.21 L 326.55 1031.91 L 326.55 1056.96 L 324.86 1084.74 L 331.16 1099.31 L 330.43 1118.92 L 334.63 1138.73 L 325.66 1165.35 L 326.55 1185.27 L 325.50 1215.25 L 329.78 1228.56 L 330.51 1256.76 L 332.93 1275.42 L 339.72 1286.85 L 336.89 1306.66 L 336.49 1321.44 L 329.30 1329.41 L 332.37 1363.68 L 328.65 1397.86 L 322.92 1434.55 L 340.93 1459.18 L 356.93 1468.61 L 374.13 1482.35 L 391.10 1480.88 L 409.68 1484.02 L 427.13 1487.69 L 445.71 1496.50 L 463.40 1510.23 L 470.10 1522.70 L 483.51 1526.37 L 508.48 1546.18 L 534.25 1571.13 L 540.71 1588.32 L 551.29 1600.59 L 569.22 1613.38 L 573.59 1635.92 L 586.27 1645.24 L 595.24 1661.91 L 610.02 1665.37 L 622.14 1687.07 L 650.73 1693.15 L 701.87 1723.44 L 728.61 1733.09 L 746.95 1735.81 L 767.95 1758.25 L 788.55 1762.44 L 801.56 1775.44 L 815.37 1778.90 L 838.55 1796.61 L 859.15 1822.19 L 868.44 1841.79 L 889.45 1859.82 L 905.69 1879.32 L 937.60 1888.96 L 985.26 1915.90 L 1018.22 1918.94 L 1032.11 1929.74 L 1067.74 1930.48 L 1097.06 1953.96 L 1119.92 1962.24 L 1160.48 1971.04 L 1208.86 1979.53 L 1238.35 1976.49 L 1270.42 1981.73 L 1330.36 1985.30 L 1355.57 1976.91 L 1378.67 1964.33 L 1438.53 1952.28 L 1438.29 1943.47 L 1443.30 1928.17 L 1437.32 1911.40" pathLength="1" fill="none" vector-effect="non-scaling-stroke"/>
  <circle class="trace-start" cx="1670.78" cy="742.59" r="6.25"/>
  <circle class="trace-summit-halo" cx="1438.61" cy="1914.96" r="15.97"/>
  <circle class="trace-summit" cx="1438.61" cy="1914.96" r="9.03"/>
</svg>
