<svg xmlns="http://www.w3.org/2000/svg" viewBox="0 0 2000 2500" preserveAspectRatio="none">
  <path class="trace-underlay" d="M 1654.74 1086.22 L 1656.06 1082.25 L 1656.46 1077.74 L 1659.91 1063.88 L 1654.07 1050.29 L 1649.30 1043.00 L 1644.20 1030.87 L 1643.27 1027.22 L 1641.55 1023.45 L 1636.24 1015.49 L 1629.08 1006.47 L 1621.26 999.58 L 1615.63 997.13 L 1606.02 991.09 L 1597.80 977.70 L 1576.06 951.98 L 1562.80 945.42 L 1553.85 942.10 L 1549.68 944.76 L 1534.04 951.19 L 1510.18 953.24 L 1503.28 954.37 L 1496.26 966.70 L 1486.25 974.72 L 1477.10 977.64 L 1460.53 965.11 L 1440.58 971.07 L 1426.93 977.64 L 1391.20 979.23 L 1362.50 983.01 L 1337.38 982.61 L 1320.21 983.01 L 1306.23 984.60 L 1292.11 989.11 L 1281.31 991.63 L 1269.77 992.62 L 1258.44 994.94 L 1238.75 996.33 L 1223.51 1000.04 L 1217.87 1000.77 L 1212.11 1003.96 L 1178.50 1009.06 L 1163.72 1013.17 L 1150.27 1016.15 L 1142.05 1014.89 L 1125.01 1011.45 L 1112.55 1008.33 L 1100.29 1010.05 L 1089.95 1006.67 L 1072.52 1002.76 L 1063.84 989.50 L 1052.37 984.80 L 1040.11 975.98 L 1028.91 974.85 L 1014.52 976.05 L 1002.19 975.12 L 974.09 971.21 L 966.47 974.46 L 954.94 977.97 L 945.33 976.51 L 917.42 968.75 L 899.39 970.21 L 873.41 974.52 L 866.78 976.71 L 850.61 976.58 L 821.71 978.37 L 817.14 982.74 L 809.25 984.73 L 791.49 990.30 L 783.66 991.63 L 770.61 992.02 L 757.09 999.78 L 751.45 1002.10 L 742.11 1000.97 L 722.82 999.91 L 711.55 1004.95 L 699.49 1013.97 L 694.12 1017.48 L 675.56 1023.71 L 654.08 1033.39 L 642.82 1044.86 L 633.07 1048.70 L 624.26 1055.00 L 618.56 1058.25 L 611.07 1069.12 L 612.66 1082.58 L 611.27 1085.23 L 596.49 1102.33 L 598.47 1112.48 L 599.93 1123.81 L 592.11 1135.35 L 589.53 1140.92 L 595.76 1153.71 L 588.80 1160.14 L 569.24 1185.13 L 571.83 1196.20 L 568.58 1205.09 L 568.58 1218.01 L 571.70 1224.84 L 572.43 1234.06 L 563.21 1250.50 L 558.90 1263.69 L 551.81 1269.19 L 551.81 1285.04 L 550.42 1302.60 L 555.59 1311.82 L 554.99 1324.22 L 558.44 1336.75 L 551.08 1353.58 L 551.81 1366.18 L 550.95 1385.14 L 554.46 1393.56 L 555.06 1411.39 L 557.05 1423.19 L 562.62 1430.42 L 560.30 1442.95 L 559.96 1452.29 L 554.07 1457.33 L 556.58 1479.01 L 553.54 1500.62 L 548.83 1523.82 L 563.61 1539.40 L 576.73 1545.37 L 590.85 1554.05 L 604.77 1553.12 L 620.02 1555.11 L 634.33 1557.43 L 649.58 1563.00 L 664.09 1571.69 L 669.59 1579.58 L 680.60 1581.90 L 701.08 1594.43 L 722.22 1610.20 L 727.52 1621.07 L 736.21 1628.83 L 750.92 1636.92 L 754.50 1651.17 L 764.91 1657.07 L 772.26 1667.61 L 784.39 1669.80 L 794.34 1683.52 L 817.80 1687.37 L 859.76 1706.53 L 881.69 1712.63 L 896.74 1714.35 L 913.97 1728.54 L 930.88 1731.19 L 941.55 1739.41 L 952.88 1741.60 L 971.90 1752.80 L 988.81 1768.97 L 996.43 1781.37 L 1013.66 1792.77 L 1026.98 1805.10 L 1053.17 1811.20 L 1092.27 1828.24 L 1119.31 1830.16 L 1130.71 1836.99 L 1159.94 1837.45 L 1184.00 1852.30 L 1202.76 1857.54 L 1236.04 1863.11 L 1275.74 1868.48 L 1299.93 1866.56 L 1326.24 1869.87 L 1375.43 1872.13 L 1396.11 1866.82 L 1415.06 1858.87 L 1464.18 1851.24 L 1463.98 1845.67 L 1468.09 1836.00 L 1463.18 1825.39" pathLength="1" fill="none" vector-effect="non-scaling-stroke"/>
  <path class="trace-line" d="M 1654.74 1086.22 L 1656.06 1082.25 L 1656.46 1077.74 L 1659.91 1063.88 L 1654.07 1050.29 L 1649.30 1043.00 L 1644.20 1030.87 L 1643.27 1027.22 L 1641.55 1023.45 L 1636.24 1015.49 L 1629.08 1006.47 L 1621.26 999.58 L 1615.63 997.13 L 1606.02 991.09 L 1597.80 977.70 L 1576.06 951.98 L 1562.80 945.42 L 1553.85 942.10 L 1549.68 944.76 L 1534.04 951.19 L 1510.18 953.24 L 1503.28 954.37 L 1496.26 966.70 L 1486.25 974.72 L 1477.10 977.64 L 1460.53 965.11 L 1440.58 971.07 L 1426.93 977.64 L 1391.20 979.23 L 1362.50 983.01 L 1337.38 982.61 L 1320.21 983.01 L 1306.23 984.60 L 1292.11 989.11 L 1281.31 991.63 L 1269.77 992.62 L 1258.44 994.94 L 1238.75 996.33 L 1223.51 1000.04 L 1217.87 1000.77 L 1212.11 1003.96 L 1178.50 1009.06 L 1163.72 1013.17 L 1150.27 1016.15 L 1142.05 1014.89 L 1125.01 1011.45 L 1112.55 1008.33 L 1100.29 1010.05 L 1089.95 1006.67 L 1072.52 1002.76 L 1063.84 989.50 L 1052.37 984.80 L 1040.11 975.98 L 1028.91 974.85 L 1014.52 976.05 L 1002.19 975.12 L 974.09 971.21 L 966.47 974.46 L 954.94 977.97 L 945.33 976.51 L 917.42 968.75 L 899.39 970.21 L 873.41 974.52 L 866.78 976.71 L 850.61 976.58 L 821.71 978.37 L 817.14 982.74 L 809.25 984.73 L 791.49 990.30 L 783.66 991.63 L 770.61 992.02 L 757.09 999.78 L 751.45 1002.10 L 742.11 1000.97 L 722.82 999.91 L 711.55 1004.95 L 699.49 1013.97 L 694.12 1017.48 L 675.56 1023.71 L 654.08 1033.39 L 642.82 1044.86 L 633.07 1048.70 L 624.26 1055.00 L 618.56 1058.25 L 611.07 1069.12 L 612.66 1082.58 L 611.27 1085.23 L 596.49 1102.33 L 598.47 1112.48 L 599.93 1123.81 L 592.11 1135.35 L 589.53 1140.92 L 595.76 1153.71 L 588.80 1160.14 L 569.24 1185.13 L 571.83 1196.20 L 568.58 1205.09 L 568.58 1218.01 L 571.70 1224.84 L 572.43 1234.06 L 563.21 1250.50 L 558.90 1263.69 L 551.81 1269.19 L 551.81 1285.04 L 550.42 1302.60 L 555.59 1311.82 L 554.99 1324.22 L 558.44 1336.75 L 551.08 1353.58 L 551.81 1366.18 L 550.95 1385.14 L 554.46 1393.56 L 555.06 1411.39 L 557.05 1423.19 L 562.62 1430.42 L 560.30 1442.95 L 559.96 1452.29 L 554.07 1457.33 L 556.58 1479.01 L 553.54 1500.62 L 548.83 1523.82 L 563.61 1539.40 L 576.73 1545.37 L 590.85 1554.05 L 604.77 1553.12 L 620.02 1555.11 L 634.33 1557.43 L 649.58 1563.00 L 664.09 1571.69 L 669.59 1579.58 L 680.60 1581.90 L 701.08 1594.43 L 722.22 1610.20 L 727.52 1621.07 L 736.21 1628.83 L 750.92 1636.92 L 754.50 1651.17 L 764.91 1657.07 L 772.26 1667.61 L 784.39 1669.80 L 794.34 1683.52 L 817.80 1687.37 L 859.76 1706.53 L 881.69 1712.63 L 896.74 1714.35 L 913.97 1728.54 L 930.88 1731.19 L 941.55 1739.41 L 952.88 1741.60 L 971.90 1752.80 L 988.81 1768.97 L 996.43 1781.37 L 1013.66 1792.77 L 1026.98 1805.10 L 1053.17 1811.20 L 1092.27 1828.24 L 1119.31 1830.16 L 1130.71 1836.99 L 1159.94 1837.45 L 1184.00 1852.30 L 1202.76 1857.54 L 1236.04 1863.11 L 1275.74 1868.48 L 1299.93 1866.56 L 1326.24 1869.87 L 1375.43 1872.13 L 1396.11 1866.82 L 1415.06 1858.87 L 1464.18 1851.24 L 1463.98 1845.67 L 1468.09 1836.00 L 1463.18 1825.39" pathLength="1" fill="none" vector-effect="non-scaling-stroke"/>
</svg>
