<svg xmlns="http://www.w3.org/2000/svg" viewBox="-105.6592873 -39.6030609 0.0201156 0.0168348" preserveAspectRatio="xMidYMid meet">
  <path class="trace-line" d="M -105.6409260 -39.5994840 L -105.6409060 -39.5995440 L -105.6409000 -39.5996120 L -105.6408480 -39.5998210 L -105.6409360 -39.6000260 L -105.6410080 -39.6001360 L -105.6410850 -39.6003190 L -105.6410990 -39.6003740 L -105.6411250 -39.6004310 L -105.6412050 -39.6005510 L -105.6413130 -39.6006870 L -105.6414310 -39.6007910 L -105.6415160 -39.6008280 L -105.6416610 -39.6009190 L -105.6417850 -39.6011210 L -105.6421130 -39.6015090 L -105.6423130 -39.6016080 L -105.6424480 -39.6016580 L -105.6425110 -39.6016180 L -105.6427470 -39.6015210 L -105.6431070 -39.6014900 L -105.6432110 -39.6014730 L -105.6433170 -39.6012870 L -105.6434680 -39.6011660 L -105.6436060 -39.6011220 L -105.6438560 -39.6013110 L -105.6441570 -39.6012210 L -105.6443630 -39.6011220 L -105.6449020 -39.6010980 L -105.6453350 -39.6010410 L -105.6457140 -39.6010470 L -105.6459730 -39.6010410 L -105.6461840 -39.6010170 L -105.6463970 -39.6009490 L -105.6465600 -39.6009110 L -105.6467340 -39.6008960 L -105.6469050 -39.6008610 L -105.6472020 -39.6008400 L -105.6474320 -39.6007840 L -105.6475170 -39.6007730 L -105.6476040 -39.6007250 L -105.6481110 -39.6006480 L -105.6483340 -39.6005860 L -105.6485370 -39.6005410 L -105.6486610 -39.6005600 L -105.6489180 -39.6006120 L -105.6491060 -39.6006590 L -105.6492910 -39.6006330 L -105.6494470 -39.6006840 L -105.6497100 -39.6007430 L -105.6498410 -39.6009430 L -105.6500140 -39.6010140 L -105.6501990 -39.6011470 L -105.6503680 -39.6011640 L -105.6505850 -39.6011460 L -105.6507710 -39.6011600 L -105.6511950 -39.6012190 L -105.6513100 -39.6011700 L -105.6514840 -39.6011170 L -105.6516290 -39.6011390 L -105.6520500 -39.6012560 L -105.6523220 -39.6012340 L -105.6527140 -39.6011690 L -105.6528140 -39.6011360 L -105.6530580 -39.6011380 L -105.6534940 -39.6011110 L -105.6535630 -39.6010450 L -105.6536820 -39.6010150 L -105.6539500 -39.6009310 L -105.6540680 -39.6009110 L -105.6542650 -39.6009050 L -105.6544690 -39.6007880 L -105.6545540 -39.6007530 L -105.6546950 -39.6007700 L -105.6549860 -39.6007860 L -105.6551560 -39.6007100 L -105.6553380 -39.6005740 L -105.6554190 -39.6005210 L -105.6556990 -39.6004270 L -105.6560230 -39.6002810 L -105.6561930 -39.6001080 L -105.6563400 -39.6000500 L -105.6564730 -39.5999550 L -105.6565590 -39.5999060 L -105.6566720 -39.5997420 L -105.6566480 -39.5995390 L -105.6566690 -39.5994990 L -105.6568920 -39.5992410 L -105.6568620 -39.5990880 L -105.6568400 -39.5989170 L -105.6569580 -39.5987430 L -105.6569970 -39.5986590 L -105.6569030 -39.5984660 L -105.6570080 -39.5983690 L -105.6573030 -39.5979920 L -105.6572640 -39.5978250 L -105.6573130 -39.5976910 L -105.6573130 -39.5974960 L -105.6572660 -39.5973930 L -105.6572550 -39.5972540 L -105.6573940 -39.5970060 L -105.6574590 -39.5968070 L -105.6575660 -39.5967240 L -105.6575660 -39.5964850 L -105.6575870 -39.5962200 L -105.6575090 -39.5960810 L -105.6575180 -39.5958940 L -105.6574660 -39.5957050 L -105.6575770 -39.5954510 L -105.6575660 -39.5952610 L -105.6575790 -39.5949750 L -105.6575260 -39.5948480 L -105.6575170 -39.5945790 L -105.6574870 -39.5944010 L -105.6574030 -39.5942920 L -105.6574380 -39.5941030 L -105.6574430 -39.5939620 L -105.6575320 -39.5938860 L -105.6574940 -39.5935590 L -105.6575400 -39.5932330 L -105.6576110 -39.5928830 L -105.6573880 -39.5926480 L -105.6571900 -39.5925580 L -105.6569770 -39.5924270 L -105.6567670 -39.5924410 L -105.6565370 -39.5924110 L -105.6563210 -39.5923760 L -105.6560910 -39.5922920 L -105.6558720 -39.5921610 L -105.6557890 -39.5920420 L -105.6556230 -39.5920070 L -105.6553140 -39.5918180 L -105.6549950 -39.5915800 L -105.6549150 -39.5914160 L -105.6547840 -39.5912990 L -105.6545620 -39.5911770 L -105.6545080 -39.5909620 L -105.6543510 -39.5908730 L -105.6542400 -39.5907140 L -105.6540570 -39.5906810 L -105.6539070 -39.5904740 L -105.6535530 -39.5904160 L -105.6529200 -39.5901270 L -105.6525890 -39.5900350 L -105.6523620 -39.5900090 L -105.6521020 -39.5897950 L -105.6518470 -39.5897550 L -105.6516860 -39.5896310 L -105.6515150 -39.5895980 L -105.6512280 -39.5894290 L -105.6509730 -39.5891850 L -105.6508580 -39.5889980 L -105.6505980 -39.5888260 L -105.6503970 -39.5886400 L -105.6500020 -39.5885480 L -105.6494120 -39.5882910 L -105.6490040 -39.5882620 L -105.6488320 -39.5881590 L -105.6483910 -39.5881520 L -105.6480280 -39.5879280 L -105.6477450 -39.5878490 L -105.6472430 -39.5877650 L -105.6466440 -39.5876840 L -105.6462790 -39.5877130 L -105.6458820 -39.5876630 L -105.6451400 -39.5876290 L -105.6448280 -39.5877090 L -105.6445420 -39.5878290 L -105.6438010 -39.5879440 L -105.6438040 -39.5880280 L -105.6437420 -39.5881740 L -105.6438160 -39.5883340" pathLength="1" fill="none" stroke="currentColor" vector-effect="non-scaling-stroke"/>
  <circle class="trace-start" cx="-105.6409260" cy="-39.5994840" r="0.0001810"/>
  <circle class="trace-summit-halo" cx="-105.6438000" cy="-39.5883000" r="0.0004617"/>
  <circle class="trace-summit" cx="-105.6438000" cy="-39.5883000" r="0.0002625"/>
</svg>
