<svg xmlns="http://www.w3.org/2000/svg" viewBox="0 0 1600 900" preserveAspectRatio="xMidYMid slice">
  <path class="trace-line" d="M 1300.00 -55.24 L 1298.77 -53.16 L 1299.31 -52.70 L 1288.25 -49.30 L 1282.33 -49.04 L 1279.81 -46.95 L 1275.53 -46.36 L 1272.95 -46.81 L 1268.88 -45.93 L 1264.64 -46.25 L 1259.48 -45.26 L 1251.25 -44.81 L 1241.50 -47.78 L 1218.76 -45.45 L 1212.48 -45.48 L 1204.25 -44.54 L 1195.39 -42.26 L 1183.25 -37.50 L 1173.64 -36.46 L 1169.15 -33.51 L 1167.43 -26.80 L 1167.55 -24.33 L 1165.49 -19.54 L 1153.37 -8.92 L 1150.61 -7.10 L 1146.47 -6.91 L 1143.19 -5.81 L 1136.70 -6.78 L 1132.67 -5.79 L 1128.28 -2.71 L 1123.81 4.06 L 1110.78 11.23 L 1107.53 12.36 L 1102.73 17.17 L 1092.27 23.84 L 1083.61 30.88 L 1080.61 34.46 L 1076.16 38.18 L 1069.41 41.23 L 1066.37 43.37 L 1061.15 44.95 L 1056.83 44.90 L 1051.42 46.08 L 1047.85 50.49 L 1036.06 61.15 L 1031.94 64.17 L 1026.10 65.32 L 1020.66 65.21 L 1017.48 68.40 L 1006.37 74.47 L 998.72 79.69 L 997.73 81.14 L 996.23 86.03 L 992.26 89.78 L 984.30 94.71 L 981.80 97.76 L 979.29 102.44 L 976.60 105.49 L 974.19 111.86 L 970.97 116.06 L 964.19 119.01 L 959.89 121.84 L 955.84 128.18 L 950.89 130.33 L 946.48 133.70 L 940.04 136.51 L 936.88 138.94 L 935.59 140.74 L 930.72 143.57 L 928.02 146.38 L 923.05 149.30 L 919.48 150.64 L 915.50 153.80 L 912.95 154.28 L 906.02 164.90 L 900.39 169.51 L 894.99 175.15 L 882.33 179.59 L 877.38 179.81 L 872.53 178.68 L 864.07 178.36 L 858.85 179.27 L 856.78 181.90 L 850.91 186.47 L 843.03 188.93 L 836.51 187.22 L 833.47 188.27 L 812.12 183.15 L 807.78 184.33 L 795.70 189.66 L 790.60 190.62 L 788.69 191.48 L 787.28 193.11 L 784.49 199.29 L 779.38 205.82 L 780.13 213.31 L 777.76 220.46 L 777.11 225.14 L 773.29 235.53 L 762.89 247.62 L 751.67 255.41 L 738.24 263.23 L 735.08 266.30 L 726.76 281.05 L 718.30 288.95 L 716.84 293.01 L 715.33 295.37 L 707.74 304.31 L 701.98 315.31 L 701.04 318.81 L 699.15 322.00 L 697.34 327.35 L 694.37 332.17 L 686.91 336.50 L 684.12 340.25 L 682.87 347.10 L 680.88 351.54 L 679.28 354.57 L 676.24 356.49 L 671.23 364.63 L 667.93 373.14 L 667.18 376.16 L 667.43 382.69 L 669.94 387.16 L 670.98 393.80 L 669.36 401.37 L 664.75 411.57 L 664.21 417.03 L 664.73 421.61 L 666.80 423.77 L 668.09 426.40 L 668.76 430.49 L 668.86 443.79 L 668.16 447.11 L 666.87 449.68 L 663.83 451.39 L 660.90 455.03 L 659.84 457.55 L 657.10 459.79 L 655.31 462.71 L 655.10 465.82 L 658.97 474.11 L 658.82 480.51 L 658.09 483.16 L 654.83 487.79 L 646.26 495.36 L 643.75 496.65 L 643.23 497.85 L 644.64 502.03 L 644.73 508.74 L 645.85 514.04 L 647.16 533.34 L 648.43 537.33 L 651.30 540.72 L 651.96 545.49 L 653.27 548.86 L 651.81 556.19 L 655.10 560.74 L 656.91 561.89 L 658.43 566.58 L 661.07 571.42 L 663.81 574.58 L 661.92 579.29 L 659.82 588.55 L 659.53 595.05 L 668.67 603.91 L 671.07 608.46 L 672.75 616.03 L 670.75 626.02 L 670.84 635.44 L 673.12 639.07 L 676.14 647.80 L 676.49 653.47 L 678.38 661.31 L 680.38 665.86 L 680.11 668.73 L 686.14 677.93 L 686.99 683.82 L 686.74 687.92 L 683.46 698.57 L 685.18 702.29 L 685.62 705.50 L 690.94 717.17 L 691.88 720.65 L 693.25 723.08 L 696.22 725.33 L 691.88 731.97 L 688.57 739.46 L 687.70 742.81 L 685.43 746.69 L 686.47 748.83 L 686.35 753.14 L 685.35 758.54 L 684.00 762.13 L 684.27 765.53 L 673.02 770.83 L 665.56 780.86 L 652.71 796.49 L 648.41 805.46 L 644.73 805.59 L 642.40 803.02 L 637.66 808.45 L 631.94 818.06 L 631.48 828.69 L 626.74 842.79 L 621.80 849.67 L 620.73 853.82 L 620.98 858.66 L 619.80 861.74 L 613.69 860.88 L 610.01 864.55 L 604.17 868.69 L 598.87 873.86 L 595.19 873.40 L 591.44 870.19 L 584.85 872.31 L 584.50 868.91 L 585.98 862.86 L 585.27 856.79 L 583.40 851.41 L 583.11 845.41 L 580.55 840.17 L 570.03 845.22 L 567.29 848.09 L 565.37 853.41 L 559.59 858.12 L 555.69 859.89 L 551.59 860.45 L 548.16 856.68 L 536.89 852.99 L 531.24 853.07 L 524.46 851.54 L 517.58 853.57 L 499.39 863.21 L 495.94 868.96 L 492.90 880.12 L 489.64 886.76 L 483.05 890.56 L 478.50 895.32 L 475.63 895.51 L 471.55 901.05 L 464.55 912.77 L 458.54 917.91 L 430.60 925.03 L 424.28 943.33 L 417.94 943.79 L 408.42 943.15 L 400.54 951.04 L 394.17 953.02 L 389.62 946.89 L 378.37 955.24 L 373.05 949.52 L 366.92 940.61 L 367.79 933.25 L 366.63 929.28 L 358.17 923.99 L 351.12 917.03 L 350.12 906.30 L 352.41 894.76 L 352.28 887.05 L 350.70 883.79 L 348.96 875.63 L 351.12 872.12 L 349.60 867.76 L 351.12 859.35 L 347.96 849.08 L 343.01 840.86 L 339.60 836.85 L 335.20 835.38 L 334.91 828.44 L 331.68 824.35 L 333.43 816.96 L 328.36 810.65 L 328.71 799.46 L 320.25 792.80 L 310.62 792.74 L 303.04 787.20 L 300.00 777.25 L 302.45 769.73 L 312.37 760.79 L 315.40 756.24 L 307.42 741.90 L 313.95 735.47 L 302.97 719.87 L 304.39 698.86 L 301.81 692.57 L 300.60 687.84" pathLength="1" fill="none" vector-effect="non-scaling-stroke"/>
  <circle class="trace-start" cx="1300.00" cy="-55.24" r="4.62"/>
  <circle class="trace-summit-halo" cx="301.33" cy="688.32" r="11.79"/>
  <circle class="trace-summit" cx="301.33" cy="688.32" r="6.67"/>
</svg>
