<svg xmlns="http://www.w3.org/2000/svg" viewBox="0 0 2000 2500" preserveAspectRatio="none">
  <path class="trace-underlay" d="M 1826.56 364.92 L 1825.19 366.71 L 1825.79 367.10 L 1813.50 370.01 L 1806.92 370.24 L 1804.13 372.03 L 1799.37 372.53 L 1796.50 372.14 L 1791.98 372.90 L 1787.27 372.62 L 1781.54 373.47 L 1772.39 373.86 L 1761.56 371.32 L 1755.64 371.48 L 1736.29 373.31 L 1729.31 373.29 L 1720.17 374.09 L 1710.33 376.04 L 1696.84 380.12 L 1686.17 381.01 L 1681.18 383.54 L 1679.26 389.29 L 1679.40 391.40 L 1677.11 395.50 L 1663.65 404.61 L 1660.57 406.17 L 1655.98 406.33 L 1652.33 407.27 L 1645.12 406.44 L 1640.64 407.29 L 1635.77 409.93 L 1632.63 414.15 L 1630.80 415.73 L 1616.32 421.87 L 1612.72 422.83 L 1607.38 426.96 L 1595.76 432.67 L 1586.13 438.70 L 1582.80 441.77 L 1577.86 444.96 L 1570.35 447.57 L 1566.98 449.41 L 1561.18 450.76 L 1556.38 450.72 L 1550.37 451.72 L 1546.40 455.51 L 1533.31 464.63 L 1528.73 467.22 L 1522.24 468.21 L 1516.19 468.12 L 1512.66 470.85 L 1500.32 476.05 L 1491.82 480.52 L 1490.71 481.76 L 1489.05 485.96 L 1484.64 489.17 L 1479.69 491.18 L 1475.79 493.38 L 1473.02 496.00 L 1470.22 500.01 L 1467.25 502.62 L 1464.57 508.08 L 1460.99 511.68 L 1453.46 514.20 L 1448.67 516.63 L 1444.17 522.07 L 1438.67 523.90 L 1433.78 526.79 L 1426.62 529.20 L 1423.11 531.28 L 1421.67 532.82 L 1416.27 535.25 L 1413.27 537.66 L 1407.75 540.16 L 1403.77 541.30 L 1399.36 544.01 L 1396.52 544.42 L 1388.83 553.52 L 1382.57 557.47 L 1376.56 562.30 L 1362.50 566.11 L 1357.00 566.29 L 1351.62 565.33 L 1342.22 565.06 L 1336.42 565.84 L 1334.11 568.08 L 1327.60 572.00 L 1318.84 574.11 L 1311.59 572.65 L 1308.22 573.54 L 1284.50 569.16 L 1279.67 570.17 L 1266.25 574.73 L 1260.59 575.56 L 1258.46 576.29 L 1256.89 577.69 L 1253.80 582.99 L 1248.12 588.58 L 1248.95 595.00 L 1246.31 601.12 L 1245.60 605.13 L 1241.35 614.03 L 1229.80 624.39 L 1217.33 631.07 L 1211.67 633.24 L 1202.41 637.76 L 1198.89 640.40 L 1189.66 653.03 L 1180.25 659.79 L 1178.64 663.28 L 1176.95 665.30 L 1171.34 669.97 L 1168.52 672.95 L 1166.70 676.28 L 1162.12 682.38 L 1161.08 685.38 L 1158.98 688.11 L 1156.97 692.70 L 1153.67 696.82 L 1145.38 700.54 L 1142.28 703.75 L 1140.90 709.62 L 1138.68 713.42 L 1136.90 716.01 L 1133.53 717.66 L 1131.54 720.69 L 1127.96 724.63 L 1124.29 731.92 L 1123.46 734.52 L 1123.73 740.11 L 1126.53 743.94 L 1127.68 749.63 L 1125.88 756.11 L 1120.75 764.85 L 1120.15 769.53 L 1120.73 773.45 L 1123.04 775.30 L 1124.47 777.55 L 1125.21 781.06 L 1125.33 792.45 L 1124.54 795.30 L 1123.11 797.50 L 1119.74 798.97 L 1116.48 802.08 L 1115.30 804.24 L 1112.25 806.17 L 1110.27 808.66 L 1110.04 811.32 L 1114.33 818.43 L 1114.17 823.91 L 1113.36 826.18 L 1109.74 830.15 L 1100.22 836.64 L 1097.43 837.74 L 1096.85 838.77 L 1098.42 842.35 L 1098.51 848.10 L 1099.76 852.64 L 1101.21 869.17 L 1102.62 872.59 L 1105.81 875.50 L 1106.55 879.58 L 1108.00 882.47 L 1106.39 888.75 L 1110.04 892.65 L 1112.05 893.63 L 1113.73 897.65 L 1116.67 901.80 L 1119.72 904.50 L 1117.61 908.54 L 1115.28 916.47 L 1114.96 922.04 L 1118.26 924.93 L 1125.12 929.63 L 1127.78 933.53 L 1129.65 940.02 L 1127.43 948.57 L 1127.15 951.80 L 1127.52 956.64 L 1130.06 959.76 L 1133.41 967.23 L 1133.80 972.09 L 1135.91 978.81 L 1138.12 982.71 L 1137.82 985.16 L 1144.52 993.05 L 1145.47 998.09 L 1145.19 1001.60 L 1144.48 1004.42 L 1141.54 1010.73 L 1143.46 1013.91 L 1143.94 1016.67 L 1146.97 1022.53 L 1149.86 1026.66 L 1150.90 1029.64 L 1152.42 1031.73 L 1155.72 1033.65 L 1150.90 1039.34 L 1147.22 1045.76 L 1146.25 1048.63 L 1143.74 1051.95 L 1144.89 1053.79 L 1144.75 1057.48 L 1143.64 1062.11 L 1142.14 1065.18 L 1142.44 1068.09 L 1129.95 1072.63 L 1121.66 1081.23 L 1107.38 1094.62 L 1102.60 1102.30 L 1098.51 1102.42 L 1095.92 1100.21 L 1090.66 1104.87 L 1084.31 1113.10 L 1083.80 1122.20 L 1078.53 1134.29 L 1073.03 1140.18 L 1071.86 1143.73 L 1072.13 1147.88 L 1070.82 1150.52 L 1064.03 1149.78 L 1059.94 1152.93 L 1053.45 1156.48 L 1047.56 1160.90 L 1043.47 1160.51 L 1039.31 1157.76 L 1031.99 1159.57 L 1031.60 1156.66 L 1033.24 1151.48 L 1032.45 1146.28 L 1030.37 1141.67 L 1030.05 1136.53 L 1027.21 1132.04 L 1015.52 1136.37 L 1012.47 1138.82 L 1010.35 1143.39 L 1003.93 1147.42 L 999.58 1148.94 L 995.03 1149.42 L 991.22 1146.18 L 978.70 1143.02 L 972.42 1143.09 L 964.89 1141.78 L 957.24 1143.52 L 937.03 1151.78 L 933.20 1156.71 L 929.83 1166.27 L 926.20 1171.96 L 918.88 1175.21 L 913.82 1179.29 L 910.63 1179.45 L 906.11 1184.20 L 898.32 1194.24 L 891.65 1198.64 L 860.60 1204.74 L 853.58 1220.42 L 846.54 1220.81 L 835.96 1220.26 L 827.20 1227.03 L 820.14 1228.72 L 815.08 1223.47 L 802.58 1230.63 L 796.67 1225.72 L 789.85 1218.09 L 790.82 1211.78 L 789.53 1208.39 L 780.13 1203.85 L 772.30 1197.89 L 771.19 1188.69 L 773.73 1178.81 L 773.59 1172.21 L 771.84 1169.41 L 771.26 1165.86 L 769.90 1162.42 L 772.30 1159.41 L 770.61 1155.68 L 772.30 1148.48 L 768.79 1139.67 L 763.29 1132.63 L 759.50 1129.20 L 754.61 1127.93 L 754.28 1122.00 L 750.70 1118.49 L 752.64 1112.16 L 747.01 1106.75 L 747.40 1097.16 L 738.00 1091.46 L 727.31 1091.41 L 718.88 1086.66 L 715.50 1078.13 L 718.23 1071.69 L 729.25 1064.03 L 732.62 1060.14 L 723.75 1047.85 L 731.00 1042.34 L 718.81 1028.98 L 720.38 1010.98 L 717.51 1005.59 L 716.17 1001.53" pathLength="1" fill="none" vector-effect="non-scaling-stroke"/>
  <path class="trace-line" d="M 1826.56 364.92 L 1825.19 366.71 L 1825.79 367.10 L 1813.50 370.01 L 1806.92 370.24 L 1804.13 372.03 L 1799.37 372.53 L 1796.50 372.14 L 1791.98 372.90 L 1787.27 372.62 L 1781.54 373.47 L 1772.39 373.86 L 1761.56 371.32 L 1755.64 371.48 L 1736.29 373.31 L 1729.31 373.29 L 1720.17 374.09 L 1710.33 376.04 L 1696.84 380.12 L 1686.17 381.01 L 1681.18 383.54 L 1679.26 389.29 L 1679.40 391.40 L 1677.11 395.50 L 1663.65 404.61 L 1660.57 406.17 L 1655.98 406.33 L 1652.33 407.27 L 1645.12 406.44 L 1640.64 407.29 L 1635.77 409.93 L 1632.63 414.15 L 1630.80 415.73 L 1616.32 421.87 L 1612.72 422.83 L 1607.38 426.96 L 1595.76 432.67 L 1586.13 438.70 L 1582.80 441.77 L 1577.86 444.96 L 1570.35 447.57 L 1566.98 449.41 L 1561.18 450.76 L 1556.38 450.72 L 1550.37 451.72 L 1546.40 455.51 L 1533.31 464.63 L 1528.73 467.22 L 1522.24 468.21 L 1516.19 468.12 L 1512.66 470.85 L 1500.32 476.05 L 1491.82 480.52 L 1490.71 481.76 L 1489.05 485.96 L 1484.64 489.17 L 1479.69 491.18 L 1475.79 493.38 L 1473.02 496.00 L 1470.22 500.01 L 1467.25 502.62 L 1464.57 508.08 L 1460.99 511.68 L 1453.46 514.20 L 1448.67 516.63 L 1444.17 522.07 L 1438.67 523.90 L 1433.78 526.79 L 1426.62 529.20 L 1423.11 531.28 L 1421.67 532.82 L 1416.27 535.25 L 1413.27 537.66 L 1407.75 540.16 L 1403.77 541.30 L 1399.36 544.01 L 1396.52 544.42 L 1388.83 553.52 L 1382.57 557.47 L 1376.56 562.30 L 1362.50 566.11 L 1357.00 566.29 L 1351.62 565.33 L 1342.22 565.06 L 1336.42 565.84 L 1334.11 568.08 L 1327.60 572.00 L 1318.84 574.11 L 1311.59 572.65 L 1308.22 573.54 L 1284.50 569.16 L 1279.67 570.17 L 1266.25 574.73 L 1260.59 575.56 L 1258.46 576.29 L 1256.89 577.69 L 1253.80 582.99 L 1248.12 588.58 L 1248.95 595.00 L 1246.31 601.12 L 1245.60 605.13 L 1241.35 614.03 L 1229.80 624.39 L 1217.33 631.07 L 1211.67 633.24 L 1202.41 637.76 L 1198.89 640.40 L 1189.66 653.03 L 1180.25 659.79 L 1178.64 663.28 L 1176.95 665.30 L 1171.34 669.97 L 1168.52 672.95 L 1166.70 676.28 L 1162.12 682.38 L 1161.08 685.38 L 1158.98 688.11 L 1156.97 692.70 L 1153.67 696.82 L 1145.38 700.54 L 1142.28 703.75 L 1140.90 709.62 L 1138.68 713.42 L 1136.90 716.01 L 1133.53 717.66 L 1131.54 720.69 L 1127.96 724.63 L 1124.29 731.92 L 1123.46 734.52 L 1123.73 740.11 L 1126.53 743.94 L 1127.68 749.63 L 1125.88 756.11 L 1120.75 764.85 L 1120.15 769.53 L 1120.73 773.45 L 1123.04 775.30 L 1124.47 777.55 L 1125.21 781.06 L 1125.33 792.45 L 1124.54 795.30 L 1123.11 797.50 L 1119.74 798.97 L 1116.48 802.08 L 1115.30 804.24 L 1112.25 806.17 L 1110.27 808.66 L 1110.04 811.32 L 1114.33 818.43 L 1114.17 823.91 L 1113.36 826.18 L 1109.74 830.15 L 1100.22 836.64 L 1097.43 837.74 L 1096.85 838.77 L 1098.42 842.35 L 1098.51 848.10 L 1099.76 852.64 L 1101.21 869.17 L 1102.62 872.59 L 1105.81 875.50 L 1106.55 879.58 L 1108.00 882.47 L 1106.39 888.75 L 1110.04 892.65 L 1112.05 893.63 L 1113.73 897.65 L 1116.67 901.80 L 1119.72 904.50 L 1117.61 908.54 L 1115.28 916.47 L 1114.96 922.04 L 1118.26 924.93 L 1125.12 929.63 L 1127.78 933.53 L 1129.65 940.02 L 1127.43 948.57 L 1127.15 951.80 L 1127.52 956.64 L 1130.06 959.76 L 1133.41 967.23 L 1133.80 972.09 L 1135.91 978.81 L 1138.12 982.71 L 1137.82 985.16 L 1144.52 993.05 L 1145.47 998.09 L 1145.19 1001.60 L 1144.48 1004.42 L 1141.54 1010.73 L 1143.46 1013.91 L 1143.94 1016.67 L 1146.97 1022.53 L 1149.86 1026.66 L 1150.90 1029.64 L 1152.42 1031.73 L 1155.72 1033.65 L 1150.90 1039.34 L 1147.22 1045.76 L 1146.25 1048.63 L 1143.74 1051.95 L 1144.89 1053.79 L 1144.75 1057.48 L 1143.64 1062.11 L 1142.14 1065.18 L 1142.44 1068.09 L 1129.95 1072.63 L 1121.66 1081.23 L 1107.38 1094.62 L 1102.60 1102.30 L 1098.51 1102.42 L 1095.92 1100.21 L 1090.66 1104.87 L 1084.31 1113.10 L 1083.80 1122.20 L 1078.53 1134.29 L 1073.03 1140.18 L 1071.86 1143.73 L 1072.13 1147.88 L 1070.82 1150.52 L 1064.03 1149.78 L 1059.94 1152.93 L 1053.45 1156.48 L 1047.56 1160.90 L 1043.47 1160.51 L 1039.31 1157.76 L 1031.99 1159.57 L 1031.60 1156.66 L 1033.24 1151.48 L 1032.45 1146.28 L 1030.37 1141.67 L 1030.05 1136.53 L 1027.21 1132.04 L 1015.52 1136.37 L 1012.47 1138.82 L 1010.35 1143.39 L 1003.93 1147.42 L 999.58 1148.94 L 995.03 1149.42 L 991.22 1146.18 L 978.70 1143.02 L 972.42 1143.09 L 964.89 1141.78 L 957.24 1143.52 L 937.03 1151.78 L 933.20 1156.71 L 929.83 1166.27 L 926.20 1171.96 L 918.88 1175.21 L 913.82 1179.29 L 910.63 1179.45 L 906.11 1184.20 L 898.32 1194.24 L 891.65 1198.64 L 860.60 1204.74 L 853.58 1220.42 L 846.54 1220.81 L 835.96 1220.26 L 827.20 1227.03 L 820.14 1228.72 L 815.08 1223.47 L 802.58 1230.63 L 796.67 1225.72 L 789.85 1218.09 L 790.82 1211.78 L 789.53 1208.39 L 780.13 1203.85 L 772.30 1197.89 L 771.19 1188.69 L 773.73 1178.81 L 773.59 1172.21 L 771.84 1169.41 L 771.26 1165.86 L 769.90 1162.42 L 772.30 1159.41 L 770.61 1155.68 L 772.30 1148.48 L 768.79 1139.67 L 763.29 1132.63 L 759.50 1129.20 L 754.61 1127.93 L 754.28 1122.00 L 750.70 1118.49 L 752.64 1112.16 L 747.01 1106.75 L 747.40 1097.16 L 738.00 1091.46 L 727.31 1091.41 L 718.88 1086.66 L 715.50 1078.13 L 718.23 1071.69 L 729.25 1064.03 L 732.62 1060.14 L 723.75 1047.85 L 731.00 1042.34 L 718.81 1028.98 L 720.38 1010.98 L 717.51 1005.59 L 716.17 1001.53" pathLength="1" fill="none" vector-effect="non-scaling-stroke"/>
</svg>
