<svg xmlns="http://www.w3.org/2000/svg" viewBox="0 0 2000 2500" preserveAspectRatio="xMidYMid slice">
  <path class="trace-line" d="M 1677.08 565.43 L 1675.42 568.25 L 1676.15 568.87 L 1661.18 573.48 L 1653.15 573.84 L 1649.75 576.67 L 1643.95 577.46 L 1640.46 576.85 L 1634.94 578.04 L 1629.20 577.61 L 1622.22 578.95 L 1611.07 579.57 L 1597.86 575.54 L 1567.07 578.70 L 1558.56 578.66 L 1547.42 579.93 L 1535.42 583.01 L 1518.98 589.47 L 1505.98 590.88 L 1499.89 594.87 L 1497.56 603.97 L 1497.73 607.31 L 1494.94 613.80 L 1478.53 628.19 L 1474.78 630.66 L 1469.18 630.91 L 1464.73 632.40 L 1455.95 631.09 L 1450.49 632.44 L 1444.55 636.61 L 1438.50 645.78 L 1420.84 655.50 L 1416.45 657.02 L 1409.95 663.55 L 1395.79 672.58 L 1384.05 682.11 L 1380.00 686.97 L 1373.97 692.01 L 1364.82 696.15 L 1360.71 699.05 L 1353.65 701.19 L 1347.79 701.12 L 1340.47 702.71 L 1335.63 708.69 L 1319.67 723.13 L 1314.09 727.22 L 1306.18 728.78 L 1298.80 728.64 L 1294.50 732.95 L 1279.46 741.18 L 1269.10 748.25 L 1267.75 750.21 L 1265.73 756.85 L 1260.35 761.92 L 1249.57 768.60 L 1246.19 772.73 L 1242.78 779.08 L 1239.15 783.21 L 1235.89 791.84 L 1231.52 797.53 L 1222.34 801.52 L 1216.52 805.37 L 1211.03 813.96 L 1204.33 816.86 L 1198.36 821.43 L 1189.63 825.24 L 1185.35 828.54 L 1183.61 830.97 L 1177.02 834.81 L 1173.36 838.62 L 1166.63 842.57 L 1161.79 844.38 L 1156.41 848.66 L 1152.95 849.31 L 1143.58 863.71 L 1135.95 869.95 L 1128.63 877.60 L 1111.48 883.62 L 1104.78 883.91 L 1098.22 882.38 L 1086.76 881.95 L 1079.70 883.18 L 1076.88 886.74 L 1068.94 892.94 L 1058.27 896.27 L 1049.43 893.95 L 1045.33 895.37 L 1016.41 888.44 L 1010.53 890.04 L 994.17 897.25 L 987.27 898.56 L 984.69 899.72 L 982.77 901.93 L 979.00 910.31 L 972.07 919.15 L 973.09 929.31 L 969.88 938.99 L 969.00 945.33 L 963.82 959.40 L 949.75 975.79 L 934.55 986.35 L 916.36 996.93 L 912.08 1001.10 L 900.82 1021.08 L 889.36 1031.78 L 887.39 1037.29 L 885.34 1040.48 L 875.06 1052.59 L 867.26 1067.50 L 866.00 1072.25 L 863.43 1076.56 L 860.99 1083.82 L 856.96 1090.34 L 846.85 1096.22 L 843.08 1101.29 L 841.39 1110.58 L 838.69 1116.60 L 836.52 1120.69 L 832.41 1123.30 L 825.63 1134.33 L 821.15 1145.86 L 820.14 1149.96 L 820.47 1158.80 L 823.88 1164.86 L 825.29 1173.85 L 823.09 1184.11 L 816.84 1197.93 L 816.11 1205.33 L 816.82 1211.53 L 819.63 1214.46 L 821.38 1218.02 L 822.28 1223.57 L 822.42 1241.59 L 821.46 1246.08 L 819.71 1249.56 L 815.60 1251.89 L 811.64 1256.82 L 810.20 1260.23 L 806.48 1263.27 L 804.06 1267.22 L 803.78 1271.43 L 809.02 1282.67 L 808.82 1291.34 L 807.83 1294.93 L 803.41 1301.20 L 791.82 1311.46 L 788.41 1313.20 L 787.71 1314.83 L 789.62 1320.49 L 789.73 1329.59 L 791.25 1336.77 L 793.03 1362.92 L 794.74 1368.32 L 798.63 1372.93 L 799.53 1379.38 L 801.30 1383.95 L 799.33 1393.88 L 803.78 1400.05 L 806.23 1401.61 L 808.28 1407.95 L 811.86 1414.52 L 815.58 1418.80 L 813.01 1425.18 L 810.17 1437.72 L 809.78 1446.54 L 822.16 1458.54 L 825.40 1464.70 L 827.68 1474.96 L 824.98 1488.49 L 825.09 1501.25 L 828.19 1506.18 L 832.27 1518.01 L 832.75 1525.69 L 835.31 1536.32 L 838.01 1542.48 L 837.65 1546.36 L 845.81 1558.84 L 846.97 1566.81 L 846.63 1572.36 L 842.18 1586.79 L 844.52 1591.83 L 845.11 1596.19 L 852.31 1612.00 L 853.58 1616.71 L 855.44 1620.01 L 859.47 1623.05 L 853.58 1632.05 L 849.11 1642.20 L 847.92 1646.73 L 844.85 1651.99 L 846.26 1654.89 L 846.09 1660.73 L 844.74 1668.05 L 842.91 1672.91 L 843.28 1677.52 L 828.05 1684.70 L 817.94 1698.30 L 800.54 1719.47 L 794.72 1731.62 L 789.73 1731.80 L 786.58 1728.32 L 780.16 1735.68 L 772.42 1748.70 L 771.80 1763.10 L 765.38 1782.20 L 758.68 1791.52 L 757.25 1797.14 L 757.58 1803.71 L 755.98 1807.88 L 747.70 1806.72 L 742.72 1811.69 L 734.81 1817.31 L 727.63 1824.30 L 722.65 1823.69 L 717.58 1819.34 L 708.65 1822.20 L 708.18 1817.60 L 710.17 1809.40 L 709.22 1801.17 L 706.68 1793.88 L 706.29 1785.76 L 702.83 1778.65 L 688.58 1785.50 L 684.87 1789.38 L 682.28 1796.60 L 674.45 1802.98 L 669.16 1805.38 L 663.61 1806.14 L 658.97 1801.02 L 643.71 1796.02 L 636.05 1796.13 L 626.87 1794.06 L 617.56 1796.82 L 592.92 1809.87 L 588.25 1817.67 L 584.14 1832.79 L 579.72 1841.78 L 570.80 1846.93 L 564.63 1853.39 L 560.74 1853.64 L 555.23 1861.15 L 545.74 1877.03 L 537.60 1883.99 L 499.77 1893.64 L 491.21 1918.44 L 482.62 1919.05 L 469.73 1918.18 L 459.06 1928.88 L 450.45 1931.56 L 444.28 1923.26 L 429.05 1934.57 L 421.84 1926.81 L 413.54 1914.74 L 414.72 1904.77 L 413.14 1899.40 L 401.69 1892.22 L 392.14 1882.79 L 390.79 1868.25 L 393.89 1852.62 L 393.72 1842.18 L 391.58 1837.76 L 389.21 1826.70 L 392.14 1821.95 L 390.09 1816.04 L 392.14 1804.65 L 387.86 1790.73 L 381.16 1779.59 L 376.55 1774.15 L 370.58 1772.16 L 370.18 1762.77 L 365.82 1757.22 L 368.18 1747.21 L 361.32 1738.65 L 361.79 1723.50 L 350.34 1714.47 L 337.30 1714.40 L 327.03 1706.89 L 322.92 1693.40 L 326.24 1683.21 L 339.67 1671.10 L 343.78 1664.94 L 332.97 1645.50 L 341.81 1636.80 L 326.94 1615.66 L 328.86 1587.19 L 325.37 1578.67 L 323.73 1572.25" pathLength="1" fill="none" vector-effect="non-scaling-stroke"/>
  <circle class="trace-start" cx="1677.08" cy="565.43" r="6.25"/>
  <circle class="trace-summit-halo" cx="324.72" cy="1572.91" r="15.97"/>
  <circle class="trace-summit" cx="324.72" cy="1572.91" r="9.03"/>
</svg>
