<svg xmlns="http://www.w3.org/2000/svg" viewBox="-106.9938742 -39.1023598 0.0577224 0.0453096" preserveAspectRatio="xMidYMid meet">
  <path d="M -106.9409620 -39.0985840 L -106.9410210 -39.0985060 L -106.9409950 -39.0984890 L -106.9415270 -39.0983620 L -106.9418120 -39.0983520 L -106.9419330 -39.0982740 L -106.9421390 -39.0982520 L -106.9422630 -39.0982690 L -106.9424590 -39.0982360 L -106.9426630 -39.0982480 L -106.9429110 -39.0982110 L -106.9433070 -39.0981940 L -106.9437760 -39.0983050 L -106.9440320 -39.0982980 L -106.9448700 -39.0982180 L -106.9451720 -39.0982190 L -106.9455680 -39.0981840 L -106.9459940 -39.0980990 L -106.9465780 -39.0979210 L -106.9470400 -39.0978820 L -106.9472560 -39.0977720 L -106.9473390 -39.0975210 L -106.9473330 -39.0974290 L -106.9474320 -39.0972500 L -106.9480150 -39.0968530 L -106.9481480 -39.0967850 L -106.9483470 -39.0967780 L -106.9485050 -39.0967370 L -106.9488170 -39.0967730 L -106.9490110 -39.0967360 L -106.9492220 -39.0966210 L -106.9493580 -39.0964370 L -106.9494370 -39.0963680 L -106.9500640 -39.0961000 L -106.9502200 -39.0960580 L -106.9504510 -39.0958780 L -106.9509540 -39.0956290 L -106.9513710 -39.0953660 L -106.9515150 -39.0952320 L -106.9517290 -39.0950930 L -106.9520540 -39.0949790 L -106.9522000 -39.0948990 L -106.9524510 -39.0948400 L -106.9526590 -39.0948420 L -106.9529190 -39.0947980 L -106.9530910 -39.0946330 L -106.9536580 -39.0942350 L -106.9538560 -39.0941220 L -106.9541370 -39.0940790 L -106.9543990 -39.0940830 L -106.9545520 -39.0939640 L -106.9550860 -39.0937370 L -106.9554540 -39.0935420 L -106.9555020 -39.0934880 L -106.9555740 -39.0933050 L -106.9557650 -39.0931650 L -106.9559790 -39.0930770 L -106.9561480 -39.0929810 L -106.9562680 -39.0928670 L -106.9563890 -39.0926920 L -106.9565180 -39.0925780 L -106.9566340 -39.0923400 L -106.9567890 -39.0921830 L -106.9571150 -39.0920730 L -106.9573220 -39.0919670 L -106.9575170 -39.0917300 L -106.9577550 -39.0916500 L -106.9579670 -39.0915240 L -106.9582770 -39.0914190 L -106.9584290 -39.0913280 L -106.9584910 -39.0912610 L -106.9587250 -39.0911550 L -106.9588550 -39.0910500 L -106.9590940 -39.0909410 L -106.9592660 -39.0908910 L -106.9594570 -39.0907730 L -106.9595800 -39.0907550 L -106.9599130 -39.0903580 L -106.9601840 -39.0901860 L -106.9604440 -39.0899750 L -106.9610530 -39.0898090 L -106.9612910 -39.0898010 L -106.9615240 -39.0898430 L -106.9619310 -39.0898550 L -106.9621820 -39.0898210 L -106.9622820 -39.0897230 L -106.9625640 -39.0895520 L -106.9629430 -39.0894600 L -106.9632570 -39.0895240 L -106.9634030 -39.0894850 L -106.9644300 -39.0896760 L -106.9646390 -39.0896320 L -106.9652200 -39.0894330 L -106.9654650 -39.0893970 L -106.9655570 -39.0893650 L -106.9656250 -39.0893040 L -106.9657590 -39.0890730 L -106.9660050 -39.0888290 L -106.9659690 -39.0885490 L -106.9660830 -39.0882820 L -106.9661140 -39.0881070 L -106.9662980 -39.0877190 L -106.9667980 -39.0872670 L -106.9673380 -39.0869760 L -106.9675830 -39.0868810 L -106.9679840 -39.0866840 L -106.9681360 -39.0865690 L -106.9685360 -39.0860180 L -106.9689430 -39.0857230 L -106.9690130 -39.0855710 L -106.9690860 -39.0854830 L -106.9693290 -39.0852790 L -106.9694510 -39.0851490 L -106.9695300 -39.0850040 L -106.9697280 -39.0847380 L -106.9697730 -39.0846070 L -106.9698640 -39.0844880 L -106.9699510 -39.0842880 L -106.9700940 -39.0841080 L -106.9704530 -39.0839460 L -106.9705870 -39.0838060 L -106.9706470 -39.0835500 L -106.9707430 -39.0833840 L -106.9708200 -39.0832710 L -106.9709660 -39.0831990 L -106.9710520 -39.0830670 L -106.9712070 -39.0828950 L -106.9713660 -39.0825770 L -106.9714020 -39.0824640 L -106.9713900 -39.0822200 L -106.9712690 -39.0820530 L -106.9712190 -39.0818050 L -106.9712970 -39.0815220 L -106.9715190 -39.0811410 L -106.9715450 -39.0809370 L -106.9715200 -39.0807660 L -106.9714200 -39.0806850 L -106.9713580 -39.0805870 L -106.9713260 -39.0804340 L -106.9713210 -39.0799370 L -106.9713550 -39.0798130 L -106.9714170 -39.0797170 L -106.9715630 -39.0796530 L -106.9717040 -39.0795170 L -106.9717550 -39.0794230 L -106.9718870 -39.0793390 L -106.9719730 -39.0792300 L -106.9719830 -39.0791140 L -106.9717970 -39.0788040 L -106.9718040 -39.0785650 L -106.9718390 -39.0784660 L -106.9719960 -39.0782930 L -106.9724080 -39.0780100 L -106.9725290 -39.0779620 L -106.9725540 -39.0779170 L -106.9724860 -39.0777610 L -106.9724820 -39.0775100 L -106.9724280 -39.0773120 L -106.9723650 -39.0765910 L -106.9723040 -39.0764420 L -106.9721660 -39.0763150 L -106.9721340 -39.0761370 L -106.9720710 -39.0760110 L -106.9721410 -39.0757370 L -106.9719830 -39.0755670 L -106.9718960 -39.0755240 L -106.9718230 -39.0753490 L -106.9716960 -39.0751680 L -106.9715640 -39.0750500 L -106.9716550 -39.0748740 L -106.9717560 -39.0745280 L -106.9717700 -39.0742850 L -106.9716270 -39.0741590 L -106.9713300 -39.0739540 L -106.9712150 -39.0737840 L -106.9711340 -39.0735010 L -106.9712300 -39.0731280 L -106.9712420 -39.0729870 L -106.9712260 -39.0727760 L -106.9711160 -39.0726400 L -106.9709710 -39.0723140 L -106.9709540 -39.0721020 L -106.9708630 -39.0718090 L -106.9707670 -39.0716390 L -106.9707800 -39.0715320 L -106.9704900 -39.0711880 L -106.9704490 -39.0709680 L -106.9704610 -39.0708150 L -106.9704920 -39.0706920 L -106.9706190 -39.0704170 L -106.9705360 -39.0702780 L -106.9705150 -39.0701580 L -106.9703840 -39.0699020 L -106.9702590 -39.0697220 L -106.9702140 -39.0695920 L -106.9701480 -39.0695010 L -106.9700050 -39.0694170 L -106.9702140 -39.0691690 L -106.9703730 -39.0688890 L -106.9704150 -39.0687640 L -106.9705240 -39.0686190 L -106.9704740 -39.0685390 L -106.9704800 -39.0683780 L -106.9705280 -39.0681760 L -106.9705930 -39.0680420 L -106.9705800 -39.0679150 L -106.9711210 -39.0677170 L -106.9714800 -39.0673420 L -106.9720980 -39.0667580 L -106.9723050 -39.0664230 L -106.9724820 -39.0664180 L -106.9725940 -39.0665140 L -106.9728220 -39.0663110 L -106.9730970 -39.0659520 L -106.9731190 -39.0655550 L -106.9733470 -39.0650280 L -106.9735850 -39.0647710 L -106.9736360 -39.0646160 L -106.9736240 -39.0644350 L -106.9736810 -39.0643200 L -106.9739750 -39.0643520 L -106.9741520 -39.0642150 L -106.9744330 -39.0640600 L -106.9746880 -39.0638670 L -106.9748650 -39.0638840 L -106.9750450 -39.0640040 L -106.9753620 -39.0639250 L -106.9753790 -39.0640520 L -106.9753080 -39.0642780 L -106.9753420 -39.0645050 L -106.9754320 -39.0647060 L -106.9754460 -39.0649300 L -106.9755690 -39.0651260 L -106.9760750 -39.0649370 L -106.9762070 -39.0648300 L -106.9762990 -39.0646310 L -106.9765770 -39.0644550 L -106.9767650 -39.0643890 L -106.9769620 -39.0643680 L -106.9771270 -39.0645090 L -106.9776690 -39.0646470 L -106.9779410 -39.0646440 L -106.9782670 -39.0647010 L -106.9785980 -39.0646250 L -106.9794730 -39.0642650 L -106.9796390 -39.0640500 L -106.9797850 -39.0636330 L -106.9799420 -39.0633850 L -106.9802590 -39.0632430 L -106.9804780 -39.0630650 L -106.9806160 -39.0630580 L -106.9808120 -39.0628510 L -106.9811490 -39.0624130 L -106.9814380 -39.0622210 L -106.9827820 -39.0619550 L -106.9830860 -39.0612710 L -106.9833910 -39.0612540 L -106.9838490 -39.0612780 L -106.9842280 -39.0609830 L -106.9845340 -39.0609090 L -106.9847530 -39.0611380 L -106.9852940 -39.0608260 L -106.9855500 -39.0610400 L -106.9858450 -39.0613730 L -106.9858030 -39.0616480 L -106.9858590 -39.0617960 L -106.9862660 -39.0619940 L -106.9866050 -39.0622540 L -106.9866530 -39.0626550 L -106.9865430 -39.0630860 L -106.9865490 -39.0633740 L -106.9866250 -39.0634960 L -106.9866500 -39.0636510 L -106.9867090 -39.0638010 L -106.9866050 -39.0639320 L -106.9866780 -39.0640950 L -106.9866050 -39.0644090 L -106.9867570 -39.0647930 L -106.9869950 -39.0651000 L -106.9871590 -39.0652500 L -106.9873710 -39.0653050 L -106.9873850 -39.0655640 L -106.9875400 -39.0657170 L -106.9874560 -39.0659930 L -106.9877000 -39.0662290 L -106.9876830 -39.0666470 L -106.9880900 -39.0668960 L -106.9885530 -39.0668980 L -106.9889180 -39.0671050 L -106.9890640 -39.0674770 L -106.9889460 -39.0677580 L -106.9884690 -39.0680920 L -106.9883230 -39.0682620 L -106.9887070 -39.0687980 L -106.9883930 -39.0690380 L -106.9889210 -39.0696210 L -106.9888530 -39.0704060 L -106.9889770 -39.0706410 L -106.9890350 -39.0708180" pathLength="1" fill="none" stroke="currentColor" vector-effect="non-scaling-stroke"/>
</svg>
