<svg xmlns="http://www.w3.org/2000/svg" viewBox="0 0 1600 900" preserveAspectRatio="xMidYMid slice">
  <path class="trace-line" d="M 1185.25 1026.59 L 1156.43 1004.49 L 1122.94 996.76 L 1067.36 961.81 L 1019.88 938.63 L 976.80 945.26 L 958.77 938.63 L 920.12 930.54 L 917.54 895.58 L 894.72 880.86 L 886.63 884.55 L 864.91 848.86 L 850.92 841.87 L 836.20 846.66 L 810.80 839.29 L 804.17 833.40 L 782.09 811.71 L 757.79 798.09 L 740.86 792.20 L 717.31 767.91 L 688.59 743.64 L 670.19 730.38 L 655.09 717.14 L 622.70 700.95 L 585.53 696.54 L 561.97 689.56 L 622.70 700.95 L 607.73 689.89 L 588.27 668.46 L 567.49 655.29 L 537.65 648.19 L 496.76 644.89 L 481.76 635.33 L 477.13 628.58 L 469.58 622.59 L 496.82 599.05 L 507.49 592.79 L 488.72 589.12 L 477.30 578.07 L 462.59 554.90 L 450.07 531.35 L 438.29 501.92 L 434.24 483.89 L 436.82 464.76 L 444.91 439.74 L 452.64 430.17 L 459.27 413.99 L 464.79 412.89 L 465.17 391.55 L 476.94 387.50 L 490.56 361.38 L 496.08 337.83 L 499.76 315.39 L 518.78 262.95 L 526.14 228.57 L 552.79 160.76 L 568.86 139.54 L 568.61 108.61 L 572.66 92.76 L 589.68 64.21 L 580.64 32.56 L 572.42 10.52 L 545.67 -22.68 L 527.50 -63.63 L 490.76 -98.84 L 450.20 -117.33 L 414.75 -123.50" pathLength="1" fill="none" vector-effect="non-scaling-stroke"/>
  <circle class="trace-start" cx="1185.25" cy="1026.59" r="4.62"/>
  <circle class="trace-summit-halo" cx="415.77" cy="-126.59" r="11.79"/>
  <circle class="trace-summit" cx="415.77" cy="-126.59" r="6.67"/>
</svg>
