<svg xmlns="http://www.w3.org/2000/svg" viewBox="0 0 2000 2500" preserveAspectRatio="xMidYMid slice">
  <path class="trace-line" d="M 1521.70 2031.25 L 1482.67 2001.30 L 1437.31 1990.83 L 1362.05 1943.47 L 1297.75 1912.06 L 1239.42 1921.05 L 1215.00 1912.06 L 1162.67 1901.11 L 1159.17 1853.73 L 1128.27 1833.79 L 1117.31 1838.78 L 1087.90 1790.43 L 1068.95 1780.96 L 1049.02 1787.44 L 1014.62 1777.47 L 1005.65 1769.49 L 975.75 1740.09 L 942.84 1721.64 L 919.91 1713.66 L 888.02 1680.75 L 849.13 1647.86 L 824.21 1629.90 L 803.77 1611.96 L 759.91 1590.02 L 709.57 1584.04 L 677.66 1574.58 L 759.91 1590.02 L 739.63 1575.04 L 713.28 1546.00 L 685.14 1528.15 L 644.73 1518.54 L 589.36 1514.07 L 569.04 1501.12 L 562.78 1491.97 L 552.55 1483.85 L 589.44 1451.95 L 603.89 1443.47 L 578.47 1438.50 L 563.02 1423.53 L 543.08 1392.13 L 526.14 1360.23 L 510.18 1320.35 L 504.70 1295.92 L 508.19 1270.00 L 519.15 1236.10 L 529.62 1223.13 L 538.59 1201.21 L 546.07 1199.71 L 546.58 1170.80 L 562.52 1165.31 L 580.96 1129.93 L 588.44 1098.01 L 593.43 1067.61 L 619.18 996.55 L 629.15 949.98 L 665.24 858.10 L 687.00 829.35 L 686.66 787.43 L 692.14 765.96 L 715.20 727.28 L 702.95 684.39 L 691.81 654.53 L 655.59 609.55 L 630.99 554.06 L 581.24 506.35 L 526.32 481.30 L 478.30 472.94" pathLength="1" fill="none" vector-effect="non-scaling-stroke"/>
  <circle class="trace-start" cx="1521.70" cy="2031.25" r="6.25"/>
  <circle class="trace-summit-halo" cx="479.69" cy="468.75" r="15.97"/>
  <circle class="trace-summit" cx="479.69" cy="468.75" r="9.03"/>
</svg>
