<svg xmlns="http://www.w3.org/2000/svg" viewBox="0 0 2000 2500" preserveAspectRatio="none">
  <path class="trace-underlay" d="M 1215.18 1393.72 L 1203.61 1386.88 L 1190.16 1384.49 L 1167.86 1373.67 L 1148.80 1366.49 L 1131.51 1368.54 L 1124.27 1366.49 L 1108.76 1363.99 L 1107.72 1353.17 L 1098.56 1348.61 L 1095.31 1349.75 L 1086.60 1338.71 L 1080.98 1336.54 L 1075.07 1338.02 L 1064.88 1335.74 L 1062.22 1333.92 L 1053.35 1327.21 L 1043.60 1322.99 L 1036.80 1321.17 L 1027.35 1313.65 L 1015.82 1306.14 L 1008.44 1302.03 L 1002.38 1297.94 L 989.38 1292.92 L 974.46 1291.56 L 965.00 1289.40 L 989.38 1292.92 L 983.37 1289.50 L 975.56 1282.87 L 967.22 1278.79 L 955.24 1276.59 L 938.83 1275.57 L 932.80 1272.61 L 930.95 1270.53 L 927.92 1268.67 L 938.85 1261.38 L 943.13 1259.45 L 935.60 1258.31 L 931.02 1254.89 L 925.11 1247.72 L 920.09 1240.43 L 915.36 1231.32 L 913.73 1225.74 L 914.77 1219.82 L 918.02 1212.07 L 921.12 1209.11 L 923.78 1204.10 L 925.99 1203.76 L 926.14 1197.16 L 930.87 1195.90 L 936.34 1187.82 L 938.55 1180.53 L 940.03 1173.58 L 947.67 1157.35 L 950.62 1146.71 L 961.32 1125.72 L 967.77 1119.16 L 967.67 1109.58 L 969.29 1104.68 L 976.12 1095.84 L 972.49 1086.04 L 969.19 1079.22 L 958.46 1068.95 L 951.17 1056.27 L 936.42 1045.37 L 920.14 1039.65 L 905.91 1037.74" pathLength="1" fill="none" vector-effect="non-scaling-stroke"/>
  <path class="trace-line" d="M 1215.18 1393.72 L 1203.61 1386.88 L 1190.16 1384.49 L 1167.86 1373.67 L 1148.80 1366.49 L 1131.51 1368.54 L 1124.27 1366.49 L 1108.76 1363.99 L 1107.72 1353.17 L 1098.56 1348.61 L 1095.31 1349.75 L 1086.60 1338.71 L 1080.98 1336.54 L 1075.07 1338.02 L 1064.88 1335.74 L 1062.22 1333.92 L 1053.35 1327.21 L 1043.60 1322.99 L 1036.80 1321.17 L 1027.35 1313.65 L 1015.82 1306.14 L 1008.44 1302.03 L 1002.38 1297.94 L 989.38 1292.92 L 974.46 1291.56 L 965.00 1289.40 L 989.38 1292.92 L 983.37 1289.50 L 975.56 1282.87 L 967.22 1278.79 L 955.24 1276.59 L 938.83 1275.57 L 932.80 1272.61 L 930.95 1270.53 L 927.92 1268.67 L 938.85 1261.38 L 943.13 1259.45 L 935.60 1258.31 L 931.02 1254.89 L 925.11 1247.72 L 920.09 1240.43 L 915.36 1231.32 L 913.73 1225.74 L 914.77 1219.82 L 918.02 1212.07 L 921.12 1209.11 L 923.78 1204.10 L 925.99 1203.76 L 926.14 1197.16 L 930.87 1195.90 L 936.34 1187.82 L 938.55 1180.53 L 940.03 1173.58 L 947.67 1157.35 L 950.62 1146.71 L 961.32 1125.72 L 967.77 1119.16 L 967.67 1109.58 L 969.29 1104.68 L 976.12 1095.84 L 972.49 1086.04 L 969.19 1079.22 L 958.46 1068.95 L 951.17 1056.27 L 936.42 1045.37 L 920.14 1039.65 L 905.91 1037.74" pathLength="1" fill="none" vector-effect="non-scaling-stroke"/>
</svg>
