<svg xmlns="http://www.w3.org/2000/svg" viewBox="-107.7930718 -38.0046988 0.0091400 0.0107852" preserveAspectRatio="xMidYMid meet">
  <path class="trace-line" d="M -107.7846934 -37.9948123 L -107.7849783 -37.9949846 L -107.7853094 -37.9950448 L -107.7858588 -37.9953172 L -107.7863282 -37.9954979 L -107.7867540 -37.9954462 L -107.7869323 -37.9954979 L -107.7873143 -37.9955609 L -107.7873398 -37.9958334 L -107.7875654 -37.9959481 L -107.7876454 -37.9959194 L -107.7878601 -37.9961975 L -107.7879984 -37.9962520 L -107.7881439 -37.9962147 L -107.7883950 -37.9962721 L -107.7884605 -37.9963180 L -107.7886788 -37.9964871 L -107.7889190 -37.9965932 L -107.7890864 -37.9966391 L -107.7893192 -37.9968284 L -107.7896031 -37.9970176 L -107.7897850 -37.9971209 L -107.7899342 -37.9972241 L -107.7902544 -37.9973503 L -107.7906219 -37.9973847 L -107.7908548 -37.9974391 L -107.7902544 -37.9973503 L -107.7904024 -37.9974365 L -107.7905948 -37.9976035 L -107.7908002 -37.9977062 L -107.7910952 -37.9977615 L -107.7914994 -37.9977872 L -107.7916477 -37.9978617 L -107.7916934 -37.9979143 L -107.7917681 -37.9979610 L -107.7914988 -37.9981445 L -107.7913933 -37.9981933 L -107.7915789 -37.9982219 L -107.7916917 -37.9983080 L -107.7918372 -37.9984886 L -107.7919609 -37.9986721 L -107.7920774 -37.9989015 L -107.7921174 -37.9990420 L -107.7920919 -37.9991911 L -107.7920119 -37.9993861 L -107.7919355 -37.9994607 L -107.7918700 -37.9995868 L -107.7918154 -37.9995954 L -107.7918117 -37.9997617 L -107.7916953 -37.9997933 L -107.7915607 -37.9999968 L -107.7915061 -38.0001804 L -107.7914697 -38.0003553 L -107.7912817 -38.0007640 L -107.7912089 -38.0010319 L -107.7909455 -38.0015604 L -107.7907866 -38.0017258 L -107.7907891 -38.0019669 L -107.7907491 -38.0020904 L -107.7905808 -38.0023129 L -107.7906702 -38.0025596 L -107.7907515 -38.0027314 L -107.7910159 -38.0029901 L -107.7911955 -38.0033093 L -107.7915587 -38.0035837 L -107.7919596 -38.0037278 L -107.7923101 -38.0037759" pathLength="1" fill="none" stroke="currentColor" vector-effect="non-scaling-stroke"/>
  <circle class="trace-start" cx="-107.7846934" cy="-37.9948123" r="0.0000971"/>
  <circle class="trace-summit-halo" cx="-107.7923000" cy="-38.0038000" r="0.0002475"/>
  <circle class="trace-summit" cx="-107.7923000" cy="-38.0038000" r="0.0001407"/>
</svg>
