<svg xmlns="http://www.w3.org/2000/svg" viewBox="0 0 1600 900" preserveAspectRatio="xMidYMid slice">
  <path class="trace-line" d="M 1002.82 593.02 L 1014.73 569.81 L 1018.69 552.34 L 1018.35 532.78 L 1021.70 529.09 L 1024.01 521.16 L 1024.36 513.73 L 1029.67 502.03 L 1029.13 497.18 L 1032.68 489.64 L 1032.64 485.94 L 1034.79 483.79 L 1032.41 478.01 L 1033.06 475.01 L 1036.02 471.32 L 1036.64 465.77 L 1040.22 459.96 L 1042.83 450.11 L 1045.83 445.72 L 1045.14 438.87 L 1048.91 425.09 L 1051.61 421.44 L 1051.99 416.82 L 1048.49 410.31 L 1053.92 397.19 L 1050.65 392.27 L 1052.23 382.99 L 1051.30 375.95 L 1053.34 367.94 L 1056.77 364.33 L 1056.50 361.44 L 1060.28 353.47 L 1066.36 349.58 L 1067.67 345.20 L 1073.75 340.46 L 1079.69 332.88 L 1085.54 330.69 L 1087.27 328.30 L 1088.62 317.68 L 1085.12 306.98 L 1093.28 294.63 L 1101.06 286.04 L 1110.27 279.16 L 1111.62 275.15 L 1115.54 272.50 L 1125.83 269.38 L 1131.95 261.95 L 1133.61 254.30 L 1141.66 240.25 L 1144.55 238.17 L 1151.02 238.48 L 1156.68 235.44 L 1157.14 239.79 L 1160.38 240.44 L 1161.73 247.10 L 1165.73 246.21 L 1166.66 247.29 L 1165.19 264.23 L 1168.35 263.69 L 1170.05 266.23 L 1169.82 270.77 L 1174.82 266.69 L 1177.25 275.27 L 1175.51 285.04 L 1176.32 288.58 L 1178.83 286.97 L 1180.56 290.55 L 1183.30 290.78 L 1191.77 280.54 L 1190.96 279.00 L 1193.00 275.62 L 1192.00 275.15 L 1198.20 265.84 L 1203.44 265.26 L 1204.02 275.00 L 1212.38 271.27 L 1227.13 257.80 L 1242.26 248.29 L 1260.79 228.20 L 1265.41 227.05 L 1266.49 223.51 L 1276.47 219.04 L 1279.43 209.31 L 1288.10 201.92 L 1293.14 177.29 L 1297.15 168.17 L 1298.96 153.62 L 1299.08 144.89 L 1297.15 135.04 L 1300.00 125.61 L 1295.96 118.80 L 1295.96 111.29 L 1288.79 106.60 L 1275.62 75.77 L 1271.65 69.70 L 1254.63 51.84 L 1251.24 42.72 L 1241.99 32.75 L 1240.65 29.41 L 1230.21 22.09 L 1228.67 20.40 L 1229.40 18.67 L 1216.57 14.94 L 1215.07 15.63 L 1210.99 9.82 L 1204.67 -25.31 L 1201.86 -31.12 L 1199.70 -41.21 L 1201.94 -49.60 L 1201.21 -51.98 L 1194.75 -45.26 L 1182.55 -38.35 L 1145.08 -21.96 L 1128.12 -16.56 L 1067.46 -8.80 L 1038.59 -7.79 L 1010.95 -9.01 L 966.02 -18.14 L 932.07 -27.08 L 917.23 -28.71 L 893.04 -18.55 L 882.27 -4.34 L 876.05 17.27 L 868.42 34.82 L 862.49 44.20 L 860.64 51.90 L 854.64 58.75 L 854.02 62.68 L 857.10 72.52 L 852.32 101.39 L 848.16 111.70 L 847.62 118.16 L 844.08 113.32 L 840.23 127.32 L 837.84 126.79 L 834.76 122.70 L 834.07 119.01 L 836.76 111.55 L 833.06 103.70 L 831.29 108.93 L 826.52 105.31 L 824.98 114.24 L 822.13 114.16 L 810.26 105.08 L 801.87 92.46 L 799.48 94.77 L 792.24 95.84 L 789.00 107.31 L 778.99 116.24 L 778.52 122.78 L 776.37 124.32 L 758.96 126.79 L 741.70 132.94 L 735.23 133.71 L 728.07 132.56 L 716.28 124.32 L 712.28 124.40 L 705.81 134.56 L 697.72 138.41 L 687.78 140.56 L 682.85 137.71 L 673.07 124.86 L 663.44 126.40 L 658.74 125.25 L 654.81 121.70 L 651.65 120.93 L 643.95 122.01 L 640.48 120.40 L 635.40 114.32 L 632.78 113.78 L 627.54 116.55 L 614.45 118.47 L 606.28 114.47 L 580.09 106.16 L 565.22 103.70 L 558.91 96.84 L 552.44 104.31 L 548.74 114.16 L 544.35 117.93 L 532.33 138.33 L 527.86 141.79 L 523.08 141.64 L 513.07 136.79 L 509.76 138.87 L 505.52 147.80 L 503.60 157.19 L 488.03 180.97 L 487.57 184.20 L 498.82 195.06 L 499.28 198.75 L 492.27 200.98 L 486.80 211.29 L 472.01 227.46 L 462.54 234.92 L 459.84 238.77 L 460.54 248.08 L 454.68 255.86 L 456.30 259.78 L 462.61 260.63 L 461.85 264.40 L 463.15 269.64 L 461.92 275.56 L 464.39 281.79 L 461.31 291.42 L 450.21 299.19 L 450.52 305.04 L 443.43 325.52 L 443.43 340.60 L 448.13 345.68 L 448.29 348.84 L 445.36 356.00 L 440.20 360.77 L 436.27 369.16 L 439.74 384.63 L 455.60 397.02 L 456.68 401.33 L 454.99 404.87 L 462.61 409.03 L 468.39 410.34 L 468.08 421.42 L 470.24 439.20 L 469.70 458.60 L 468.01 464.99 L 469.32 471.99 L 468.08 474.38 L 464.77 474.61 L 461.15 477.23 L 458.38 482.39 L 452.99 497.78 L 451.14 509.48 L 446.90 518.41 L 443.82 521.57 L 442.82 526.42 L 436.11 528.80 L 431.49 533.19 L 424.64 535.88 L 421.48 539.04 L 417.78 547.58 L 413.47 549.89 L 412.54 553.44 L 415.86 558.36 L 413.01 567.29 L 403.68 578.30 L 400.84 585.38 L 389.90 591.62 L 390.28 596.54 L 387.43 598.85 L 386.27 610.48 L 381.11 615.40 L 381.27 621.02 L 379.73 624.33 L 372.56 630.64 L 372.18 634.19 L 361.78 643.89 L 347.99 664.98 L 348.84 672.68 L 343.91 678.76 L 342.67 684.53 L 331.58 706.78 L 327.88 720.17 L 324.11 727.33 L 322.49 737.34 L 314.17 759.59 L 313.25 766.06 L 308.86 775.06 L 300.15 839.57 L 301.54 864.29 L 300.00 885.77 L 300.92 887.62 L 315.25 897.86 L 319.18 898.47 L 327.81 905.32 L 328.50 914.25 L 335.97 917.87 L 341.29 935.19 L 345.52 941.89 L 363.01 950.44 L 372.33 951.98 L 377.26 947.74 L 380.65 947.51 L 384.43 949.90 L 394.13 948.90 L 400.76 942.43" pathLength="1" fill="none" vector-effect="non-scaling-stroke"/>
  <circle class="trace-start" cx="1002.82" cy="593.02" r="4.62"/>
  <circle class="trace-summit-halo" cx="400.19" cy="942.96" r="11.79"/>
  <circle class="trace-summit" cx="400.19" cy="942.96" r="6.67"/>
</svg>
