<svg xmlns="http://www.w3.org/2000/svg" viewBox="0 0 2000 2500" preserveAspectRatio="none">
  <path class="trace-underlay" d="M 1190.81 1092.04 L 1204.03 1072.16 L 1208.45 1057.19 L 1208.06 1040.44 L 1211.78 1037.28 L 1214.35 1030.49 L 1214.74 1024.12 L 1220.65 1014.10 L 1220.05 1009.95 L 1223.98 1003.49 L 1223.94 1000.32 L 1226.34 998.48 L 1223.68 993.53 L 1224.41 990.96 L 1227.71 987.79 L 1228.39 983.05 L 1238.61 965.87 L 1237.84 960.00 L 1242.03 948.20 L 1245.03 945.07 L 1245.46 941.11 L 1241.56 935.54 L 1247.60 924.30 L 1243.96 920.08 L 1245.71 912.13 L 1244.69 906.10 L 1246.96 899.25 L 1250.76 896.15 L 1250.46 893.67 L 1254.66 886.85 L 1261.43 883.52 L 1262.88 879.76 L 1269.64 875.71 L 1276.24 869.21 L 1282.74 867.33 L 1284.67 865.29 L 1286.17 856.19 L 1282.27 847.03 L 1291.35 836.44 L 1300.00 829.09 L 1310.23 823.19 L 1311.73 819.76 L 1327.52 814.82 L 1334.33 808.46 L 1336.17 801.90 L 1345.12 789.86 L 1348.33 788.08 L 1355.52 788.35 L 1361.81 785.74 L 1362.33 789.47 L 1365.93 790.03 L 1367.42 795.73 L 1372.90 795.90 L 1371.28 810.40 L 1374.79 809.94 L 1376.67 812.12 L 1376.42 816.00 L 1381.98 812.51 L 1384.68 819.86 L 1382.75 828.23 L 1383.65 831.27 L 1386.43 829.88 L 1388.36 832.95 L 1391.40 833.15 L 1400.82 824.38 L 1399.92 823.06 L 1402.19 820.16 L 1401.07 819.76 L 1407.97 811.78 L 1413.79 811.29 L 1414.43 819.63 L 1423.72 816.43 L 1440.12 804.90 L 1456.94 796.75 L 1477.53 779.54 L 1482.67 778.56 L 1483.87 775.52 L 1494.96 771.70 L 1498.25 763.36 L 1507.89 757.03 L 1513.49 735.93 L 1517.95 728.12 L 1519.96 715.66 L 1520.09 708.18 L 1517.95 699.74 L 1521.11 691.66 L 1516.62 685.83 L 1516.62 679.40 L 1508.65 675.38 L 1494.02 648.98 L 1489.60 643.77 L 1470.68 628.47 L 1466.92 620.66 L 1456.64 612.12 L 1455.14 609.26 L 1443.54 602.99 L 1441.83 601.54 L 1442.64 600.06 L 1426.72 597.45 L 1422.18 592.48 L 1415.16 562.39 L 1412.03 557.41 L 1409.64 548.77 L 1412.12 541.58 L 1411.31 539.55 L 1404.13 545.30 L 1390.57 551.22 L 1348.92 565.25 L 1330.07 569.88 L 1262.65 576.53 L 1199.84 576.35 L 1112.17 560.87 L 1095.67 559.48 L 1068.78 568.18 L 1056.81 580.35 L 1049.90 598.86 L 1041.42 613.89 L 1034.83 621.93 L 1032.77 628.53 L 1026.09 634.39 L 1025.41 637.76 L 1028.83 646.19 L 1023.53 670.92 L 1018.90 679.75 L 1018.30 685.29 L 1014.36 681.13 L 1010.08 693.13 L 1007.43 692.67 L 1004.00 689.18 L 1003.23 686.01 L 1006.23 679.62 L 1002.12 672.89 L 1000.15 677.38 L 994.84 674.28 L 993.13 681.92 L 989.96 681.86 L 976.78 674.08 L 967.44 663.27 L 964.79 665.24 L 956.74 666.17 L 953.14 675.99 L 942.01 683.64 L 941.50 689.24 L 939.10 690.56 L 919.75 692.67 L 893.38 698.61 L 885.42 697.62 L 872.32 690.56 L 867.86 690.63 L 860.67 699.33 L 840.64 704.47 L 835.16 702.03 L 824.28 691.02 L 813.58 692.34 L 800.48 687.66 L 791.92 688.58 L 788.07 687.20 L 782.42 681.99 L 779.50 681.53 L 773.68 683.90 L 759.13 685.55 L 720.94 675.00 L 704.41 672.89 L 697.40 667.03 L 690.20 673.42 L 686.09 681.86 L 681.21 685.09 L 667.85 702.56 L 662.89 705.53 L 657.58 705.40 L 646.45 701.24 L 642.77 703.02 L 638.06 710.67 L 635.92 718.71 L 618.62 739.08 L 618.11 741.85 L 630.61 751.15 L 631.12 754.31 L 623.33 756.23 L 617.25 765.06 L 600.81 778.91 L 590.28 785.30 L 587.28 788.60 L 588.06 796.57 L 581.55 803.23 L 583.35 806.60 L 590.37 807.32 L 589.51 810.55 L 590.97 815.04 L 589.60 820.11 L 592.34 825.45 L 588.91 833.69 L 576.58 840.35 L 576.93 845.36 L 569.05 862.90 L 569.05 875.82 L 574.27 880.18 L 574.44 882.88 L 571.19 889.01 L 565.45 893.10 L 561.09 900.29 L 564.94 913.54 L 582.58 924.15 L 583.78 927.85 L 581.89 930.88 L 596.79 935.56 L 596.45 945.05 L 598.84 960.29 L 598.25 976.90 L 596.36 982.37 L 597.82 988.37 L 596.45 990.42 L 588.74 992.86 L 585.66 997.28 L 579.66 1010.46 L 577.61 1020.48 L 572.90 1028.13 L 569.47 1030.84 L 568.36 1034.99 L 548.16 1043.10 L 544.65 1045.80 L 540.54 1053.12 L 535.74 1055.10 L 534.72 1058.14 L 538.40 1062.36 L 535.23 1070.00 L 524.87 1079.43 L 521.70 1085.50 L 509.54 1090.84 L 509.97 1095.06 L 506.80 1097.04 L 505.52 1107.00 L 499.78 1111.22 L 499.95 1116.03 L 498.24 1118.87 L 490.28 1124.27 L 489.85 1127.31 L 478.29 1135.62 L 462.96 1153.68 L 463.91 1160.28 L 458.42 1165.49 L 457.06 1170.43 L 444.73 1189.49 L 440.62 1200.96 L 436.42 1207.09 L 434.62 1215.67 L 425.38 1234.72 L 424.35 1240.26 L 419.47 1247.98 L 409.79 1303.24 L 411.33 1324.41 L 409.62 1342.81 L 410.65 1344.39 L 440.53 1359.56 L 441.30 1367.21 L 449.60 1370.31 L 455.51 1385.15 L 460.22 1390.88 L 479.66 1398.20 L 490.02 1399.52 L 495.50 1395.89 L 499.27 1395.70 L 503.46 1397.74 L 514.25 1396.88 L 521.61 1391.35" pathLength="1" fill="none" vector-effect="non-scaling-stroke"/>
  <path class="trace-line" d="M 1190.81 1092.04 L 1204.03 1072.16 L 1208.45 1057.19 L 1208.06 1040.44 L 1211.78 1037.28 L 1214.35 1030.49 L 1214.74 1024.12 L 1220.65 1014.10 L 1220.05 1009.95 L 1223.98 1003.49 L 1223.94 1000.32 L 1226.34 998.48 L 1223.68 993.53 L 1224.41 990.96 L 1227.71 987.79 L 1228.39 983.05 L 1238.61 965.87 L 1237.84 960.00 L 1242.03 948.20 L 1245.03 945.07 L 1245.46 941.11 L 1241.56 935.54 L 1247.60 924.30 L 1243.96 920.08 L 1245.71 912.13 L 1244.69 906.10 L 1246.96 899.25 L 1250.76 896.15 L 1250.46 893.67 L 1254.66 886.85 L 1261.43 883.52 L 1262.88 879.76 L 1269.64 875.71 L 1276.24 869.21 L 1282.74 867.33 L 1284.67 865.29 L 1286.17 856.19 L 1282.27 847.03 L 1291.35 836.44 L 1300.00 829.09 L 1310.23 823.19 L 1311.73 819.76 L 1327.52 814.82 L 1334.33 808.46 L 1336.17 801.90 L 1345.12 789.86 L 1348.33 788.08 L 1355.52 788.35 L 1361.81 785.74 L 1362.33 789.47 L 1365.93 790.03 L 1367.42 795.73 L 1372.90 795.90 L 1371.28 810.40 L 1374.79 809.94 L 1376.67 812.12 L 1376.42 816.00 L 1381.98 812.51 L 1384.68 819.86 L 1382.75 828.23 L 1383.65 831.27 L 1386.43 829.88 L 1388.36 832.95 L 1391.40 833.15 L 1400.82 824.38 L 1399.92 823.06 L 1402.19 820.16 L 1401.07 819.76 L 1407.97 811.78 L 1413.79 811.29 L 1414.43 819.63 L 1423.72 816.43 L 1440.12 804.90 L 1456.94 796.75 L 1477.53 779.54 L 1482.67 778.56 L 1483.87 775.52 L 1494.96 771.70 L 1498.25 763.36 L 1507.89 757.03 L 1513.49 735.93 L 1517.95 728.12 L 1519.96 715.66 L 1520.09 708.18 L 1517.95 699.74 L 1521.11 691.66 L 1516.62 685.83 L 1516.62 679.40 L 1508.65 675.38 L 1494.02 648.98 L 1489.60 643.77 L 1470.68 628.47 L 1466.92 620.66 L 1456.64 612.12 L 1455.14 609.26 L 1443.54 602.99 L 1441.83 601.54 L 1442.64 600.06 L 1426.72 597.45 L 1422.18 592.48 L 1415.16 562.39 L 1412.03 557.41 L 1409.64 548.77 L 1412.12 541.58 L 1411.31 539.55 L 1404.13 545.30 L 1390.57 551.22 L 1348.92 565.25 L 1330.07 569.88 L 1262.65 576.53 L 1199.84 576.35 L 1112.17 560.87 L 1095.67 559.48 L 1068.78 568.18 L 1056.81 580.35 L 1049.90 598.86 L 1041.42 613.89 L 1034.83 621.93 L 1032.77 628.53 L 1026.09 634.39 L 1025.41 637.76 L 1028.83 646.19 L 1023.53 670.92 L 1018.90 679.75 L 1018.30 685.29 L 1014.36 681.13 L 1010.08 693.13 L 1007.43 692.67 L 1004.00 689.18 L 1003.23 686.01 L 1006.23 679.62 L 1002.12 672.89 L 1000.15 677.38 L 994.84 674.28 L 993.13 681.92 L 989.96 681.86 L 976.78 674.08 L 967.44 663.27 L 964.79 665.24 L 956.74 666.17 L 953.14 675.99 L 942.01 683.64 L 941.50 689.24 L 939.10 690.56 L 919.75 692.67 L 893.38 698.61 L 885.42 697.62 L 872.32 690.56 L 867.86 690.63 L 860.67 699.33 L 840.64 704.47 L 835.16 702.03 L 824.28 691.02 L 813.58 692.34 L 800.48 687.66 L 791.92 688.58 L 788.07 687.20 L 782.42 681.99 L 779.50 681.53 L 773.68 683.90 L 759.13 685.55 L 720.94 675.00 L 704.41 672.89 L 697.40 667.03 L 690.20 673.42 L 686.09 681.86 L 681.21 685.09 L 667.85 702.56 L 662.89 705.53 L 657.58 705.40 L 646.45 701.24 L 642.77 703.02 L 638.06 710.67 L 635.92 718.71 L 618.62 739.08 L 618.11 741.85 L 630.61 751.15 L 631.12 754.31 L 623.33 756.23 L 617.25 765.06 L 600.81 778.91 L 590.28 785.30 L 587.28 788.60 L 588.06 796.57 L 581.55 803.23 L 583.35 806.60 L 590.37 807.32 L 589.51 810.55 L 590.97 815.04 L 589.60 820.11 L 592.34 825.45 L 588.91 833.69 L 576.58 840.35 L 576.93 845.36 L 569.05 862.90 L 569.05 875.82 L 574.27 880.18 L 574.44 882.88 L 571.19 889.01 L 565.45 893.10 L 561.09 900.29 L 564.94 913.54 L 582.58 924.15 L 583.78 927.85 L 581.89 930.88 L 596.79 935.56 L 596.45 945.05 L 598.84 960.29 L 598.25 976.90 L 596.36 982.37 L 597.82 988.37 L 596.45 990.42 L 588.74 992.86 L 585.66 997.28 L 579.66 1010.46 L 577.61 1020.48 L 572.90 1028.13 L 569.47 1030.84 L 568.36 1034.99 L 548.16 1043.10 L 544.65 1045.80 L 540.54 1053.12 L 535.74 1055.10 L 534.72 1058.14 L 538.40 1062.36 L 535.23 1070.00 L 524.87 1079.43 L 521.70 1085.50 L 509.54 1090.84 L 509.97 1095.06 L 506.80 1097.04 L 505.52 1107.00 L 499.78 1111.22 L 499.95 1116.03 L 498.24 1118.87 L 490.28 1124.27 L 489.85 1127.31 L 478.29 1135.62 L 462.96 1153.68 L 463.91 1160.28 L 458.42 1165.49 L 457.06 1170.43 L 444.73 1189.49 L 440.62 1200.96 L 436.42 1207.09 L 434.62 1215.67 L 425.38 1234.72 L 424.35 1240.26 L 419.47 1247.98 L 409.79 1303.24 L 411.33 1324.41 L 409.62 1342.81 L 410.65 1344.39 L 440.53 1359.56 L 441.30 1367.21 L 449.60 1370.31 L 455.51 1385.15 L 460.22 1390.88 L 479.66 1398.20 L 490.02 1399.52 L 495.50 1395.89 L 499.27 1395.70 L 503.46 1397.74 L 514.25 1396.88 L 521.61 1391.35" pathLength="1" fill="none" vector-effect="non-scaling-stroke"/>
</svg>
