<svg xmlns="http://www.w3.org/2000/svg" viewBox="0 0 2000 2500" preserveAspectRatio="xMidYMid slice">
  <path class="trace-line" d="M 1274.66 1443.78 L 1290.77 1412.33 L 1296.15 1388.66 L 1295.68 1362.16 L 1300.22 1357.16 L 1303.34 1346.42 L 1303.81 1336.35 L 1311.01 1320.50 L 1310.28 1313.93 L 1315.08 1303.71 L 1315.03 1298.70 L 1317.95 1295.78 L 1314.72 1287.96 L 1315.60 1283.89 L 1319.62 1278.88 L 1320.45 1271.37 L 1325.30 1263.50 L 1328.83 1250.15 L 1332.89 1244.20 L 1331.96 1234.92 L 1337.07 1216.25 L 1340.72 1211.30 L 1341.24 1205.05 L 1336.50 1196.23 L 1343.85 1178.45 L 1339.42 1171.78 L 1341.55 1159.21 L 1340.30 1149.66 L 1343.07 1138.82 L 1347.71 1133.92 L 1347.34 1130.00 L 1352.46 1119.21 L 1360.70 1113.94 L 1362.47 1108.00 L 1370.71 1101.58 L 1378.74 1091.31 L 1386.67 1088.34 L 1389.02 1085.10 L 1390.84 1070.72 L 1386.10 1056.22 L 1397.15 1039.48 L 1407.69 1027.85 L 1420.15 1018.52 L 1421.98 1013.09 L 1427.30 1009.50 L 1441.23 1005.27 L 1449.52 995.21 L 1451.76 984.83 L 1462.66 965.80 L 1466.58 962.98 L 1475.34 963.40 L 1483.00 959.28 L 1483.63 965.18 L 1488.01 966.06 L 1489.84 975.08 L 1495.26 973.88 L 1496.51 975.34 L 1494.53 998.29 L 1498.81 997.56 L 1501.10 1001.00 L 1500.79 1007.15 L 1507.57 1001.62 L 1510.86 1013.25 L 1508.51 1026.50 L 1509.60 1031.29 L 1513.00 1029.10 L 1515.34 1033.95 L 1519.05 1034.26 L 1530.52 1020.39 L 1529.42 1018.31 L 1532.19 1013.72 L 1530.83 1013.09 L 1539.23 1000.48 L 1546.32 999.69 L 1547.11 1012.89 L 1558.43 1007.83 L 1578.40 989.58 L 1598.90 976.70 L 1623.99 949.48 L 1630.25 947.92 L 1631.70 943.12 L 1645.22 937.07 L 1649.23 923.88 L 1660.97 913.87 L 1667.80 880.49 L 1673.22 868.14 L 1675.68 848.43 L 1675.83 836.59 L 1673.22 823.25 L 1677.08 810.47 L 1671.61 801.24 L 1671.61 791.07 L 1661.90 784.71 L 1644.07 742.95 L 1638.69 734.71 L 1615.64 710.51 L 1611.05 698.16 L 1598.53 684.65 L 1596.71 680.12 L 1582.57 670.21 L 1580.49 667.92 L 1581.48 665.57 L 1564.11 660.51 L 1562.08 661.45 L 1556.55 653.58 L 1547.99 605.98 L 1544.19 598.11 L 1541.27 584.44 L 1544.29 573.08 L 1543.30 569.85 L 1534.56 578.96 L 1518.04 588.32 L 1467.30 610.52 L 1444.33 617.84 L 1362.19 628.35 L 1323.10 629.73 L 1285.66 628.08 L 1224.82 615.69 L 1178.85 603.58 L 1158.75 601.38 L 1125.99 615.14 L 1111.40 634.40 L 1102.98 663.67 L 1092.66 687.45 L 1084.62 700.17 L 1082.12 710.60 L 1073.99 719.88 L 1073.15 725.20 L 1077.32 738.54 L 1070.85 777.65 L 1065.22 791.62 L 1064.49 800.38 L 1059.69 793.81 L 1054.48 812.79 L 1051.24 812.07 L 1047.07 806.53 L 1046.13 801.53 L 1049.78 791.42 L 1044.77 780.78 L 1042.38 787.87 L 1035.91 782.97 L 1033.82 795.06 L 1029.96 794.96 L 1013.90 782.66 L 1002.53 765.55 L 999.29 768.68 L 989.49 770.14 L 985.11 785.68 L 971.55 797.78 L 970.92 806.64 L 968.00 808.73 L 944.43 812.07 L 921.06 820.41 L 912.29 821.45 L 902.59 819.88 L 886.63 808.73 L 881.21 808.83 L 872.45 822.60 L 861.49 827.81 L 848.04 830.73 L 841.36 826.87 L 828.11 809.46 L 815.07 811.54 L 808.71 809.98 L 803.39 805.18 L 799.11 804.14 L 788.68 805.60 L 783.99 803.41 L 777.10 795.17 L 773.56 794.44 L 766.46 798.19 L 748.73 800.80 L 737.67 795.38 L 702.21 784.12 L 682.07 780.78 L 673.52 771.50 L 664.76 781.61 L 659.75 794.96 L 653.80 800.07 L 637.53 827.71 L 631.48 832.40 L 625.01 832.19 L 611.45 825.62 L 606.96 828.43 L 601.23 840.53 L 598.62 853.26 L 577.55 885.48 L 576.92 889.86 L 592.15 904.57 L 592.78 909.57 L 583.28 912.60 L 575.88 926.57 L 555.85 948.47 L 543.02 958.59 L 539.37 963.80 L 540.31 976.41 L 532.38 986.95 L 534.57 992.27 L 543.12 993.42 L 542.08 998.53 L 543.86 1005.62 L 542.19 1013.65 L 545.52 1022.09 L 541.35 1035.13 L 526.33 1045.66 L 526.75 1053.59 L 517.15 1081.33 L 517.15 1101.77 L 523.51 1108.66 L 523.72 1112.93 L 519.76 1122.63 L 512.77 1129.10 L 507.45 1140.47 L 512.14 1161.43 L 533.63 1178.22 L 535.09 1184.06 L 532.80 1188.85 L 543.12 1194.49 L 550.95 1196.26 L 550.53 1211.28 L 553.45 1235.37 L 552.72 1261.65 L 550.43 1270.31 L 552.20 1279.80 L 550.53 1283.04 L 546.05 1283.35 L 541.14 1286.89 L 537.39 1293.88 L 530.08 1314.74 L 527.58 1330.59 L 521.84 1342.69 L 517.67 1346.97 L 516.32 1353.54 L 507.24 1356.77 L 500.98 1362.72 L 491.70 1366.37 L 487.42 1370.64 L 482.41 1382.22 L 476.57 1385.35 L 475.32 1390.15 L 479.80 1396.82 L 475.95 1408.92 L 463.32 1423.84 L 459.46 1433.43 L 444.65 1441.88 L 445.17 1448.56 L 441.31 1451.69 L 439.75 1467.43 L 432.76 1474.11 L 432.97 1481.72 L 430.88 1486.21 L 421.18 1494.76 L 420.66 1499.56 L 406.58 1512.70 L 387.90 1541.28 L 389.05 1551.71 L 382.37 1559.95 L 380.71 1567.77 L 365.69 1597.92 L 360.68 1616.07 L 355.57 1625.77 L 353.38 1639.33 L 342.11 1669.47 L 340.86 1678.24 L 334.91 1690.44 L 323.12 1777.85 L 325.00 1811.33 L 322.92 1840.44 L 324.17 1842.94 L 343.57 1856.82 L 348.89 1857.65 L 360.57 1866.93 L 361.51 1879.03 L 371.63 1883.93 L 378.83 1907.41 L 384.56 1916.48 L 408.24 1928.06 L 420.87 1930.15 L 427.54 1924.41 L 432.13 1924.10 L 437.25 1927.33 L 450.39 1925.98 L 459.36 1917.21" pathLength="1" fill="none" vector-effect="non-scaling-stroke"/>
  <circle class="trace-start" cx="1274.66" cy="1443.78" r="6.25"/>
  <circle class="trace-summit-halo" cx="458.59" cy="1917.93" r="15.97"/>
  <circle class="trace-summit" cx="458.59" cy="1917.93" r="9.03"/>
</svg>
