<svg xmlns="http://www.w3.org/2000/svg" viewBox="-106.4887703 -39.4962594 0.0417829 0.0324020" preserveAspectRatio="xMidYMid meet">
  <path d="M -106.4608167 -39.4762118 L -106.4604023 -39.4768361 L -106.4602641 -39.4773060 L -106.4602762 -39.4778319 L -106.4601595 -39.4779313 L -106.4600791 -39.4781445 L -106.4600670 -39.4783443 L -106.4598819 -39.4786590 L -106.4599007 -39.4787894 L -106.4597773 -39.4789923 L -106.4597787 -39.4790917 L -106.4597036 -39.4791496 L -106.4597867 -39.4793049 L -106.4597639 -39.4793856 L -106.4596607 -39.4794850 L -106.4596392 -39.4796341 L -106.4593193 -39.4801734 L -106.4593434 -39.4803576 L -106.4592120 -39.4807282 L -106.4591181 -39.4808265 L -106.4591047 -39.4809507 L -106.4592267 -39.4811257 L -106.4590376 -39.4814787 L -106.4591516 -39.4816111 L -106.4590966 -39.4818606 L -106.4591288 -39.4820500 L -106.4590577 -39.4822653 L -106.4589384 -39.4823626 L -106.4589478 -39.4824403 L -106.4588163 -39.4826545 L -106.4586044 -39.4827591 L -106.4585588 -39.4828771 L -106.4583470 -39.4830044 L -106.4581404 -39.4832083 L -106.4579366 -39.4832673 L -106.4578762 -39.4833315 L -106.4578293 -39.4836171 L -106.4579513 -39.4839049 L -106.4576670 -39.4842372 L -106.4573961 -39.4844680 L -106.4570756 -39.4846532 L -106.4570286 -39.4847609 L -106.4565338 -39.4849162 L -106.4563205 -39.4851159 L -106.4562629 -39.4853219 L -106.4559826 -39.4856997 L -106.4558820 -39.4857556 L -106.4556567 -39.4857473 L -106.4554596 -39.4858291 L -106.4554435 -39.4857121 L -106.4553308 -39.4856945 L -106.4552839 -39.4855154 L -106.4551122 -39.4855103 L -106.4551632 -39.4850548 L -106.4550532 -39.4850693 L -106.4549942 -39.4850010 L -106.4550022 -39.4848789 L -106.4548279 -39.4849886 L -106.4547434 -39.4847578 L -106.4548038 -39.4844949 L -106.4547756 -39.4843997 L -106.4546884 -39.4844431 L -106.4546281 -39.4843469 L -106.4545328 -39.4843407 L -106.4542378 -39.4846160 L -106.4542660 -39.4846574 L -106.4541949 -39.4847485 L -106.4542298 -39.4847609 L -106.4540138 -39.4850114 L -106.4538315 -39.4850269 L -106.4538113 -39.4847650 L -106.4535203 -39.4848654 L -106.4530067 -39.4852277 L -106.4524796 -39.4854834 L -106.4518345 -39.4860237 L -106.4516736 -39.4860547 L -106.4516361 -39.4861499 L -106.4512887 -39.4862700 L -106.4511855 -39.4865319 L -106.4508837 -39.4867306 L -106.4507080 -39.4873930 L -106.4505685 -39.4876383 L -106.4505055 -39.4880295 L -106.4505015 -39.4882645 L -106.4505685 -39.4885294 L -106.4504693 -39.4887830 L -106.4506101 -39.4889662 L -106.4506101 -39.4891680 L -106.4508596 -39.4892943 L -106.4513182 -39.4901233 L -106.4514564 -39.4902868 L -106.4520491 -39.4907671 L -106.4521671 -39.4910124 L -106.4524890 -39.4912804 L -106.4525359 -39.4913704 L -106.4528994 -39.4915671 L -106.4529530 -39.4916126 L -106.4529275 -39.4916592 L -106.4534264 -39.4917410 L -106.4535686 -39.4918972 L -106.4537885 -39.4928421 L -106.4538864 -39.4929984 L -106.4539615 -39.4932696 L -106.4538838 -39.4934952 L -106.4539092 -39.4935592 L -106.4541339 -39.4933785 L -106.4545587 -39.4931927 L -106.4558635 -39.4927520 L -106.4564539 -39.4926067 L -106.4585660 -39.4923981 L -106.4605338 -39.4924035 L -106.4632802 -39.4928897 L -106.4637970 -39.4929334 L -106.4646393 -39.4926603 L -106.4650144 -39.4922779 L -106.4652309 -39.4916969 L -106.4654964 -39.4912249 L -106.4657030 -39.4909724 L -106.4657673 -39.4907654 L -106.4659765 -39.4905812 L -106.4659980 -39.4904756 L -106.4658907 -39.4902107 L -106.4660570 -39.4894344 L -106.4662018 -39.4891571 L -106.4662206 -39.4889832 L -106.4663440 -39.4891136 L -106.4664781 -39.4887369 L -106.4665613 -39.4887513 L -106.4666685 -39.4888611 L -106.4666927 -39.4889604 L -106.4665988 -39.4891612 L -106.4667276 -39.4893723 L -106.4667892 -39.4892316 L -106.4669555 -39.4893289 L -106.4670092 -39.4890888 L -106.4671084 -39.4890908 L -106.4675215 -39.4893351 L -106.4678139 -39.4896746 L -106.4678970 -39.4896125 L -106.4681491 -39.4895835 L -106.4682618 -39.4892751 L -106.4686105 -39.4890349 L -106.4686266 -39.4888590 L -106.4687017 -39.4888176 L -106.4693078 -39.4887513 L -106.4701340 -39.4885650 L -106.4703834 -39.4885961 L -106.4707938 -39.4888176 L -106.4709333 -39.4888155 L -106.4711586 -39.4885423 L -106.4717862 -39.4883808 L -106.4719579 -39.4884574 L -106.4722985 -39.4888031 L -106.4726338 -39.4887617 L -106.4730442 -39.4889087 L -106.4733124 -39.4888797 L -106.4734331 -39.4889232 L -106.4736101 -39.4890867 L -106.4737013 -39.4891012 L -106.4738837 -39.4890267 L -106.4743397 -39.4889749 L -106.4755359 -39.4893061 L -106.4760536 -39.4893723 L -106.4762735 -39.4895566 L -106.4764988 -39.4893558 L -106.4766276 -39.4890908 L -106.4767805 -39.4889894 L -106.4771989 -39.4884408 L -106.4773545 -39.4883477 L -106.4775208 -39.4883518 L -106.4778695 -39.4884822 L -106.4779848 -39.4884264 L -106.4781323 -39.4881862 L -106.4781994 -39.4879337 L -106.4787412 -39.4872941 L -106.4787573 -39.4872071 L -106.4783657 -39.4869152 L -106.4783496 -39.4868159 L -106.4785937 -39.4867558 L -106.4787841 -39.4864785 L -106.4792991 -39.4860437 L -106.4796290 -39.4858429 L -106.4797229 -39.4857394 L -106.4796987 -39.4854890 L -106.4799026 -39.4852799 L -106.4798462 -39.4851743 L -106.4796263 -39.4851515 L -106.4796531 -39.4850501 L -106.4796075 -39.4849093 L -106.4796504 -39.4847499 L -106.4795646 -39.4845823 L -106.4796719 -39.4843235 L -106.4800581 -39.4841144 L -106.4800474 -39.4839571 L -106.4802942 -39.4834064 L -106.4802942 -39.4830007 L -106.4801306 -39.4828640 L -106.4801252 -39.4827792 L -106.4802271 -39.4825866 L -106.4804068 -39.4824583 L -106.4805436 -39.4822326 L -106.4804229 -39.4818165 L -106.4798704 -39.4814832 L -106.4798328 -39.4813673 L -106.4798918 -39.4812721 L -106.4794251 -39.4811251 L -106.4794359 -39.4808270 L -106.4793608 -39.4803487 L -106.4793795 -39.4798270 L -106.4794385 -39.4796552 L -106.4793929 -39.4794668 L -106.4794359 -39.4794026 L -106.4796773 -39.4793260 L -106.4797738 -39.4791873 L -106.4799616 -39.4787733 L -106.4800259 -39.4784586 L -106.4801735 -39.4782184 L -106.4802808 -39.4781335 L -106.4803156 -39.4780031 L -106.4809486 -39.4777485 L -106.4810586 -39.4776636 L -106.4811873 -39.4774338 L -106.4813375 -39.4773717 L -106.4813697 -39.4772764 L -106.4812544 -39.4771439 L -106.4813536 -39.4769038 L -106.4816782 -39.4766077 L -106.4817774 -39.4764172 L -106.4821583 -39.4762495 L -106.4821449 -39.4761170 L -106.4822441 -39.4760549 L -106.4822844 -39.4757423 L -106.4824641 -39.4756098 L -106.4824587 -39.4754587 L -106.4825124 -39.4753696 L -106.4827618 -39.4751999 L -106.4827752 -39.4751046 L -106.4831373 -39.4748437 L -106.4836174 -39.4742764 L -106.4835879 -39.4740694 L -106.4837596 -39.4739058 L -106.4838025 -39.4737506 L -106.4841887 -39.4731522 L -106.4843175 -39.4727919 L -106.4844489 -39.4725994 L -106.4845052 -39.4723302 L -106.4847949 -39.4717319 L -106.4848271 -39.4715579 L -106.4849800 -39.4713157 L -106.4852831 -39.4695806 L -106.4852348 -39.4689159 L -106.4852884 -39.4683382 L -106.4852563 -39.4682885 L -106.4843202 -39.4678123 L -106.4842960 -39.4675721 L -106.4840359 -39.4674748 L -106.4838508 -39.4670089 L -106.4837033 -39.4668287 L -106.4830944 -39.4665989 L -106.4827698 -39.4665575 L -106.4825982 -39.4666714 L -106.4824802 -39.4666776 L -106.4823487 -39.4666134 L -106.4820108 -39.4666403 L -106.4817801 -39.4668142" pathLength="1" fill="none" stroke="currentColor" vector-effect="non-scaling-stroke"/>
</svg>
