<svg xmlns="http://www.w3.org/2000/svg" viewBox="0 0 2000 2500" preserveAspectRatio="xMidYMid slice">
  <path class="trace-line" d="M 1677.08 1636.25 L 1669.12 1625.56 L 1660.39 1620.46 L 1650.92 1617.67 L 1632.59 1607.48 L 1624.46 1598.73 L 1618.27 1594.97 L 1613.21 1593.07 L 1609.69 1590.40 L 1603.14 1589.06 L 1602.04 1586.87 L 1603.74 1583.96 L 1610.78 1578.50 L 1615.39 1572.91 L 1620.98 1563.20 L 1620.73 1560.78 L 1618.91 1560.17 L 1607.75 1565.99 L 1600.83 1568.06 L 1597.55 1568.67 L 1596.22 1567.45 L 1601.92 1560.53 L 1605.32 1553.37 L 1609.08 1536.37 L 1608.36 1524.39 L 1604.03 1502.83 L 1597.26 1494.17 L 1589.66 1488.67 L 1587.44 1484.97 L 1588.81 1475.46 L 1587.86 1473.67 L 1582.90 1470.43 L 1581.42 1470.75 L 1581.00 1472.02 L 1581.95 1473.71 L 1581.32 1476.14 L 1566.74 1491.99 L 1561.35 1495.37 L 1556.07 1496.75 L 1544.13 1496.75 L 1533.88 1498.86 L 1520.68 1495.80 L 1507.47 1501.50 L 1500.92 1502.24 L 1474.70 1501.72 L 1463.97 1504.68 L 1460.45 1508.04 L 1456.77 1508.76 L 1452.44 1511.81 L 1444.60 1523.74 L 1436.75 1527.90 L 1436.83 1524.14 L 1442.67 1502.88 L 1447.88 1492.96 L 1457.41 1483.82 L 1456.69 1482.30 L 1455.00 1481.34 L 1451.32 1481.58 L 1437.71 1484.31 L 1416.62 1481.33 L 1414.14 1479.67 L 1411.75 1474.52 L 1400.62 1462.38 L 1397.40 1455.57 L 1381.86 1458.23 L 1374.04 1456.21 L 1367.51 1456.12 L 1357.23 1451.96 L 1351.84 1451.03 L 1350.94 1449.00 L 1351.82 1445.38 L 1349.03 1439.80 L 1349.69 1437.88 L 1353.66 1435.28 L 1361.11 1426.52 L 1359.70 1416.04 L 1363.58 1409.25 L 1365.01 1409.25 L 1366.11 1405.28 L 1354.07 1400.26 L 1349.74 1399.91 L 1348.13 1395.36 L 1341.40 1387.89 L 1338.58 1387.65 L 1334.17 1385.18 L 1337.98 1388.34 L 1342.19 1404.33 L 1340.15 1410.78 L 1331.65 1412.58 L 1325.34 1411.04 L 1322.06 1412.27 L 1316.31 1412.14 L 1313.48 1411.21 L 1278.38 1409.24 L 1275.94 1410.31 L 1271.83 1409.59 L 1267.07 1410.59 L 1260.35 1409.70 L 1256.43 1410.76 L 1249.03 1410.36 L 1231.00 1407.10 L 1227.12 1404.70 L 1200.68 1396.04 L 1199.49 1394.46 L 1184.90 1391.34 L 1184.20 1386.32 L 1185.74 1384.86 L 1191.73 1385.35 L 1201.56 1384.02 L 1225.19 1378.17 L 1229.30 1378.38 L 1233.76 1380.05 L 1239.48 1378.03 L 1241.15 1375.80 L 1243.17 1368.48 L 1237.81 1357.11 L 1230.52 1346.70 L 1228.36 1345.65 L 1226.84 1347.01 L 1225.64 1351.42 L 1221.32 1350.14 L 1218.27 1353.34 L 1216.67 1353.34 L 1212.35 1347.34 L 1203.87 1340.77 L 1193.69 1335.75 L 1184.77 1327.81 L 1182.75 1324.39 L 1182.60 1313.34 L 1183.58 1307.62 L 1181.76 1302.67 L 1180.93 1291.93 L 1177.47 1283.31 L 1176.92 1279.27 L 1177.68 1274.04 L 1177.05 1261.84 L 1178.03 1254.73 L 1181.10 1247.27 L 1180.10 1244.92 L 1174.08 1245.35 L 1169.11 1251.05 L 1159.60 1257.07 L 1153.48 1265.53 L 1133.79 1286.89 L 1121.10 1291.31 L 1115.21 1292.04 L 1106.75 1291.22 L 1103.17 1292.14 L 1093.32 1290.11 L 1083.67 1290.11 L 1071.43 1286.16 L 1063.16 1280.92 L 1053.41 1279.81 L 1043.47 1276.30 L 1038.43 1275.63 L 1022.71 1276.54 L 1007.36 1275.15 L 982.65 1280.62 L 966.96 1279.19 L 959.75 1275.82 L 949.26 1273.26 L 935.81 1267.97 L 924.20 1262.05 L 916.85 1260.73 L 892.81 1252.64 L 885.71 1247.45 L 871.23 1245.58 L 868.01 1244.25 L 840.00 1244.71 L 842.55 1242.08 L 838.01 1242.83 L 831.50 1241.92 L 835.19 1237.95 L 834.33 1237.17 L 817.76 1237.47 L 810.74 1238.90 L 814.13 1235.35 L 819.54 1232.23 L 813.67 1232.33 L 801.00 1230.15 L 806.70 1227.07 L 792.11 1225.93 L 793.21 1223.80 L 798.62 1221.90 L 805.31 1217.77 L 798.10 1217.70 L 805.22 1214.44 L 804.39 1213.45 L 795.50 1213.70 L 793.83 1212.74 L 788.89 1213.55 L 780.06 1212.40 L 779.17 1211.54 L 773.35 1211.14 L 765.67 1207.74 L 773.59 1206.44 L 778.71 1203.76 L 777.89 1202.63 L 775.80 1202.60 L 769.86 1199.20 L 767.30 1195.11 L 757.92 1186.02 L 740.03 1172.54 L 726.51 1165.85 L 709.24 1164.86 L 696.67 1161.51 L 673.10 1171.82 L 679.79 1163.80 L 675.62 1163.69 L 679.85 1157.16 L 676.82 1157.00 L 672.09 1158.65 L 674.74 1152.49 L 663.77 1154.66 L 645.35 1163.96 L 630.72 1165.16 L 616.97 1146.70 L 609.22 1131.59 L 605.12 1126.05 L 605.49 1122.95 L 611.86 1114.57 L 612.23 1111.90 L 608.34 1103.28 L 608.15 1096.42 L 606.11 1093.71 L 605.32 1086.75 L 603.09 1081.31 L 575.29 1048.08 L 569.39 1036.58 L 562.22 1029.77 L 559.64 1024.89 L 558.17 1017.54 L 552.66 1009.55 L 546.79 995.60 L 543.57 992.29 L 530.88 967.46 L 525.35 959.24 L 524.07 954.92 L 513.49 945.45 L 497.40 924.85 L 491.78 919.33 L 482.54 905.81 L 471.65 895.40 L 463.32 882.51 L 453.92 873.40 L 445.56 869.29 L 439.15 868.73 L 433.71 868.80 L 427.43 871.13 L 413.70 863.75 L 400.03 867.37 L 395.15 865.00 L 392.30 865.77 L 387.92 869.00 L 379.43 870.44 L 375.67 867.72 L 371.91 867.16 L 368.30 869.96 L 358.46 871.16 L 353.65 873.49 L 348.53 877.65 L 343.08 884.22 L 331.07 889.50 L 322.92 894.64" pathLength="1" fill="none" vector-effect="non-scaling-stroke"/>
  <circle class="trace-start" cx="1677.08" cy="1636.25" r="6.25"/>
  <circle class="trace-summit-halo" cx="323.52" cy="894.72" r="15.97"/>
  <circle class="trace-summit" cx="323.52" cy="894.72" r="9.03"/>
</svg>
