<svg xmlns="http://www.w3.org/2000/svg" viewBox="0 0 2000 2500" preserveAspectRatio="none">
  <path class="trace-underlay" d="M 1995.23 1461.59 L 1988.10 1454.21 L 1980.28 1450.69 L 1971.80 1448.77 L 1955.39 1441.73 L 1948.11 1435.70 L 1942.57 1433.11 L 1938.04 1431.79 L 1934.89 1429.95 L 1929.02 1429.03 L 1928.04 1427.52 L 1929.56 1425.51 L 1935.87 1421.74 L 1939.99 1417.89 L 1944.99 1411.19 L 1944.77 1409.52 L 1943.14 1409.10 L 1933.15 1413.12 L 1926.95 1414.54 L 1924.02 1414.96 L 1922.83 1414.12 L 1927.93 1409.35 L 1930.97 1404.41 L 1934.34 1392.68 L 1933.69 1384.41 L 1931.33 1377.12 L 1929.82 1369.54 L 1923.76 1363.56 L 1916.95 1359.77 L 1914.96 1357.22 L 1916.19 1350.66 L 1915.34 1349.42 L 1910.90 1347.19 L 1909.58 1347.41 L 1909.20 1348.28 L 1910.05 1349.45 L 1909.48 1351.12 L 1896.43 1362.06 L 1891.61 1364.39 L 1886.88 1365.34 L 1876.19 1365.34 L 1867.01 1366.80 L 1855.19 1364.68 L 1843.36 1368.62 L 1837.50 1369.13 L 1814.02 1368.77 L 1804.42 1370.81 L 1801.26 1373.13 L 1797.97 1373.63 L 1794.10 1375.73 L 1787.07 1383.96 L 1781.69 1386.67 L 1780.04 1386.84 L 1780.12 1384.24 L 1785.35 1369.58 L 1790.01 1362.73 L 1798.54 1356.43 L 1797.89 1355.38 L 1796.39 1354.71 L 1793.09 1354.88 L 1780.90 1356.76 L 1762.02 1354.70 L 1759.80 1353.56 L 1757.66 1350.00 L 1747.70 1341.63 L 1745.88 1339.60 L 1745.88 1338.07 L 1744.81 1336.93 L 1730.90 1338.77 L 1723.90 1337.37 L 1718.05 1337.31 L 1708.84 1334.45 L 1704.02 1333.80 L 1703.22 1332.40 L 1704.00 1329.90 L 1701.51 1326.05 L 1702.09 1324.73 L 1705.65 1322.94 L 1712.32 1316.89 L 1711.05 1309.66 L 1714.53 1304.98 L 1715.81 1304.98 L 1716.79 1302.24 L 1706.02 1298.77 L 1702.14 1298.53 L 1700.77 1296.74 L 1700.69 1295.40 L 1694.67 1290.24 L 1692.14 1290.08 L 1688.19 1288.37 L 1691.61 1290.55 L 1695.38 1301.58 L 1693.55 1306.03 L 1685.94 1307.27 L 1680.29 1306.21 L 1677.36 1307.06 L 1672.21 1306.97 L 1669.67 1306.33 L 1663.61 1306.52 L 1638.24 1304.97 L 1636.06 1305.71 L 1632.38 1305.22 L 1628.12 1305.90 L 1622.10 1305.28 L 1618.59 1306.02 L 1611.96 1305.75 L 1603.05 1304.05 L 1595.83 1303.49 L 1592.35 1301.84 L 1568.67 1295.86 L 1567.61 1294.77 L 1554.55 1292.62 L 1553.80 1290.99 L 1553.92 1289.16 L 1555.30 1288.15 L 1560.66 1288.49 L 1569.46 1287.57 L 1590.62 1283.53 L 1594.30 1283.68 L 1598.29 1284.83 L 1603.41 1283.44 L 1604.91 1281.90 L 1606.72 1276.85 L 1606.36 1275.19 L 1601.92 1269.00 L 1595.40 1261.82 L 1593.46 1261.10 L 1592.10 1262.04 L 1591.02 1265.08 L 1587.15 1264.20 L 1584.43 1266.41 L 1582.99 1266.41 L 1579.12 1262.26 L 1571.53 1257.73 L 1565.35 1254.90 L 1562.42 1254.27 L 1554.43 1248.79 L 1552.62 1246.43 L 1552.49 1238.81 L 1553.36 1234.86 L 1551.74 1231.45 L 1550.99 1224.04 L 1549.93 1220.82 L 1547.90 1218.09 L 1547.40 1215.30 L 1548.08 1211.70 L 1547.52 1203.28 L 1548.40 1198.37 L 1551.14 1193.23 L 1550.25 1191.61 L 1544.86 1191.90 L 1542.59 1193.28 L 1540.41 1195.84 L 1531.90 1199.99 L 1526.41 1205.82 L 1508.78 1220.56 L 1497.42 1223.61 L 1492.15 1224.12 L 1484.58 1223.55 L 1481.36 1224.18 L 1472.55 1222.78 L 1463.91 1222.78 L 1452.95 1220.06 L 1445.54 1216.44 L 1436.81 1215.68 L 1427.91 1213.25 L 1423.40 1212.80 L 1409.33 1213.42 L 1395.59 1212.46 L 1373.46 1216.24 L 1359.41 1215.25 L 1352.96 1212.92 L 1343.57 1211.16 L 1331.52 1207.51 L 1321.13 1203.42 L 1314.55 1202.51 L 1293.02 1196.93 L 1286.66 1193.35 L 1273.70 1192.06 L 1270.82 1191.15 L 1245.74 1191.46 L 1248.02 1189.64 L 1243.96 1190.17 L 1238.13 1189.54 L 1241.43 1186.80 L 1240.66 1186.26 L 1225.83 1186.47 L 1219.54 1187.46 L 1222.58 1185.01 L 1227.42 1182.85 L 1222.16 1182.92 L 1210.81 1181.42 L 1215.92 1179.29 L 1202.85 1178.51 L 1203.84 1177.03 L 1208.69 1175.73 L 1214.68 1172.87 L 1208.22 1172.83 L 1214.60 1170.58 L 1213.85 1169.90 L 1205.89 1170.07 L 1204.40 1169.40 L 1199.98 1169.97 L 1192.07 1169.17 L 1191.27 1168.58 L 1186.06 1168.30 L 1179.19 1165.96 L 1186.28 1165.06 L 1190.86 1163.21 L 1190.13 1162.43 L 1188.25 1162.41 L 1182.94 1160.06 L 1180.64 1157.24 L 1172.24 1150.97 L 1156.22 1141.67 L 1144.12 1137.06 L 1128.65 1136.37 L 1117.40 1134.06 L 1096.30 1141.18 L 1102.29 1135.64 L 1098.55 1135.56 L 1102.34 1131.06 L 1099.63 1130.95 L 1095.39 1132.09 L 1097.77 1127.84 L 1087.94 1129.34 L 1081.42 1132.37 L 1073.97 1134.40 L 1071.46 1135.75 L 1058.36 1136.58 L 1046.04 1123.85 L 1039.11 1113.42 L 1035.43 1109.60 L 1035.76 1107.46 L 1041.47 1101.68 L 1041.80 1099.84 L 1041.35 1098.16 L 1038.32 1093.89 L 1038.14 1089.15 L 1036.32 1087.29 L 1035.62 1082.49 L 1033.62 1078.73 L 1020.51 1066.02 L 1008.72 1055.80 L 1003.44 1047.87 L 997.02 1043.17 L 994.71 1039.81 L 993.39 1034.73 L 988.47 1029.22 L 983.21 1019.60 L 980.32 1017.32 L 968.96 1000.18 L 964.01 994.52 L 962.86 991.53 L 953.39 985.00 L 938.98 970.79 L 933.96 966.98 L 925.68 957.66 L 915.93 950.48 L 913.13 946.39 L 908.47 941.58 L 900.06 935.30 L 892.57 932.46 L 886.83 932.07 L 881.96 932.12 L 876.34 933.73 L 864.04 928.63 L 851.81 931.13 L 847.44 929.50 L 844.88 930.03 L 840.96 932.26 L 833.36 933.25 L 829.99 931.38 L 826.62 930.99 L 823.40 932.92 L 814.58 933.75 L 810.28 935.35 L 805.69 938.23 L 800.82 942.76 L 790.06 946.40 L 782.76 949.95" pathLength="1" fill="none" vector-effect="non-scaling-stroke"/>
  <path class="trace-line" d="M 1995.23 1461.59 L 1988.10 1454.21 L 1980.28 1450.69 L 1971.80 1448.77 L 1955.39 1441.73 L 1948.11 1435.70 L 1942.57 1433.11 L 1938.04 1431.79 L 1934.89 1429.95 L 1929.02 1429.03 L 1928.04 1427.52 L 1929.56 1425.51 L 1935.87 1421.74 L 1939.99 1417.89 L 1944.99 1411.19 L 1944.77 1409.52 L 1943.14 1409.10 L 1933.15 1413.12 L 1926.95 1414.54 L 1924.02 1414.96 L 1922.83 1414.12 L 1927.93 1409.35 L 1930.97 1404.41 L 1934.34 1392.68 L 1933.69 1384.41 L 1931.33 1377.12 L 1929.82 1369.54 L 1923.76 1363.56 L 1916.95 1359.77 L 1914.96 1357.22 L 1916.19 1350.66 L 1915.34 1349.42 L 1910.90 1347.19 L 1909.58 1347.41 L 1909.20 1348.28 L 1910.05 1349.45 L 1909.48 1351.12 L 1896.43 1362.06 L 1891.61 1364.39 L 1886.88 1365.34 L 1876.19 1365.34 L 1867.01 1366.80 L 1855.19 1364.68 L 1843.36 1368.62 L 1837.50 1369.13 L 1814.02 1368.77 L 1804.42 1370.81 L 1801.26 1373.13 L 1797.97 1373.63 L 1794.10 1375.73 L 1787.07 1383.96 L 1781.69 1386.67 L 1780.04 1386.84 L 1780.12 1384.24 L 1785.35 1369.58 L 1790.01 1362.73 L 1798.54 1356.43 L 1797.89 1355.38 L 1796.39 1354.71 L 1793.09 1354.88 L 1780.90 1356.76 L 1762.02 1354.70 L 1759.80 1353.56 L 1757.66 1350.00 L 1747.70 1341.63 L 1745.88 1339.60 L 1745.88 1338.07 L 1744.81 1336.93 L 1730.90 1338.77 L 1723.90 1337.37 L 1718.05 1337.31 L 1708.84 1334.45 L 1704.02 1333.80 L 1703.22 1332.40 L 1704.00 1329.90 L 1701.51 1326.05 L 1702.09 1324.73 L 1705.65 1322.94 L 1712.32 1316.89 L 1711.05 1309.66 L 1714.53 1304.98 L 1715.81 1304.98 L 1716.79 1302.24 L 1706.02 1298.77 L 1702.14 1298.53 L 1700.77 1296.74 L 1700.69 1295.40 L 1694.67 1290.24 L 1692.14 1290.08 L 1688.19 1288.37 L 1691.61 1290.55 L 1695.38 1301.58 L 1693.55 1306.03 L 1685.94 1307.27 L 1680.29 1306.21 L 1677.36 1307.06 L 1672.21 1306.97 L 1669.67 1306.33 L 1663.61 1306.52 L 1638.24 1304.97 L 1636.06 1305.71 L 1632.38 1305.22 L 1628.12 1305.90 L 1622.10 1305.28 L 1618.59 1306.02 L 1611.96 1305.75 L 1603.05 1304.05 L 1595.83 1303.49 L 1592.35 1301.84 L 1568.67 1295.86 L 1567.61 1294.77 L 1554.55 1292.62 L 1553.80 1290.99 L 1553.92 1289.16 L 1555.30 1288.15 L 1560.66 1288.49 L 1569.46 1287.57 L 1590.62 1283.53 L 1594.30 1283.68 L 1598.29 1284.83 L 1603.41 1283.44 L 1604.91 1281.90 L 1606.72 1276.85 L 1606.36 1275.19 L 1601.92 1269.00 L 1595.40 1261.82 L 1593.46 1261.10 L 1592.10 1262.04 L 1591.02 1265.08 L 1587.15 1264.20 L 1584.43 1266.41 L 1582.99 1266.41 L 1579.12 1262.26 L 1571.53 1257.73 L 1565.35 1254.90 L 1562.42 1254.27 L 1554.43 1248.79 L 1552.62 1246.43 L 1552.49 1238.81 L 1553.36 1234.86 L 1551.74 1231.45 L 1550.99 1224.04 L 1549.93 1220.82 L 1547.90 1218.09 L 1547.40 1215.30 L 1548.08 1211.70 L 1547.52 1203.28 L 1548.40 1198.37 L 1551.14 1193.23 L 1550.25 1191.61 L 1544.86 1191.90 L 1542.59 1193.28 L 1540.41 1195.84 L 1531.90 1199.99 L 1526.41 1205.82 L 1508.78 1220.56 L 1497.42 1223.61 L 1492.15 1224.12 L 1484.58 1223.55 L 1481.36 1224.18 L 1472.55 1222.78 L 1463.91 1222.78 L 1452.95 1220.06 L 1445.54 1216.44 L 1436.81 1215.68 L 1427.91 1213.25 L 1423.40 1212.80 L 1409.33 1213.42 L 1395.59 1212.46 L 1373.46 1216.24 L 1359.41 1215.25 L 1352.96 1212.92 L 1343.57 1211.16 L 1331.52 1207.51 L 1321.13 1203.42 L 1314.55 1202.51 L 1293.02 1196.93 L 1286.66 1193.35 L 1273.70 1192.06 L 1270.82 1191.15 L 1245.74 1191.46 L 1248.02 1189.64 L 1243.96 1190.17 L 1238.13 1189.54 L 1241.43 1186.80 L 1240.66 1186.26 L 1225.83 1186.47 L 1219.54 1187.46 L 1222.58 1185.01 L 1227.42 1182.85 L 1222.16 1182.92 L 1210.81 1181.42 L 1215.92 1179.29 L 1202.85 1178.51 L 1203.84 1177.03 L 1208.69 1175.73 L 1214.68 1172.87 L 1208.22 1172.83 L 1214.60 1170.58 L 1213.85 1169.90 L 1205.89 1170.07 L 1204.40 1169.40 L 1199.98 1169.97 L 1192.07 1169.17 L 1191.27 1168.58 L 1186.06 1168.30 L 1179.19 1165.96 L 1186.28 1165.06 L 1190.86 1163.21 L 1190.13 1162.43 L 1188.25 1162.41 L 1182.94 1160.06 L 1180.64 1157.24 L 1172.24 1150.97 L 1156.22 1141.67 L 1144.12 1137.06 L 1128.65 1136.37 L 1117.40 1134.06 L 1096.30 1141.18 L 1102.29 1135.64 L 1098.55 1135.56 L 1102.34 1131.06 L 1099.63 1130.95 L 1095.39 1132.09 L 1097.77 1127.84 L 1087.94 1129.34 L 1081.42 1132.37 L 1073.97 1134.40 L 1071.46 1135.75 L 1058.36 1136.58 L 1046.04 1123.85 L 1039.11 1113.42 L 1035.43 1109.60 L 1035.76 1107.46 L 1041.47 1101.68 L 1041.80 1099.84 L 1041.35 1098.16 L 1038.32 1093.89 L 1038.14 1089.15 L 1036.32 1087.29 L 1035.62 1082.49 L 1033.62 1078.73 L 1020.51 1066.02 L 1008.72 1055.80 L 1003.44 1047.87 L 997.02 1043.17 L 994.71 1039.81 L 993.39 1034.73 L 988.47 1029.22 L 983.21 1019.60 L 980.32 1017.32 L 968.96 1000.18 L 964.01 994.52 L 962.86 991.53 L 953.39 985.00 L 938.98 970.79 L 933.96 966.98 L 925.68 957.66 L 915.93 950.48 L 913.13 946.39 L 908.47 941.58 L 900.06 935.30 L 892.57 932.46 L 886.83 932.07 L 881.96 932.12 L 876.34 933.73 L 864.04 928.63 L 851.81 931.13 L 847.44 929.50 L 844.88 930.03 L 840.96 932.26 L 833.36 933.25 L 829.99 931.38 L 826.62 930.99 L 823.40 932.92 L 814.58 933.75 L 810.28 935.35 L 805.69 938.23 L 800.82 942.76 L 790.06 946.40 L 782.76 949.95" pathLength="1" fill="none" vector-effect="non-scaling-stroke"/>
</svg>
