<svg xmlns="http://www.w3.org/2000/svg" viewBox="0 0 1600 900" preserveAspectRatio="xMidYMid slice">
  <path class="trace-line" d="M 1384.27 783.28 L 1377.40 774.05 L 1369.86 769.65 L 1361.69 767.25 L 1345.88 758.45 L 1338.86 750.90 L 1333.52 747.66 L 1329.15 746.01 L 1326.12 743.71 L 1320.46 742.56 L 1319.52 740.67 L 1320.98 738.16 L 1327.06 733.44 L 1331.04 728.63 L 1335.85 720.25 L 1335.64 718.15 L 1334.07 717.63 L 1324.44 722.66 L 1318.47 724.44 L 1315.64 724.96 L 1314.49 723.91 L 1319.41 717.94 L 1322.34 711.76 L 1325.59 697.10 L 1324.96 686.76 L 1321.23 668.16 L 1315.39 660.68 L 1308.83 655.94 L 1306.91 652.75 L 1308.10 644.54 L 1307.28 642.99 L 1303.00 640.20 L 1301.72 640.47 L 1301.36 641.57 L 1302.18 643.03 L 1301.63 645.12 L 1289.05 658.80 L 1284.40 661.72 L 1279.84 662.91 L 1269.54 662.91 L 1260.70 664.73 L 1249.31 662.08 L 1237.91 667.01 L 1232.26 667.65 L 1209.63 667.19 L 1200.37 669.75 L 1197.33 672.65 L 1194.15 673.27 L 1190.42 675.90 L 1183.65 686.20 L 1176.88 689.79 L 1176.95 686.54 L 1181.99 668.20 L 1186.49 659.63 L 1194.71 651.76 L 1194.08 650.44 L 1192.63 649.61 L 1189.46 649.82 L 1177.71 652.17 L 1159.51 649.60 L 1157.37 648.17 L 1155.31 643.72 L 1145.71 633.25 L 1142.93 627.37 L 1129.51 629.68 L 1122.77 627.93 L 1117.13 627.85 L 1108.26 624.26 L 1103.61 623.46 L 1102.84 621.71 L 1103.59 618.58 L 1101.19 613.77 L 1101.75 612.11 L 1105.18 609.87 L 1111.61 602.31 L 1110.39 593.26 L 1113.74 587.41 L 1114.98 587.41 L 1115.92 583.99 L 1105.54 579.65 L 1101.80 579.35 L 1100.41 575.43 L 1094.60 568.98 L 1092.17 568.77 L 1088.36 566.64 L 1091.65 569.37 L 1095.28 583.17 L 1093.52 588.73 L 1086.19 590.28 L 1080.74 588.95 L 1077.92 590.02 L 1072.95 589.91 L 1070.51 589.10 L 1040.22 587.40 L 1038.11 588.33 L 1034.57 587.71 L 1030.46 588.56 L 1024.66 587.79 L 1021.28 588.72 L 1014.89 588.37 L 999.34 585.55 L 995.99 583.48 L 973.17 576.01 L 972.15 574.64 L 959.55 571.96 L 958.95 567.63 L 960.28 566.37 L 965.45 566.79 L 973.93 565.64 L 994.32 560.59 L 997.87 560.77 L 1001.72 562.21 L 1006.65 560.47 L 1008.09 558.55 L 1009.84 552.23 L 1005.21 542.42 L 998.92 533.43 L 997.06 532.53 L 995.75 533.71 L 994.71 537.51 L 990.98 536.41 L 988.35 539.17 L 986.97 539.17 L 983.24 533.99 L 975.92 528.32 L 967.14 523.99 L 959.44 517.14 L 957.70 514.19 L 957.57 504.65 L 958.41 499.72 L 956.85 495.45 L 956.13 486.18 L 953.15 478.74 L 952.67 475.25 L 953.33 470.74 L 952.78 460.21 L 953.63 454.08 L 956.27 447.65 L 955.41 445.62 L 950.22 445.98 L 945.93 450.91 L 937.73 456.10 L 932.44 463.40 L 915.45 481.83 L 904.50 485.64 L 899.42 486.28 L 892.12 485.56 L 889.02 486.36 L 880.53 484.61 L 872.20 484.61 L 861.64 481.20 L 854.50 476.68 L 846.09 475.72 L 837.51 472.69 L 833.16 472.12 L 819.60 472.90 L 806.35 471.70 L 785.03 476.42 L 771.49 475.18 L 765.27 472.28 L 756.22 470.07 L 744.61 465.51 L 734.59 460.39 L 728.25 459.26 L 707.50 452.28 L 701.37 447.80 L 688.88 446.18 L 686.10 445.04 L 661.93 445.43 L 664.13 443.16 L 660.22 443.82 L 654.60 443.03 L 657.78 439.60 L 657.04 438.93 L 642.74 439.19 L 636.68 440.43 L 639.61 437.36 L 644.28 434.67 L 639.21 434.75 L 628.28 432.87 L 633.20 430.21 L 620.60 429.23 L 621.55 427.39 L 626.23 425.76 L 632.00 422.19 L 625.78 422.13 L 631.92 419.31 L 631.20 418.47 L 623.53 418.68 L 622.09 417.85 L 617.83 418.55 L 610.21 417.56 L 609.44 416.82 L 604.42 416.47 L 597.79 413.54 L 604.63 412.42 L 609.04 410.10 L 608.34 409.12 L 606.53 409.10 L 601.41 406.17 L 599.19 402.63 L 591.10 394.79 L 575.66 383.17 L 564.00 377.39 L 549.09 376.53 L 538.25 373.65 L 517.91 382.54 L 523.68 375.62 L 520.08 375.52 L 523.73 369.89 L 521.12 369.75 L 517.04 371.18 L 519.33 365.87 L 509.86 367.74 L 493.97 375.76 L 481.34 376.80 L 469.47 360.87 L 462.79 347.83 L 459.25 343.05 L 459.56 340.38 L 465.07 333.15 L 465.38 330.84 L 462.03 323.40 L 461.86 317.48 L 460.10 315.15 L 459.42 309.14 L 457.50 304.45 L 433.51 275.77 L 428.42 265.85 L 422.23 259.97 L 420.00 255.77 L 418.73 249.42 L 413.98 242.52 L 408.91 230.49 L 406.14 227.64 L 395.18 206.21 L 390.42 199.12 L 389.31 195.39 L 380.18 187.22 L 366.29 169.44 L 361.45 164.68 L 353.47 153.02 L 344.07 144.04 L 336.89 132.91 L 328.78 125.05 L 321.56 121.50 L 316.03 121.02 L 311.34 121.08 L 305.92 123.09 L 294.07 116.72 L 282.28 119.85 L 278.07 117.80 L 275.60 118.47 L 271.82 121.26 L 264.50 122.50 L 261.25 120.15 L 258.01 119.67 L 254.90 122.09 L 246.40 123.12 L 242.25 125.13 L 237.83 128.72 L 233.13 134.38 L 222.77 138.94 L 215.73 143.38" pathLength="1" fill="none" vector-effect="non-scaling-stroke"/>
  <circle class="trace-start" cx="1384.27" cy="783.28" r="5.39"/>
  <circle class="trace-summit-halo" cx="216.25" cy="143.44" r="13.78"/>
  <circle class="trace-summit" cx="216.25" cy="143.44" r="7.79"/>
</svg>
