<svg xmlns="http://www.w3.org/2000/svg" viewBox="-106.2563253 -38.6289344 0.0660102 0.0294190" preserveAspectRatio="xMidYMid meet">
  <path class="trace-line" d="M -106.1958160 -38.6019670 L -106.1961393 -38.6023063 L -106.1964943 -38.6024681 L -106.1968788 -38.6025567 L -106.1976232 -38.6028803 L -106.1979535 -38.6031577 L -106.1982049 -38.6032771 L -106.1984106 -38.6033376 L -106.1985536 -38.6034223 L -106.1988198 -38.6034647 L -106.1988642 -38.6035341 L -106.1987952 -38.6036265 L -106.1985092 -38.6037999 L -106.1983219 -38.6039771 L -106.1980951 -38.6042853 L -106.1981050 -38.6043623 L -106.1981790 -38.6043816 L -106.1986325 -38.6041967 L -106.1989135 -38.6041312 L -106.1990466 -38.6041119 L -106.1991008 -38.6041504 L -106.1988691 -38.6043700 L -106.1987311 -38.6045973 L -106.1985783 -38.6051367 L -106.1986078 -38.6055171 L -106.1987151 -38.6058524 L -106.1987837 -38.6062012 L -106.1990584 -38.6064762 L -106.1993674 -38.6066506 L -106.1994575 -38.6067680 L -106.1994017 -38.6070698 L -106.1994403 -38.6071268 L -106.1996417 -38.6072294 L -106.1997018 -38.6072193 L -106.1997190 -38.6071791 L -106.1996803 -38.6071254 L -106.1997061 -38.6070483 L -106.2002983 -38.6065452 L -106.2005172 -38.6064379 L -106.2007318 -38.6063943 L -106.2012167 -38.6063943 L -106.2016330 -38.6063273 L -106.2021694 -38.6064245 L -106.2027059 -38.6062434 L -106.2029719 -38.6062199 L -106.2040371 -38.6062366 L -106.2044729 -38.6061426 L -106.2046160 -38.6060359 L -106.2047656 -38.6060130 L -106.2049412 -38.6059164 L -106.2052599 -38.6055377 L -106.2055039 -38.6054132 L -106.2055787 -38.6054055 L -106.2055754 -38.6055250 L -106.2053381 -38.6061995 L -106.2051266 -38.6065146 L -106.2047396 -38.6068044 L -106.2047689 -38.6068527 L -106.2048372 -38.6068832 L -106.2049868 -38.6068755 L -106.2055397 -38.6067891 L -106.2063963 -38.6068837 L -106.2064971 -38.6069363 L -106.2065943 -38.6070998 L -106.2070463 -38.6074851 L -106.2071285 -38.6075786 L -106.2071285 -38.6076486 L -106.2071771 -38.6077012 L -106.2078085 -38.6076165 L -106.2081260 -38.6076808 L -106.2083913 -38.6076837 L -106.2088091 -38.6078155 L -106.2090279 -38.6078451 L -106.2090643 -38.6079094 L -106.2090289 -38.6080245 L -106.2091419 -38.6082016 L -106.2091154 -38.6082624 L -106.2089540 -38.6083449 L -106.2086513 -38.6086229 L -106.2087087 -38.6089557 L -106.2085511 -38.6091711 L -106.2084929 -38.6091711 L -106.2084483 -38.6092969 L -106.2089373 -38.6094564 L -106.2091133 -38.6094675 L -106.2091753 -38.6095500 L -106.2091787 -38.6096117 L -106.2094519 -38.6098488 L -106.2095667 -38.6098564 L -106.2097458 -38.6099349 L -106.2095909 -38.6098345 L -106.2094199 -38.6093271 L -106.2095030 -38.6091226 L -106.2098480 -38.6090655 L -106.2101045 -38.6091143 L -106.2102375 -38.6090751 L -106.2104712 -38.6090792 L -106.2105862 -38.6091088 L -106.2108613 -38.6091000 L -106.2120121 -38.6091715 L -106.2121112 -38.6091373 L -106.2122779 -38.6091601 L -106.2124714 -38.6091286 L -106.2127443 -38.6091569 L -106.2129037 -38.6091230 L -106.2132043 -38.6091357 L -106.2136088 -38.6092137 L -106.2139365 -38.6092393 L -106.2140941 -38.6093155 L -106.2151684 -38.6095903 L -106.2152165 -38.6096405 L -106.2158093 -38.6097393 L -106.2158433 -38.6098145 L -106.2158376 -38.6098986 L -106.2157753 -38.6099450 L -106.2155318 -38.6099295 L -106.2151326 -38.6099716 L -106.2148466 -38.6100114 L -106.2144389 -38.6101264 L -106.2141728 -38.6101574 L -106.2140057 -38.6101508 L -106.2138245 -38.6100977 L -106.2135923 -38.6101618 L -106.2135244 -38.6102326 L -106.2134421 -38.6104650 L -106.2134584 -38.6105412 L -106.2136600 -38.6108258 L -106.2139560 -38.6111562 L -106.2140438 -38.6111893 L -106.2141056 -38.6111461 L -106.2141544 -38.6110063 L -106.2143300 -38.6110469 L -106.2144536 -38.6109453 L -106.2145187 -38.6109453 L -106.2146943 -38.6111359 L -106.2150389 -38.6113442 L -106.2153192 -38.6114747 L -106.2154522 -38.6115035 L -106.2158147 -38.6117557 L -106.2158968 -38.6118641 L -106.2159027 -38.6122149 L -106.2158631 -38.6123963 L -106.2159367 -38.6125534 L -106.2159707 -38.6128941 L -106.2160188 -38.6130423 L -106.2161110 -38.6131678 L -106.2161336 -38.6132961 L -106.2161025 -38.6134620 L -106.2161280 -38.6138492 L -106.2160883 -38.6140748 L -106.2159638 -38.6143115 L -106.2160043 -38.6143860 L -106.2162489 -38.6143726 L -106.2163519 -38.6143089 L -106.2164506 -38.6141915 L -106.2168369 -38.6140004 L -106.2170858 -38.6137321 L -106.2178855 -38.6130541 L -106.2184010 -38.6129140 L -106.2186401 -38.6128906 L -106.2189838 -38.6129169 L -106.2191295 -38.6128877 L -106.2195293 -38.6129519 L -106.2199216 -38.6129519 L -106.2204185 -38.6130774 L -106.2207547 -38.6132438 L -106.2211507 -38.6132789 L -106.2215546 -38.6133903 L -106.2217592 -38.6134114 L -106.2223976 -38.6133826 L -106.2230212 -38.6134269 L -106.2231962 -38.6134114 L -106.2235363 -38.6133171 L -106.2240251 -38.6132530 L -106.2246625 -38.6132987 L -106.2249552 -38.6134055 L -106.2253813 -38.6134868 L -106.2259277 -38.6136545 L -106.2263993 -38.6138426 L -106.2266978 -38.6138845 L -106.2276746 -38.6141411 L -106.2279630 -38.6143059 L -106.2285512 -38.6143653 L -106.2286819 -38.6144073 L -106.2298196 -38.6143929 L -106.2297161 -38.6144764 L -106.2299005 -38.6144523 L -106.2301648 -38.6144813 L -106.2300153 -38.6146074 L -106.2300500 -38.6146322 L -106.2307230 -38.6146224 L -106.2310084 -38.6145770 L -106.2308704 -38.6146897 L -106.2306508 -38.6147888 L -106.2308894 -38.6147858 L -106.2314041 -38.6148549 L -106.2311724 -38.6149526 L -106.2317652 -38.6149887 L -106.2317205 -38.6150564 L -106.2315005 -38.6151165 L -106.2312287 -38.6152478 L -106.2315217 -38.6152500 L -106.2312325 -38.6153535 L -106.2312662 -38.6153847 L -106.2316274 -38.6153769 L -106.2316951 -38.6154074 L -106.2318957 -38.6153815 L -106.2322546 -38.6154180 L -106.2322907 -38.6154453 L -106.2325273 -38.6154581 L -106.2328390 -38.6155660 L -106.2325174 -38.6156072 L -106.2323095 -38.6156923 L -106.2323426 -38.6157283 L -106.2324278 -38.6157291 L -106.2326688 -38.6158371 L -106.2327731 -38.6159670 L -106.2331541 -38.6162554 L -106.2338808 -38.6166830 L -106.2344299 -38.6168953 L -106.2351316 -38.6169270 L -106.2356420 -38.6170331 L -106.2365996 -38.6167059 L -106.2363278 -38.6169605 L -106.2364972 -38.6169641 L -106.2363254 -38.6171713 L -106.2364485 -38.6171764 L -106.2366406 -38.6171238 L -106.2365328 -38.6173193 L -106.2369786 -38.6172505 L -106.2372747 -38.6171111 L -106.2376126 -38.6170178 L -106.2377266 -38.6169554 L -106.2383209 -38.6169173 L -106.2388797 -38.6175031 L -106.2391943 -38.6179826 L -106.2393609 -38.6181586 L -106.2393461 -38.6182568 L -106.2390871 -38.6185228 L -106.2390722 -38.6186075 L -106.2390927 -38.6186848 L -106.2392302 -38.6188812 L -106.2392380 -38.6190989 L -106.2393208 -38.6191848 L -106.2393527 -38.6194056 L -106.2394433 -38.6195782 L -106.2400379 -38.6201631 L -106.2405727 -38.6206330 L -106.2408124 -38.6209980 L -106.2411038 -38.6212140 L -106.2412084 -38.6213687 L -106.2412682 -38.6216022 L -106.2414918 -38.6218558 L -106.2417305 -38.6222984 L -106.2418612 -38.6224034 L -106.2423768 -38.6231915 L -106.2426012 -38.6234522 L -106.2426535 -38.6235894 L -106.2430831 -38.6238900 L -106.2437369 -38.6245438 L -106.2439648 -38.6247190 L -106.2443404 -38.6251478 L -106.2447828 -38.6254781 L -106.2449096 -38.6256661 L -106.2451210 -38.6258872 L -106.2455028 -38.6261764 L -106.2458426 -38.6263069 L -106.2461031 -38.6263246 L -106.2463239 -38.6263224 L -106.2465788 -38.6262484 L -106.2471369 -38.6264828 L -106.2476919 -38.6263678 L -106.2478901 -38.6264430 L -106.2480062 -38.6264186 L -106.2481840 -38.6263160 L -106.2485287 -38.6262703 L -106.2486816 -38.6263566 L -106.2488344 -38.6263744 L -106.2489808 -38.6262855 L -106.2493808 -38.6262474 L -106.2495760 -38.6261737 L -106.2497841 -38.6260416 L -106.2500053 -38.6258332 L -106.2504932 -38.6256655 L -106.2508245 -38.6255024" pathLength="1" fill="none" stroke="currentColor" vector-effect="non-scaling-stroke"/>
  <circle class="trace-start" cx="-106.1958160" cy="-38.6019670" r="0.0005941"/>
  <circle class="trace-summit-halo" cx="-106.2508000" cy="-38.6255000" r="0.0015149"/>
  <circle class="trace-summit" cx="-106.2508000" cy="-38.6255000" r="0.0008614"/>
</svg>
