<svg xmlns="http://www.w3.org/2000/svg" viewBox="0 0 2000 2500" preserveAspectRatio="xMidYMid slice">
  <path class="trace-line" d="M 496.40 1944.61 L 515.57 1779.59 L 523.83 1696.38 L 532.16 1644.25 L 555.21 1610.64 L 559.35 1580.57 L 583.65 1544.70 L 594.17 1519.22 L 611.85 1480.91 L 638.03 1431.06 L 657.10 1385.33 L 685.52 1359.66 L 721.33 1328.47 L 756.54 1300.84 L 764.32 1277.46 L 785.75 1251.33 L 833.55 1205.69 L 861.18 1177.09 L 899.71 1139.06 L 903.39 1115.46 L 896.34 1088.57 L 905.85 1075.81 L 946.91 1062.74 L 991.27 1034.17 L 1024.36 1002.64 L 1071.78 997.02 L 1104.43 984.29 L 1160.76 938.94 L 1219.60 874.10 L 1281.85 818.36 L 1322.14 785.49 L 1384.20 752.67 L 1414.06 732.71 L 1436.82 708.01 L 1444.84 692.41 L 1487.73 595.13 L 1503.60 556.06" pathLength="1" fill="none" vector-effect="non-scaling-stroke"/>
  <circle class="trace-start" cx="496.40" cy="1944.61" r="10.68"/>
  <circle class="trace-summit-halo" cx="1501.58" cy="555.39" r="27.28"/>
  <circle class="trace-summit" cx="1501.58" cy="555.39" r="15.42"/>
</svg>
