<svg xmlns="http://www.w3.org/2000/svg" viewBox="0 0 2000 2500" preserveAspectRatio="none">
  <path class="trace-underlay" d="M 928.23 1350.31 L 931.47 1328.84 L 932.87 1318.01 L 934.27 1311.23 L 938.17 1306.86 L 938.87 1302.95 L 942.97 1298.28 L 944.75 1294.96 L 947.74 1289.98 L 952.16 1283.49 L 955.38 1277.55 L 960.18 1274.21 L 966.23 1270.15 L 972.18 1266.55 L 973.49 1263.51 L 977.11 1260.11 L 985.19 1254.17 L 989.85 1250.45 L 996.36 1245.50 L 996.99 1242.43 L 995.79 1238.94 L 997.40 1237.28 L 1004.34 1235.58 L 1011.83 1231.86 L 1017.42 1227.76 L 1025.43 1227.03 L 1030.95 1225.37 L 1040.46 1219.47 L 1050.40 1211.03 L 1060.92 1203.78 L 1067.73 1199.50 L 1078.21 1195.23 L 1083.25 1192.64 L 1087.10 1189.42 L 1088.45 1187.39 L 1095.70 1174.74 L 1098.38 1169.65" pathLength="1" fill="none" vector-effect="non-scaling-stroke"/>
  <path class="trace-line" d="M 928.23 1350.31 L 931.47 1328.84 L 932.87 1318.01 L 934.27 1311.23 L 938.17 1306.86 L 938.87 1302.95 L 942.97 1298.28 L 944.75 1294.96 L 947.74 1289.98 L 952.16 1283.49 L 955.38 1277.55 L 960.18 1274.21 L 966.23 1270.15 L 972.18 1266.55 L 973.49 1263.51 L 977.11 1260.11 L 985.19 1254.17 L 989.85 1250.45 L 996.36 1245.50 L 996.99 1242.43 L 995.79 1238.94 L 997.40 1237.28 L 1004.34 1235.58 L 1011.83 1231.86 L 1017.42 1227.76 L 1025.43 1227.03 L 1030.95 1225.37 L 1040.46 1219.47 L 1050.40 1211.03 L 1060.92 1203.78 L 1067.73 1199.50 L 1078.21 1195.23 L 1083.25 1192.64 L 1087.10 1189.42 L 1088.45 1187.39 L 1095.70 1174.74 L 1098.38 1169.65" pathLength="1" fill="none" vector-effect="non-scaling-stroke"/>
</svg>
