<svg xmlns="http://www.w3.org/2000/svg" viewBox="0 0 1600 900" preserveAspectRatio="xMidYMid slice">
  <path class="trace-line" d="M 558.10 783.31 L 567.31 704.12 L 571.27 664.20 L 575.28 639.18 L 586.35 623.05 L 588.34 608.62 L 600.01 591.41 L 605.06 579.18 L 613.55 560.80 L 626.13 536.88 L 635.29 514.94 L 648.94 502.62 L 666.14 487.65 L 683.05 474.40 L 686.79 463.18 L 697.09 450.64 L 720.05 428.74 L 733.32 415.01 L 751.83 396.76 L 753.60 385.44 L 750.21 372.54 L 754.78 366.41 L 774.50 360.15 L 795.81 346.44 L 811.70 331.30 L 834.48 328.61 L 850.16 322.50 L 877.22 300.74 L 905.48 269.62 L 935.38 242.88 L 954.74 227.10 L 984.55 211.36 L 998.89 201.78 L 1009.82 189.93 L 1013.68 182.44 L 1034.28 135.76 L 1041.90 117.01" pathLength="1" fill="none" vector-effect="non-scaling-stroke"/>
  <circle class="trace-start" cx="558.10" cy="783.31" r="5.13"/>
  <circle class="trace-summit-halo" cx="1040.93" cy="116.69" r="13.11"/>
  <circle class="trace-summit" cx="1040.93" cy="116.69" r="7.41"/>
</svg>
