<svg xmlns="http://www.w3.org/2000/svg" viewBox="-107.9892921 -37.8608527 0.0050188 0.0054587" preserveAspectRatio="xMidYMid meet">
  <path d="M -107.9888739 -37.8558489 L -107.9887943 -37.8563895 L -107.9887600 -37.8566621 L -107.9887254 -37.8568329 L -107.9886297 -37.8569430 L -107.9886125 -37.8570415 L -107.9885116 -37.8571590 L -107.9884679 -37.8572425 L -107.9883945 -37.8573680 L -107.9882858 -37.8575313 L -107.9882066 -37.8576811 L -107.9880886 -37.8577652 L -107.9879399 -37.8578674 L -107.9877937 -37.8579579 L -107.9877614 -37.8580345 L -107.9876724 -37.8581201 L -107.9874739 -37.8582696 L -107.9873592 -37.8583633 L -107.9871992 -37.8584879 L -107.9871839 -37.8585652 L -107.9872132 -37.8586533 L -107.9871737 -37.8586951 L -107.9870032 -37.8587379 L -107.9868190 -37.8588315 L -107.9866816 -37.8589348 L -107.9864847 -37.8589532 L -107.9863491 -37.8589949 L -107.9861152 -37.8591435 L -107.9858709 -37.8593559 L -107.9856124 -37.8595385 L -107.9854451 -37.8596462 L -107.9851874 -37.8597537 L -107.9850634 -37.8598191 L -107.9849689 -37.8599000 L -107.9849356 -37.8599511 L -107.9847575 -37.8602698 L -107.9846916 -37.8603978" pathLength="1" fill="none" stroke="currentColor" vector-effect="non-scaling-stroke"/>
</svg>
