<svg xmlns="http://www.w3.org/2000/svg" viewBox="0 0 1600 900" preserveAspectRatio="xMidYMid slice">
  <path class="trace-line" d="M 1385.36 653.30 L 1385.00 652.32 L 1388.32 645.00 L 1391.86 640.89 L 1392.71 631.12 L 1386.90 627.86 L 1382.23 628.85 L 1380.81 629.98 L 1378.20 630.93 L 1369.21 625.03 L 1369.35 619.07 L 1371.76 613.27 L 1373.31 598.96 L 1371.04 593.16 L 1365.95 590.61 L 1357.45 582.68 L 1349.67 581.12 L 1339.34 573.75 L 1334.80 571.91 L 1332.26 564.41 L 1328.29 558.18 L 1318.67 556.62 L 1314.14 556.47 L 1304.37 557.47 L 1295.88 559.17 L 1289.93 544.30 L 1287.95 540.61 L 1293.04 529.28 L 1292.90 524.61 L 1294.46 517.67 L 1292.62 513.00 L 1281.72 514.84 L 1277.19 516.39 L 1271.81 519.79 L 1264.87 520.36 L 1256.61 518.62 L 1248.88 519.09 L 1245.06 517.67 L 1247.32 513.99 L 1250.80 510.97 L 1250.86 507.19 L 1245.48 504.78 L 1236.14 502.09 L 1221.98 489.06 L 1220.42 485.66 L 1220.42 482.97 L 1227.50 482.69 L 1230.05 480.99 L 1228.78 474.76 L 1226.09 472.35 L 1224.47 467.63 L 1224.67 463.29 L 1221.41 456.20 L 1219.15 448.56 L 1215.75 441.90 L 1210.65 437.09 L 1204.99 439.64 L 1199.47 439.78 L 1183.62 442.32 L 1175.69 442.32 L 1168.98 441.43 L 1165.64 442.32 L 1156.24 441.15 L 1148.65 443.60 L 1138.74 453.09 L 1129.20 452.90 L 1125.29 456.20 L 1121.76 455.50 L 1116.80 458.47 L 1107.40 457.30 L 1103.86 459.70 L 1098.68 460.31 L 1089.62 465.98 L 1080.08 470.61 L 1076.82 476.13 L 1064.65 491.43 L 1058.14 496.81 L 1050.83 496.00 L 1038.94 492.32 L 1029.60 488.50 L 1018.36 489.02 L 1010.06 486.94 L 1005.90 488.03 L 998.88 485.24 L 987.27 481.70 L 977.59 479.10 L 963.49 476.88 L 947.72 472.17 L 947.21 469.94 L 951.11 466.22 L 945.09 463.57 L 938.29 461.87 L 930.22 457.76 L 915.07 452.38 L 915.07 448.27 L 912.04 447.24 L 914.73 441.72 L 908.14 437.93 L 897.38 432.69 L 888.60 430.01 L 882.23 427.31 L 879.48 424.58 L 875.29 421.37 L 860.43 415.70 L 852.93 415.28 L 846.42 412.58 L 843.39 409.28 L 837.16 406.74 L 834.95 404.94 L 846.42 392.62 L 844.29 389.79 L 837.58 389.32 L 831.27 389.64 L 822.86 388.47 L 815.07 388.18 L 809.13 388.89 L 795.03 386.53 L 780.39 377.00 L 771.95 373.64 L 762.27 370.62 L 758.65 367.83 L 756.38 364.01 L 752.76 362.09 L 745.44 363.00 L 743.67 360.75 L 741.74 359.78 L 736.00 362.17 L 718.16 355.80 L 711.36 355.37 L 704.92 352.97 L 703.48 350.74 L 702.30 350.20 L 700.08 350.14 L 698.70 349.27 L 698.21 347.80 L 690.70 348.57 L 683.42 348.39 L 662.61 342.58 L 655.99 337.91 L 641.52 334.51 L 640.15 333.94 L 639.32 332.67 L 637.62 332.17 L 633.65 333.42 L 623.17 331.37 L 619.23 331.37 L 614.22 332.51 L 598.82 329.31 L 594.19 328.74 L 576.64 332.55 L 570.31 336.07 L 565.10 337.78 L 559.47 338.98 L 552.96 336.82 L 546.08 337.43 L 534.84 336.68 L 519.92 334.23 L 504.20 332.15 L 502.93 332.91 L 500.04 333.05 L 497.83 332.35 L 491.64 332.63 L 486.89 331.17 L 484.02 331.72 L 474.99 328.88 L 470.00 328.89 L 468.96 328.56 L 467.80 328.99 L 460.81 326.34 L 459.84 327.00 L 451.38 325.03 L 449.16 324.86 L 447.97 325.28 L 446.66 324.66 L 446.01 323.89 L 445.22 324.27 L 444.15 323.39 L 442.19 322.89 L 441.09 323.00 L 440.41 323.52 L 435.55 322.90 L 429.92 322.85 L 428.84 321.58 L 427.84 321.36 L 426.51 319.93 L 424.36 320.28 L 422.55 318.66 L 421.35 318.81 L 420.62 320.09 L 419.88 320.27 L 418.79 319.12 L 416.96 319.54 L 416.27 318.40 L 413.82 316.23 L 410.22 315.72 L 406.41 316.76 L 404.96 315.99 L 401.52 316.62 L 397.52 313.53 L 396.05 314.12 L 393.87 314.19 L 393.28 313.42 L 392.15 313.42 L 391.69 314.45 L 389.24 314.15 L 388.04 312.93 L 385.95 314.09 L 382.82 314.82 L 381.06 313.99 L 379.65 312.57 L 377.74 311.90 L 376.55 312.53 L 374.11 312.17 L 371.62 310.07 L 370.18 309.68 L 369.92 308.22 L 369.02 307.73 L 368.13 307.76 L 367.44 308.22 L 365.83 307.25 L 364.48 305.17 L 363.38 304.48 L 361.11 305.15 L 360.62 304.23 L 358.92 304.75 L 357.64 304.43 L 357.74 302.41 L 356.00 300.90 L 354.67 297.60 L 353.17 297.54 L 352.39 297.90 L 352.04 298.80 L 350.74 298.28 L 348.20 295.71 L 345.09 298.48 L 344.39 298.33 L 343.69 296.82 L 339.97 297.65 L 338.32 296.55 L 338.52 295.12 L 337.31 293.53 L 336.93 294.06 L 336.34 294.12 L 335.76 293.21 L 331.89 294.76 L 329.50 294.43 L 328.47 293.45 L 328.00 289.98 L 327.06 288.91 L 323.86 287.65 L 319.09 283.86 L 296.73 273.09 L 281.16 264.60 L 273.23 257.66 L 257.25 249.25 L 255.34 248.93 L 254.07 247.87 L 243.10 246.70 L 240.37 246.85 L 237.72 247.59 L 233.68 247.98 L 233.12 248.40 L 229.01 247.98 L 219.77 249.40 L 211.38 250.16 L 209.61 251.58 L 207.29 252.15" pathLength="1" fill="none" vector-effect="non-scaling-stroke"/>
  <circle class="trace-start" cx="1385.36" cy="653.30" r="5.47"/>
  <circle class="trace-summit-halo" cx="208.11" cy="251.77" r="13.98"/>
  <circle class="trace-summit" cx="208.11" cy="251.77" r="7.90"/>
</svg>
