<svg xmlns="http://www.w3.org/2000/svg" viewBox="0 0 2000 2500" preserveAspectRatio="none">
  <path class="trace-underlay" d="M 1723.12 1367.80 L 1722.77 1367.09 L 1725.88 1361.80 L 1729.20 1358.84 L 1730.00 1351.78 L 1724.56 1349.43 L 1720.18 1350.14 L 1718.85 1350.96 L 1716.40 1351.65 L 1707.97 1347.38 L 1708.11 1343.09 L 1710.36 1338.90 L 1711.82 1328.57 L 1709.70 1324.37 L 1704.92 1322.53 L 1696.96 1316.81 L 1689.66 1315.68 L 1679.98 1310.36 L 1675.73 1309.03 L 1673.34 1303.62 L 1669.63 1299.12 L 1660.61 1297.99 L 1656.36 1297.89 L 1647.21 1298.60 L 1639.24 1299.83 L 1633.67 1289.10 L 1631.82 1286.44 L 1636.59 1278.25 L 1636.46 1274.88 L 1637.92 1269.87 L 1636.19 1266.49 L 1625.98 1267.82 L 1621.73 1268.95 L 1616.69 1271.40 L 1610.19 1271.81 L 1602.44 1270.55 L 1595.20 1270.89 L 1591.61 1269.87 L 1593.74 1267.21 L 1597.00 1265.03 L 1597.05 1262.30 L 1592.01 1260.56 L 1583.25 1258.62 L 1569.99 1249.21 L 1568.53 1246.76 L 1568.53 1244.82 L 1575.16 1244.61 L 1577.55 1243.38 L 1576.36 1238.88 L 1573.84 1237.14 L 1572.32 1233.74 L 1572.51 1230.60 L 1569.46 1225.49 L 1567.33 1219.97 L 1564.15 1215.16 L 1559.37 1211.69 L 1554.07 1213.53 L 1548.89 1213.63 L 1534.03 1215.47 L 1526.60 1215.47 L 1520.31 1214.82 L 1517.18 1215.47 L 1508.37 1214.62 L 1501.26 1216.39 L 1491.97 1223.24 L 1483.03 1223.11 L 1479.37 1225.49 L 1476.05 1224.98 L 1471.41 1227.13 L 1462.60 1226.28 L 1459.28 1228.01 L 1454.43 1228.46 L 1445.94 1232.54 L 1436.99 1235.89 L 1433.94 1239.88 L 1422.53 1250.92 L 1416.43 1254.81 L 1409.58 1254.22 L 1398.44 1251.56 L 1389.68 1248.80 L 1379.14 1249.18 L 1371.37 1247.68 L 1367.47 1248.47 L 1360.89 1246.45 L 1350.01 1243.90 L 1340.94 1242.02 L 1327.72 1240.42 L 1312.94 1237.01 L 1312.46 1235.41 L 1316.12 1232.72 L 1310.47 1230.81 L 1304.10 1229.58 L 1296.54 1226.61 L 1282.34 1222.73 L 1282.34 1219.76 L 1279.50 1219.02 L 1282.03 1215.03 L 1275.84 1212.30 L 1265.76 1208.51 L 1257.53 1206.57 L 1251.56 1204.63 L 1248.99 1202.66 L 1245.06 1200.33 L 1231.13 1196.24 L 1224.10 1195.94 L 1218.00 1193.99 L 1215.16 1191.61 L 1209.32 1189.77 L 1207.25 1188.47 L 1218.00 1179.58 L 1216.00 1177.53 L 1209.72 1177.19 L 1203.80 1177.43 L 1195.92 1176.58 L 1188.62 1176.37 L 1183.05 1176.89 L 1169.83 1175.18 L 1156.11 1168.30 L 1148.21 1165.87 L 1139.13 1163.70 L 1135.74 1161.68 L 1133.61 1158.92 L 1130.22 1157.53 L 1123.36 1158.19 L 1121.70 1156.57 L 1119.89 1155.87 L 1114.51 1157.59 L 1097.79 1152.99 L 1091.42 1152.68 L 1085.38 1150.95 L 1084.03 1149.34 L 1082.93 1148.95 L 1080.84 1148.90 L 1079.55 1148.28 L 1079.09 1147.21 L 1072.05 1147.77 L 1065.23 1147.64 L 1045.73 1143.45 L 1039.52 1140.08 L 1025.96 1137.62 L 1024.67 1137.21 L 1023.90 1136.29 L 1022.31 1135.93 L 1018.58 1136.83 L 1008.77 1135.36 L 1005.07 1135.35 L 1000.37 1136.17 L 981.60 1133.45 L 965.15 1136.20 L 959.22 1138.75 L 949.06 1140.85 L 942.96 1139.29 L 936.51 1139.73 L 925.97 1139.19 L 897.26 1135.91 L 896.07 1136.47 L 893.36 1136.56 L 891.29 1136.06 L 885.49 1136.26 L 881.03 1135.21 L 878.34 1135.61 L 869.88 1133.56 L 864.23 1133.33 L 863.15 1133.63 L 856.59 1131.72 L 855.69 1132.20 L 847.76 1130.78 L 845.68 1130.65 L 844.56 1130.95 L 842.72 1129.95 L 841.99 1130.22 L 840.98 1129.59 L 839.14 1129.23 L 837.47 1129.68 L 832.91 1129.24 L 827.64 1129.20 L 824.45 1127.09 L 822.43 1127.34 L 820.73 1126.17 L 819.61 1126.28 L 818.92 1127.21 L 818.23 1127.34 L 817.21 1126.51 L 815.49 1126.81 L 814.85 1125.99 L 812.55 1124.42 L 809.18 1124.05 L 805.61 1124.80 L 804.25 1124.25 L 801.02 1124.71 L 797.28 1122.47 L 795.90 1122.90 L 793.85 1122.95 L 793.30 1122.39 L 792.24 1122.39 L 791.81 1123.13 L 789.52 1122.92 L 788.39 1122.04 L 786.44 1122.88 L 783.50 1123.40 L 781.85 1122.81 L 780.53 1121.78 L 778.74 1121.29 L 777.62 1121.75 L 775.33 1121.49 L 773.00 1119.97 L 771.65 1119.69 L 771.40 1118.64 L 770.56 1118.29 L 769.08 1118.64 L 767.57 1117.94 L 766.31 1116.43 L 765.28 1115.93 L 763.15 1116.42 L 762.69 1115.76 L 761.10 1116.13 L 759.90 1115.90 L 759.99 1114.44 L 758.36 1113.35 L 757.11 1110.97 L 755.71 1110.93 L 754.98 1111.19 L 754.65 1111.83 L 753.43 1111.46 L 751.06 1109.60 L 748.14 1111.61 L 747.48 1111.50 L 746.83 1110.40 L 743.34 1111.01 L 741.79 1110.21 L 741.98 1109.18 L 740.84 1108.03 L 739.94 1108.45 L 739.40 1107.80 L 735.76 1108.92 L 733.52 1108.68 L 732.56 1107.97 L 732.12 1105.47 L 731.23 1104.69 L 728.24 1103.78 L 723.77 1101.05 L 702.81 1093.27 L 688.22 1087.14 L 680.79 1082.13 L 665.81 1076.06 L 664.02 1075.83 L 662.83 1075.06 L 652.54 1074.22 L 649.99 1074.32 L 643.19 1075.45 L 639.34 1075.14 L 622.82 1076.72 L 621.16 1077.74 L 618.99 1078.15" pathLength="1" fill="none" vector-effect="non-scaling-stroke"/>
  <path class="trace-line" d="M 1723.12 1367.80 L 1722.77 1367.09 L 1725.88 1361.80 L 1729.20 1358.84 L 1730.00 1351.78 L 1724.56 1349.43 L 1720.18 1350.14 L 1718.85 1350.96 L 1716.40 1351.65 L 1707.97 1347.38 L 1708.11 1343.09 L 1710.36 1338.90 L 1711.82 1328.57 L 1709.70 1324.37 L 1704.92 1322.53 L 1696.96 1316.81 L 1689.66 1315.68 L 1679.98 1310.36 L 1675.73 1309.03 L 1673.34 1303.62 L 1669.63 1299.12 L 1660.61 1297.99 L 1656.36 1297.89 L 1647.21 1298.60 L 1639.24 1299.83 L 1633.67 1289.10 L 1631.82 1286.44 L 1636.59 1278.25 L 1636.46 1274.88 L 1637.92 1269.87 L 1636.19 1266.49 L 1625.98 1267.82 L 1621.73 1268.95 L 1616.69 1271.40 L 1610.19 1271.81 L 1602.44 1270.55 L 1595.20 1270.89 L 1591.61 1269.87 L 1593.74 1267.21 L 1597.00 1265.03 L 1597.05 1262.30 L 1592.01 1260.56 L 1583.25 1258.62 L 1569.99 1249.21 L 1568.53 1246.76 L 1568.53 1244.82 L 1575.16 1244.61 L 1577.55 1243.38 L 1576.36 1238.88 L 1573.84 1237.14 L 1572.32 1233.74 L 1572.51 1230.60 L 1569.46 1225.49 L 1567.33 1219.97 L 1564.15 1215.16 L 1559.37 1211.69 L 1554.07 1213.53 L 1548.89 1213.63 L 1534.03 1215.47 L 1526.60 1215.47 L 1520.31 1214.82 L 1517.18 1215.47 L 1508.37 1214.62 L 1501.26 1216.39 L 1491.97 1223.24 L 1483.03 1223.11 L 1479.37 1225.49 L 1476.05 1224.98 L 1471.41 1227.13 L 1462.60 1226.28 L 1459.28 1228.01 L 1454.43 1228.46 L 1445.94 1232.54 L 1436.99 1235.89 L 1433.94 1239.88 L 1422.53 1250.92 L 1416.43 1254.81 L 1409.58 1254.22 L 1398.44 1251.56 L 1389.68 1248.80 L 1379.14 1249.18 L 1371.37 1247.68 L 1367.47 1248.47 L 1360.89 1246.45 L 1350.01 1243.90 L 1340.94 1242.02 L 1327.72 1240.42 L 1312.94 1237.01 L 1312.46 1235.41 L 1316.12 1232.72 L 1310.47 1230.81 L 1304.10 1229.58 L 1296.54 1226.61 L 1282.34 1222.73 L 1282.34 1219.76 L 1279.50 1219.02 L 1282.03 1215.03 L 1275.84 1212.30 L 1265.76 1208.51 L 1257.53 1206.57 L 1251.56 1204.63 L 1248.99 1202.66 L 1245.06 1200.33 L 1231.13 1196.24 L 1224.10 1195.94 L 1218.00 1193.99 L 1215.16 1191.61 L 1209.32 1189.77 L 1207.25 1188.47 L 1218.00 1179.58 L 1216.00 1177.53 L 1209.72 1177.19 L 1203.80 1177.43 L 1195.92 1176.58 L 1188.62 1176.37 L 1183.05 1176.89 L 1169.83 1175.18 L 1156.11 1168.30 L 1148.21 1165.87 L 1139.13 1163.70 L 1135.74 1161.68 L 1133.61 1158.92 L 1130.22 1157.53 L 1123.36 1158.19 L 1121.70 1156.57 L 1119.89 1155.87 L 1114.51 1157.59 L 1097.79 1152.99 L 1091.42 1152.68 L 1085.38 1150.95 L 1084.03 1149.34 L 1082.93 1148.95 L 1080.84 1148.90 L 1079.55 1148.28 L 1079.09 1147.21 L 1072.05 1147.77 L 1065.23 1147.64 L 1045.73 1143.45 L 1039.52 1140.08 L 1025.96 1137.62 L 1024.67 1137.21 L 1023.90 1136.29 L 1022.31 1135.93 L 1018.58 1136.83 L 1008.77 1135.36 L 1005.07 1135.35 L 1000.37 1136.17 L 981.60 1133.45 L 965.15 1136.20 L 959.22 1138.75 L 949.06 1140.85 L 942.96 1139.29 L 936.51 1139.73 L 925.97 1139.19 L 897.26 1135.91 L 896.07 1136.47 L 893.36 1136.56 L 891.29 1136.06 L 885.49 1136.26 L 881.03 1135.21 L 878.34 1135.61 L 869.88 1133.56 L 864.23 1133.33 L 863.15 1133.63 L 856.59 1131.72 L 855.69 1132.20 L 847.76 1130.78 L 845.68 1130.65 L 844.56 1130.95 L 842.72 1129.95 L 841.99 1130.22 L 840.98 1129.59 L 839.14 1129.23 L 837.47 1129.68 L 832.91 1129.24 L 827.64 1129.20 L 824.45 1127.09 L 822.43 1127.34 L 820.73 1126.17 L 819.61 1126.28 L 818.92 1127.21 L 818.23 1127.34 L 817.21 1126.51 L 815.49 1126.81 L 814.85 1125.99 L 812.55 1124.42 L 809.18 1124.05 L 805.61 1124.80 L 804.25 1124.25 L 801.02 1124.71 L 797.28 1122.47 L 795.90 1122.90 L 793.85 1122.95 L 793.30 1122.39 L 792.24 1122.39 L 791.81 1123.13 L 789.52 1122.92 L 788.39 1122.04 L 786.44 1122.88 L 783.50 1123.40 L 781.85 1122.81 L 780.53 1121.78 L 778.74 1121.29 L 777.62 1121.75 L 775.33 1121.49 L 773.00 1119.97 L 771.65 1119.69 L 771.40 1118.64 L 770.56 1118.29 L 769.08 1118.64 L 767.57 1117.94 L 766.31 1116.43 L 765.28 1115.93 L 763.15 1116.42 L 762.69 1115.76 L 761.10 1116.13 L 759.90 1115.90 L 759.99 1114.44 L 758.36 1113.35 L 757.11 1110.97 L 755.71 1110.93 L 754.98 1111.19 L 754.65 1111.83 L 753.43 1111.46 L 751.06 1109.60 L 748.14 1111.61 L 747.48 1111.50 L 746.83 1110.40 L 743.34 1111.01 L 741.79 1110.21 L 741.98 1109.18 L 740.84 1108.03 L 739.94 1108.45 L 739.40 1107.80 L 735.76 1108.92 L 733.52 1108.68 L 732.56 1107.97 L 732.12 1105.47 L 731.23 1104.69 L 728.24 1103.78 L 723.77 1101.05 L 702.81 1093.27 L 688.22 1087.14 L 680.79 1082.13 L 665.81 1076.06 L 664.02 1075.83 L 662.83 1075.06 L 652.54 1074.22 L 649.99 1074.32 L 643.19 1075.45 L 639.34 1075.14 L 622.82 1076.72 L 621.16 1077.74 L 618.99 1078.15" pathLength="1" fill="none" vector-effect="non-scaling-stroke"/>
</svg>
