<svg xmlns="http://www.w3.org/2000/svg" viewBox="-106.1109230 -39.3986385 0.0539045 0.0142829" preserveAspectRatio="xMidYMid meet">
  <path class="trace-line" d="M -106.0617888 -39.3855459 L -106.0618027 -39.3855746 L -106.0616769 -39.3857889 L -106.0615428 -39.3859092 L -106.0615106 -39.3861952 L -106.0617306 -39.3862906 L -106.0619076 -39.3862616 L -106.0619612 -39.3862284 L -106.0620602 -39.3862006 L -106.0624011 -39.3863735 L -106.0623957 -39.3865477 L -106.0623045 -39.3867176 L -106.0622455 -39.3871364 L -106.0623314 -39.3873064 L -106.0625245 -39.3873810 L -106.0628464 -39.3876132 L -106.0631414 -39.3876588 L -106.0635330 -39.3878744 L -106.0637047 -39.3879283 L -106.0638012 -39.3881480 L -106.0639514 -39.3883304 L -106.0643162 -39.3883761 L -106.0644879 -39.3883802 L -106.0648580 -39.3883512 L -106.0651799 -39.3883014 L -106.0654052 -39.3887367 L -106.0654803 -39.3888445 L -106.0652872 -39.3891762 L -106.0652925 -39.3893130 L -106.0652335 -39.3895162 L -106.0653033 -39.3896530 L -106.0657163 -39.3895991 L -106.0658880 -39.3895535 L -106.0660918 -39.3894540 L -106.0663547 -39.3894374 L -106.0666680 -39.3894884 L -106.0669609 -39.3894747 L -106.0671057 -39.3895162 L -106.0670199 -39.3896240 L -106.0668879 -39.3897123 L -106.0668858 -39.3898230 L -106.0670896 -39.3898935 L -106.0674437 -39.3899722 L -106.0679801 -39.3903536 L -106.0680391 -39.3904531 L -106.0680391 -39.3905319 L -106.0677709 -39.3905402 L -106.0676743 -39.3905900 L -106.0677226 -39.3907724 L -106.0678245 -39.3908429 L -106.0678857 -39.3909809 L -106.0678782 -39.3911082 L -106.0680016 -39.3913155 L -106.0680874 -39.3915393 L -106.0682161 -39.3917342 L -106.0684093 -39.3918751 L -106.0686238 -39.3918005 L -106.0688330 -39.3917964 L -106.0694339 -39.3917218 L -106.0697343 -39.3917218 L -106.0699885 -39.3917479 L -106.0701151 -39.3917218 L -106.0704713 -39.3917562 L -106.0707589 -39.3916844 L -106.0711344 -39.3914067 L -106.0714959 -39.3914121 L -106.0716440 -39.3913155 L -106.0717781 -39.3913362 L -106.0719659 -39.3912491 L -106.0723221 -39.3912835 L -106.0724562 -39.3912131 L -106.0726525 -39.3911952 L -106.0729958 -39.3910294 L -106.0733574 -39.3908938 L -106.0734808 -39.3907322 L -106.0739421 -39.3902844 L -106.0741889 -39.3901269 L -106.0744657 -39.3901505 L -106.0749163 -39.3902583 L -106.0752703 -39.3903702 L -106.0756963 -39.3903549 L -106.0760106 -39.3904158 L -106.0761684 -39.3903839 L -106.0764344 -39.3904656 L -106.0768743 -39.3905692 L -106.0772412 -39.3906451 L -106.0777755 -39.3907102 L -106.0783731 -39.3908482 L -106.0783924 -39.3909133 L -106.0782444 -39.3910224 L -106.0784729 -39.3910999 L -106.0787304 -39.3911496 L -106.0790362 -39.3912699 L -106.0796102 -39.3914274 L -106.0796102 -39.3915476 L -106.0797250 -39.3915779 L -106.0796230 -39.3917396 L -106.0798730 -39.3918503 L -106.0802807 -39.3920037 L -106.0806133 -39.3920824 L -106.0808547 -39.3921612 L -106.0809588 -39.3922412 L -106.0811176 -39.3923353 L -106.0816808 -39.3925012 L -106.0819651 -39.3925136 L -106.0822119 -39.3925924 L -106.0823267 -39.3926890 L -106.0825627 -39.3927636 L -106.0826464 -39.3928162 L -106.0822119 -39.3931769 L -106.0822924 -39.3932598 L -106.0825466 -39.3932735 L -106.0827859 -39.3932640 L -106.0831045 -39.3932984 L -106.0833996 -39.3933067 L -106.0836249 -39.3932859 L -106.0841592 -39.3933552 L -106.0847139 -39.3936342 L -106.0850336 -39.3937324 L -106.0854005 -39.3938207 L -106.0855378 -39.3939024 L -106.0856237 -39.3940143 L -106.0857608 -39.3940706 L -106.0860383 -39.3940440 L -106.0861055 -39.3941097 L -106.0861786 -39.3941382 L -106.0863962 -39.3940682 L -106.0870721 -39.3942548 L -106.0873296 -39.3942672 L -106.0875739 -39.3943374 L -106.0876284 -39.3944029 L -106.0876730 -39.3944187 L -106.0877572 -39.3944204 L -106.0878096 -39.3944459 L -106.0878282 -39.3944890 L -106.0881128 -39.3944662 L -106.0883885 -39.3944716 L -106.0891771 -39.3946416 L -106.0894281 -39.3947783 L -106.0899764 -39.3948779 L -106.0900284 -39.3948946 L -106.0900595 -39.3949317 L -106.0901240 -39.3949464 L -106.0902746 -39.3949098 L -106.0906715 -39.3949697 L -106.0908211 -39.3949699 L -106.0910110 -39.3949365 L -106.0917698 -39.3950468 L -106.0924350 -39.3949353 L -106.0926747 -39.3948322 L -106.0930855 -39.3947470 L -106.0933323 -39.3948103 L -106.0935931 -39.3947925 L -106.0940190 -39.3948144 L -106.0951799 -39.3949471 L -106.0952282 -39.3949247 L -106.0953376 -39.3949207 L -106.0954213 -39.3949412 L -106.0956559 -39.3949329 L -106.0958360 -39.3949758 L -106.0959448 -39.3949595 L -106.0962869 -39.3950426 L -106.0965153 -39.3950520 L -106.0965592 -39.3950396 L -106.0968243 -39.3951170 L -106.0968609 -39.3950978 L -106.0971814 -39.3951554 L -106.0972655 -39.3951603 L -106.0973107 -39.3951482 L -106.0973850 -39.3951888 L -106.0974148 -39.3951778 L -106.0974556 -39.3952034 L -106.0975299 -39.3952181 L -106.0975973 -39.3951997 L -106.0977816 -39.3952178 L -106.0979949 -39.3952191 L -106.0981238 -39.3953048 L -106.0982053 -39.3952945 L -106.0982741 -39.3953420 L -106.0983194 -39.3953376 L -106.0983472 -39.3953001 L -106.0983753 -39.3952947 L -106.0984165 -39.3953283 L -106.0984860 -39.3953161 L -106.0985121 -39.3953495 L -106.0986049 -39.3954131 L -106.0987411 -39.3954279 L -106.0988856 -39.3953976 L -106.0989406 -39.3954200 L -106.0990710 -39.3954015 L -106.0992224 -39.3954920 L -106.0992783 -39.3954748 L -106.0993610 -39.3954728 L -106.0993833 -39.3954952 L -106.0994261 -39.3954953 L -106.0994434 -39.3954652 L -106.0995361 -39.3954739 L -106.0995819 -39.3955095 L -106.0996608 -39.3954756 L -106.0997795 -39.3954543 L -106.0998462 -39.3954785 L -106.0998996 -39.3955203 L -106.0999720 -39.3955398 L -106.1000173 -39.3955214 L -106.1001097 -39.3955320 L -106.1002041 -39.3955933 L -106.1002585 -39.3956047 L -106.1002686 -39.3956475 L -106.1003025 -39.3956617 L -106.1003624 -39.3956476 L -106.1004234 -39.3956758 L -106.1004747 -39.3957368 L -106.1005161 -39.3957571 L -106.1006023 -39.3957375 L -106.1006207 -39.3957643 L -106.1006851 -39.3957491 L -106.1007338 -39.3957584 L -106.1007299 -39.3958176 L -106.1007961 -39.3958618 L -106.1008464 -39.3959583 L -106.1009032 -39.3959600 L -106.1009327 -39.3959495 L -106.1009458 -39.3959234 L -106.1009952 -39.3959386 L -106.1010913 -39.3960138 L -106.1012093 -39.3959326 L -106.1012359 -39.3959370 L -106.1012623 -39.3959813 L -106.1014034 -39.3959568 L -106.1014660 -39.3959890 L -106.1014583 -39.3960310 L -106.1015043 -39.3960776 L -106.1015409 -39.3960604 L -106.1015627 -39.3960870 L -106.1017096 -39.3960416 L -106.1018001 -39.3960513 L -106.1018392 -39.3960799 L -106.1018568 -39.3961814 L -106.1018927 -39.3962128 L -106.1020139 -39.3962497 L -106.1021944 -39.3963607 L -106.1030419 -39.3966758 L -106.1036320 -39.3969245 L -106.1039324 -39.3971276 L -106.1045379 -39.3973737 L -106.1046103 -39.3973830 L -106.1046586 -39.3974141 L -106.1050743 -39.3974483 L -106.1051776 -39.3974441 L -106.1054525 -39.3973985 L -106.1056081 -39.3974110 L -106.1062763 -39.3973470 L -106.1063434 -39.3973055 L -106.1064310 -39.3972890" pathLength="1" fill="none" stroke="currentColor" vector-effect="non-scaling-stroke"/>
  <circle class="trace-start" cx="-106.0617888" cy="-39.3855459" r="0.0004851"/>
  <circle class="trace-summit-halo" cx="-106.1064000" cy="-39.3973000" r="0.0012371"/>
  <circle class="trace-summit" cx="-106.1064000" cy="-39.3973000" r="0.0007035"/>
</svg>
