<svg xmlns="http://www.w3.org/2000/svg" viewBox="0 0 1600 900" preserveAspectRatio="xMidYMid slice">
  <path class="trace-line" d="M 690.92 870.06 L 691.84 858.53 L 689.11 843.82 L 678.11 822.43 L 668.59 798.46 L 661.76 785.08 L 658.79 778.18 L 656.72 770.11 L 654.38 745.89 L 656.24 728.23 L 650.56 712.29 L 649.89 699.31 L 651.27 690.21 L 653.09 663.39 L 652.03 641.28 L 652.23 625.21 L 651.96 607.89 L 650.30 596.29 L 648.57 586.50 L 648.61 572.80 L 646.37 562.49 L 647.95 549.73 L 650.71 540.82 L 652.92 524.67 L 657.62 516.74 L 662.73 507.36 L 663.77 499.76 L 663.14 493.77 L 665.20 479.31 L 667.55 454.57 L 668.52 438.43 L 671.76 431.52 L 676.67 404.27 L 681.15 352.67 L 682.12 329.55 L 696.07 308.23 L 718.92 280.36 L 730.31 264.28 L 746.19 233.44 L 763.59 209.91 L 772.08 204.88 L 775.12 198.04 L 783.60 186.45 L 817.50 171.76 L 862.72 143.88 L 871.90 140.22 L 882.80 138.98 L 888.88 136.50 L 922.57 119.94 L 936.59 111.45 L 953.63 99.38 L 949.91 96.76 L 938.73 93.38 L 928.23 91.65 L 914.15 90.96 L 897.30 88.27 L 884.25 82.40 L 878.87 78.05 L 875.56 72.95 L 882.95 63.16 L 882.04 59.09 L 876.87 53.29 L 862.16 44.80 L 855.60 35.35" pathLength="1" fill="none" vector-effect="non-scaling-stroke"/>
  <circle class="trace-start" cx="690.92" cy="870.06" r="4.62"/>
  <circle class="trace-summit-halo" cx="859.58" cy="29.94" r="11.79"/>
  <circle class="trace-summit" cx="859.58" cy="29.94" r="6.67"/>
</svg>
