<svg xmlns="http://www.w3.org/2000/svg" viewBox="0 0 2000 2500" preserveAspectRatio="none">
  <path class="trace-underlay" d="M 975.49 1400.98 L 975.85 1397.51 L 974.78 1393.08 L 970.48 1386.64 L 966.76 1379.42 L 964.09 1375.39 L 962.93 1373.31 L 962.13 1370.88 L 961.21 1363.58 L 961.94 1358.27 L 959.72 1353.47 L 959.45 1349.56 L 959.99 1346.82 L 960.71 1338.74 L 960.29 1332.08 L 960.37 1327.24 L 960.26 1322.02 L 959.61 1318.53 L 958.94 1315.58 L 958.96 1311.46 L 958.08 1308.35 L 958.70 1304.51 L 959.78 1301.83 L 960.64 1296.96 L 962.48 1294.57 L 964.47 1291.75 L 964.88 1289.46 L 964.63 1287.66 L 965.44 1283.30 L 966.36 1275.85 L 966.74 1270.99 L 968.00 1268.91 L 969.92 1260.70 L 971.67 1245.16 L 972.05 1238.20 L 977.50 1231.78 L 986.43 1223.38 L 990.88 1218.54 L 997.09 1209.25 L 1003.88 1202.17 L 1007.20 1200.65 L 1008.39 1198.59 L 1011.70 1195.10 L 1024.95 1190.68 L 1042.62 1182.28 L 1046.21 1181.18 L 1050.47 1180.81 L 1052.84 1180.06 L 1066.01 1175.07 L 1071.49 1172.52 L 1078.15 1168.88 L 1076.69 1168.09 L 1072.32 1167.07 L 1068.22 1166.55 L 1062.72 1166.34 L 1056.13 1165.53 L 1051.04 1163.77 L 1048.93 1162.46 L 1047.64 1160.92 L 1050.53 1157.97 L 1050.17 1156.75 L 1048.15 1155.00 L 1042.40 1152.44 L 1039.84 1149.60" pathLength="1" fill="none" vector-effect="non-scaling-stroke"/>
  <path class="trace-line" d="M 975.49 1400.98 L 975.85 1397.51 L 974.78 1393.08 L 970.48 1386.64 L 966.76 1379.42 L 964.09 1375.39 L 962.93 1373.31 L 962.13 1370.88 L 961.21 1363.58 L 961.94 1358.27 L 959.72 1353.47 L 959.45 1349.56 L 959.99 1346.82 L 960.71 1338.74 L 960.29 1332.08 L 960.37 1327.24 L 960.26 1322.02 L 959.61 1318.53 L 958.94 1315.58 L 958.96 1311.46 L 958.08 1308.35 L 958.70 1304.51 L 959.78 1301.83 L 960.64 1296.96 L 962.48 1294.57 L 964.47 1291.75 L 964.88 1289.46 L 964.63 1287.66 L 965.44 1283.30 L 966.36 1275.85 L 966.74 1270.99 L 968.00 1268.91 L 969.92 1260.70 L 971.67 1245.16 L 972.05 1238.20 L 977.50 1231.78 L 986.43 1223.38 L 990.88 1218.54 L 997.09 1209.25 L 1003.88 1202.17 L 1007.20 1200.65 L 1008.39 1198.59 L 1011.70 1195.10 L 1024.95 1190.68 L 1042.62 1182.28 L 1046.21 1181.18 L 1050.47 1180.81 L 1052.84 1180.06 L 1066.01 1175.07 L 1071.49 1172.52 L 1078.15 1168.88 L 1076.69 1168.09 L 1072.32 1167.07 L 1068.22 1166.55 L 1062.72 1166.34 L 1056.13 1165.53 L 1051.04 1163.77 L 1048.93 1162.46 L 1047.64 1160.92 L 1050.53 1157.97 L 1050.17 1156.75 L 1048.15 1155.00 L 1042.40 1152.44 L 1039.84 1149.60" pathLength="1" fill="none" vector-effect="non-scaling-stroke"/>
</svg>
