<svg xmlns="http://www.w3.org/2000/svg" viewBox="0 0 2000 2500" preserveAspectRatio="xMidYMid slice">
  <path class="trace-line" d="M 819.75 1944.57 L 821.26 1925.50 L 816.75 1901.18 L 798.57 1865.81 L 782.84 1826.17 L 771.55 1804.06 L 766.65 1792.64 L 763.23 1779.30 L 759.35 1739.25 L 762.43 1710.05 L 753.04 1683.70 L 751.93 1662.23 L 754.21 1647.18 L 757.22 1602.83 L 755.47 1566.29 L 755.81 1539.70 L 755.35 1511.07 L 752.61 1491.89 L 749.75 1475.70 L 749.82 1453.06 L 746.11 1435.99 L 748.73 1414.90 L 753.29 1400.17 L 756.95 1373.47 L 764.71 1360.35 L 773.15 1344.84 L 774.87 1332.29 L 773.83 1322.37 L 777.23 1298.47 L 781.13 1257.56 L 782.73 1230.87 L 788.08 1219.45 L 796.20 1174.38 L 803.60 1089.07 L 805.20 1050.84 L 828.25 1015.59 L 866.01 969.50 L 884.84 942.91 L 911.07 891.92 L 939.82 853.02 L 953.86 844.69 L 958.88 833.38 L 972.90 814.23 L 1028.92 789.93 L 1103.64 743.84 L 1118.82 737.78 L 1136.84 735.74 L 1146.87 731.64 L 1202.56 704.25 L 1225.71 690.21 L 1253.89 670.25 L 1247.73 665.92 L 1229.25 660.34 L 1211.90 657.48 L 1188.64 656.33 L 1160.79 651.88 L 1139.23 642.18 L 1130.34 634.99 L 1124.86 626.56 L 1137.07 610.37 L 1135.58 603.63 L 1127.04 594.05 L 1102.73 580.01 L 1091.89 564.39" pathLength="1" fill="none" vector-effect="non-scaling-stroke"/>
  <circle class="trace-start" cx="819.75" cy="1944.57" r="7.63"/>
  <circle class="trace-summit-halo" cx="1098.46" cy="555.43" r="19.49"/>
  <circle class="trace-summit" cx="1098.46" cy="555.43" r="11.02"/>
</svg>
