<svg xmlns="http://www.w3.org/2000/svg" viewBox="-106.2485695 -38.6747923 0.0035815 0.0076002" preserveAspectRatio="xMidYMid meet">
  <path d="M -106.2478382 -38.6678254 L -106.2478293 -38.6679129 L -106.2478558 -38.6680245 L -106.2479627 -38.6681868 L -106.2480551 -38.6683687 L -106.2481215 -38.6684702 L -106.2481503 -38.6685226 L -106.2481704 -38.6685838 L -106.2481932 -38.6687676 L -106.2481751 -38.6689016 L -106.2482303 -38.6690225 L -106.2482368 -38.6691210 L -106.2482234 -38.6691901 L -106.2482057 -38.6693936 L -106.2482160 -38.6695613 L -106.2482140 -38.6696833 L -106.2482167 -38.6698147 L -106.2482328 -38.6699027 L -106.2482496 -38.6699770 L -106.2482492 -38.6700809 L -106.2482710 -38.6701592 L -106.2482556 -38.6702560 L -106.2482288 -38.6703236 L -106.2482073 -38.6704461 L -106.2481617 -38.6705063 L -106.2481121 -38.6705775 L -106.2481020 -38.6706351 L -106.2481081 -38.6706806 L -106.2480881 -38.6707903 L -106.2480652 -38.6709780 L -106.2480558 -38.6711005 L -106.2480243 -38.6711529 L -106.2479766 -38.6713597 L -106.2479331 -38.6717512 L -106.2479237 -38.6719266 L -106.2477882 -38.6720884 L -106.2475663 -38.6722999 L -106.2474556 -38.6724219 L -106.2473014 -38.6726559 L -106.2471324 -38.6728344 L -106.2470499 -38.6728726 L -106.2470204 -38.6729245 L -106.2469380 -38.6730124 L -106.2466087 -38.6731239 L -106.2461695 -38.6733354 L -106.2460803 -38.6733632 L -106.2459744 -38.6733726 L -106.2459154 -38.6733914 L -106.2455881 -38.6735171 L -106.2454520 -38.6735815 L -106.2452864 -38.6736731 L -106.2453226 -38.6736930 L -106.2454312 -38.6737186 L -106.2455332 -38.6737317 L -106.2456699 -38.6737370 L -106.2458336 -38.6737574 L -106.2459603 -38.6738019 L -106.2460126 -38.6738349 L -106.2460448 -38.6738736 L -106.2459730 -38.6739479 L -106.2459818 -38.6739788 L -106.2460320 -38.6740228 L -106.2461749 -38.6740872 L -106.2462386 -38.6741589" pathLength="1" fill="none" stroke="currentColor" vector-effect="non-scaling-stroke"/>
</svg>
