<svg xmlns="http://www.w3.org/2000/svg" viewBox="0 0 2000 2500" preserveAspectRatio="xMidYMid slice">
  <path class="trace-line" d="M 1677.08 817.86 L 1669.70 820.97 L 1661.29 831.42 L 1660.07 836.07 L 1654.02 847.71 L 1652.87 852.36 L 1651.95 858.83 L 1649.15 892.00 L 1650.92 900.62 L 1654.68 906.76 L 1650.14 925.07 L 1642.32 939.16 L 1634.64 963.93 L 1616.01 985.84 L 1608.18 1000.36 L 1604.35 1021.73 L 1598.59 1032.80 L 1558.99 1078.38 L 1552.46 1093.86 L 1544.49 1105.55 L 1516.11 1121.80 L 1497.95 1124.05 L 1485.70 1112.84 L 1482.49 1106.18 L 1473.11 1100.14 L 1468.02 1102.10 L 1430.08 1134.02 L 1412.26 1144.61 L 1409.49 1144.37 L 1400.49 1128.75 L 1391.70 1099.42 L 1390.63 1087.77 L 1384.69 1083.60 L 1381.22 1084.80 L 1356.13 1120.79 L 1349.19 1133.88 L 1322.25 1160.72 L 1316.34 1169.72 L 1308.00 1184.87 L 1300.40 1213.19 L 1291.14 1226.04 L 1282.28 1233.32 L 1264.46 1255.75 L 1215.04 1292.17 L 1209.91 1299.84 L 1199.17 1326.01 L 1192.75 1350.60 L 1186.22 1356.01 L 1174.15 1378.54 L 1158.91 1391.48 L 1144.55 1412.99 L 1136.73 1420.66 L 1132.23 1430.49 L 1116.51 1445.39 L 1098.76 1454.40 L 1076.50 1461.78 L 1065.84 1468.73 L 1054.14 1470.70 L 1043.99 1475.44 L 1014.91 1481.91 L 994.39 1476.69 L 982.29 1476.97 L 974.94 1479.56 L 947.93 1476.06 L 920.14 1478.08 L 899.66 1487.57 L 899.99 1493.32 L 890.58 1498.54 L 886.11 1489.77 L 886.26 1485.94 L 884.60 1476.54 L 880.25 1466.34 L 877.55 1457.37 L 874.97 1454.35 L 867.77 1447.93 L 851.90 1444.91 L 842.38 1441.22 L 837.99 1432.07 L 829.65 1425.50 L 824.59 1426.27 L 818.73 1425.31 L 808.47 1425.74 L 790.01 1432.07 L 757.39 1439.02 L 753.37 1440.70 L 735.88 1450.81 L 727.06 1454.88 L 713.44 1456.56 L 710.71 1458.33 L 704.58 1458.86 L 694.28 1462.98 L 678.53 1466.48 L 672.40 1469.11 L 665.39 1471.46 L 656.94 1472.61 L 647.86 1471.18 L 633.87 1471.46 L 623.76 1473.09 L 616.56 1474.91 L 608.33 1474.53 L 603.35 1476.54 L 583.87 1475.58 L 578.88 1474.00 L 570.66 1472.80 L 560.32 1472.95 L 557.04 1473.62 L 553.61 1474.67 L 535.04 1483.40 L 531.68 1484.45 L 514.08 1493.41 L 497.84 1500.99 L 487.44 1503.76 L 477.40 1511.82 L 460.87 1522.41 L 457.65 1526.86 L 455.77 1530.36 L 449.46 1539.09 L 444.48 1547.81 L 444.33 1553.32 L 439.79 1567.41 L 436.14 1571.96 L 432.52 1579.87 L 417.83 1594.34 L 408.31 1600.77 L 394.36 1613.61 L 389.45 1621.80 L 383.92 1626.36 L 377.20 1628.08 L 365.80 1638.87 L 359.75 1641.93 L 353.18 1642.60 L 347.42 1645.05 L 343.92 1646.01 L 340.59 1649.41 L 335.69 1651.85 L 325.91 1672.32 L 322.92 1679.99" pathLength="1" fill="none" vector-effect="non-scaling-stroke"/>
  <circle class="trace-start" cx="1677.08" cy="817.86" r="6.25"/>
  <circle class="trace-summit-halo" cx="326.27" cy="1682.14" r="15.97"/>
  <circle class="trace-summit" cx="326.27" cy="1682.14" r="9.03"/>
</svg>
