<svg xmlns="http://www.w3.org/2000/svg" viewBox="0 0 1600 900" preserveAspectRatio="xMidYMid slice">
  <path class="trace-line" d="M 1322.44 116.63 L 1316.74 119.04 L 1310.25 127.09 L 1309.31 130.68 L 1304.64 139.67 L 1303.76 143.25 L 1303.05 148.24 L 1300.88 173.83 L 1302.25 180.48 L 1305.15 185.21 L 1301.65 199.34 L 1295.61 210.21 L 1289.69 229.32 L 1275.31 246.22 L 1269.27 257.42 L 1266.31 273.91 L 1261.87 282.45 L 1231.32 317.61 L 1226.28 329.55 L 1220.13 338.57 L 1198.23 351.10 L 1184.22 352.84 L 1174.76 344.19 L 1172.29 339.05 L 1165.05 334.39 L 1161.12 335.91 L 1131.85 360.53 L 1118.10 368.70 L 1115.96 368.52 L 1109.01 356.46 L 1102.24 333.84 L 1101.41 324.85 L 1096.83 321.64 L 1094.15 322.56 L 1074.79 350.33 L 1069.43 360.42 L 1048.65 381.12 L 1044.09 388.07 L 1037.66 399.76 L 1031.79 421.61 L 1024.64 431.51 L 1017.81 437.13 L 1004.05 454.44 L 965.93 482.53 L 961.97 488.45 L 953.68 508.64 L 948.73 527.60 L 943.69 531.78 L 934.38 549.16 L 922.61 559.14 L 911.54 575.74 L 905.50 581.65 L 902.03 589.23 L 889.90 600.73 L 876.20 607.68 L 859.03 613.37 L 850.80 618.74 L 841.77 620.25 L 833.94 623.91 L 811.50 628.90 L 795.67 624.87 L 786.33 625.09 L 780.66 627.09 L 759.82 624.39 L 738.38 625.95 L 722.58 633.27 L 722.83 637.70 L 715.57 641.73 L 712.12 634.97 L 712.24 632.01 L 710.96 624.76 L 707.60 616.89 L 705.52 609.97 L 703.53 607.64 L 697.97 602.69 L 685.73 600.36 L 678.38 597.51 L 674.99 590.45 L 668.56 585.39 L 664.66 585.98 L 660.13 585.24 L 652.21 585.57 L 637.98 590.45 L 612.80 595.81 L 609.70 597.11 L 596.20 604.91 L 589.40 608.05 L 578.89 609.34 L 576.78 610.71 L 572.05 611.12 L 564.11 614.30 L 551.95 617.00 L 547.22 619.03 L 541.81 620.84 L 535.29 621.73 L 528.29 620.62 L 517.50 620.84 L 509.69 622.10 L 504.14 623.51 L 497.79 623.21 L 493.95 624.76 L 478.91 624.02 L 475.07 622.80 L 468.72 621.88 L 460.74 621.99 L 458.21 622.51 L 455.56 623.32 L 441.24 630.05 L 438.65 630.86 L 425.06 637.78 L 412.54 643.62 L 404.51 645.76 L 396.76 651.97 L 384.00 660.14 L 381.53 663.58 L 380.07 666.28 L 375.20 673.01 L 371.36 679.74 L 371.25 683.99 L 367.74 694.86 L 364.92 698.37 L 362.13 704.47 L 350.80 715.64 L 343.45 720.59 L 332.69 730.50 L 328.90 736.82 L 324.63 740.33 L 319.45 741.66 L 310.65 749.98 L 305.98 752.35 L 300.91 752.87 L 296.47 754.75 L 293.76 755.49 L 291.20 758.12 L 287.41 760.00 L 279.87 775.79 L 277.56 781.70" pathLength="1" fill="none" vector-effect="non-scaling-stroke"/>
  <circle class="trace-start" cx="1322.44" cy="116.63" r="4.82"/>
  <circle class="trace-summit-halo" cx="280.15" cy="783.37" r="12.32"/>
  <circle class="trace-summit" cx="280.15" cy="783.37" r="6.97"/>
</svg>
