<svg xmlns="http://www.w3.org/2000/svg" viewBox="0 0 2000 2500" preserveAspectRatio="none">
  <path class="trace-underlay" d="M 1623.24 851.39 L 1617.19 853.36 L 1610.29 859.96 L 1609.29 862.90 L 1604.33 870.26 L 1603.39 873.20 L 1602.63 877.29 L 1600.33 898.25 L 1601.78 903.71 L 1604.87 907.59 L 1601.15 919.16 L 1594.73 928.07 L 1588.43 943.73 L 1573.15 957.57 L 1566.73 966.75 L 1563.58 980.27 L 1558.86 987.26 L 1526.38 1016.08 L 1521.02 1025.86 L 1514.48 1033.25 L 1491.20 1043.52 L 1476.31 1044.95 L 1466.26 1037.86 L 1463.63 1033.65 L 1455.94 1029.83 L 1451.76 1031.07 L 1420.64 1051.25 L 1406.02 1057.95 L 1403.75 1057.79 L 1396.36 1047.92 L 1389.16 1029.38 L 1388.28 1022.01 L 1383.41 1019.38 L 1380.56 1020.14 L 1359.98 1042.89 L 1354.29 1051.16 L 1332.19 1068.12 L 1327.35 1073.82 L 1320.50 1083.39 L 1314.27 1101.30 L 1306.67 1109.42 L 1299.41 1114.02 L 1284.78 1128.20 L 1244.25 1151.23 L 1240.04 1156.07 L 1231.24 1172.62 L 1225.97 1188.16 L 1220.61 1191.58 L 1210.71 1205.82 L 1198.21 1214.00 L 1186.43 1227.60 L 1180.02 1232.45 L 1176.32 1238.66 L 1163.43 1248.08 L 1148.87 1253.78 L 1130.61 1258.44 L 1121.87 1262.84 L 1112.27 1264.08 L 1103.95 1267.08 L 1080.09 1271.17 L 1063.26 1267.87 L 1053.33 1268.05 L 1047.31 1269.68 L 1025.15 1267.47 L 1002.36 1268.75 L 985.56 1274.74 L 985.83 1278.38 L 978.11 1281.68 L 974.45 1276.14 L 974.57 1273.71 L 973.21 1267.78 L 969.63 1261.32 L 967.42 1255.66 L 965.30 1253.75 L 959.40 1249.69 L 946.39 1247.78 L 938.58 1245.45 L 934.97 1239.66 L 928.13 1235.51 L 923.98 1236.00 L 919.17 1235.39 L 910.76 1235.66 L 895.62 1239.66 L 868.86 1244.05 L 865.56 1245.11 L 851.21 1251.51 L 843.98 1254.08 L 832.81 1255.14 L 830.57 1256.26 L 825.54 1256.60 L 817.10 1259.20 L 804.17 1261.41 L 793.40 1264.56 L 786.46 1265.29 L 779.02 1264.38 L 767.54 1264.56 L 759.25 1265.59 L 753.35 1266.75 L 746.60 1266.50 L 742.51 1267.78 L 726.53 1267.17 L 722.44 1266.17 L 715.69 1265.41 L 707.21 1265.50 L 704.52 1265.93 L 701.70 1266.59 L 686.48 1272.11 L 683.72 1272.77 L 655.97 1283.23 L 647.43 1284.98 L 639.20 1290.07 L 625.63 1296.77 L 616.28 1307.31 L 612.19 1312.83 L 612.07 1316.31 L 608.35 1325.22 L 605.35 1328.09 L 602.39 1333.09 L 590.34 1342.24 L 582.53 1346.30 L 571.09 1354.42 L 567.06 1359.60 L 562.52 1362.48 L 557.01 1363.57 L 547.66 1370.39 L 542.69 1372.33 L 537.30 1372.75 L 529.70 1374.90 L 526.98 1377.05 L 522.95 1378.60 L 514.93 1391.53 L 512.48 1396.38" pathLength="1" fill="none" vector-effect="non-scaling-stroke"/>
  <path class="trace-line" d="M 1623.24 851.39 L 1617.19 853.36 L 1610.29 859.96 L 1609.29 862.90 L 1604.33 870.26 L 1603.39 873.20 L 1602.63 877.29 L 1600.33 898.25 L 1601.78 903.71 L 1604.87 907.59 L 1601.15 919.16 L 1594.73 928.07 L 1588.43 943.73 L 1573.15 957.57 L 1566.73 966.75 L 1563.58 980.27 L 1558.86 987.26 L 1526.38 1016.08 L 1521.02 1025.86 L 1514.48 1033.25 L 1491.20 1043.52 L 1476.31 1044.95 L 1466.26 1037.86 L 1463.63 1033.65 L 1455.94 1029.83 L 1451.76 1031.07 L 1420.64 1051.25 L 1406.02 1057.95 L 1403.75 1057.79 L 1396.36 1047.92 L 1389.16 1029.38 L 1388.28 1022.01 L 1383.41 1019.38 L 1380.56 1020.14 L 1359.98 1042.89 L 1354.29 1051.16 L 1332.19 1068.12 L 1327.35 1073.82 L 1320.50 1083.39 L 1314.27 1101.30 L 1306.67 1109.42 L 1299.41 1114.02 L 1284.78 1128.20 L 1244.25 1151.23 L 1240.04 1156.07 L 1231.24 1172.62 L 1225.97 1188.16 L 1220.61 1191.58 L 1210.71 1205.82 L 1198.21 1214.00 L 1186.43 1227.60 L 1180.02 1232.45 L 1176.32 1238.66 L 1163.43 1248.08 L 1148.87 1253.78 L 1130.61 1258.44 L 1121.87 1262.84 L 1112.27 1264.08 L 1103.95 1267.08 L 1080.09 1271.17 L 1063.26 1267.87 L 1053.33 1268.05 L 1047.31 1269.68 L 1025.15 1267.47 L 1002.36 1268.75 L 985.56 1274.74 L 985.83 1278.38 L 978.11 1281.68 L 974.45 1276.14 L 974.57 1273.71 L 973.21 1267.78 L 969.63 1261.32 L 967.42 1255.66 L 965.30 1253.75 L 959.40 1249.69 L 946.39 1247.78 L 938.58 1245.45 L 934.97 1239.66 L 928.13 1235.51 L 923.98 1236.00 L 919.17 1235.39 L 910.76 1235.66 L 895.62 1239.66 L 868.86 1244.05 L 865.56 1245.11 L 851.21 1251.51 L 843.98 1254.08 L 832.81 1255.14 L 830.57 1256.26 L 825.54 1256.60 L 817.10 1259.20 L 804.17 1261.41 L 793.40 1264.56 L 786.46 1265.29 L 779.02 1264.38 L 767.54 1264.56 L 759.25 1265.59 L 753.35 1266.75 L 746.60 1266.50 L 742.51 1267.78 L 726.53 1267.17 L 722.44 1266.17 L 715.69 1265.41 L 707.21 1265.50 L 704.52 1265.93 L 701.70 1266.59 L 686.48 1272.11 L 683.72 1272.77 L 655.97 1283.23 L 647.43 1284.98 L 639.20 1290.07 L 625.63 1296.77 L 616.28 1307.31 L 612.19 1312.83 L 612.07 1316.31 L 608.35 1325.22 L 605.35 1328.09 L 602.39 1333.09 L 590.34 1342.24 L 582.53 1346.30 L 571.09 1354.42 L 567.06 1359.60 L 562.52 1362.48 L 557.01 1363.57 L 547.66 1370.39 L 542.69 1372.33 L 537.30 1372.75 L 529.70 1374.90 L 526.98 1377.05 L 522.95 1378.60 L 514.93 1391.53 L 512.48 1396.38" pathLength="1" fill="none" vector-effect="non-scaling-stroke"/>
</svg>
