<svg xmlns="http://www.w3.org/2000/svg" viewBox="-105.8248604 -39.6626374 0.0440328 0.0216408" preserveAspectRatio="xMidYMid meet">
  <path class="trace-line" d="M -105.7844970 -39.6608340 L -105.7846970 -39.6607690 L -105.7849250 -39.6605510 L -105.7849580 -39.6604540 L -105.7851220 -39.6602110 L -105.7851530 -39.6601140 L -105.7851780 -39.6599790 L -105.7852540 -39.6592870 L -105.7852060 -39.6591070 L -105.7851040 -39.6589790 L -105.7852270 -39.6585970 L -105.7854390 -39.6583030 L -105.7856470 -39.6577860 L -105.7861520 -39.6573290 L -105.7863640 -39.6570260 L -105.7864680 -39.6565800 L -105.7866240 -39.6563490 L -105.7876970 -39.6553980 L -105.7878740 -39.6550750 L -105.7880900 -39.6548310 L -105.7888590 -39.6544920 L -105.7893510 -39.6544450 L -105.7896830 -39.6546790 L -105.7897700 -39.6548180 L -105.7900240 -39.6549440 L -105.7901620 -39.6549030 L -105.7911900 -39.6542370 L -105.7916730 -39.6540160 L -105.7917480 -39.6540210 L -105.7919920 -39.6543470 L -105.7922300 -39.6549590 L -105.7922590 -39.6552020 L -105.7924200 -39.6552890 L -105.7925140 -39.6552640 L -105.7931940 -39.6545130 L -105.7933820 -39.6542400 L -105.7941120 -39.6536800 L -105.7942720 -39.6534920 L -105.7944980 -39.6531760 L -105.7947040 -39.6525850 L -105.7949550 -39.6523170 L -105.7951950 -39.6521650 L -105.7956780 -39.6516970 L -105.7970170 -39.6509370 L -105.7971560 -39.6507770 L -105.7974470 -39.6502310 L -105.7976210 -39.6497180 L -105.7977980 -39.6496050 L -105.7981250 -39.6491350 L -105.7985380 -39.6488650 L -105.7989270 -39.6484160 L -105.7991390 -39.6482560 L -105.7992610 -39.6480510 L -105.7996870 -39.6477400 L -105.8001680 -39.6475520 L -105.8007710 -39.6473980 L -105.8010600 -39.6472530 L -105.8013770 -39.6472120 L -105.8016520 -39.6471130 L -105.8024400 -39.6469780 L -105.8029960 -39.6470870 L -105.8033240 -39.6470810 L -105.8035230 -39.6470270 L -105.8042550 -39.6471000 L -105.8050080 -39.6470580 L -105.8055630 -39.6468600 L -105.8055540 -39.6467400 L -105.8058090 -39.6466310 L -105.8059300 -39.6468140 L -105.8059260 -39.6468940 L -105.8059710 -39.6470900 L -105.8060890 -39.6473030 L -105.8061620 -39.6474900 L -105.8062320 -39.6475530 L -105.8064270 -39.6476870 L -105.8068570 -39.6477500 L -105.8071150 -39.6478270 L -105.8072340 -39.6480180 L -105.8074600 -39.6481550 L -105.8075970 -39.6481390 L -105.8077560 -39.6481590 L -105.8080340 -39.6481500 L -105.8085340 -39.6480180 L -105.8094180 -39.6478730 L -105.8095270 -39.6478380 L -105.8100010 -39.6476270 L -105.8102400 -39.6475420 L -105.8106090 -39.6475070 L -105.8106830 -39.6474700 L -105.8108490 -39.6474590 L -105.8111280 -39.6473730 L -105.8115550 -39.6473000 L -105.8119110 -39.6471960 L -105.8121400 -39.6471720 L -105.8123860 -39.6472020 L -105.8127650 -39.6471960 L -105.8130390 -39.6471620 L -105.8132340 -39.6471240 L -105.8134570 -39.6471320 L -105.8135920 -39.6470900 L -105.8141200 -39.6471100 L -105.8142550 -39.6471430 L -105.8144780 -39.6471680 L -105.8147580 -39.6471650 L -105.8148470 -39.6471510 L -105.8149400 -39.6471290 L -105.8154430 -39.6469470 L -105.8155340 -39.6469250 L -105.8164510 -39.6465800 L -105.8167330 -39.6465220 L -105.8170050 -39.6463540 L -105.8174530 -39.6461330 L -105.8177620 -39.6457850 L -105.8178970 -39.6456030 L -105.8179010 -39.6454880 L -105.8180240 -39.6451940 L -105.8181230 -39.6450990 L -105.8182210 -39.6449340 L -105.8186190 -39.6446320 L -105.8188770 -39.6444980 L -105.8192550 -39.6442300 L -105.8193880 -39.6440590 L -105.8195380 -39.6439640 L -105.8197200 -39.6439280 L -105.8200290 -39.6437030 L -105.8201930 -39.6436390 L -105.8203710 -39.6436250 L -105.8206220 -39.6435540 L -105.8207120 -39.6434830 L -105.8208450 -39.6434320 L -105.8211100 -39.6430050 L -105.8211910 -39.6428450" pathLength="1" fill="none" stroke="currentColor" vector-effect="non-scaling-stroke"/>
  <circle class="trace-start" cx="-105.7844970" cy="-39.6608340" r="0.0003963"/>
  <circle class="trace-summit-halo" cx="-105.8211000" cy="-39.6428000" r="0.0010106"/>
  <circle class="trace-summit" cx="-105.8211000" cy="-39.6428000" r="0.0005746"/>
</svg>
