<svg xmlns="http://www.w3.org/2000/svg" viewBox="0 0 2000 2500" preserveAspectRatio="xMidYMid slice">
  <path class="trace-line" d="M 324.80 904.05 L 322.92 905.94 L 324.44 908.81 L 326.89 911.14 L 324.44 917.47 L 326.27 919.15 L 327.81 921.38 L 329.53 934.23 L 332.49 944.16 L 335.30 944.02 L 338.65 944.63 L 342.21 943.50 L 349.32 942.98 L 351.54 941.14 L 353.90 941.33 L 355.20 943.07 L 358.83 943.15 L 363.54 946.58 L 369.17 946.49 L 374.39 949.97 L 377.79 950.95 L 381.90 951.03 L 384.60 952.73 L 391.58 954.54 L 396.44 957.43 L 398.71 957.78 L 405.51 956.81 L 409.30 954.36 L 414.55 953.82 L 417.53 952.62 L 420.74 950.02 L 434.31 951.11 L 450.05 949.74 L 453.98 950.86 L 457.82 953.62 L 461.14 954.20 L 464.68 955.95 L 465.59 958.62 L 468.90 962.27 L 476.51 965.17 L 483.36 972.73 L 488.56 976.04 L 489.23 978.65 L 491.12 981.76 L 495.38 982.39 L 515.25 992.97 L 519.25 996.24 L 525.36 998.89 L 528.95 999.67 L 542.59 1006.52 L 548.16 1006.69 L 552.88 1008.99 L 558.44 1010.70 L 572.72 1012.96 L 588.41 1014.36 L 592.78 1013.37 L 597.03 1010.85 L 602.26 1009.17 L 605.02 1009.14 L 608.20 1007.91 L 617.23 1006.75 L 626.60 1003.84 L 629.42 1003.79 L 631.02 1002.97 L 635.99 1002.23 L 641.01 1000.02 L 644.37 1000.40 L 652.23 998.56 L 662.18 997.59 L 670.89 998.95 L 679.79 1001.61 L 682.30 1004.07 L 685.23 1005.52 L 689.80 1006.87 L 698.90 1007.61 L 703.12 1006.32 L 713.27 1007.66 L 727.15 1006.03 L 736.42 1005.68 L 739.68 1004.22 L 740.96 1000.69 L 741.69 1000.54 L 747.97 1002.12 L 755.59 1009.52 L 764.07 1012.57 L 779.34 1026.38 L 796.23 1036.67 L 800.75 1044.12 L 802.24 1048.81 L 804.65 1050.93 L 805.20 1054.99 L 809.29 1059.99 L 814.18 1068.18 L 820.60 1069.19 L 824.75 1073.67 L 827.21 1074.89 L 825.65 1077.68 L 824.62 1081.67 L 824.28 1088.89 L 830.66 1085.54 L 836.48 1090.83 L 842.71 1087.43 L 849.52 1085.26 L 848.26 1095.63 L 853.48 1092.53 L 856.27 1089.83 L 858.82 1089.17 L 859.29 1094.51 L 857.65 1100.78 L 858.02 1103.49 L 858.80 1104.63 L 862.28 1104.30 L 867.49 1103.02 L 870.61 1103.14 L 876.24 1108.27 L 878.33 1114.99 L 886.62 1121.80 L 894.60 1123.64 L 897.65 1126.29 L 906.19 1128.80 L 927.85 1113.40 L 931.25 1113.47 L 959.48 1101.28 L 961.70 1103.84 L 963.31 1128.80 L 964.59 1128.87 L 978.64 1117.30 L 980.29 1117.63 L 981.58 1124.82 L 991.03 1120.60 L 991.61 1124.51 L 988.27 1138.11 L 988.40 1141.37 L 990.35 1144.87 L 990.77 1147.64 L 993.80 1150.48 L 1006.88 1144.15 L 1017.96 1141.95 L 1017.28 1150.90 L 1024.01 1145.58 L 1028.77 1142.82 L 1039.02 1141.27 L 1037.84 1146.01 L 1038.18 1148.91 L 1037.00 1153.66 L 1037.30 1155.78 L 1032.57 1167.35 L 1034.14 1168.37 L 1036.47 1168.17 L 1037.88 1167.17 L 1041.70 1167.24 L 1046.69 1163.14 L 1049.53 1162.77 L 1057.26 1163.78 L 1067.14 1159.46 L 1072.91 1151.52 L 1081.68 1151.32 L 1084.75 1152.99 L 1087.46 1152.90 L 1089.09 1150.75 L 1092.59 1153.53 L 1104.42 1145.52 L 1107.51 1150.23 L 1111.13 1153.12 L 1111.68 1150.70 L 1111.50 1147.66 L 1112.68 1145.59 L 1115.13 1143.33 L 1124.11 1126.47 L 1137.44 1105.74 L 1138.24 1102.21 L 1140.30 1101.28 L 1142.05 1095.01 L 1150.08 1087.93 L 1153.54 1080.37 L 1159.12 1078.28 L 1164.91 1083.87 L 1169.10 1090.38 L 1176.86 1095.48 L 1180.80 1099.29 L 1183.40 1104.00 L 1191.87 1109.99 L 1192.10 1133.21 L 1191.72 1137.23 L 1194.48 1141.73 L 1197.47 1143.55 L 1200.27 1145.90 L 1201.28 1150.69 L 1201.26 1155.04 L 1205.11 1162.94 L 1212.19 1170.98 L 1214.84 1175.74 L 1216.54 1176.97 L 1221.94 1176.33 L 1227.42 1177.52 L 1231.57 1177.90 L 1241.12 1169.19 L 1254.90 1163.55 L 1265.93 1155.39 L 1275.84 1154.58 L 1281.06 1159.81 L 1283.99 1166.17 L 1286.15 1178.97 L 1282.11 1208.93 L 1285.95 1218.62 L 1287.40 1237.31 L 1286.29 1240.63 L 1287.43 1245.95 L 1291.51 1252.82 L 1291.01 1261.58 L 1294.43 1264.41 L 1294.30 1271.05 L 1296.43 1279.06 L 1296.74 1291.14 L 1301.78 1306.81 L 1302.43 1318.03 L 1309.68 1327.08 L 1312.10 1332.69 L 1320.43 1337.83 L 1321.48 1345.85 L 1331.58 1353.86 L 1338.90 1370.23 L 1343.43 1373.02 L 1344.13 1382.08 L 1355.09 1401.25 L 1357.69 1401.41 L 1360.21 1400.19 L 1362.20 1402.94 L 1366.54 1402.75 L 1366.78 1411.22 L 1363.64 1430.16 L 1368.17 1433.64 L 1381.08 1434.68 L 1381.05 1438.34 L 1380.01 1442.00 L 1376.18 1447.23 L 1378.28 1451.93 L 1382.02 1455.22 L 1382.36 1459.33 L 1380.36 1467.44 L 1379.35 1474.24 L 1374.00 1482.79 L 1373.74 1492.52 L 1365.03 1508.90 L 1361.20 1524.23 L 1365.38 1528.76 L 1369.56 1528.06 L 1376.88 1531.20 L 1380.71 1538.86 L 1384.77 1545.62 L 1393.95 1553.85 L 1405.98 1563.58 L 1419.50 1569.66 L 1450.74 1574.75 L 1457.09 1576.77 L 1462.10 1581.53 L 1472.34 1586.59 L 1479.35 1592.12 L 1486.98 1594.01 L 1498.24 1590.72 L 1514.85 1589.03 L 1526.52 1595.95 L 1533.91 1595.88 L 1542.03 1592.52 L 1546.90 1585.20 L 1560.49 1574.40 L 1564.67 1575.10 L 1575.13 1569.87 L 1575.13 1565.34 L 1571.99 1560.81 L 1580.35 1546.88 L 1586.97 1543.39 L 1591.15 1536.07 L 1604.74 1529.80 L 1616.94 1531.89 L 1632.96 1509.25 L 1657.70 1499.49 L 1671.42 1489.69" pathLength="1" fill="none" vector-effect="non-scaling-stroke"/>
  <circle class="trace-start" cx="324.80" cy="904.05" r="6.25"/>
  <circle class="trace-summit-halo" cx="1677.08" cy="1494.88" r="15.97"/>
  <circle class="trace-summit" cx="1677.08" cy="1494.88" r="9.03"/>
</svg>
