<svg xmlns="http://www.w3.org/2000/svg" viewBox="0 0 1600 900" preserveAspectRatio="xMidYMid slice">
  <path class="trace-line" d="M 208.94 147.06 L 207.29 148.71 L 208.63 151.23 L 210.77 153.27 L 208.63 158.81 L 210.23 160.28 L 211.58 162.23 L 213.09 173.49 L 215.68 182.18 L 218.13 182.06 L 221.07 182.59 L 224.18 181.61 L 230.40 181.15 L 232.35 179.54 L 234.41 179.70 L 235.56 181.22 L 238.73 181.30 L 242.85 184.30 L 247.78 184.22 L 252.35 187.27 L 255.33 188.13 L 258.93 188.20 L 261.29 189.69 L 267.40 191.27 L 271.65 193.80 L 273.64 194.11 L 279.60 193.26 L 282.91 191.12 L 287.51 190.64 L 290.12 189.59 L 292.92 187.32 L 304.81 188.27 L 318.58 187.07 L 322.02 188.05 L 325.38 190.47 L 328.29 190.98 L 331.39 192.50 L 332.19 194.84 L 335.08 198.05 L 341.75 200.58 L 347.74 207.20 L 352.29 210.10 L 352.88 212.38 L 354.54 215.11 L 358.27 215.66 L 375.66 224.92 L 379.16 227.79 L 384.51 230.11 L 387.65 230.80 L 399.59 236.79 L 404.47 236.94 L 408.60 238.95 L 413.47 240.45 L 425.97 242.43 L 439.70 243.66 L 443.52 242.79 L 447.25 240.59 L 451.83 239.11 L 454.24 239.09 L 457.03 238.01 L 464.93 236.99 L 473.14 234.44 L 475.60 234.40 L 477.00 233.69 L 481.36 233.04 L 485.75 231.10 L 488.69 231.44 L 495.57 229.82 L 504.28 228.97 L 511.90 230.16 L 519.69 232.49 L 521.89 234.65 L 524.46 235.91 L 528.46 237.10 L 536.42 237.74 L 540.12 236.62 L 549.00 237.79 L 561.15 236.36 L 569.27 236.05 L 572.12 234.78 L 573.24 231.69 L 573.88 231.55 L 579.38 232.94 L 586.05 239.42 L 593.47 242.09 L 606.84 254.18 L 621.62 263.20 L 625.58 269.72 L 626.89 273.82 L 628.99 275.68 L 629.47 279.24 L 633.06 283.62 L 637.34 290.79 L 642.96 291.67 L 646.59 295.59 L 648.74 296.66 L 647.38 299.11 L 646.48 302.60 L 646.18 308.92 L 651.77 305.99 L 656.86 310.62 L 662.31 307.64 L 668.27 305.74 L 667.17 314.82 L 671.74 312.11 L 674.18 309.74 L 676.41 309.16 L 676.83 313.84 L 675.39 319.33 L 675.71 321.71 L 676.40 322.70 L 679.44 322.42 L 684.00 321.29 L 686.74 321.40 L 691.66 325.89 L 693.49 331.78 L 700.75 337.74 L 707.74 339.35 L 710.40 341.67 L 717.88 343.87 L 736.84 330.38 L 739.82 330.45 L 764.53 319.77 L 766.47 322.01 L 767.88 343.87 L 769.00 343.93 L 781.30 333.80 L 782.74 334.09 L 783.87 340.38 L 792.15 336.69 L 792.66 340.11 L 789.74 352.02 L 789.84 354.88 L 791.55 357.94 L 791.92 360.36 L 794.57 362.85 L 806.02 357.31 L 815.72 355.38 L 815.13 363.22 L 821.02 358.57 L 825.18 356.14 L 834.16 354.78 L 833.13 358.94 L 833.42 361.48 L 832.39 365.64 L 832.65 367.49 L 828.51 377.63 L 829.89 378.52 L 831.93 378.34 L 833.16 377.47 L 836.51 377.53 L 840.87 373.94 L 843.36 373.61 L 850.13 374.50 L 858.77 370.71 L 863.82 363.76 L 871.50 363.59 L 874.19 365.05 L 876.56 364.97 L 877.98 363.09 L 881.05 365.52 L 891.40 358.51 L 894.11 362.63 L 897.28 365.16 L 897.76 363.05 L 897.60 360.38 L 898.63 358.57 L 900.78 356.59 L 908.64 341.83 L 920.31 323.68 L 921.01 320.59 L 922.82 319.77 L 924.34 314.28 L 931.38 308.08 L 934.41 301.46 L 939.29 299.63 L 944.36 304.53 L 948.02 310.22 L 954.82 314.69 L 958.27 318.03 L 960.55 322.15 L 967.96 327.39 L 968.16 347.73 L 967.83 351.25 L 970.24 355.19 L 972.86 356.78 L 975.31 358.85 L 976.20 363.03 L 976.18 366.84 L 979.55 373.76 L 985.75 380.81 L 988.07 384.97 L 989.56 386.05 L 994.28 385.49 L 999.07 386.53 L 1002.71 386.87 L 1011.07 379.24 L 1023.13 374.30 L 1032.79 367.15 L 1041.46 366.44 L 1046.04 371.02 L 1048.60 376.59 L 1050.49 387.80 L 1046.95 414.03 L 1050.31 422.52 L 1051.58 438.88 L 1050.61 441.80 L 1051.61 446.46 L 1055.19 452.47 L 1054.75 460.14 L 1057.74 462.62 L 1057.62 468.43 L 1059.49 475.45 L 1059.76 486.03 L 1064.17 499.74 L 1064.74 509.57 L 1071.09 517.50 L 1073.21 522.41 L 1080.50 526.91 L 1081.42 533.93 L 1090.26 540.94 L 1096.67 555.28 L 1100.63 557.72 L 1101.24 565.66 L 1110.84 582.45 L 1113.12 582.59 L 1115.32 581.52 L 1117.06 583.93 L 1120.86 583.76 L 1121.08 591.18 L 1118.32 607.76 L 1122.29 610.81 L 1133.59 611.72 L 1133.56 614.93 L 1132.66 618.13 L 1129.30 622.71 L 1131.14 626.83 L 1134.42 629.70 L 1134.71 633.30 L 1132.96 640.40 L 1132.07 646.36 L 1127.39 653.85 L 1127.16 662.37 L 1119.54 676.71 L 1116.19 690.14 L 1119.85 694.10 L 1123.51 693.49 L 1129.91 696.24 L 1133.27 702.95 L 1136.82 708.87 L 1144.86 716.07 L 1155.39 724.59 L 1167.22 729.92 L 1194.57 734.38 L 1200.13 736.15 L 1204.51 740.31 L 1213.48 744.75 L 1219.61 749.59 L 1226.29 751.25 L 1236.15 748.36 L 1250.69 746.88 L 1260.91 752.94 L 1267.37 752.88 L 1274.48 749.94 L 1278.75 743.53 L 1290.64 734.07 L 1294.30 734.68 L 1303.45 730.10 L 1303.45 726.14 L 1300.71 722.17 L 1308.03 709.97 L 1313.82 706.92 L 1317.48 700.51 L 1329.38 695.02 L 1340.05 696.85 L 1354.08 677.01 L 1375.74 668.47 L 1387.75 659.89" pathLength="1" fill="none" vector-effect="non-scaling-stroke"/>
  <circle class="trace-start" cx="208.94" cy="147.06" r="5.47"/>
  <circle class="trace-summit-halo" cx="1392.71" cy="664.44" r="13.98"/>
  <circle class="trace-summit" cx="1392.71" cy="664.44" r="7.90"/>
</svg>
