<svg xmlns="http://www.w3.org/2000/svg" viewBox="0 0 2000 2500" preserveAspectRatio="none">
  <path class="trace-underlay" d="M 382.97 793.90 L 381.41 795.11 L 382.67 796.93 L 384.69 798.41 L 382.67 802.43 L 385.44 804.91 L 386.86 813.07 L 389.30 819.37 L 391.62 819.28 L 394.38 819.67 L 397.31 818.95 L 403.16 818.62 L 405.00 817.46 L 406.94 817.57 L 408.01 818.68 L 411.00 818.73 L 414.88 820.91 L 419.52 820.85 L 423.82 823.06 L 426.62 823.68 L 430.01 823.73 L 432.23 824.81 L 437.98 825.96 L 441.98 827.80 L 443.86 828.02 L 449.46 827.40 L 452.58 825.85 L 456.91 825.50 L 459.36 824.74 L 462.01 823.09 L 473.19 823.78 L 486.15 822.92 L 489.39 823.62 L 492.55 825.38 L 495.29 825.75 L 498.21 826.85 L 498.96 828.55 L 501.68 830.87 L 507.95 832.71 L 513.60 837.51 L 517.88 839.61 L 518.43 841.26 L 519.99 843.24 L 523.50 843.64 L 539.88 850.36 L 543.16 852.44 L 548.20 854.12 L 551.16 854.62 L 562.39 858.96 L 566.99 859.07 L 570.88 860.53 L 575.45 861.61 L 587.22 863.05 L 600.15 863.94 L 603.74 863.31 L 607.25 861.71 L 611.56 860.64 L 613.83 860.63 L 616.45 859.84 L 623.89 859.10 L 631.61 857.26 L 633.93 857.23 L 635.25 856.71 L 639.35 856.24 L 643.48 854.83 L 646.25 855.08 L 652.72 853.91 L 660.92 853.29 L 668.10 854.16 L 675.43 855.85 L 677.50 857.41 L 683.68 859.18 L 691.17 859.65 L 694.65 858.84 L 703.01 859.68 L 714.44 858.65 L 722.08 858.43 L 724.77 857.50 L 725.83 855.26 L 726.43 855.16 L 731.60 856.17 L 737.88 860.86 L 744.87 862.80 L 757.45 871.57 L 771.36 878.11 L 775.08 882.83 L 776.31 885.81 L 778.30 887.15 L 778.75 889.73 L 782.12 892.91 L 786.15 898.11 L 791.44 898.75 L 794.86 901.59 L 796.88 902.37 L 795.60 904.14 L 794.75 906.67 L 794.47 911.25 L 799.73 909.13 L 804.53 912.48 L 809.65 910.33 L 815.26 908.95 L 814.23 915.53 L 818.52 913.57 L 820.83 911.85 L 822.92 911.43 L 823.32 914.82 L 821.97 918.80 L 822.26 920.52 L 822.91 921.25 L 830.07 920.22 L 832.64 920.30 L 837.28 923.56 L 839.00 927.83 L 845.83 932.15 L 852.41 933.32 L 854.92 935.00 L 861.95 936.59 L 879.79 926.81 L 882.60 926.86 L 905.85 919.12 L 907.69 920.74 L 909.01 936.59 L 910.06 936.64 L 921.64 929.29 L 923.00 929.50 L 924.06 934.06 L 931.85 931.38 L 932.33 933.87 L 929.58 942.50 L 929.68 944.57 L 931.29 946.80 L 931.63 948.55 L 934.13 950.35 L 944.91 946.34 L 954.03 944.94 L 953.47 950.62 L 959.02 947.25 L 962.94 945.49 L 971.39 944.51 L 970.42 947.52 L 970.69 949.36 L 969.72 952.38 L 969.97 953.72 L 966.07 961.07 L 967.37 961.71 L 969.29 961.58 L 970.45 960.95 L 973.60 960.99 L 977.71 958.39 L 980.04 958.16 L 986.41 958.80 L 994.55 956.05 L 999.31 951.01 L 1006.53 950.89 L 1009.07 951.95 L 1011.30 951.89 L 1012.63 950.52 L 1015.52 952.29 L 1025.27 947.21 L 1027.82 950.20 L 1030.80 952.03 L 1031.25 950.49 L 1031.10 948.57 L 1032.07 947.25 L 1034.09 945.81 L 1041.49 935.11 L 1052.47 921.95 L 1053.13 919.71 L 1054.83 919.12 L 1056.27 915.14 L 1062.89 910.65 L 1065.74 905.85 L 1070.33 904.52 L 1075.11 908.07 L 1078.55 912.20 L 1084.95 915.44 L 1088.20 917.86 L 1090.34 920.84 L 1097.31 924.65 L 1097.50 939.39 L 1097.19 941.94 L 1099.46 944.80 L 1104.23 947.45 L 1105.07 950.49 L 1105.05 953.25 L 1108.22 958.27 L 1114.06 963.37 L 1116.24 966.39 L 1117.64 967.17 L 1122.09 966.77 L 1130.02 967.77 L 1137.89 962.24 L 1149.24 958.65 L 1158.33 953.47 L 1166.49 952.96 L 1170.80 956.28 L 1173.21 960.32 L 1174.99 968.44 L 1171.66 987.46 L 1174.82 993.62 L 1176.02 1005.48 L 1175.10 1007.59 L 1176.04 1010.97 L 1179.41 1015.33 L 1178.99 1020.89 L 1181.81 1022.68 L 1181.70 1026.90 L 1183.46 1031.99 L 1183.72 1039.66 L 1187.86 1049.60 L 1188.40 1056.72 L 1194.37 1062.47 L 1196.37 1066.04 L 1203.23 1069.30 L 1204.09 1074.39 L 1212.42 1079.47 L 1218.45 1089.87 L 1222.18 1091.64 L 1222.75 1097.39 L 1231.79 1109.56 L 1233.93 1109.66 L 1236.00 1108.89 L 1237.64 1110.63 L 1241.22 1110.51 L 1241.42 1115.89 L 1238.83 1127.91 L 1242.56 1130.12 L 1253.20 1130.78 L 1253.17 1133.11 L 1252.32 1135.43 L 1249.16 1138.75 L 1250.89 1141.74 L 1253.98 1143.82 L 1254.25 1146.43 L 1252.61 1151.58 L 1251.77 1155.90 L 1247.36 1161.32 L 1247.15 1167.50 L 1239.98 1177.90 L 1236.82 1187.63 L 1240.26 1190.51 L 1243.71 1190.07 L 1249.74 1192.06 L 1252.89 1196.92 L 1256.24 1201.22 L 1263.80 1206.44 L 1273.72 1212.62 L 1284.85 1216.48 L 1310.59 1219.71 L 1315.82 1220.99 L 1319.95 1224.01 L 1328.39 1227.23 L 1334.16 1230.74 L 1340.44 1231.94 L 1349.72 1229.84 L 1363.41 1228.78 L 1373.02 1233.17 L 1379.11 1233.12 L 1385.80 1230.99 L 1389.82 1226.34 L 1401.01 1219.49 L 1404.45 1219.93 L 1413.07 1216.61 L 1413.07 1213.73 L 1410.48 1210.86 L 1417.37 1202.01 L 1422.83 1199.80 L 1426.27 1195.15 L 1437.47 1191.17 L 1447.51 1192.50 L 1460.72 1178.12 L 1481.09 1171.93 L 1492.40 1165.71" pathLength="1" fill="none" vector-effect="non-scaling-stroke"/>
  <path class="trace-line" d="M 382.97 793.90 L 381.41 795.11 L 382.67 796.93 L 384.69 798.41 L 382.67 802.43 L 385.44 804.91 L 386.86 813.07 L 389.30 819.37 L 391.62 819.28 L 394.38 819.67 L 397.31 818.95 L 403.16 818.62 L 405.00 817.46 L 406.94 817.57 L 408.01 818.68 L 411.00 818.73 L 414.88 820.91 L 419.52 820.85 L 423.82 823.06 L 426.62 823.68 L 430.01 823.73 L 432.23 824.81 L 437.98 825.96 L 441.98 827.80 L 443.86 828.02 L 449.46 827.40 L 452.58 825.85 L 456.91 825.50 L 459.36 824.74 L 462.01 823.09 L 473.19 823.78 L 486.15 822.92 L 489.39 823.62 L 492.55 825.38 L 495.29 825.75 L 498.21 826.85 L 498.96 828.55 L 501.68 830.87 L 507.95 832.71 L 513.60 837.51 L 517.88 839.61 L 518.43 841.26 L 519.99 843.24 L 523.50 843.64 L 539.88 850.36 L 543.16 852.44 L 548.20 854.12 L 551.16 854.62 L 562.39 858.96 L 566.99 859.07 L 570.88 860.53 L 575.45 861.61 L 587.22 863.05 L 600.15 863.94 L 603.74 863.31 L 607.25 861.71 L 611.56 860.64 L 613.83 860.63 L 616.45 859.84 L 623.89 859.10 L 631.61 857.26 L 633.93 857.23 L 635.25 856.71 L 639.35 856.24 L 643.48 854.83 L 646.25 855.08 L 652.72 853.91 L 660.92 853.29 L 668.10 854.16 L 675.43 855.85 L 677.50 857.41 L 683.68 859.18 L 691.17 859.65 L 694.65 858.84 L 703.01 859.68 L 714.44 858.65 L 722.08 858.43 L 724.77 857.50 L 725.83 855.26 L 726.43 855.16 L 731.60 856.17 L 737.88 860.86 L 744.87 862.80 L 757.45 871.57 L 771.36 878.11 L 775.08 882.83 L 776.31 885.81 L 778.30 887.15 L 778.75 889.73 L 782.12 892.91 L 786.15 898.11 L 791.44 898.75 L 794.86 901.59 L 796.88 902.37 L 795.60 904.14 L 794.75 906.67 L 794.47 911.25 L 799.73 909.13 L 804.53 912.48 L 809.65 910.33 L 815.26 908.95 L 814.23 915.53 L 818.52 913.57 L 820.83 911.85 L 822.92 911.43 L 823.32 914.82 L 821.97 918.80 L 822.26 920.52 L 822.91 921.25 L 830.07 920.22 L 832.64 920.30 L 837.28 923.56 L 839.00 927.83 L 845.83 932.15 L 852.41 933.32 L 854.92 935.00 L 861.95 936.59 L 879.79 926.81 L 882.60 926.86 L 905.85 919.12 L 907.69 920.74 L 909.01 936.59 L 910.06 936.64 L 921.64 929.29 L 923.00 929.50 L 924.06 934.06 L 931.85 931.38 L 932.33 933.87 L 929.58 942.50 L 929.68 944.57 L 931.29 946.80 L 931.63 948.55 L 934.13 950.35 L 944.91 946.34 L 954.03 944.94 L 953.47 950.62 L 959.02 947.25 L 962.94 945.49 L 971.39 944.51 L 970.42 947.52 L 970.69 949.36 L 969.72 952.38 L 969.97 953.72 L 966.07 961.07 L 967.37 961.71 L 969.29 961.58 L 970.45 960.95 L 973.60 960.99 L 977.71 958.39 L 980.04 958.16 L 986.41 958.80 L 994.55 956.05 L 999.31 951.01 L 1006.53 950.89 L 1009.07 951.95 L 1011.30 951.89 L 1012.63 950.52 L 1015.52 952.29 L 1025.27 947.21 L 1027.82 950.20 L 1030.80 952.03 L 1031.25 950.49 L 1031.10 948.57 L 1032.07 947.25 L 1034.09 945.81 L 1041.49 935.11 L 1052.47 921.95 L 1053.13 919.71 L 1054.83 919.12 L 1056.27 915.14 L 1062.89 910.65 L 1065.74 905.85 L 1070.33 904.52 L 1075.11 908.07 L 1078.55 912.20 L 1084.95 915.44 L 1088.20 917.86 L 1090.34 920.84 L 1097.31 924.65 L 1097.50 939.39 L 1097.19 941.94 L 1099.46 944.80 L 1104.23 947.45 L 1105.07 950.49 L 1105.05 953.25 L 1108.22 958.27 L 1114.06 963.37 L 1116.24 966.39 L 1117.64 967.17 L 1122.09 966.77 L 1130.02 967.77 L 1137.89 962.24 L 1149.24 958.65 L 1158.33 953.47 L 1166.49 952.96 L 1170.80 956.28 L 1173.21 960.32 L 1174.99 968.44 L 1171.66 987.46 L 1174.82 993.62 L 1176.02 1005.48 L 1175.10 1007.59 L 1176.04 1010.97 L 1179.41 1015.33 L 1178.99 1020.89 L 1181.81 1022.68 L 1181.70 1026.90 L 1183.46 1031.99 L 1183.72 1039.66 L 1187.86 1049.60 L 1188.40 1056.72 L 1194.37 1062.47 L 1196.37 1066.04 L 1203.23 1069.30 L 1204.09 1074.39 L 1212.42 1079.47 L 1218.45 1089.87 L 1222.18 1091.64 L 1222.75 1097.39 L 1231.79 1109.56 L 1233.93 1109.66 L 1236.00 1108.89 L 1237.64 1110.63 L 1241.22 1110.51 L 1241.42 1115.89 L 1238.83 1127.91 L 1242.56 1130.12 L 1253.20 1130.78 L 1253.17 1133.11 L 1252.32 1135.43 L 1249.16 1138.75 L 1250.89 1141.74 L 1253.98 1143.82 L 1254.25 1146.43 L 1252.61 1151.58 L 1251.77 1155.90 L 1247.36 1161.32 L 1247.15 1167.50 L 1239.98 1177.90 L 1236.82 1187.63 L 1240.26 1190.51 L 1243.71 1190.07 L 1249.74 1192.06 L 1252.89 1196.92 L 1256.24 1201.22 L 1263.80 1206.44 L 1273.72 1212.62 L 1284.85 1216.48 L 1310.59 1219.71 L 1315.82 1220.99 L 1319.95 1224.01 L 1328.39 1227.23 L 1334.16 1230.74 L 1340.44 1231.94 L 1349.72 1229.84 L 1363.41 1228.78 L 1373.02 1233.17 L 1379.11 1233.12 L 1385.80 1230.99 L 1389.82 1226.34 L 1401.01 1219.49 L 1404.45 1219.93 L 1413.07 1216.61 L 1413.07 1213.73 L 1410.48 1210.86 L 1417.37 1202.01 L 1422.83 1199.80 L 1426.27 1195.15 L 1437.47 1191.17 L 1447.51 1192.50 L 1460.72 1178.12 L 1481.09 1171.93 L 1492.40 1165.71" pathLength="1" fill="none" vector-effect="non-scaling-stroke"/>
</svg>
