<svg xmlns="http://www.w3.org/2000/svg" viewBox="-105.7144516 -39.5981641 0.0498296 0.0197048" preserveAspectRatio="xMidYMid meet">
  <path d="M -105.7102411 -39.5965220 L -105.7102991 -39.5964771 L -105.7102521 -39.5964090 L -105.7101767 -39.5963537 L -105.7102522 -39.5962034 L -105.7101485 -39.5961107 L -105.7100954 -39.5958056 L -105.7100042 -39.5955700 L -105.7099178 -39.5955733 L -105.7098146 -39.5955589 L -105.7097051 -39.5955856 L -105.7094862 -39.5955980 L -105.7094176 -39.5956416 L -105.7093451 -39.5956372 L -105.7093049 -39.5955960 L -105.7091933 -39.5955939 L -105.7090483 -39.5955126 L -105.7088749 -39.5955147 L -105.7087142 -39.5954322 L -105.7086095 -39.5954088 L -105.7084827 -39.5954069 L -105.7083997 -39.5953666 L -105.7081849 -39.5953237 L -105.7080352 -39.5952551 L -105.7079652 -39.5952467 L -105.7077557 -39.5952697 L -105.7076391 -39.5953279 L -105.7074774 -39.5953408 L -105.7073857 -39.5953693 L -105.7072869 -39.5954309 L -105.7068689 -39.5954051 L -105.7063844 -39.5954375 L -105.7062633 -39.5954110 L -105.7061451 -39.5953454 L -105.7060428 -39.5953317 L -105.7059338 -39.5952903 L -105.7059058 -39.5952269 L -105.7058039 -39.5951401 L -105.7055695 -39.5950713 L -105.7053586 -39.5948921 L -105.7051985 -39.5948135 L -105.7051778 -39.5947516 L -105.7051196 -39.5946777 L -105.7049884 -39.5946627 L -105.7043764 -39.5944117 L -105.7042535 -39.5943340 L -105.7040653 -39.5942712 L -105.7039548 -39.5942525 L -105.7035347 -39.5940901 L -105.7033631 -39.5940860 L -105.7032177 -39.5940314 L -105.7030466 -39.5939909 L -105.7026067 -39.5939372 L -105.7021237 -39.5939040 L -105.7019893 -39.5939275 L -105.7018582 -39.5939872 L -105.7016972 -39.5940272 L -105.7016123 -39.5940278 L -105.7015143 -39.5940571 L -105.7012363 -39.5940847 L -105.7009476 -39.5941537 L -105.7008608 -39.5941549 L -105.7008117 -39.5941742 L -105.7006585 -39.5941918 L -105.7005039 -39.5942443 L -105.7004005 -39.5942352 L -105.7001586 -39.5942789 L -105.6998521 -39.5943020 L -105.6995839 -39.5942697 L -105.6993099 -39.5942065 L -105.6992325 -39.5941481 L -105.6990016 -39.5940817 L -105.6987215 -39.5940642 L -105.6985915 -39.5940947 L -105.6982789 -39.5940630 L -105.6978516 -39.5941017 L -105.6975661 -39.5941100 L -105.6974656 -39.5941446 L -105.6974262 -39.5942283 L -105.6974036 -39.5942320 L -105.6972103 -39.5941944 L -105.6969757 -39.5940189 L -105.6967145 -39.5939464 L -105.6962443 -39.5936187 L -105.6957243 -39.5933744 L -105.6955851 -39.5931977 L -105.6955392 -39.5930864 L -105.6954650 -39.5930361 L -105.6954481 -39.5929397 L -105.6953220 -39.5928210 L -105.6951714 -39.5926266 L -105.6949739 -39.5926027 L -105.6948461 -39.5924964 L -105.6947703 -39.5924675 L -105.6948184 -39.5924012 L -105.6948499 -39.5923065 L -105.6948605 -39.5921353 L -105.6946640 -39.5922147 L -105.6944847 -39.5920892 L -105.6942931 -39.5921698 L -105.6940833 -39.5922213 L -105.6941220 -39.5919753 L -105.6939615 -39.5920487 L -105.6938754 -39.5921129 L -105.6937970 -39.5921286 L -105.6937824 -39.5920019 L -105.6938328 -39.5918531 L -105.6938217 -39.5917887 L -105.6937975 -39.5917617 L -105.6935299 -39.5917999 L -105.6934338 -39.5917969 L -105.6932605 -39.5916752 L -105.6931963 -39.5915157 L -105.6929408 -39.5913542 L -105.6926950 -39.5913104 L -105.6926013 -39.5912475 L -105.6923382 -39.5911880 L -105.6916714 -39.5915536 L -105.6915665 -39.5915518 L -105.6906974 -39.5918412 L -105.6906289 -39.5917805 L -105.6905794 -39.5911880 L -105.6905400 -39.5911863 L -105.6901074 -39.5914609 L -105.6900566 -39.5914531 L -105.6900169 -39.5912826 L -105.6897258 -39.5913827 L -105.6897078 -39.5912898 L -105.6898106 -39.5909671 L -105.6898069 -39.5908897 L -105.6897468 -39.5908066 L -105.6897339 -39.5907410 L -105.6896405 -39.5906736 L -105.6892377 -39.5908237 L -105.6888966 -39.5908760 L -105.6889175 -39.5906636 L -105.6887103 -39.5907897 L -105.6885637 -39.5908554 L -105.6882480 -39.5908922 L -105.6882843 -39.5907796 L -105.6882739 -39.5907108 L -105.6883102 -39.5905980 L -105.6883011 -39.5905477 L -105.6884467 -39.5902731 L -105.6883982 -39.5902489 L -105.6883264 -39.5902538 L -105.6882832 -39.5902774 L -105.6881654 -39.5902758 L -105.6880118 -39.5903731 L -105.6879244 -39.5903819 L -105.6876863 -39.5903578 L -105.6873822 -39.5904605 L -105.6872044 -39.5906489 L -105.6869344 -39.5906536 L -105.6868397 -39.5906140 L -105.6867563 -39.5906160 L -105.6867063 -39.5906672 L -105.6865983 -39.5906012 L -105.6862342 -39.5907912 L -105.6861389 -39.5906795 L -105.6860274 -39.5906109 L -105.6860107 -39.5906683 L -105.6860161 -39.5907404 L -105.6859799 -39.5907896 L -105.6859043 -39.5908433 L -105.6856279 -39.5912433 L -105.6852174 -39.5917353 L -105.6851927 -39.5918190 L -105.6851292 -39.5918412 L -105.6850755 -39.5919900 L -105.6848281 -39.5921579 L -105.6847215 -39.5923373 L -105.6845498 -39.5923869 L -105.6843713 -39.5922543 L -105.6842425 -39.5920999 L -105.6840035 -39.5919789 L -105.6838820 -39.5918884 L -105.6838020 -39.5917767 L -105.6835413 -39.5916345 L -105.6835343 -39.5910833 L -105.6835458 -39.5909880 L -105.6834609 -39.5908812 L -105.6832826 -39.5907821 L -105.6832514 -39.5906686 L -105.6832522 -39.5905654 L -105.6831336 -39.5903778 L -105.6829154 -39.5901869 L -105.6828338 -39.5900740 L -105.6827815 -39.5900448 L -105.6826153 -39.5900600 L -105.6823188 -39.5900227 L -105.6820248 -39.5902294 L -105.6816005 -39.5903634 L -105.6812608 -39.5905570 L -105.6809557 -39.5905762 L -105.6807947 -39.5904522 L -105.6807047 -39.5903012 L -105.6806381 -39.5899973 L -105.6807625 -39.5892864 L -105.6806443 -39.5890563 L -105.6805996 -39.5886129 L -105.6806338 -39.5885340 L -105.6805986 -39.5884077 L -105.6804729 -39.5882447 L -105.6804884 -39.5880368 L -105.6803831 -39.5879697 L -105.6803871 -39.5878122 L -105.6803215 -39.5876219 L -105.6803119 -39.5873352 L -105.6801569 -39.5869635 L -105.6801369 -39.5866972 L -105.6799135 -39.5864823 L -105.6798390 -39.5863491 L -105.6795824 -39.5862272 L -105.6795502 -39.5860370 L -105.6792390 -39.5858469 L -105.6790137 -39.5854583 L -105.6788743 -39.5853921 L -105.6788528 -39.5851771 L -105.6785152 -39.5847220 L -105.6784350 -39.5847183 L -105.6783576 -39.5847472 L -105.6782964 -39.5846820 L -105.6781627 -39.5846866 L -105.6781551 -39.5844855 L -105.6782520 -39.5840361 L -105.6781125 -39.5839534 L -105.6777148 -39.5839287 L -105.6777159 -39.5838418 L -105.6777477 -39.5837549 L -105.6778658 -39.5836309 L -105.6778010 -39.5835193 L -105.6776858 -39.5834413 L -105.6776755 -39.5833438 L -105.6777370 -39.5831513 L -105.6777682 -39.5829899 L -105.6779330 -39.5827870 L -105.6779409 -39.5825560 L -105.6782091 -39.5821673 L -105.6783271 -39.5818035 L -105.6781983 -39.5816960 L -105.6780696 -39.5817125 L -105.6778443 -39.5816381 L -105.6777263 -39.5814562 L -105.6776013 -39.5812958 L -105.6773186 -39.5811006 L -105.6769480 -39.5808696 L -105.6765318 -39.5807253 L -105.6755698 -39.5806045 L -105.6753743 -39.5805565 L -105.6752201 -39.5804436 L -105.6749046 -39.5803234 L -105.6746889 -39.5801922 L -105.6744540 -39.5801473 L -105.6741071 -39.5802256 L -105.6735957 -39.5802655 L -105.6732363 -39.5801013 L -105.6730089 -39.5801030 L -105.6727588 -39.5801828 L -105.6726086 -39.5803564 L -105.6721902 -39.5806128 L -105.6720615 -39.5805962 L -105.6717396 -39.5807203 L -105.6717396 -39.5808278 L -105.6718361 -39.5809353 L -105.6715787 -39.5812660 L -105.6713748 -39.5813487 L -105.6712461 -39.5815224 L -105.6708276 -39.5816712 L -105.6704521 -39.5816216 L -105.6699586 -39.5821591 L -105.6691969 -39.5823906 L -105.6687744 -39.5826232" pathLength="1" fill="none" stroke="currentColor" vector-effect="non-scaling-stroke"/>
</svg>
