<svg xmlns="http://www.w3.org/2000/svg" viewBox="0 0 2000 2500" preserveAspectRatio="xMidYMid slice">
  <path class="trace-line" d="M 1548.33 2031.25 L 1547.01 2026.13 L 1548.32 2018.70 L 1552.69 2009.52 L 1559.68 2002.08 L 1572.36 1992.91 L 1583.29 1982.84 L 1592.91 1968.41 L 1597.28 1955.30 L 1602.97 1936.49 L 1609.09 1919.00 L 1608.65 1912.45 L 1606.03 1904.13 L 1600.78 1895.82 L 1594.66 1889.27 L 1571.05 1877.89 L 1531.26 1867.84 L 1507.66 1864.78 L 1472.69 1857.78 L 1438.59 1845.10 L 1406.23 1839.42 L 1367.76 1835.92 L 1352.89 1830.24 L 1325.79 1822.37 L 1303.06 1814.93 L 1292.13 1807.94 L 1279.01 1807.50 L 1265.46 1806.18 L 1245.78 1802.25 L 1216.49 1794.81 L 1196.38 1789.13 L 1169.72 1772.08 L 1151.36 1765.08 L 1130.37 1754.59 L 1078.78 1732.29 L 945.00 1700.81 L 859.75 1678.07 L 839.64 1674.13 L 826.53 1673.69 L 817.34 1677.63 L 804.67 1684.18 L 764.63 1650.23 L 720.86 1601.66 L 664.80 1551.66 L 632.98 1533.92 L 617.59 1527.66 L 592.80 1521.39 L 576.38 1509.92 L 569.07 1487.22 L 552.11 1452.26 L 531.51 1418.87 L 515.59 1388.87 L 457.69 1310.35 L 441.52 1286.35 L 427.17 1258.43 L 427.96 1239.64 L 420.65 1186.43 L 406.56 1139.73 L 397.96 1108.69 L 394.56 1074.26 L 393.00 1012.96 L 393.26 963.65 L 397.96 932.34 L 390.91 918.26 L 393.00 897.92 L 392.74 869.74 L 394.05 828.52 L 399.52 803.23 L 404.22 773.49 L 413.61 752.09 L 426.39 707.75 L 437.08 687.66 L 447.52 664.45 L 462.29 626.38 L 466.30 624.01 L 471.77 615.93 L 483.77 605.49 L 491.60 601.06 L 495.78 588.28 L 505.17 582.02 L 518.73 579.93 L 545.33 578.11 L 562.81 566.11 L 584.72 562.46 L 590.98 555.42 L 598.02 556.72 L 601.68 553.06 L 616.29 554.63 L 624.89 549.68 L 630.63 537.41 L 646.54 529.07 L 652.28 527.77 L 661.15 521.76 L 675.50 514.99 L 697.41 505.59 L 710.71 500.37 L 731.31 493.33 L 749.32 485.25 L 770.18 480.55 L 784.36 476.49 L 796.57 474.11 L 800.72 470.74 L 803.83 471.01 L 807.90 468.75 L 817.14 482.76" pathLength="1" fill="none" vector-effect="non-scaling-stroke"/>
  <circle class="trace-start" cx="1548.33" cy="2031.25" r="6.25"/>
  <circle class="trace-summit-halo" cx="818.89" cy="480.02" r="15.97"/>
  <circle class="trace-summit" cx="818.89" cy="480.02" r="9.03"/>
</svg>
