<svg xmlns="http://www.w3.org/2000/svg" viewBox="0 0 2000 2500" preserveAspectRatio="none">
  <path class="trace-underlay" d="M 1611.58 1790.87 L 1610.37 1787.27 L 1611.57 1782.05 L 1615.56 1775.59 L 1621.94 1770.37 L 1633.50 1763.91 L 1643.48 1756.84 L 1652.25 1746.69 L 1656.24 1737.47 L 1661.43 1724.25 L 1667.01 1711.96 L 1666.61 1707.35 L 1664.22 1701.50 L 1659.43 1695.66 L 1653.84 1691.05 L 1632.31 1683.06 L 1596.01 1675.99 L 1574.47 1673.84 L 1542.57 1668.92 L 1511.45 1660.00 L 1481.94 1656.00 L 1446.84 1653.55 L 1433.27 1649.55 L 1408.55 1644.02 L 1387.80 1638.79 L 1377.83 1633.87 L 1365.87 1633.56 L 1353.51 1632.64 L 1335.55 1629.87 L 1308.83 1624.64 L 1290.48 1620.65 L 1266.15 1608.66 L 1249.40 1603.75 L 1230.25 1596.37 L 1183.19 1580.69 L 1061.13 1558.56 L 983.36 1542.57 L 965.01 1539.80 L 953.04 1539.49 L 944.67 1542.26 L 933.10 1546.87 L 896.58 1523.00 L 856.64 1488.85 L 805.50 1453.70 L 776.46 1441.22 L 762.42 1436.82 L 739.81 1432.42 L 724.82 1424.35 L 718.16 1408.40 L 702.69 1383.82 L 683.89 1360.34 L 669.37 1339.25 L 616.54 1284.04 L 601.78 1267.17 L 588.69 1247.55 L 589.41 1234.34 L 582.75 1196.93 L 569.89 1164.09 L 562.04 1142.27 L 558.95 1118.07 L 557.52 1074.97 L 557.75 1040.30 L 562.04 1018.29 L 555.62 1008.39 L 557.52 994.09 L 557.28 974.28 L 558.47 945.30 L 563.47 927.52 L 567.75 906.61 L 576.32 891.57 L 587.98 860.40 L 597.74 846.27 L 607.26 829.95 L 620.73 803.19 L 624.39 801.52 L 629.39 795.84 L 640.33 788.50 L 647.47 785.39 L 651.29 776.40 L 659.85 772.00 L 672.23 770.53 L 696.50 769.25 L 712.44 760.82 L 732.43 758.25 L 738.15 753.30 L 744.57 754.22 L 747.91 751.64 L 761.23 752.75 L 769.09 749.26 L 774.32 740.64 L 788.84 734.78 L 794.07 733.86 L 802.16 729.64 L 815.25 724.87 L 835.25 718.27 L 847.38 714.60 L 866.18 709.65 L 882.60 703.97 L 901.64 700.66 L 914.58 697.81 L 925.71 696.13 L 929.50 693.77 L 932.33 693.96 L 936.05 692.37 L 944.48 702.22" pathLength="1" fill="none" vector-effect="non-scaling-stroke"/>
  <path class="trace-line" d="M 1611.58 1790.87 L 1610.37 1787.27 L 1611.57 1782.05 L 1615.56 1775.59 L 1621.94 1770.37 L 1633.50 1763.91 L 1643.48 1756.84 L 1652.25 1746.69 L 1656.24 1737.47 L 1661.43 1724.25 L 1667.01 1711.96 L 1666.61 1707.35 L 1664.22 1701.50 L 1659.43 1695.66 L 1653.84 1691.05 L 1632.31 1683.06 L 1596.01 1675.99 L 1574.47 1673.84 L 1542.57 1668.92 L 1511.45 1660.00 L 1481.94 1656.00 L 1446.84 1653.55 L 1433.27 1649.55 L 1408.55 1644.02 L 1387.80 1638.79 L 1377.83 1633.87 L 1365.87 1633.56 L 1353.51 1632.64 L 1335.55 1629.87 L 1308.83 1624.64 L 1290.48 1620.65 L 1266.15 1608.66 L 1249.40 1603.75 L 1230.25 1596.37 L 1183.19 1580.69 L 1061.13 1558.56 L 983.36 1542.57 L 965.01 1539.80 L 953.04 1539.49 L 944.67 1542.26 L 933.10 1546.87 L 896.58 1523.00 L 856.64 1488.85 L 805.50 1453.70 L 776.46 1441.22 L 762.42 1436.82 L 739.81 1432.42 L 724.82 1424.35 L 718.16 1408.40 L 702.69 1383.82 L 683.89 1360.34 L 669.37 1339.25 L 616.54 1284.04 L 601.78 1267.17 L 588.69 1247.55 L 589.41 1234.34 L 582.75 1196.93 L 569.89 1164.09 L 562.04 1142.27 L 558.95 1118.07 L 557.52 1074.97 L 557.75 1040.30 L 562.04 1018.29 L 555.62 1008.39 L 557.52 994.09 L 557.28 974.28 L 558.47 945.30 L 563.47 927.52 L 567.75 906.61 L 576.32 891.57 L 587.98 860.40 L 597.74 846.27 L 607.26 829.95 L 620.73 803.19 L 624.39 801.52 L 629.39 795.84 L 640.33 788.50 L 647.47 785.39 L 651.29 776.40 L 659.85 772.00 L 672.23 770.53 L 696.50 769.25 L 712.44 760.82 L 732.43 758.25 L 738.15 753.30 L 744.57 754.22 L 747.91 751.64 L 761.23 752.75 L 769.09 749.26 L 774.32 740.64 L 788.84 734.78 L 794.07 733.86 L 802.16 729.64 L 815.25 724.87 L 835.25 718.27 L 847.38 714.60 L 866.18 709.65 L 882.60 703.97 L 901.64 700.66 L 914.58 697.81 L 925.71 696.13 L 929.50 693.77 L 932.33 693.96 L 936.05 692.37 L 944.48 702.22" pathLength="1" fill="none" vector-effect="non-scaling-stroke"/>
</svg>
