<svg xmlns="http://www.w3.org/2000/svg" viewBox="0 0 1600 900" preserveAspectRatio="xMidYMid slice">
  <path class="trace-line" d="M 1204.92 1026.59 L 1203.94 1022.82 L 1204.91 1017.33 L 1208.14 1010.56 L 1213.31 1005.07 L 1222.67 998.30 L 1230.74 990.87 L 1237.84 980.22 L 1241.07 970.54 L 1245.27 956.66 L 1249.79 943.75 L 1249.47 938.91 L 1247.53 932.78 L 1243.65 926.64 L 1239.13 921.80 L 1221.70 913.41 L 1192.32 905.99 L 1174.89 903.73 L 1149.06 898.57 L 1123.88 889.21 L 1099.99 885.01 L 1071.58 882.43 L 1060.60 878.24 L 1040.59 872.43 L 1023.80 866.94 L 1015.72 861.78 L 1006.04 861.46 L 996.03 860.49 L 981.50 857.58 L 959.87 852.09 L 945.02 847.90 L 925.33 835.32 L 911.77 830.15 L 896.27 822.41 L 858.18 805.95 L 759.39 782.71 L 696.43 765.93 L 681.58 763.02 L 671.90 762.70 L 665.11 765.61 L 655.75 770.45 L 626.19 745.39 L 593.87 709.54 L 552.47 672.64 L 528.97 659.54 L 517.60 654.92 L 499.30 650.30 L 487.17 641.83 L 481.78 625.08 L 469.25 599.28 L 454.04 574.63 L 442.29 552.49 L 399.52 494.54 L 387.58 476.83 L 376.99 456.22 L 377.57 442.36 L 372.17 403.08 L 361.77 368.62 L 355.42 345.71 L 352.91 320.30 L 351.75 275.05 L 351.94 238.66 L 355.42 215.56 L 350.21 205.16 L 351.75 190.15 L 351.56 169.35 L 352.53 138.93 L 356.57 120.26 L 360.04 98.31 L 366.97 82.52 L 376.41 49.80 L 384.31 34.97 L 392.01 17.84 L 402.92 -10.25 L 405.88 -12.00 L 409.92 -17.97 L 418.78 -25.67 L 424.56 -28.94 L 427.65 -38.38 L 434.58 -43.00 L 444.60 -44.54 L 464.25 -45.88 L 477.15 -54.74 L 493.33 -57.43 L 497.96 -62.63 L 503.15 -61.67 L 505.85 -64.37 L 516.64 -63.21 L 523.00 -66.87 L 527.23 -75.92 L 538.98 -82.07 L 543.22 -83.04 L 549.77 -87.47 L 560.37 -92.47 L 576.55 -99.41 L 586.37 -103.25 L 601.58 -108.45 L 614.88 -114.42 L 630.29 -117.89 L 640.76 -120.88 L 649.77 -122.64 L 652.84 -125.12 L 655.13 -124.93 L 658.14 -126.59 L 664.97 -116.25" pathLength="1" fill="none" vector-effect="non-scaling-stroke"/>
  <circle class="trace-start" cx="1204.92" cy="1026.59" r="4.62"/>
  <circle class="trace-summit-halo" cx="666.26" cy="-118.27" r="11.79"/>
  <circle class="trace-summit" cx="666.26" cy="-118.27" r="6.67"/>
</svg>
