<svg xmlns="http://www.w3.org/2000/svg" viewBox="-106.1189598 -39.3531577 0.0198342 0.0196724" preserveAspectRatio="xMidYMid meet">
  <path d="M -106.1016028 -39.3351246 L -106.1016207 -39.3351783 L -106.1016029 -39.3352563 L -106.1015436 -39.3353526 L -106.1014487 -39.3354306 L -106.1012767 -39.3355269 L -106.1011284 -39.3356325 L -106.1009979 -39.3357839 L -106.1009386 -39.3359215 L -106.1008614 -39.3361188 L -106.1007784 -39.3363023 L -106.1007843 -39.3363711 L -106.1008199 -39.3364583 L -106.1008911 -39.3365455 L -106.1009742 -39.3366143 L -106.1012945 -39.3367336 L -106.1018343 -39.3368391 L -106.1021546 -39.3368712 L -106.1026291 -39.3369446 L -106.1030918 -39.3370777 L -106.1035308 -39.3371373 L -106.1040528 -39.3371740 L -106.1042545 -39.3372336 L -106.1046222 -39.3373162 L -106.1049307 -39.3373942 L -106.1050790 -39.3374676 L -106.1052569 -39.3374722 L -106.1054408 -39.3374860 L -106.1057078 -39.3375273 L -106.1061052 -39.3376053 L -106.1063781 -39.3376649 L -106.1067399 -39.3378438 L -106.1069890 -39.3379172 L -106.1072738 -39.3380273 L -106.1079737 -39.3382613 L -106.1097889 -39.3385916 L -106.1109456 -39.3388302 L -106.1112184 -39.3388715 L -106.1113964 -39.3388761 L -106.1115210 -39.3388348 L -106.1116930 -39.3387660 L -106.1122362 -39.3391222 L -106.1128301 -39.3396318 L -106.1135907 -39.3401564 L -106.1140225 -39.3403426 L -106.1142313 -39.3404083 L -106.1145676 -39.3404740 L -106.1147905 -39.3405944 L -106.1148896 -39.3408325 L -106.1151197 -39.3411993 L -106.1153993 -39.3415497 L -106.1156152 -39.3418644 L -106.1164009 -39.3426883 L -106.1166203 -39.3429401 L -106.1168150 -39.3432330 L -106.1168043 -39.3434301 L -106.1169034 -39.3439884 L -106.1170946 -39.3444784 L -106.1172113 -39.3448041 L -106.1172574 -39.3451653 L -106.1172786 -39.3458085 L -106.1172751 -39.3463258 L -106.1172113 -39.3466543 L -106.1173069 -39.3468021 L -106.1172786 -39.3470155 L -106.1172821 -39.3473111 L -106.1172644 -39.3477436 L -106.1171901 -39.3480090 L -106.1171264 -39.3483210 L -106.1169990 -39.3485455 L -106.1168256 -39.3490107 L -106.1166805 -39.3492215 L -106.1165389 -39.3494650 L -106.1163385 -39.3498644 L -106.1162841 -39.3498893 L -106.1162098 -39.3499741 L -106.1160470 -39.3500836 L -106.1159408 -39.3501301 L -106.1158841 -39.3502642 L -106.1157567 -39.3503299 L -106.1155727 -39.3503518 L -106.1152117 -39.3503709 L -106.1149746 -39.3504968 L -106.1146773 -39.3505351 L -106.1145923 -39.3506090 L -106.1144968 -39.3505953 L -106.1144472 -39.3506337 L -106.1142490 -39.3506172 L -106.1141322 -39.3506692 L -106.1140544 -39.3507979 L -106.1138385 -39.3508854 L -106.1137606 -39.3508991 L -106.1136403 -39.3509621 L -106.1134456 -39.3510332 L -106.1131483 -39.3511318 L -106.1129678 -39.3511865 L -106.1126883 -39.3512604 L -106.1124440 -39.3513452 L -106.1121609 -39.3513945 L -106.1119685 -39.3514371 L -106.1118029 -39.3514621 L -106.1117465 -39.3514974 L -106.1117044 -39.3514946 L -106.1116491 -39.3515183 L -106.1115237 -39.3513713" pathLength="1" fill="none" stroke="currentColor" vector-effect="non-scaling-stroke"/>
</svg>
