<svg xmlns="http://www.w3.org/2000/svg" viewBox="0 0 1600 900" preserveAspectRatio="xMidYMid slice">
  <path class="trace-line" d="M 564.53 -126.59 L 562.70 -121.25 L 556.86 -117.70 L 548.85 -114.87 L 540.03 -108.15 L 543.23 -102.15 L 542.19 -88.37 L 543.00 -82.31 L 545.15 -78.53 L 549.26 -73.25 L 549.49 -67.25 L 556.67 -60.44 L 557.68 -55.97 L 561.40 -52.23 L 565.50 -49.94 L 570.29 -48.98 L 575.10 -44.60 L 580.34 -41.60 L 586.51 -39.74 L 592.87 -38.25 L 598.28 -40.82 L 602.62 -37.56 L 606.27 -33.59 L 611.03 -30.91 L 622.65 -25.21 L 627.96 -21.63 L 641.27 -11.46 L 648.45 -9.00 L 655.49 -4.39 L 660.58 -0.38 L 663.32 3.44 L 675.61 9.10 L 679.47 12.23 L 682.33 16.21 L 684.16 20.64 L 686.34 23.12 L 687.58 27.00 L 691.79 29.70 L 693.37 33.35 L 696.32 36.77 L 699.19 37.42 L 701.30 36.83 L 707.15 40.36 L 714.56 43.00 L 723.98 42.77 L 721.47 46.27 L 719.94 51.24 L 718.29 53.90 L 715.14 57.17 L 712.56 61.52 L 706.73 69.46 L 709.82 71.02 L 719.06 71.28 L 723.19 72.13 L 727.60 71.42 L 725.73 76.59 L 721.76 81.13 L 717.01 88.93 L 714.49 91.88 L 711.93 93.83 L 711.11 96.29 L 711.75 97.37 L 716.02 98.01 L 723.95 98.33 L 729.75 100.03 L 736.73 101.00 L 742.14 100.68 L 747.11 100.84 L 742.41 105.37 L 737.09 109.45 L 727.92 120.07 L 727.31 121.93 L 727.67 124.08 L 732.10 124.76 L 736.21 124.47 L 743.52 120.82 L 747.40 119.45 L 752.42 122.87 L 757.90 123.27 L 761.72 122.29 L 770.65 122.61 L 778.22 119.38 L 783.50 115.96 L 788.17 114.53 L 799.22 110.29 L 807.18 106.09 L 810.18 102.05 L 813.83 92.92 L 818.43 89.05 L 819.45 92.14 L 820.13 95.43 L 822.45 97.36 L 827.27 95.63 L 828.08 98.27 L 828.19 101.66 L 830.66 102.05 L 833.93 101.92 L 834.71 103.77 L 833.79 106.45 L 830.79 111.37 L 832.88 113.65 L 836.04 114.92 L 842.96 116.84 L 850.88 118.28 L 856.13 117.95 L 862.75 116.75 L 877.63 116.39 L 889.14 115.45 L 894.65 116.06 L 894.68 118.54 L 892.24 121.27 L 881.25 130.17 L 873.84 136.60 L 869.83 143.67 L 878.24 144.67 L 885.72 142.59 L 894.68 146.92 L 900.88 144.28 L 907.34 142.62 L 916.11 144.54 L 922.77 144.67 L 929.81 145.32 L 931.73 148.10 L 930.30 151.29 L 915.30 160.55 L 910.37 163.32 L 908.41 166.80 L 912.46 167.75 L 916.41 169.64 L 914.81 170.88 L 909.85 175.70 L 906.62 179.67 L 901.11 183.13 L 892.76 189.65 L 891.36 192.74 L 894.49 193.82 L 898.89 194.08 L 904.24 191.67 L 911.06 194.38 L 916.37 195.22 L 921.59 194.34 L 925.96 195.61 L 928.77 198.61 L 928.02 202.10 L 925.41 205.33 L 923.55 208.48 L 921.79 216.24 L 917.48 225.43 L 916.18 228.95 L 915.10 234.52 L 912.36 238.86 L 910.04 244.01 L 908.28 252.42 L 907.11 260.18 L 910.40 282.20 L 911.15 285.86 L 910.31 288.33 L 908.12 293.29 L 902.81 315.71 L 899.02 333.96 L 885.85 370.85 L 883.89 381.41 L 883.37 394.84 L 883.24 414.53 L 884.67 426.00 L 884.15 439.43 L 883.24 447.51 L 877.76 454.81 L 876.84 461.07 L 879.98 473.45 L 879.06 480.10 L 879.46 485.44 L 881.28 493.39 L 881.54 509.56 L 882.85 533.16 L 884.28 539.55 L 885.98 545.41 L 886.24 550.37 L 881.41 554.02 L 879.71 566.01 L 878.67 580.22 L 885.33 586.61 L 888.98 592.61 L 900.98 599.91 L 905.41 602.12 L 909.46 610.21 L 913.56 614.51" pathLength="1" fill="none" vector-effect="non-scaling-stroke"/>
  <circle class="trace-start" cx="564.53" cy="-126.59" r="4.62"/>
  <circle class="trace-end" cx="913.56" cy="614.51" r="4.62"/>
  <circle class="trace-summit-halo" cx="1059.97" cy="1026.59" r="11.79"/>
  <circle class="trace-summit" cx="1059.97" cy="1026.59" r="6.67"/>
</svg>
