<svg xmlns="http://www.w3.org/2000/svg" viewBox="0 0 2000 2500" preserveAspectRatio="xMidYMid slice">
  <path class="trace-line" d="M 681.13 468.75 L 678.65 476.00 L 670.75 480.81 L 659.90 484.63 L 647.96 493.74 L 652.29 501.87 L 650.88 520.54 L 651.98 528.76 L 654.90 533.88 L 660.46 541.03 L 660.77 549.16 L 670.49 558.39 L 671.86 564.44 L 676.90 569.50 L 682.45 572.61 L 688.93 573.91 L 695.44 579.85 L 702.55 583.91 L 710.90 586.43 L 719.51 588.46 L 726.84 584.97 L 732.72 589.38 L 737.66 594.77 L 744.11 598.39 L 759.83 606.12 L 767.03 610.97 L 785.05 624.75 L 794.77 628.08 L 804.31 634.34 L 811.20 639.77 L 814.91 644.93 L 831.56 652.61 L 836.78 656.84 L 840.65 662.24 L 843.13 668.25 L 846.09 671.60 L 847.77 676.86 L 853.46 680.52 L 855.61 685.47 L 859.60 690.10 L 863.49 690.98 L 866.34 690.18 L 874.26 694.96 L 884.30 698.54 L 897.05 698.23 L 893.65 702.97 L 891.58 709.71 L 889.35 713.30 L 885.09 717.74 L 881.60 723.63 L 873.69 734.39 L 877.89 736.51 L 890.39 736.86 L 895.99 738.01 L 901.96 737.04 L 899.43 744.05 L 894.05 750.20 L 887.62 760.77 L 884.20 764.77 L 880.74 767.41 L 879.63 770.74 L 880.49 772.21 L 886.28 773.07 L 897.01 773.51 L 904.87 775.81 L 914.32 777.13 L 921.65 776.69 L 928.37 776.91 L 922.01 783.05 L 914.81 788.57 L 902.39 802.96 L 901.56 805.48 L 902.05 808.40 L 908.05 809.32 L 913.62 808.92 L 923.51 803.98 L 928.77 802.13 L 935.57 806.76 L 942.99 807.30 L 948.16 805.97 L 960.26 806.41 L 970.51 802.04 L 977.66 797.40 L 983.97 795.46 L 998.95 789.72 L 1009.72 784.02 L 1013.79 778.54 L 1018.73 766.18 L 1024.96 760.93 L 1026.33 765.12 L 1027.25 769.58 L 1030.40 772.19 L 1036.93 769.85 L 1038.03 773.43 L 1038.17 778.02 L 1041.52 778.54 L 1045.94 778.37 L 1047.00 780.89 L 1045.76 784.51 L 1041.70 791.18 L 1044.52 794.26 L 1048.81 795.99 L 1058.17 798.59 L 1068.90 800.53 L 1076.01 800.09 L 1084.98 798.46 L 1105.12 797.98 L 1120.71 796.70 L 1128.17 797.53 L 1128.22 800.89 L 1124.91 804.60 L 1110.02 816.65 L 1100.00 825.36 L 1094.56 834.94 L 1105.96 836.30 L 1116.07 833.48 L 1128.22 839.35 L 1136.61 835.77 L 1145.36 833.52 L 1157.24 836.12 L 1166.25 836.30 L 1175.79 837.18 L 1178.39 840.94 L 1176.44 845.27 L 1156.13 857.81 L 1149.47 861.57 L 1146.81 866.28 L 1152.29 867.56 L 1157.63 870.13 L 1155.47 871.81 L 1148.75 878.34 L 1144.38 883.73 L 1136.92 888.41 L 1125.61 897.24 L 1123.71 901.43 L 1127.95 902.89 L 1133.92 903.25 L 1141.16 899.98 L 1150.39 903.65 L 1157.59 904.79 L 1164.65 903.60 L 1170.58 905.32 L 1174.37 909.38 L 1173.36 914.11 L 1169.82 918.48 L 1167.30 922.76 L 1164.92 933.27 L 1159.09 945.73 L 1157.32 950.49 L 1155.87 958.04 L 1152.15 963.91 L 1149.02 970.90 L 1146.63 982.29 L 1145.05 992.80 L 1149.51 1022.65 L 1150.52 1027.59 L 1149.37 1030.95 L 1146.42 1037.66 L 1139.22 1068.04 L 1134.09 1092.77 L 1116.25 1142.76 L 1113.60 1157.06 L 1112.89 1175.26 L 1112.72 1201.94 L 1114.66 1217.48 L 1113.95 1235.68 L 1112.72 1246.62 L 1105.30 1256.51 L 1104.06 1265.00 L 1108.30 1281.78 L 1107.06 1290.79 L 1107.60 1298.02 L 1110.07 1308.80 L 1110.42 1330.70 L 1112.19 1362.68 L 1114.13 1371.33 L 1116.43 1379.28 L 1116.78 1385.99 L 1110.24 1390.94 L 1107.95 1407.19 L 1106.54 1426.44 L 1115.55 1435.10 L 1120.49 1443.22 L 1136.74 1453.11 L 1142.75 1456.12 L 1148.23 1467.07 L 1153.78 1472.90" pathLength="1" fill="none" vector-effect="non-scaling-stroke"/>
  <circle class="trace-start" cx="681.13" cy="468.75" r="6.25"/>
  <circle class="trace-end" cx="1153.78" cy="1472.90" r="6.25"/>
  <circle class="trace-summit-halo" cx="1352.04" cy="2031.25" r="15.97"/>
  <circle class="trace-summit" cx="1352.04" cy="2031.25" r="9.03"/>
</svg>
