<svg xmlns="http://www.w3.org/2000/svg" viewBox="0 0 2000 2500" preserveAspectRatio="none">
  <path class="trace-underlay" d="M 816.90 1004.07 L 815.39 1007.46 L 810.59 1009.71 L 804.00 1011.50 L 796.75 1015.77 L 799.38 1019.57 L 798.52 1028.32 L 799.19 1032.16 L 800.96 1034.56 L 804.34 1037.91 L 804.53 1041.71 L 810.43 1046.03 L 811.26 1048.86 L 814.33 1051.23 L 817.70 1052.69 L 821.63 1053.30 L 825.59 1056.08 L 829.91 1057.98 L 834.98 1059.16 L 840.21 1060.11 L 844.66 1058.47 L 848.23 1060.54 L 851.23 1063.06 L 855.15 1064.76 L 864.70 1068.37 L 869.07 1070.65 L 880.02 1077.10 L 885.92 1078.66 L 891.71 1081.58 L 895.90 1084.13 L 898.15 1086.54 L 908.26 1090.14 L 911.44 1092.12 L 913.79 1094.65 L 915.29 1097.46 L 917.09 1099.03 L 918.11 1101.49 L 921.57 1103.20 L 922.87 1105.52 L 925.30 1107.69 L 927.66 1108.10 L 929.39 1107.72 L 934.20 1109.96 L 940.30 1111.64 L 948.05 1111.49 L 945.98 1113.71 L 944.72 1116.87 L 943.37 1118.55 L 940.78 1120.63 L 938.66 1123.38 L 933.86 1128.42 L 936.40 1129.41 L 944.00 1129.58 L 947.40 1130.11 L 951.03 1129.66 L 949.49 1132.94 L 946.22 1135.82 L 942.32 1140.77 L 940.24 1142.64 L 938.14 1143.88 L 937.46 1145.44 L 937.99 1146.13 L 941.50 1146.53 L 948.02 1146.73 L 952.80 1147.81 L 958.53 1148.43 L 962.99 1148.22 L 967.07 1148.33 L 963.20 1151.20 L 958.83 1153.78 L 951.29 1160.52 L 950.78 1161.70 L 951.08 1163.06 L 954.73 1163.50 L 958.11 1163.31 L 964.12 1161.00 L 967.31 1160.13 L 971.44 1162.30 L 975.95 1162.55 L 979.09 1161.93 L 986.44 1162.14 L 992.66 1160.09 L 997.01 1157.92 L 1000.84 1157.01 L 1009.94 1154.32 L 1016.48 1151.65 L 1018.95 1149.09 L 1020.26 1146.77 L 1021.95 1143.30 L 1025.73 1140.84 L 1026.57 1142.81 L 1027.13 1144.90 L 1029.04 1146.11 L 1033.01 1145.02 L 1033.67 1146.69 L 1033.76 1148.84 L 1035.79 1149.09 L 1038.48 1149.01 L 1039.12 1150.19 L 1038.37 1151.88 L 1035.90 1155.00 L 1037.62 1156.45 L 1040.22 1157.25 L 1045.91 1158.47 L 1052.42 1159.38 L 1056.75 1159.18 L 1062.19 1158.41 L 1074.42 1158.19 L 1083.89 1157.59 L 1088.43 1157.98 L 1088.45 1159.55 L 1086.44 1161.29 L 1077.40 1166.93 L 1071.31 1171.00 L 1068.01 1175.49 L 1074.93 1176.13 L 1081.08 1174.80 L 1088.45 1177.55 L 1093.55 1175.88 L 1098.86 1174.82 L 1106.08 1176.04 L 1111.55 1176.13 L 1117.35 1176.54 L 1118.93 1178.30 L 1117.75 1180.32 L 1105.41 1186.19 L 1101.36 1187.95 L 1099.75 1190.16 L 1103.08 1190.76 L 1106.32 1191.96 L 1105.01 1192.75 L 1100.93 1195.80 L 1098.27 1198.33 L 1093.74 1200.52 L 1086.87 1204.65 L 1085.72 1206.62 L 1088.29 1207.30 L 1091.91 1207.47 L 1096.32 1205.94 L 1101.92 1207.65 L 1106.29 1208.19 L 1110.59 1207.63 L 1114.18 1208.43 L 1116.49 1210.34 L 1115.87 1212.55 L 1113.73 1214.60 L 1112.19 1216.60 L 1110.75 1221.52 L 1107.20 1227.35 L 1106.13 1229.58 L 1105.25 1233.12 L 1102.99 1235.86 L 1101.09 1239.13 L 1099.64 1244.47 L 1098.68 1249.39 L 1101.38 1263.36 L 1102.00 1265.67 L 1101.30 1267.25 L 1099.51 1270.39 L 1095.13 1284.61 L 1092.02 1296.19 L 1087.73 1305.69 L 1081.18 1319.59 L 1079.58 1326.28 L 1079.14 1334.80 L 1079.04 1347.29 L 1080.22 1354.56 L 1079.79 1363.08 L 1079.04 1368.20 L 1074.53 1372.83 L 1073.78 1376.81 L 1076.36 1384.66 L 1075.60 1388.88 L 1075.93 1392.27 L 1077.43 1397.31 L 1077.64 1407.56 L 1078.72 1422.53 L 1079.90 1426.58 L 1081.29 1430.30 L 1081.51 1433.45 L 1077.54 1435.76 L 1076.14 1443.37 L 1075.28 1452.38 L 1080.76 1456.44 L 1083.76 1460.24 L 1093.63 1464.87 L 1097.28 1466.27 L 1100.61 1471.40 L 1103.98 1474.13" pathLength="1" fill="none" vector-effect="non-scaling-stroke"/>
  <path class="trace-line" d="M 816.90 1004.07 L 815.39 1007.46 L 810.59 1009.71 L 804.00 1011.50 L 796.75 1015.77 L 799.38 1019.57 L 798.52 1028.32 L 799.19 1032.16 L 800.96 1034.56 L 804.34 1037.91 L 804.53 1041.71 L 810.43 1046.03 L 811.26 1048.86 L 814.33 1051.23 L 817.70 1052.69 L 821.63 1053.30 L 825.59 1056.08 L 829.91 1057.98 L 834.98 1059.16 L 840.21 1060.11 L 844.66 1058.47 L 848.23 1060.54 L 851.23 1063.06 L 855.15 1064.76 L 864.70 1068.37 L 869.07 1070.65 L 880.02 1077.10 L 885.92 1078.66 L 891.71 1081.58 L 895.90 1084.13 L 898.15 1086.54 L 908.26 1090.14 L 911.44 1092.12 L 913.79 1094.65 L 915.29 1097.46 L 917.09 1099.03 L 918.11 1101.49 L 921.57 1103.20 L 922.87 1105.52 L 925.30 1107.69 L 927.66 1108.10 L 929.39 1107.72 L 934.20 1109.96 L 940.30 1111.64 L 948.05 1111.49 L 945.98 1113.71 L 944.72 1116.87 L 943.37 1118.55 L 940.78 1120.63 L 938.66 1123.38 L 933.86 1128.42 L 936.40 1129.41 L 944.00 1129.58 L 947.40 1130.11 L 951.03 1129.66 L 949.49 1132.94 L 946.22 1135.82 L 942.32 1140.77 L 940.24 1142.64 L 938.14 1143.88 L 937.46 1145.44 L 937.99 1146.13 L 941.50 1146.53 L 948.02 1146.73 L 952.80 1147.81 L 958.53 1148.43 L 962.99 1148.22 L 967.07 1148.33 L 963.20 1151.20 L 958.83 1153.78 L 951.29 1160.52 L 950.78 1161.70 L 951.08 1163.06 L 954.73 1163.50 L 958.11 1163.31 L 964.12 1161.00 L 967.31 1160.13 L 971.44 1162.30 L 975.95 1162.55 L 979.09 1161.93 L 986.44 1162.14 L 992.66 1160.09 L 997.01 1157.92 L 1000.84 1157.01 L 1009.94 1154.32 L 1016.48 1151.65 L 1018.95 1149.09 L 1020.26 1146.77 L 1021.95 1143.30 L 1025.73 1140.84 L 1026.57 1142.81 L 1027.13 1144.90 L 1029.04 1146.11 L 1033.01 1145.02 L 1033.67 1146.69 L 1033.76 1148.84 L 1035.79 1149.09 L 1038.48 1149.01 L 1039.12 1150.19 L 1038.37 1151.88 L 1035.90 1155.00 L 1037.62 1156.45 L 1040.22 1157.25 L 1045.91 1158.47 L 1052.42 1159.38 L 1056.75 1159.18 L 1062.19 1158.41 L 1074.42 1158.19 L 1083.89 1157.59 L 1088.43 1157.98 L 1088.45 1159.55 L 1086.44 1161.29 L 1077.40 1166.93 L 1071.31 1171.00 L 1068.01 1175.49 L 1074.93 1176.13 L 1081.08 1174.80 L 1088.45 1177.55 L 1093.55 1175.88 L 1098.86 1174.82 L 1106.08 1176.04 L 1111.55 1176.13 L 1117.35 1176.54 L 1118.93 1178.30 L 1117.75 1180.32 L 1105.41 1186.19 L 1101.36 1187.95 L 1099.75 1190.16 L 1103.08 1190.76 L 1106.32 1191.96 L 1105.01 1192.75 L 1100.93 1195.80 L 1098.27 1198.33 L 1093.74 1200.52 L 1086.87 1204.65 L 1085.72 1206.62 L 1088.29 1207.30 L 1091.91 1207.47 L 1096.32 1205.94 L 1101.92 1207.65 L 1106.29 1208.19 L 1110.59 1207.63 L 1114.18 1208.43 L 1116.49 1210.34 L 1115.87 1212.55 L 1113.73 1214.60 L 1112.19 1216.60 L 1110.75 1221.52 L 1107.20 1227.35 L 1106.13 1229.58 L 1105.25 1233.12 L 1102.99 1235.86 L 1101.09 1239.13 L 1099.64 1244.47 L 1098.68 1249.39 L 1101.38 1263.36 L 1102.00 1265.67 L 1101.30 1267.25 L 1099.51 1270.39 L 1095.13 1284.61 L 1092.02 1296.19 L 1087.73 1305.69 L 1081.18 1319.59 L 1079.58 1326.28 L 1079.14 1334.80 L 1079.04 1347.29 L 1080.22 1354.56 L 1079.79 1363.08 L 1079.04 1368.20 L 1074.53 1372.83 L 1073.78 1376.81 L 1076.36 1384.66 L 1075.60 1388.88 L 1075.93 1392.27 L 1077.43 1397.31 L 1077.64 1407.56 L 1078.72 1422.53 L 1079.90 1426.58 L 1081.29 1430.30 L 1081.51 1433.45 L 1077.54 1435.76 L 1076.14 1443.37 L 1075.28 1452.38 L 1080.76 1456.44 L 1083.76 1460.24 L 1093.63 1464.87 L 1097.28 1466.27 L 1100.61 1471.40 L 1103.98 1474.13" pathLength="1" fill="none" vector-effect="non-scaling-stroke"/>
</svg>
