<svg xmlns="http://www.w3.org/2000/svg" viewBox="-106.9615951 -39.0913011 0.0096640 0.0142033" preserveAspectRatio="xMidYMid meet">
  <path d="M -106.9602862 -39.0901175 L -106.9603238 -39.0900321 L -106.9604438 -39.0899754 L -106.9606086 -39.0899303 L -106.9607898 -39.0898229 L -106.9607241 -39.0897271 L -106.9607455 -39.0895070 L -106.9607288 -39.0894102 L -106.9606845 -39.0893498 L -106.9606000 -39.0892655 L -106.9605953 -39.0891697 L -106.9604478 -39.0890609 L -106.9604270 -39.0889896 L -106.9603504 -39.0889299 L -106.9602661 -39.0888933 L -106.9601678 -39.0888780 L -106.9600689 -39.0888080 L -106.9599610 -39.0887601 L -106.9598342 -39.0887304 L -106.9597035 -39.0887065 L -106.9595922 -39.0887476 L -106.9595030 -39.0886956 L -106.9594279 -39.0886321 L -106.9593300 -39.0885894 L -106.9590913 -39.0884983 L -106.9589820 -39.0884411 L -106.9587084 -39.0882787 L -106.9585608 -39.0882394 L -106.9584160 -39.0881657 L -106.9583114 -39.0881017 L -106.9582551 -39.0880408 L -106.9580023 -39.0879503 L -106.9579230 -39.0879004 L -106.9578642 -39.0878368 L -106.9578266 -39.0877660 L -106.9577817 -39.0877265 L -106.9577562 -39.0876645 L -106.9576697 -39.0876213 L -106.9576371 -39.0875630 L -106.9575765 -39.0875084 L -106.9575175 -39.0874980 L -106.9574742 -39.0875075 L -106.9573539 -39.0874511 L -106.9572015 -39.0874089 L -106.9570079 -39.0874126 L -106.9570595 -39.0873567 L -106.9570910 -39.0872773 L -106.9571249 -39.0872349 L -106.9571896 -39.0871826 L -106.9572426 -39.0871132 L -106.9573626 -39.0869863 L -106.9572989 -39.0869614 L -106.9571091 -39.0869572 L -106.9570240 -39.0869437 L -106.9569334 -39.0869551 L -106.9569718 -39.0868725 L -106.9570535 -39.0868000 L -106.9571511 -39.0866754 L -106.9572030 -39.0866283 L -106.9572556 -39.0865971 L -106.9572725 -39.0865579 L -106.9572594 -39.0865405 L -106.9571715 -39.0865304 L -106.9570085 -39.0865252 L -106.9568892 -39.0864981 L -106.9567458 -39.0864826 L -106.9566344 -39.0864877 L -106.9565324 -39.0864851 L -106.9566290 -39.0864128 L -106.9567383 -39.0863477 L -106.9569269 -39.0861781 L -106.9569395 -39.0861484 L -106.9569321 -39.0861140 L -106.9568409 -39.0861031 L -106.9567564 -39.0861078 L -106.9566062 -39.0861661 L -106.9565264 -39.0861879 L -106.9564231 -39.0861333 L -106.9563105 -39.0861270 L -106.9562320 -39.0861426 L -106.9560483 -39.0861374 L -106.9558927 -39.0861890 L -106.9557841 -39.0862436 L -106.9556882 -39.0862665 L -106.9554609 -39.0863342 L -106.9552973 -39.0864013 L -106.9552356 -39.0864659 L -106.9552027 -39.0865242 L -106.9551605 -39.0866116 L -106.9550660 -39.0866735 L -106.9550451 -39.0866241 L -106.9550311 -39.0865715 L -106.9549834 -39.0865408 L -106.9548842 -39.0865684 L -106.9548675 -39.0865262 L -106.9548654 -39.0864721 L -106.9548145 -39.0864659 L -106.9547474 -39.0864679 L -106.9547313 -39.0864383 L -106.9547501 -39.0863956 L -106.9548118 -39.0863170 L -106.9547689 -39.0862806 L -106.9547039 -39.0862603 L -106.9545617 -39.0862296 L -106.9543988 -39.0862067 L -106.9542908 -39.0862119 L -106.9541547 -39.0862311 L -106.9538489 -39.0862368 L -106.9536122 -39.0862519 L -106.9534989 -39.0862421 L -106.9534982 -39.0862025 L -106.9535485 -39.0861588 L -106.9537745 -39.0860167 L -106.9539267 -39.0859141 L -106.9540092 -39.0858012 L -106.9538362 -39.0857851 L -106.9536826 -39.0858184 L -106.9534982 -39.0857492 L -106.9533708 -39.0857913 L -106.9532380 -39.0858179 L -106.9530576 -39.0857872 L -106.9529208 -39.0857851 L -106.9527760 -39.0857747 L -106.9527365 -39.0857304 L -106.9527660 -39.0856794 L -106.9530744 -39.0855316 L -106.9531756 -39.0854873 L -106.9532159 -39.0854317 L -106.9531327 -39.0854166 L -106.9530516 -39.0853864 L -106.9530844 -39.0853666 L -106.9531864 -39.0852896 L -106.9532528 -39.0852261 L -106.9533661 -39.0851709 L -106.9535378 -39.0850668 L -106.9535666 -39.0850174 L -106.9535022 -39.0850002 L -106.9534117 -39.0849960 L -106.9533017 -39.0850345 L -106.9531616 -39.0849913 L -106.9530523 -39.0849778 L -106.9529450 -39.0849918 L -106.9528551 -39.0849716 L -106.9527975 -39.0849237 L -106.9528129 -39.0848680 L -106.9528665 -39.0848164 L -106.9529048 -39.0847660 L -106.9529410 -39.0846421 L -106.9530295 -39.0844953 L -106.9530563 -39.0844391 L -106.9530784 -39.0843501 L -106.9531348 -39.0842809 L -106.9531824 -39.0841986 L -106.9532186 -39.0840643 L -106.9532427 -39.0839404 L -106.9531750 -39.0835886 L -106.9531596 -39.0835303 L -106.9531770 -39.0834907 L -106.9532219 -39.0834116 L -106.9533312 -39.0830535 L -106.9534090 -39.0827620 L -106.9535163 -39.0825226 L -106.9536799 -39.0821728 L -106.9537201 -39.0820042 L -106.9537309 -39.0817897 L -106.9537335 -39.0814753 L -106.9537040 -39.0812921 L -106.9537148 -39.0810776 L -106.9537335 -39.0809486 L -106.9538462 -39.0808320 L -106.9538650 -39.0807320 L -106.9538006 -39.0805342 L -106.9538194 -39.0804280 L -106.9538113 -39.0803427 L -106.9537738 -39.0802157 L -106.9537684 -39.0799575 L -106.9537416 -39.0795806 L -106.9537121 -39.0794786 L -106.9536772 -39.0793849 L -106.9536718 -39.0793058 L -106.9537711 -39.0792475 L -106.9538060 -39.0790559 L -106.9538274 -39.0788290 L -106.9536906 -39.0787269 L -106.9536155 -39.0786312 L -106.9533688 -39.0785146 L -106.9532776 -39.0784792 L -106.9531944 -39.0783501 L -106.9531101 -39.0782814" pathLength="1" fill="none" stroke="currentColor" vector-effect="non-scaling-stroke"/>
</svg>
