<svg xmlns="http://www.w3.org/2000/svg" viewBox="0 0 2000 2500" preserveAspectRatio="none">
  <path class="trace-underlay" d="M 1254.50 2105.53 L 1250.07 2103.25 L 1250.89 2096.57 L 1247.82 2096.65 L 1246.40 2094.45 L 1233.12 2066.02 L 1219.01 2060.21 L 1192.93 2028.10 L 1188.60 2026.85 L 1173.72 2015.65 L 1171.47 2009.95 L 1165.88 2005.63 L 1162.34 1999.34 L 1148.96 1991.00 L 1146.45 1986.40 L 1149.69 1978.01 L 1149.31 1970.09 L 1146.15 1955.29 L 1142.89 1947.17 L 1132.37 1933.68 L 1124.71 1926.73 L 1110.53 1908.20 L 1101.30 1899.07 L 1100.29 1894.78 L 1094.77 1888.92 L 1090.28 1876.11 L 1087.35 1871.87 L 1087.93 1864.06 L 1086.47 1858.30 L 1082.64 1849.65 L 1079.97 1847.36 L 1068.46 1827.69 L 1064.59 1809.16 L 1057.01 1792.92 L 1051.53 1767.14 L 1046.34 1760.79 L 1049.38 1744.25 L 1049.51 1734.58 L 1052.96 1727.45 L 1049.61 1717.17 L 1052.85 1710.56 L 1058.51 1703.73 L 1059.61 1696.19 L 1067.11 1675.37 L 1080.40 1661.95 L 1084.30 1655.40 L 1087.35 1643.69 L 1096.66 1622.35 L 1098.09 1615.26 L 1096.32 1610.74 L 1097.07 1595.90 L 1092.94 1584.41 L 1094.68 1574.99 L 1097.03 1570.42 L 1096.03 1559.23 L 1097.62 1550.22 L 1101.64 1542.23 L 1086.60 1545.62 L 1090.97 1536.52 L 1093.15 1524.74 L 1089.55 1510.00 L 1088.53 1482.40 L 1081.09 1467.46 L 1072.36 1456.77 L 1071.21 1457.46 L 1072.36 1464.98 L 1068.59 1472.01 L 1064.27 1462.41 L 1058.63 1455.78 L 1048.88 1449.55 L 1044.26 1443.32 L 1042.59 1443.02 L 1045.03 1458.85 L 1041.69 1466.27 L 1034.63 1472.40 L 1033.74 1477.35 L 1025.91 1482.69 L 1023.08 1474.88 L 1018.85 1469.93 L 1022.06 1466.37 L 1022.83 1460.43 L 1018.59 1447.18 L 1017.05 1445.59 L 1012.95 1455.29 L 1009.87 1448.36 L 1001.53 1442.52 L 999.22 1439.26 L 998.19 1439.75 L 998.32 1446.98 L 994.98 1449.55 L 996.27 1456.28 L 995.88 1462.51 L 994.21 1465.58 L 987.16 1459.84 L 982.67 1458.65 L 979.58 1458.95 L 975.74 1464.79 L 969.32 1465.38 L 961.11 1459.74 L 953.15 1449.95 L 948.02 1449.25 L 942.50 1445.49 L 930.83 1442.33 L 926.84 1439.26 L 913.11 1437.78 L 903.49 1440.25 L 892.20 1448.86 L 888.86 1447.67 L 885.01 1426.99 L 882.96 1423.73 L 884.63 1409.68 L 890.79 1401.07 L 893.61 1399.29 L 893.87 1397.41 L 895.79 1397.31 L 897.98 1393.85 L 896.82 1391.77 L 900.41 1388.51 L 932.23 1381.68 L 939.94 1375.75 L 950.03 1362.47 L 959.44 1353.19 L 963.20 1346.33 L 961.10 1343.81 L 941.86 1335.90 L 917.59 1338.20 L 913.34 1336.06 L 912.25 1332.69 L 926.51 1298.52 L 932.51 1295.64 L 946.88 1275.84 L 947.06 1273.16 L 952.86 1271.46 L 964.53 1256.90 L 964.53 1253.66 L 966.63 1251.91 L 966.63 1250.53 L 962.50 1251.14 L 962.66 1249.15 L 968.11 1240.56 L 965.30 1234.86 L 970.75 1224.26 L 972.67 1213.52 L 969.35 1205.95 L 967.79 1194.59 L 963.27 1190.75 L 962.73 1187.69 L 960.23 1184.98 L 955.56 1198.80 L 955.95 1201.68 L 954.78 1202.16 L 947.02 1189.43 L 944.42 1189.07 L 942.49 1195.86 L 942.86 1201.80 L 941.38 1203.96 L 936.31 1199.76 L 931.80 1204.17 L 924.17 1198.44 L 924.35 1193.33 L 914.58 1182.64 L 913.46 1176.92 L 908.04 1174.47 L 903.15 1168.78 L 887.25 1162.57 L 872.88 1163.77 L 859.82 1174.53 L 841.67 1180.24 L 833.77 1191.43 L 831.85 1188.76 L 848.66 1168.48 L 862.00 1157.99 L 870.72 1147.61 L 884.20 1137.81 L 896.47 1118.38 L 906.16 1115.43 L 910.39 1116.22 L 908.96 1109.32 L 911.53 1106.36 L 902.14 1094.33 L 904.46 1086.06 L 901.81 1078.58 L 902.09 1072.64 L 899.01 1070.02 L 898.92 1066.66 L 896.89 1064.15 L 897.50 1062.36 L 891.50 1055.32 L 892.25 1051.57 L 890.08 1049.09 L 888.99 1043.77 L 881.33 1035.78 L 883.74 1033.12 L 880.38 1028.05 L 880.15 1025.28 L 887.48 1017.37 L 887.52 1015.77 L 876.93 1016.72 L 864.44 1024.66 L 862.41 1023.32 L 858.58 1024.30 L 866.00 1014.82 L 864.77 1009.79 L 867.71 1006.29 L 866.15 1004.06 L 867.71 1001.15 L 870.40 1000.05 L 871.82 993.64 L 878.63 982.99 L 880.15 975.41 L 878.96 973.70 L 889.23 965.24 L 895.23 962.21 L 894.05 960.43 L 885.91 959.08 L 890.08 955.69 L 889.27 955.03 L 876.93 954.34 L 875.23 953.35 L 875.51 951.79 L 888.56 936.11 L 893.20 932.50 L 898.07 932.06 L 916.52 935.60 L 903.08 924.26 L 904.46 919.78 L 902.89 916.68 L 910.89 915.70 L 916.37 918.94 L 921.53 905.49 L 921.86 898.82 L 924.98 892.98 L 933.99 887.05 L 942.15 884.89 L 947.20 880.13 L 961.92 879.50 L 977.01 875.52 L 987.53 863.47 L 994.54 859.10 L 1002.65 856.86 L 1009.43 858.91 L 1020.82 870.46 L 1028.13 882.13 L 1031.65 883.53 L 1042.38 881.84 L 1038.10 871.47 L 1040.04 858.61 L 1049.85 849.09 L 1051.77 845.52 L 1086.40 846.65 L 1096.61 848.91 L 1098.74 850.77 L 1105.03 851.17 L 1116.90 848.76 L 1121.77 850.18 L 1146.55 848.62 L 1161.12 851.57 L 1175.33 850.66 L 1187.89 846.83 L 1207.14 845.37 L 1216.26 841.51 L 1225.95 831.55 L 1231.06 822.58 L 1237.07 819.04 L 1240.36 815.24 L 1258.06 813.68 L 1271.38 806.14 L 1279.95 804.70 L 1287.67 795.32 L 1287.91 793.21 L 1291.27 790.78 L 1317.92 786.95 L 1324.18 781.45 L 1328.16 780.30 L 1337.71 764.05 L 1334.33 753.87 L 1309.89 729.04 L 1306.77 724.28 L 1306.44 716.53" pathLength="1" fill="none" vector-effect="non-scaling-stroke"/>
  <path class="trace-line" d="M 1254.50 2105.53 L 1250.07 2103.25 L 1250.89 2096.57 L 1247.82 2096.65 L 1246.40 2094.45 L 1233.12 2066.02 L 1219.01 2060.21 L 1192.93 2028.10 L 1188.60 2026.85 L 1173.72 2015.65 L 1171.47 2009.95 L 1165.88 2005.63 L 1162.34 1999.34 L 1148.96 1991.00 L 1146.45 1986.40 L 1149.69 1978.01 L 1149.31 1970.09 L 1146.15 1955.29 L 1142.89 1947.17 L 1132.37 1933.68 L 1124.71 1926.73 L 1110.53 1908.20 L 1101.30 1899.07 L 1100.29 1894.78 L 1094.77 1888.92 L 1090.28 1876.11 L 1087.35 1871.87 L 1087.93 1864.06 L 1086.47 1858.30 L 1082.64 1849.65 L 1079.97 1847.36 L 1068.46 1827.69 L 1064.59 1809.16 L 1057.01 1792.92 L 1051.53 1767.14 L 1046.34 1760.79 L 1049.38 1744.25 L 1049.51 1734.58 L 1052.96 1727.45 L 1049.61 1717.17 L 1052.85 1710.56 L 1058.51 1703.73 L 1059.61 1696.19 L 1067.11 1675.37 L 1080.40 1661.95 L 1084.30 1655.40 L 1087.35 1643.69 L 1096.66 1622.35 L 1098.09 1615.26 L 1096.32 1610.74 L 1097.07 1595.90 L 1092.94 1584.41 L 1094.68 1574.99 L 1097.03 1570.42 L 1096.03 1559.23 L 1097.62 1550.22 L 1101.64 1542.23 L 1086.60 1545.62 L 1090.97 1536.52 L 1093.15 1524.74 L 1089.55 1510.00 L 1088.53 1482.40 L 1081.09 1467.46 L 1072.36 1456.77 L 1071.21 1457.46 L 1072.36 1464.98 L 1068.59 1472.01 L 1064.27 1462.41 L 1058.63 1455.78 L 1048.88 1449.55 L 1044.26 1443.32 L 1042.59 1443.02 L 1045.03 1458.85 L 1041.69 1466.27 L 1034.63 1472.40 L 1033.74 1477.35 L 1025.91 1482.69 L 1023.08 1474.88 L 1018.85 1469.93 L 1022.06 1466.37 L 1022.83 1460.43 L 1018.59 1447.18 L 1017.05 1445.59 L 1012.95 1455.29 L 1009.87 1448.36 L 1001.53 1442.52 L 999.22 1439.26 L 998.19 1439.75 L 998.32 1446.98 L 994.98 1449.55 L 996.27 1456.28 L 995.88 1462.51 L 994.21 1465.58 L 987.16 1459.84 L 982.67 1458.65 L 979.58 1458.95 L 975.74 1464.79 L 969.32 1465.38 L 961.11 1459.74 L 953.15 1449.95 L 948.02 1449.25 L 942.50 1445.49 L 930.83 1442.33 L 926.84 1439.26 L 913.11 1437.78 L 903.49 1440.25 L 892.20 1448.86 L 888.86 1447.67 L 885.01 1426.99 L 882.96 1423.73 L 884.63 1409.68 L 890.79 1401.07 L 893.61 1399.29 L 893.87 1397.41 L 895.79 1397.31 L 897.98 1393.85 L 896.82 1391.77 L 900.41 1388.51 L 932.23 1381.68 L 939.94 1375.75 L 950.03 1362.47 L 959.44 1353.19 L 963.20 1346.33 L 961.10 1343.81 L 941.86 1335.90 L 917.59 1338.20 L 913.34 1336.06 L 912.25 1332.69 L 926.51 1298.52 L 932.51 1295.64 L 946.88 1275.84 L 947.06 1273.16 L 952.86 1271.46 L 964.53 1256.90 L 964.53 1253.66 L 966.63 1251.91 L 966.63 1250.53 L 962.50 1251.14 L 962.66 1249.15 L 968.11 1240.56 L 965.30 1234.86 L 970.75 1224.26 L 972.67 1213.52 L 969.35 1205.95 L 967.79 1194.59 L 963.27 1190.75 L 962.73 1187.69 L 960.23 1184.98 L 955.56 1198.80 L 955.95 1201.68 L 954.78 1202.16 L 947.02 1189.43 L 944.42 1189.07 L 942.49 1195.86 L 942.86 1201.80 L 941.38 1203.96 L 936.31 1199.76 L 931.80 1204.17 L 924.17 1198.44 L 924.35 1193.33 L 914.58 1182.64 L 913.46 1176.92 L 908.04 1174.47 L 903.15 1168.78 L 887.25 1162.57 L 872.88 1163.77 L 859.82 1174.53 L 841.67 1180.24 L 833.77 1191.43 L 831.85 1188.76 L 848.66 1168.48 L 862.00 1157.99 L 870.72 1147.61 L 884.20 1137.81 L 896.47 1118.38 L 906.16 1115.43 L 910.39 1116.22 L 908.96 1109.32 L 911.53 1106.36 L 902.14 1094.33 L 904.46 1086.06 L 901.81 1078.58 L 902.09 1072.64 L 899.01 1070.02 L 898.92 1066.66 L 896.89 1064.15 L 897.50 1062.36 L 891.50 1055.32 L 892.25 1051.57 L 890.08 1049.09 L 888.99 1043.77 L 881.33 1035.78 L 883.74 1033.12 L 880.38 1028.05 L 880.15 1025.28 L 887.48 1017.37 L 887.52 1015.77 L 876.93 1016.72 L 864.44 1024.66 L 862.41 1023.32 L 858.58 1024.30 L 866.00 1014.82 L 864.77 1009.79 L 867.71 1006.29 L 866.15 1004.06 L 867.71 1001.15 L 870.40 1000.05 L 871.82 993.64 L 878.63 982.99 L 880.15 975.41 L 878.96 973.70 L 889.23 965.24 L 895.23 962.21 L 894.05 960.43 L 885.91 959.08 L 890.08 955.69 L 889.27 955.03 L 876.93 954.34 L 875.23 953.35 L 875.51 951.79 L 888.56 936.11 L 893.20 932.50 L 898.07 932.06 L 916.52 935.60 L 903.08 924.26 L 904.46 919.78 L 902.89 916.68 L 910.89 915.70 L 916.37 918.94 L 921.53 905.49 L 921.86 898.82 L 924.98 892.98 L 933.99 887.05 L 942.15 884.89 L 947.20 880.13 L 961.92 879.50 L 977.01 875.52 L 987.53 863.47 L 994.54 859.10 L 1002.65 856.86 L 1009.43 858.91 L 1020.82 870.46 L 1028.13 882.13 L 1031.65 883.53 L 1042.38 881.84 L 1038.10 871.47 L 1040.04 858.61 L 1049.85 849.09 L 1051.77 845.52 L 1086.40 846.65 L 1096.61 848.91 L 1098.74 850.77 L 1105.03 851.17 L 1116.90 848.76 L 1121.77 850.18 L 1146.55 848.62 L 1161.12 851.57 L 1175.33 850.66 L 1187.89 846.83 L 1207.14 845.37 L 1216.26 841.51 L 1225.95 831.55 L 1231.06 822.58 L 1237.07 819.04 L 1240.36 815.24 L 1258.06 813.68 L 1271.38 806.14 L 1279.95 804.70 L 1287.67 795.32 L 1287.91 793.21 L 1291.27 790.78 L 1317.92 786.95 L 1324.18 781.45 L 1328.16 780.30 L 1337.71 764.05 L 1334.33 753.87 L 1309.89 729.04 L 1306.77 724.28 L 1306.44 716.53" pathLength="1" fill="none" vector-effect="non-scaling-stroke"/>
</svg>
