<svg xmlns="http://www.w3.org/2000/svg" viewBox="0 0 1600 900" preserveAspectRatio="xMidYMid slice">
  <path class="trace-line" d="M 908.67 1026.59 L 905.83 1024.70 L 906.36 1019.15 L 904.39 1019.22 L 903.48 1017.39 L 894.98 993.79 L 885.95 988.97 L 869.24 962.30 L 866.47 961.27 L 856.95 951.97 L 855.51 947.24 L 851.93 943.65 L 849.66 938.43 L 841.10 931.51 L 839.49 927.68 L 841.56 920.72 L 841.32 914.15 L 837.21 895.12 L 810.58 855.18 L 809.93 851.62 L 806.40 846.75 L 801.65 832.60 L 801.09 821.33 L 789.55 795.92 L 787.08 780.54 L 782.22 767.05 L 778.71 745.65 L 775.39 740.38 L 777.42 718.62 L 779.63 712.70 L 777.48 704.16 L 783.18 693.00 L 788.69 669.46 L 797.20 658.32 L 799.70 652.88 L 808.53 619.56 L 807.39 615.81 L 807.87 603.48 L 805.23 593.94 L 807.84 582.33 L 807.20 573.03 L 808.22 565.56 L 810.79 558.93 L 801.17 561.74 L 803.96 554.18 L 805.36 544.40 L 803.06 532.16 L 802.40 509.25 L 797.64 496.84 L 792.05 487.97 L 792.05 494.79 L 789.64 500.62 L 786.87 492.66 L 783.26 487.15 L 777.01 481.98 L 772.99 476.56 L 774.55 489.70 L 772.41 495.86 L 767.89 500.95 L 767.32 505.06 L 762.31 509.49 L 760.50 503.00 L 757.79 498.90 L 759.84 495.94 L 760.34 491.01 L 757.63 480.01 L 756.64 478.69 L 754.01 486.74 L 752.04 480.99 L 745.22 473.43 L 744.64 479.84 L 742.51 481.98 L 743.33 487.56 L 742.01 495.28 L 737.50 490.52 L 734.62 489.53 L 732.65 489.78 L 730.18 494.63 L 726.08 495.12 L 720.82 490.44 L 715.73 482.31 L 712.44 481.73 L 708.91 478.61 L 701.43 475.98 L 698.88 473.43 L 690.09 472.20 L 683.93 474.25 L 676.70 481.40 L 674.56 480.42 L 672.10 463.25 L 670.78 460.54 L 671.85 448.87 L 677.77 438.69 L 679.00 438.61 L 680.40 435.73 L 679.66 434.01 L 681.96 431.30 L 702.33 425.63 L 707.26 420.70 L 719.75 401.98 L 722.16 396.28 L 720.81 394.19 L 708.50 387.63 L 692.96 389.53 L 690.24 387.75 L 689.54 384.96 L 698.67 356.59 L 702.51 354.19 L 711.71 337.75 L 711.83 335.53 L 715.54 334.12 L 723.01 322.03 L 723.01 319.34 L 724.35 317.89 L 724.35 316.75 L 721.71 317.25 L 721.81 315.60 L 725.30 308.47 L 723.51 303.73 L 726.99 294.94 L 728.22 286.01 L 726.10 279.73 L 725.10 270.31 L 722.21 267.11 L 720.26 262.33 L 716.77 276.59 L 711.80 266.02 L 710.13 265.72 L 708.19 278.08 L 704.94 274.59 L 702.06 278.26 L 697.17 273.49 L 697.29 269.26 L 691.03 260.38 L 690.31 255.63 L 686.84 253.60 L 683.71 248.87 L 673.53 243.72 L 664.33 244.71 L 655.97 253.65 L 644.35 258.39 L 639.29 267.68 L 638.06 265.46 L 648.82 248.62 L 657.36 239.92 L 662.95 231.29 L 671.58 223.16 L 679.44 207.03 L 685.64 204.58 L 688.34 205.24 L 687.43 199.51 L 689.08 197.05 L 683.06 187.07 L 684.55 180.19 L 682.85 173.99 L 683.03 169.06 L 681.06 166.88 L 680.10 160.52 L 676.25 154.68 L 676.73 151.56 L 674.64 145.08 L 669.74 138.45 L 671.28 136.24 L 668.98 129.74 L 673.71 121.84 L 666.92 122.63 L 658.93 129.22 L 657.63 128.10 L 655.17 128.92 L 659.93 121.05 L 659.14 116.87 L 661.02 113.97 L 660.02 112.12 L 662.74 108.79 L 663.65 103.46 L 668.01 94.63 L 668.98 88.33 L 668.22 86.91 L 678.64 77.37 L 677.88 75.89 L 672.68 74.77 L 674.83 71.41 L 666.92 70.84 L 666.01 68.72 L 677.34 52.71 L 680.46 52.34 L 692.27 55.28 L 683.67 45.87 L 684.55 42.15 L 683.55 39.57 L 688.66 38.76 L 692.18 41.45 L 697.69 19.90 L 703.46 14.97 L 708.68 13.18 L 711.91 9.23 L 721.34 8.71 L 731.00 5.40 L 737.74 -4.60 L 742.22 -8.23 L 747.42 -10.09 L 751.76 -8.39 L 759.05 1.20 L 763.73 10.89 L 765.98 12.05 L 772.86 10.65 L 770.12 2.04 L 771.36 -8.64 L 778.87 -19.51 L 801.04 -18.57 L 807.58 -16.69 L 808.94 -15.15 L 812.97 -14.82 L 820.57 -16.81 L 823.69 -15.63 L 839.55 -16.93 L 848.88 -14.48 L 857.98 -15.24 L 866.02 -18.42 L 878.35 -19.63 L 884.18 -22.84 L 890.39 -31.10 L 893.66 -38.55 L 899.61 -44.65 L 910.95 -45.94 L 919.47 -52.20 L 924.96 -53.40 L 932.21 -64.95 L 949.27 -68.13 L 953.28 -72.70 L 955.83 -73.65 L 961.94 -87.15 L 959.78 -95.60 L 944.13 -116.22 L 942.13 -120.17 L 941.93 -126.59" pathLength="1" fill="none" vector-effect="non-scaling-stroke"/>
  <circle class="trace-start" cx="908.67" cy="1026.59" r="4.62"/>
  <circle class="trace-summit-halo" cx="941.00" cy="-126.06" r="11.79"/>
  <circle class="trace-summit" cx="941.00" cy="-126.06" r="6.67"/>
</svg>
