<svg xmlns="http://www.w3.org/2000/svg" viewBox="0 0 2000 2500" preserveAspectRatio="xMidYMid slice">
  <path class="trace-line" d="M 1147.16 2031.25 L 1143.32 2028.68 L 1144.03 2021.16 L 1141.36 2021.26 L 1140.13 2018.78 L 1128.62 1986.80 L 1116.39 1980.27 L 1093.77 1944.14 L 1090.02 1942.74 L 1077.12 1930.14 L 1075.17 1923.73 L 1070.32 1918.87 L 1067.25 1911.79 L 1055.65 1902.41 L 1053.48 1897.23 L 1056.28 1887.80 L 1055.95 1878.89 L 1050.39 1853.11 L 1014.33 1799.00 L 1013.45 1794.17 L 1008.66 1787.58 L 1002.23 1768.40 L 1001.47 1753.13 L 985.85 1718.70 L 982.50 1697.86 L 975.92 1679.59 L 971.17 1650.58 L 966.67 1643.45 L 969.42 1613.96 L 972.41 1605.94 L 969.51 1594.37 L 977.23 1579.25 L 984.69 1547.36 L 996.20 1532.26 L 999.59 1524.89 L 1011.54 1479.74 L 1010.01 1474.66 L 1010.66 1457.96 L 1007.08 1445.03 L 1010.62 1429.30 L 1009.76 1416.70 L 1011.14 1406.57 L 1014.62 1397.59 L 1001.58 1401.40 L 1005.37 1391.16 L 1007.26 1377.91 L 1004.14 1361.33 L 1003.25 1330.28 L 996.80 1313.47 L 989.23 1301.45 L 989.23 1310.69 L 985.97 1318.59 L 982.22 1307.80 L 977.33 1300.34 L 968.87 1293.33 L 963.42 1285.98 L 965.54 1303.79 L 962.64 1312.13 L 956.52 1319.03 L 955.75 1324.60 L 948.96 1330.61 L 946.51 1321.82 L 942.84 1316.25 L 945.62 1312.25 L 946.29 1305.57 L 942.62 1290.66 L 941.28 1288.88 L 937.72 1299.78 L 935.05 1291.99 L 925.82 1281.75 L 925.04 1290.43 L 922.15 1293.33 L 923.26 1300.90 L 921.48 1311.36 L 915.36 1304.90 L 911.47 1303.57 L 908.80 1303.90 L 905.46 1310.47 L 899.89 1311.13 L 892.77 1304.79 L 885.88 1293.77 L 881.43 1292.99 L 876.64 1288.76 L 866.52 1285.20 L 863.07 1281.75 L 851.16 1280.08 L 842.82 1282.86 L 833.03 1292.55 L 830.14 1291.21 L 826.80 1267.95 L 825.02 1264.28 L 826.47 1248.47 L 834.48 1234.68 L 836.15 1234.57 L 838.04 1230.67 L 837.04 1228.33 L 840.15 1224.66 L 867.74 1216.98 L 874.42 1210.30 L 891.33 1184.93 L 894.59 1177.21 L 892.77 1174.38 L 876.09 1165.49 L 855.05 1168.07 L 851.36 1165.66 L 850.42 1161.87 L 862.78 1123.43 L 867.98 1120.19 L 880.44 1097.91 L 880.60 1094.91 L 885.63 1092.99 L 895.74 1076.61 L 895.74 1072.97 L 897.56 1071.00 L 897.56 1069.45 L 893.98 1070.13 L 894.12 1067.90 L 898.85 1058.24 L 896.41 1051.82 L 901.13 1039.90 L 902.80 1027.81 L 899.92 1019.29 L 898.57 1006.52 L 894.65 1002.20 L 892.02 995.71 L 887.29 1015.04 L 880.56 1000.72 L 878.31 1000.31 L 875.67 1017.06 L 871.27 1012.33 L 867.37 1017.30 L 860.75 1010.85 L 860.91 1005.11 L 852.44 993.08 L 851.46 986.65 L 846.77 983.89 L 842.53 977.48 L 828.74 970.50 L 816.28 971.85 L 804.96 983.96 L 789.22 990.38 L 782.37 1002.96 L 780.70 999.96 L 795.28 977.14 L 806.85 965.35 L 814.41 953.67 L 826.09 942.65 L 836.74 920.79 L 845.13 917.47 L 848.80 918.37 L 847.57 910.60 L 849.79 907.26 L 841.65 893.74 L 843.66 884.43 L 841.36 876.02 L 841.61 869.34 L 838.94 866.39 L 837.63 857.77 L 832.42 849.86 L 833.07 845.63 L 830.25 836.86 L 823.60 827.88 L 825.70 824.88 L 822.58 816.06 L 828.98 805.36 L 819.79 806.43 L 808.96 815.37 L 807.20 813.85 L 803.88 814.96 L 810.32 804.29 L 809.25 798.63 L 811.79 794.70 L 810.44 792.19 L 814.13 787.68 L 815.36 780.47 L 821.27 768.49 L 822.58 759.96 L 821.55 758.03 L 835.66 745.12 L 834.63 743.11 L 827.58 741.59 L 830.49 737.04 L 819.79 736.26 L 818.56 733.39 L 833.90 711.69 L 838.12 711.20 L 854.11 715.18 L 842.47 702.43 L 843.66 697.38 L 842.30 693.89 L 849.23 692.79 L 853.99 696.44 L 861.45 667.24 L 869.27 660.56 L 876.34 658.14 L 880.72 652.78 L 893.48 652.08 L 906.56 647.60 L 915.69 634.04 L 921.76 629.12 L 928.80 626.61 L 934.67 628.91 L 944.54 641.90 L 950.88 655.03 L 953.93 656.60 L 963.24 654.71 L 959.53 643.04 L 961.21 628.57 L 971.39 613.85 L 1001.40 615.12 L 1010.26 617.66 L 1012.11 619.75 L 1017.56 620.20 L 1027.85 617.50 L 1032.08 619.09 L 1053.56 617.33 L 1066.19 620.65 L 1078.51 619.63 L 1089.40 615.32 L 1106.10 613.67 L 1114.00 609.34 L 1122.40 598.13 L 1126.83 588.05 L 1134.89 579.78 L 1150.24 578.03 L 1161.79 569.54 L 1169.22 567.93 L 1179.04 552.27 L 1202.14 547.96 L 1207.57 541.77 L 1211.02 540.48 L 1219.30 522.20 L 1216.37 510.75 L 1195.18 482.81 L 1192.47 477.46 L 1192.19 468.75" pathLength="1" fill="none" vector-effect="non-scaling-stroke"/>
  <circle class="trace-start" cx="1147.16" cy="2031.25" r="6.25"/>
  <circle class="trace-summit-halo" cx="1190.94" cy="469.47" r="15.97"/>
  <circle class="trace-summit" cx="1190.94" cy="469.47" r="9.03"/>
</svg>
