<svg xmlns="http://www.w3.org/2000/svg" viewBox="-107.6134394 -37.6322019 0.0203290 0.0573582" preserveAspectRatio="xMidYMid meet">
  <path d="M -107.5975910 -37.5796236 L -107.5977393 -37.5797023 L -107.5977118 -37.5799322 L -107.5978148 -37.5799292 L -107.5978623 -37.5800051 L -107.5983069 -37.5809834 L -107.5987795 -37.5811831 L -107.5996531 -37.5822884 L -107.5997980 -37.5823312 L -107.6002963 -37.5827167 L -107.6003716 -37.5829128 L -107.6005589 -37.5830614 L -107.6006773 -37.5832781 L -107.6011253 -37.5835648 L -107.6012094 -37.5837233 L -107.6011009 -37.5840120 L -107.6011138 -37.5842845 L -107.6012195 -37.5847938 L -107.6013286 -37.5850732 L -107.6024125 -37.5864143 L -107.6027215 -37.5867285 L -107.6027554 -37.5868762 L -107.6029403 -37.5870778 L -107.6030906 -37.5875187 L -107.6031886 -37.5876646 L -107.6031693 -37.5879331 L -107.6032181 -37.5881315 L -107.6033466 -37.5884292 L -107.6034360 -37.5885078 L -107.6038213 -37.5891849 L -107.6039509 -37.5898224 L -107.6042049 -37.5903813 L -107.6043884 -37.5912686 L -107.6045622 -37.5914868 L -107.6044603 -37.5920563 L -107.6044561 -37.5923889 L -107.6043405 -37.5926343 L -107.6044527 -37.5929881 L -107.6043440 -37.5932155 L -107.6041546 -37.5934506 L -107.6041176 -37.5937100 L -107.6038664 -37.5944264 L -107.6034215 -37.5948881 L -107.6032908 -37.5951137 L -107.6028290 -37.5964949 L -107.6028883 -37.5966504 L -107.6028632 -37.5971611 L -107.6030016 -37.5975566 L -107.6029432 -37.5978806 L -107.6028646 -37.5980379 L -107.6028981 -37.5984232 L -107.6028447 -37.5987332 L -107.6027103 -37.5990080 L -107.6032138 -37.5988915 L -107.6030676 -37.5992047 L -107.6029946 -37.5996099 L -107.6031149 -37.6001172 L -107.6031493 -37.6010671 L -107.6033985 -37.6015812 L -107.6036908 -37.6019489 L -107.6037294 -37.6019251 L -107.6036908 -37.6016663 L -107.6038169 -37.6014245 L -107.6039615 -37.6017548 L -107.6041506 -37.6019829 L -107.6044772 -37.6021974 L -107.6046319 -37.6024119 L -107.6046877 -37.6024221 L -107.6046061 -37.6018774 L -107.6047178 -37.6016221 L -107.6049542 -37.6014110 L -107.6049842 -37.6012407 L -107.6052464 -37.6010569 L -107.6053409 -37.6013259 L -107.6054827 -37.6014961 L -107.6053753 -37.6016187 L -107.6053495 -37.6018229 L -107.6054913 -37.6022791 L -107.6055429 -37.6023336 L -107.6056804 -37.6020000 L -107.6057835 -37.6022383 L -107.6060628 -37.6024392 L -107.6061402 -37.6025515 L -107.6061746 -37.6025345 L -107.6061703 -37.6022860 L -107.6062820 -37.6021974 L -107.6062390 -37.6019659 L -107.6062519 -37.6017514 L -107.6063078 -37.6016459 L -107.6065441 -37.6018434 L -107.6066945 -37.6018842 L -107.6067977 -37.6018740 L -107.6069266 -37.6016731 L -107.6071415 -37.6016527 L -107.6074165 -37.6018468 L -107.6076829 -37.6021838 L -107.6078548 -37.6022076 L -107.6080396 -37.6023370 L -107.6084306 -37.6024460 L -107.6085639 -37.6025515 L -107.6090237 -37.6026026 L -107.6093460 -37.6025175 L -107.6097241 -37.6022213 L -107.6098359 -37.6022621 L -107.6099648 -37.6029737 L -107.6100335 -37.6030860 L -107.6099777 -37.6035695 L -107.6096683 -37.6039916 L -107.6096038 -37.6039950 L -107.6095307 -37.6041142 L -107.6095694 -37.6041857 L -107.6094491 -37.6042980 L -107.6083834 -37.6045329 L -107.6081255 -37.6047372 L -107.6077876 -37.6051939 L -107.6074724 -37.6055134 L -107.6073463 -37.6057495 L -107.6074168 -37.6058363 L -107.6080609 -37.6061082 L -107.6088737 -37.6060293 L -107.6090160 -37.6061029 L -107.6090525 -37.6062187 L -107.6085751 -37.6073947 L -107.6083742 -37.6074939 L -107.6078931 -37.6081753 L -107.6078868 -37.6082673 L -107.6076926 -37.6083259 L -107.6073020 -37.6088269 L -107.6073020 -37.6089385 L -107.6072316 -37.6089985 L -107.6072316 -37.6090460 L -107.6073698 -37.6090253 L -107.6073646 -37.6090935 L -107.6071820 -37.6093891 L -107.6072759 -37.6095854 L -107.6070937 -37.6099500 L -107.6070291 -37.6103199 L -107.6071404 -37.6105804 L -107.6071926 -37.6109710 L -107.6073439 -37.6111033 L -107.6073622 -37.6112087 L -107.6074457 -37.6113017 L -107.6076022 -37.6108264 L -107.6075892 -37.6107272 L -107.6076283 -37.6107106 L -107.6078882 -37.6111486 L -107.6079753 -37.6111612 L -107.6080399 -37.6109274 L -107.6080274 -37.6107230 L -107.6080770 -37.6106486 L -107.6082470 -37.6107934 L -107.6083978 -37.6106414 L -107.6086536 -37.6108388 L -107.6086473 -37.6110144 L -107.6089745 -37.6113823 L -107.6090121 -37.6115791 L -107.6091936 -37.6116634 L -107.6093573 -37.6118594 L -107.6098900 -37.6120730 L -107.6103711 -37.6120317 L -107.6108085 -37.6116613 L -107.6114164 -37.6114650 L -107.6116809 -37.6110800 L -107.6117453 -37.6111719 L -107.6111824 -37.6118698 L -107.6107355 -37.6122306 L -107.6104433 -37.6125880 L -107.6099921 -37.6129250 L -107.6095810 -37.6135938 L -107.6092566 -37.6136953 L -107.6091151 -37.6136679 L -107.6091627 -37.6139054 L -107.6090767 -37.6140075 L -107.6093913 -37.6144212 L -107.6093137 -37.6147060 L -107.6094024 -37.6149632 L -107.6093929 -37.6151677 L -107.6094959 -37.6152580 L -107.6094990 -37.6153734 L -107.6095671 -37.6154600 L -107.6095465 -37.6155215 L -107.6097477 -37.6157636 L -107.6097224 -37.6158928 L -107.6097952 -37.6159782 L -107.6098316 -37.6161613 L -107.6100882 -37.6164361 L -107.6100074 -37.6165277 L -107.6101278 -37.6167974 L -107.6098823 -37.6170696 L -107.6098807 -37.6171248 L -107.6102355 -37.6170922 L -107.6106537 -37.6168187 L -107.6107218 -37.6168651 L -107.6108500 -37.6168313 L -107.6106014 -37.6171575 L -107.6106426 -37.6173306 L -107.6105444 -37.6174510 L -107.6105966 -37.6175276 L -107.6105444 -37.6176279 L -107.6104541 -37.6176656 L -107.6104066 -37.6178864 L -107.6101785 -37.6182527 L -107.6101278 -37.6185136 L -107.6101674 -37.6185726 L -107.6098237 -37.6188636 L -107.6096226 -37.6189678 L -107.6096622 -37.6190292 L -107.6099346 -37.6190757 L -107.6097952 -37.6191923 L -107.6098221 -37.6192149 L -107.6102355 -37.6192388 L -107.6102925 -37.6192726 L -107.6102830 -37.6193266 L -107.6098459 -37.6198660 L -107.6096907 -37.6199902 L -107.6095275 -37.6200053 L -107.6089098 -37.6198836 L -107.6093597 -37.6202737 L -107.6093137 -37.6204280 L -107.6093660 -37.6205347 L -107.6090983 -37.6205685 L -107.6089146 -37.6204569 L -107.6087420 -37.6209198 L -107.6087309 -37.6211494 L -107.6086263 -37.6213501 L -107.6083245 -37.6215544 L -107.6080514 -37.6216286 L -107.6078822 -37.6217924 L -107.6073894 -37.6218140 L -107.6068839 -37.6219509 L -107.6065315 -37.6223657 L -107.6062969 -37.6225162 L -107.6060251 -37.6225931 L -107.6057982 -37.6225225 L -107.6054169 -37.6221253 L -107.6051721 -37.6217235 L -107.6050542 -37.6216755 L -107.6046947 -37.6217335 L -107.6048379 -37.6220904 L -107.6047730 -37.6225331 L -107.6044447 -37.6228606 L -107.6043801 -37.6229834 L -107.6032207 -37.6229445 L -107.6028786 -37.6228668 L -107.6028073 -37.6228028 L -107.6025967 -37.6227890 L -107.6021991 -37.6228718 L -107.6020360 -37.6228229 L -107.6012061 -37.6228768 L -107.6007183 -37.6227752 L -107.6002423 -37.6228066 L -107.5998217 -37.6229385 L -107.5991769 -37.6229887 L -107.5988718 -37.6231214 L -107.5985471 -37.6234641 L -107.5983759 -37.6237727 L -107.5981749 -37.6238948 L -107.5980646 -37.6240256 L -107.5974719 -37.6240791 L -107.5970258 -37.6243387 L -107.5967388 -37.6243881 L -107.5964802 -37.6247109 L -107.5964721 -37.6247834 L -107.5963596 -37.6248670 L -107.5954673 -37.6249989 L -107.5952576 -37.6251882 L -107.5951241 -37.6252278 L -107.5948045 -37.6257870 L -107.5949177 -37.6261373 L -107.5957362 -37.6269919 L -107.5958406 -37.6271557 L -107.5958515 -37.6274221" pathLength="1" fill="none" stroke="currentColor" vector-effect="non-scaling-stroke"/>
</svg>
