<svg xmlns="http://www.w3.org/2000/svg" viewBox="0 0 2000 2500" preserveAspectRatio="none">
  <path class="trace-underlay" d="M 566.42 1021.57 L 633.12 1027.58 L 676.71 1032.94 L 698.91 1035.21 L 710.70 1038.84 L 726.60 1045.86 L 738.52 1050.54 L 759.09 1049.10 L 781.76 1049.46 L 815.20 1052.70 L 821.51 1055.04 L 822.91 1064.76 L 821.13 1076.51 L 820.45 1110.94 L 824.76 1143.72 L 831.99 1152.56 L 847.42 1156.16 L 866.95 1159.14 L 911.31 1159.14 L 923.93 1161.18 L 932.27 1166.19 L 933.91 1172.93 L 927.80 1182.49 L 919.86 1190.80 L 914.78 1199.41 L 914.78 1212.73 L 912.53 1218.06 L 904.19 1223.86 L 897.48 1230.28 L 894.63 1236.08 L 893.20 1244.23 L 890.76 1250.03 L 883.63 1256.14 L 875.09 1261.31 L 862.06 1270.25 L 856.17 1271.81 L 845.38 1272.44 L 835.40 1274.63 L 828.49 1277.14 L 824.21 1282.31 L 824.62 1288.11 L 822.99 1292.18 L 820.75 1296.41 L 816.89 1300.02 L 813.42 1302.37 L 811.19 1306.28 L 809.76 1309.89 L 806.50 1313.18 L 805.48 1318.66 L 803.86 1323.99 L 800.20 1329.32 L 795.31 1333.86 L 792.46 1337.78 L 791.65 1341.23 L 786.35 1346.08 L 782.29 1350.48 L 781.68 1355.33 L 783.71 1357.84 L 783.71 1361.60 L 784.32 1366.46 L 788.19 1369.44 L 792.87 1372.26 L 794.50 1375.71 L 794.29 1380.09 L 790.43 1384.17 L 788.60 1393.10 L 787.78 1399.84 L 791.59 1407.15 L 798.89 1408.15 L 809.07 1408.40 L 815.86 1405.55 L 820.49 1400.32 L 830.98 1394.38 L 844.86 1388.68 L 855.34 1383.22 L 861.82 1378.95 L 872.30 1374.91 L 885.88 1373.01 L 921.97 1360.65 L 931.22 1358.04 L 939.86 1354.00 L 951.27 1353.05 L 960.83 1353.76 L 975.33 1354.00 L 986.75 1349.97 L 1000.63 1347.82 L 1013.28 1347.82 L 1020.68 1346.88 L 1026.23 1343.32 L 1028.09 1337.86 L 1033.64 1335.72 L 1041.04 1336.19 L 1046.90 1338.56 L 1056.15 1341.18 L 1068.49 1341.18 L 1079.91 1336.91 L 1097.80 1326.21 L 1102.43 1318.85 L 1107.36 1314.81 L 1117.54 1313.86 L 1126.18 1311.25 L 1134.50 1311.25 L 1141.29 1308.17 L 1149.00 1305.55 L 1171.53 1303.18 L 1178.92 1298.19 L 1188.49 1294.15 L 1201.14 1292.96 L 1213.78 1290.35 L 1224.27 1284.41 L 1252.03 1274.44 L 1288.43 1262.32 L 1326.68 1248.31 L 1346.42 1244.27 L 1362.16 1237.14 L 1384.06 1222.42 L 1404.72 1207.93 L 1434.64 1196.53 L 1460.25 1188.45 L 1470.43 1181.33 L 1475.98 1166.84 L 1480.61 1148.79 L 1482.15 1126.47 L 1488.32 1110.79 L 1505.57 1094.60 L 1574.25 1057.30 L 1605.80 1051.53 L 1630.32 1041.20 L 1642.37 1034.04 L 1646.42 1027.37 L 1645.60 1021.99 L 1656.28 1019.73 L 1667.07 1019.04 L 1671.66 1021.13 L 1677.59 1037.55" pathLength="1" fill="none" vector-effect="non-scaling-stroke"/>
  <path class="trace-line" d="M 566.42 1021.57 L 633.12 1027.58 L 676.71 1032.94 L 698.91 1035.21 L 710.70 1038.84 L 726.60 1045.86 L 738.52 1050.54 L 759.09 1049.10 L 781.76 1049.46 L 815.20 1052.70 L 821.51 1055.04 L 822.91 1064.76 L 821.13 1076.51 L 820.45 1110.94 L 824.76 1143.72 L 831.99 1152.56 L 847.42 1156.16 L 866.95 1159.14 L 911.31 1159.14 L 923.93 1161.18 L 932.27 1166.19 L 933.91 1172.93 L 927.80 1182.49 L 919.86 1190.80 L 914.78 1199.41 L 914.78 1212.73 L 912.53 1218.06 L 904.19 1223.86 L 897.48 1230.28 L 894.63 1236.08 L 893.20 1244.23 L 890.76 1250.03 L 883.63 1256.14 L 875.09 1261.31 L 862.06 1270.25 L 856.17 1271.81 L 845.38 1272.44 L 835.40 1274.63 L 828.49 1277.14 L 824.21 1282.31 L 824.62 1288.11 L 822.99 1292.18 L 820.75 1296.41 L 816.89 1300.02 L 813.42 1302.37 L 811.19 1306.28 L 809.76 1309.89 L 806.50 1313.18 L 805.48 1318.66 L 803.86 1323.99 L 800.20 1329.32 L 795.31 1333.86 L 792.46 1337.78 L 791.65 1341.23 L 786.35 1346.08 L 782.29 1350.48 L 781.68 1355.33 L 783.71 1357.84 L 783.71 1361.60 L 784.32 1366.46 L 788.19 1369.44 L 792.87 1372.26 L 794.50 1375.71 L 794.29 1380.09 L 790.43 1384.17 L 788.60 1393.10 L 787.78 1399.84 L 791.59 1407.15 L 798.89 1408.15 L 809.07 1408.40 L 815.86 1405.55 L 820.49 1400.32 L 830.98 1394.38 L 844.86 1388.68 L 855.34 1383.22 L 861.82 1378.95 L 872.30 1374.91 L 885.88 1373.01 L 921.97 1360.65 L 931.22 1358.04 L 939.86 1354.00 L 951.27 1353.05 L 960.83 1353.76 L 975.33 1354.00 L 986.75 1349.97 L 1000.63 1347.82 L 1013.28 1347.82 L 1020.68 1346.88 L 1026.23 1343.32 L 1028.09 1337.86 L 1033.64 1335.72 L 1041.04 1336.19 L 1046.90 1338.56 L 1056.15 1341.18 L 1068.49 1341.18 L 1079.91 1336.91 L 1097.80 1326.21 L 1102.43 1318.85 L 1107.36 1314.81 L 1117.54 1313.86 L 1126.18 1311.25 L 1134.50 1311.25 L 1141.29 1308.17 L 1149.00 1305.55 L 1171.53 1303.18 L 1178.92 1298.19 L 1188.49 1294.15 L 1201.14 1292.96 L 1213.78 1290.35 L 1224.27 1284.41 L 1252.03 1274.44 L 1288.43 1262.32 L 1326.68 1248.31 L 1346.42 1244.27 L 1362.16 1237.14 L 1384.06 1222.42 L 1404.72 1207.93 L 1434.64 1196.53 L 1460.25 1188.45 L 1470.43 1181.33 L 1475.98 1166.84 L 1480.61 1148.79 L 1482.15 1126.47 L 1488.32 1110.79 L 1505.57 1094.60 L 1574.25 1057.30 L 1605.80 1051.53 L 1630.32 1041.20 L 1642.37 1034.04 L 1646.42 1027.37 L 1645.60 1021.99 L 1656.28 1019.73 L 1667.07 1019.04 L 1671.66 1021.13 L 1677.59 1037.55" pathLength="1" fill="none" vector-effect="non-scaling-stroke"/>
</svg>
