<svg xmlns="http://www.w3.org/2000/svg" viewBox="0 0 1600 900" preserveAspectRatio="xMidYMid slice">
  <path class="trace-line" d="M 207.29 184.26 L 278.30 192.56 L 324.70 199.97 L 348.33 203.12 L 360.88 208.14 L 377.81 217.85 L 390.49 224.32 L 412.40 222.33 L 436.53 222.83 L 472.12 227.31 L 478.84 230.55 L 480.33 243.98 L 478.43 260.23 L 477.71 307.86 L 482.30 353.20 L 489.99 365.41 L 506.42 370.40 L 527.21 374.52 L 574.44 374.52 L 587.87 377.33 L 596.75 384.27 L 598.49 393.59 L 591.98 406.81 L 583.53 418.30 L 578.12 430.21 L 578.12 448.64 L 575.73 456.01 L 566.86 464.02 L 559.71 472.91 L 556.67 480.93 L 555.16 492.20 L 552.56 500.22 L 544.97 508.67 L 535.87 515.82 L 522.01 528.18 L 515.73 530.34 L 504.24 531.21 L 493.63 534.25 L 486.27 537.72 L 481.72 544.87 L 482.15 552.88 L 480.42 558.52 L 478.03 564.37 L 473.92 569.36 L 470.23 572.61 L 467.85 578.02 L 466.33 583.01 L 462.87 587.55 L 461.78 595.14 L 460.05 602.51 L 456.15 609.88 L 450.95 616.16 L 447.92 621.58 L 447.05 626.35 L 441.42 633.07 L 437.09 639.14 L 436.44 645.85 L 438.60 649.32 L 438.60 654.52 L 439.25 661.25 L 443.37 665.36 L 448.35 669.26 L 450.09 674.03 L 449.87 680.10 L 445.75 685.74 L 443.80 698.09 L 442.94 707.41 L 446.99 717.53 L 454.76 718.91 L 465.60 719.25 L 472.82 715.31 L 477.75 708.07 L 488.92 699.86 L 503.69 691.98 L 514.85 684.43 L 521.75 678.52 L 532.91 672.93 L 547.36 670.30 L 585.78 653.21 L 595.63 649.61 L 604.83 644.02 L 616.97 642.71 L 627.15 643.69 L 642.59 644.02 L 654.74 638.43 L 669.52 635.47 L 682.98 635.47 L 690.86 634.16 L 696.77 629.24 L 698.74 621.69 L 704.65 618.73 L 712.53 619.38 L 718.77 622.67 L 728.62 626.28 L 741.76 626.28 L 753.91 620.37 L 772.95 605.58 L 777.88 595.40 L 783.12 589.82 L 793.96 588.50 L 803.16 584.89 L 812.02 584.89 L 819.24 580.62 L 827.46 577.01 L 837.63 575.36 L 851.43 573.72 L 859.31 566.82 L 869.49 561.24 L 882.95 559.59 L 896.41 555.99 L 907.58 547.77 L 937.13 533.97 L 975.88 517.22 L 1016.60 497.84 L 1037.61 492.26 L 1054.36 482.40 L 1077.67 462.03 L 1099.67 442.00 L 1131.52 426.23 L 1158.78 415.06 L 1169.62 405.20 L 1175.52 385.17 L 1180.45 360.20 L 1182.09 329.33 L 1188.66 307.64 L 1207.03 285.26 L 1280.13 233.67 L 1313.72 225.68 L 1339.82 211.41 L 1352.64 201.50 L 1356.96 192.27 L 1356.08 184.83 L 1367.45 181.70 L 1378.94 180.75 L 1383.83 183.65 L 1390.14 206.35" pathLength="1" fill="none" vector-effect="non-scaling-stroke"/>
  <circle class="trace-start" cx="207.29" cy="184.26" r="5.47"/>
  <circle class="trace-summit-halo" cx="1392.71" cy="207.49" r="13.98"/>
  <circle class="trace-summit" cx="1392.71" cy="207.49" r="7.90"/>
</svg>
