<svg xmlns="http://www.w3.org/2000/svg" viewBox="0 0 2000 2500" preserveAspectRatio="xMidYMid slice">
  <path class="trace-line" d="M 322.92 946.53 L 404.03 956.01 L 457.03 964.48 L 484.03 968.07 L 498.37 973.81 L 517.70 984.89 L 532.20 992.28 L 557.22 990.00 L 584.79 990.58 L 625.45 995.69 L 633.12 999.39 L 634.83 1014.74 L 632.65 1033.29 L 631.83 1087.68 L 637.07 1139.45 L 645.86 1153.40 L 664.62 1159.10 L 688.37 1163.80 L 742.32 1163.80 L 757.67 1167.02 L 767.81 1174.94 L 769.80 1185.58 L 762.37 1200.67 L 752.72 1213.80 L 746.53 1227.40 L 746.53 1248.45 L 743.81 1256.86 L 733.67 1266.01 L 725.50 1276.17 L 722.03 1285.32 L 720.30 1298.20 L 717.33 1307.35 L 708.67 1317.00 L 698.27 1325.16 L 682.43 1339.28 L 675.26 1341.74 L 662.14 1342.74 L 650.01 1346.21 L 641.60 1350.17 L 636.40 1358.33 L 636.90 1367.49 L 634.92 1373.93 L 632.19 1380.60 L 627.49 1386.30 L 623.28 1390.02 L 620.57 1396.19 L 618.83 1401.89 L 614.87 1407.08 L 613.63 1415.75 L 611.66 1424.16 L 607.20 1432.58 L 601.26 1439.75 L 597.79 1445.94 L 596.81 1451.39 L 590.37 1459.06 L 585.42 1466.00 L 584.68 1473.66 L 587.15 1477.62 L 587.15 1483.56 L 587.90 1491.24 L 592.60 1495.94 L 598.29 1500.39 L 600.27 1505.84 L 600.02 1512.77 L 595.32 1519.21 L 593.09 1533.31 L 592.11 1543.95 L 596.73 1555.51 L 605.61 1557.09 L 617.99 1557.47 L 626.24 1552.97 L 631.87 1544.71 L 644.63 1535.33 L 661.51 1526.34 L 674.26 1517.71 L 682.14 1510.96 L 694.89 1504.58 L 711.39 1501.58 L 755.28 1482.06 L 766.54 1477.95 L 777.04 1471.57 L 790.92 1470.07 L 802.54 1471.18 L 820.18 1471.57 L 834.06 1465.19 L 850.94 1461.81 L 866.32 1461.81 L 875.32 1460.31 L 882.07 1454.69 L 884.33 1446.06 L 891.07 1442.68 L 900.08 1443.43 L 907.20 1447.18 L 918.45 1451.31 L 933.46 1451.31 L 947.35 1444.56 L 969.10 1427.67 L 974.73 1416.05 L 980.72 1409.67 L 993.10 1408.17 L 1003.61 1404.04 L 1013.73 1404.04 L 1021.98 1399.17 L 1031.36 1395.04 L 1042.99 1393.16 L 1058.75 1391.29 L 1067.75 1383.41 L 1079.38 1377.03 L 1094.76 1375.15 L 1110.14 1371.03 L 1122.89 1361.65 L 1156.65 1345.90 L 1200.92 1326.76 L 1247.43 1304.63 L 1271.44 1298.25 L 1290.57 1287.00 L 1317.20 1263.74 L 1342.33 1240.87 L 1378.72 1222.86 L 1409.86 1210.10 L 1422.24 1198.84 L 1428.98 1175.97 L 1434.61 1147.45 L 1436.48 1112.20 L 1444.00 1087.43 L 1464.97 1061.87 L 1548.48 1002.95 L 1586.85 993.84 L 1616.68 977.53 L 1631.32 966.22 L 1636.24 955.68 L 1635.25 947.18 L 1648.24 943.61 L 1661.36 942.53 L 1666.94 945.84 L 1674.15 971.76" pathLength="1" fill="none" vector-effect="non-scaling-stroke"/>
  <circle class="trace-start" cx="322.92" cy="946.53" r="6.25"/>
  <circle class="trace-summit-halo" cx="1677.08" cy="973.06" r="15.97"/>
  <circle class="trace-summit" cx="1677.08" cy="973.06" r="9.03"/>
</svg>
