<svg xmlns="http://www.w3.org/2000/svg" viewBox="-108.0074481 -37.8399732 0.0172889 0.0062003" preserveAspectRatio="xMidYMid meet">
  <path class="trace-line" d="M -108.0060074 -37.8394229 L -108.0051444 -37.8393432 L -108.0045805 -37.8392721 L -108.0042933 -37.8392419 L -108.0041407 -37.8391937 L -108.0039350 -37.8391006 L -108.0037808 -37.8390385 L -108.0035146 -37.8390576 L -108.0032213 -37.8390528 L -108.0027887 -37.8390098 L -108.0027071 -37.8389787 L -108.0026889 -37.8388498 L -108.0027120 -37.8386939 L -108.0027208 -37.8382369 L -108.0026650 -37.8378019 L -108.0025715 -37.8376847 L -108.0023719 -37.8376368 L -108.0021192 -37.8375973 L -108.0015452 -37.8375973 L -108.0013819 -37.8375703 L -108.0012740 -37.8375037 L -108.0012529 -37.8374143 L -108.0013319 -37.8372875 L -108.0014346 -37.8371772 L -108.0015004 -37.8370629 L -108.0015004 -37.8368861 L -108.0015294 -37.8368154 L -108.0016373 -37.8367385 L -108.0017242 -37.8366532 L -108.0017611 -37.8365763 L -108.0017795 -37.8364681 L -108.0018111 -37.8363912 L -108.0019033 -37.8363101 L -108.0020139 -37.8362415 L -108.0021824 -37.8361229 L -108.0022587 -37.8361022 L -108.0023983 -37.8360938 L -108.0025273 -37.8360647 L -108.0026168 -37.8360314 L -108.0026721 -37.8359628 L -108.0026668 -37.8358859 L -108.0026879 -37.8358318 L -108.0027169 -37.8357757 L -108.0027669 -37.8357278 L -108.0028117 -37.8356966 L -108.0028406 -37.8356447 L -108.0028591 -37.8355968 L -108.0029012 -37.8355532 L -108.0029144 -37.8354804 L -108.0029354 -37.8354097 L -108.0029828 -37.8353390 L -108.0030460 -37.8352787 L -108.0030829 -37.8352267 L -108.0030934 -37.8351809 L -108.0031619 -37.8351165 L -108.0032145 -37.8350582 L -108.0032224 -37.8349938 L -108.0031961 -37.8349605 L -108.0031961 -37.8349106 L -108.0031882 -37.8348461 L -108.0031382 -37.8348066 L -108.0030776 -37.8347692 L -108.0030565 -37.8347234 L -108.0030592 -37.8346652 L -108.0031092 -37.8346111 L -108.0031329 -37.8344926 L -108.0031434 -37.8344032 L -108.0030942 -37.8343061 L -108.0029997 -37.8342928 L -108.0028680 -37.8342896 L -108.0027802 -37.8343274 L -108.0027203 -37.8343968 L -108.0025846 -37.8344756 L -108.0024050 -37.8345512 L -108.0022694 -37.8346237 L -108.0021855 -37.8346804 L -108.0020499 -37.8347340 L -108.0018743 -37.8347592 L -108.0014073 -37.8349232 L -108.0012876 -37.8349578 L -108.0011758 -37.8350114 L -108.0010282 -37.8350240 L -108.0009045 -37.8350146 L -108.0007169 -37.8350114 L -108.0005692 -37.8350650 L -108.0003896 -37.8350934 L -108.0002260 -37.8350934 L -108.0001302 -37.8351060 L -108.0000584 -37.8351532 L -108.0000344 -37.8352257 L -107.9999626 -37.8352541 L -107.9998668 -37.8352478 L -107.9997910 -37.8352163 L -107.9996713 -37.8351816 L -107.9995116 -37.8351816 L -107.9993639 -37.8352383 L -107.9991325 -37.8353802 L -107.9990726 -37.8354779 L -107.9990088 -37.8355315 L -107.9988771 -37.8355441 L -107.9987653 -37.8355788 L -107.9986576 -37.8355788 L -107.9985698 -37.8356197 L -107.9984700 -37.8356544 L -107.9981786 -37.8356859 L -107.9980829 -37.8357521 L -107.9979591 -37.8358057 L -107.9977955 -37.8358215 L -107.9976319 -37.8358561 L -107.9974962 -37.8359349 L -107.9971370 -37.8360673 L -107.9966661 -37.8362281 L -107.9961712 -37.8364140 L -107.9959158 -37.8364676 L -107.9957122 -37.8365622 L -107.9954289 -37.8367576 L -107.9951615 -37.8369498 L -107.9947744 -37.8371011 L -107.9944431 -37.8372083 L -107.9943114 -37.8373029 L -107.9942396 -37.8374951 L -107.9941797 -37.8377347 L -107.9941598 -37.8380309 L -107.9940799 -37.8382390 L -107.9938567 -37.8384538 L -107.9929682 -37.8389488 L -107.9925600 -37.8390254 L -107.9922427 -37.8391624 L -107.9920869 -37.8392574 L -107.9920345 -37.8393460 L -107.9920451 -37.8394174 L -107.9919069 -37.8394474 L -107.9917673 -37.8394565 L -107.9917079 -37.8394287 L -107.9916312 -37.8392109" pathLength="1" fill="none" stroke="currentColor" vector-effect="non-scaling-stroke"/>
  <circle class="trace-start" cx="-108.0060074" cy="-37.8394229" r="0.0001556"/>
  <circle class="trace-summit-halo" cx="-107.9916000" cy="-37.8392000" r="0.0003968"/>
  <circle class="trace-summit" cx="-107.9916000" cy="-37.8392000" r="0.0002256"/>
</svg>
