<svg xmlns="http://www.w3.org/2000/svg" viewBox="0 0 2000 2500" preserveAspectRatio="xMidYMid slice">
  <path class="trace-line" d="M 1555.67 1557.75 L 1540.76 1536.23 L 1519.55 1518.86 L 1477.72 1489.17 L 1449.12 1455.66 L 1412.00 1435.85 L 1394.96 1429.25 L 1379.01 1413.59 L 1366.92 1386.67 L 1324.85 1370.45 L 1297.91 1354.24 L 1272.06 1345.45 L 1261.60 1334.71 L 1253.65 1318.50 L 1233.29 1298.72 L 1203.60 1281.39 L 1187.92 1286.90 L 1164.84 1286.62 L 1126.89 1284.70 L 1084.82 1269.86 L 1043.31 1251.99 L 1013.89 1234.41 L 999.60 1220.65 L 992.18 1208.57 L 977.32 1201.15 L 927.01 1162.13 L 922.19 1143.82 L 933.83 1125.54 L 955.87 1100.53 L 961.39 1084.06 L 920.14 1024.72 L 857.45 977.44 L 825.57 962.32 L 792.29 951.04 L 739.22 953.53 L 707.61 949.67 L 694.03 946.41 L 672.30 942.25 L 650.33 945.74 L 613.96 947.22 L 587.82 943.13 L 562.17 944.45 L 532.75 948.84 L 512.68 943.36 L 444.33 954.48" pathLength="1" fill="none" vector-effect="non-scaling-stroke"/>
  <circle class="trace-start" cx="1555.67" cy="1557.75" r="9.05"/>
  <circle class="trace-summit-halo" cx="453.76" cy="951.30" r="23.14"/>
  <circle class="trace-summit" cx="453.76" cy="951.30" r="13.08"/>
</svg>
