<svg xmlns="http://www.w3.org/2000/svg" viewBox="0 0 1600 900" preserveAspectRatio="xMidYMid slice">
  <path class="trace-line" d="M 1367.95 765.13 L 1352.72 743.10 L 1331.03 725.30 L 1288.28 694.91 L 1259.05 660.59 L 1221.11 640.31 L 1203.69 633.55 L 1187.39 617.51 L 1175.03 589.94 L 1132.03 573.34 L 1104.50 556.74 L 1078.07 547.73 L 1067.39 536.75 L 1059.26 520.14 L 1038.45 499.89 L 1008.11 482.15 L 992.08 487.79 L 968.48 487.49 L 929.70 485.54 L 886.70 470.34 L 844.27 452.04 L 814.20 434.03 L 799.59 419.95 L 792.01 407.58 L 776.81 399.98 L 725.39 360.02 L 720.47 341.28 L 732.37 322.56 L 754.90 296.95 L 760.53 280.08 L 718.37 219.31 L 654.30 170.91 L 621.71 155.42 L 587.70 143.87 L 533.45 146.42 L 501.14 142.47 L 487.27 139.13 L 465.06 134.87 L 442.60 138.45 L 405.42 139.95 L 378.71 135.77 L 352.49 137.12 L 322.42 141.62 L 301.91 136.01 L 232.05 147.40" pathLength="1" fill="none" vector-effect="non-scaling-stroke"/>
  <circle class="trace-start" cx="1367.95" cy="765.13" r="9.25"/>
  <circle class="trace-summit-halo" cx="241.69" cy="144.14" r="23.65"/>
  <circle class="trace-summit" cx="241.69" cy="144.14" r="13.37"/>
</svg>
