<svg xmlns="http://www.w3.org/2000/svg" viewBox="0 0 2000 2500" preserveAspectRatio="none">
  <path class="trace-underlay" d="M 1104.71 1305.84 L 1101.71 1302.50 L 1097.45 1299.81 L 1089.03 1295.21 L 1083.28 1290.02 L 1075.81 1286.95 L 1072.39 1285.92 L 1069.18 1283.49 L 1066.75 1279.32 L 1058.28 1276.81 L 1052.87 1274.30 L 1047.67 1272.93 L 1045.56 1271.27 L 1043.96 1268.76 L 1039.87 1265.69 L 1033.90 1263.01 L 1030.74 1263.86 L 1026.10 1263.82 L 1018.47 1263.52 L 1010.01 1261.22 L 1001.66 1258.45 L 995.74 1255.72 L 992.87 1253.59 L 991.37 1251.72 L 988.38 1250.57 L 978.26 1244.52 L 977.30 1241.68 L 979.64 1238.85 L 984.07 1234.98 L 985.18 1232.42 L 976.88 1223.22 L 964.27 1215.90 L 957.86 1213.55 L 951.17 1211.81 L 940.49 1212.19 L 934.14 1211.59 L 931.41 1211.09 L 927.04 1210.44 L 922.61 1210.99 L 915.30 1211.21 L 910.04 1210.58 L 904.88 1210.78 L 898.97 1211.47 L 894.93 1210.62 L 881.18 1212.34" pathLength="1" fill="none" vector-effect="non-scaling-stroke"/>
  <path class="trace-line" d="M 1104.71 1305.84 L 1101.71 1302.50 L 1097.45 1299.81 L 1089.03 1295.21 L 1083.28 1290.02 L 1075.81 1286.95 L 1072.39 1285.92 L 1069.18 1283.49 L 1066.75 1279.32 L 1058.28 1276.81 L 1052.87 1274.30 L 1047.67 1272.93 L 1045.56 1271.27 L 1043.96 1268.76 L 1039.87 1265.69 L 1033.90 1263.01 L 1030.74 1263.86 L 1026.10 1263.82 L 1018.47 1263.52 L 1010.01 1261.22 L 1001.66 1258.45 L 995.74 1255.72 L 992.87 1253.59 L 991.37 1251.72 L 988.38 1250.57 L 978.26 1244.52 L 977.30 1241.68 L 979.64 1238.85 L 984.07 1234.98 L 985.18 1232.42 L 976.88 1223.22 L 964.27 1215.90 L 957.86 1213.55 L 951.17 1211.81 L 940.49 1212.19 L 934.14 1211.59 L 931.41 1211.09 L 927.04 1210.44 L 922.61 1210.99 L 915.30 1211.21 L 910.04 1210.58 L 904.88 1210.78 L 898.97 1211.47 L 894.93 1210.62 L 881.18 1212.34" pathLength="1" fill="none" vector-effect="non-scaling-stroke"/>
</svg>
