<svg xmlns="http://www.w3.org/2000/svg" viewBox="-105.4930881 -37.5828730 0.0065051 0.0028562" preserveAspectRatio="xMidYMid meet">
  <path class="trace-line" d="M -105.4871251 -37.5802548 L -105.4871978 -37.5803380 L -105.4873013 -37.5804052 L -105.4875053 -37.5805200 L -105.4876448 -37.5806496 L -105.4878259 -37.5807262 L -105.4879090 -37.5807517 L -105.4879868 -37.5808123 L -105.4880458 -37.5809164 L -105.4882510 -37.5809791 L -105.4883824 -37.5810418 L -105.4885085 -37.5810758 L -105.4885595 -37.5811173 L -105.4885983 -37.5811800 L -105.4886976 -37.5812565 L -105.4888424 -37.5813235 L -105.4889189 -37.5813022 L -105.4890315 -37.5813033 L -105.4892166 -37.5813107 L -105.4894218 -37.5813681 L -105.4896243 -37.5814372 L -105.4897678 -37.5815052 L -105.4898375 -37.5815584 L -105.4898737 -37.5816051 L -105.4899462 -37.5816338 L -105.4901916 -37.5817847 L -105.4902151 -37.5818555 L -105.4901583 -37.5819262 L -105.4900508 -37.5820229 L -105.4900239 -37.5820866 L -105.4902251 -37.5823161 L -105.4905309 -37.5824989 L -105.4906864 -37.5825574 L -105.4908487 -37.5826010 L -105.4911076 -37.5825914 L -105.4912618 -37.5826063 L -105.4913280 -37.5826189 L -105.4914340 -37.5826350 L -105.4915412 -37.5826215 L -105.4917186 -37.5826158 L -105.4918461 -37.5826316 L -105.4919712 -37.5826265 L -105.4921147 -37.5826095 L -105.4922126 -37.5826307 L -105.4925460 -37.5825877" pathLength="1" fill="none" stroke="currentColor" vector-effect="non-scaling-stroke"/>
  <circle class="trace-start" cx="-105.4871251" cy="-37.5802548" r="0.0000585"/>
  <circle class="trace-summit-halo" cx="-105.4925000" cy="-37.5826000" r="0.0001493"/>
  <circle class="trace-summit" cx="-105.4925000" cy="-37.5826000" r="0.0000849"/>
</svg>
