<svg xmlns="http://www.w3.org/2000/svg" viewBox="0 0 2000 2500" preserveAspectRatio="none">
  <path class="trace-underlay" d="M 1608.28 1289.39 L 1606.45 1288.03 L 1606.11 1285.51 L 1607.93 1276.06 L 1616.67 1254.06 L 1624.90 1245.97 L 1636.21 1239.53 L 1639.95 1235.60 L 1610.78 1232.52 L 1589.84 1232.18 L 1574.94 1229.53 L 1554.39 1230.28 L 1537.10 1234.01 L 1516.04 1243.31 L 1493.00 1249.39 L 1467.00 1255.50 L 1441.89 1260.93 L 1424.72 1261.50 L 1408.02 1260.20 L 1385.90 1256.54 L 1370.87 1251.35 L 1354.81 1251.07 L 1341.74 1255.28 L 1331.44 1259.59 L 1322.17 1265.65 L 1311.54 1268.95 L 1293.22 1277.15 L 1286.66 1277.99 L 1277.09 1282.06 L 1270.15 1282.80 L 1256.31 1279.00 L 1250.06 1273.30 L 1246.01 1270.99 L 1243.44 1265.47 L 1239.19 1260.80 L 1234.06 1258.07 L 1226.32 1256.98 L 1219.24 1258.32 L 1213.36 1261.27 L 1205.12 1260.09 L 1188.51 1259.95 L 1179.38 1256.29 L 1172.26 1250.52 L 1163.18 1248.03 L 1150.26 1247.37 L 1138.25 1248.07 L 1121.80 1253.37 L 1110.19 1259.91 L 1101.10 1266.80 L 1080.26 1275.69 L 1072.62 1274.26 L 1063.45 1277.26 L 1056.21 1276.17 L 1046.97 1272.96 L 1038.50 1273.48 L 1028.61 1270.02 L 1018.74 1267.86 L 1012.39 1265.89 L 1010.01 1266.54 L 1010.64 1268.82 L 1009.12 1270.71 L 1006.06 1271.77 L 1003.03 1272.18 L 987.32 1272.59 L 981.18 1272.09 L 979.73 1272.47 L 979.67 1273.63 L 986.23 1280.67 L 986.99 1283.14 L 984.93 1283.95 L 979.56 1283.92 L 974.79 1284.85 L 974.04 1285.38 L 974.78 1286.57 L 977.15 1288.39 L 979.83 1291.09 L 980.29 1292.27 L 979.67 1293.45 L 974.58 1294.39 L 974.25 1295.56 L 974.91 1296.43 L 978.30 1298.50 L 979.85 1300.88 L 978.82 1302.48 L 977.06 1302.91 L 976.53 1303.85 L 980.70 1308.32 L 981.45 1310.44 L 981.40 1312.01 L 973.82 1312.55 L 965.91 1311.98 L 960.59 1310.69 L 955.41 1308.64 L 951.84 1308.30 L 946.66 1305.79 L 940.10 1303.90 L 931.67 1302.51 L 924.97 1300.27 L 917.77 1296.85 L 912.38 1295.45 L 905.87 1294.89 L 896.26 1291.67 L 888.74 1291.44 L 882.30 1289.14 L 876.39 1288.21 L 869.27 1285.38 L 860.26 1281.02 L 853.04 1276.24 L 842.66 1272.80 L 819.33 1268.07 L 807.74 1264.09 L 799.59 1260.99 L 783.47 1252.72 L 776.54 1248.36 L 765.30 1244.93 L 755.55 1240.06 L 738.64 1234.93 L 722.02 1226.86 L 714.11 1222.46 L 703.35 1218.69 L 695.60 1213.55 L 674.87 1203.70 L 662.22 1196.39 L 656.55 1191.12 L 650.52 1187.50 L 639.65 1187.14 L 632.19 1181.86 L 626.67 1180.92 L 616.01 1177.32 L 604.71 1176.15 L 602.40 1172.43 L 598.56 1171.15 L 597.11 1168.20 L 594.03 1167.22 L 589.42 1166.79 L 584.82 1161.97 L 578.51 1159.53 L 574.60 1159.00 L 572.36 1157.55 L 571.45 1154.00 L 571.42 1150.34 L 570.28 1145.09 L 565.96 1139.79 L 563.02 1131.66 L 558.94 1127.04 L 557.15 1121.48 L 553.04 1117.87 L 543.60 1110.68 L 537.28 1103.96 L 529.46 1098.59" pathLength="1" fill="none" vector-effect="non-scaling-stroke"/>
  <path class="trace-line" d="M 1608.28 1289.39 L 1606.45 1288.03 L 1606.11 1285.51 L 1607.93 1276.06 L 1616.67 1254.06 L 1624.90 1245.97 L 1636.21 1239.53 L 1639.95 1235.60 L 1610.78 1232.52 L 1589.84 1232.18 L 1574.94 1229.53 L 1554.39 1230.28 L 1537.10 1234.01 L 1516.04 1243.31 L 1493.00 1249.39 L 1467.00 1255.50 L 1441.89 1260.93 L 1424.72 1261.50 L 1408.02 1260.20 L 1385.90 1256.54 L 1370.87 1251.35 L 1354.81 1251.07 L 1341.74 1255.28 L 1331.44 1259.59 L 1322.17 1265.65 L 1311.54 1268.95 L 1293.22 1277.15 L 1286.66 1277.99 L 1277.09 1282.06 L 1270.15 1282.80 L 1256.31 1279.00 L 1250.06 1273.30 L 1246.01 1270.99 L 1243.44 1265.47 L 1239.19 1260.80 L 1234.06 1258.07 L 1226.32 1256.98 L 1219.24 1258.32 L 1213.36 1261.27 L 1205.12 1260.09 L 1188.51 1259.95 L 1179.38 1256.29 L 1172.26 1250.52 L 1163.18 1248.03 L 1150.26 1247.37 L 1138.25 1248.07 L 1121.80 1253.37 L 1110.19 1259.91 L 1101.10 1266.80 L 1080.26 1275.69 L 1072.62 1274.26 L 1063.45 1277.26 L 1056.21 1276.17 L 1046.97 1272.96 L 1038.50 1273.48 L 1028.61 1270.02 L 1018.74 1267.86 L 1012.39 1265.89 L 1010.01 1266.54 L 1010.64 1268.82 L 1009.12 1270.71 L 1006.06 1271.77 L 1003.03 1272.18 L 987.32 1272.59 L 981.18 1272.09 L 979.73 1272.47 L 979.67 1273.63 L 986.23 1280.67 L 986.99 1283.14 L 984.93 1283.95 L 979.56 1283.92 L 974.79 1284.85 L 974.04 1285.38 L 974.78 1286.57 L 977.15 1288.39 L 979.83 1291.09 L 980.29 1292.27 L 979.67 1293.45 L 974.58 1294.39 L 974.25 1295.56 L 974.91 1296.43 L 978.30 1298.50 L 979.85 1300.88 L 978.82 1302.48 L 977.06 1302.91 L 976.53 1303.85 L 980.70 1308.32 L 981.45 1310.44 L 981.40 1312.01 L 973.82 1312.55 L 965.91 1311.98 L 960.59 1310.69 L 955.41 1308.64 L 951.84 1308.30 L 946.66 1305.79 L 940.10 1303.90 L 931.67 1302.51 L 924.97 1300.27 L 917.77 1296.85 L 912.38 1295.45 L 905.87 1294.89 L 896.26 1291.67 L 888.74 1291.44 L 882.30 1289.14 L 876.39 1288.21 L 869.27 1285.38 L 860.26 1281.02 L 853.04 1276.24 L 842.66 1272.80 L 819.33 1268.07 L 807.74 1264.09 L 799.59 1260.99 L 783.47 1252.72 L 776.54 1248.36 L 765.30 1244.93 L 755.55 1240.06 L 738.64 1234.93 L 722.02 1226.86 L 714.11 1222.46 L 703.35 1218.69 L 695.60 1213.55 L 674.87 1203.70 L 662.22 1196.39 L 656.55 1191.12 L 650.52 1187.50 L 639.65 1187.14 L 632.19 1181.86 L 626.67 1180.92 L 616.01 1177.32 L 604.71 1176.15 L 602.40 1172.43 L 598.56 1171.15 L 597.11 1168.20 L 594.03 1167.22 L 589.42 1166.79 L 584.82 1161.97 L 578.51 1159.53 L 574.60 1159.00 L 572.36 1157.55 L 571.45 1154.00 L 571.42 1150.34 L 570.28 1145.09 L 565.96 1139.79 L 563.02 1131.66 L 558.94 1127.04 L 557.15 1121.48 L 553.04 1117.87 L 543.60 1110.68 L 537.28 1103.96 L 529.46 1098.59" pathLength="1" fill="none" vector-effect="non-scaling-stroke"/>
</svg>
