<svg xmlns="http://www.w3.org/2000/svg" viewBox="0 0 2000 2500" preserveAspectRatio="xMidYMid slice">
  <path class="trace-line" d="M 1638.47 1382.55 L 1636.25 1380.39 L 1635.84 1376.41 L 1638.05 1361.47 L 1648.71 1326.68 L 1658.74 1313.88 L 1672.53 1303.69 L 1677.08 1297.49 L 1641.52 1292.61 L 1616.00 1292.07 L 1597.83 1287.89 L 1572.78 1289.07 L 1551.71 1294.98 L 1526.03 1309.68 L 1497.95 1319.30 L 1466.25 1328.95 L 1435.64 1337.54 L 1414.71 1338.44 L 1394.35 1336.38 L 1367.38 1330.60 L 1349.07 1322.39 L 1329.48 1321.94 L 1313.55 1328.60 L 1301.00 1335.41 L 1289.70 1345.00 L 1276.74 1350.23 L 1254.40 1363.18 L 1246.40 1364.51 L 1234.74 1370.95 L 1226.28 1372.12 L 1209.41 1366.12 L 1201.79 1357.10 L 1196.85 1353.45 L 1193.72 1344.71 L 1188.54 1337.34 L 1182.28 1333.02 L 1172.84 1331.29 L 1164.22 1333.41 L 1157.04 1338.08 L 1147.00 1336.21 L 1126.76 1335.99 L 1115.63 1330.20 L 1106.95 1321.07 L 1095.88 1317.13 L 1080.13 1316.10 L 1065.48 1317.20 L 1045.43 1325.58 L 1031.28 1335.92 L 1020.20 1346.81 L 994.79 1360.87 L 985.48 1358.61 L 974.30 1363.36 L 965.48 1361.64 L 954.21 1356.56 L 943.89 1357.38 L 931.83 1351.91 L 919.79 1348.50 L 912.06 1345.39 L 909.15 1346.41 L 909.92 1350.01 L 908.06 1353.00 L 904.34 1354.68 L 900.64 1355.33 L 881.49 1355.98 L 874.01 1355.19 L 872.24 1355.79 L 872.16 1357.62 L 880.16 1368.75 L 881.10 1372.65 L 878.58 1373.93 L 872.03 1373.90 L 866.22 1375.36 L 865.30 1376.21 L 866.21 1378.09 L 869.10 1380.95 L 872.36 1385.24 L 872.92 1387.09 L 872.17 1388.97 L 865.97 1390.44 L 865.56 1392.30 L 866.37 1393.67 L 870.50 1396.95 L 872.39 1400.72 L 871.13 1403.24 L 868.98 1403.92 L 868.34 1405.41 L 873.42 1412.47 L 874.33 1415.83 L 874.28 1418.31 L 865.03 1419.17 L 855.39 1418.26 L 848.91 1416.23 L 842.59 1412.98 L 838.25 1412.44 L 831.93 1408.47 L 823.94 1405.49 L 813.66 1403.30 L 805.48 1399.75 L 796.70 1394.34 L 790.13 1392.13 L 782.20 1391.23 L 770.49 1386.15 L 761.32 1385.79 L 753.47 1382.15 L 746.27 1380.68 L 737.59 1376.21 L 726.60 1369.31 L 717.80 1361.75 L 705.15 1356.30 L 676.71 1348.83 L 662.57 1342.53 L 652.65 1337.64 L 632.99 1324.56 L 624.55 1317.66 L 610.83 1312.23 L 598.96 1304.53 L 578.34 1296.42 L 558.07 1283.67 L 548.43 1276.70 L 535.31 1270.75 L 525.87 1262.61 L 500.59 1247.04 L 485.18 1235.48 L 478.27 1227.14 L 470.91 1221.42 L 457.66 1220.85 L 448.57 1212.51 L 441.84 1211.01 L 428.85 1205.33 L 423.36 1204.88 L 415.07 1203.47 L 412.25 1197.59 L 407.58 1195.57 L 405.80 1190.91 L 402.05 1189.35 L 396.43 1188.68 L 390.82 1181.05 L 383.13 1177.19 L 378.36 1176.36 L 375.63 1174.06 L 374.53 1168.45 L 374.48 1162.66 L 373.09 1154.36 L 367.84 1145.99 L 364.24 1133.12 L 359.27 1125.82 L 357.10 1117.03 L 352.08 1111.31 L 340.57 1099.95 L 332.86 1089.33 L 323.33 1080.83" pathLength="1" fill="none" vector-effect="non-scaling-stroke"/>
  <circle class="trace-start" cx="1638.47" cy="1382.55" r="6.25"/>
  <circle class="trace-summit-halo" cx="322.92" cy="1083.06" r="15.97"/>
  <circle class="trace-summit" cx="322.92" cy="1083.06" r="9.03"/>
</svg>
