<svg xmlns="http://www.w3.org/2000/svg" viewBox="0 0 1600 900" preserveAspectRatio="xMidYMid slice">
  <path class="trace-line" d="M 1358.91 566.07 L 1356.96 564.18 L 1356.60 560.70 L 1358.54 547.61 L 1367.87 517.14 L 1376.65 505.94 L 1388.72 497.02 L 1392.71 491.58 L 1361.58 487.31 L 1339.23 486.84 L 1323.33 483.18 L 1301.40 484.22 L 1282.96 489.38 L 1260.48 502.26 L 1235.89 510.68 L 1208.14 519.14 L 1181.35 526.66 L 1163.03 527.44 L 1145.21 525.64 L 1121.60 520.58 L 1105.57 513.39 L 1088.42 513.00 L 1074.48 518.83 L 1063.49 524.80 L 1053.59 533.19 L 1042.25 537.77 L 1022.70 549.11 L 1015.69 550.27 L 1005.48 555.92 L 998.08 556.94 L 983.31 551.68 L 976.65 543.79 L 972.32 540.59 L 969.58 532.94 L 965.04 526.48 L 959.57 522.70 L 951.30 521.18 L 943.75 523.04 L 937.47 527.13 L 928.69 525.49 L 910.96 525.30 L 901.22 520.23 L 893.62 512.24 L 883.93 508.79 L 870.14 507.88 L 857.32 508.85 L 839.77 516.19 L 827.38 525.24 L 817.68 534.78 L 795.44 547.09 L 787.29 545.11 L 777.50 549.27 L 769.78 547.76 L 759.92 543.31 L 750.88 544.03 L 740.32 539.24 L 729.79 536.25 L 723.02 533.53 L 720.47 534.42 L 721.14 537.58 L 719.52 540.20 L 716.26 541.67 L 713.03 542.23 L 696.26 542.80 L 689.71 542.11 L 688.16 542.63 L 688.09 544.24 L 695.09 553.98 L 695.91 557.40 L 693.71 558.52 L 687.98 558.49 L 682.89 559.77 L 682.09 560.52 L 682.88 562.16 L 685.41 564.67 L 688.27 568.42 L 688.76 570.05 L 688.10 571.69 L 682.67 572.98 L 682.31 574.61 L 683.02 575.81 L 686.64 578.68 L 688.29 581.98 L 687.19 584.19 L 685.31 584.79 L 684.74 586.09 L 689.19 592.27 L 689.99 595.21 L 689.94 597.39 L 681.85 598.13 L 673.41 597.34 L 667.74 595.56 L 662.21 592.72 L 658.40 592.25 L 652.87 588.77 L 645.88 586.16 L 636.88 584.24 L 629.72 581.13 L 622.04 576.39 L 616.29 574.46 L 609.34 573.67 L 599.09 569.23 L 591.07 568.90 L 584.19 565.72 L 577.89 564.43 L 570.29 560.52 L 560.67 554.47 L 552.97 547.86 L 541.89 543.09 L 517.00 536.54 L 504.62 531.03 L 495.93 526.75 L 478.73 515.29 L 471.33 509.25 L 459.33 504.50 L 448.94 497.75 L 430.89 490.65 L 413.15 479.48 L 404.71 473.38 L 393.22 468.17 L 384.96 461.05 L 362.83 447.41 L 349.33 437.29 L 343.28 429.99 L 336.85 424.98 L 325.25 424.47 L 317.29 417.17 L 311.40 415.86 L 300.02 410.88 L 295.22 410.49 L 287.97 409.25 L 285.50 404.10 L 281.40 402.34 L 279.85 398.25 L 276.57 396.89 L 271.65 396.30 L 266.73 389.62 L 260.01 386.24 L 255.83 385.52 L 253.44 383.50 L 252.47 378.59 L 252.44 373.52 L 251.22 366.25 L 246.62 358.92 L 243.47 347.65 L 239.12 341.26 L 237.22 333.56 L 232.82 328.55 L 222.75 318.60 L 216.00 309.30 L 207.66 301.87" pathLength="1" fill="none" vector-effect="non-scaling-stroke"/>
  <circle class="trace-start" cx="1358.91" cy="566.07" r="5.47"/>
  <circle class="trace-summit-halo" cx="207.29" cy="303.81" r="13.98"/>
  <circle class="trace-summit" cx="207.29" cy="303.81" r="7.90"/>
</svg>
