<svg xmlns="http://www.w3.org/2000/svg" viewBox="-106.2452828 -38.7497799 0.0334962 0.0065288" preserveAspectRatio="xMidYMid meet">
  <path d="M -106.2153740 -38.7443840 L -106.2154199 -38.7444187 L -106.2154284 -38.7444826 L -106.2153827 -38.7447229 L -106.2151630 -38.7452824 L -106.2149561 -38.7454882 L -106.2146718 -38.7456520 L -106.2145779 -38.7457518 L -106.2153111 -38.7458303 L -106.2158375 -38.7458389 L -106.2162120 -38.7459062 L -106.2167286 -38.7458871 L -106.2171630 -38.7457922 L -106.2176925 -38.7455557 L -106.2182716 -38.7454011 L -106.2189252 -38.7452458 L -106.2195564 -38.7451077 L -106.2199878 -38.7450933 L -106.2204077 -38.7451263 L -106.2209638 -38.7452193 L -106.2213414 -38.7453513 L -106.2217452 -38.7453586 L -106.2220737 -38.7452515 L -106.2223325 -38.7451419 L -106.2225656 -38.7449877 L -106.2228327 -38.7449037 L -106.2232934 -38.7446954 L -106.2234583 -38.7446740 L -106.2236988 -38.7445704 L -106.2238732 -38.7445516 L -106.2242210 -38.7446482 L -106.2243781 -38.7447931 L -106.2244801 -38.7448519 L -106.2245446 -38.7449924 L -106.2246514 -38.7451110 L -106.2247804 -38.7451804 L -106.2249750 -38.7452083 L -106.2251529 -38.7451741 L -106.2253008 -38.7450991 L -106.2255078 -38.7451291 L -106.2259253 -38.7451327 L -106.2261548 -38.7452258 L -106.2263337 -38.7453725 L -106.2265620 -38.7454359 L -106.2268868 -38.7454525 L -106.2271887 -38.7454348 L -106.2276022 -38.7453000 L -106.2278940 -38.7451338 L -106.2281224 -38.7449586 L -106.2286464 -38.7447325 L -106.2288383 -38.7447689 L -106.2290689 -38.7446925 L -106.2292508 -38.7447201 L -106.2294831 -38.7448019 L -106.2296959 -38.7447887 L -106.2299446 -38.7448767 L -106.2301928 -38.7449315 L -106.2303522 -38.7449815 L -106.2304122 -38.7449651 L -106.2303964 -38.7449072 L -106.2304346 -38.7448591 L -106.2305115 -38.7448321 L -106.2305876 -38.7448217 L -106.2309826 -38.7448112 L -106.2311367 -38.7448239 L -106.2311733 -38.7448143 L -106.2311749 -38.7447849 L -106.2310100 -38.7446059 L -106.2309907 -38.7445431 L -106.2310425 -38.7445225 L -106.2311776 -38.7445231 L -106.2312975 -38.7444996 L -106.2313163 -38.7444859 L -106.2312977 -38.7444557 L -106.2312381 -38.7444096 L -106.2311708 -38.7443407 L -106.2311593 -38.7443109 L -106.2311747 -38.7442807 L -106.2313026 -38.7442570 L -106.2313111 -38.7442271 L -106.2312943 -38.7442051 L -106.2312091 -38.7441524 L -106.2311702 -38.7440918 L -106.2311961 -38.7440512 L -106.2312404 -38.7440402 L -106.2312538 -38.7440163 L -106.2311490 -38.7439028 L -106.2311301 -38.7438488 L -106.2311313 -38.7438088 L -106.2313219 -38.7437951 L -106.2315207 -38.7438097 L -106.2316543 -38.7438424 L -106.2317846 -38.7438946 L -106.2318742 -38.7439032 L -106.2320045 -38.7439671 L -106.2321693 -38.7440150 L -106.2323812 -38.7440503 L -106.2325498 -38.7441074 L -106.2327308 -38.7441944 L -106.2328663 -38.7442299 L -106.2330299 -38.7442443 L -106.2332713 -38.7443260 L -106.2334603 -38.7443319 L -106.2336223 -38.7443904 L -106.2337708 -38.7444140 L -106.2339497 -38.7444859 L -106.2341763 -38.7445969 L -106.2343577 -38.7447184 L -106.2346186 -38.7448060 L -106.2352050 -38.7449262 L -106.2354965 -38.7450275 L -106.2357012 -38.7451061 L -106.2361065 -38.7453165 L -106.2362806 -38.7454274 L -106.2365633 -38.7455147 L -106.2368082 -38.7456385 L -106.2372333 -38.7457690 L -106.2376512 -38.7459740 L -106.2378500 -38.7460861 L -106.2381205 -38.7461818 L -106.2383152 -38.7463126 L -106.2388364 -38.7465630 L -106.2391543 -38.7467489 L -106.2392968 -38.7468830 L -106.2394484 -38.7469750 L -106.2397216 -38.7469842 L -106.2399090 -38.7471184 L -106.2400478 -38.7471424 L -106.2403158 -38.7472338 L -106.2405998 -38.7472637 L -106.2406580 -38.7473583 L -106.2407544 -38.7473907 L -106.2407910 -38.7474657 L -106.2408683 -38.7474907 L -106.2409841 -38.7475016 L -106.2410999 -38.7476242 L -106.2412584 -38.7476863 L -106.2413567 -38.7476996 L -106.2414131 -38.7477367 L -106.2414358 -38.7478269 L -106.2414367 -38.7479200 L -106.2414654 -38.7480534 L -106.2415738 -38.7481881 L -106.2416479 -38.7483950 L -106.2417504 -38.7485124 L -106.2417952 -38.7486538 L -106.2418987 -38.7487457 L -106.2421359 -38.7489284 L -106.2422949 -38.7490992 L -106.2424914 -38.7492358" pathLength="1" fill="none" stroke="currentColor" vector-effect="non-scaling-stroke"/>
</svg>
