<svg xmlns="http://www.w3.org/2000/svg" viewBox="0 0 2000 2500" preserveAspectRatio="none">
  <path class="trace-underlay" d="M 604.21 421.64 L 617.79 421.47 L 627.63 422.97 L 636.77 436.19 L 646.61 461.72 L 650.90 485.17 L 649.16 494.28 L 649.34 522.15 L 652.46 548.26 L 664.16 564.66 L 674.29 584.67 L 676.05 613.46 L 677.22 647.20 L 677.22 658.63 L 685.60 690.66 L 686.38 711.63 L 677.42 725.74 L 672.15 740.41 L 675.07 759.09 L 660.64 781.02 L 648.56 807.51 L 643.10 829.82 L 631.60 868.90 L 627.21 881.82 L 619.46 886.08 L 607.72 881.53 L 598.97 880.59 L 588.71 894.25 L 572.74 906.45 L 563.14 923.97 L 552.11 935.54 L 544.86 945.58 L 532.49 957.10 L 516.31 967.24 L 495.37 973.31 L 482.30 979.07 L 475.62 985.88 L 474.48 994.25 L 478.17 1002.44 L 479.95 1014.43 L 484.38 1031.66 L 493.93 1054.60 L 493.50 1063.41 L 491.07 1069.31 L 479.92 1091.14 L 458.83 1113.17 L 453.07 1128.53 L 454.46 1137.04 L 463.63 1142.54 L 473.92 1157.75 L 477.77 1167.10 L 487.03 1185.41 L 488.48 1196.89 L 491.19 1206.24 L 491.61 1224.77 L 482.87 1238.95 L 467.87 1251.51 L 463.56 1263.11 L 459.07 1268.82 L 459.26 1280.27 L 458.09 1291.90 L 467.84 1303.71 L 468.24 1314.19 L 469.80 1322.01 L 480.71 1328.68 L 500.79 1335.35 L 521.26 1344.89 L 525.36 1344.12 L 530.62 1347.18 L 532.37 1352.51 L 543.04 1362.45 L 553.26 1369.10 L 558.50 1375.20 L 562.08 1377.63 L 564.80 1376.83 L 567.21 1376.80 L 572.79 1387.37 L 574.64 1395.58 L 582.05 1394.23 L 587.58 1389.26 L 594.09 1388.51 L 600.73 1386.74 L 605.98 1373.68 L 610.52 1367.43 L 616.17 1374.26 L 619.34 1371.85 L 620.11 1374.94 L 625.98 1384.81 L 629.97 1392.69 L 635.50 1395.40 L 661.48 1396.45 L 668.58 1393.74 L 701.98 1395.10 L 703.75 1389.41 L 715.73 1389.55 L 725.11 1393.11 L 729.77 1388.97 L 736.61 1388.53 L 741.35 1395.59 L 749.15 1406.08 L 760.65 1409.05 L 791.37 1432.10 L 796.15 1436.35 L 801.40 1438.18 L 803.93 1440.34 L 805.85 1443.51 L 810.36 1445.55 L 812.90 1445.14 L 819.23 1441.04 L 830.60 1441.87 L 857.13 1442.41 L 874.20 1446.80 L 887.15 1456.11 L 895.75 1459.07 L 928.11 1455.45 L 940.79 1454.50 L 951.11 1451.25 L 959.69 1454.50 L 967.68 1451.64 L 981.92 1452.97 L 989.52 1460.60 L 996.34 1468.98 L 988.54 1475.27 L 977.82 1478.14 L 970.03 1484.81 L 972.37 1491.48 L 978.02 1496.44 L 981.53 1500.43 L 973.73 1503.11 L 972.37 1510.35 L 980.94 1513.21 L 985.43 1517.40 L 980.94 1520.26 L 971.20 1523.12 L 974.51 1528.65 L 986.60 1534.56 L 980.55 1537.23 L 972.75 1539.32 L 976.85 1543.33 L 973.54 1554.01 L 976.85 1564.49 L 976.85 1578.21 L 973.92 1583.93 L 978.27 1586.79 L 990.95 1591.37 L 993.43 1597.98 L 996.26 1600.47 L 1005.29 1599.12 L 1017.21 1594.13 L 1027.55 1596.63 L 1031.62 1593.33 L 1036.24 1587.73 L 1043.88 1584.97 L 1058.57 1584.90 L 1065.87 1582.81 L 1075.80 1581.13 L 1082.14 1578.30 L 1091.37 1572.97 L 1101.85 1570.41 L 1107.02 1567.31 L 1108.19 1562.60 L 1120.46 1556.94 L 1121.49 1554.78 L 1127.70 1551.54 L 1135.90 1543.12 L 1153.13 1531.39 L 1174.77 1515.76 L 1180.77 1513.60 L 1182.29 1506.66 L 1204.34 1500.53 L 1208.34 1491.63 L 1213.03 1483.34 L 1220.51 1475.89 L 1223.24 1470.17 L 1228.30 1449.97 L 1225.96 1433.58 L 1220.11 1416.23 L 1214.27 1409.18 L 1213.68 1400.41 L 1207.05 1384.78 L 1207.25 1372.95 L 1201.59 1365.14 L 1190.87 1357.33 L 1181.91 1346.65 L 1172.54 1328.16 L 1167.48 1320.15 L 1176.45 1321.87 L 1194.58 1328.92 L 1213.29 1337.50 L 1228.30 1340.36 L 1248.58 1342.45 L 1260.47 1345.89 L 1262.81 1349.32 L 1268.85 1354.27 L 1280.94 1362.66 L 1294.59 1374.29 L 1309.79 1383.44 L 1320.32 1392.40 L 1321.49 1388.39 L 1323.24 1375.24 L 1326.75 1361.90 L 1332.41 1325.30 L 1335.92 1318.82 L 1354.62 1330.26 L 1368.27 1335.79 L 1376.85 1342.65 L 1380.36 1348.55 L 1383.48 1339.21 L 1383.67 1332.35 L 1387.37 1319.58 L 1391.08 1310.43 L 1390.11 1303.76 L 1394.01 1294.99 L 1402.59 1301.28 L 1405.51 1307.19 L 1409.60 1308.71 L 1413.11 1313.48 L 1419.35 1325.11 L 1426.95 1330.45 L 1431.24 1321.87 L 1434.75 1319.39 L 1436.70 1313.86 L 1453.27 1304.52 L 1461.65 1295.56 L 1470.82 1279.74 L 1465.75 1271.35 L 1466.33 1264.87 L 1460.09 1261.06 L 1456.58 1245.43 L 1457.37 1234.56 L 1446.45 1224.46 L 1433.38 1213.98 L 1422.28 1207.11 L 1413.70 1195.48 L 1412.14 1190.34 L 1429.87 1190.53 L 1444.69 1188.05 L 1459.90 1184.81 L 1470.43 1180.61 L 1466.52 1171.65 L 1474.13 1162.70 L 1479.78 1150.68 L 1474.70 1142.64 L 1468.97 1134.80 L 1460.77 1126.79 L 1459.82 1121.74 L 1466.31 1115.96 L 1469.36 1111.86 L 1472.03 1111.48 L 1477.18 1107.19 L 1479.28 1093.57 L 1489.01 1087.04 L 1489.94 1080.43 L 1494.54 1076.78 L 1498.13 1068.94 L 1497.60 1063.04 L 1503.13 1057.75 L 1508.09 1051.22 L 1515.03 1045.26 L 1518.30 1040.93 L 1517.03 1036.92 L 1517.96 1033.15 L 1525.63 1028.45 L 1530.82 1018.19 L 1536.56 1011.05 L 1542.53 1001.66 L 1547.54 996.58 L 1548.05 993.38 L 1549.74 992.02 L 1550.72 988.42 L 1550.59 984.39 L 1552.20 984.44 L 1554.58 985.18 L 1555.42 983.25 L 1553.17 980.27 L 1554.74 978.08 L 1561.90 972.11 L 1564.00 967.82 L 1558.46 959.05" pathLength="1" fill="none" vector-effect="non-scaling-stroke"/>
  <path class="trace-line" d="M 604.21 421.64 L 617.79 421.47 L 627.63 422.97 L 636.77 436.19 L 646.61 461.72 L 650.90 485.17 L 649.16 494.28 L 649.34 522.15 L 652.46 548.26 L 664.16 564.66 L 674.29 584.67 L 676.05 613.46 L 677.22 647.20 L 677.22 658.63 L 685.60 690.66 L 686.38 711.63 L 677.42 725.74 L 672.15 740.41 L 675.07 759.09 L 660.64 781.02 L 648.56 807.51 L 643.10 829.82 L 631.60 868.90 L 627.21 881.82 L 619.46 886.08 L 607.72 881.53 L 598.97 880.59 L 588.71 894.25 L 572.74 906.45 L 563.14 923.97 L 552.11 935.54 L 544.86 945.58 L 532.49 957.10 L 516.31 967.24 L 495.37 973.31 L 482.30 979.07 L 475.62 985.88 L 474.48 994.25 L 478.17 1002.44 L 479.95 1014.43 L 484.38 1031.66 L 493.93 1054.60 L 493.50 1063.41 L 491.07 1069.31 L 479.92 1091.14 L 458.83 1113.17 L 453.07 1128.53 L 454.46 1137.04 L 463.63 1142.54 L 473.92 1157.75 L 477.77 1167.10 L 487.03 1185.41 L 488.48 1196.89 L 491.19 1206.24 L 491.61 1224.77 L 482.87 1238.95 L 467.87 1251.51 L 463.56 1263.11 L 459.07 1268.82 L 459.26 1280.27 L 458.09 1291.90 L 467.84 1303.71 L 468.24 1314.19 L 469.80 1322.01 L 480.71 1328.68 L 500.79 1335.35 L 521.26 1344.89 L 525.36 1344.12 L 530.62 1347.18 L 532.37 1352.51 L 543.04 1362.45 L 553.26 1369.10 L 558.50 1375.20 L 562.08 1377.63 L 564.80 1376.83 L 567.21 1376.80 L 572.79 1387.37 L 574.64 1395.58 L 582.05 1394.23 L 587.58 1389.26 L 594.09 1388.51 L 600.73 1386.74 L 605.98 1373.68 L 610.52 1367.43 L 616.17 1374.26 L 619.34 1371.85 L 620.11 1374.94 L 625.98 1384.81 L 629.97 1392.69 L 635.50 1395.40 L 661.48 1396.45 L 668.58 1393.74 L 701.98 1395.10 L 703.75 1389.41 L 715.73 1389.55 L 725.11 1393.11 L 729.77 1388.97 L 736.61 1388.53 L 741.35 1395.59 L 749.15 1406.08 L 760.65 1409.05 L 791.37 1432.10 L 796.15 1436.35 L 801.40 1438.18 L 803.93 1440.34 L 805.85 1443.51 L 810.36 1445.55 L 812.90 1445.14 L 819.23 1441.04 L 830.60 1441.87 L 857.13 1442.41 L 874.20 1446.80 L 887.15 1456.11 L 895.75 1459.07 L 928.11 1455.45 L 940.79 1454.50 L 951.11 1451.25 L 959.69 1454.50 L 967.68 1451.64 L 981.92 1452.97 L 989.52 1460.60 L 996.34 1468.98 L 988.54 1475.27 L 977.82 1478.14 L 970.03 1484.81 L 972.37 1491.48 L 978.02 1496.44 L 981.53 1500.43 L 973.73 1503.11 L 972.37 1510.35 L 980.94 1513.21 L 985.43 1517.40 L 980.94 1520.26 L 971.20 1523.12 L 974.51 1528.65 L 986.60 1534.56 L 980.55 1537.23 L 972.75 1539.32 L 976.85 1543.33 L 973.54 1554.01 L 976.85 1564.49 L 976.85 1578.21 L 973.92 1583.93 L 978.27 1586.79 L 990.95 1591.37 L 993.43 1597.98 L 996.26 1600.47 L 1005.29 1599.12 L 1017.21 1594.13 L 1027.55 1596.63 L 1031.62 1593.33 L 1036.24 1587.73 L 1043.88 1584.97 L 1058.57 1584.90 L 1065.87 1582.81 L 1075.80 1581.13 L 1082.14 1578.30 L 1091.37 1572.97 L 1101.85 1570.41 L 1107.02 1567.31 L 1108.19 1562.60 L 1120.46 1556.94 L 1121.49 1554.78 L 1127.70 1551.54 L 1135.90 1543.12 L 1153.13 1531.39 L 1174.77 1515.76 L 1180.77 1513.60 L 1182.29 1506.66 L 1204.34 1500.53 L 1208.34 1491.63 L 1213.03 1483.34 L 1220.51 1475.89 L 1223.24 1470.17 L 1228.30 1449.97 L 1225.96 1433.58 L 1220.11 1416.23 L 1214.27 1409.18 L 1213.68 1400.41 L 1207.05 1384.78 L 1207.25 1372.95 L 1201.59 1365.14 L 1190.87 1357.33 L 1181.91 1346.65 L 1172.54 1328.16 L 1167.48 1320.15 L 1176.45 1321.87 L 1194.58 1328.92 L 1213.29 1337.50 L 1228.30 1340.36 L 1248.58 1342.45 L 1260.47 1345.89 L 1262.81 1349.32 L 1268.85 1354.27 L 1280.94 1362.66 L 1294.59 1374.29 L 1309.79 1383.44 L 1320.32 1392.40 L 1321.49 1388.39 L 1323.24 1375.24 L 1326.75 1361.90 L 1332.41 1325.30 L 1335.92 1318.82 L 1354.62 1330.26 L 1368.27 1335.79 L 1376.85 1342.65 L 1380.36 1348.55 L 1383.48 1339.21 L 1383.67 1332.35 L 1387.37 1319.58 L 1391.08 1310.43 L 1390.11 1303.76 L 1394.01 1294.99 L 1402.59 1301.28 L 1405.51 1307.19 L 1409.60 1308.71 L 1413.11 1313.48 L 1419.35 1325.11 L 1426.95 1330.45 L 1431.24 1321.87 L 1434.75 1319.39 L 1436.70 1313.86 L 1453.27 1304.52 L 1461.65 1295.56 L 1470.82 1279.74 L 1465.75 1271.35 L 1466.33 1264.87 L 1460.09 1261.06 L 1456.58 1245.43 L 1457.37 1234.56 L 1446.45 1224.46 L 1433.38 1213.98 L 1422.28 1207.11 L 1413.70 1195.48 L 1412.14 1190.34 L 1429.87 1190.53 L 1444.69 1188.05 L 1459.90 1184.81 L 1470.43 1180.61 L 1466.52 1171.65 L 1474.13 1162.70 L 1479.78 1150.68 L 1474.70 1142.64 L 1468.97 1134.80 L 1460.77 1126.79 L 1459.82 1121.74 L 1466.31 1115.96 L 1469.36 1111.86 L 1472.03 1111.48 L 1477.18 1107.19 L 1479.28 1093.57 L 1489.01 1087.04 L 1489.94 1080.43 L 1494.54 1076.78 L 1498.13 1068.94 L 1497.60 1063.04 L 1503.13 1057.75 L 1508.09 1051.22 L 1515.03 1045.26 L 1518.30 1040.93 L 1517.03 1036.92 L 1517.96 1033.15 L 1525.63 1028.45 L 1530.82 1018.19 L 1536.56 1011.05 L 1542.53 1001.66 L 1547.54 996.58 L 1548.05 993.38 L 1549.74 992.02 L 1550.72 988.42 L 1550.59 984.39 L 1552.20 984.44 L 1554.58 985.18 L 1555.42 983.25 L 1553.17 980.27 L 1554.74 978.08 L 1561.90 972.11 L 1564.00 967.82 L 1558.46 959.05" pathLength="1" fill="none" vector-effect="non-scaling-stroke"/>
</svg>
