<svg xmlns="http://www.w3.org/2000/svg" viewBox="0 0 2000 2500" preserveAspectRatio="xMidYMid slice">
  <path class="trace-line" d="M 586.62 468.97 L 600.50 468.75 L 610.57 470.73 L 619.91 488.26 L 629.97 522.08 L 634.35 553.16 L 632.58 565.24 L 632.76 602.17 L 635.95 636.78 L 647.91 658.51 L 658.27 685.03 L 660.06 723.18 L 661.26 783.05 L 669.83 825.49 L 670.63 853.28 L 661.46 871.98 L 656.08 891.43 L 659.07 916.19 L 644.32 945.25 L 631.96 980.36 L 626.38 1009.92 L 614.62 1061.71 L 610.13 1078.84 L 602.21 1084.48 L 590.20 1078.45 L 581.26 1077.20 L 570.77 1095.31 L 554.45 1111.48 L 544.63 1134.70 L 533.36 1150.02 L 525.94 1163.33 L 513.29 1178.60 L 496.75 1192.05 L 475.34 1200.09 L 461.98 1207.72 L 455.15 1216.75 L 453.99 1227.84 L 457.75 1238.69 L 459.57 1254.58 L 464.10 1277.42 L 473.87 1307.81 L 473.43 1319.49 L 470.94 1327.31 L 459.55 1356.25 L 437.98 1385.44 L 432.10 1405.79 L 433.51 1417.07 L 442.89 1424.37 L 453.41 1444.52 L 457.35 1456.91 L 466.82 1481.17 L 468.30 1496.39 L 471.07 1508.79 L 471.50 1533.34 L 462.56 1552.13 L 447.22 1568.78 L 442.82 1584.15 L 438.23 1591.72 L 438.43 1606.89 L 437.23 1622.30 L 447.20 1637.96 L 447.60 1651.85 L 449.19 1662.21 L 460.35 1671.05 L 480.88 1679.90 L 501.81 1692.53 L 506.00 1691.51 L 511.38 1695.56 L 513.17 1702.63 L 524.08 1715.80 L 534.53 1724.61 L 539.88 1732.70 L 543.54 1735.92 L 546.32 1734.86 L 548.79 1734.83 L 554.50 1748.83 L 556.39 1759.71 L 563.96 1757.92 L 569.62 1751.33 L 576.27 1750.34 L 583.06 1747.99 L 588.43 1730.69 L 593.07 1722.40 L 598.84 1731.46 L 602.09 1728.26 L 602.87 1732.36 L 608.88 1745.44 L 612.95 1755.88 L 618.61 1759.47 L 645.17 1760.86 L 652.42 1757.28 L 686.58 1759.08 L 688.38 1751.53 L 700.64 1751.71 L 710.23 1756.44 L 715.00 1750.94 L 721.99 1750.37 L 734.81 1773.62 L 746.56 1777.57 L 777.97 1808.11 L 782.86 1813.75 L 788.23 1816.16 L 790.81 1819.02 L 792.78 1823.23 L 797.39 1825.93 L 799.98 1825.39 L 806.45 1819.96 L 818.07 1821.05 L 845.20 1821.77 L 862.66 1827.59 L 875.89 1839.93 L 884.69 1843.85 L 917.77 1839.05 L 930.73 1837.79 L 941.29 1833.49 L 950.06 1837.79 L 958.23 1834.00 L 972.79 1835.77 L 980.55 1845.88 L 987.53 1856.99 L 979.56 1865.33 L 968.60 1869.12 L 960.63 1877.96 L 963.02 1886.80 L 968.80 1893.37 L 972.39 1898.67 L 964.41 1902.21 L 963.02 1911.82 L 971.79 1915.60 L 976.37 1921.16 L 971.79 1924.95 L 961.82 1928.73 L 965.21 1936.06 L 977.57 1943.90 L 971.39 1947.43 L 963.42 1950.21 L 967.60 1955.52 L 964.22 1969.67 L 967.60 1983.56 L 967.60 2001.75 L 964.61 2009.32 L 969.06 2013.11 L 982.03 2019.19 L 984.56 2027.94 L 987.45 2031.25 L 996.68 2029.46 L 1008.87 2022.85 L 1019.44 2026.16 L 1023.60 2021.78 L 1028.32 2014.36 L 1036.14 2010.71 L 1051.15 2010.61 L 1058.62 2007.85 L 1068.77 2005.61 L 1075.25 2001.86 L 1084.69 1994.80 L 1095.40 1991.41 L 1100.69 1987.30 L 1101.89 1981.05 L 1114.43 1973.55 L 1115.48 1970.69 L 1121.83 1966.40 L 1130.21 1955.24 L 1147.84 1939.70 L 1169.96 1918.98 L 1176.09 1916.12 L 1177.64 1906.92 L 1200.19 1898.79 L 1204.28 1887.00 L 1209.07 1876.01 L 1216.72 1866.15 L 1219.51 1858.56 L 1224.69 1831.79 L 1222.30 1810.07 L 1216.32 1787.07 L 1210.34 1777.73 L 1209.74 1766.11 L 1202.96 1745.39 L 1203.16 1729.72 L 1197.38 1719.36 L 1186.42 1709.02 L 1177.25 1694.87 L 1167.68 1670.36 L 1162.50 1659.75 L 1171.68 1662.02 L 1190.21 1671.37 L 1209.34 1682.73 L 1224.69 1686.52 L 1245.42 1689.30 L 1257.58 1693.85 L 1259.97 1698.40 L 1266.15 1704.97 L 1278.51 1716.09 L 1292.46 1731.50 L 1308.00 1743.62 L 1318.76 1755.49 L 1319.96 1750.19 L 1321.75 1732.76 L 1325.34 1715.07 L 1331.12 1666.56 L 1334.71 1657.98 L 1353.84 1673.14 L 1367.79 1680.47 L 1376.56 1689.56 L 1380.15 1697.39 L 1383.34 1685.01 L 1383.54 1675.92 L 1387.32 1658.99 L 1391.12 1646.86 L 1390.12 1638.02 L 1394.11 1626.40 L 1402.88 1634.74 L 1405.86 1642.57 L 1410.05 1644.59 L 1413.64 1650.91 L 1420.02 1666.32 L 1427.78 1673.39 L 1432.17 1662.02 L 1435.76 1658.74 L 1437.75 1651.41 L 1454.70 1639.03 L 1463.26 1627.16 L 1472.63 1606.19 L 1467.45 1595.07 L 1468.05 1586.49 L 1461.67 1581.44 L 1458.08 1560.72 L 1458.88 1546.32 L 1447.72 1532.93 L 1434.36 1519.03 L 1423.01 1509.94 L 1414.24 1494.52 L 1412.64 1487.71 L 1430.77 1487.96 L 1445.92 1484.68 L 1461.47 1480.38 L 1472.24 1474.82 L 1468.24 1462.94 L 1476.02 1451.08 L 1481.80 1435.16 L 1476.60 1424.50 L 1470.75 1414.11 L 1462.37 1403.48 L 1461.39 1396.80 L 1468.03 1389.14 L 1471.15 1383.70 L 1473.87 1383.21 L 1479.14 1377.52 L 1481.29 1359.46 L 1491.24 1350.82 L 1492.19 1342.05 L 1496.89 1337.21 L 1500.56 1326.82 L 1500.01 1319.00 L 1505.67 1311.99 L 1510.74 1303.33 L 1517.84 1295.43 L 1521.18 1289.70 L 1519.88 1284.39 L 1520.83 1279.39 L 1528.68 1273.16 L 1533.98 1259.57 L 1539.85 1250.10 L 1545.96 1237.66 L 1551.08 1230.93 L 1551.60 1226.69 L 1553.33 1224.89 L 1554.33 1220.11 L 1554.19 1214.77 L 1555.84 1214.83 L 1558.28 1215.82 L 1559.13 1213.26 L 1556.84 1209.31 L 1558.44 1206.41 L 1565.76 1198.49 L 1567.90 1192.80 L 1562.25 1181.18" pathLength="1" fill="none" vector-effect="non-scaling-stroke"/>
  <circle class="trace-start" cx="586.62" cy="468.97" r="6.25"/>
  <circle class="trace-summit-halo" cx="1557.35" cy="1179.69" r="15.97"/>
  <circle class="trace-summit" cx="1557.35" cy="1179.69" r="9.03"/>
</svg>
