<svg xmlns="http://www.w3.org/2000/svg" viewBox="0 0 1600 900" preserveAspectRatio="xMidYMid slice">
  <path class="trace-line" d="M 494.74 -126.44 L 504.99 -126.59 L 512.42 -125.13 L 519.32 -112.20 L 526.75 -87.23 L 529.98 -64.30 L 528.67 -55.38 L 528.81 -28.12 L 531.16 -2.58 L 539.99 13.45 L 547.65 33.03 L 548.97 61.19 L 549.85 105.37 L 556.18 136.70 L 556.77 157.21 L 550.00 171.01 L 546.03 185.36 L 548.24 203.63 L 537.34 225.08 L 528.22 251.00 L 524.09 272.81 L 515.41 311.03 L 512.10 323.68 L 506.25 327.84 L 497.38 323.39 L 490.78 322.47 L 483.03 335.83 L 470.98 347.76 L 463.72 364.90 L 455.40 376.21 L 449.92 386.04 L 440.58 397.31 L 428.37 407.23 L 412.56 413.16 L 402.69 418.80 L 397.65 425.46 L 396.79 433.64 L 399.57 441.65 L 400.92 453.38 L 404.26 470.24 L 411.47 492.67 L 411.15 501.29 L 409.31 507.06 L 400.90 528.41 L 384.97 549.96 L 380.63 564.98 L 381.67 573.30 L 388.59 578.69 L 396.36 593.56 L 399.27 602.71 L 406.27 620.62 L 407.36 631.85 L 409.41 641.00 L 409.72 659.12 L 403.12 672.98 L 391.79 685.27 L 388.54 696.62 L 385.16 702.21 L 385.30 713.40 L 384.42 724.77 L 391.78 736.33 L 392.07 746.58 L 393.25 754.23 L 401.49 760.75 L 416.65 767.28 L 432.11 776.60 L 435.20 775.86 L 439.17 778.84 L 440.50 784.06 L 448.55 793.78 L 456.27 800.28 L 460.22 806.25 L 462.92 808.63 L 464.98 807.84 L 466.80 807.82 L 471.01 818.16 L 472.41 826.18 L 478.00 824.87 L 482.18 820.01 L 487.09 819.27 L 492.10 817.54 L 496.07 804.77 L 499.50 798.65 L 503.76 805.33 L 506.16 802.97 L 506.73 806.00 L 511.17 815.66 L 514.18 823.36 L 518.36 826.01 L 537.97 827.04 L 543.33 824.39 L 568.55 825.72 L 569.88 820.15 L 578.93 820.28 L 586.01 823.77 L 589.53 819.72 L 594.70 819.29 L 604.17 836.45 L 612.85 839.36 L 636.04 861.91 L 639.65 866.07 L 643.61 867.85 L 645.52 869.96 L 646.98 873.07 L 650.38 875.06 L 652.29 874.66 L 657.07 870.65 L 665.65 871.46 L 685.69 871.99 L 698.58 876.28 L 708.35 885.39 L 714.85 888.29 L 739.28 884.75 L 748.85 883.82 L 756.65 880.64 L 763.12 883.82 L 769.16 881.02 L 779.90 882.32 L 785.64 889.78 L 790.79 897.98 L 784.91 904.14 L 776.81 906.94 L 770.92 913.46 L 772.69 919.99 L 776.96 924.84 L 779.61 928.74 L 773.72 931.36 L 772.69 938.45 L 779.17 941.24 L 782.55 945.34 L 779.17 948.14 L 771.81 950.93 L 774.31 956.34 L 783.44 962.13 L 778.87 964.73 L 772.98 966.78 L 776.08 970.70 L 773.57 981.14 L 776.08 991.40 L 776.08 1004.82 L 773.87 1010.41 L 777.15 1013.21 L 786.73 1017.69 L 788.59 1024.15 L 790.73 1026.59 L 797.55 1025.27 L 806.55 1020.39 L 814.35 1022.84 L 817.43 1019.61 L 820.91 1014.13 L 826.69 1011.43 L 837.77 1011.36 L 843.29 1009.32 L 850.78 1007.67 L 855.57 1004.91 L 862.54 999.69 L 870.45 997.19 L 874.36 994.16 L 875.24 989.55 L 884.50 984.01 L 885.28 981.90 L 889.97 978.73 L 896.16 970.50 L 909.17 959.02 L 925.51 943.73 L 930.04 941.62 L 931.18 934.83 L 947.83 928.84 L 950.85 920.13 L 954.39 912.02 L 960.04 904.74 L 962.10 899.15 L 965.93 879.39 L 964.16 863.35 L 959.74 846.38 L 955.33 839.49 L 954.89 830.91 L 949.88 815.62 L 950.03 804.06 L 945.76 796.41 L 937.66 788.77 L 930.89 778.33 L 923.83 760.24 L 920.00 752.41 L 926.78 754.09 L 940.46 760.99 L 954.59 769.37 L 965.93 772.17 L 981.23 774.22 L 990.21 777.58 L 991.98 780.94 L 996.54 785.79 L 1005.67 793.99 L 1015.97 805.36 L 1027.45 814.31 L 1035.39 823.08 L 1036.28 819.16 L 1037.60 806.29 L 1040.25 793.24 L 1044.52 757.44 L 1047.17 751.10 L 1061.30 762.30 L 1071.60 767.70 L 1078.08 774.41 L 1080.73 780.19 L 1083.08 771.05 L 1083.23 764.35 L 1086.02 751.85 L 1088.82 742.90 L 1088.09 736.37 L 1091.03 727.80 L 1097.51 733.95 L 1099.71 739.73 L 1102.80 741.22 L 1105.45 745.89 L 1110.17 757.26 L 1115.90 762.48 L 1119.14 754.09 L 1121.79 751.66 L 1123.26 746.26 L 1135.78 737.12 L 1142.10 728.36 L 1149.02 712.88 L 1145.20 704.68 L 1145.64 698.34 L 1140.93 694.61 L 1138.28 679.32 L 1138.87 668.70 L 1130.62 658.81 L 1120.76 648.56 L 1112.37 641.84 L 1105.90 630.47 L 1104.72 625.44 L 1118.11 625.62 L 1129.30 623.20 L 1140.78 620.03 L 1148.73 615.93 L 1145.78 607.16 L 1151.52 598.40 L 1155.79 586.65 L 1151.95 578.79 L 1147.63 571.12 L 1141.44 563.28 L 1140.72 558.35 L 1145.62 552.69 L 1147.92 548.67 L 1149.94 548.31 L 1153.83 544.11 L 1155.42 530.79 L 1162.76 524.41 L 1163.46 517.93 L 1166.94 514.36 L 1169.65 506.70 L 1169.24 500.93 L 1173.42 495.75 L 1177.16 489.36 L 1182.40 483.53 L 1184.87 479.30 L 1183.91 475.38 L 1184.61 471.69 L 1190.41 467.09 L 1194.33 457.06 L 1198.66 450.08 L 1203.17 440.89 L 1206.95 435.93 L 1207.33 432.80 L 1208.61 431.46 L 1209.35 427.94 L 1209.25 424.00 L 1210.47 424.05 L 1212.27 424.77 L 1212.90 422.88 L 1211.20 419.97 L 1212.38 417.83 L 1217.79 411.98 L 1219.37 407.79 L 1215.20 399.21" pathLength="1" fill="none" vector-effect="non-scaling-stroke"/>
  <circle class="trace-start" cx="494.74" cy="-126.44" r="4.62"/>
  <circle class="trace-summit-halo" cx="1211.58" cy="398.11" r="11.79"/>
  <circle class="trace-summit" cx="1211.58" cy="398.11" r="6.67"/>
</svg>
