<svg xmlns="http://www.w3.org/2000/svg" viewBox="-107.5198245 -37.9214632 0.0168601 0.0182988" preserveAspectRatio="xMidYMid meet">
  <path d="M -107.5165080 -37.9199362 L -107.5163363 -37.9199383 L -107.5162118 -37.9199190 L -107.5160962 -37.9197479 L -107.5159718 -37.9194178 L -107.5159176 -37.9191145 L -107.5159395 -37.9189966 L -107.5159373 -37.9186362 L -107.5158978 -37.9182984 L -107.5157499 -37.9180864 L -107.5156217 -37.9178275 L -107.5155995 -37.9174552 L -107.5155847 -37.9170188 L -107.5155847 -37.9168709 L -107.5154787 -37.9164567 L -107.5154688 -37.9161855 L -107.5155822 -37.9160030 L -107.5156488 -37.9158132 L -107.5156118 -37.9155716 L -107.5157943 -37.9152880 L -107.5159471 -37.9149453 L -107.5160162 -37.9146568 L -107.5161616 -37.9141514 L -107.5162172 -37.9139842 L -107.5163152 -37.9139292 L -107.5164637 -37.9139880 L -107.5165743 -37.9140002 L -107.5167041 -37.9138235 L -107.5169060 -37.9136657 L -107.5170275 -37.9134391 L -107.5171669 -37.9132895 L -107.5172587 -37.9131596 L -107.5174151 -37.9130106 L -107.5176197 -37.9128794 L -107.5178846 -37.9128009 L -107.5180498 -37.9127264 L -107.5181343 -37.9126383 L -107.5181487 -37.9125301 L -107.5181021 -37.9124242 L -107.5180796 -37.9122691 L -107.5180236 -37.9120462 L -107.5179028 -37.9117496 L -107.5179082 -37.9116356 L -107.5179390 -37.9115593 L -107.5180799 -37.9112769 L -107.5183467 -37.9109920 L -107.5184195 -37.9107934 L -107.5184020 -37.9106833 L -107.5182860 -37.9106121 L -107.5181559 -37.9104154 L -107.5181071 -37.9102945 L -107.5179900 -37.9100577 L -107.5179717 -37.9099092 L -107.5179374 -37.9097882 L -107.5179321 -37.9095486 L -107.5180427 -37.9093652 L -107.5182324 -37.9092027 L -107.5182869 -37.9090527 L -107.5183436 -37.9089788 L -107.5183412 -37.9088308 L -107.5183560 -37.9086804 L -107.5182327 -37.9085276 L -107.5182277 -37.9083920 L -107.5182080 -37.9082909 L -107.5180700 -37.9082046 L -107.5178160 -37.9081183 L -107.5175571 -37.9079950 L -107.5175053 -37.9080049 L -107.5174388 -37.9079654 L -107.5174166 -37.9078964 L -107.5172817 -37.9077679 L -107.5171524 -37.9076819 L -107.5170862 -37.9076030 L -107.5170409 -37.9075715 L -107.5170065 -37.9075819 L -107.5169760 -37.9075822 L -107.5169054 -37.9074455 L -107.5168820 -37.9073394 L -107.5167883 -37.9073568 L -107.5167183 -37.9074211 L -107.5166360 -37.9074308 L -107.5165521 -37.9074537 L -107.5164856 -37.9076226 L -107.5164282 -37.9077035 L -107.5163568 -37.9076151 L -107.5163167 -37.9076463 L -107.5163070 -37.9076063 L -107.5162327 -37.9074786 L -107.5161823 -37.9073767 L -107.5161123 -37.9073417 L -107.5157837 -37.9073281 L -107.5156940 -37.9073631 L -107.5152715 -37.9073455 L -107.5152492 -37.9074192 L -107.5150976 -37.9074174 L -107.5149790 -37.9073713 L -107.5149200 -37.9074249 L -107.5148335 -37.9074305 L -107.5147736 -37.9073392 L -107.5146749 -37.9072036 L -107.5145295 -37.9071651 L -107.5141410 -37.9068670 L -107.5140805 -37.9068120 L -107.5140141 -37.9067884 L -107.5139821 -37.9067605 L -107.5139578 -37.9067194 L -107.5139008 -37.9066931 L -107.5138687 -37.9066984 L -107.5137887 -37.9067514 L -107.5136449 -37.9067407 L -107.5133093 -37.9067337 L -107.5130934 -37.9066769 L -107.5129297 -37.9065565 L -107.5128209 -37.9065182 L -107.5124116 -37.9065650 L -107.5122513 -37.9065773 L -107.5121207 -37.9066193 L -107.5120122 -37.9065773 L -107.5119111 -37.9066143 L -107.5117311 -37.9065971 L -107.5116350 -37.9064984 L -107.5115487 -37.9063900 L -107.5116473 -37.9063086 L -107.5117829 -37.9062716 L -107.5118815 -37.9061853 L -107.5118519 -37.9060990 L -107.5117804 -37.9060349 L -107.5117360 -37.9059832 L -107.5118347 -37.9059486 L -107.5118519 -37.9058549 L -107.5117434 -37.9058180 L -107.5116867 -37.9057637 L -107.5117434 -37.9057267 L -107.5118667 -37.9056898 L -107.5118248 -37.9056183 L -107.5116719 -37.9055418 L -107.5117484 -37.9055073 L -107.5118470 -37.9054802 L -107.5117952 -37.9054284 L -107.5118371 -37.9052903 L -107.5117952 -37.9051547 L -107.5117952 -37.9049772 L -107.5118322 -37.9049033 L -107.5117772 -37.9048663 L -107.5116168 -37.9048070 L -107.5115855 -37.9047216 L -107.5115497 -37.9046893 L -107.5114355 -37.9047068 L -107.5112847 -37.9047713 L -107.5111540 -37.9047390 L -107.5111025 -37.9047817 L -107.5110441 -37.9048541 L -107.5109474 -37.9048898 L -107.5107617 -37.9048907 L -107.5106693 -37.9049177 L -107.5105438 -37.9049395 L -107.5104636 -37.9049761 L -107.5103468 -37.9050450 L -107.5102143 -37.9050781 L -107.5101489 -37.9051182 L -107.5101341 -37.9051792 L -107.5099789 -37.9052524 L -107.5099659 -37.9052803 L -107.5098874 -37.9053222 L -107.5097837 -37.9054311 L -107.5095657 -37.9055828 L -107.5092920 -37.9057850 L -107.5092162 -37.9058129 L -107.5091970 -37.9059027 L -107.5089181 -37.9059820 L -107.5088675 -37.9060971 L -107.5088082 -37.9062043 L -107.5087136 -37.9063006 L -107.5086791 -37.9063746 L -107.5086150 -37.9066359 L -107.5086446 -37.9068479 L -107.5087186 -37.9070723 L -107.5087925 -37.9071635 L -107.5087999 -37.9072769 L -107.5088838 -37.9074791 L -107.5088813 -37.9076320 L -107.5089528 -37.9077331 L -107.5090884 -37.9078341 L -107.5092018 -37.9079722 L -107.5093202 -37.9082114 L -107.5093843 -37.9083149 L -107.5092708 -37.9082927 L -107.5090415 -37.9082015 L -107.5088049 -37.9080906 L -107.5086150 -37.9080536 L -107.5083586 -37.9080265 L -107.5082082 -37.9079821 L -107.5081786 -37.9079377 L -107.5081022 -37.9078736 L -107.5079493 -37.9077651 L -107.5077767 -37.9076147 L -107.5075844 -37.9074964 L -107.5074513 -37.9073805 L -107.5074365 -37.9074323 L -107.5074143 -37.9076024 L -107.5073699 -37.9077750 L -107.5072984 -37.9082484 L -107.5072540 -37.9083322 L -107.5070174 -37.9081842 L -107.5068448 -37.9081127 L -107.5067363 -37.9080240 L -107.5066919 -37.9079476 L -107.5066525 -37.9080684 L -107.5066500 -37.9081571 L -107.5066032 -37.9083223 L -107.5065563 -37.9084407 L -107.5065686 -37.9085270 L -107.5065193 -37.9086404 L -107.5064108 -37.9085590 L -107.5063739 -37.9084826 L -107.5063221 -37.9084629 L -107.5062777 -37.9084012 L -107.5061988 -37.9082508 L -107.5061027 -37.9081818 L -107.5060484 -37.9082927 L -107.5060040 -37.9083248 L -107.5059794 -37.9083963 L -107.5057698 -37.9085171 L -107.5056638 -37.9086330 L -107.5055479 -37.9088376 L -107.5056120 -37.9089461 L -107.5056046 -37.9090299 L -107.5056835 -37.9090792 L -107.5057279 -37.9092814 L -107.5057180 -37.9094219 L -107.5058561 -37.9095526 L -107.5060213 -37.9096882 L -107.5061618 -37.9097770 L -107.5062703 -37.9099274 L -107.5062900 -37.9099939 L -107.5060657 -37.9099915 L -107.5058783 -37.9100235 L -107.5056860 -37.9100654 L -107.5055528 -37.9101197 L -107.5056022 -37.9102356 L -107.5055060 -37.9103514 L -107.5054345 -37.9105068 L -107.5054988 -37.9106108 L -107.5055712 -37.9107122 L -107.5056749 -37.9108159 L -107.5056870 -37.9108811 L -107.5056049 -37.9109559 L -107.5055663 -37.9110090 L -107.5055326 -37.9110138 L -107.5054674 -37.9110693 L -107.5054408 -37.9112455 L -107.5053178 -37.9113299 L -107.5053060 -37.9114155 L -107.5052478 -37.9114627 L -107.5052024 -37.9115641 L -107.5052092 -37.9116404 L -107.5051392 -37.9117088 L -107.5050765 -37.9117933 L -107.5049887 -37.9118704 L -107.5049474 -37.9119264 L -107.5049634 -37.9119782 L -107.5049517 -37.9120270 L -107.5048546 -37.9120878 L -107.5047890 -37.9122204 L -107.5047164 -37.9123128 L -107.5046409 -37.9124342 L -107.5045775 -37.9124999 L -107.5045711 -37.9125413 L -107.5045497 -37.9125589 L -107.5045373 -37.9126055 L -107.5045390 -37.9126576 L -107.5045186 -37.9126570 L -107.5044885 -37.9126474 L -107.5044779 -37.9126724 L -107.5045063 -37.9127109 L -107.5044865 -37.9127392 L -107.5043959 -37.9128165 L -107.5043694 -37.9128720 L -107.5044394 -37.9129854" pathLength="1" fill="none" stroke="currentColor" vector-effect="non-scaling-stroke"/>
</svg>
