<svg xmlns="http://www.w3.org/2000/svg" viewBox="0 0 2000 2500" preserveAspectRatio="xMidYMid slice">
  <path class="trace-line" d="M 1677.08 1818.07 L 1670.61 1822.39 L 1666.29 1828.52 L 1663.63 1834.38 L 1657.92 1840.75 L 1650.03 1854.75 L 1637.82 1866.31 L 1626.11 1883.29 L 1606.50 1886.16 L 1601.95 1884.88 L 1596.64 1885.57 L 1587.79 1884.79 L 1580.71 1879.72 L 1570.95 1880.59 L 1563.98 1878.91 L 1557.75 1880.14 L 1554.05 1883.15 L 1543.92 1887.59 L 1534.91 1893.15 L 1529.58 1894.46 L 1523.06 1888.48 L 1517.16 1887.89 L 1508.07 1891.09 L 1501.97 1894.89 L 1496.49 1899.92 L 1492.56 1898.78 L 1490.55 1901.52 L 1484.02 1901.43 L 1481.17 1903.49 L 1471.57 1904.64 L 1467.26 1908.26 L 1459.19 1911.72 L 1458.15 1906.02 L 1462.58 1896.47 L 1466.07 1880.47 L 1463.27 1875.66 L 1465.02 1872.23 L 1462.14 1868.44 L 1462.02 1858.31 L 1463.14 1853.48 L 1459.36 1834.07 L 1461.12 1830.26 L 1457.31 1827.44 L 1446.92 1829.79 L 1429.95 1835.07 L 1423.67 1836.01 L 1417.92 1836.72 L 1409.05 1834.19 L 1386.57 1838.95 L 1376.53 1838.37 L 1372.88 1839.36 L 1361.73 1845.59 L 1348.23 1847.29 L 1343.30 1846.11 L 1327.33 1848.05 L 1303.66 1843.42 L 1295.56 1840.42 L 1288.97 1835.93 L 1289.68 1831.03 L 1292.21 1827.51 L 1289.37 1824.53 L 1290.97 1820.80 L 1290.63 1816.69 L 1305.49 1808.44 L 1307.72 1804.34 L 1311.59 1802.67 L 1313.31 1794.67 L 1319.23 1792.43 L 1326.54 1792.61 L 1327.38 1788.10 L 1323.92 1784.15 L 1321.76 1772.57 L 1330.72 1758.09 L 1335.62 1747.52 L 1333.51 1739.90 L 1336.93 1735.23 L 1345.93 1728.83 L 1355.63 1717.71 L 1356.54 1691.71 L 1349.26 1673.32 L 1347.24 1652.83 L 1359.69 1601.41 L 1357.95 1593.17 L 1360.35 1577.35 L 1365.35 1559.17 L 1359.34 1542.22 L 1357.59 1533.15 L 1352.25 1525.38 L 1350.04 1515.04 L 1341.01 1505.85 L 1334.19 1491.31 L 1327.77 1468.16 L 1326.07 1453.69 L 1326.06 1434.78 L 1315.61 1417.13 L 1311.80 1407.90 L 1306.76 1406.47 L 1306.84 1397.31 L 1295.78 1358.84 L 1285.35 1329.50 L 1271.56 1308.03 L 1265.29 1285.33 L 1248.19 1254.89 L 1231.25 1229.89 L 1217.06 1212.04 L 1213.82 1209.14 L 1191.81 1197.76 L 1189.99 1183.39 L 1190.49 1174.35 L 1186.42 1162.64 L 1183.01 1159.15 L 1177.95 1158.82 L 1149.39 1142.79 L 1138.59 1132.41 L 1135.69 1125.60 L 1131.20 1118.21 L 1121.32 1093.22 L 1114.35 1079.35 L 1103.14 1061.25 L 1095.50 1052.29 L 1089.99 1043.77 L 1083.00 1029.84 L 1059.93 997.06 L 1057.68 992.79 L 1043.05 978.16 L 1035.77 972.55 L 1031.78 968.05 L 1026.75 958.91 L 1020.58 950.54 L 1018.87 941.71 L 1021.98 924.46 L 1021.00 909.67 L 1018.95 900.68 L 1016.33 894.22 L 1014.21 883.84 L 1022.63 872.88 L 1038.98 863.40 L 1054.68 857.84 L 1066.53 852.61 L 1072.09 851.46 L 1072.99 849.99 L 1072.66 845.58 L 1069.39 831.27 L 1070.19 819.94 L 1072.22 805.43 L 1075.86 788.49 L 1079.09 779.01 L 1080.54 769.59 L 1075.22 763.46 L 1065.74 760.98 L 1063.49 758.95 L 1059.67 752.65 L 1053.89 748.84 L 1030.48 744.04 L 1023.66 743.98 L 1008.28 736.59 L 981.05 727.22 L 957.41 720.51 L 941.68 720.98 L 910.76 728.32 L 907.75 731.73 L 896.31 734.68 L 885.03 733.58 L 871.39 730.98 L 862.72 733.81 L 860.18 737.74 L 854.34 734.79 L 844.86 727.63 L 836.94 723.64 L 836.82 727.16 L 830.87 725.37 L 819.13 718.72 L 815.72 711.26 L 811.10 705.95 L 795.02 694.21 L 780.00 691.61 L 766.18 687.51 L 757.97 690.80 L 752.02 689.19 L 740.23 684.39 L 732.07 676.53 L 727.16 668.72 L 724.84 659.82 L 725.19 655.08 L 719.99 655.72 L 711.14 658.44 L 707.26 656.12 L 697.75 639.30 L 692.21 653.69 L 689.08 649.09 L 687.19 655.55 L 685.83 656.15 L 682.36 654.31 L 674.54 652.35 L 660.88 651.62 L 660.28 652.45 L 662.36 658.01 L 663.85 668.06 L 663.07 672.48 L 661.11 672.86 L 645.46 667.34 L 644.70 668.25 L 645.38 669.84 L 645.78 680.26 L 643.70 685.64 L 640.47 687.75 L 623.96 685.69 L 617.01 683.21 L 614.14 680.97 L 601.77 659.27 L 596.64 653.42 L 581.51 647.34 L 564.89 637.29 L 562.71 633.88 L 559.37 625.51 L 556.56 621.39 L 552.49 617.88 L 530.23 609.70 L 525.00 609.00 L 516.78 610.07 L 508.89 609.51 L 504.01 607.32 L 496.70 601.28 L 487.83 591.60 L 484.88 590.34 L 469.35 588.28 L 466.37 590.15 L 462.30 598.52 L 457.72 604.42 L 444.40 617.00 L 428.37 637.24 L 409.24 657.02 L 399.64 664.65 L 387.96 683.96 L 383.92 692.84 L 381.56 706.45 L 381.76 714.85 L 380.07 715.55 L 378.47 712.86 L 375.92 710.99 L 361.59 702.01 L 352.65 691.77 L 351.04 688.52 L 346.26 682.74 L 344.36 682.34 L 344.32 692.66 L 342.10 697.33 L 341.05 702.57 L 344.83 721.84 L 344.17 729.18 L 342.65 732.87 L 330.90 749.19 L 323.59 761.54 L 322.92 765.92 L 326.55 769.02 L 331.71 769.92 L 337.69 772.54 L 348.87 775.31 L 356.08 779.04 L 360.38 784.57 L 379.26 799.94 L 395.41 817.72 L 410.73 836.53 L 423.22 844.71 L 429.57 847.33 L 436.86 848.75 L 455.77 860.37 L 460.41 865.01 L 480.97 880.85 L 496.59 895.99 L 511.54 914.79 L 523.02 934.68 L 532.14 945.78 L 566.93 984.17 L 574.64 990.11 L 583.68 994.44 L 598.72 1004.42 L 608.70 1009.11 L 616.95 1011.80 L 623.33 1019.31 L 628.21 1020.29" pathLength="1" fill="none" vector-effect="non-scaling-stroke"/>
  <circle class="trace-start" cx="1677.08" cy="1818.07" r="6.25"/>
  <circle class="trace-summit-halo" cx="629.23" cy="1019.20" r="15.97"/>
  <circle class="trace-summit" cx="629.23" cy="1019.20" r="9.03"/>
</svg>
