<svg xmlns="http://www.w3.org/2000/svg" viewBox="0 0 1600 900" preserveAspectRatio="xMidYMid slice">
  <path class="trace-line" d="M 1300.00 869.26 L 1295.22 872.45 L 1292.03 876.97 L 1290.07 881.30 L 1285.85 886.00 L 1280.02 896.33 L 1271.01 904.86 L 1262.35 917.39 L 1247.87 919.51 L 1244.52 918.57 L 1240.60 919.08 L 1234.06 918.50 L 1228.84 914.76 L 1221.63 915.40 L 1216.48 914.16 L 1211.88 915.07 L 1209.15 917.29 L 1201.66 920.57 L 1195.01 924.67 L 1191.08 925.64 L 1186.26 921.23 L 1181.91 920.79 L 1175.19 923.15 L 1170.68 925.95 L 1166.64 929.67 L 1163.74 928.83 L 1162.25 930.85 L 1157.43 930.79 L 1155.32 932.30 L 1148.24 933.15 L 1145.05 935.82 L 1139.10 938.37 L 1138.32 934.17 L 1141.60 927.12 L 1144.18 915.31 L 1142.11 911.77 L 1143.40 909.23 L 1141.27 906.43 L 1141.18 898.96 L 1142.01 895.39 L 1139.22 881.07 L 1140.52 878.25 L 1137.71 876.18 L 1130.03 877.91 L 1117.50 881.81 L 1112.86 882.50 L 1108.61 883.02 L 1102.07 881.16 L 1085.46 884.67 L 1078.05 884.24 L 1075.36 884.97 L 1067.12 889.57 L 1057.15 890.83 L 1053.51 889.96 L 1041.72 891.39 L 1024.24 887.97 L 1018.26 885.75 L 1013.39 882.44 L 1013.92 878.82 L 1015.79 876.23 L 1013.69 874.03 L 1014.87 871.27 L 1014.62 868.24 L 1025.59 862.15 L 1027.24 859.12 L 1030.09 857.89 L 1031.37 851.99 L 1035.74 850.33 L 1041.14 850.47 L 1041.76 847.14 L 1039.20 844.22 L 1037.61 835.68 L 1044.23 824.99 L 1047.84 817.19 L 1046.29 811.57 L 1048.81 808.12 L 1055.46 803.40 L 1062.62 795.19 L 1063.29 776.00 L 1057.91 762.43 L 1056.42 747.31 L 1065.62 709.35 L 1064.34 703.28 L 1066.10 691.60 L 1069.80 678.18 L 1065.36 665.67 L 1064.07 658.98 L 1060.13 653.24 L 1058.49 645.61 L 1051.82 638.82 L 1046.79 628.09 L 1042.05 611.01 L 1040.79 600.33 L 1040.79 586.37 L 1033.06 573.35 L 1030.25 566.53 L 1026.53 565.48 L 1026.59 558.72 L 1018.42 530.33 L 1010.72 508.68 L 1000.54 492.83 L 995.91 476.08 L 983.28 453.61 L 970.77 435.16 L 960.29 421.98 L 957.90 419.84 L 941.65 411.44 L 940.30 400.84 L 940.67 394.16 L 937.66 385.52 L 935.15 382.95 L 931.41 382.70 L 910.32 370.87 L 902.35 363.22 L 900.20 358.19 L 896.89 352.73 L 889.59 334.29 L 884.44 324.05 L 876.16 310.70 L 870.52 304.08 L 866.46 297.80 L 861.29 287.52 L 844.26 263.32 L 842.59 260.17 L 831.79 249.37 L 826.42 245.23 L 823.47 241.91 L 819.76 235.17 L 815.20 228.99 L 813.93 222.47 L 816.23 209.74 L 815.50 198.82 L 813.99 192.18 L 812.06 187.42 L 810.49 179.76 L 816.71 171.67 L 828.79 164.67 L 840.38 160.57 L 849.13 156.71 L 853.24 155.86 L 853.90 154.78 L 853.66 151.52 L 851.25 140.96 L 851.83 132.59 L 853.33 121.89 L 856.02 109.39 L 858.41 102.39 L 859.48 95.44 L 855.55 90.91 L 848.55 89.08 L 846.88 87.59 L 844.07 82.94 L 839.80 80.12 L 822.51 76.58 L 817.47 76.54 L 806.12 71.08 L 786.01 64.17 L 768.55 59.22 L 756.94 59.56 L 734.10 64.98 L 731.88 67.49 L 723.43 69.67 L 715.10 68.86 L 705.03 66.94 L 698.62 69.03 L 696.74 71.93 L 692.43 69.75 L 685.43 64.47 L 679.58 61.52 L 679.50 64.12 L 675.10 62.80 L 666.44 57.90 L 663.92 52.39 L 660.50 48.47 L 648.63 39.81 L 637.54 37.89 L 627.33 34.86 L 621.27 37.29 L 616.87 36.10 L 608.17 32.56 L 602.14 26.75 L 598.52 20.99 L 596.81 14.42 L 597.07 10.93 L 593.22 11.40 L 586.69 13.40 L 583.82 11.69 L 576.80 -0.72 L 572.71 9.90 L 570.40 6.50 L 569.00 11.27 L 567.99 11.72 L 565.44 10.36 L 559.66 8.91 L 549.57 8.37 L 549.13 8.98 L 550.67 13.08 L 551.77 20.50 L 551.19 23.77 L 549.74 24.05 L 538.19 19.97 L 537.63 20.64 L 538.13 21.82 L 538.42 29.51 L 536.89 33.48 L 534.50 35.03 L 522.31 33.52 L 517.18 31.69 L 515.05 30.03 L 505.92 14.02 L 502.14 9.70 L 490.96 5.21 L 478.69 -2.20 L 477.08 -4.72 L 474.61 -10.90 L 472.54 -13.94 L 469.53 -16.53 L 453.10 -22.57 L 449.23 -23.09 L 443.16 -22.29 L 437.33 -22.71 L 433.73 -24.33 L 428.33 -28.78 L 421.78 -35.92 L 419.61 -36.86 L 408.14 -38.37 L 405.94 -36.99 L 402.93 -30.82 L 399.54 -26.47 L 389.71 -17.18 L 377.87 -2.24 L 363.74 12.36 L 356.65 17.98 L 348.03 32.24 L 345.05 38.80 L 343.31 48.84 L 343.46 55.04 L 342.21 55.56 L 341.03 53.57 L 339.14 52.19 L 328.56 45.56 L 321.96 38.00 L 320.77 35.61 L 317.24 31.34 L 315.83 31.04 L 315.81 38.66 L 314.17 42.11 L 313.39 45.97 L 316.18 60.19 L 315.70 65.61 L 314.57 68.34 L 305.89 80.38 L 300.50 89.50 L 300.00 92.73 L 302.69 95.02 L 306.50 95.68 L 310.91 97.61 L 319.16 99.66 L 324.49 102.41 L 327.67 106.50 L 341.61 117.83 L 353.53 130.96 L 364.85 144.84 L 374.07 150.88 L 378.76 152.81 L 384.14 153.86 L 398.11 162.44 L 401.53 165.86 L 416.71 177.55 L 428.25 188.73 L 439.29 202.60 L 447.77 217.28 L 454.50 225.47 L 480.20 253.80 L 485.89 258.19 L 492.56 261.39 L 503.67 268.75 L 511.04 272.21 L 517.14 274.20 L 521.84 279.74 L 525.45 280.46" pathLength="1" fill="none" vector-effect="non-scaling-stroke"/>
  <circle class="trace-start" cx="1300.00" cy="869.26" r="4.62"/>
  <circle class="trace-summit-halo" cx="526.20" cy="279.66" r="11.79"/>
  <circle class="trace-summit" cx="526.20" cy="279.66" r="6.67"/>
</svg>
