<svg xmlns="http://www.w3.org/2000/svg" viewBox="0 0 2000 2500" preserveAspectRatio="none">
  <path class="trace-underlay" d="M 1581.39 1694.17 L 1576.07 1696.90 L 1572.53 1700.77 L 1570.35 1704.48 L 1565.66 1708.51 L 1559.19 1717.36 L 1549.17 1724.66 L 1543.23 1730.78 L 1539.56 1735.40 L 1535.92 1736.01 L 1531.10 1736.04 L 1527.87 1736.87 L 1523.46 1737.21 L 1519.73 1736.41 L 1515.38 1736.84 L 1508.11 1736.35 L 1502.30 1733.14 L 1494.29 1733.69 L 1488.57 1732.63 L 1483.46 1733.41 L 1480.43 1735.31 L 1472.11 1738.12 L 1464.72 1741.63 L 1460.34 1742.46 L 1454.99 1738.68 L 1450.15 1738.31 L 1442.69 1740.33 L 1437.68 1742.73 L 1433.19 1745.91 L 1429.96 1745.19 L 1428.31 1746.92 L 1422.95 1746.87 L 1420.61 1748.17 L 1412.74 1748.90 L 1409.20 1751.18 L 1402.58 1753.37 L 1401.72 1749.77 L 1405.36 1743.73 L 1406.75 1737.62 L 1408.23 1733.61 L 1405.92 1730.58 L 1407.36 1728.41 L 1405.00 1726.01 L 1404.90 1719.61 L 1405.82 1716.55 L 1402.72 1704.28 L 1404.16 1701.87 L 1401.04 1700.09 L 1392.51 1701.58 L 1378.58 1704.92 L 1373.43 1705.51 L 1368.70 1705.96 L 1361.43 1704.36 L 1342.98 1707.37 L 1334.74 1707.00 L 1331.75 1707.63 L 1322.60 1711.56 L 1311.51 1712.64 L 1307.47 1711.90 L 1294.36 1713.12 L 1274.94 1710.19 L 1268.29 1708.30 L 1262.88 1705.46 L 1263.47 1702.36 L 1265.55 1700.14 L 1263.22 1698.26 L 1264.53 1695.89 L 1264.25 1693.29 L 1276.44 1688.08 L 1278.28 1685.49 L 1281.44 1684.43 L 1282.86 1679.37 L 1287.72 1677.96 L 1293.72 1678.07 L 1294.41 1675.22 L 1291.57 1672.73 L 1289.80 1665.41 L 1297.15 1656.25 L 1301.17 1649.57 L 1299.44 1644.75 L 1302.24 1641.80 L 1309.63 1637.75 L 1317.59 1630.72 L 1318.34 1614.29 L 1312.36 1602.66 L 1310.70 1589.71 L 1320.92 1557.20 L 1319.50 1552.00 L 1321.46 1542.00 L 1325.57 1530.50 L 1320.64 1519.79 L 1319.20 1514.05 L 1314.82 1509.14 L 1313.00 1502.60 L 1305.59 1496.79 L 1299.99 1487.60 L 1294.73 1472.97 L 1293.33 1463.82 L 1293.33 1451.86 L 1284.75 1440.70 L 1281.62 1434.87 L 1277.49 1433.96 L 1277.55 1428.18 L 1271.87 1414.09 L 1268.47 1403.86 L 1259.91 1385.31 L 1248.60 1371.73 L 1243.45 1357.39 L 1229.42 1338.14 L 1215.52 1322.34 L 1209.80 1317.25 L 1203.87 1311.05 L 1201.21 1309.22 L 1183.15 1302.02 L 1181.66 1292.94 L 1182.07 1287.22 L 1178.73 1279.82 L 1175.93 1277.61 L 1171.78 1277.40 L 1159.58 1272.47 L 1148.34 1267.27 L 1139.48 1260.71 L 1137.09 1256.41 L 1133.41 1251.74 L 1125.30 1235.94 L 1119.58 1227.17 L 1110.38 1215.73 L 1104.11 1210.06 L 1099.60 1204.68 L 1096.42 1199.20 L 1093.86 1195.87 L 1074.93 1175.15 L 1073.08 1172.45 L 1061.07 1163.20 L 1055.10 1159.66 L 1051.83 1156.81 L 1047.70 1151.03 L 1042.64 1145.74 L 1041.23 1140.16 L 1043.78 1129.25 L 1042.97 1119.90 L 1041.30 1114.22 L 1039.15 1110.13 L 1037.40 1103.57 L 1044.31 1096.64 L 1057.73 1090.65 L 1070.61 1087.14 L 1080.34 1083.83 L 1084.90 1083.10 L 1085.64 1082.17 L 1085.37 1079.38 L 1082.69 1070.34 L 1083.35 1063.17 L 1085.01 1054.00 L 1088.00 1043.30 L 1090.65 1037.30 L 1091.84 1031.35 L 1087.47 1027.47 L 1082.63 1026.81 L 1079.70 1025.90 L 1077.84 1024.62 L 1074.71 1020.64 L 1069.97 1018.23 L 1050.75 1015.19 L 1045.16 1015.16 L 1032.54 1010.48 L 1010.19 1004.56 L 990.79 1000.32 L 977.89 1000.61 L 952.51 1005.25 L 950.04 1007.41 L 940.65 1009.28 L 931.40 1008.58 L 920.20 1006.94 L 913.09 1008.73 L 911.00 1011.21 L 906.21 1009.35 L 898.43 1004.82 L 893.54 1003.24 L 891.92 1002.30 L 891.83 1004.52 L 886.94 1003.39 L 877.32 999.19 L 874.52 994.47 L 870.72 991.11 L 857.53 983.70 L 845.20 982.05 L 833.86 979.46 L 827.12 981.54 L 822.24 980.52 L 812.56 977.48 L 805.87 972.51 L 801.84 967.58 L 799.94 961.95 L 800.22 958.96 L 795.95 959.36 L 794.66 959.99 L 788.70 961.08 L 785.50 959.61 L 777.70 948.98 L 773.15 958.08 L 770.59 955.17 L 769.03 959.25 L 767.92 959.63 L 765.08 958.47 L 758.66 957.23 L 747.45 956.77 L 746.95 957.29 L 748.66 960.81 L 749.88 967.16 L 749.25 969.95 L 747.63 970.19 L 734.79 966.71 L 734.17 967.28 L 734.73 968.28 L 735.05 974.88 L 733.35 978.28 L 730.69 979.61 L 717.14 978.31 L 711.44 976.74 L 709.09 975.32 L 698.94 961.60 L 696.76 959.27 L 694.73 957.91 L 682.31 954.06 L 671.63 949.42 L 668.67 947.71 L 666.88 945.55 L 664.14 940.26 L 661.84 937.66 L 658.50 935.44 L 640.23 930.27 L 635.93 929.82 L 629.19 930.50 L 622.71 930.15 L 618.71 928.76 L 612.71 924.95 L 605.43 918.83 L 603.01 918.03 L 590.27 916.73 L 587.82 917.91 L 584.48 923.20 L 580.72 926.93 L 569.80 934.88 L 556.63 947.68 L 540.94 960.18 L 534.67 963.64 L 533.06 965.00 L 523.48 977.21 L 520.16 982.83 L 518.22 991.43 L 518.39 996.74 L 517.00 997.18 L 515.69 995.48 L 513.60 994.30 L 501.84 988.62 L 494.50 982.15 L 493.18 980.10 L 489.25 976.44 L 487.69 976.19 L 487.37 978.08 L 487.66 982.71 L 485.84 985.67 L 484.98 988.98 L 488.08 1001.16 L 487.54 1005.80 L 486.29 1008.13 L 476.65 1018.45 L 470.65 1026.26 L 470.10 1029.02 L 473.08 1030.99 L 477.32 1031.56 L 482.22 1033.21 L 491.39 1034.96 L 493.88 1035.62 L 497.32 1037.32 L 500.84 1040.82 L 516.33 1050.53 L 529.59 1061.77 L 542.16 1073.66 L 552.41 1078.84 L 557.62 1080.49 L 563.60 1081.39 L 579.12 1088.74 L 582.93 1091.67 L 599.80 1101.68 L 612.62 1111.25 L 624.89 1123.14 L 634.31 1135.71 L 641.79 1142.73 L 670.35 1167.00 L 676.67 1170.75 L 684.09 1173.49 L 696.43 1179.80 L 704.63 1182.76 L 711.40 1184.47 L 716.63 1189.21 L 720.64 1189.83" pathLength="1" fill="none" vector-effect="non-scaling-stroke"/>
  <path class="trace-line" d="M 1581.39 1694.17 L 1576.07 1696.90 L 1572.53 1700.77 L 1570.35 1704.48 L 1565.66 1708.51 L 1559.19 1717.36 L 1549.17 1724.66 L 1543.23 1730.78 L 1539.56 1735.40 L 1535.92 1736.01 L 1531.10 1736.04 L 1527.87 1736.87 L 1523.46 1737.21 L 1519.73 1736.41 L 1515.38 1736.84 L 1508.11 1736.35 L 1502.30 1733.14 L 1494.29 1733.69 L 1488.57 1732.63 L 1483.46 1733.41 L 1480.43 1735.31 L 1472.11 1738.12 L 1464.72 1741.63 L 1460.34 1742.46 L 1454.99 1738.68 L 1450.15 1738.31 L 1442.69 1740.33 L 1437.68 1742.73 L 1433.19 1745.91 L 1429.96 1745.19 L 1428.31 1746.92 L 1422.95 1746.87 L 1420.61 1748.17 L 1412.74 1748.90 L 1409.20 1751.18 L 1402.58 1753.37 L 1401.72 1749.77 L 1405.36 1743.73 L 1406.75 1737.62 L 1408.23 1733.61 L 1405.92 1730.58 L 1407.36 1728.41 L 1405.00 1726.01 L 1404.90 1719.61 L 1405.82 1716.55 L 1402.72 1704.28 L 1404.16 1701.87 L 1401.04 1700.09 L 1392.51 1701.58 L 1378.58 1704.92 L 1373.43 1705.51 L 1368.70 1705.96 L 1361.43 1704.36 L 1342.98 1707.37 L 1334.74 1707.00 L 1331.75 1707.63 L 1322.60 1711.56 L 1311.51 1712.64 L 1307.47 1711.90 L 1294.36 1713.12 L 1274.94 1710.19 L 1268.29 1708.30 L 1262.88 1705.46 L 1263.47 1702.36 L 1265.55 1700.14 L 1263.22 1698.26 L 1264.53 1695.89 L 1264.25 1693.29 L 1276.44 1688.08 L 1278.28 1685.49 L 1281.44 1684.43 L 1282.86 1679.37 L 1287.72 1677.96 L 1293.72 1678.07 L 1294.41 1675.22 L 1291.57 1672.73 L 1289.80 1665.41 L 1297.15 1656.25 L 1301.17 1649.57 L 1299.44 1644.75 L 1302.24 1641.80 L 1309.63 1637.75 L 1317.59 1630.72 L 1318.34 1614.29 L 1312.36 1602.66 L 1310.70 1589.71 L 1320.92 1557.20 L 1319.50 1552.00 L 1321.46 1542.00 L 1325.57 1530.50 L 1320.64 1519.79 L 1319.20 1514.05 L 1314.82 1509.14 L 1313.00 1502.60 L 1305.59 1496.79 L 1299.99 1487.60 L 1294.73 1472.97 L 1293.33 1463.82 L 1293.33 1451.86 L 1284.75 1440.70 L 1281.62 1434.87 L 1277.49 1433.96 L 1277.55 1428.18 L 1271.87 1414.09 L 1268.47 1403.86 L 1259.91 1385.31 L 1248.60 1371.73 L 1243.45 1357.39 L 1229.42 1338.14 L 1215.52 1322.34 L 1209.80 1317.25 L 1203.87 1311.05 L 1201.21 1309.22 L 1183.15 1302.02 L 1181.66 1292.94 L 1182.07 1287.22 L 1178.73 1279.82 L 1175.93 1277.61 L 1171.78 1277.40 L 1159.58 1272.47 L 1148.34 1267.27 L 1139.48 1260.71 L 1137.09 1256.41 L 1133.41 1251.74 L 1125.30 1235.94 L 1119.58 1227.17 L 1110.38 1215.73 L 1104.11 1210.06 L 1099.60 1204.68 L 1096.42 1199.20 L 1093.86 1195.87 L 1074.93 1175.15 L 1073.08 1172.45 L 1061.07 1163.20 L 1055.10 1159.66 L 1051.83 1156.81 L 1047.70 1151.03 L 1042.64 1145.74 L 1041.23 1140.16 L 1043.78 1129.25 L 1042.97 1119.90 L 1041.30 1114.22 L 1039.15 1110.13 L 1037.40 1103.57 L 1044.31 1096.64 L 1057.73 1090.65 L 1070.61 1087.14 L 1080.34 1083.83 L 1084.90 1083.10 L 1085.64 1082.17 L 1085.37 1079.38 L 1082.69 1070.34 L 1083.35 1063.17 L 1085.01 1054.00 L 1088.00 1043.30 L 1090.65 1037.30 L 1091.84 1031.35 L 1087.47 1027.47 L 1082.63 1026.81 L 1079.70 1025.90 L 1077.84 1024.62 L 1074.71 1020.64 L 1069.97 1018.23 L 1050.75 1015.19 L 1045.16 1015.16 L 1032.54 1010.48 L 1010.19 1004.56 L 990.79 1000.32 L 977.89 1000.61 L 952.51 1005.25 L 950.04 1007.41 L 940.65 1009.28 L 931.40 1008.58 L 920.20 1006.94 L 913.09 1008.73 L 911.00 1011.21 L 906.21 1009.35 L 898.43 1004.82 L 893.54 1003.24 L 891.92 1002.30 L 891.83 1004.52 L 886.94 1003.39 L 877.32 999.19 L 874.52 994.47 L 870.72 991.11 L 857.53 983.70 L 845.20 982.05 L 833.86 979.46 L 827.12 981.54 L 822.24 980.52 L 812.56 977.48 L 805.87 972.51 L 801.84 967.58 L 799.94 961.95 L 800.22 958.96 L 795.95 959.36 L 794.66 959.99 L 788.70 961.08 L 785.50 959.61 L 777.70 948.98 L 773.15 958.08 L 770.59 955.17 L 769.03 959.25 L 767.92 959.63 L 765.08 958.47 L 758.66 957.23 L 747.45 956.77 L 746.95 957.29 L 748.66 960.81 L 749.88 967.16 L 749.25 969.95 L 747.63 970.19 L 734.79 966.71 L 734.17 967.28 L 734.73 968.28 L 735.05 974.88 L 733.35 978.28 L 730.69 979.61 L 717.14 978.31 L 711.44 976.74 L 709.09 975.32 L 698.94 961.60 L 696.76 959.27 L 694.73 957.91 L 682.31 954.06 L 671.63 949.42 L 668.67 947.71 L 666.88 945.55 L 664.14 940.26 L 661.84 937.66 L 658.50 935.44 L 640.23 930.27 L 635.93 929.82 L 629.19 930.50 L 622.71 930.15 L 618.71 928.76 L 612.71 924.95 L 605.43 918.83 L 603.01 918.03 L 590.27 916.73 L 587.82 917.91 L 584.48 923.20 L 580.72 926.93 L 569.80 934.88 L 556.63 947.68 L 540.94 960.18 L 534.67 963.64 L 533.06 965.00 L 523.48 977.21 L 520.16 982.83 L 518.22 991.43 L 518.39 996.74 L 517.00 997.18 L 515.69 995.48 L 513.60 994.30 L 501.84 988.62 L 494.50 982.15 L 493.18 980.10 L 489.25 976.44 L 487.69 976.19 L 487.37 978.08 L 487.66 982.71 L 485.84 985.67 L 484.98 988.98 L 488.08 1001.16 L 487.54 1005.80 L 486.29 1008.13 L 476.65 1018.45 L 470.65 1026.26 L 470.10 1029.02 L 473.08 1030.99 L 477.32 1031.56 L 482.22 1033.21 L 491.39 1034.96 L 493.88 1035.62 L 497.32 1037.32 L 500.84 1040.82 L 516.33 1050.53 L 529.59 1061.77 L 542.16 1073.66 L 552.41 1078.84 L 557.62 1080.49 L 563.60 1081.39 L 579.12 1088.74 L 582.93 1091.67 L 599.80 1101.68 L 612.62 1111.25 L 624.89 1123.14 L 634.31 1135.71 L 641.79 1142.73 L 670.35 1167.00 L 676.67 1170.75 L 684.09 1173.49 L 696.43 1179.80 L 704.63 1182.76 L 711.40 1184.47 L 716.63 1189.21 L 720.64 1189.83" pathLength="1" fill="none" vector-effect="non-scaling-stroke"/>
</svg>
