<svg xmlns="http://www.w3.org/2000/svg" viewBox="-106.3906460 -38.9596451 0.0446818 0.0339613" preserveAspectRatio="xMidYMid meet">
  <path class="trace-line" d="M -106.3496877 -38.9305164 L -106.3498658 -38.9304241 L -106.3499845 -38.9302931 L -106.3500576 -38.9301677 L -106.3502147 -38.9300315 L -106.3504315 -38.9297321 L -106.3507673 -38.9294850 L -106.3509661 -38.9292782 L -106.3510894 -38.9291219 L -106.3512112 -38.9291012 L -106.3513728 -38.9291001 L -106.3514810 -38.9290720 L -106.3516286 -38.9290605 L -106.3517536 -38.9290877 L -106.3518995 -38.9290730 L -106.3521429 -38.9290897 L -106.3523375 -38.9291981 L -106.3526059 -38.9291796 L -106.3527977 -38.9292154 L -106.3529690 -38.9291892 L -106.3530706 -38.9291248 L -106.3533492 -38.9290298 L -106.3535969 -38.9289110 L -106.3537434 -38.9288830 L -106.3539229 -38.9290108 L -106.3540849 -38.9290235 L -106.3543349 -38.9289551 L -106.3545028 -38.9288738 L -106.3546534 -38.9287662 L -106.3547614 -38.9287905 L -106.3548167 -38.9287320 L -106.3549963 -38.9287338 L -106.3550747 -38.9286898 L -106.3553386 -38.9286652 L -106.3554571 -38.9285879 L -106.3556789 -38.9285139 L -106.3557077 -38.9286358 L -106.3555857 -38.9288400 L -106.3555390 -38.9290467 L -106.3554897 -38.9291822 L -106.3555668 -38.9292849 L -106.3555188 -38.9293583 L -106.3555979 -38.9294394 L -106.3556012 -38.9296559 L -106.3555704 -38.9297593 L -106.3556743 -38.9301744 L -106.3556259 -38.9302559 L -106.3557306 -38.9303161 L -106.3560164 -38.9302659 L -106.3564829 -38.9301529 L -106.3566557 -38.9301328 L -106.3568139 -38.9301177 L -106.3570576 -38.9301717 L -106.3576759 -38.9300700 L -106.3579520 -38.9300825 L -106.3580521 -38.9300612 L -106.3583588 -38.9299281 L -106.3587301 -38.9298916 L -106.3588657 -38.9299168 L -106.3593048 -38.9298753 L -106.3599554 -38.9299745 L -106.3601782 -38.9300386 L -106.3603595 -38.9301346 L -106.3603400 -38.9302394 L -106.3602703 -38.9303146 L -106.3603484 -38.9303783 L -106.3603045 -38.9304582 L -106.3603137 -38.9305461 L -106.3599053 -38.9307224 L -106.3598438 -38.9308102 L -106.3597376 -38.9308458 L -106.3596901 -38.9310170 L -106.3595275 -38.9310649 L -106.3593264 -38.9310610 L -106.3593033 -38.9311575 L -106.3593984 -38.9312419 L -106.3594578 -38.9314894 L -106.3592114 -38.9317992 L -106.3590768 -38.9320251 L -106.3591347 -38.9321881 L -106.3590408 -38.9322879 L -106.3587932 -38.9324249 L -106.3585266 -38.9326627 L -106.3585014 -38.9332187 L -106.3587017 -38.9336120 L -106.3587573 -38.9340500 L -106.3584148 -38.9351497 L -106.3584626 -38.9353258 L -106.3583968 -38.9356641 L -106.3582593 -38.9360530 L -106.3584244 -38.9364154 L -106.3584726 -38.9366093 L -106.3586194 -38.9367755 L -106.3586803 -38.9369966 L -106.3589286 -38.9371933 L -106.3591161 -38.9375042 L -106.3592926 -38.9379991 L -106.3593393 -38.9383086 L -106.3593395 -38.9387131 L -106.3596270 -38.9390905 L -106.3597317 -38.9392879 L -106.3598702 -38.9393185 L -106.3598680 -38.9395142 L -106.3600583 -38.9399909 L -106.3601722 -38.9403369 L -106.3604590 -38.9409643 L -106.3608382 -38.9414236 L -106.3610106 -38.9419089 L -106.3614807 -38.9425599 L -106.3619464 -38.9430944 L -106.3621382 -38.9432666 L -106.3623368 -38.9434762 L -106.3624259 -38.9435383 L -106.3630309 -38.9437816 L -106.3630811 -38.9440888 L -106.3630674 -38.9442823 L -106.3631793 -38.9445327 L -106.3632729 -38.9446073 L -106.3634121 -38.9446144 L -106.3638208 -38.9447813 L -106.3641975 -38.9449571 L -106.3644943 -38.9451790 L -106.3645742 -38.9453246 L -106.3646975 -38.9454827 L -106.3649692 -38.9460171 L -106.3651610 -38.9463137 L -106.3654692 -38.9467007 L -106.3656792 -38.9468925 L -106.3658306 -38.9470745 L -106.3659371 -38.9472599 L -106.3660229 -38.9473724 L -106.3666571 -38.9480734 L -106.3667191 -38.9481648 L -106.3671213 -38.9484776 L -106.3673215 -38.9485975 L -106.3674312 -38.9486939 L -106.3675695 -38.9488892 L -106.3677391 -38.9490682 L -106.3677863 -38.9492570 L -106.3677008 -38.9496259 L -106.3677278 -38.9499423 L -106.3677840 -38.9501346 L -106.3678560 -38.9502727 L -106.3679144 -38.9504947 L -106.3676829 -38.9507290 L -106.3672333 -38.9509318 L -106.3668017 -38.9510506 L -106.3664757 -38.9511625 L -106.3663229 -38.9511870 L -106.3662981 -38.9512185 L -106.3663071 -38.9513129 L -106.3663970 -38.9516188 L -106.3663751 -38.9518612 L -106.3663194 -38.9521714 L -106.3662193 -38.9525336 L -106.3661303 -38.9527363 L -106.3660905 -38.9529378 L -106.3662368 -38.9530689 L -106.3663989 -38.9530911 L -106.3664974 -38.9531220 L -106.3665594 -38.9531653 L -106.3666643 -38.9533000 L -106.3668233 -38.9533816 L -106.3674671 -38.9534842 L -106.3676546 -38.9534854 L -106.3680774 -38.9536436 L -106.3688261 -38.9538439 L -106.3694762 -38.9539873 L -106.3699086 -38.9539774 L -106.3707590 -38.9538204 L -106.3708416 -38.9537475 L -106.3711563 -38.9536844 L -106.3714663 -38.9537079 L -106.3718414 -38.9537635 L -106.3720798 -38.9537030 L -106.3721498 -38.9536189 L -106.3723103 -38.9536820 L -106.3725710 -38.9538352 L -106.3727347 -38.9538884 L -106.3727888 -38.9539205 L -106.3727919 -38.9538451 L -106.3729557 -38.9538834 L -106.3732783 -38.9540256 L -106.3733721 -38.9541851 L -106.3734993 -38.9542988 L -106.3739412 -38.9545497 L -106.3743544 -38.9546053 L -106.3747343 -38.9546931 L -106.3749601 -38.9546226 L -106.3751238 -38.9546572 L -106.3754480 -38.9547598 L -106.3756722 -38.9549279 L -106.3758073 -38.9550948 L -106.3758709 -38.9552852 L -106.3758613 -38.9553865 L -106.3760044 -38.9553729 L -106.3760479 -38.9553516 L -106.3762476 -38.9553148 L -106.3763545 -38.9553643 L -106.3766160 -38.9557240 L -106.3767683 -38.9554163 L -106.3768542 -38.9555147 L -106.3769064 -38.9553765 L -106.3769438 -38.9553636 L -106.3770390 -38.9554030 L -106.3772540 -38.9554450 L -106.3776297 -38.9554606 L -106.3776463 -38.9554428 L -106.3775890 -38.9553240 L -106.3775480 -38.9551090 L -106.3775694 -38.9550145 L -106.3776235 -38.9550064 L -106.3780537 -38.9551244 L -106.3780745 -38.9551050 L -106.3780558 -38.9550710 L -106.3780450 -38.9548480 L -106.3781020 -38.9547330 L -106.3781910 -38.9546880 L -106.3786450 -38.9547320 L -106.3788360 -38.9547850 L -106.3789150 -38.9548330 L -106.3792550 -38.9552970 L -106.3793280 -38.9553760 L -106.3793960 -38.9554220 L -106.3798120 -38.9555520 L -106.3801700 -38.9557090 L -106.3802690 -38.9557670 L -106.3803290 -38.9558400 L -106.3804210 -38.9560190 L -106.3804980 -38.9561070 L -106.3806100 -38.9561820 L -106.3812220 -38.9563570 L -106.3813660 -38.9563720 L -106.3815920 -38.9563490 L -106.3818090 -38.9563610 L -106.3819430 -38.9564080 L -106.3821440 -38.9565370 L -106.3823880 -38.9567440 L -106.3824690 -38.9567710 L -106.3828960 -38.9568150 L -106.3829780 -38.9567750 L -106.3830900 -38.9565960 L -106.3832160 -38.9564700 L -106.3835820 -38.9562010 L -106.3840230 -38.9557680 L -106.3845490 -38.9553450 L -106.3847590 -38.9552280 L -106.3848130 -38.9551820 L -106.3851340 -38.9547690 L -106.3852450 -38.9545790 L -106.3853100 -38.9542880 L -106.3853044 -38.9541083 L -106.3853510 -38.9540934 L -106.3853949 -38.9541510 L -106.3854650 -38.9541910 L -106.3858590 -38.9543830 L -106.3861050 -38.9546020 L -106.3861491 -38.9546714 L -106.3862807 -38.9547951 L -106.3863329 -38.9548036 L -106.3863438 -38.9547396 L -106.3863340 -38.9545830 L -106.3863950 -38.9544830 L -106.3864240 -38.9543710 L -106.3863200 -38.9539590 L -106.3863380 -38.9538020 L -106.3863800 -38.9537230 L -106.3867030 -38.9533740 L -106.3869040 -38.9531100 L -106.3869225 -38.9530164 L -106.3868225 -38.9529499 L -106.3866806 -38.9529307 L -106.3865162 -38.9528748 L -106.3862089 -38.9528156 L -106.3861256 -38.9527933 L -106.3860105 -38.9527357 L -106.3858923 -38.9526174 L -106.3853733 -38.9522889 L -106.3849293 -38.9519085 L -106.3845079 -38.9515064 L -106.3841646 -38.9513314 L -106.3839899 -38.9512754 L -106.3837895 -38.9512451 L -106.3832695 -38.9509965 L -106.3831420 -38.9508974 L -106.3825767 -38.9505585 L -106.3821471 -38.9502348 L -106.3817360 -38.9498327 L -106.3814205 -38.9494075 L -106.3811697 -38.9491701 L -106.3802129 -38.9483492 L -106.3800011 -38.9482221 L -106.3797524 -38.9481294 L -106.3793389 -38.9479161 L -106.3790644 -38.9478158 L -106.3788375 -38.9477582 L -106.3786623 -38.9475976 L -106.3785280 -38.9475767" pathLength="1" fill="none" stroke="currentColor" vector-effect="non-scaling-stroke"/>
  <circle class="trace-start" cx="-106.3496877" cy="-38.9305164" r="0.0004021"/>
  <circle class="trace-summit-halo" cx="-106.3785000" cy="-38.9476000" r="0.0010254"/>
  <circle class="trace-summit" cx="-106.3785000" cy="-38.9476000" r="0.0005831"/>
</svg>
