<svg xmlns="http://www.w3.org/2000/svg" viewBox="0 0 2000 2500" preserveAspectRatio="xMidYMid slice">
  <path class="trace-line" d="M 811.30 468.75 L 812.75 470.54 L 819.03 473.42 L 826.33 475.27 L 833.20 475.86 L 833.08 476.54 L 827.10 479.70 L 812.06 485.83 L 801.03 491.29 L 795.49 495.86 L 793.79 497.83 L 793.42 499.02 L 794.10 499.84 L 798.43 501.08 L 799.93 502.14 L 800.42 505.65 L 798.72 507.79 L 796.35 509.86 L 795.33 512.48 L 795.39 515.00 L 793.44 518.07 L 793.34 519.24 L 790.45 522.41 L 784.93 526.47 L 785.70 528.53 L 784.24 531.19 L 781.09 533.36 L 781.85 539.98 L 781.52 543.19 L 780.43 546.44 L 780.89 552.60 L 780.55 556.78 L 777.99 564.24 L 779.43 568.28 L 779.93 571.44 L 785.47 576.98 L 787.83 578.10 L 792.71 578.68 L 796.51 578.49 L 798.52 577.71 L 800.35 578.64 L 801.08 580.31 L 799.77 582.71 L 797.63 584.68 L 795.89 587.78 L 786.32 595.13 L 780.74 596.06 L 772.95 595.87 L 769.62 597.57 L 763.85 604.38 L 759.03 611.14 L 753.37 615.67 L 748.16 621.51 L 742.07 629.78 L 733.29 634.93 L 729.32 634.65 L 725.72 633.02 L 721.61 634.38 L 718.98 633.60 L 711.08 634.84 L 700.05 642.76 L 692.05 656.59 L 688.82 676.00 L 691.62 684.20 L 694.16 689.99 L 692.92 697.15 L 690.38 706.60 L 688.09 717.48 L 691.84 728.93 L 690.83 732.49 L 685.27 739.35 L 685.43 743.36 L 684.12 749.84 L 683.54 757.23 L 681.83 761.06 L 682.59 766.01 L 683.41 768.67 L 686.70 770.85 L 687.77 772.59 L 689.47 773.64 L 694.61 780.07 L 698.57 790.46 L 700.12 795.95 L 699.97 801.86 L 698.03 810.88 L 698.87 818.97 L 702.34 824.20 L 714.83 849.21 L 717.70 857.03 L 718.71 863.07 L 721.69 866.82 L 722.85 873.88 L 723.98 877.23 L 724.48 881.76 L 723.55 886.06 L 725.41 890.24 L 725.26 905.35 L 724.17 918.41 L 724.45 924.34 L 727.81 936.31 L 727.85 938.32 L 727.10 940.61 L 727.76 943.44 L 729.75 946.92 L 731.06 951.34 L 732.33 953.43 L 736.00 955.93 L 738.36 967.25 L 738.19 973.52 L 739.19 976.41 L 744.11 986.79 L 745.04 990.71 L 746.66 993.69 L 747.82 997.02 L 747.93 1001.89 L 746.22 1005.70 L 745.41 1006.98 L 743.88 1008.19 L 742.85 1010.73 L 744.59 1018.73 L 744.34 1021.38 L 744.94 1026.28 L 750.31 1032.46 L 751.58 1035.20 L 756.73 1042.99 L 757.75 1046.88 L 757.92 1051.34 L 760.48 1053.43 L 762.39 1057.29 L 763.02 1059.74 L 761.19 1062.98 L 758.03 1065.20 L 755.10 1064.88 L 752.92 1065.62 L 751.89 1067.74 L 749.50 1069.24 L 746.95 1069.13 L 745.02 1068.50 L 738.38 1071.84 L 733.31 1070.28 L 727.58 1071.42 L 722.54 1071.64 L 717.09 1074.91 L 712.72 1078.60 L 712.18 1082.40 L 713.67 1085.92 L 713.14 1089.80 L 705.15 1103.18 L 700.69 1127.96 L 703.02 1135.66 L 706.60 1144.06 L 707.18 1151.92 L 708.56 1159.05 L 709.29 1171.56 L 707.29 1180.56 L 707.51 1184.75 L 708.60 1190.77 L 710.40 1196.01 L 711.35 1200.69 L 712.54 1210.65 L 712.25 1213.68 L 712.69 1222.65 L 716.21 1231.82 L 718.89 1242.51 L 722.04 1248.61 L 722.79 1258.41 L 724.17 1265.43 L 724.57 1275.24 L 725.15 1279.59 L 726.99 1286.34 L 726.83 1289.87 L 724.38 1297.00 L 723.71 1306.70 L 723.68 1319.99 L 725.32 1323.73 L 728.05 1327.52 L 732.68 1330.52 L 742.63 1335.49 L 744.09 1336.64 L 744.98 1338.88 L 745.02 1340.39 L 743.71 1346.13 L 739.11 1355.28 L 735.66 1367.50 L 732.94 1372.95 L 727.80 1377.31 L 726.11 1379.87 L 725.31 1383.73 L 724.15 1384.73 L 718.58 1384.20 L 716.31 1386.07 L 714.02 1389.58 L 706.17 1396.37 L 703.75 1400.44 L 702.88 1405.80 L 706.09 1411.60 L 708.06 1420.61 L 704.17 1430.78 L 703.70 1437.43 L 696.03 1458.50 L 695.53 1462.71 L 695.61 1474.45 L 693.70 1479.28 L 693.25 1483.13 L 700.11 1498.70 L 702.30 1499.85 L 704.76 1498.99 L 706.97 1501.97 L 707.91 1506.99 L 710.52 1509.70 L 713.72 1511.67 L 717.65 1512.56 L 726.55 1513.10 L 731.61 1514.49 L 735.39 1516.92 L 739.38 1518.51 L 740.27 1520.84 L 743.49 1525.13 L 745.88 1530.02 L 747.61 1532.58 L 749.23 1537.84 L 754.60 1544.17 L 756.81 1548.33 L 756.79 1554.24 L 757.95 1554.81 L 759.80 1557.43 L 759.68 1558.28 L 753.92 1559.03 L 748.52 1561.29 L 746.24 1563.09 L 740.60 1565.09 L 736.37 1567.93 L 732.80 1568.94 L 728.86 1569.09 L 725.24 1570.32 L 722.50 1571.87 L 722.54 1573.87 L 720.67 1578.11 L 722.34 1581.69 L 721.47 1586.96 L 722.91 1591.12 L 722.43 1595.90 L 722.95 1601.10 L 722.12 1610.35 L 722.21 1618.55 L 723.43 1620.37 L 726.98 1621.77 L 727.86 1625.12 L 731.76 1628.33 L 737.43 1635.13 L 740.05 1639.75 L 743.96 1641.84 L 745.36 1645.30 L 753.36 1650.31 L 757.97 1653.86 L 761.46 1658.31 L 765.59 1660.65 L 766.99 1660.70 L 773.63 1662.56 L 778.32 1666.31 L 788.95 1673.13 L 790.58 1676.79 L 790.66 1681.08 L 791.88 1682.95 L 798.39 1685.49 L 803.97 1686.62 L 805.12 1687.43 L 808.35 1691.97 L 807.94 1694.09 L 809.99 1699.15 L 815.27 1706.16 L 815.22 1707.59 L 817.02 1708.49 L 817.41 1709.62 L 815.71 1709.97 L 812.28 1715.41 L 811.08 1714.87 L 810.50 1716.83 L 807.95 1719.92 L 804.37 1726.47 L 797.88 1735.43 L 797.49 1737.62 L 794.72 1741.71 L 794.32 1743.15 L 794.66 1747.72 L 799.78 1748.75 L 810.56 1752.39 L 817.79 1753.45 L 822.03 1755.36 L 826.76 1756.82 L 831.47 1761.91 L 837.65 1765.47 L 843.08 1770.11 L 844.63 1770.67 L 846.34 1772.12 L 850.13 1769.76 L 852.28 1768.95 L 853.85 1775.05 L 853.72 1779.52 L 854.59 1781.89" pathLength="1" fill="none" vector-effect="non-scaling-stroke"/>
  <circle class="trace-start" cx="811.30" cy="468.75" r="6.25"/>
  <circle class="trace-end" cx="854.59" cy="1781.89" r="6.25"/>
  <circle class="trace-summit-halo" cx="765.99" cy="2031.25" r="15.97"/>
  <circle class="trace-summit" cx="765.99" cy="2031.25" r="9.03"/>
</svg>
