<svg xmlns="http://www.w3.org/2000/svg" viewBox="0 0 2000 2500" preserveAspectRatio="none">
  <path class="trace-underlay" d="M 1194.15 -1840.63 L 1198.75 -1836.22 L 1218.81 -1829.14 L 1242.13 -1824.60 L 1264.04 -1823.13 L 1263.67 -1821.47 L 1244.59 -1813.71 L 1196.56 -1798.62 L 1161.34 -1785.20 L 1143.66 -1773.95 L 1138.23 -1769.10 L 1137.03 -1766.19 L 1139.22 -1764.17 L 1153.04 -1761.11 L 1157.84 -1758.51 L 1159.39 -1749.87 L 1146.39 -1739.53 L 1143.15 -1733.08 L 1143.34 -1726.89 L 1137.12 -1719.35 L 1136.79 -1716.46 L 1127.57 -1708.65 L 1109.92 -1698.68 L 1112.38 -1693.63 L 1107.72 -1687.08 L 1097.67 -1681.74 L 1100.10 -1665.45 L 1099.04 -1657.57 L 1095.55 -1649.58 L 1097.04 -1634.41 L 1095.94 -1624.15 L 1087.78 -1605.79 L 1092.36 -1595.87 L 1093.96 -1588.08 L 1111.65 -1574.47 L 1119.20 -1571.71 L 1134.79 -1570.29 L 1146.91 -1570.76 L 1153.34 -1572.66 L 1159.16 -1570.38 L 1161.51 -1566.29 L 1157.30 -1560.39 L 1150.50 -1555.53 L 1144.93 -1547.92 L 1114.38 -1529.83 L 1096.56 -1527.55 L 1071.69 -1528.02 L 1061.05 -1523.84 L 1042.62 -1507.08 L 1027.24 -1490.47 L 1009.15 -1479.33 L 992.53 -1464.95 L 973.07 -1444.61 L 945.04 -1431.95 L 932.39 -1432.65 L 920.88 -1436.65 L 907.77 -1433.32 L 899.36 -1435.22 L 874.13 -1432.17 L 838.92 -1412.71 L 813.37 -1378.68 L 803.06 -1330.96 L 812.00 -1310.80 L 820.12 -1296.55 L 816.14 -1278.94 L 808.05 -1255.70 L 800.72 -1228.96 L 812.70 -1200.79 L 809.48 -1192.03 L 791.74 -1175.17 L 792.24 -1165.31 L 788.06 -1149.37 L 786.20 -1131.20 L 780.75 -1121.77 L 783.17 -1109.61 L 785.78 -1103.06 L 796.28 -1097.69 L 799.72 -1093.42 L 805.13 -1090.83 L 821.55 -1075.04 L 834.20 -1049.48 L 839.16 -1035.99 L 838.65 -1021.44 L 832.46 -999.27 L 835.15 -979.36 L 846.24 -966.51 L 886.12 -905.00 L 895.28 -885.77 L 898.49 -870.93 L 908.02 -861.69 L 911.73 -844.34 L 915.32 -836.10 L 916.92 -824.94 L 913.96 -814.37 L 919.89 -804.09 L 919.40 -766.94 L 915.93 -734.83 L 916.84 -720.24 L 927.54 -690.80 L 927.69 -685.86 L 925.27 -680.24 L 927.38 -673.26 L 933.76 -664.71 L 937.93 -653.84 L 941.99 -648.70 L 953.69 -642.55 L 961.23 -614.71 L 960.71 -599.29 L 979.60 -566.67 L 982.56 -557.03 L 991.45 -541.50 L 991.80 -529.54 L 986.34 -520.15 L 978.86 -514.03 L 975.59 -507.78 L 981.13 -488.11 L 980.34 -481.61 L 982.24 -469.55 L 999.40 -454.34 L 1003.44 -447.61 L 1019.88 -428.47 L 1023.14 -418.90 L 1023.69 -407.93 L 1031.85 -402.79 L 1037.97 -393.29 L 1039.99 -387.27 L 1034.12 -379.28 L 1024.06 -373.84 L 1014.71 -374.62 L 1007.73 -372.80 L 1004.43 -367.60 L 996.80 -363.91 L 982.51 -365.72 L 961.31 -357.50 L 945.10 -361.34 L 926.81 -358.54 L 910.73 -357.99 L 893.32 -349.96 L 879.39 -340.88 L 877.65 -331.53 L 882.39 -322.87 L 880.73 -313.35 L 855.19 -280.44 L 840.96 -219.50 L 848.39 -200.55 L 859.85 -179.90 L 861.68 -160.56 L 866.09 -143.03 L 868.42 -112.28 L 862.03 -90.14 L 862.73 -79.83 L 866.22 -65.04 L 871.96 -52.14 L 874.99 -40.63 L 878.79 -16.14 L 877.86 -8.70 L 879.29 13.36 L 890.51 35.92 L 899.08 62.20 L 909.15 77.21 L 911.53 101.32 L 915.94 118.58 L 917.22 142.69 L 919.07 153.39 L 924.92 170.00 L 924.41 178.68 L 916.61 196.21 L 914.45 220.07 L 914.37 252.74 L 919.62 261.93 L 928.32 271.27 L 943.09 278.65 L 974.86 290.87 L 979.54 293.68 L 982.39 299.20 L 982.50 302.92 L 978.31 317.02 L 963.63 339.53 L 952.63 369.59 L 943.94 382.99 L 927.53 393.70 L 922.14 400.00 L 919.58 409.49 L 915.88 411.96 L 898.10 410.66 L 890.85 415.24 L 883.52 423.88 L 858.45 440.59 L 850.73 450.60 L 847.97 463.77 L 858.21 478.04 L 864.48 500.19 L 852.06 525.19 L 850.58 541.55 L 826.08 593.38 L 824.48 603.72 L 824.73 632.59 L 818.64 644.48 L 817.19 653.94 L 839.12 692.22 L 846.09 695.07 L 853.97 692.93 L 861.02 700.27 L 864.01 712.62 L 872.34 719.28 L 882.56 724.12 L 895.12 726.31 L 923.52 727.64 L 939.69 731.07 L 951.75 737.04 L 964.49 740.94 L 967.35 746.67 L 977.61 757.22 L 990.79 775.56 L 995.93 788.49 L 1013.09 804.05 L 1020.16 814.28 L 1020.09 828.81 L 1023.80 830.22 L 1029.69 836.66 L 1029.32 838.76 L 1010.93 840.58 L 993.67 846.16 L 986.38 850.57 L 968.38 855.48 L 954.89 862.47 L 943.47 864.97 L 930.92 865.34 L 910.59 872.17 L 910.72 877.08 L 904.75 887.51 L 910.10 896.33 L 907.31 909.27 L 911.91 919.52 L 910.39 931.26 L 912.04 944.06 L 909.40 966.80 L 909.67 986.98 L 913.56 991.43 L 924.89 994.88 L 927.73 1003.12 L 940.16 1011.03 L 958.28 1027.73 L 966.63 1039.10 L 979.11 1044.25 L 983.58 1052.74 L 1009.14 1065.07 L 1023.86 1073.79 L 1035.00 1084.74 L 1048.20 1090.49 L 1073.86 1095.19 L 1088.84 1104.42 L 1122.77 1121.19 L 1127.98 1130.18 L 1128.22 1140.73 L 1132.13 1145.34 L 1152.90 1151.57 L 1170.73 1154.35 L 1174.39 1156.35 L 1184.72 1167.52 L 1183.40 1172.72 L 1189.95 1185.17 L 1206.82 1202.41 L 1206.65 1205.93 L 1212.39 1208.15 L 1213.65 1210.92 L 1208.21 1211.78 L 1197.26 1225.16 L 1193.43 1223.83 L 1191.57 1228.67 L 1183.42 1236.26 L 1171.99 1252.35 L 1151.29 1274.39 L 1150.05 1279.78 L 1141.20 1289.84 L 1139.92 1293.37 L 1140.99 1304.62 L 1157.34 1307.16 L 1191.78 1316.11 L 1214.85 1318.72 L 1243.48 1327.00 L 1258.52 1339.51 L 1278.28 1348.26 L 1295.61 1359.68 L 1300.56 1361.06 L 1306.00 1364.63 L 1324.99 1356.82 L 1330.00 1371.83 L 1329.57 1382.83 L 1332.35 1388.64" pathLength="1" fill="none" vector-effect="non-scaling-stroke"/>
  <path class="trace-line" d="M 1194.15 -1840.63 L 1198.75 -1836.22 L 1218.81 -1829.14 L 1242.13 -1824.60 L 1264.04 -1823.13 L 1263.67 -1821.47 L 1244.59 -1813.71 L 1196.56 -1798.62 L 1161.34 -1785.20 L 1143.66 -1773.95 L 1138.23 -1769.10 L 1137.03 -1766.19 L 1139.22 -1764.17 L 1153.04 -1761.11 L 1157.84 -1758.51 L 1159.39 -1749.87 L 1146.39 -1739.53 L 1143.15 -1733.08 L 1143.34 -1726.89 L 1137.12 -1719.35 L 1136.79 -1716.46 L 1127.57 -1708.65 L 1109.92 -1698.68 L 1112.38 -1693.63 L 1107.72 -1687.08 L 1097.67 -1681.74 L 1100.10 -1665.45 L 1099.04 -1657.57 L 1095.55 -1649.58 L 1097.04 -1634.41 L 1095.94 -1624.15 L 1087.78 -1605.79 L 1092.36 -1595.87 L 1093.96 -1588.08 L 1111.65 -1574.47 L 1119.20 -1571.71 L 1134.79 -1570.29 L 1146.91 -1570.76 L 1153.34 -1572.66 L 1159.16 -1570.38 L 1161.51 -1566.29 L 1157.30 -1560.39 L 1150.50 -1555.53 L 1144.93 -1547.92 L 1114.38 -1529.83 L 1096.56 -1527.55 L 1071.69 -1528.02 L 1061.05 -1523.84 L 1042.62 -1507.08 L 1027.24 -1490.47 L 1009.15 -1479.33 L 992.53 -1464.95 L 973.07 -1444.61 L 945.04 -1431.95 L 932.39 -1432.65 L 920.88 -1436.65 L 907.77 -1433.32 L 899.36 -1435.22 L 874.13 -1432.17 L 838.92 -1412.71 L 813.37 -1378.68 L 803.06 -1330.96 L 812.00 -1310.80 L 820.12 -1296.55 L 816.14 -1278.94 L 808.05 -1255.70 L 800.72 -1228.96 L 812.70 -1200.79 L 809.48 -1192.03 L 791.74 -1175.17 L 792.24 -1165.31 L 788.06 -1149.37 L 786.20 -1131.20 L 780.75 -1121.77 L 783.17 -1109.61 L 785.78 -1103.06 L 796.28 -1097.69 L 799.72 -1093.42 L 805.13 -1090.83 L 821.55 -1075.04 L 834.20 -1049.48 L 839.16 -1035.99 L 838.65 -1021.44 L 832.46 -999.27 L 835.15 -979.36 L 846.24 -966.51 L 886.12 -905.00 L 895.28 -885.77 L 898.49 -870.93 L 908.02 -861.69 L 911.73 -844.34 L 915.32 -836.10 L 916.92 -824.94 L 913.96 -814.37 L 919.89 -804.09 L 919.40 -766.94 L 915.93 -734.83 L 916.84 -720.24 L 927.54 -690.80 L 927.69 -685.86 L 925.27 -680.24 L 927.38 -673.26 L 933.76 -664.71 L 937.93 -653.84 L 941.99 -648.70 L 953.69 -642.55 L 961.23 -614.71 L 960.71 -599.29 L 979.60 -566.67 L 982.56 -557.03 L 991.45 -541.50 L 991.80 -529.54 L 986.34 -520.15 L 978.86 -514.03 L 975.59 -507.78 L 981.13 -488.11 L 980.34 -481.61 L 982.24 -469.55 L 999.40 -454.34 L 1003.44 -447.61 L 1019.88 -428.47 L 1023.14 -418.90 L 1023.69 -407.93 L 1031.85 -402.79 L 1037.97 -393.29 L 1039.99 -387.27 L 1034.12 -379.28 L 1024.06 -373.84 L 1014.71 -374.62 L 1007.73 -372.80 L 1004.43 -367.60 L 996.80 -363.91 L 982.51 -365.72 L 961.31 -357.50 L 945.10 -361.34 L 926.81 -358.54 L 910.73 -357.99 L 893.32 -349.96 L 879.39 -340.88 L 877.65 -331.53 L 882.39 -322.87 L 880.73 -313.35 L 855.19 -280.44 L 840.96 -219.50 L 848.39 -200.55 L 859.85 -179.90 L 861.68 -160.56 L 866.09 -143.03 L 868.42 -112.28 L 862.03 -90.14 L 862.73 -79.83 L 866.22 -65.04 L 871.96 -52.14 L 874.99 -40.63 L 878.79 -16.14 L 877.86 -8.70 L 879.29 13.36 L 890.51 35.92 L 899.08 62.20 L 909.15 77.21 L 911.53 101.32 L 915.94 118.58 L 917.22 142.69 L 919.07 153.39 L 924.92 170.00 L 924.41 178.68 L 916.61 196.21 L 914.45 220.07 L 914.37 252.74 L 919.62 261.93 L 928.32 271.27 L 943.09 278.65 L 974.86 290.87 L 979.54 293.68 L 982.39 299.20 L 982.50 302.92 L 978.31 317.02 L 963.63 339.53 L 952.63 369.59 L 943.94 382.99 L 927.53 393.70 L 922.14 400.00 L 919.58 409.49 L 915.88 411.96 L 898.10 410.66 L 890.85 415.24 L 883.52 423.88 L 858.45 440.59 L 850.73 450.60 L 847.97 463.77 L 858.21 478.04 L 864.48 500.19 L 852.06 525.19 L 850.58 541.55 L 826.08 593.38 L 824.48 603.72 L 824.73 632.59 L 818.64 644.48 L 817.19 653.94 L 839.12 692.22 L 846.09 695.07 L 853.97 692.93 L 861.02 700.27 L 864.01 712.62 L 872.34 719.28 L 882.56 724.12 L 895.12 726.31 L 923.52 727.64 L 939.69 731.07 L 951.75 737.04 L 964.49 740.94 L 967.35 746.67 L 977.61 757.22 L 990.79 775.56 L 995.93 788.49 L 1013.09 804.05 L 1020.16 814.28 L 1020.09 828.81 L 1023.80 830.22 L 1029.69 836.66 L 1029.32 838.76 L 1010.93 840.58 L 993.67 846.16 L 986.38 850.57 L 968.38 855.48 L 954.89 862.47 L 943.47 864.97 L 930.92 865.34 L 910.59 872.17 L 910.72 877.08 L 904.75 887.51 L 910.10 896.33 L 907.31 909.27 L 911.91 919.52 L 910.39 931.26 L 912.04 944.06 L 909.40 966.80 L 909.67 986.98 L 913.56 991.43 L 924.89 994.88 L 927.73 1003.12 L 940.16 1011.03 L 958.28 1027.73 L 966.63 1039.10 L 979.11 1044.25 L 983.58 1052.74 L 1009.14 1065.07 L 1023.86 1073.79 L 1035.00 1084.74 L 1048.20 1090.49 L 1073.86 1095.19 L 1088.84 1104.42 L 1122.77 1121.19 L 1127.98 1130.18 L 1128.22 1140.73 L 1132.13 1145.34 L 1152.90 1151.57 L 1170.73 1154.35 L 1174.39 1156.35 L 1184.72 1167.52 L 1183.40 1172.72 L 1189.95 1185.17 L 1206.82 1202.41 L 1206.65 1205.93 L 1212.39 1208.15 L 1213.65 1210.92 L 1208.21 1211.78 L 1197.26 1225.16 L 1193.43 1223.83 L 1191.57 1228.67 L 1183.42 1236.26 L 1171.99 1252.35 L 1151.29 1274.39 L 1150.05 1279.78 L 1141.20 1289.84 L 1139.92 1293.37 L 1140.99 1304.62 L 1157.34 1307.16 L 1191.78 1316.11 L 1214.85 1318.72 L 1243.48 1327.00 L 1258.52 1339.51 L 1278.28 1348.26 L 1295.61 1359.68 L 1300.56 1361.06 L 1306.00 1364.63 L 1324.99 1356.82 L 1330.00 1371.83 L 1329.57 1382.83 L 1332.35 1388.64" pathLength="1" fill="none" vector-effect="non-scaling-stroke"/>
</svg>
