<svg xmlns="http://www.w3.org/2000/svg" viewBox="0 0 1600 900" preserveAspectRatio="xMidYMid slice">
  <path class="trace-line" d="M 599.12 -126.59 L 600.18 -125.27 L 604.82 -123.15 L 610.21 -121.79 L 615.28 -121.34 L 615.20 -120.85 L 610.78 -118.52 L 599.68 -113.99 L 591.53 -109.96 L 587.44 -106.58 L 586.18 -105.13 L 585.91 -104.26 L 586.41 -103.65 L 589.61 -102.73 L 590.72 -101.95 L 591.08 -99.36 L 589.82 -97.78 L 588.07 -96.25 L 587.32 -94.32 L 587.37 -92.46 L 585.93 -90.20 L 585.85 -89.33 L 583.72 -86.99 L 579.64 -83.99 L 580.21 -82.48 L 579.13 -80.51 L 576.81 -78.91 L 577.37 -74.02 L 577.12 -71.66 L 576.31 -69.26 L 576.66 -64.71 L 576.40 -61.63 L 574.52 -56.12 L 575.58 -53.14 L 575.95 -50.80 L 580.04 -46.72 L 581.78 -45.89 L 585.39 -45.46 L 588.19 -45.60 L 589.68 -46.18 L 591.03 -45.49 L 591.57 -44.26 L 590.60 -42.49 L 589.02 -41.03 L 587.73 -38.75 L 580.67 -33.32 L 576.55 -32.64 L 570.80 -32.78 L 568.33 -31.52 L 564.07 -26.49 L 560.51 -21.51 L 556.33 -18.17 L 552.49 -13.85 L 547.99 -7.75 L 541.50 -3.94 L 538.58 -4.16 L 535.92 -5.36 L 532.88 -4.36 L 530.94 -4.93 L 525.10 -4.01 L 516.96 1.83 L 511.05 12.04 L 508.67 26.36 L 510.74 32.41 L 512.61 36.69 L 511.69 41.98 L 509.82 48.95 L 508.12 56.98 L 510.90 65.43 L 510.15 68.06 L 506.05 73.12 L 506.17 76.08 L 505.20 80.86 L 504.77 86.31 L 503.51 89.14 L 504.07 92.79 L 504.67 94.76 L 507.10 96.37 L 507.89 97.65 L 509.15 98.43 L 512.94 103.17 L 515.87 110.84 L 517.02 114.89 L 516.90 119.26 L 515.47 125.91 L 516.09 131.88 L 518.65 135.74 L 527.88 154.20 L 529.99 159.97 L 530.74 164.43 L 532.94 167.20 L 533.80 172.41 L 534.63 174.88 L 535.00 178.23 L 534.31 181.40 L 535.69 184.48 L 535.57 195.63 L 534.77 205.27 L 534.98 209.65 L 537.46 218.48 L 537.49 219.97 L 536.93 221.65 L 537.42 223.75 L 538.90 226.32 L 539.86 229.58 L 540.80 231.12 L 543.50 232.96 L 545.25 241.32 L 545.13 245.95 L 545.87 248.08 L 549.50 255.74 L 550.18 258.63 L 551.38 260.83 L 552.24 263.29 L 552.32 266.88 L 551.06 269.70 L 550.46 270.64 L 549.33 271.54 L 548.57 273.41 L 549.85 279.32 L 549.67 281.27 L 550.11 284.89 L 554.08 289.45 L 555.01 291.47 L 558.81 297.21 L 559.57 300.09 L 559.69 303.38 L 561.58 304.92 L 563.00 307.77 L 563.46 309.58 L 562.11 311.97 L 559.78 313.61 L 557.62 313.38 L 556.00 313.92 L 555.24 315.48 L 553.47 316.59 L 551.60 316.51 L 550.17 316.05 L 545.27 318.51 L 541.52 317.36 L 537.29 318.20 L 533.57 318.36 L 529.54 320.78 L 526.32 323.50 L 525.92 326.31 L 527.01 328.91 L 526.63 331.76 L 520.72 341.64 L 517.43 359.93 L 519.15 365.62 L 521.80 371.81 L 522.23 377.62 L 523.25 382.88 L 523.78 392.11 L 522.31 398.75 L 522.47 401.84 L 523.27 406.29 L 524.60 410.16 L 525.30 413.61 L 526.18 420.96 L 525.97 423.19 L 526.30 429.81 L 528.89 436.58 L 530.87 444.47 L 533.20 448.98 L 533.75 456.21 L 534.77 461.39 L 535.07 468.63 L 535.50 471.84 L 536.85 476.82 L 536.73 479.43 L 534.93 484.69 L 534.43 491.85 L 534.41 501.65 L 535.62 504.41 L 537.64 507.22 L 541.05 509.43 L 548.40 513.10 L 549.48 513.94 L 550.14 515.60 L 550.17 516.71 L 549.20 520.95 L 545.80 527.70 L 543.26 536.72 L 541.25 540.74 L 537.46 543.96 L 536.21 545.85 L 535.62 548.70 L 534.76 549.44 L 530.65 549.05 L 528.97 550.42 L 527.28 553.02 L 521.48 558.03 L 519.69 561.03 L 519.05 564.99 L 521.42 569.27 L 522.87 575.92 L 520.00 583.42 L 519.66 588.33 L 513.99 603.88 L 513.62 606.99 L 513.68 615.65 L 512.27 619.22 L 511.94 622.06 L 517.01 633.55 L 518.62 634.40 L 520.44 633.76 L 522.07 635.96 L 522.76 639.67 L 524.69 641.67 L 527.05 643.12 L 529.96 643.78 L 536.53 644.18 L 540.27 645.21 L 543.05 647.00 L 546.00 648.17 L 546.66 649.89 L 549.04 653.06 L 550.80 656.67 L 552.08 658.56 L 553.27 662.44 L 557.24 667.11 L 558.88 670.18 L 558.86 674.54 L 559.72 674.96 L 561.08 676.90 L 561.00 677.53 L 556.74 678.07 L 552.75 679.75 L 551.07 681.07 L 546.90 682.55 L 543.78 684.64 L 541.14 685.39 L 538.24 685.50 L 535.56 686.41 L 533.54 687.55 L 533.57 689.03 L 532.19 692.16 L 533.42 694.80 L 532.78 698.69 L 533.84 701.76 L 533.49 705.29 L 533.87 709.13 L 533.26 715.95 L 533.32 722.01 L 534.22 723.34 L 536.84 724.38 L 537.50 726.85 L 540.37 729.23 L 544.57 734.24 L 546.50 737.65 L 549.38 739.20 L 550.42 741.75 L 556.33 745.44 L 559.73 748.06 L 562.31 751.35 L 565.36 753.07 L 566.39 753.11 L 571.30 754.49 L 574.76 757.25 L 582.61 762.29 L 583.81 764.99 L 583.87 768.15 L 584.77 769.54 L 589.58 771.41 L 593.70 772.24 L 594.55 772.84 L 596.94 776.19 L 596.63 777.75 L 598.15 781.49 L 602.05 786.66 L 602.01 787.72 L 603.34 788.39 L 603.63 789.22 L 602.37 789.48 L 599.84 793.49 L 598.95 793.09 L 598.52 794.54 L 596.64 796.82 L 593.99 801.65 L 589.21 808.27 L 588.92 809.88 L 586.87 812.90 L 586.58 813.96 L 586.82 817.34 L 590.60 818.10 L 598.57 820.79 L 603.91 821.57 L 607.04 822.98 L 610.53 824.05 L 614.01 827.81 L 618.58 830.44 L 622.58 833.86 L 623.73 834.28 L 624.99 835.35 L 627.79 833.61 L 629.38 833.00 L 630.54 837.51 L 630.44 840.81 L 631.08 842.55" pathLength="1" fill="none" vector-effect="non-scaling-stroke"/>
  <circle class="trace-start" cx="599.12" cy="-126.59" r="4.62"/>
  <circle class="trace-end" cx="631.08" cy="842.55" r="4.62"/>
  <circle class="trace-summit-halo" cx="565.65" cy="1026.59" r="11.79"/>
  <circle class="trace-summit" cx="565.65" cy="1026.59" r="6.67"/>
</svg>
