<svg xmlns="http://www.w3.org/2000/svg" viewBox="-107.0899216 -39.2412293 0.0143508 0.0845921" preserveAspectRatio="xMidYMid meet">
  <path d="M -107.0797630 -39.2341800 L -107.0796632 -39.2340837 L -107.0792282 -39.2339293 L -107.0787228 -39.2338302 L -107.0782476 -39.2337981 L -107.0782556 -39.2337619 L -107.0786694 -39.2335924 L -107.0797107 -39.2332629 L -107.0804742 -39.2329700 L -107.0808576 -39.2327244 L -107.0809754 -39.2326187 L -107.0810014 -39.2325551 L -107.0809538 -39.2325109 L -107.0806542 -39.2324442 L -107.0805501 -39.2323875 L -107.0805166 -39.2321989 L -107.0807985 -39.2319731 L -107.0808686 -39.2318322 L -107.0808646 -39.2316972 L -107.0809994 -39.2315326 L -107.0810066 -39.2314694 L -107.0812065 -39.2312991 L -107.0815891 -39.2310814 L -107.0815358 -39.2309711 L -107.0816367 -39.2308281 L -107.0818546 -39.2307115 L -107.0818020 -39.2303560 L -107.0818249 -39.2301839 L -107.0819006 -39.2300095 L -107.0818683 -39.2296784 L -107.0818922 -39.2294545 L -107.0820692 -39.2290536 L -107.0819698 -39.2288371 L -107.0819351 -39.2286671 L -107.0815516 -39.2283700 L -107.0813879 -39.2283097 L -107.0810500 -39.2282786 L -107.0807871 -39.2282890 L -107.0806477 -39.2283305 L -107.0805216 -39.2282806 L -107.0804706 -39.2281913 L -107.0805618 -39.2280625 L -107.0807093 -39.2279565 L -107.0808300 -39.2277903 L -107.0814925 -39.2273955 L -107.0818788 -39.2273457 L -107.0824179 -39.2273560 L -107.0826486 -39.2272646 L -107.0830482 -39.2268989 L -107.0833817 -39.2265362 L -107.0837738 -39.2262931 L -107.0841342 -39.2259791 L -107.0845561 -39.2255352 L -107.0851637 -39.2252587 L -107.0854381 -39.2252741 L -107.0856875 -39.2253614 L -107.0859718 -39.2252887 L -107.0861542 -39.2253302 L -107.0867012 -39.2252636 L -107.0874645 -39.2248388 L -107.0880184 -39.2240960 L -107.0882420 -39.2230542 L -107.0880481 -39.2226142 L -107.0878721 -39.2223031 L -107.0879583 -39.2219186 L -107.0882928 -39.2208275 L -107.0880330 -39.2202127 L -107.0881028 -39.2200215 L -107.0884875 -39.2196535 L -107.0884765 -39.2194382 L -107.0885671 -39.2190903 L -107.0886075 -39.2186935 L -107.0887257 -39.2184878 L -107.0886733 -39.2182222 L -107.0886167 -39.2180793 L -107.0883889 -39.2179621 L -107.0883145 -39.2178689 L -107.0881970 -39.2178124 L -107.0878411 -39.2174676 L -107.0875669 -39.2169096 L -107.0874594 -39.2166151 L -107.0874704 -39.2162975 L -107.0876045 -39.2158136 L -107.0875463 -39.2153789 L -107.0873058 -39.2150984 L -107.0864412 -39.2137558 L -107.0862427 -39.2133360 L -107.0861730 -39.2130119 L -107.0859665 -39.2128103 L -107.0858860 -39.2124315 L -107.0858081 -39.2122517 L -107.0857734 -39.2120081 L -107.0858377 -39.2117774 L -107.0857090 -39.2115530 L -107.0857197 -39.2107420 L -107.0857948 -39.2100410 L -107.0857752 -39.2097226 L -107.0855431 -39.2090799 L -107.0855399 -39.2089719 L -107.0855924 -39.2088493 L -107.0855466 -39.2086969 L -107.0854083 -39.2085102 L -107.0853180 -39.2082731 L -107.0852299 -39.2081607 L -107.0849763 -39.2080266 L -107.0848127 -39.2074189 L -107.0848241 -39.2070822 L -107.0844145 -39.2063701 L -107.0843504 -39.2061596 L -107.0841576 -39.2058206 L -107.0841499 -39.2055595 L -107.0842683 -39.2053547 L -107.0844305 -39.2052211 L -107.0845014 -39.2050847 L -107.0843813 -39.2046551 L -107.0843984 -39.2045133 L -107.0843573 -39.2042500 L -107.0839852 -39.2039181 L -107.0838976 -39.2037711 L -107.0835411 -39.2033532 L -107.0834705 -39.2031443 L -107.0834586 -39.2029049 L -107.0832816 -39.2027927 L -107.0831489 -39.2025853 L -107.0831053 -39.2024539 L -107.0832324 -39.2022796 L -107.0834506 -39.2021608 L -107.0836534 -39.2021777 L -107.0838046 -39.2021380 L -107.0838762 -39.2020245 L -107.0840416 -39.2019440 L -107.0843514 -39.2019835 L -107.0848111 -39.2018041 L -107.0851624 -39.2018879 L -107.0855591 -39.2018267 L -107.0859077 -39.2018148 L -107.0862851 -39.2016394 L -107.0865872 -39.2014413 L -107.0866249 -39.2012372 L -107.0865220 -39.2010481 L -107.0865581 -39.2008403 L -107.0871118 -39.2001218 L -107.0874202 -39.1987915 L -107.0872593 -39.1983779 L -107.0870108 -39.1979272 L -107.0869710 -39.1975050 L -107.0868754 -39.1971223 L -107.0868250 -39.1964511 L -107.0869634 -39.1959677 L -107.0869484 -39.1957427 L -107.0868726 -39.1954197 L -107.0867481 -39.1951381 L -107.0866825 -39.1948870 L -107.0866001 -39.1943524 L -107.0866202 -39.1941899 L -107.0865893 -39.1937084 L -107.0863460 -39.1932158 L -107.0861602 -39.1926423 L -107.0859420 -39.1923145 L -107.0858903 -39.1917883 L -107.0857947 -39.1914114 L -107.0857670 -39.1908851 L -107.0857268 -39.1906515 L -107.0855999 -39.1902889 L -107.0856110 -39.1900995 L -107.0857802 -39.1897169 L -107.0858269 -39.1891960 L -107.0858287 -39.1884828 L -107.0857150 -39.1882821 L -107.0855262 -39.1880783 L -107.0852060 -39.1879173 L -107.0845172 -39.1876504 L -107.0844159 -39.1875891 L -107.0843541 -39.1874686 L -107.0843517 -39.1873875 L -107.0844424 -39.1870796 L -107.0847607 -39.1865883 L -107.0849993 -39.1859321 L -107.0851877 -39.1856395 L -107.0855433 -39.1854058 L -107.0856603 -39.1852683 L -107.0857157 -39.1850610 L -107.0857960 -39.1850071 L -107.0861815 -39.1850355 L -107.0863387 -39.1849355 L -107.0864976 -39.1847469 L -107.0870410 -39.1843822 L -107.0872084 -39.1841637 L -107.0872684 -39.1838761 L -107.0870464 -39.1835647 L -107.0869103 -39.1830810 L -107.0871797 -39.1825353 L -107.0872117 -39.1821782 L -107.0877429 -39.1810469 L -107.0877775 -39.1808211 L -107.0877721 -39.1801909 L -107.0879041 -39.1799314 L -107.0879356 -39.1797247 L -107.0874602 -39.1788891 L -107.0873090 -39.1788270 L -107.0871382 -39.1788736 L -107.0869854 -39.1787135 L -107.0869206 -39.1784438 L -107.0867400 -39.1782984 L -107.0865183 -39.1781929 L -107.0862461 -39.1781449 L -107.0856304 -39.1781160 L -107.0852798 -39.1780412 L -107.0850184 -39.1779108 L -107.0847420 -39.1778256 L -107.0846801 -39.1777006 L -107.0844577 -39.1774703 L -107.0841720 -39.1770700 L -107.0840604 -39.1767877 L -107.0836885 -39.1764479 L -107.0835351 -39.1762247 L -107.0835367 -39.1759074 L -107.0834563 -39.1758768 L -107.0833285 -39.1757361 L -107.0833366 -39.1756903 L -107.0837353 -39.1756505 L -107.0841095 -39.1755287 L -107.0842674 -39.1754324 L -107.0846578 -39.1753252 L -107.0849503 -39.1751726 L -107.0851978 -39.1751181 L -107.0854700 -39.1751101 L -107.0859106 -39.1749609 L -107.0859079 -39.1748538 L -107.0860372 -39.1746260 L -107.0859213 -39.1744336 L -107.0859817 -39.1741510 L -107.0858820 -39.1739274 L -107.0859150 -39.1736710 L -107.0858792 -39.1733916 L -107.0859365 -39.1728953 L -107.0859306 -39.1724548 L -107.0858463 -39.1723576 L -107.0856007 -39.1722822 L -107.0855391 -39.1721024 L -107.0852696 -39.1719298 L -107.0848767 -39.1715651 L -107.0846957 -39.1713169 L -107.0844252 -39.1712046 L -107.0843282 -39.1710191 L -107.0837741 -39.1707501 L -107.0834549 -39.1705596 L -107.0832135 -39.1703207 L -107.0829273 -39.1701952 L -107.0823708 -39.1700925 L -107.0820462 -39.1698911 L -107.0813104 -39.1695250 L -107.0811975 -39.1693287 L -107.0811923 -39.1690984 L -107.0811076 -39.1689978 L -107.0806573 -39.1688617 L -107.0802707 -39.1688011 L -107.0801913 -39.1687574 L -107.0799674 -39.1685137 L -107.0799959 -39.1684000 L -107.0798541 -39.1681283 L -107.0794882 -39.1677519 L -107.0794920 -39.1676752 L -107.0793674 -39.1676266 L -107.0793401 -39.1675661 L -107.0794581 -39.1675474 L -107.0796955 -39.1672554 L -107.0797786 -39.1672843 L -107.0798189 -39.1671788 L -107.0799955 -39.1670130 L -107.0802434 -39.1666617 L -107.0806922 -39.1661807 L -107.0807191 -39.1660631 L -107.0809109 -39.1658434 L -107.0809386 -39.1657663 L -107.0809155 -39.1655208 L -107.0805610 -39.1654653 L -107.0798143 -39.1652699 L -107.0793141 -39.1652130 L -107.0786934 -39.1650323 L -107.0783673 -39.1647592 L -107.0779389 -39.1645681 L -107.0775633 -39.1643188 L -107.0774559 -39.1642887 L -107.0773379 -39.1642107 L -107.0769263 -39.1643812 L -107.0768176 -39.1640536 L -107.0768270 -39.1638135 L -107.0767667 -39.1636866" pathLength="1" fill="none" stroke="currentColor" vector-effect="non-scaling-stroke"/>
</svg>
