<svg xmlns="http://www.w3.org/2000/svg" viewBox="0 0 2000 2500" preserveAspectRatio="xMidYMid slice">
  <path class="trace-line" d="M 346.77 1034.16 L 362.95 1089.82 L 353.88 1136.34 L 349.03 1148.72 L 349.85 1186.40 L 343.38 1201.74 L 322.92 1322.79 L 324.96 1353.02 L 344.90 1404.85 L 372.43 1458.90 L 388.54 1465.84 L 456.21 1459.92 L 501.56 1451.64 L 556.97 1456.98 L 606.67 1463.09 L 667.57 1454.67 L 689.32 1449.50 L 787.10 1437.68 L 819.61 1432.81 L 852.11 1421.35 L 881.87 1402.72 L 979.54 1372.57 L 1036.03 1378.35 L 1062.06 1376.11 L 1101.75 1368.42 L 1185.76 1383.19 L 1237.50 1376.80 L 1311.87 1373.61 L 1382.68 1364.01 L 1480.23 1368.15 L 1515.86 1360.53 L 1558.45 1341.16 L 1571.46 1326.86 L 1591.26 1312.55 L 1608.05 1294.73 L 1629.21 1289.72 L 1653.89 1208.34 L 1657.86 1172.58 L 1672.72 1130.12" pathLength="1" fill="none" vector-effect="non-scaling-stroke"/>
  <circle class="trace-start" cx="346.77" cy="1034.16" r="6.25"/>
  <circle class="trace-summit-halo" cx="1677.08" cy="1126.62" r="15.97"/>
  <circle class="trace-summit" cx="1677.08" cy="1126.62" r="9.03"/>
</svg>
