<svg xmlns="http://www.w3.org/2000/svg" viewBox="0 0 1600 900" preserveAspectRatio="xMidYMid slice">
  <path class="trace-line" d="M 228.18 260.99 L 242.34 309.74 L 234.40 350.47 L 230.15 361.31 L 230.87 394.31 L 225.21 407.74 L 207.29 513.74 L 209.08 540.21 L 226.54 585.60 L 250.64 632.92 L 264.74 639.01 L 323.98 633.82 L 363.67 626.57 L 412.18 631.25 L 455.69 636.60 L 509.00 629.23 L 528.04 624.70 L 613.63 614.35 L 642.09 610.08 L 670.54 600.04 L 696.59 583.74 L 782.09 557.34 L 831.54 562.39 L 854.32 560.43 L 889.07 553.70 L 962.61 566.63 L 1007.90 561.03 L 1073.00 558.24 L 1134.99 549.83 L 1220.38 553.46 L 1251.57 546.79 L 1288.86 529.83 L 1300.24 517.30 L 1317.58 504.78 L 1332.28 489.17 L 1350.80 484.78 L 1372.40 413.52 L 1375.88 382.21 L 1388.89 345.03" pathLength="1" fill="none" vector-effect="non-scaling-stroke"/>
  <circle class="trace-start" cx="228.18" cy="260.99" r="5.47"/>
  <circle class="trace-summit-halo" cx="1392.71" cy="341.95" r="13.98"/>
  <circle class="trace-summit" cx="1392.71" cy="341.95" r="7.90"/>
</svg>
