<svg xmlns="http://www.w3.org/2000/svg" viewBox="0 0 2000 2500" preserveAspectRatio="none">
  <path class="trace-underlay" d="M 532.07 1058.16 L 545.39 1093.43 L 537.92 1122.91 L 533.93 1130.76 L 534.61 1154.63 L 529.28 1164.36 L 512.44 1241.07 L 514.12 1260.23 L 530.53 1293.07 L 553.19 1327.32 L 566.45 1331.72 L 622.16 1327.97 L 659.48 1322.73 L 705.09 1326.11 L 746.01 1329.98 L 796.14 1324.65 L 814.04 1321.37 L 894.53 1313.88 L 921.29 1310.79 L 948.04 1303.53 L 972.54 1291.73 L 1052.94 1272.62 L 1099.44 1276.28 L 1120.86 1274.86 L 1153.53 1269.98 L 1222.69 1279.34 L 1265.27 1275.30 L 1326.49 1273.28 L 1384.78 1267.19 L 1465.08 1269.82 L 1494.41 1264.98 L 1529.47 1252.71 L 1540.17 1243.65 L 1556.47 1234.58 L 1570.29 1223.29 L 1587.71 1220.11 L 1608.03 1168.54 L 1611.29 1145.88 L 1623.53 1118.97" pathLength="1" fill="none" vector-effect="non-scaling-stroke"/>
  <path class="trace-line" d="M 532.07 1058.16 L 545.39 1093.43 L 537.92 1122.91 L 533.93 1130.76 L 534.61 1154.63 L 529.28 1164.36 L 512.44 1241.07 L 514.12 1260.23 L 530.53 1293.07 L 553.19 1327.32 L 566.45 1331.72 L 622.16 1327.97 L 659.48 1322.73 L 705.09 1326.11 L 746.01 1329.98 L 796.14 1324.65 L 814.04 1321.37 L 894.53 1313.88 L 921.29 1310.79 L 948.04 1303.53 L 972.54 1291.73 L 1052.94 1272.62 L 1099.44 1276.28 L 1120.86 1274.86 L 1153.53 1269.98 L 1222.69 1279.34 L 1265.27 1275.30 L 1326.49 1273.28 L 1384.78 1267.19 L 1465.08 1269.82 L 1494.41 1264.98 L 1529.47 1252.71 L 1540.17 1243.65 L 1556.47 1234.58 L 1570.29 1223.29 L 1587.71 1220.11 L 1608.03 1168.54 L 1611.29 1145.88 L 1623.53 1118.97" pathLength="1" fill="none" vector-effect="non-scaling-stroke"/>
</svg>
