<svg xmlns="http://www.w3.org/2000/svg" viewBox="-105.5114488 -37.5678211 0.0154350 0.0039001" preserveAspectRatio="xMidYMid meet">
  <path class="trace-line" d="M -105.5099359 -37.5674961 L -105.5097822 -37.5670770 L -105.5098684 -37.5667268 L -105.5099145 -37.5666336 L -105.5099067 -37.5663499 L -105.5099681 -37.5662344 L -105.5101625 -37.5653230 L -105.5101431 -37.5650954 L -105.5099537 -37.5647052 L -105.5096922 -37.5642983 L -105.5095392 -37.5642460 L -105.5088964 -37.5642906 L -105.5084657 -37.5643529 L -105.5079394 -37.5643127 L -105.5074673 -37.5642667 L -105.5068888 -37.5643301 L -105.5066822 -37.5643690 L -105.5057535 -37.5644580 L -105.5054447 -37.5644947 L -105.5051360 -37.5645810 L -105.5048533 -37.5647212 L -105.5039256 -37.5649482 L -105.5033890 -37.5649047 L -105.5031418 -37.5649216 L -105.5027648 -37.5649795 L -105.5019668 -37.5648683 L -105.5014754 -37.5649164 L -105.5007690 -37.5649404 L -105.5000964 -37.5650127 L -105.4991698 -37.5649815 L -105.4988314 -37.5650389 L -105.4984268 -37.5651847 L -105.4983033 -37.5652924 L -105.4981152 -37.5654001 L -105.4979557 -37.5655343 L -105.4977547 -37.5655720 L -105.4975203 -37.5661847 L -105.4974826 -37.5664539 L -105.4973414 -37.5667736" pathLength="1" fill="none" stroke="currentColor" vector-effect="non-scaling-stroke"/>
  <circle class="trace-start" cx="-105.5099359" cy="-37.5674961" r="0.0001389"/>
  <circle class="trace-summit-halo" cx="-105.4973000" cy="-37.5668000" r="0.0003542"/>
  <circle class="trace-summit" cx="-105.4973000" cy="-37.5668000" r="0.0002014"/>
</svg>
