<svg xmlns="http://www.w3.org/2000/svg" viewBox="0 0 2000 2500" preserveAspectRatio="none">
  <path class="trace-underlay" d="M 1087.37 1547.05 L 1081.53 1542.38 L 1072.49 1533.32 L 1062.03 1526.60 L 1051.25 1516.44 L 1044.38 1508.71 L 1041.44 1496.03 L 1037.19 1484.02 L 1040.57 1474.20 L 1043.29 1462.44 L 1045.58 1454.38 L 1048.96 1447.66 L 1049.83 1436.08 L 1054.41 1419.87 L 1060.94 1409.79 L 1071.40 1400.06 L 1077.06 1388.55 L 1081.53 1376.46 L 1102.99 1369.83 L 1119.33 1362.94 L 1129.57 1355.39 L 1137.85 1345.73 L 1144.06 1336.07 L 1138.39 1335.15 L 1135.12 1327.09 L 1123.69 1321.38 L 1114.32 1322.89 L 1104.40 1308.36 L 1098.09 1298.62 L 1090.24 1295.35 L 1090.90 1306.01 L 1085.23 1307.36 L 1081.53 1299.04 L 1070.09 1290.06 L 1063.23 1279.23 L 1055.71 1271.33 L 1038.83 1263.11 L 1028.59 1254.88 L 1020.85 1244.30 L 1013.34 1236.49 L 1005.71 1225.91 L 996.45 1217.18 L 997.87 1210.54 L 988.83 1205.17 L 978.59 1198.03 L 955.06 1168.98 L 948.09 1163.53 L 947.32 1157.65 L 936.32 1150.01 L 919.54 1132.29 L 915.41 1122.22 L 909.20 1113.07 L 905.82 1103.50 L 901.68 1092.83 L 899.07 1077.47 L 892.42 1063.70 L 887.19 1050.01 L 878.91 1038.09 L 866.39 1013.24 L 863.45 1010.97 L 863.77 1001.06 L 849.72 994.35 L 845.91 987.30 L 844.38 978.06 L 834.47 970.00 L 823.58 959.76 L 813.55 954.55 L 803.89 948.01" pathLength="1" fill="none" vector-effect="non-scaling-stroke"/>
  <path class="trace-line" d="M 1087.37 1547.05 L 1081.53 1542.38 L 1072.49 1533.32 L 1062.03 1526.60 L 1051.25 1516.44 L 1044.38 1508.71 L 1041.44 1496.03 L 1037.19 1484.02 L 1040.57 1474.20 L 1043.29 1462.44 L 1045.58 1454.38 L 1048.96 1447.66 L 1049.83 1436.08 L 1054.41 1419.87 L 1060.94 1409.79 L 1071.40 1400.06 L 1077.06 1388.55 L 1081.53 1376.46 L 1102.99 1369.83 L 1119.33 1362.94 L 1129.57 1355.39 L 1137.85 1345.73 L 1144.06 1336.07 L 1138.39 1335.15 L 1135.12 1327.09 L 1123.69 1321.38 L 1114.32 1322.89 L 1104.40 1308.36 L 1098.09 1298.62 L 1090.24 1295.35 L 1090.90 1306.01 L 1085.23 1307.36 L 1081.53 1299.04 L 1070.09 1290.06 L 1063.23 1279.23 L 1055.71 1271.33 L 1038.83 1263.11 L 1028.59 1254.88 L 1020.85 1244.30 L 1013.34 1236.49 L 1005.71 1225.91 L 996.45 1217.18 L 997.87 1210.54 L 988.83 1205.17 L 978.59 1198.03 L 955.06 1168.98 L 948.09 1163.53 L 947.32 1157.65 L 936.32 1150.01 L 919.54 1132.29 L 915.41 1122.22 L 909.20 1113.07 L 905.82 1103.50 L 901.68 1092.83 L 899.07 1077.47 L 892.42 1063.70 L 887.19 1050.01 L 878.91 1038.09 L 866.39 1013.24 L 863.45 1010.97 L 863.77 1001.06 L 849.72 994.35 L 845.91 987.30 L 844.38 978.06 L 834.47 970.00 L 823.58 959.76 L 813.55 954.55 L 803.89 948.01" pathLength="1" fill="none" vector-effect="non-scaling-stroke"/>
</svg>
