<svg xmlns="http://www.w3.org/2000/svg" viewBox="0 0 2000 2500" preserveAspectRatio="xMidYMid slice">
  <path class="trace-line" d="M 1228.65 2031.25 L 1216.91 2019.07 L 1198.73 1995.42 L 1177.71 1977.89 L 1156.03 1951.40 L 1142.23 1931.24 L 1136.32 1898.17 L 1127.78 1866.85 L 1134.57 1841.22 L 1140.04 1810.56 L 1144.64 1789.53 L 1151.43 1772.01 L 1153.18 1741.79 L 1162.38 1699.51 L 1175.52 1673.23 L 1196.54 1647.83 L 1207.93 1617.83 L 1216.91 1586.28 L 1260.05 1568.98 L 1292.90 1551.02 L 1313.48 1531.32 L 1330.12 1506.13 L 1342.61 1480.95 L 1331.22 1478.53 L 1324.65 1457.50 L 1301.65 1442.62 L 1282.82 1446.56 L 1262.89 1408.67 L 1250.20 1383.26 L 1234.42 1374.73 L 1235.74 1402.54 L 1224.36 1406.04 L 1216.91 1384.36 L 1193.91 1360.93 L 1180.12 1332.67 L 1165.01 1312.09 L 1131.06 1290.63 L 1110.48 1269.16 L 1094.94 1241.57 L 1079.83 1221.20 L 1064.50 1193.61 L 1045.89 1170.83 L 1048.73 1153.53 L 1030.55 1139.51 L 1009.97 1120.90 L 962.67 1045.13 L 948.66 1030.89 L 947.12 1015.56 L 925.01 995.63 L 891.28 949.42 L 882.96 923.14 L 870.48 899.28 L 863.69 874.31 L 855.37 846.50 L 850.12 806.42 L 836.76 770.51 L 826.25 734.81 L 809.61 703.72 L 784.42 638.89 L 778.51 632.99 L 779.16 607.14 L 750.91 589.62 L 743.26 571.23 L 740.19 547.14 L 720.26 526.12 L 698.36 499.40 L 678.21 485.82 L 658.78 468.75" pathLength="1" fill="none" vector-effect="non-scaling-stroke"/>
  <circle class="trace-start" cx="1228.65" cy="2031.25" r="6.25"/>
  <circle class="trace-summit-halo" cx="657.39" cy="469.18" r="15.97"/>
  <circle class="trace-summit" cx="657.39" cy="469.18" r="9.03"/>
</svg>
