<svg xmlns="http://www.w3.org/2000/svg" viewBox="0 0 1600 900" preserveAspectRatio="xMidYMid slice">
  <path class="trace-line" d="M 968.85 1026.59 L 960.18 1017.60 L 946.75 1000.15 L 931.24 987.21 L 915.22 967.66 L 905.03 952.78 L 900.67 928.38 L 894.36 905.26 L 899.38 886.34 L 903.42 863.72 L 906.81 848.20 L 911.83 835.27 L 913.12 812.96 L 919.91 781.76 L 929.61 762.36 L 945.14 743.62 L 953.55 721.47 L 960.18 698.19 L 992.04 685.42 L 1016.29 672.17 L 1031.49 657.63 L 1043.78 639.03 L 1053.00 620.45 L 1044.59 618.67 L 1039.74 603.15 L 1022.76 592.16 L 1008.85 595.07 L 994.14 567.11 L 984.76 548.35 L 973.11 542.05 L 974.08 562.58 L 965.68 565.17 L 960.18 549.17 L 943.20 531.87 L 933.01 511.02 L 921.85 495.82 L 896.79 479.98 L 881.59 464.14 L 870.11 443.78 L 858.95 428.75 L 847.63 408.38 L 833.89 391.57 L 835.98 378.80 L 822.56 368.46 L 807.36 354.72 L 772.43 298.79 L 762.09 288.29 L 760.95 276.98 L 744.62 262.27 L 719.72 228.16 L 713.57 208.77 L 704.35 191.15 L 699.34 172.73 L 693.19 152.20 L 689.32 122.62 L 679.45 96.12 L 671.69 69.77 L 659.40 46.82 L 640.80 -1.02 L 636.44 -5.38 L 636.92 -24.46 L 616.06 -37.38 L 610.40 -50.96 L 608.14 -68.74 L 593.42 -84.26 L 577.25 -103.97 L 562.37 -114.00 L 548.02 -126.59" pathLength="1" fill="none" vector-effect="non-scaling-stroke"/>
  <circle class="trace-start" cx="968.85" cy="1026.59" r="4.62"/>
  <circle class="trace-summit-halo" cx="547.00" cy="-126.28" r="11.79"/>
  <circle class="trace-summit" cx="547.00" cy="-126.28" r="6.67"/>
</svg>
