<svg xmlns="http://www.w3.org/2000/svg" viewBox="-106.9321206 -37.9883125 0.0100511 0.0181008" preserveAspectRatio="xMidYMid meet">
  <path d="M -106.9243029 -37.9717201 L -106.9244467 -37.9718377 L -106.9246694 -37.9720660 L -106.9249268 -37.9722352 L -106.9251924 -37.9724910 L -106.9253614 -37.9726856 L -106.9254338 -37.9730048 L -106.9255384 -37.9733072 L -106.9254552 -37.9735546 L -106.9253882 -37.9738506 L -106.9253319 -37.9740536 L -106.9252487 -37.9742227 L -106.9252273 -37.9745145 L -106.9251146 -37.9749226 L -106.9249537 -37.9751763 L -106.9246962 -37.9754215 L -106.9245567 -37.9757112 L -106.9244467 -37.9760157 L -106.9239183 -37.9761827 L -106.9235160 -37.9763561 L -106.9232639 -37.9765463 L -106.9230600 -37.9767895 L -106.9229071 -37.9770326 L -106.9230466 -37.9770559 L -106.9231271 -37.9772589 L -106.9234087 -37.9774026 L -106.9236394 -37.9773646 L -106.9238835 -37.9777303 L -106.9240390 -37.9779756 L -106.9242322 -37.9780580 L -106.9242161 -37.9777895 L -106.9243555 -37.9777557 L -106.9244467 -37.9779650 L -106.9247284 -37.9781912 L -106.9248973 -37.9784640 L -106.9250824 -37.9786627 L -106.9254982 -37.9788699 L -106.9257503 -37.9790771 L -106.9259407 -37.9793435 L -106.9261258 -37.9795401 L -106.9263135 -37.9798065 L -106.9265415 -37.9800264 L -106.9265067 -37.9801934 L -106.9267293 -37.9803287 L -106.9269814 -37.9805084 L -106.9275608 -37.9812399 L -106.9277324 -37.9813773 L -106.9277512 -37.9815253 L -106.9280221 -37.9817177 L -106.9284352 -37.9821638 L -106.9285371 -37.9824175 L -106.9286900 -37.9826479 L -106.9287731 -37.9828889 L -106.9288751 -37.9831574 L -106.9289394 -37.9835443 L -106.9291030 -37.9838910 L -106.9292318 -37.9842356 L -106.9294356 -37.9845358 L -106.9297441 -37.9851616 L -106.9298165 -37.9852186 L -106.9298085 -37.9854681 L -106.9301545 -37.9856372 L -106.9302483 -37.9858148 L -106.9302859 -37.9860473 L -106.9305300 -37.9862503 L -106.9307982 -37.9865082 L -106.9310450 -37.9866393 L -106.9312830 -37.9868041" pathLength="1" fill="none" stroke="currentColor" vector-effect="non-scaling-stroke"/>
</svg>
