<svg xmlns="http://www.w3.org/2000/svg" viewBox="0 0 2000 2500" preserveAspectRatio="none">
  <path class="trace-underlay" d="M 315.77 1706.22 L 330.87 1684.53 L 325.43 1669.65 L 331.04 1649.30 L 357.64 1635.71 L 412.80 1622.83 L 453.29 1632.14 L 497.30 1643.95 L 509.95 1596.00 L 526.64 1553.84 L 610.92 1494.61 L 623.93 1443.23 L 630.62 1422.28 L 640.82 1397.52 L 649.17 1372.47 L 649.43 1339.83 L 661.38 1318.42 L 680.78 1317.71 L 679.89 1306.22 L 670.60 1294.52 L 677.23 1284.19 L 683.62 1289.25 L 699.36 1295.92 L 724.88 1289.43 L 742.39 1298.17 L 749.20 1316.41 L 762.44 1327.44 L 772.60 1342.22 L 794.62 1350.71 L 810.24 1359.33 L 818.77 1369.32 L 826.97 1385.87 L 838.50 1388.71 L 849.84 1380.65 L 868.55 1377.94 L 883.95 1385.01 L 887.53 1381.51 L 897.77 1385.53 L 902.80 1380.62 L 919.51 1393.12 L 920.92 1382.03 L 931.61 1378.67 L 929.67 1369.30 L 936.63 1367.61 L 937.77 1363.13 L 946.36 1361.27 L 950.73 1343.69 L 957.68 1339.70 L 974.85 1342.68 L 984.99 1336.38 L 998.35 1299.59 L 1017.31 1265.30 L 1018.19 1255.50 L 1028.03 1255.19 L 1026.04 1247.20 L 1028.16 1228.92 L 1032.73 1200.40 L 1038.52 1187.28 L 1037.44 1173.27 L 1041.67 1158.84 L 1056.55 1151.49 L 1066.81 1139.49 L 1073.86 1139.34 L 1095.77 1159.29 L 1101.45 1161.46 L 1109.90 1157.25 L 1120.62 1161.01 L 1137.38 1159.31 L 1140.62 1151.93 L 1148.98 1147.19 L 1160.49 1133.44 L 1163.98 1116.64 L 1176.92 1106.75 L 1178.37 1099.08 L 1185.95 1092.68 L 1199.60 1100.39 L 1205.41 1096.53 L 1220.16 1106.21 L 1226.03 1106.23 L 1224.05 1092.95 L 1229.10 1081.53 L 1239.66 1084.65 L 1243.91 1071.29 L 1258.03 1071.95 L 1259.50 1059.84 L 1277.11 1064.75 L 1287.68 1056.76 L 1298.91 1059.21 L 1297.88 1051.65 L 1304.13 1045.91 L 1321.45 1042.10 L 1344.36 1043.30 L 1358.50 1036.68 L 1359.34 1038.63 L 1358.08 1041.14 L 1359.13 1045.36 L 1377.33 1070.49 L 1380.70 1073.33 L 1379.75 1078.28 L 1384.28 1088.41 L 1387.11 1096.92 L 1395.32 1108.36 L 1403.21 1116.63 L 1415.73 1125.14 L 1426.57 1136.17" pathLength="1" fill="none" vector-effect="non-scaling-stroke"/>
  <path class="trace-line" d="M 315.77 1706.22 L 330.87 1684.53 L 325.43 1669.65 L 331.04 1649.30 L 357.64 1635.71 L 412.80 1622.83 L 453.29 1632.14 L 497.30 1643.95 L 509.95 1596.00 L 526.64 1553.84 L 610.92 1494.61 L 623.93 1443.23 L 630.62 1422.28 L 640.82 1397.52 L 649.17 1372.47 L 649.43 1339.83 L 661.38 1318.42 L 680.78 1317.71 L 679.89 1306.22 L 670.60 1294.52 L 677.23 1284.19 L 683.62 1289.25 L 699.36 1295.92 L 724.88 1289.43 L 742.39 1298.17 L 749.20 1316.41 L 762.44 1327.44 L 772.60 1342.22 L 794.62 1350.71 L 810.24 1359.33 L 818.77 1369.32 L 826.97 1385.87 L 838.50 1388.71 L 849.84 1380.65 L 868.55 1377.94 L 883.95 1385.01 L 887.53 1381.51 L 897.77 1385.53 L 902.80 1380.62 L 919.51 1393.12 L 920.92 1382.03 L 931.61 1378.67 L 929.67 1369.30 L 936.63 1367.61 L 937.77 1363.13 L 946.36 1361.27 L 950.73 1343.69 L 957.68 1339.70 L 974.85 1342.68 L 984.99 1336.38 L 998.35 1299.59 L 1017.31 1265.30 L 1018.19 1255.50 L 1028.03 1255.19 L 1026.04 1247.20 L 1028.16 1228.92 L 1032.73 1200.40 L 1038.52 1187.28 L 1037.44 1173.27 L 1041.67 1158.84 L 1056.55 1151.49 L 1066.81 1139.49 L 1073.86 1139.34 L 1095.77 1159.29 L 1101.45 1161.46 L 1109.90 1157.25 L 1120.62 1161.01 L 1137.38 1159.31 L 1140.62 1151.93 L 1148.98 1147.19 L 1160.49 1133.44 L 1163.98 1116.64 L 1176.92 1106.75 L 1178.37 1099.08 L 1185.95 1092.68 L 1199.60 1100.39 L 1205.41 1096.53 L 1220.16 1106.21 L 1226.03 1106.23 L 1224.05 1092.95 L 1229.10 1081.53 L 1239.66 1084.65 L 1243.91 1071.29 L 1258.03 1071.95 L 1259.50 1059.84 L 1277.11 1064.75 L 1287.68 1056.76 L 1298.91 1059.21 L 1297.88 1051.65 L 1304.13 1045.91 L 1321.45 1042.10 L 1344.36 1043.30 L 1358.50 1036.68 L 1359.34 1038.63 L 1358.08 1041.14 L 1359.13 1045.36 L 1377.33 1070.49 L 1380.70 1073.33 L 1379.75 1078.28 L 1384.28 1088.41 L 1387.11 1096.92 L 1395.32 1108.36 L 1403.21 1116.63 L 1415.73 1125.14 L 1426.57 1136.17" pathLength="1" fill="none" vector-effect="non-scaling-stroke"/>
</svg>
