<svg xmlns="http://www.w3.org/2000/svg" viewBox="0 0 2000 2500" preserveAspectRatio="xMidYMid slice">
  <path class="trace-line" d="M 322.92 1776.19 L 341.21 1742.10 L 334.61 1718.71 L 341.41 1686.73 L 373.63 1665.37 L 440.46 1645.12 L 489.50 1659.75 L 542.82 1678.32 L 558.13 1602.95 L 578.36 1536.68 L 680.46 1443.59 L 696.21 1362.83 L 704.31 1329.90 L 716.68 1290.97 L 726.79 1251.61 L 727.10 1200.30 L 741.58 1166.65 L 765.08 1165.54 L 764.01 1147.48 L 752.75 1129.08 L 760.78 1112.84 L 768.52 1120.80 L 787.59 1131.28 L 818.50 1121.08 L 839.71 1134.82 L 847.97 1163.49 L 864.00 1180.83 L 876.30 1204.06 L 902.98 1217.40 L 921.91 1230.95 L 932.23 1246.65 L 942.17 1272.67 L 956.14 1277.13 L 969.88 1264.46 L 992.54 1260.20 L 1011.20 1271.32 L 1015.53 1265.81 L 1027.94 1272.14 L 1034.03 1264.41 L 1054.27 1284.06 L 1055.98 1266.63 L 1068.93 1261.35 L 1066.58 1246.62 L 1075.02 1243.96 L 1076.40 1236.93 L 1086.80 1234.00 L 1092.10 1206.37 L 1100.51 1200.10 L 1121.30 1204.79 L 1133.59 1194.87 L 1149.78 1137.06 L 1172.74 1083.15 L 1173.81 1067.76 L 1185.74 1067.27 L 1183.32 1054.70 L 1185.90 1025.98 L 1191.43 981.14 L 1198.43 960.52 L 1197.13 938.50 L 1202.26 915.81 L 1220.28 904.27 L 1232.72 885.41 L 1241.25 885.18 L 1267.79 916.53 L 1274.67 919.94 L 1284.91 913.32 L 1297.89 919.23 L 1318.20 916.55 L 1322.13 904.95 L 1332.25 897.51 L 1346.19 875.90 L 1350.42 849.50 L 1366.10 833.95 L 1367.85 821.89 L 1377.03 811.82 L 1393.57 823.95 L 1400.61 817.89 L 1418.47 833.10 L 1425.59 833.13 L 1423.19 812.26 L 1429.31 794.31 L 1442.10 799.21 L 1447.25 778.20 L 1464.35 779.25 L 1466.14 760.21 L 1487.47 767.93 L 1500.27 755.36 L 1513.88 759.21 L 1512.63 747.34 L 1520.20 738.31 L 1541.17 732.33 L 1568.93 734.21 L 1586.06 723.81 L 1587.08 726.87 L 1585.55 730.82 L 1586.82 737.45 L 1608.87 776.95 L 1612.95 781.41 L 1611.80 789.19 L 1617.28 805.12 L 1620.72 818.50 L 1630.66 836.47 L 1640.22 849.47 L 1645.70 854.69 L 1655.39 862.85 L 1668.51 880.18" pathLength="1" fill="none" vector-effect="non-scaling-stroke"/>
  <circle class="trace-start" cx="322.92" cy="1776.19" r="6.25"/>
  <circle class="trace-summit-halo" cx="1677.08" cy="892.24" r="15.97"/>
  <circle class="trace-summit" cx="1677.08" cy="892.24" r="9.03"/>
</svg>
