<svg xmlns="http://www.w3.org/2000/svg" viewBox="0 0 1600 900" preserveAspectRatio="xMidYMid slice">
  <path class="trace-line" d="M 300.00 838.35 L 313.51 813.19 L 308.64 795.93 L 313.66 772.32 L 337.45 756.56 L 386.80 741.61 L 423.02 752.41 L 462.39 766.12 L 473.70 710.49 L 488.63 661.58 L 564.03 592.88 L 575.66 533.27 L 581.65 508.97 L 590.78 480.24 L 598.24 451.19 L 598.48 413.32 L 609.17 388.49 L 626.52 387.66 L 625.73 374.33 L 617.41 360.76 L 623.35 348.77 L 629.06 354.65 L 643.14 362.38 L 665.97 354.85 L 681.63 364.99 L 687.73 386.15 L 699.57 398.95 L 708.66 416.09 L 728.35 425.94 L 742.33 435.94 L 749.96 447.53 L 757.30 466.73 L 767.61 470.02 L 777.76 460.67 L 794.49 457.53 L 808.27 465.73 L 811.47 461.67 L 820.63 466.34 L 825.13 460.64 L 840.08 475.14 L 841.34 462.27 L 850.90 458.38 L 849.17 447.50 L 855.40 445.55 L 856.41 440.35 L 864.10 438.19 L 868.01 417.80 L 874.22 413.17 L 889.58 416.63 L 898.65 409.31 L 910.60 366.64 L 927.56 326.86 L 928.35 315.50 L 937.16 315.14 L 935.37 305.86 L 937.28 284.66 L 941.36 251.57 L 946.54 236.35 L 945.57 220.10 L 949.36 203.36 L 962.67 194.84 L 971.85 180.92 L 978.16 180.75 L 997.75 203.88 L 1002.83 206.40 L 1010.40 201.51 L 1019.98 205.88 L 1034.98 203.90 L 1037.88 195.34 L 1045.35 189.85 L 1055.65 173.90 L 1058.77 154.41 L 1070.35 142.93 L 1071.65 134.04 L 1078.42 126.61 L 1090.64 135.56 L 1095.84 131.08 L 1109.03 142.31 L 1114.28 142.34 L 1112.51 126.93 L 1117.03 113.68 L 1126.48 117.30 L 1130.28 101.80 L 1142.91 102.57 L 1144.22 88.51 L 1159.98 94.21 L 1169.43 84.94 L 1179.48 87.78 L 1178.56 79.01 L 1184.15 72.35 L 1199.64 67.94 L 1220.13 69.33 L 1232.78 61.65 L 1233.53 63.91 L 1232.40 66.83 L 1233.35 71.72 L 1249.63 100.87 L 1252.64 104.16 L 1251.79 109.90 L 1255.84 121.66 L 1258.38 131.53 L 1265.72 144.80 L 1272.78 154.39 L 1276.83 158.25 L 1283.98 164.27 L 1293.67 177.06" pathLength="1" fill="none" vector-effect="non-scaling-stroke"/>
  <circle class="trace-start" cx="300.00" cy="838.35" r="4.62"/>
  <circle class="trace-summit-halo" cx="1300.00" cy="185.96" r="11.79"/>
  <circle class="trace-summit" cx="1300.00" cy="185.96" r="6.67"/>
</svg>
