<svg xmlns="http://www.w3.org/2000/svg" viewBox="-106.3452506 -38.8486860 0.0342006 0.0207008" preserveAspectRatio="xMidYMid meet">
  <path class="trace-line" d="M -106.3424005 -38.8297102 L -106.3420155 -38.8302689 L -106.3421543 -38.8306524 L -106.3420112 -38.8311766 L -106.3413332 -38.8315267 L -106.3399267 -38.8318587 L -106.3388944 -38.8316188 L -106.3377723 -38.8313145 L -106.3374500 -38.8325499 L -106.3370244 -38.8336362 L -106.3348755 -38.8351622 L -106.3345440 -38.8364860 L -106.3343734 -38.8370259 L -106.3341132 -38.8376639 L -106.3339004 -38.8383092 L -106.3338938 -38.8391502 L -106.3335891 -38.8397018 L -106.3330945 -38.8397201 L -106.3331171 -38.8400161 L -106.3333541 -38.8403177 L -106.3331850 -38.8405839 L -106.3330220 -38.8404534 L -106.3326208 -38.8402817 L -106.3319701 -38.8404488 L -106.3315238 -38.8402236 L -106.3313500 -38.8397536 L -106.3310126 -38.8394694 L -106.3307536 -38.8390886 L -106.3301922 -38.8388700 L -106.3297938 -38.8386478 L -106.3295765 -38.8383904 L -106.3293673 -38.8379640 L -106.3290733 -38.8378908 L -106.3287842 -38.8380985 L -106.3283073 -38.8381683 L -106.3279146 -38.8379861 L -106.3278234 -38.8380764 L -106.3275622 -38.8379727 L -106.3274340 -38.8380993 L -106.3270080 -38.8377772 L -106.3269721 -38.8380630 L -106.3266996 -38.8381495 L -106.3267489 -38.8383910 L -106.3265714 -38.8384345 L -106.3265424 -38.8385498 L -106.3263235 -38.8385978 L -106.3262119 -38.8390508 L -106.3260349 -38.8391536 L -106.3255972 -38.8390767 L -106.3253386 -38.8392392 L -106.3249980 -38.8401869 L -106.3245146 -38.8410706 L -106.3244921 -38.8413229 L -106.3242411 -38.8413309 L -106.3242920 -38.8415369 L -106.3242378 -38.8420078 L -106.3241214 -38.8427427 L -106.3239739 -38.8430807 L -106.3240013 -38.8434417 L -106.3238934 -38.8438136 L -106.3235142 -38.8440028 L -106.3232524 -38.8443120 L -106.3230727 -38.8443158 L -106.3225142 -38.8438019 L -106.3223694 -38.8437459 L -106.3221538 -38.8438545 L -106.3218807 -38.8437576 L -106.3214532 -38.8438015 L -106.3213706 -38.8439916 L -106.3211576 -38.8441136 L -106.3208641 -38.8444679 L -106.3207751 -38.8449007 L -106.3204452 -38.8451556 L -106.3204082 -38.8453532 L -106.3202151 -38.8455182 L -106.3198669 -38.8453194 L -106.3197188 -38.8454188 L -106.3193428 -38.8451694 L -106.3191931 -38.8451689 L -106.3192436 -38.8455111 L -106.3191148 -38.8458053 L -106.3188455 -38.8457250 L -106.3187372 -38.8460693 L -106.3183772 -38.8460522 L -106.3183397 -38.8463643 L -106.3178907 -38.8462377 L -106.3176214 -38.8464437 L -106.3173349 -38.8463806 L -106.3173612 -38.8465753 L -106.3172019 -38.8467232 L -106.3167604 -38.8468213 L -106.3161762 -38.8467904 L -106.3158157 -38.8469609 L -106.3157943 -38.8469108 L -106.3158265 -38.8468460 L -106.3157997 -38.8467374 L -106.3153356 -38.8460898 L -106.3152498 -38.8460167 L -106.3152739 -38.8458892 L -106.3151586 -38.8456281 L -106.3150862 -38.8454088 L -106.3148770 -38.8451142 L -106.3146758 -38.8449011 L -106.3143566 -38.8446818 L -106.3140804 -38.8443977" pathLength="1" fill="none" stroke="currentColor" vector-effect="non-scaling-stroke"/>
  <circle class="trace-start" cx="-106.3424005" cy="-38.8297102" r="0.0003078"/>
  <circle class="trace-summit-halo" cx="-106.3139000" cy="-38.8442000" r="0.0007849"/>
  <circle class="trace-summit" cx="-106.3139000" cy="-38.8442000" r="0.0004463"/>
</svg>
