<svg xmlns="http://www.w3.org/2000/svg" viewBox="0 0 2000 2500" preserveAspectRatio="xMidYMid slice">
  <path class="trace-line" d="M 864.59 515.77 L 854.67 513.83 L 843.59 507.30 L 812.39 477.21 L 804.72 468.75 L 800.18 468.87 L 803.47 479.41 L 811.28 498.89 L 814.15 515.40 L 812.50 525.95 L 805.89 535.39 L 802.80 546.48 L 803.50 564.27 L 803.03 628.08 L 801.45 647.87 L 798.70 668.46 L 795.77 676.59 L 790.55 682.02 L 788.46 689.79 L 794.28 703.58 L 796.93 716.93 L 794.92 721.96 L 788.12 725.62 L 785.94 730.03 L 787.55 738.34 L 786.88 745.14 L 778.60 745.50 L 774.29 748.64 L 774.59 757.22 L 773.65 763.67 L 765.48 762.11 L 759.52 758.34 L 759.47 764.90 L 758.28 771.05 L 752.31 767.42 L 746.82 762.08 L 741.33 762.28 L 737.30 766.74 L 735.52 775.54 L 726.77 784.90 L 720.41 795.86 L 715.42 811.73 L 707.81 824.03 L 701.53 838.11 L 688.09 851.03 L 676.97 863.98 L 660.14 871.39 L 652.86 877.71 L 644.71 895.33 L 631.97 912.79 L 609.72 921.22 L 596.49 931.31 L 581.58 947.42 L 576.07 972.93 L 575.62 1010.51 L 572.92 1032.53 L 577.74 1053.62 L 590.20 1088.90 L 593.22 1117.00 L 583.05 1136.99 L 565.99 1157.77 L 531.09 1187.25 L 525.53 1201.25 L 521.98 1217.70 L 526.32 1240.78 L 529.20 1274.28 L 528.41 1308.17 L 522.45 1332.03 L 520.00 1346.59 L 515.43 1364.88 L 511.09 1386.49 L 512.37 1404.31 L 516.64 1419.07 L 527.68 1430.96 L 537.25 1437.24 L 549.30 1435.27 L 564.09 1436.36 L 579.17 1448.54 L 604.53 1475.93 L 624.51 1496.07 L 643.82 1517.75 L 661.83 1536.28 L 682.79 1556.38 L 697.31 1587.28 L 710.08 1612.33 L 715.32 1626.88 L 733.44 1639.55 L 751.18 1665.40 L 767.50 1697.64 L 780.37 1728.46 L 794.78 1758.94 L 823.35 1793.63 L 842.91 1822.86 L 847.47 1832.87 L 874.67 1839.64 L 891.68 1854.30 L 907.38 1873.00 L 933.92 1889.05 L 966.91 1898.46 L 997.02 1897.55 L 1031.53 1893.48 L 1055.89 1892.34 L 1075.38 1893.72 L 1095.14 1890.46 L 1109.48 1883.81 L 1130.99 1884.82 L 1148.57 1883.49 L 1152.48 1892.56 L 1155.53 1904.50 L 1164.64 1918.36 L 1171.80 1934.08 L 1178.63 1952.28 L 1183.55 1974.39 L 1185.73 1992.83 L 1184.38 2009.73 L 1189.57 2018.92 L 1205.55 2014.21 L 1236.27 2008.16 L 1263.70 2008.87 L 1293.31 2010.88 L 1320.53 2018.73 L 1344.91 2028.10 L 1363.96 2031.25 L 1394.41 2027.38 L 1428.39 2024.66 L 1468.29 2029.94 L 1479.60 2025.43 L 1488.91 2008.27 L 1486.89 1994.17 L 1482.85 1978.26 L 1474.42 1958.40 L 1451.65 1909.50 L 1443.31 1894.27 L 1428.48 1889.10 L 1419.65 1881.03 L 1400.58 1877.98 L 1390.49 1873.55 L 1382.07 1863.05 L 1373.92 1857.33 L 1362.45 1856.47 L 1350.77 1861.49 L 1339.09 1872.53 L 1321.67 1895.61 L 1316.29 1906.41 L 1315.27 1911.35 L 1310.44 1916.03 L 1301.05 1915.64 L 1292.75 1918.93 L 1286.15 1924.39" pathLength="1" fill="none" vector-effect="non-scaling-stroke"/>
  <circle class="trace-start" cx="864.59" cy="515.77" r="6.25"/>
  <circle class="trace-summit-halo" cx="1289.67" cy="1921.19" r="15.97"/>
  <circle class="trace-summit" cx="1289.67" cy="1921.19" r="9.03"/>
</svg>
