<svg xmlns="http://www.w3.org/2000/svg" viewBox="0 0 2000 2500" preserveAspectRatio="none">
  <path class="trace-underlay" d="M 964.09 530.63 L 952.81 528.94 L 940.23 523.21 L 904.79 496.82 L 896.08 489.41 L 890.92 489.52 L 894.66 498.75 L 903.53 515.84 L 906.79 530.31 L 904.91 539.57 L 897.40 547.84 L 893.90 557.56 L 894.69 573.16 L 894.16 629.11 L 892.37 646.46 L 889.24 664.52 L 885.91 671.64 L 879.98 676.41 L 877.60 683.22 L 884.22 695.31 L 887.23 707.02 L 884.94 711.43 L 877.22 714.64 L 874.75 718.51 L 876.58 725.79 L 875.81 731.75 L 866.41 732.07 L 861.52 734.82 L 861.85 742.34 L 860.79 748.00 L 851.51 746.63 L 844.74 743.32 L 844.68 749.08 L 843.33 754.47 L 836.55 751.29 L 830.31 746.61 L 824.08 746.78 L 819.50 750.69 L 817.48 758.41 L 807.54 766.62 L 800.32 776.23 L 794.65 790.14 L 786.00 800.92 L 778.87 813.27 L 763.60 824.60 L 750.97 835.96 L 731.85 842.45 L 723.59 847.99 L 714.33 863.44 L 699.87 878.75 L 674.59 886.14 L 659.56 894.99 L 642.62 909.12 L 636.36 931.49 L 636.43 948.02 L 635.86 964.44 L 632.79 983.74 L 638.27 1002.23 L 652.41 1033.17 L 655.85 1057.81 L 644.30 1075.33 L 624.92 1093.56 L 585.27 1119.41 L 578.96 1131.68 L 574.93 1146.10 L 579.86 1166.34 L 583.13 1195.72 L 582.23 1225.43 L 575.46 1246.35 L 572.68 1259.12 L 567.49 1275.15 L 562.57 1294.11 L 564.01 1309.73 L 568.86 1322.67 L 581.40 1333.09 L 592.28 1338.61 L 605.96 1336.87 L 622.76 1337.83 L 639.89 1348.51 L 668.70 1372.52 L 691.39 1390.18 L 713.32 1409.19 L 733.78 1425.45 L 757.59 1443.07 L 774.07 1470.16 L 788.59 1492.12 L 794.54 1504.88 L 815.12 1515.99 L 835.26 1538.66 L 853.80 1566.93 L 868.42 1593.95 L 884.79 1620.67 L 917.24 1651.09 L 939.46 1676.72 L 944.63 1685.49 L 975.53 1691.43 L 994.85 1704.29 L 1012.69 1720.69 L 1042.83 1734.76 L 1080.30 1743.01 L 1114.50 1742.21 L 1153.70 1738.65 L 1181.37 1737.64 L 1203.51 1738.85 L 1225.95 1735.99 L 1242.24 1730.16 L 1266.68 1731.05 L 1286.64 1729.88 L 1291.08 1737.83 L 1294.54 1748.30 L 1304.89 1760.46 L 1313.03 1774.24 L 1320.79 1790.20 L 1326.37 1809.59 L 1328.84 1825.75 L 1327.31 1840.57 L 1333.21 1848.63 L 1351.36 1844.50 L 1386.26 1839.19 L 1417.42 1839.82 L 1451.05 1841.58 L 1481.96 1848.46 L 1509.65 1856.68 L 1531.29 1859.44 L 1565.88 1856.05 L 1604.47 1853.66 L 1649.80 1858.29 L 1662.64 1854.34 L 1673.21 1839.29 L 1670.92 1826.93 L 1666.33 1812.98 L 1656.75 1795.57 L 1630.89 1752.69 L 1621.42 1739.34 L 1604.57 1734.80 L 1594.55 1727.73 L 1572.88 1725.05 L 1561.42 1721.17 L 1551.86 1711.96 L 1542.60 1706.94 L 1529.57 1706.19 L 1516.31 1710.59 L 1503.04 1720.27 L 1483.26 1740.51 L 1477.14 1749.98 L 1475.98 1754.31 L 1470.50 1758.41 L 1459.83 1758.07 L 1450.40 1760.96 L 1442.91 1765.74" pathLength="1" fill="none" vector-effect="non-scaling-stroke"/>
  <path class="trace-line" d="M 964.09 530.63 L 952.81 528.94 L 940.23 523.21 L 904.79 496.82 L 896.08 489.41 L 890.92 489.52 L 894.66 498.75 L 903.53 515.84 L 906.79 530.31 L 904.91 539.57 L 897.40 547.84 L 893.90 557.56 L 894.69 573.16 L 894.16 629.11 L 892.37 646.46 L 889.24 664.52 L 885.91 671.64 L 879.98 676.41 L 877.60 683.22 L 884.22 695.31 L 887.23 707.02 L 884.94 711.43 L 877.22 714.64 L 874.75 718.51 L 876.58 725.79 L 875.81 731.75 L 866.41 732.07 L 861.52 734.82 L 861.85 742.34 L 860.79 748.00 L 851.51 746.63 L 844.74 743.32 L 844.68 749.08 L 843.33 754.47 L 836.55 751.29 L 830.31 746.61 L 824.08 746.78 L 819.50 750.69 L 817.48 758.41 L 807.54 766.62 L 800.32 776.23 L 794.65 790.14 L 786.00 800.92 L 778.87 813.27 L 763.60 824.60 L 750.97 835.96 L 731.85 842.45 L 723.59 847.99 L 714.33 863.44 L 699.87 878.75 L 674.59 886.14 L 659.56 894.99 L 642.62 909.12 L 636.36 931.49 L 636.43 948.02 L 635.86 964.44 L 632.79 983.74 L 638.27 1002.23 L 652.41 1033.17 L 655.85 1057.81 L 644.30 1075.33 L 624.92 1093.56 L 585.27 1119.41 L 578.96 1131.68 L 574.93 1146.10 L 579.86 1166.34 L 583.13 1195.72 L 582.23 1225.43 L 575.46 1246.35 L 572.68 1259.12 L 567.49 1275.15 L 562.57 1294.11 L 564.01 1309.73 L 568.86 1322.67 L 581.40 1333.09 L 592.28 1338.61 L 605.96 1336.87 L 622.76 1337.83 L 639.89 1348.51 L 668.70 1372.52 L 691.39 1390.18 L 713.32 1409.19 L 733.78 1425.45 L 757.59 1443.07 L 774.07 1470.16 L 788.59 1492.12 L 794.54 1504.88 L 815.12 1515.99 L 835.26 1538.66 L 853.80 1566.93 L 868.42 1593.95 L 884.79 1620.67 L 917.24 1651.09 L 939.46 1676.72 L 944.63 1685.49 L 975.53 1691.43 L 994.85 1704.29 L 1012.69 1720.69 L 1042.83 1734.76 L 1080.30 1743.01 L 1114.50 1742.21 L 1153.70 1738.65 L 1181.37 1737.64 L 1203.51 1738.85 L 1225.95 1735.99 L 1242.24 1730.16 L 1266.68 1731.05 L 1286.64 1729.88 L 1291.08 1737.83 L 1294.54 1748.30 L 1304.89 1760.46 L 1313.03 1774.24 L 1320.79 1790.20 L 1326.37 1809.59 L 1328.84 1825.75 L 1327.31 1840.57 L 1333.21 1848.63 L 1351.36 1844.50 L 1386.26 1839.19 L 1417.42 1839.82 L 1451.05 1841.58 L 1481.96 1848.46 L 1509.65 1856.68 L 1531.29 1859.44 L 1565.88 1856.05 L 1604.47 1853.66 L 1649.80 1858.29 L 1662.64 1854.34 L 1673.21 1839.29 L 1670.92 1826.93 L 1666.33 1812.98 L 1656.75 1795.57 L 1630.89 1752.69 L 1621.42 1739.34 L 1604.57 1734.80 L 1594.55 1727.73 L 1572.88 1725.05 L 1561.42 1721.17 L 1551.86 1711.96 L 1542.60 1706.94 L 1529.57 1706.19 L 1516.31 1710.59 L 1503.04 1720.27 L 1483.26 1740.51 L 1477.14 1749.98 L 1475.98 1754.31 L 1470.50 1758.41 L 1459.83 1758.07 L 1450.40 1760.96 L 1442.91 1765.74" pathLength="1" fill="none" vector-effect="non-scaling-stroke"/>
</svg>
