<svg xmlns="http://www.w3.org/2000/svg" viewBox="0 0 1600 900" preserveAspectRatio="xMidYMid slice">
  <path class="trace-line" d="M 700.01 -91.89 L 692.68 -93.32 L 684.50 -98.15 L 661.46 -120.35 L 655.79 -126.59 L 652.44 -126.50 L 654.87 -118.73 L 660.64 -104.35 L 662.76 -92.17 L 661.54 -84.38 L 656.65 -77.41 L 654.38 -69.23 L 654.89 -56.10 L 654.55 -9.01 L 653.38 5.60 L 651.34 20.80 L 649.18 26.80 L 645.33 30.81 L 643.78 36.54 L 648.09 46.72 L 650.04 56.57 L 648.55 60.29 L 643.53 62.99 L 641.92 66.24 L 643.11 72.37 L 642.62 77.39 L 636.50 77.66 L 633.32 79.97 L 633.54 86.31 L 632.85 91.07 L 626.82 89.92 L 622.42 87.13 L 622.38 91.98 L 621.50 96.52 L 617.09 93.83 L 613.04 89.90 L 608.98 90.04 L 606.00 93.34 L 604.69 99.83 L 598.23 106.74 L 593.53 114.83 L 589.85 126.54 L 584.23 135.62 L 579.59 146.01 L 569.67 155.55 L 561.45 165.10 L 549.02 170.57 L 543.65 175.23 L 537.63 188.24 L 528.23 201.12 L 511.79 207.34 L 502.03 214.79 L 491.01 226.68 L 486.94 245.51 L 486.61 273.25 L 484.62 289.50 L 488.18 305.06 L 497.38 331.10 L 499.61 351.84 L 492.10 366.59 L 479.50 381.93 L 453.72 403.69 L 449.62 414.02 L 447.00 426.16 L 450.21 443.20 L 452.33 467.92 L 451.75 492.93 L 447.35 510.54 L 445.53 521.29 L 442.16 534.79 L 438.96 550.74 L 439.90 563.89 L 443.06 574.78 L 451.21 583.55 L 458.28 588.19 L 467.18 586.74 L 478.10 587.54 L 489.23 596.53 L 507.96 616.74 L 522.72 631.61 L 536.97 647.61 L 550.28 661.29 L 565.76 676.12 L 576.47 698.93 L 585.91 717.41 L 589.78 728.15 L 603.16 737.51 L 616.25 756.58 L 628.30 780.38 L 637.81 803.13 L 648.46 825.62 L 669.55 851.22 L 684.00 872.79 L 687.36 880.18 L 707.45 885.18 L 720.01 896.00 L 731.61 909.80 L 751.20 921.64 L 775.56 928.59 L 797.80 927.92 L 823.29 924.92 L 841.27 924.07 L 855.67 925.09 L 870.26 922.68 L 880.85 917.78 L 896.73 918.52 L 909.71 917.54 L 912.60 924.23 L 914.85 933.05 L 921.58 943.28 L 926.87 954.88 L 931.91 968.31 L 935.54 984.63 L 937.15 998.24 L 936.15 1010.71 L 939.99 1017.50 L 951.79 1014.02 L 974.48 1009.55 L 994.74 1010.08 L 1016.60 1011.56 L 1036.70 1017.35 L 1054.70 1024.27 L 1068.77 1026.59 L 1091.26 1023.74 L 1116.35 1021.73 L 1145.82 1025.63 L 1154.17 1022.30 L 1161.04 1009.63 L 1159.55 999.23 L 1156.56 987.49 L 1150.34 972.83 L 1133.52 936.74 L 1127.37 925.50 L 1116.41 921.68 L 1109.90 915.73 L 1095.81 913.47 L 1088.36 910.21 L 1082.14 902.46 L 1076.13 898.23 L 1067.65 897.60 L 1059.03 901.30 L 1050.41 909.45 L 1037.54 926.49 L 1033.57 934.45 L 1032.81 938.11 L 1029.25 941.55 L 1022.31 941.27 L 1016.18 943.70 L 1011.31 947.73" pathLength="1" fill="none" vector-effect="non-scaling-stroke"/>
  <circle class="trace-start" cx="700.01" cy="-91.89" r="4.62"/>
  <circle class="trace-summit-halo" cx="1013.91" cy="945.37" r="11.79"/>
  <circle class="trace-summit" cx="1013.91" cy="945.37" r="6.67"/>
</svg>
