<svg xmlns="http://www.w3.org/2000/svg" viewBox="-105.6105444 -37.9913396 0.0107708 0.0135665" preserveAspectRatio="xMidYMid meet">
  <path d="M -105.6064019 -37.9898689 L -105.6064930 -37.9898829 L -105.6065947 -37.9899302 L -105.6068811 -37.9901479 L -105.6069515 -37.9902091 L -105.6069932 -37.9902082 L -105.6069630 -37.9901320 L -105.6068913 -37.9899910 L -105.6068649 -37.9898716 L -105.6068801 -37.9897952 L -105.6069408 -37.9897269 L -105.6069691 -37.9896467 L -105.6069627 -37.9895180 L -105.6069670 -37.9890563 L -105.6069815 -37.9889131 L -105.6070068 -37.9887641 L -105.6070337 -37.9887053 L -105.6070816 -37.9886660 L -105.6071008 -37.9886098 L -105.6070473 -37.9885100 L -105.6070230 -37.9884134 L -105.6070415 -37.9883770 L -105.6071039 -37.9883505 L -105.6071239 -37.9883186 L -105.6071091 -37.9882585 L -105.6071153 -37.9882093 L -105.6071913 -37.9882067 L -105.6072308 -37.9881840 L -105.6072281 -37.9881219 L -105.6072367 -37.9880752 L -105.6073117 -37.9880865 L -105.6073664 -37.9881138 L -105.6073669 -37.9880663 L -105.6073778 -37.9880218 L -105.6074326 -37.9880481 L -105.6074830 -37.9880867 L -105.6075334 -37.9880853 L -105.6075704 -37.9880530 L -105.6075867 -37.9879893 L -105.6076670 -37.9879216 L -105.6077254 -37.9878423 L -105.6077712 -37.9877275 L -105.6078411 -37.9876385 L -105.6078987 -37.9875366 L -105.6080221 -37.9874431 L -105.6081242 -37.9873494 L -105.6082787 -37.9872958 L -105.6083455 -37.9872501 L -105.6084203 -37.9871226 L -105.6085372 -37.9869963 L -105.6087415 -37.9869353 L -105.6088629 -37.9868623 L -105.6089998 -37.9867457 L -105.6090504 -37.9865611 L -105.6090499 -37.9864247 L -105.6090545 -37.9862892 L -105.6090793 -37.9861299 L -105.6090350 -37.9859773 L -105.6089207 -37.9857220 L -105.6088929 -37.9855187 L -105.6089863 -37.9853741 L -105.6091429 -37.9852237 L -105.6094633 -37.9850104 L -105.6095143 -37.9849091 L -105.6095469 -37.9847901 L -105.6095070 -37.9846231 L -105.6094806 -37.9843807 L -105.6094879 -37.9841355 L -105.6095426 -37.9839629 L -105.6095651 -37.9838575 L -105.6096070 -37.9837252 L -105.6096468 -37.9835688 L -105.6096351 -37.9834399 L -105.6095959 -37.9833331 L -105.6094946 -37.9832471 L -105.6094067 -37.9832016 L -105.6092961 -37.9832159 L -105.6091603 -37.9832080 L -105.6090219 -37.9831199 L -105.6087891 -37.9829217 L -105.6086057 -37.9827760 L -105.6084285 -37.9826191 L -105.6082631 -37.9824850 L -105.6080707 -37.9823396 L -105.6079375 -37.9821160 L -105.6078202 -37.9819348 L -105.6077721 -37.9818295 L -105.6076058 -37.9817378 L -105.6074430 -37.9815508 L -105.6072932 -37.9813175 L -105.6071750 -37.9810945 L -105.6070427 -37.9808740 L -105.6067805 -37.9806230 L -105.6066009 -37.9804115 L -105.6065591 -37.9803391 L -105.6063094 -37.9802901 L -105.6061533 -37.9801840 L -105.6060091 -37.9800487 L -105.6057655 -37.9799326 L -105.6054627 -37.9798645 L -105.6051863 -37.9798711 L -105.6048695 -37.9799005 L -105.6046459 -37.9799088 L -105.6044670 -37.9798988 L -105.6042856 -37.9799224 L -105.6041540 -37.9799705 L -105.6039565 -37.9799632 L -105.6037952 -37.9799728 L -105.6037593 -37.9799072 L -105.6037313 -37.9798208 L -105.6036477 -37.9797205 L -105.6035819 -37.9796068 L -105.6035192 -37.9794751 L -105.6034741 -37.9793151 L -105.6034541 -37.9791817 L -105.6034665 -37.9790594 L -105.6034188 -37.9789929 L -105.6032721 -37.9790270 L -105.6029901 -37.9790708 L -105.6027383 -37.9790656 L -105.6024665 -37.9790511 L -105.6022167 -37.9789943 L -105.6019929 -37.9789265 L -105.6018180 -37.9789037 L -105.6015385 -37.9789317 L -105.6012266 -37.9789514 L -105.6008603 -37.9789132 L -105.6007565 -37.9789458 L -105.6006711 -37.9790700 L -105.6006896 -37.9791720 L -105.6007267 -37.9792871 L -105.6008041 -37.9794308 L -105.6010131 -37.9797846 L -105.6010896 -37.9798948 L -105.6012258 -37.9799322 L -105.6013068 -37.9799906 L -105.6014819 -37.9800127 L -105.6015745 -37.9800447 L -105.6016518 -37.9801207 L -105.6017266 -37.9801621 L -105.6018319 -37.9801683 L -105.6019391 -37.9801320 L -105.6020463 -37.9800521 L -105.6022062 -37.9798851 L -105.6022556 -37.9798070 L -105.6022650 -37.9797712 L -105.6023093 -37.9797374 L -105.6023955 -37.9797402 L -105.6024717 -37.9797164 L -105.6025323 -37.9796769" pathLength="1" fill="none" stroke="currentColor" vector-effect="non-scaling-stroke"/>
</svg>
