<svg xmlns="http://www.w3.org/2000/svg" viewBox="0 0 2000 2500" preserveAspectRatio="none">
  <path class="trace-underlay" d="M 669.61 1882.02 L 682.80 1878.11 L 696.56 1874.94 L 699.19 1873.43 L 707.24 1866.33 L 711.01 1861.92 L 720.83 1863.59 L 724.57 1863.30 L 728.47 1862.20 L 739.89 1855.45 L 755.50 1843.78 L 762.73 1839.99 L 773.28 1832.30 L 777.80 1829.82 L 780.35 1829.13 L 783.84 1829.41 L 787.08 1830.80 L 795.63 1837.71 L 810.70 1844.30 L 815.26 1844.74 L 821.69 1846.93 L 836.48 1846.15 L 840.82 1842.51 L 845.67 1844.55 L 850.18 1840.99 L 864.26 1847.75 L 866.69 1845.94 L 872.34 1846.29 L 871.75 1839.87 L 880.89 1844.10 L 883.95 1842.43 L 889.03 1842.76 L 893.39 1841.78 L 902.26 1843.21 L 918.69 1843.32 L 932.95 1842.77 L 941.20 1847.05 L 941.84 1859.73 L 941.28 1874.29 L 933.94 1889.79 L 935.21 1902.32 L 942.98 1908.25 L 951.97 1896.02 L 958.92 1902.19 L 957.74 1898.73 L 961.75 1894.26 L 963.72 1898.83 L 973.90 1904.97 L 1023.35 1915.70 L 1022.21 1909.20 L 1032.53 1910.25 L 1021.71 1892.62 L 1048.21 1898.64 L 1041.07 1887.60 L 1097.84 1903.38 L 1095.38 1898.13 L 1122.16 1905.71 L 1123.61 1902.86 L 1164.94 1903.80 L 1143.74 1889.95 L 1181.34 1883.62 L 1161.36 1873.42 L 1177.92 1869.79 L 1155.69 1854.94 L 1190.27 1857.79 L 1179.54 1850.64 L 1196.07 1849.19 L 1191.46 1843.63 L 1187.25 1839.67 L 1182.85 1828.97 L 1194.45 1827.42 L 1197.57 1826.00 L 1199.95 1822.74 L 1201.43 1816.68 L 1205.37 1808.67 L 1213.42 1799.84 L 1218.47 1793.08 L 1232.52 1787.92 L 1249.32 1778.36 L 1256.92 1775.67 L 1259.22 1774.00 L 1270.10 1762.25 L 1273.47 1757.32 L 1274.99 1753.46 L 1277.33 1751.02 L 1282.59 1748.09 L 1289.41 1743.12 L 1291.63 1740.07 L 1292.20 1735.76 L 1290.89 1730.84 L 1287.68 1724.45 L 1284.89 1711.68 L 1275.70 1684.45 L 1277.14 1677.34 L 1270.03 1668.06 L 1266.52 1659.77 L 1266.60 1651.82 L 1266.86 1645.59 L 1268.79 1642.52 L 1271.13 1627.75 L 1271.17 1609.48 L 1273.87 1591.27 L 1271.46 1583.65 L 1274.37 1557.32 L 1274.66 1547.93 L 1273.84 1541.09 L 1274.46 1536.05 L 1278.85 1525.55 L 1279.34 1520.42 L 1276.39 1501.87 L 1276.47 1490.52 L 1279.67 1472.01 L 1281.97 1452.97 L 1283.82 1449.64 L 1291.01 1442.07 L 1300.74 1422.50 L 1303.13 1407.85 L 1308.18 1389.99 L 1306.70 1378.48 L 1304.28 1371.48 L 1306.45 1360.70 L 1304.60 1350.00 L 1301.28 1339.79 L 1284.01 1320.21 L 1271.74 1315.33 L 1251.70 1310.74 L 1232.32 1304.03 L 1216.46 1294.96 L 1202.41 1282.79 L 1189.97 1266.56 L 1187.51 1262.29 L 1184.18 1250.61 L 1183.92 1243.28 L 1181.04 1238.02 L 1183.63 1233.73 L 1192.61 1229.73 L 1201.47 1224.21 L 1208.22 1220.70 L 1217.76 1209.76 L 1226.13 1199.03 L 1236.72 1188.48 L 1240.61 1182.39 L 1243.78 1179.30 L 1254.78 1155.78 L 1256.92 1152.97 L 1262.05 1148.30 L 1263.78 1145.45 L 1265.50 1136.50 L 1270.82 1127.27 L 1275.00 1121.86 L 1277.34 1114.53 L 1275.83 1106.42 L 1276.50 1096.90 L 1274.49 1085.83 L 1274.66 1076.82 L 1263.31 1065.24 L 1246.28 1051.85 L 1220.98 1045.94 L 1214.00 1038.61 L 1185.82 1018.64 L 1163.51 1004.04 L 1153.19 994.52 L 1134.07 963.88 L 1128.93 952.34 L 1131.07 943.68 L 1127.38 930.02 L 1128.62 912.63 L 1125.24 902.93 L 1124.50 891.01 L 1122.86 886.09 L 1111.59 870.46 L 1110.45 865.58 L 1110.57 859.64 L 1111.59 854.37 L 1111.84 845.88 L 1113.36 844.42 L 1120.19 840.52 L 1124.62 835.94 L 1128.92 825.01 L 1144.36 815.26 L 1155.59 810.62 L 1165.94 796.63 L 1168.57 791.26 L 1168.28 788.49 L 1167.26 787.03 L 1164.34 785.65 L 1139.54 785.33 L 1128.10 785.89 L 1116.47 788.73 L 1098.61 789.11 L 1071.60 787.97 L 1030.20 784.71 L 1022.98 780.75 L 1017.63 765.83 L 1009.21 761.19 L 993.56 755.21 L 975.48 750.98 L 956.96 744.64 L 952.03 743.66 L 945.46 743.25 L 938.15 741.79 L 932.97 740.00 L 920.45 732.96 L 907.63 724.29 L 898.43 719.90 L 892.68 718.31 L 882.41 717.66 L 859.82 714.49 L 854.03 713.03 L 832.71 705.34 L 820.89 702.81 L 798.58 700.41 L 793.12 700.29 L 778.25 697.61 L 770.78 697.40 L 767.24 696.67 L 762.03 694.19 L 756.24 689.55 L 745.31 672.34 L 739.35 666.00 L 737.59 658.92 L 735.41 654.56 L 719.68 636.50 L 711.51 630.60 L 705.51 623.64 L 700.83 619.74 L 690.27 614.94 L 686.82 610.83 L 680.72 606.77 L 671.87 601.76 L 663.11 598.41 L 654.51 594.29 L 643.32 590.63 L 636.14 589.47 L 629.11 589.63 L 588.63 571.77 L 573.95 568.23 L 563.52 562.13 L 553.09 553.83 L 546.11 550.29 L 537.69 548.30 L 524.17 543.30 L 516.66 541.79 L 511.15 542.89 L 504.72 542.95 L 496.12 541.92 L 489.03 539.28 L 484.18 538.32 L 478.93 536.26 L 471.75 532.33 L 469.91 529.18 L 458.72 527.00 L 453.21 527.77 L 432.22 528.89 L 423.15 532.33 L 416.31 531.56 L 392.66 534.67 L 388.51 534.71 L 374.17 533.00 L 355.85 535.61 L 348.30 535.77" pathLength="1" fill="none" vector-effect="non-scaling-stroke"/>
  <path class="trace-line" d="M 669.61 1882.02 L 682.80 1878.11 L 696.56 1874.94 L 699.19 1873.43 L 707.24 1866.33 L 711.01 1861.92 L 720.83 1863.59 L 724.57 1863.30 L 728.47 1862.20 L 739.89 1855.45 L 755.50 1843.78 L 762.73 1839.99 L 773.28 1832.30 L 777.80 1829.82 L 780.35 1829.13 L 783.84 1829.41 L 787.08 1830.80 L 795.63 1837.71 L 810.70 1844.30 L 815.26 1844.74 L 821.69 1846.93 L 836.48 1846.15 L 840.82 1842.51 L 845.67 1844.55 L 850.18 1840.99 L 864.26 1847.75 L 866.69 1845.94 L 872.34 1846.29 L 871.75 1839.87 L 880.89 1844.10 L 883.95 1842.43 L 889.03 1842.76 L 893.39 1841.78 L 902.26 1843.21 L 918.69 1843.32 L 932.95 1842.77 L 941.20 1847.05 L 941.84 1859.73 L 941.28 1874.29 L 933.94 1889.79 L 935.21 1902.32 L 942.98 1908.25 L 951.97 1896.02 L 958.92 1902.19 L 957.74 1898.73 L 961.75 1894.26 L 963.72 1898.83 L 973.90 1904.97 L 1023.35 1915.70 L 1022.21 1909.20 L 1032.53 1910.25 L 1021.71 1892.62 L 1048.21 1898.64 L 1041.07 1887.60 L 1097.84 1903.38 L 1095.38 1898.13 L 1122.16 1905.71 L 1123.61 1902.86 L 1164.94 1903.80 L 1143.74 1889.95 L 1181.34 1883.62 L 1161.36 1873.42 L 1177.92 1869.79 L 1155.69 1854.94 L 1190.27 1857.79 L 1179.54 1850.64 L 1196.07 1849.19 L 1191.46 1843.63 L 1187.25 1839.67 L 1182.85 1828.97 L 1194.45 1827.42 L 1197.57 1826.00 L 1199.95 1822.74 L 1201.43 1816.68 L 1205.37 1808.67 L 1213.42 1799.84 L 1218.47 1793.08 L 1232.52 1787.92 L 1249.32 1778.36 L 1256.92 1775.67 L 1259.22 1774.00 L 1270.10 1762.25 L 1273.47 1757.32 L 1274.99 1753.46 L 1277.33 1751.02 L 1282.59 1748.09 L 1289.41 1743.12 L 1291.63 1740.07 L 1292.20 1735.76 L 1290.89 1730.84 L 1287.68 1724.45 L 1284.89 1711.68 L 1275.70 1684.45 L 1277.14 1677.34 L 1270.03 1668.06 L 1266.52 1659.77 L 1266.60 1651.82 L 1266.86 1645.59 L 1268.79 1642.52 L 1271.13 1627.75 L 1271.17 1609.48 L 1273.87 1591.27 L 1271.46 1583.65 L 1274.37 1557.32 L 1274.66 1547.93 L 1273.84 1541.09 L 1274.46 1536.05 L 1278.85 1525.55 L 1279.34 1520.42 L 1276.39 1501.87 L 1276.47 1490.52 L 1279.67 1472.01 L 1281.97 1452.97 L 1283.82 1449.64 L 1291.01 1442.07 L 1300.74 1422.50 L 1303.13 1407.85 L 1308.18 1389.99 L 1306.70 1378.48 L 1304.28 1371.48 L 1306.45 1360.70 L 1304.60 1350.00 L 1301.28 1339.79 L 1284.01 1320.21 L 1271.74 1315.33 L 1251.70 1310.74 L 1232.32 1304.03 L 1216.46 1294.96 L 1202.41 1282.79 L 1189.97 1266.56 L 1187.51 1262.29 L 1184.18 1250.61 L 1183.92 1243.28 L 1181.04 1238.02 L 1183.63 1233.73 L 1192.61 1229.73 L 1201.47 1224.21 L 1208.22 1220.70 L 1217.76 1209.76 L 1226.13 1199.03 L 1236.72 1188.48 L 1240.61 1182.39 L 1243.78 1179.30 L 1254.78 1155.78 L 1256.92 1152.97 L 1262.05 1148.30 L 1263.78 1145.45 L 1265.50 1136.50 L 1270.82 1127.27 L 1275.00 1121.86 L 1277.34 1114.53 L 1275.83 1106.42 L 1276.50 1096.90 L 1274.49 1085.83 L 1274.66 1076.82 L 1263.31 1065.24 L 1246.28 1051.85 L 1220.98 1045.94 L 1214.00 1038.61 L 1185.82 1018.64 L 1163.51 1004.04 L 1153.19 994.52 L 1134.07 963.88 L 1128.93 952.34 L 1131.07 943.68 L 1127.38 930.02 L 1128.62 912.63 L 1125.24 902.93 L 1124.50 891.01 L 1122.86 886.09 L 1111.59 870.46 L 1110.45 865.58 L 1110.57 859.64 L 1111.59 854.37 L 1111.84 845.88 L 1113.36 844.42 L 1120.19 840.52 L 1124.62 835.94 L 1128.92 825.01 L 1144.36 815.26 L 1155.59 810.62 L 1165.94 796.63 L 1168.57 791.26 L 1168.28 788.49 L 1167.26 787.03 L 1164.34 785.65 L 1139.54 785.33 L 1128.10 785.89 L 1116.47 788.73 L 1098.61 789.11 L 1071.60 787.97 L 1030.20 784.71 L 1022.98 780.75 L 1017.63 765.83 L 1009.21 761.19 L 993.56 755.21 L 975.48 750.98 L 956.96 744.64 L 952.03 743.66 L 945.46 743.25 L 938.15 741.79 L 932.97 740.00 L 920.45 732.96 L 907.63 724.29 L 898.43 719.90 L 892.68 718.31 L 882.41 717.66 L 859.82 714.49 L 854.03 713.03 L 832.71 705.34 L 820.89 702.81 L 798.58 700.41 L 793.12 700.29 L 778.25 697.61 L 770.78 697.40 L 767.24 696.67 L 762.03 694.19 L 756.24 689.55 L 745.31 672.34 L 739.35 666.00 L 737.59 658.92 L 735.41 654.56 L 719.68 636.50 L 711.51 630.60 L 705.51 623.64 L 700.83 619.74 L 690.27 614.94 L 686.82 610.83 L 680.72 606.77 L 671.87 601.76 L 663.11 598.41 L 654.51 594.29 L 643.32 590.63 L 636.14 589.47 L 629.11 589.63 L 588.63 571.77 L 573.95 568.23 L 563.52 562.13 L 553.09 553.83 L 546.11 550.29 L 537.69 548.30 L 524.17 543.30 L 516.66 541.79 L 511.15 542.89 L 504.72 542.95 L 496.12 541.92 L 489.03 539.28 L 484.18 538.32 L 478.93 536.26 L 471.75 532.33 L 469.91 529.18 L 458.72 527.00 L 453.21 527.77 L 432.22 528.89 L 423.15 532.33 L 416.31 531.56 L 392.66 534.67 L 388.51 534.71 L 374.17 533.00 L 355.85 535.61 L 348.30 535.77" pathLength="1" fill="none" vector-effect="non-scaling-stroke"/>
</svg>
