<svg xmlns="http://www.w3.org/2000/svg" viewBox="0 0 1600 900" preserveAspectRatio="xMidYMid slice">
  <path class="trace-line" d="M 698.46 998.62 L 706.91 995.38 L 715.72 992.75 L 717.40 991.50 L 722.55 985.59 L 724.97 981.94 L 731.26 983.32 L 733.65 983.08 L 736.15 982.17 L 743.46 976.56 L 753.45 966.87 L 758.08 963.73 L 764.84 957.34 L 767.73 955.28 L 769.36 954.71 L 771.60 954.94 L 773.68 956.09 L 779.15 961.83 L 788.80 967.31 L 791.72 967.67 L 795.84 969.49 L 805.30 968.84 L 808.08 965.82 L 811.19 967.51 L 814.08 964.55 L 823.09 970.17 L 824.65 968.66 L 828.26 968.96 L 827.89 963.63 L 833.74 967.14 L 835.70 965.75 L 838.95 966.02 L 841.74 965.21 L 847.42 966.40 L 857.94 966.49 L 867.07 966.04 L 872.35 969.59 L 872.76 980.11 L 872.40 992.21 L 867.70 1005.08 L 868.52 1015.48 L 873.49 1020.41 L 879.25 1010.25 L 883.70 1015.37 L 882.94 1012.50 L 885.51 1008.79 L 886.77 1012.59 L 893.29 1017.69 L 924.95 1026.59 L 924.22 1021.20 L 930.83 1022.07 L 923.90 1007.43 L 940.86 1012.43 L 936.29 1003.26 L 972.65 1016.36 L 971.07 1012.01 L 988.22 1018.30 L 989.14 1015.93 L 1015.61 1016.71 L 1002.03 1005.21 L 1026.11 999.95 L 1013.31 991.48 L 1023.92 988.47 L 1009.68 976.14 L 1031.83 978.51 L 1024.95 972.57 L 1035.54 971.36 L 1032.59 966.75 L 1029.89 963.46 L 1027.07 954.58 L 1034.50 953.29 L 1036.50 952.10 L 1038.02 949.40 L 1038.97 944.37 L 1041.49 937.71 L 1046.65 930.38 L 1049.88 924.77 L 1058.88 920.48 L 1069.63 912.54 L 1074.50 910.31 L 1075.97 908.93 L 1082.94 899.17 L 1085.09 895.08 L 1086.07 891.87 L 1087.57 889.84 L 1090.93 887.41 L 1095.30 883.29 L 1096.72 880.75 L 1097.09 877.17 L 1096.25 873.09 L 1094.19 867.78 L 1092.41 857.17 L 1086.52 834.56 L 1087.44 828.66 L 1082.89 820.96 L 1080.65 814.07 L 1080.69 807.47 L 1080.86 802.29 L 1082.10 799.74 L 1083.60 787.48 L 1083.62 772.31 L 1085.35 757.18 L 1083.81 750.86 L 1085.67 729.00 L 1085.86 721.19 L 1085.33 715.52 L 1085.73 711.33 L 1088.54 702.61 L 1088.86 698.36 L 1086.96 682.95 L 1087.01 673.52 L 1089.07 658.15 L 1090.54 642.34 L 1091.72 639.57 L 1096.32 633.29 L 1102.56 617.04 L 1104.08 604.88 L 1107.32 590.05 L 1106.37 580.48 L 1104.82 574.67 L 1106.21 565.72 L 1105.03 556.84 L 1102.90 548.36 L 1091.84 532.09 L 1083.99 528.04 L 1071.16 524.23 L 1058.74 518.66 L 1048.59 511.13 L 1039.60 501.03 L 1031.63 487.55 L 1030.05 484.00 L 1027.92 474.30 L 1027.76 468.21 L 1025.92 463.85 L 1027.57 460.29 L 1033.32 456.96 L 1038.99 452.38 L 1043.32 449.46 L 1049.42 440.38 L 1054.78 431.46 L 1061.57 422.71 L 1064.06 417.65 L 1066.08 415.08 L 1073.13 395.55 L 1074.50 393.22 L 1077.78 389.34 L 1078.89 386.97 L 1079.99 379.54 L 1083.40 371.88 L 1086.07 367.39 L 1087.57 361.30 L 1086.61 354.56 L 1087.03 346.65 L 1085.75 337.46 L 1085.86 329.98 L 1078.59 320.36 L 1067.68 309.25 L 1051.49 304.34 L 1047.02 298.26 L 1028.98 281.67 L 1014.69 269.55 L 1008.08 261.64 L 995.84 236.20 L 992.55 226.61 L 993.92 219.42 L 991.56 208.08 L 992.35 193.64 L 990.19 185.59 L 989.71 175.69 L 988.66 171.60 L 981.44 158.62 L 980.72 154.57 L 981.61 138.21 L 982.58 137.00 L 986.95 133.76 L 989.79 129.95 L 992.55 120.88 L 1002.43 112.78 L 1009.62 108.93 L 1016.25 97.31 L 1017.93 92.85 L 1017.75 90.55 L 1017.09 89.34 L 1015.22 88.19 L 999.34 87.93 L 992.02 88.39 L 984.57 90.75 L 973.14 91.06 L 955.84 90.12 L 929.34 87.41 L 924.71 84.12 L 921.29 71.74 L 915.89 67.88 L 905.88 62.92 L 894.30 59.41 L 882.44 54.13 L 879.29 53.32 L 875.08 52.99 L 870.40 51.77 L 867.09 50.28 L 859.07 44.44 L 850.86 37.24 L 844.97 33.59 L 841.29 32.28 L 834.71 31.74 L 820.25 29.10 L 816.54 27.88 L 802.89 21.50 L 795.32 19.40 L 781.04 17.41 L 777.54 17.31 L 768.02 15.08 L 763.24 14.91 L 760.97 14.30 L 757.63 12.24 L 753.93 8.39 L 746.93 -5.90 L 743.12 -11.17 L 741.99 -17.05 L 740.59 -20.66 L 730.52 -35.66 L 725.29 -40.56 L 721.45 -46.34 L 718.45 -49.58 L 711.69 -53.57 L 709.48 -56.98 L 705.58 -60.35 L 699.91 -64.51 L 694.30 -67.29 L 688.79 -70.71 L 681.63 -73.76 L 677.03 -74.72 L 672.53 -74.58 L 646.61 -89.41 L 637.22 -92.35 L 630.54 -97.42 L 623.86 -104.31 L 619.39 -107.25 L 614.00 -108.91 L 605.34 -113.06 L 600.54 -114.31 L 597.01 -113.40 L 592.89 -113.35 L 587.38 -114.20 L 582.84 -116.39 L 579.74 -117.19 L 576.37 -118.90 L 571.78 -122.16 L 570.60 -124.78 L 563.44 -126.59 L 559.91 -125.96 L 546.47 -125.02 L 540.66 -122.16 L 536.28 -122.80 L 521.14 -120.22 L 518.48 -120.19 L 509.30 -121.61 L 497.57 -119.45 L 492.74 -119.31" pathLength="1" fill="none" vector-effect="non-scaling-stroke"/>
  <circle class="trace-start" cx="698.46" cy="998.62" r="4.62"/>
  <circle class="trace-summit-halo" cx="492.68" cy="-118.47" r="11.79"/>
  <circle class="trace-summit" cx="492.68" cy="-118.47" r="6.67"/>
</svg>
