<svg xmlns="http://www.w3.org/2000/svg" viewBox="0 0 2000 2500" preserveAspectRatio="xMidYMid slice">
  <path class="trace-line" d="M 862.50 1993.35 L 873.93 1988.96 L 885.86 1985.39 L 888.14 1983.69 L 895.12 1975.70 L 898.40 1970.74 L 906.91 1972.62 L 910.15 1972.30 L 913.53 1971.06 L 923.43 1963.46 L 936.97 1950.33 L 943.23 1946.07 L 952.39 1937.42 L 956.30 1934.62 L 958.51 1933.85 L 961.54 1934.17 L 964.35 1935.72 L 971.76 1943.50 L 984.83 1950.92 L 988.79 1951.41 L 994.36 1953.88 L 1007.18 1952.99 L 1010.94 1948.90 L 1015.15 1951.19 L 1019.06 1947.19 L 1031.27 1954.80 L 1033.38 1952.76 L 1038.27 1953.15 L 1037.77 1945.93 L 1045.69 1950.69 L 1048.34 1948.81 L 1052.74 1949.18 L 1056.53 1948.08 L 1064.22 1949.69 L 1078.46 1949.82 L 1090.82 1949.20 L 1097.98 1954.01 L 1098.53 1968.27 L 1098.04 1984.66 L 1091.68 2002.10 L 1092.79 2016.19 L 1099.52 2022.87 L 1107.31 2009.11 L 1113.35 2016.05 L 1112.32 2012.15 L 1115.79 2007.13 L 1117.50 2012.27 L 1126.33 2019.18 L 1169.20 2031.25 L 1168.22 2023.94 L 1177.16 2025.12 L 1167.78 2005.28 L 1190.75 2012.05 L 1184.56 1999.63 L 1233.79 2017.38 L 1231.66 2011.48 L 1254.88 2020.01 L 1256.13 2016.80 L 1291.97 2017.86 L 1273.58 2002.27 L 1306.19 1995.15 L 1288.86 1983.68 L 1303.22 1979.60 L 1283.94 1962.89 L 1313.93 1966.10 L 1304.63 1958.05 L 1318.96 1956.41 L 1314.96 1950.16 L 1311.31 1945.71 L 1307.49 1933.67 L 1317.55 1931.92 L 1320.26 1930.32 L 1322.32 1926.66 L 1323.60 1919.84 L 1327.02 1910.82 L 1334.00 1900.89 L 1338.38 1893.29 L 1350.56 1887.48 L 1365.13 1876.72 L 1371.71 1873.70 L 1373.71 1871.82 L 1383.15 1858.59 L 1386.07 1853.05 L 1387.38 1848.70 L 1389.41 1845.96 L 1393.97 1842.66 L 1399.88 1837.08 L 1401.81 1833.64 L 1402.30 1828.79 L 1401.17 1823.25 L 1398.39 1816.07 L 1395.97 1801.69 L 1388.00 1771.06 L 1389.25 1763.06 L 1383.09 1752.62 L 1380.04 1743.29 L 1380.10 1734.35 L 1380.33 1727.33 L 1382.01 1723.88 L 1384.04 1707.26 L 1384.07 1686.71 L 1386.42 1666.21 L 1384.32 1657.64 L 1386.85 1628.02 L 1387.10 1617.45 L 1386.39 1609.76 L 1386.92 1604.08 L 1390.73 1592.27 L 1391.16 1586.51 L 1388.59 1565.63 L 1388.67 1552.86 L 1391.44 1532.03 L 1393.44 1510.61 L 1395.04 1506.86 L 1401.27 1498.34 L 1409.71 1476.33 L 1411.78 1459.85 L 1416.16 1439.75 L 1414.88 1426.80 L 1412.78 1418.92 L 1414.66 1406.79 L 1413.06 1394.76 L 1410.18 1383.27 L 1395.20 1361.23 L 1384.56 1355.74 L 1367.19 1350.58 L 1350.38 1343.03 L 1336.64 1332.82 L 1324.46 1319.14 L 1313.67 1300.87 L 1311.53 1296.07 L 1308.65 1282.93 L 1308.43 1274.68 L 1305.93 1268.76 L 1308.17 1263.94 L 1315.95 1259.43 L 1323.64 1253.22 L 1329.49 1249.27 L 1337.76 1236.96 L 1345.02 1224.89 L 1354.20 1213.02 L 1357.58 1206.16 L 1360.32 1202.68 L 1369.86 1176.23 L 1371.71 1173.07 L 1376.17 1167.80 L 1377.66 1164.60 L 1379.16 1154.53 L 1383.77 1144.15 L 1387.39 1138.06 L 1389.42 1129.81 L 1388.11 1120.69 L 1388.69 1109.97 L 1386.95 1097.52 L 1387.10 1087.38 L 1377.26 1074.35 L 1362.49 1059.29 L 1340.55 1052.64 L 1334.50 1044.40 L 1310.07 1021.92 L 1290.73 1005.50 L 1281.78 994.78 L 1265.20 960.31 L 1260.75 947.33 L 1262.60 937.58 L 1259.40 922.21 L 1260.48 902.65 L 1257.54 891.74 L 1256.90 878.32 L 1255.48 872.79 L 1245.71 855.20 L 1244.72 849.71 L 1245.93 827.55 L 1247.24 825.90 L 1253.17 821.51 L 1257.01 816.35 L 1260.74 804.06 L 1274.12 793.09 L 1283.86 787.87 L 1292.83 772.13 L 1295.11 766.08 L 1294.86 762.97 L 1293.97 761.32 L 1291.45 759.77 L 1269.94 759.41 L 1260.03 760.04 L 1249.94 763.24 L 1234.46 763.66 L 1211.03 762.39 L 1175.15 758.72 L 1168.88 754.26 L 1164.24 737.48 L 1156.94 732.26 L 1143.37 725.53 L 1127.70 720.77 L 1111.64 713.63 L 1107.37 712.53 L 1101.67 712.07 L 1095.33 710.42 L 1090.85 708.41 L 1079.98 700.49 L 1068.87 690.74 L 1060.90 685.80 L 1055.91 684.01 L 1047.01 683.28 L 1027.42 679.71 L 1022.40 678.06 L 1003.92 669.41 L 993.66 666.57 L 974.32 663.87 L 969.59 663.73 L 956.70 660.71 L 950.21 660.48 L 947.15 659.66 L 942.63 656.87 L 937.61 651.65 L 928.14 632.28 L 922.97 625.14 L 921.44 617.18 L 919.55 612.28 L 905.91 591.96 L 898.83 585.32 L 893.63 577.49 L 889.57 573.10 L 880.42 567.70 L 877.42 563.07 L 872.14 558.51 L 864.46 552.87 L 856.86 549.10 L 849.41 544.47 L 839.70 540.34 L 833.48 539.04 L 827.39 539.23 L 792.29 519.13 L 779.56 515.15 L 770.52 508.28 L 761.47 498.94 L 755.42 494.96 L 748.12 492.72 L 736.40 487.09 L 729.89 485.40 L 725.11 486.63 L 719.54 486.70 L 712.08 485.54 L 705.93 482.57 L 701.73 481.49 L 697.17 479.17 L 690.95 474.76 L 689.35 471.21 L 679.65 468.75 L 674.88 469.62 L 656.68 470.88 L 648.82 474.76 L 642.88 473.89 L 622.37 477.38 L 618.78 477.43 L 606.35 475.51 L 590.47 478.44 L 583.91 478.62" pathLength="1" fill="none" vector-effect="non-scaling-stroke"/>
  <circle class="trace-start" cx="862.50" cy="1993.35" r="6.25"/>
  <circle class="trace-summit-halo" cx="583.84" cy="479.76" r="15.97"/>
  <circle class="trace-summit" cx="583.84" cy="479.76" r="9.03"/>
</svg>
