<svg xmlns="http://www.w3.org/2000/svg" viewBox="-106.3231372 -38.9280540 0.0280464 0.0409614" preserveAspectRatio="xMidYMid meet">
  <path class="trace-line" d="M -106.3129750 -38.8913340 L -106.3126540 -38.8914300 L -106.3123190 -38.8915080 L -106.3122550 -38.8915450 L -106.3120590 -38.8917197 L -106.3119670 -38.8918280 L -106.3117280 -38.8917870 L -106.3116370 -38.8917940 L -106.3115420 -38.8918210 L -106.3112640 -38.8919870 L -106.3108840 -38.8922740 L -106.3107080 -38.8923670 L -106.3104510 -38.8925560 L -106.3103410 -38.8926170 L -106.3102790 -38.8926340 L -106.3101940 -38.8926270 L -106.3101150 -38.8925930 L -106.3099070 -38.8924230 L -106.3095400 -38.8922610 L -106.3094289 -38.8922503 L -106.3092723 -38.8921964 L -106.3089124 -38.8922157 L -106.3088067 -38.8923051 L -106.3086886 -38.8922550 L -106.3085787 -38.8923425 L -106.3082360 -38.8921762 L -106.3081767 -38.8922209 L -106.3080393 -38.8922122 L -106.3080535 -38.8923699 L -106.3078311 -38.8922660 L -106.3077565 -38.8923071 L -106.3076330 -38.8922990 L -106.3075267 -38.8923231 L -106.3073108 -38.8922879 L -106.3069108 -38.8922851 L -106.3065636 -38.8922986 L -106.3063628 -38.8921934 L -106.3063471 -38.8918819 L -106.3063609 -38.8915240 L -106.3065396 -38.8911430 L -106.3065085 -38.8908350 L -106.3063194 -38.8906892 L -106.3061006 -38.8909898 L -106.3059312 -38.8908382 L -106.3059600 -38.8909233 L -106.3058625 -38.8910331 L -106.3058144 -38.8909207 L -106.3055667 -38.8907697 L -106.3043627 -38.8905061 L -106.3043904 -38.8906659 L -106.3041392 -38.8906401 L -106.3044026 -38.8910735 L -106.3037575 -38.8909255 L -106.3039313 -38.8911968 L -106.3025490 -38.8908090 L -106.3026089 -38.8909379 L -106.3019569 -38.8907517 L -106.3019216 -38.8908217 L -106.3009154 -38.8907987 L -106.3014316 -38.8911391 L -106.3005160 -38.8912947 L -106.3010026 -38.8915454 L -106.3005993 -38.8916345 L -106.3011407 -38.8919996 L -106.3002986 -38.8919294 L -106.3005599 -38.8921052 L -106.3001574 -38.8921410 L -106.3002697 -38.8922775 L -106.3003723 -38.8923748 L -106.3004794 -38.8926378 L -106.3001970 -38.8926760 L -106.3001210 -38.8927110 L -106.3000630 -38.8927910 L -106.3000270 -38.8929400 L -106.2999310 -38.8931370 L -106.2997350 -38.8933540 L -106.2996120 -38.8935200 L -106.2992700 -38.8936470 L -106.2988610 -38.8938820 L -106.2986760 -38.8939480 L -106.2986200 -38.8939890 L -106.2983550 -38.8942780 L -106.2982730 -38.8943990 L -106.2982360 -38.8944940 L -106.2981790 -38.8945540 L -106.2980510 -38.8946260 L -106.2978850 -38.8947480 L -106.2978310 -38.8948230 L -106.2978170 -38.8949290 L -106.2978490 -38.8950500 L -106.2979270 -38.8952070 L -106.2979950 -38.8955210 L -106.2982187 -38.8961902 L -106.2981837 -38.8963649 L -106.2983567 -38.8965930 L -106.2984422 -38.8967969 L -106.2984404 -38.8969922 L -106.2984340 -38.8971455 L -106.2983870 -38.8972210 L -106.2983300 -38.8975840 L -106.2983290 -38.8980330 L -106.2982632 -38.8984807 L -106.2983220 -38.8986680 L -106.2982510 -38.8993150 L -106.2982440 -38.8995460 L -106.2982640 -38.8997140 L -106.2982490 -38.8998380 L -106.2981420 -38.9000960 L -106.2981300 -38.9002220 L -106.2982020 -38.9006780 L -106.2982000 -38.9009570 L -106.2981220 -38.9014120 L -106.2980660 -38.9018800 L -106.2980210 -38.9019620 L -106.2978460 -38.9021480 L -106.2976090 -38.9026290 L -106.2975510 -38.9029890 L -106.2974280 -38.9034280 L -106.2974640 -38.9037110 L -106.2975230 -38.9038830 L -106.2974700 -38.9041480 L -106.2975150 -38.9044110 L -106.2975960 -38.9046620 L -106.2980164 -38.9051434 L -106.2983152 -38.9052633 L -106.2988030 -38.9053760 L -106.2992750 -38.9055410 L -106.2996610 -38.9057640 L -106.3000030 -38.9060630 L -106.3003060 -38.9064620 L -106.3003660 -38.9065670 L -106.3004470 -38.9068540 L -106.3004532 -38.9070343 L -106.3005233 -38.9071635 L -106.3004603 -38.9072689 L -106.3002418 -38.9073674 L -106.3000260 -38.9075030 L -106.2998616 -38.9075893 L -106.2996294 -38.9078582 L -106.2994257 -38.9081220 L -106.2991677 -38.9083812 L -106.2990730 -38.9085310 L -106.2989960 -38.9086070 L -106.2987280 -38.9091850 L -106.2986760 -38.9092540 L -106.2985510 -38.9093690 L -106.2985090 -38.9094390 L -106.2984670 -38.9096590 L -106.2983375 -38.9098858 L -106.2982359 -38.9100187 L -106.2981789 -38.9101990 L -106.2982155 -38.9103983 L -106.2981993 -38.9106324 L -106.2982481 -38.9109044 L -106.2982440 -38.9111259 L -106.2985204 -38.9114106 L -106.2989351 -38.9117396 L -106.2995510 -38.9118850 L -106.2997210 -38.9120650 L -106.3004070 -38.9125560 L -106.3009502 -38.9129148 L -106.3012015 -38.9131489 L -106.3016670 -38.9139020 L -106.3017920 -38.9141856 L -106.3017399 -38.9143985 L -106.3018298 -38.9147343 L -106.3017996 -38.9151616 L -106.3018820 -38.9154000 L -106.3019000 -38.9156930 L -106.3019400 -38.9158140 L -106.3022144 -38.9161982 L -106.3022421 -38.9163181 L -106.3022390 -38.9164643 L -106.3022144 -38.9165937 L -106.3022082 -38.9168023 L -106.3021712 -38.9168383 L -106.3020049 -38.9169341 L -106.3018970 -38.9170468 L -106.3017923 -38.9173153 L -106.3014164 -38.9175550 L -106.3011430 -38.9176690 L -106.3008910 -38.9180130 L -106.3008270 -38.9181450 L -106.3008340 -38.9182130 L -106.3008590 -38.9182490 L -106.3009300 -38.9182830 L -106.3015339 -38.9182908 L -106.3018123 -38.9182770 L -106.3020955 -38.9182071 L -106.3025303 -38.9181979 L -106.3031880 -38.9182258 L -106.3041958 -38.9183059 L -106.3043716 -38.9184034 L -106.3045020 -38.9187700 L -106.3047070 -38.9188840 L -106.3050880 -38.9190310 L -106.3055280 -38.9191350 L -106.3059790 -38.9192910 L -106.3060990 -38.9193150 L -106.3062590 -38.9193250 L -106.3064370 -38.9193610 L -106.3065630 -38.9194050 L -106.3068680 -38.9195780 L -106.3071800 -38.9197910 L -106.3074040 -38.9198990 L -106.3075440 -38.9199380 L -106.3077940 -38.9199540 L -106.3083440 -38.9200320 L -106.3084850 -38.9200680 L -106.3090040 -38.9202570 L -106.3092920 -38.9203190 L -106.3098350 -38.9203780 L -106.3099680 -38.9203810 L -106.3103300 -38.9204470 L -106.3105120 -38.9204520 L -106.3105980 -38.9204700 L -106.3107250 -38.9205310 L -106.3108660 -38.9206450 L -106.3111320 -38.9210680 L -106.3112770 -38.9212240 L -106.3113200 -38.9213980 L -106.3113730 -38.9215050 L -106.3117560 -38.9219490 L -106.3119550 -38.9220940 L -106.3121010 -38.9222650 L -106.3122150 -38.9223610 L -106.3124720 -38.9224790 L -106.3125561 -38.9225800 L -106.3127045 -38.9226797 L -106.3129200 -38.9228030 L -106.3131334 -38.9228853 L -106.3133428 -38.9229865 L -106.3136152 -38.9230766 L -106.3137900 -38.9231051 L -106.3139610 -38.9231010 L -106.3149466 -38.9235400 L -106.3153040 -38.9236270 L -106.3155580 -38.9237770 L -106.3158120 -38.9239810 L -106.3159820 -38.9240680 L -106.3161870 -38.9241170 L -106.3165160 -38.9242400 L -106.3166988 -38.9242769 L -106.3168330 -38.9242500 L -106.3169895 -38.9242485 L -106.3171989 -38.9242738 L -106.3173717 -38.9243386 L -106.3174896 -38.9243623 L -106.3176176 -38.9244129 L -106.3177924 -38.9245094 L -106.3178372 -38.9245869 L -106.3181095 -38.9246406 L -106.3182437 -38.9246217 L -106.3187547 -38.9245941 L -106.3189755 -38.9245094 L -106.3191422 -38.9245284 L -106.3197180 -38.9244520 L -106.3198190 -38.9244510 L -106.3201680 -38.9244930 L -106.3206140 -38.9244290 L -106.3207980 -38.9244250" pathLength="1" fill="none" stroke="currentColor" vector-effect="non-scaling-stroke"/>
  <circle class="trace-start" cx="-106.3129750" cy="-38.8913340" r="0.0003687"/>
  <circle class="trace-summit-halo" cx="-106.3208000" cy="-38.9244000" r="0.0009401"/>
  <circle class="trace-summit" cx="-106.3208000" cy="-38.9244000" r="0.0005345"/>
</svg>
