<svg xmlns="http://www.w3.org/2000/svg" viewBox="0 0 1600 900" preserveAspectRatio="xMidYMid slice">
  <path class="trace-line" d="M 1300.00 -5.39 L 1296.44 3.73 L 1281.79 20.83 L 1274.64 37.61 L 1280.93 60.30 L 1280.73 83.99 L 1279.41 89.76 L 1271.19 106.90 L 1268.74 119.81 L 1264.21 132.72 L 1262.03 142.02 L 1260.63 143.69 L 1251.85 151.08 L 1249.02 151.85 L 1242.65 152.07 L 1239.91 151.37 L 1236.78 148.97 L 1235.64 145.90 L 1236.29 142.04 L 1235.75 124.63 L 1232.69 119.02 L 1226.27 110.52 L 1223.37 115.39 L 1205.82 137.67 L 1195.15 157.30 L 1192.99 164.01 L 1190.69 166.69 L 1187.63 174.81 L 1181.82 181.45 L 1169.51 203.29 L 1165.42 215.90 L 1163.14 218.90 L 1139.20 239.04 L 1125.51 253.86 L 1121.02 260.53 L 1117.98 262.26 L 1112.89 262.78 L 1097.90 275.53 L 1095.14 272.94 L 1093.56 269.74 L 1091.76 256.70 L 1090.05 254.51 L 1085.91 252.47 L 1082.96 252.37 L 1078.23 250.87 L 1072.79 245.28 L 1069.32 238.29 L 1068.15 229.46 L 1065.24 223.34 L 1063.24 210.81 L 1061.64 207.18 L 1059.64 204.46 L 1053.86 199.99 L 1045.67 190.89 L 1042.77 190.67 L 1039.43 187.76 L 1030.47 197.04 L 1020.66 200.51 L 1009.12 201.95 L 1003.99 204.70 L 999.60 205.25 L 997.55 207.14 L 994.58 213.24 L 990.78 217.43 L 987.49 222.80 L 984.34 224.67 L 974.51 235.63 L 964.26 242.32 L 960.14 245.93 L 956.03 250.77 L 951.71 259.87 L 948.56 264.13 L 937.73 273.41 L 932.78 280.13 L 929.84 282.59 L 926.89 283.35 L 919.52 290.09 L 909.48 302.25 L 905.97 301.80 L 902.24 302.52 L 897.58 306.38 L 893.85 306.85 L 889.77 308.83 L 868.50 326.56 L 867.07 330.46 L 861.57 336.90 L 854.91 339.92 L 851.27 342.78 L 849.29 346.16 L 849.29 349.79 L 842.17 373.26 L 840.96 381.50 L 837.22 382.33 L 833.53 384.50 L 816.13 400.07 L 815.77 401.55 L 811.91 406.53 L 806.26 411.85 L 802.22 414.24 L 788.14 425.73 L 781.28 433.35 L 774.05 445.69 L 767.04 455.11 L 753.07 471.30 L 760.68 475.69 L 761.86 477.16 L 766.60 479.05 L 773.71 483.46 L 774.95 486.03 L 777.80 489.00 L 780.17 494.81 L 776.86 495.04 L 766.64 500.33 L 765.04 500.37 L 764.04 501.44 L 755.39 504.45 L 750.42 507.23 L 748.79 507.22 L 748.60 508.07 L 746.48 508.47 L 738.34 513.42 L 738.58 514.26 L 751.61 518.67 L 754.93 521.68 L 739.65 526.60 L 736.72 530.44 L 733.44 533.07 L 731.67 537.23 L 732.21 538.71 L 730.86 540.11 L 732.35 542.59 L 738.36 548.71 L 740.03 552.20 L 740.93 557.42 L 744.13 564.56 L 743.45 565.99 L 740.95 566.77 L 736.86 570.03 L 730.50 571.12 L 724.47 576.04 L 718.34 579.24 L 716.76 580.93 L 711.80 580.53 L 709.23 584.37 L 707.66 584.52 L 705.77 586.77 L 703.29 586.72 L 701.62 590.80 L 698.69 593.14 L 698.82 594.55 L 696.93 595.07 L 694.57 597.21 L 694.63 598.63 L 693.51 599.88 L 691.37 606.21 L 690.14 606.77 L 689.56 608.10 L 687.04 608.65 L 683.63 611.23 L 683.19 613.38 L 681.65 615.25 L 678.92 616.06 L 672.92 620.56 L 671.13 619.50 L 668.39 620.14 L 666.54 618.74 L 663.65 619.24 L 662.52 618.21 L 654.50 621.45 L 648.09 625.91 L 646.80 627.84 L 644.37 626.93 L 643.37 628.31 L 641.93 628.14 L 640.07 629.81 L 635.68 628.73 L 632.74 630.55 L 626.07 632.53 L 625.93 634.69 L 624.79 635.26 L 624.40 637.33 L 622.02 637.90 L 619.21 642.76 L 617.26 642.01 L 615.52 643.92 L 609.40 643.00 L 607.12 644.02 L 606.16 646.23 L 604.46 646.57 L 604.82 649.81 L 600.58 650.36 L 599.15 652.14 L 599.17 654.06 L 598.21 655.71 L 595.44 659.02 L 587.67 655.58 L 587.26 656.68 L 584.79 656.57 L 581.76 659.03 L 570.37 659.71 L 558.85 664.34 L 555.10 668.35 L 553.32 668.84 L 552.55 671.42 L 549.40 674.82 L 546.37 679.76 L 544.40 683.61 L 544.78 685.27 L 536.70 687.32 L 534.29 689.36 L 533.39 692.76 L 526.97 694.04 L 513.72 690.75 L 499.97 690.09 L 498.49 691.16 L 499.40 692.89 L 507.13 701.93 L 506.89 703.99 L 505.82 705.06 L 503.35 704.98 L 497.75 701.77 L 486.72 699.38 L 479.40 699.47 L 478.16 700.45 L 478.91 702.02 L 486.15 705.80 L 491.50 716.33 L 491.75 718.14 L 488.45 718.79 L 487.14 719.78 L 485.16 719.62 L 481.62 717.23 L 469.75 717.27 L 466.27 718.65 L 460.22 723.01 L 460.27 724.64 L 457.26 726.97 L 458.09 727.96 L 457.30 729.75 L 453.14 735.64 L 452.95 739.18 L 454.07 740.25 L 452.63 742.26 L 453.73 743.18 L 452.84 744.57 L 457.25 750.80 L 448.50 758.60 L 445.90 761.86 L 443.18 767.67 L 441.95 768.12 L 441.11 771.17 L 441.42 774.43 L 433.93 777.57 L 430.70 779.73 L 427.77 779.68 L 422.96 782.49 L 422.54 783.86 L 420.15 784.05 L 419.22 786.19 L 406.19 793.26 L 406.20 794.63 L 402.98 798.18 L 399.77 797.85 L 397.43 802.40 L 395.97 802.21 L 394.76 805.41 L 394.30 810.00 L 392.02 812.28 L 387.89 813.77 L 386.36 817.28 L 384.67 817.12 L 384.09 818.44 L 380.21 818.93 L 379.64 820.86 L 374.77 822.98 L 374.31 825.45 L 372.03 826.34 L 370.34 829.78 L 362.20 834.06 L 361.49 835.32 L 356.44 837.01 L 354.79 838.97 L 345.37 842.37 L 340.52 845.33 L 339.28 848.49 L 340.68 851.74 L 338.78 869.07 L 329.46 884.21 L 324.70 889.34 L 319.82 892.08" pathLength="1" fill="none" vector-effect="non-scaling-stroke"/>
  <circle class="trace-start" cx="1300.00" cy="-5.39" r="4.62"/>
  <circle class="trace-summit-halo" cx="300.00" cy="905.39" r="11.79"/>
  <circle class="trace-summit" cx="300.00" cy="905.39" r="6.67"/>
</svg>
