<svg xmlns="http://www.w3.org/2000/svg" viewBox="0 0 2000 2500" preserveAspectRatio="none">
  <path class="trace-underlay" d="M 1589.62 524.43 L 1585.59 532.40 L 1568.98 547.34 L 1560.89 562.01 L 1568.01 581.84 L 1567.78 602.55 L 1566.29 607.59 L 1556.97 622.57 L 1554.20 633.85 L 1549.06 645.13 L 1546.59 653.26 L 1545.00 654.72 L 1535.05 661.18 L 1531.85 661.86 L 1524.63 662.04 L 1521.53 661.43 L 1517.98 659.34 L 1516.69 656.65 L 1517.43 653.27 L 1516.82 638.06 L 1513.35 633.16 L 1506.07 625.73 L 1502.78 629.98 L 1482.90 649.46 L 1470.80 666.61 L 1468.35 672.48 L 1465.75 674.82 L 1462.28 681.92 L 1455.69 687.72 L 1441.74 706.81 L 1437.11 717.83 L 1434.52 720.46 L 1407.39 738.05 L 1391.88 751.01 L 1386.80 756.84 L 1383.35 758.35 L 1377.58 758.80 L 1360.59 769.94 L 1357.47 767.68 L 1355.67 764.88 L 1353.63 753.49 L 1351.70 751.57 L 1347.00 749.80 L 1338.30 748.40 L 1332.14 743.51 L 1328.20 737.40 L 1326.88 729.68 L 1323.57 724.34 L 1321.31 713.38 L 1319.50 710.21 L 1301.40 695.97 L 1298.12 695.78 L 1294.32 693.24 L 1284.17 701.34 L 1273.05 704.38 L 1259.98 705.64 L 1254.17 708.04 L 1249.19 708.53 L 1246.86 710.18 L 1243.50 715.51 L 1239.20 719.17 L 1235.47 723.86 L 1231.89 725.50 L 1220.76 735.07 L 1204.47 744.08 L 1199.82 748.30 L 1194.92 756.26 L 1191.35 759.98 L 1179.07 768.10 L 1173.46 773.97 L 1170.13 776.12 L 1166.79 776.78 L 1158.43 782.67 L 1147.05 793.29 L 1138.85 793.53 L 1133.57 796.91 L 1129.35 797.32 L 1124.72 799.05 L 1100.61 814.54 L 1099.00 817.96 L 1092.76 823.58 L 1085.21 826.22 L 1081.10 828.72 L 1078.85 831.67 L 1078.85 834.85 L 1070.78 855.36 L 1069.41 862.56 L 1065.17 863.29 L 1060.98 865.18 L 1041.26 878.79 L 1036.49 884.43 L 1030.09 889.09 L 1009.55 901.22 L 1001.77 907.87 L 993.58 918.66 L 985.64 926.89 L 969.81 941.04 L 993.19 951.68 L 997.82 956.52 L 1000.51 961.60 L 996.76 961.79 L 985.19 966.42 L 964.95 972.43 L 964.74 973.18 L 962.33 973.53 L 953.11 977.85 L 953.38 978.59 L 968.15 982.44 L 971.91 985.08 L 954.60 989.38 L 947.56 995.03 L 945.55 998.66 L 946.16 999.96 L 944.63 1001.18 L 953.13 1008.70 L 955.02 1011.75 L 956.05 1016.31 L 959.67 1022.55 L 958.90 1023.80 L 956.07 1024.49 L 951.43 1027.34 L 944.23 1028.28 L 928.66 1036.86 L 923.04 1036.51 L 920.13 1039.87 L 918.34 1040.00 L 916.21 1041.96 L 913.39 1041.92 L 911.50 1045.48 L 908.17 1047.53 L 908.33 1048.76 L 903.51 1051.09 L 903.58 1052.33 L 902.30 1053.42 L 899.88 1058.95 L 897.83 1060.60 L 894.98 1061.08 L 891.11 1063.34 L 890.61 1065.22 L 888.86 1066.85 L 885.77 1067.56 L 878.98 1071.49 L 876.95 1070.57 L 873.84 1071.13 L 871.74 1069.91 L 868.46 1070.34 L 867.19 1069.44 L 858.10 1072.28 L 850.83 1076.17 L 849.37 1077.86 L 846.62 1077.06 L 845.48 1078.27 L 843.85 1078.12 L 841.74 1079.58 L 836.77 1078.64 L 825.87 1081.96 L 825.72 1083.84 L 824.42 1084.34 L 823.98 1086.15 L 821.29 1086.65 L 818.11 1090.90 L 815.89 1090.24 L 813.92 1091.91 L 806.99 1091.10 L 804.40 1091.99 L 803.31 1093.93 L 801.39 1094.23 L 801.79 1097.06 L 796.99 1097.54 L 795.37 1099.09 L 795.39 1100.77 L 794.31 1102.21 L 791.16 1105.10 L 782.36 1102.10 L 781.89 1103.06 L 779.10 1102.97 L 775.66 1105.12 L 762.76 1105.71 L 749.71 1109.76 L 745.45 1113.26 L 743.44 1113.69 L 742.56 1115.94 L 735.56 1123.23 L 733.32 1126.60 L 733.75 1128.04 L 724.60 1129.84 L 721.87 1131.62 L 720.84 1134.59 L 713.57 1135.71 L 698.55 1132.84 L 682.98 1132.26 L 681.30 1133.20 L 682.33 1134.70 L 691.09 1142.61 L 690.81 1144.41 L 689.60 1145.34 L 686.80 1145.27 L 680.46 1142.47 L 667.96 1140.38 L 659.66 1140.46 L 658.26 1141.32 L 659.10 1142.68 L 667.31 1145.99 L 673.37 1155.19 L 673.65 1156.77 L 668.43 1158.21 L 666.19 1158.07 L 662.18 1155.98 L 648.72 1156.01 L 644.78 1157.22 L 637.92 1161.03 L 637.98 1162.46 L 634.57 1164.49 L 635.52 1165.36 L 634.62 1166.93 L 629.91 1172.07 L 629.69 1175.16 L 630.96 1176.10 L 629.32 1177.85 L 630.57 1178.66 L 629.56 1179.87 L 634.56 1185.32 L 621.70 1194.99 L 618.61 1200.06 L 617.22 1200.46 L 616.27 1203.13 L 616.62 1205.97 L 604.47 1210.60 L 601.15 1210.56 L 595.70 1213.01 L 595.22 1214.22 L 592.52 1214.38 L 591.47 1216.25 L 576.69 1222.43 L 576.71 1223.63 L 573.06 1226.73 L 569.43 1226.44 L 566.77 1230.41 L 565.11 1230.25 L 563.74 1233.05 L 563.22 1237.06 L 560.64 1239.05 L 555.96 1240.35 L 554.23 1243.42 L 547.25 1244.86 L 546.61 1246.55 L 541.09 1248.40 L 540.56 1250.57 L 537.99 1251.34 L 536.06 1254.35 L 526.84 1258.08 L 526.03 1259.19 L 520.32 1260.66 L 518.45 1262.37 L 507.77 1265.35 L 502.27 1267.94 L 500.86 1270.70 L 502.45 1273.54 L 500.30 1288.68 L 489.73 1301.91 L 484.34 1306.40 L 478.82 1308.80" pathLength="1" fill="none" vector-effect="non-scaling-stroke"/>
  <path class="trace-line" d="M 1589.62 524.43 L 1585.59 532.40 L 1568.98 547.34 L 1560.89 562.01 L 1568.01 581.84 L 1567.78 602.55 L 1566.29 607.59 L 1556.97 622.57 L 1554.20 633.85 L 1549.06 645.13 L 1546.59 653.26 L 1545.00 654.72 L 1535.05 661.18 L 1531.85 661.86 L 1524.63 662.04 L 1521.53 661.43 L 1517.98 659.34 L 1516.69 656.65 L 1517.43 653.27 L 1516.82 638.06 L 1513.35 633.16 L 1506.07 625.73 L 1502.78 629.98 L 1482.90 649.46 L 1470.80 666.61 L 1468.35 672.48 L 1465.75 674.82 L 1462.28 681.92 L 1455.69 687.72 L 1441.74 706.81 L 1437.11 717.83 L 1434.52 720.46 L 1407.39 738.05 L 1391.88 751.01 L 1386.80 756.84 L 1383.35 758.35 L 1377.58 758.80 L 1360.59 769.94 L 1357.47 767.68 L 1355.67 764.88 L 1353.63 753.49 L 1351.70 751.57 L 1347.00 749.80 L 1338.30 748.40 L 1332.14 743.51 L 1328.20 737.40 L 1326.88 729.68 L 1323.57 724.34 L 1321.31 713.38 L 1319.50 710.21 L 1301.40 695.97 L 1298.12 695.78 L 1294.32 693.24 L 1284.17 701.34 L 1273.05 704.38 L 1259.98 705.64 L 1254.17 708.04 L 1249.19 708.53 L 1246.86 710.18 L 1243.50 715.51 L 1239.20 719.17 L 1235.47 723.86 L 1231.89 725.50 L 1220.76 735.07 L 1204.47 744.08 L 1199.82 748.30 L 1194.92 756.26 L 1191.35 759.98 L 1179.07 768.10 L 1173.46 773.97 L 1170.13 776.12 L 1166.79 776.78 L 1158.43 782.67 L 1147.05 793.29 L 1138.85 793.53 L 1133.57 796.91 L 1129.35 797.32 L 1124.72 799.05 L 1100.61 814.54 L 1099.00 817.96 L 1092.76 823.58 L 1085.21 826.22 L 1081.10 828.72 L 1078.85 831.67 L 1078.85 834.85 L 1070.78 855.36 L 1069.41 862.56 L 1065.17 863.29 L 1060.98 865.18 L 1041.26 878.79 L 1036.49 884.43 L 1030.09 889.09 L 1009.55 901.22 L 1001.77 907.87 L 993.58 918.66 L 985.64 926.89 L 969.81 941.04 L 993.19 951.68 L 997.82 956.52 L 1000.51 961.60 L 996.76 961.79 L 985.19 966.42 L 964.95 972.43 L 964.74 973.18 L 962.33 973.53 L 953.11 977.85 L 953.38 978.59 L 968.15 982.44 L 971.91 985.08 L 954.60 989.38 L 947.56 995.03 L 945.55 998.66 L 946.16 999.96 L 944.63 1001.18 L 953.13 1008.70 L 955.02 1011.75 L 956.05 1016.31 L 959.67 1022.55 L 958.90 1023.80 L 956.07 1024.49 L 951.43 1027.34 L 944.23 1028.28 L 928.66 1036.86 L 923.04 1036.51 L 920.13 1039.87 L 918.34 1040.00 L 916.21 1041.96 L 913.39 1041.92 L 911.50 1045.48 L 908.17 1047.53 L 908.33 1048.76 L 903.51 1051.09 L 903.58 1052.33 L 902.30 1053.42 L 899.88 1058.95 L 897.83 1060.60 L 894.98 1061.08 L 891.11 1063.34 L 890.61 1065.22 L 888.86 1066.85 L 885.77 1067.56 L 878.98 1071.49 L 876.95 1070.57 L 873.84 1071.13 L 871.74 1069.91 L 868.46 1070.34 L 867.19 1069.44 L 858.10 1072.28 L 850.83 1076.17 L 849.37 1077.86 L 846.62 1077.06 L 845.48 1078.27 L 843.85 1078.12 L 841.74 1079.58 L 836.77 1078.64 L 825.87 1081.96 L 825.72 1083.84 L 824.42 1084.34 L 823.98 1086.15 L 821.29 1086.65 L 818.11 1090.90 L 815.89 1090.24 L 813.92 1091.91 L 806.99 1091.10 L 804.40 1091.99 L 803.31 1093.93 L 801.39 1094.23 L 801.79 1097.06 L 796.99 1097.54 L 795.37 1099.09 L 795.39 1100.77 L 794.31 1102.21 L 791.16 1105.10 L 782.36 1102.10 L 781.89 1103.06 L 779.10 1102.97 L 775.66 1105.12 L 762.76 1105.71 L 749.71 1109.76 L 745.45 1113.26 L 743.44 1113.69 L 742.56 1115.94 L 735.56 1123.23 L 733.32 1126.60 L 733.75 1128.04 L 724.60 1129.84 L 721.87 1131.62 L 720.84 1134.59 L 713.57 1135.71 L 698.55 1132.84 L 682.98 1132.26 L 681.30 1133.20 L 682.33 1134.70 L 691.09 1142.61 L 690.81 1144.41 L 689.60 1145.34 L 686.80 1145.27 L 680.46 1142.47 L 667.96 1140.38 L 659.66 1140.46 L 658.26 1141.32 L 659.10 1142.68 L 667.31 1145.99 L 673.37 1155.19 L 673.65 1156.77 L 668.43 1158.21 L 666.19 1158.07 L 662.18 1155.98 L 648.72 1156.01 L 644.78 1157.22 L 637.92 1161.03 L 637.98 1162.46 L 634.57 1164.49 L 635.52 1165.36 L 634.62 1166.93 L 629.91 1172.07 L 629.69 1175.16 L 630.96 1176.10 L 629.32 1177.85 L 630.57 1178.66 L 629.56 1179.87 L 634.56 1185.32 L 621.70 1194.99 L 618.61 1200.06 L 617.22 1200.46 L 616.27 1203.13 L 616.62 1205.97 L 604.47 1210.60 L 601.15 1210.56 L 595.70 1213.01 L 595.22 1214.22 L 592.52 1214.38 L 591.47 1216.25 L 576.69 1222.43 L 576.71 1223.63 L 573.06 1226.73 L 569.43 1226.44 L 566.77 1230.41 L 565.11 1230.25 L 563.74 1233.05 L 563.22 1237.06 L 560.64 1239.05 L 555.96 1240.35 L 554.23 1243.42 L 547.25 1244.86 L 546.61 1246.55 L 541.09 1248.40 L 540.56 1250.57 L 537.99 1251.34 L 536.06 1254.35 L 526.84 1258.08 L 526.03 1259.19 L 520.32 1260.66 L 518.45 1262.37 L 507.77 1265.35 L 502.27 1267.94 L 500.86 1270.70 L 502.45 1273.54 L 500.30 1288.68 L 489.73 1301.91 L 484.34 1306.40 L 478.82 1308.80" pathLength="1" fill="none" vector-effect="non-scaling-stroke"/>
</svg>
