<svg xmlns="http://www.w3.org/2000/svg" viewBox="0 0 2000 2500" preserveAspectRatio="xMidYMid slice">
  <path class="trace-line" d="M 1677.08 632.98 L 1672.26 645.33 L 1652.42 668.50 L 1642.75 691.23 L 1651.25 721.97 L 1650.98 754.09 L 1649.20 761.90 L 1638.07 785.12 L 1634.75 802.62 L 1628.61 820.11 L 1625.66 832.70 L 1623.76 834.97 L 1611.88 844.98 L 1608.04 846.03 L 1599.42 846.32 L 1595.71 845.37 L 1591.47 842.13 L 1589.93 837.96 L 1590.81 832.73 L 1590.08 809.14 L 1585.94 801.54 L 1577.24 790.02 L 1573.31 796.62 L 1549.55 826.81 L 1535.10 853.41 L 1532.18 862.50 L 1529.06 866.13 L 1524.92 877.14 L 1517.04 886.13 L 1500.38 915.73 L 1494.84 932.81 L 1491.75 936.88 L 1459.33 964.16 L 1440.79 984.24 L 1434.72 993.28 L 1430.60 995.62 L 1423.70 996.32 L 1403.40 1013.60 L 1399.67 1010.09 L 1397.53 1005.75 L 1395.10 988.09 L 1392.78 985.12 L 1387.17 982.36 L 1383.18 982.22 L 1376.77 980.20 L 1369.41 972.62 L 1364.70 963.14 L 1363.12 951.18 L 1359.17 942.89 L 1356.47 925.91 L 1354.31 920.99 L 1351.59 917.31 L 1343.77 911.25 L 1332.68 898.92 L 1328.76 898.63 L 1324.22 894.68 L 1312.09 907.25 L 1298.81 911.95 L 1283.19 913.90 L 1276.24 917.63 L 1270.29 918.39 L 1267.51 920.94 L 1263.49 929.21 L 1258.35 934.88 L 1253.89 942.16 L 1249.63 944.70 L 1236.32 959.54 L 1222.43 968.60 L 1216.85 973.50 L 1211.29 980.05 L 1205.44 992.38 L 1201.18 998.16 L 1186.50 1010.74 L 1179.81 1019.84 L 1175.83 1023.17 L 1171.84 1024.20 L 1161.84 1033.34 L 1148.25 1049.80 L 1143.49 1049.20 L 1138.45 1050.17 L 1132.14 1055.41 L 1127.09 1056.04 L 1121.56 1058.73 L 1092.75 1082.75 L 1090.83 1088.04 L 1083.37 1096.76 L 1074.35 1100.85 L 1069.43 1104.73 L 1066.75 1109.30 L 1066.75 1114.23 L 1057.10 1146.02 L 1055.47 1157.18 L 1050.40 1158.31 L 1045.40 1161.25 L 1021.84 1182.35 L 1021.35 1184.35 L 1016.13 1191.10 L 1008.48 1198.31 L 1003.00 1201.55 L 983.94 1217.12 L 974.65 1227.44 L 964.86 1244.17 L 955.37 1256.92 L 936.45 1278.85 L 946.76 1284.81 L 948.35 1286.79 L 954.76 1289.37 L 964.39 1295.34 L 966.07 1298.82 L 969.93 1302.85 L 973.14 1310.72 L 968.66 1311.02 L 954.83 1318.20 L 952.65 1318.25 L 951.31 1319.69 L 939.59 1323.78 L 932.86 1327.54 L 930.65 1327.52 L 930.39 1328.69 L 927.52 1329.22 L 916.51 1335.93 L 916.82 1337.07 L 934.47 1343.04 L 938.97 1347.13 L 918.28 1353.79 L 914.31 1358.99 L 909.87 1362.55 L 907.46 1368.18 L 908.20 1370.20 L 906.37 1372.09 L 908.39 1375.46 L 916.52 1383.74 L 918.79 1388.48 L 920.01 1395.55 L 924.34 1405.22 L 923.42 1407.16 L 920.04 1408.22 L 914.49 1412.64 L 905.89 1414.11 L 897.72 1420.77 L 889.42 1425.11 L 887.28 1427.40 L 880.57 1426.87 L 877.09 1432.07 L 874.95 1432.27 L 872.40 1435.32 L 869.04 1435.25 L 866.78 1440.77 L 862.80 1443.95 L 862.99 1445.86 L 860.43 1446.55 L 857.24 1449.46 L 857.32 1451.39 L 855.79 1453.07 L 852.90 1461.65 L 851.24 1462.42 L 850.44 1464.21 L 847.03 1464.96 L 842.42 1468.46 L 841.82 1471.37 L 839.73 1473.90 L 836.04 1475.00 L 827.92 1481.09 L 825.49 1479.66 L 821.78 1480.53 L 819.28 1478.64 L 815.35 1479.31 L 813.83 1477.92 L 802.97 1482.31 L 794.28 1488.35 L 792.54 1490.97 L 789.25 1489.73 L 787.90 1491.60 L 785.94 1491.37 L 783.43 1493.64 L 777.48 1492.17 L 773.50 1494.63 L 764.46 1497.32 L 764.28 1500.24 L 762.73 1501.02 L 762.20 1503.82 L 758.99 1504.59 L 755.19 1511.18 L 752.53 1510.17 L 750.18 1512.75 L 741.90 1511.50 L 738.80 1512.88 L 737.50 1515.88 L 735.21 1516.34 L 735.69 1520.73 L 729.95 1521.48 L 728.02 1523.89 L 728.04 1526.49 L 726.75 1528.72 L 722.99 1533.21 L 712.47 1528.55 L 711.91 1530.03 L 708.58 1529.89 L 704.46 1533.22 L 689.04 1534.14 L 673.45 1540.42 L 668.37 1545.85 L 665.96 1546.51 L 664.91 1550.01 L 660.64 1554.62 L 656.54 1561.31 L 653.87 1566.53 L 654.39 1568.77 L 643.45 1571.56 L 640.19 1574.32 L 638.96 1578.92 L 630.27 1580.65 L 612.33 1576.20 L 593.71 1575.31 L 591.71 1576.76 L 592.94 1579.09 L 603.41 1591.35 L 603.08 1594.14 L 601.63 1595.59 L 598.29 1595.48 L 590.70 1591.13 L 575.77 1587.90 L 565.85 1588.01 L 564.18 1589.35 L 565.18 1591.47 L 574.99 1596.59 L 582.24 1610.85 L 582.57 1613.31 L 578.11 1614.20 L 576.33 1615.54 L 573.66 1615.31 L 568.86 1612.08 L 552.78 1612.13 L 548.07 1614.00 L 539.88 1619.91 L 539.95 1622.12 L 535.87 1625.28 L 537.00 1626.62 L 535.93 1629.05 L 530.30 1637.02 L 530.04 1641.82 L 531.56 1643.27 L 529.60 1645.99 L 531.09 1647.24 L 529.89 1649.12 L 535.85 1657.56 L 524.01 1668.13 L 520.49 1672.55 L 516.80 1680.42 L 515.14 1681.04 L 514.00 1685.17 L 514.42 1689.58 L 504.29 1693.84 L 499.90 1696.76 L 495.94 1696.69 L 489.42 1700.50 L 488.86 1702.36 L 485.62 1702.61 L 484.37 1705.52 L 466.71 1715.10 L 466.73 1716.95 L 462.37 1721.77 L 458.03 1721.32 L 454.86 1727.48 L 452.88 1727.22 L 451.23 1731.56 L 450.61 1737.77 L 447.53 1740.86 L 441.94 1742.88 L 439.87 1747.64 L 437.57 1747.43 L 436.79 1749.21 L 431.53 1749.87 L 430.76 1752.50 L 424.17 1755.36 L 423.54 1758.72 L 420.46 1759.92 L 418.16 1764.58 L 407.14 1770.37 L 406.18 1772.08 L 399.35 1774.37 L 397.12 1777.02 L 384.36 1781.64 L 377.78 1785.65 L 376.10 1789.93 L 378.00 1794.34 L 375.43 1817.81 L 362.80 1838.32 L 356.36 1845.28 L 349.76 1848.99" pathLength="1" fill="none" vector-effect="non-scaling-stroke"/>
  <circle class="trace-start" cx="1677.08" cy="632.98" r="6.25"/>
  <circle class="trace-summit-halo" cx="322.92" cy="1867.02" r="15.97"/>
  <circle class="trace-summit" cx="322.92" cy="1867.02" r="9.03"/>
</svg>
