<svg xmlns="http://www.w3.org/2000/svg" viewBox="-106.4483136 -39.1467396 0.0438257 0.0311507" preserveAspectRatio="xMidYMid meet">
  <path d="M -106.4081401 -39.1441437 L -106.4082728 -39.1438800 L -106.4088187 -39.1433854 L -106.4090849 -39.1429002 L -106.4088508 -39.1422439 L -106.4088582 -39.1415584 L -106.4089072 -39.1413915 L -106.4092136 -39.1408959 L -106.4093048 -39.1405224 L -106.4094738 -39.1401490 L -106.4095549 -39.1398801 L -106.4096072 -39.1398318 L -106.4099343 -39.1396181 L -106.4100397 -39.1395956 L -106.4102771 -39.1395894 L -106.4103790 -39.1396097 L -106.4104957 -39.1396789 L -106.4105380 -39.1397678 L -106.4105138 -39.1398796 L -106.4105339 -39.1403831 L -106.4106479 -39.1405453 L -106.4108873 -39.1407913 L -106.4109953 -39.1406504 L -106.4116491 -39.1400060 L -106.4120467 -39.1394381 L -106.4121272 -39.1392441 L -106.4122130 -39.1391666 L -106.4123270 -39.1389315 L -106.4125436 -39.1387396 L -106.4130022 -39.1381077 L -106.4131545 -39.1377431 L -106.4132396 -39.1376562 L -106.4141316 -39.1370738 L -106.4146417 -39.1366451 L -106.4148087 -39.1364522 L -106.4149220 -39.1364022 L -106.4151118 -39.1363872 L -106.4156704 -39.1360184 L -106.4157730 -39.1360933 L -106.4158320 -39.1361859 L -106.4158990 -39.1365630 L -106.4159627 -39.1366264 L -106.4161170 -39.1366852 L -106.4164033 -39.1367315 L -106.4166058 -39.1368932 L -106.4167352 -39.1370955 L -106.4167788 -39.1373509 L -106.4168874 -39.1375278 L -106.4169618 -39.1378903 L -106.4170213 -39.1379954 L -106.4176163 -39.1384665 L -106.4177243 -39.1384728 L -106.4178490 -39.1385570 L -106.4181829 -39.1382887 L -106.4185484 -39.1381883 L -106.4189782 -39.1381467 L -106.4191693 -39.1380671 L -106.4193329 -39.1380510 L -106.4194094 -39.1379964 L -106.4195200 -39.1378200 L -106.4196615 -39.1376989 L -106.4197842 -39.1375434 L -106.4199016 -39.1374893 L -106.4202677 -39.1371725 L -106.4208034 -39.1368745 L -106.4209563 -39.1367346 L -106.4211173 -39.1364714 L -106.4212346 -39.1363481 L -106.4216384 -39.1360795 L -106.4218227 -39.1358852 L -106.4219322 -39.1358141 L -106.4220420 -39.1357921 L -106.4223169 -39.1355971 L -106.4226910 -39.1352456 L -106.4229606 -39.1352377 L -106.4231343 -39.1351259 L -106.4232731 -39.1351124 L -106.4234253 -39.1350551 L -106.4242179 -39.1345423 L -106.4242709 -39.1344294 L -106.4244761 -39.1342432 L -106.4247242 -39.1341558 L -106.4248596 -39.1340731 L -106.4249334 -39.1339754 L -106.4249334 -39.1338703 L -106.4251989 -39.1331915 L -106.4252438 -39.1329533 L -106.4253832 -39.1329292 L -106.4255208 -39.1328664 L -106.4261692 -39.1324160 L -106.4263261 -39.1322293 L -106.4265367 -39.1320753 L -106.4272119 -39.1316738 L -106.4274676 -39.1314535 L -106.4277370 -39.1310964 L -106.4279981 -39.1308241 L -106.4285186 -39.1303559 L -106.4277498 -39.1300039 L -106.4275974 -39.1298437 L -106.4275090 -39.1296756 L -106.4276324 -39.1296692 L -106.4280129 -39.1295160 L -106.4286782 -39.1293169 L -106.4286853 -39.1292921 L -106.4287643 -39.1292807 L -106.4290674 -39.1291375 L -106.4290587 -39.1291132 L -106.4285732 -39.1289857 L -106.4284493 -39.1288984 L -106.4290185 -39.1287561 L -106.4292500 -39.1285692 L -106.4293162 -39.1284489 L -106.4292959 -39.1284059 L -106.4293463 -39.1283656 L -106.4290669 -39.1281168 L -106.4290046 -39.1280157 L -106.4289709 -39.1278648 L -106.4288518 -39.1276582 L -106.4288772 -39.1276168 L -106.4289702 -39.1275942 L -106.4291228 -39.1274999 L -106.4293595 -39.1274685 L -106.4298715 -39.1271848 L -106.4300562 -39.1271962 L -106.4301520 -39.1270852 L -106.4302107 -39.1270808 L -106.4302809 -39.1270158 L -106.4303735 -39.1270172 L -106.4304356 -39.1268994 L -106.4305450 -39.1268316 L -106.4305399 -39.1267907 L -106.4306982 -39.1267138 L -106.4306960 -39.1266727 L -106.4307380 -39.1266367 L -106.4308175 -39.1264536 L -106.4308852 -39.1263989 L -106.4309789 -39.1263830 L -106.4311060 -39.1263083 L -106.4311224 -39.1262461 L -106.4311799 -39.1261922 L -106.4312814 -39.1261687 L -106.4315049 -39.1260386 L -106.4315717 -39.1260692 L -106.4316739 -39.1260505 L -106.4317427 -39.1260910 L -106.4318506 -39.1260766 L -106.4318925 -39.1261063 L -106.4321913 -39.1260126 L -106.4324303 -39.1258836 L -106.4324784 -39.1258278 L -106.4325689 -39.1258541 L -106.4326061 -39.1258142 L -106.4326599 -39.1258193 L -106.4327291 -39.1257708 L -106.4328927 -39.1258021 L -106.4330022 -39.1257496 L -106.4332508 -39.1256921 L -106.4332559 -39.1256299 L -106.4332985 -39.1256133 L -106.4333130 -39.1255535 L -106.4334014 -39.1255369 L -106.4335061 -39.1253963 L -106.4335791 -39.1254179 L -106.4336439 -39.1253627 L -106.4338718 -39.1253895 L -106.4339569 -39.1253600 L -106.4339926 -39.1252959 L -106.4340558 -39.1252861 L -106.4340426 -39.1251925 L -106.4342006 -39.1251764 L -106.4342537 -39.1251250 L -106.4342531 -39.1250695 L -106.4342886 -39.1250219 L -106.4343920 -39.1249261 L -106.4346814 -39.1250254 L -106.4346968 -39.1249938 L -106.4347886 -39.1249968 L -106.4349018 -39.1249257 L -106.4353260 -39.1249061 L -106.4357551 -39.1247721 L -106.4358949 -39.1246561 L -106.4359612 -39.1246421 L -106.4359901 -39.1245674 L -106.4362203 -39.1243262 L -106.4362938 -39.1242147 L -106.4362796 -39.1241669 L -106.4365806 -39.1241074 L -106.4366703 -39.1240485 L -106.4367041 -39.1239502 L -106.4369431 -39.1239132 L -106.4374369 -39.1240083 L -106.4379490 -39.1240273 L -106.4380042 -39.1239964 L -106.4379704 -39.1239465 L -106.4376822 -39.1236848 L -106.4376914 -39.1236253 L -106.4377312 -39.1235944 L -106.4378232 -39.1235968 L -106.4380318 -39.1236895 L -106.4384427 -39.1237585 L -106.4387156 -39.1237561 L -106.4387616 -39.1237276 L -106.4387340 -39.1236824 L -106.4384641 -39.1235730 L -106.4382648 -39.1232685 L -106.4382556 -39.1232161 L -106.4384273 -39.1231685 L -106.4385009 -39.1231733 L -106.4386328 -39.1232423 L -106.4390752 -39.1232412 L -106.4392049 -39.1232014 L -106.4394303 -39.1230751 L -106.4394284 -39.1230280 L -106.4395406 -39.1229606 L -106.4395094 -39.1229320 L -106.4395389 -39.1228801 L -106.4396939 -39.1227099 L -106.4397010 -39.1226075 L -106.4396593 -39.1225765 L -106.4397131 -39.1225184 L -106.4396722 -39.1224918 L -106.4397052 -39.1224516 L -106.4395410 -39.1222714 L -106.4399637 -39.1219514 L -106.4400653 -39.1217835 L -106.4401109 -39.1217703 L -106.4401423 -39.1216820 L -106.4401307 -39.1215878 L -106.4405303 -39.1214346 L -106.4406393 -39.1214361 L -106.4408186 -39.1213548 L -106.4408342 -39.1213150 L -106.4409232 -39.1213097 L -106.4409577 -39.1212476 L -106.4414435 -39.1210431 L -106.4414430 -39.1210036 L -106.4415630 -39.1209008 L -106.4416824 -39.1209103 L -106.4417697 -39.1207789 L -106.4418242 -39.1207844 L -106.4418694 -39.1206918 L -106.4418864 -39.1205591 L -106.4419714 -39.1204931 L -106.4421251 -39.1204500 L -106.4421821 -39.1203485 L -106.4424115 -39.1203008 L -106.4424326 -39.1202448 L -106.4426141 -39.1201836 L -106.4426314 -39.1201120 L -106.4427161 -39.1200864 L -106.4427793 -39.1199869 L -106.4430826 -39.1198632 L -106.4431090 -39.1198267 L -106.4432969 -39.1197778 L -106.4433584 -39.1197212 L -106.4437094 -39.1196226 L -106.4438904 -39.1195371 L -106.4439366 -39.1194456 L -106.4438844 -39.1193516 L -106.4439550 -39.1188505 L -106.4443025 -39.1184126 L -106.4444797 -39.1182640 L -106.4446615 -39.1181848" pathLength="1" fill="none" stroke="currentColor" vector-effect="non-scaling-stroke"/>
</svg>
