<svg xmlns="http://www.w3.org/2000/svg" viewBox="0 0 2000 2500" preserveAspectRatio="none">
  <path class="trace-underlay" d="M 265.56 445.38 L 268.92 445.48 L 276.68 442.27 L 285.48 441.81 L 318.34 445.29 L 326.25 443.11 L 345.35 441.38 L 367.42 443.79 L 371.75 449.43 L 379.51 450.34 L 390.76 445.38 L 399.12 444.92 L 413.59 440.67 L 420.75 435.62 L 433.13 431.82 L 458.79 427.46 L 474.88 415.80 L 506.66 406.03 L 515.76 406.26 L 538.28 420.96 L 538.14 425.67 L 535.93 431.50 L 538.62 453.33 L 535.93 460.22 L 536.23 470.80 L 530.39 484.32 L 528.44 493.22 L 530.91 503.23 L 535.46 510.83 L 533.25 516.83 L 521.39 533.79 L 518.26 541.82 L 519.64 546.45 L 526.65 559.65 L 537.49 562.04 L 549.70 568.04 L 553.73 571.85 L 555.03 576.25 L 551.91 579.75 L 550.22 585.35 L 550.87 591.75 L 560.48 607.02 L 559.46 615.55 L 565.22 637.53 L 569.46 642.91 L 567.78 649.05 L 571.43 661.79 L 580.81 673.88 L 588.49 675.54 L 589.96 678.05 L 588.78 681.76 L 583.55 687.23 L 585.09 704.66 L 587.94 717.00 L 585.55 728.03 L 589.39 736.45 L 608.59 759.77 L 617.13 775.48 L 635.72 793.42 L 641.39 805.48 L 643.13 819.18 L 647.85 829.35 L 658.27 845.13 L 663.94 870.89 L 677.02 895.39 L 679.39 903.88 L 689.42 915.86 L 691.19 928.15 L 696.48 945.17 L 705.90 959.29 L 709.67 976.06 L 714.39 986.38 L 714.98 990.52 L 722.74 998.56 L 722.59 1003.50 L 726.03 1008.10 L 739.75 1019.94 L 762.25 1028.54 L 777.99 1032.61 L 785.33 1036.74 L 792.78 1053.80 L 802.72 1062.38 L 807.03 1070.29 L 818.41 1076.22 L 823.14 1091.37 L 847.34 1106.56 L 850.41 1112.33 L 865.10 1130.14 L 870.03 1134.10 L 871.24 1130.42 L 875.79 1134.37 L 875.56 1130.04 L 878.65 1133.64 L 878.95 1128.82 L 882.79 1132.53 L 883.33 1128.07 L 889.74 1132.96 L 890.03 1126.21 L 895.27 1129.95 L 895.51 1125.32 L 896.77 1124.87 L 900.52 1127.83 L 902.55 1124.95 L 903.88 1126.25 L 904.89 1124.73 L 908.32 1136.98 L 911.58 1133.79 L 912.40 1134.33 L 911.14 1137.77 L 912.35 1141.08 L 919.29 1134.61 L 920.26 1139.14 L 922.39 1141.61 L 924.43 1136.74 L 926.78 1139.19 L 929.13 1135.80 L 930.82 1139.57 L 935.11 1133.82 L 938.21 1140.90 L 940.95 1139.38 L 946.91 1158.21 L 946.19 1168.05 L 948.41 1181.73 L 958.21 1202.66 L 959.98 1208.59 L 959.34 1217.06 L 963.75 1224.70 L 962.96 1229.61 L 965.22 1245.06 L 964.13 1249.53 L 965.90 1253.13 L 964.21 1275.08 L 968.31 1283.16 L 975.70 1274.18 L 976.46 1284.87 L 979.32 1288.73 L 987.28 1279.84 L 988.89 1288.67 L 993.68 1288.67 L 999.41 1282.83 L 1004.39 1280.28 L 1011.85 1284.00 L 1024.48 1294.01 L 1029.15 1303.39 L 1038.16 1312.69 L 1039.52 1322.21 L 1045.44 1327.47 L 1050.60 1338.21 L 1054.56 1339.26 L 1058.40 1337.43 L 1065.56 1328.83 L 1069.48 1327.41 L 1071.60 1324.88 L 1077.85 1323.89 L 1077.18 1321.37 L 1080.19 1319.45 L 1081.09 1316.49 L 1084.45 1316.58 L 1087.42 1319.34 L 1090.33 1317.65 L 1091.69 1320.18 L 1094.81 1319.86 L 1095.34 1315.94 L 1098.92 1319.34 L 1099.22 1316.02 L 1101.98 1317.10 L 1105.41 1321.14 L 1106.01 1320.03 L 1109.48 1320.03 L 1110.87 1317.25 L 1114.34 1319.13 L 1116.83 1322.47 L 1120.52 1319.04 L 1125.31 1321.34 L 1126.59 1325.87 L 1121.58 1338.88 L 1123.24 1346.89 L 1121.05 1351.16 L 1122.37 1353.46 L 1121.88 1362.02 L 1126.18 1372.51 L 1128.21 1382.00 L 1125.31 1387.58 L 1125.91 1390.07 L 1124.25 1397.51 L 1119.73 1406.63 L 1122.10 1412.52 L 1124.55 1411.33 L 1127.16 1425.24 L 1128.44 1426.20 L 1130.77 1423.03 L 1131.41 1425.56 L 1136.88 1423.58 L 1137.11 1434.13 L 1141.86 1450.62 L 1145.74 1458.20 L 1148.60 1460.12 L 1151.58 1458.55 L 1158.44 1469.56 L 1166.39 1466.07 L 1174.95 1459.48 L 1183.51 1457.47 L 1184.68 1458.84 L 1182.26 1465.46 L 1186.52 1465.29 L 1189.05 1468.74 L 1194.51 1469.27 L 1200.43 1474.15 L 1202.77 1473.68 L 1206.92 1476.41 L 1208.61 1480.01 L 1206.35 1480.91 L 1206.12 1482.36 L 1207.67 1483.67 L 1218.03 1486.31 L 1220.75 1488.40 L 1220.07 1492.12 L 1209.55 1497.23 L 1212.53 1501.36 L 1213.55 1512.91 L 1219.84 1517.76 L 1223.39 1524.82 L 1216.72 1529.26 L 1219.99 1530.83 L 1219.99 1532.37 L 1215.74 1540.21 L 1218.30 1544.74 L 1222.63 1544.57 L 1231.15 1547.18 L 1231.87 1556.01 L 1238.05 1557.40 L 1241.25 1563.15 L 1240.69 1570.07 L 1243.14 1574.60 L 1243.63 1581.57 L 1246.76 1583.71 L 1246.23 1587.46 L 1247.78 1588.71 L 1247.96 1590.37 L 1239.29 1597.86 L 1238.73 1601.57 L 1234.02 1609.44 L 1236.50 1613.37 L 1236.66 1621.96 L 1237.64 1624.49 L 1240.50 1623.79 L 1254.03 1616.04 L 1256.93 1615.75 L 1253.54 1622.14 L 1254.18 1628.03 L 1260.85 1624.61 L 1263.04 1625.45 L 1260.29 1634.48 L 1261.01 1637.79 L 1263.15 1638.37 L 1269.53 1636.11 L 1269.82 1638.34 L 1271.97 1639.36 L 1269.75 1643.51 L 1273.63 1643.48 L 1270.50 1649.70 L 1269.75 1655.36 L 1270.69 1659.69 L 1268.51 1662.01 L 1268.09 1666.46 L 1272.92 1670.84 L 1277.21 1679.67 L 1280.79 1680.83 L 1283.43 1686.14 L 1293.05 1689.98 L 1295.87 1692.74 L 1305.22 1687.86 L 1308.34 1684.37 L 1312.01 1684.41 L 1319.90 1679.28 L 1326.78 1678.29 L 1329.66 1675.58 L 1350.82 1676.57 L 1356.84 1671.93 L 1361.79 1672.40 L 1364.47 1670.86 L 1372.41 1670.05 L 1376.94 1672.86" pathLength="1" fill="none" vector-effect="non-scaling-stroke"/>
  <path class="trace-line" d="M 265.56 445.38 L 268.92 445.48 L 276.68 442.27 L 285.48 441.81 L 318.34 445.29 L 326.25 443.11 L 345.35 441.38 L 367.42 443.79 L 371.75 449.43 L 379.51 450.34 L 390.76 445.38 L 399.12 444.92 L 413.59 440.67 L 420.75 435.62 L 433.13 431.82 L 458.79 427.46 L 474.88 415.80 L 506.66 406.03 L 515.76 406.26 L 538.28 420.96 L 538.14 425.67 L 535.93 431.50 L 538.62 453.33 L 535.93 460.22 L 536.23 470.80 L 530.39 484.32 L 528.44 493.22 L 530.91 503.23 L 535.46 510.83 L 533.25 516.83 L 521.39 533.79 L 518.26 541.82 L 519.64 546.45 L 526.65 559.65 L 537.49 562.04 L 549.70 568.04 L 553.73 571.85 L 555.03 576.25 L 551.91 579.75 L 550.22 585.35 L 550.87 591.75 L 560.48 607.02 L 559.46 615.55 L 565.22 637.53 L 569.46 642.91 L 567.78 649.05 L 571.43 661.79 L 580.81 673.88 L 588.49 675.54 L 589.96 678.05 L 588.78 681.76 L 583.55 687.23 L 585.09 704.66 L 587.94 717.00 L 585.55 728.03 L 589.39 736.45 L 608.59 759.77 L 617.13 775.48 L 635.72 793.42 L 641.39 805.48 L 643.13 819.18 L 647.85 829.35 L 658.27 845.13 L 663.94 870.89 L 677.02 895.39 L 679.39 903.88 L 689.42 915.86 L 691.19 928.15 L 696.48 945.17 L 705.90 959.29 L 709.67 976.06 L 714.39 986.38 L 714.98 990.52 L 722.74 998.56 L 722.59 1003.50 L 726.03 1008.10 L 739.75 1019.94 L 762.25 1028.54 L 777.99 1032.61 L 785.33 1036.74 L 792.78 1053.80 L 802.72 1062.38 L 807.03 1070.29 L 818.41 1076.22 L 823.14 1091.37 L 847.34 1106.56 L 850.41 1112.33 L 865.10 1130.14 L 870.03 1134.10 L 871.24 1130.42 L 875.79 1134.37 L 875.56 1130.04 L 878.65 1133.64 L 878.95 1128.82 L 882.79 1132.53 L 883.33 1128.07 L 889.74 1132.96 L 890.03 1126.21 L 895.27 1129.95 L 895.51 1125.32 L 896.77 1124.87 L 900.52 1127.83 L 902.55 1124.95 L 903.88 1126.25 L 904.89 1124.73 L 908.32 1136.98 L 911.58 1133.79 L 912.40 1134.33 L 911.14 1137.77 L 912.35 1141.08 L 919.29 1134.61 L 920.26 1139.14 L 922.39 1141.61 L 924.43 1136.74 L 926.78 1139.19 L 929.13 1135.80 L 930.82 1139.57 L 935.11 1133.82 L 938.21 1140.90 L 940.95 1139.38 L 946.91 1158.21 L 946.19 1168.05 L 948.41 1181.73 L 958.21 1202.66 L 959.98 1208.59 L 959.34 1217.06 L 963.75 1224.70 L 962.96 1229.61 L 965.22 1245.06 L 964.13 1249.53 L 965.90 1253.13 L 964.21 1275.08 L 968.31 1283.16 L 975.70 1274.18 L 976.46 1284.87 L 979.32 1288.73 L 987.28 1279.84 L 988.89 1288.67 L 993.68 1288.67 L 999.41 1282.83 L 1004.39 1280.28 L 1011.85 1284.00 L 1024.48 1294.01 L 1029.15 1303.39 L 1038.16 1312.69 L 1039.52 1322.21 L 1045.44 1327.47 L 1050.60 1338.21 L 1054.56 1339.26 L 1058.40 1337.43 L 1065.56 1328.83 L 1069.48 1327.41 L 1071.60 1324.88 L 1077.85 1323.89 L 1077.18 1321.37 L 1080.19 1319.45 L 1081.09 1316.49 L 1084.45 1316.58 L 1087.42 1319.34 L 1090.33 1317.65 L 1091.69 1320.18 L 1094.81 1319.86 L 1095.34 1315.94 L 1098.92 1319.34 L 1099.22 1316.02 L 1101.98 1317.10 L 1105.41 1321.14 L 1106.01 1320.03 L 1109.48 1320.03 L 1110.87 1317.25 L 1114.34 1319.13 L 1116.83 1322.47 L 1120.52 1319.04 L 1125.31 1321.34 L 1126.59 1325.87 L 1121.58 1338.88 L 1123.24 1346.89 L 1121.05 1351.16 L 1122.37 1353.46 L 1121.88 1362.02 L 1126.18 1372.51 L 1128.21 1382.00 L 1125.31 1387.58 L 1125.91 1390.07 L 1124.25 1397.51 L 1119.73 1406.63 L 1122.10 1412.52 L 1124.55 1411.33 L 1127.16 1425.24 L 1128.44 1426.20 L 1130.77 1423.03 L 1131.41 1425.56 L 1136.88 1423.58 L 1137.11 1434.13 L 1141.86 1450.62 L 1145.74 1458.20 L 1148.60 1460.12 L 1151.58 1458.55 L 1158.44 1469.56 L 1166.39 1466.07 L 1174.95 1459.48 L 1183.51 1457.47 L 1184.68 1458.84 L 1182.26 1465.46 L 1186.52 1465.29 L 1189.05 1468.74 L 1194.51 1469.27 L 1200.43 1474.15 L 1202.77 1473.68 L 1206.92 1476.41 L 1208.61 1480.01 L 1206.35 1480.91 L 1206.12 1482.36 L 1207.67 1483.67 L 1218.03 1486.31 L 1220.75 1488.40 L 1220.07 1492.12 L 1209.55 1497.23 L 1212.53 1501.36 L 1213.55 1512.91 L 1219.84 1517.76 L 1223.39 1524.82 L 1216.72 1529.26 L 1219.99 1530.83 L 1219.99 1532.37 L 1215.74 1540.21 L 1218.30 1544.74 L 1222.63 1544.57 L 1231.15 1547.18 L 1231.87 1556.01 L 1238.05 1557.40 L 1241.25 1563.15 L 1240.69 1570.07 L 1243.14 1574.60 L 1243.63 1581.57 L 1246.76 1583.71 L 1246.23 1587.46 L 1247.78 1588.71 L 1247.96 1590.37 L 1239.29 1597.86 L 1238.73 1601.57 L 1234.02 1609.44 L 1236.50 1613.37 L 1236.66 1621.96 L 1237.64 1624.49 L 1240.50 1623.79 L 1254.03 1616.04 L 1256.93 1615.75 L 1253.54 1622.14 L 1254.18 1628.03 L 1260.85 1624.61 L 1263.04 1625.45 L 1260.29 1634.48 L 1261.01 1637.79 L 1263.15 1638.37 L 1269.53 1636.11 L 1269.82 1638.34 L 1271.97 1639.36 L 1269.75 1643.51 L 1273.63 1643.48 L 1270.50 1649.70 L 1269.75 1655.36 L 1270.69 1659.69 L 1268.51 1662.01 L 1268.09 1666.46 L 1272.92 1670.84 L 1277.21 1679.67 L 1280.79 1680.83 L 1283.43 1686.14 L 1293.05 1689.98 L 1295.87 1692.74 L 1305.22 1687.86 L 1308.34 1684.37 L 1312.01 1684.41 L 1319.90 1679.28 L 1326.78 1678.29 L 1329.66 1675.58 L 1350.82 1676.57 L 1356.84 1671.93 L 1361.79 1672.40 L 1364.47 1670.86 L 1372.41 1670.05 L 1376.94 1672.86" pathLength="1" fill="none" vector-effect="non-scaling-stroke"/>
</svg>
