<svg xmlns="http://www.w3.org/2000/svg" viewBox="0 0 2000 2500" preserveAspectRatio="xMidYMid slice">
  <path class="trace-line" d="M 480.08 516.54 L 483.22 516.66 L 490.48 512.76 L 498.72 512.20 L 529.46 516.43 L 536.86 513.77 L 554.73 511.68 L 575.38 514.61 L 579.43 521.45 L 586.69 522.56 L 597.22 516.54 L 605.04 515.98 L 618.58 510.82 L 625.28 504.68 L 636.86 500.07 L 660.87 494.77 L 675.92 480.61 L 705.65 468.75 L 714.17 469.03 L 735.25 486.89 L 733.04 499.68 L 735.56 526.19 L 733.04 534.56 L 733.32 547.40 L 726.04 574.63 L 728.35 586.78 L 732.60 596.01 L 730.53 603.30 L 719.44 623.89 L 716.51 633.65 L 717.80 639.27 L 724.36 655.30 L 734.51 658.20 L 745.93 665.49 L 749.70 670.11 L 750.91 675.45 L 748.00 679.70 L 746.42 686.51 L 747.02 694.28 L 756.01 712.82 L 755.06 723.18 L 760.45 749.87 L 764.41 756.41 L 762.85 763.86 L 766.25 779.33 L 775.04 794.01 L 782.22 796.03 L 783.60 799.07 L 782.50 803.58 L 777.59 810.23 L 781.71 846.37 L 779.47 859.77 L 783.06 870.00 L 801.03 898.31 L 809.01 917.39 L 826.41 939.17 L 831.72 953.82 L 833.34 970.46 L 847.51 1001.96 L 852.81 1033.25 L 865.05 1063.00 L 867.26 1073.31 L 876.66 1087.86 L 878.31 1102.78 L 883.26 1123.45 L 892.07 1140.60 L 900.57 1178.52 L 907.83 1188.29 L 907.69 1194.29 L 923.74 1214.24 L 944.80 1224.69 L 959.52 1229.63 L 966.39 1234.65 L 973.35 1255.37 L 982.66 1265.78 L 986.69 1275.39 L 997.34 1282.59 L 1001.77 1300.98 L 1024.40 1319.44 L 1027.28 1326.44 L 1041.02 1348.06 L 1045.64 1352.87 L 1046.77 1348.41 L 1051.02 1353.20 L 1050.81 1347.95 L 1053.70 1352.32 L 1053.99 1346.46 L 1057.58 1350.96 L 1058.08 1345.55 L 1064.07 1351.49 L 1064.35 1343.29 L 1069.25 1347.83 L 1069.48 1342.22 L 1070.66 1341.67 L 1074.16 1345.26 L 1076.07 1341.77 L 1077.31 1343.34 L 1078.26 1341.50 L 1081.46 1356.37 L 1085.28 1353.16 L 1084.10 1357.33 L 1085.23 1361.35 L 1091.72 1353.50 L 1094.63 1361.99 L 1096.53 1356.08 L 1098.73 1359.05 L 1100.94 1354.93 L 1102.51 1359.52 L 1106.53 1352.53 L 1109.43 1361.14 L 1111.99 1359.29 L 1117.56 1382.15 L 1116.89 1394.10 L 1118.97 1410.71 L 1128.14 1436.13 L 1129.80 1443.33 L 1129.20 1453.62 L 1133.33 1462.89 L 1132.59 1468.85 L 1134.70 1487.62 L 1133.68 1493.05 L 1135.34 1497.42 L 1133.75 1524.07 L 1137.59 1533.88 L 1144.51 1522.98 L 1145.21 1535.96 L 1147.89 1540.65 L 1155.33 1529.86 L 1156.85 1540.57 L 1161.33 1540.57 L 1166.69 1533.49 L 1171.34 1530.39 L 1178.33 1534.90 L 1190.14 1547.06 L 1194.52 1558.45 L 1202.94 1569.74 L 1204.21 1581.31 L 1209.75 1587.69 L 1214.58 1600.73 L 1218.29 1602.00 L 1221.88 1599.78 L 1228.58 1589.34 L 1232.25 1587.62 L 1234.23 1584.55 L 1240.08 1583.35 L 1239.45 1580.28 L 1242.27 1577.95 L 1243.11 1574.36 L 1246.25 1574.46 L 1249.04 1577.82 L 1251.76 1575.77 L 1253.03 1578.84 L 1255.95 1578.45 L 1256.44 1573.69 L 1259.80 1577.82 L 1260.08 1573.79 L 1265.86 1580.00 L 1266.43 1578.66 L 1269.67 1578.66 L 1270.97 1575.28 L 1276.55 1581.62 L 1280.01 1577.46 L 1284.48 1580.25 L 1285.68 1585.75 L 1280.99 1601.55 L 1282.54 1611.28 L 1280.50 1616.46 L 1281.73 1619.25 L 1281.27 1629.65 L 1287.20 1653.91 L 1284.48 1660.68 L 1283.50 1672.74 L 1279.26 1683.82 L 1281.49 1690.97 L 1283.78 1689.53 L 1286.21 1706.42 L 1287.41 1707.58 L 1289.60 1703.74 L 1290.20 1706.81 L 1295.31 1704.41 L 1295.52 1717.21 L 1299.97 1737.24 L 1303.60 1746.44 L 1306.28 1748.77 L 1309.07 1746.87 L 1315.48 1760.23 L 1322.92 1756.00 L 1330.93 1747.99 L 1338.94 1745.56 L 1340.03 1747.22 L 1337.77 1755.26 L 1341.76 1755.05 L 1344.12 1759.25 L 1349.23 1759.88 L 1354.77 1765.80 L 1356.96 1765.24 L 1360.84 1768.55 L 1362.42 1772.93 L 1360.10 1775.78 L 1361.54 1777.37 L 1371.24 1780.58 L 1373.78 1783.12 L 1373.15 1787.63 L 1363.30 1793.84 L 1366.09 1798.85 L 1367.04 1812.88 L 1372.93 1818.77 L 1376.25 1827.34 L 1370.01 1832.74 L 1373.07 1834.64 L 1373.07 1836.51 L 1369.09 1846.03 L 1371.49 1851.53 L 1375.54 1851.32 L 1383.51 1854.50 L 1384.18 1865.22 L 1389.97 1866.91 L 1392.96 1873.89 L 1392.44 1882.29 L 1394.73 1887.79 L 1395.19 1896.25 L 1398.12 1898.86 L 1397.62 1903.41 L 1399.07 1904.92 L 1399.24 1906.94 L 1391.13 1916.04 L 1386.19 1930.10 L 1388.52 1934.87 L 1388.66 1945.30 L 1389.58 1948.37 L 1392.26 1947.53 L 1404.92 1938.11 L 1407.64 1937.76 L 1404.46 1945.52 L 1405.06 1952.68 L 1411.30 1948.51 L 1413.35 1949.54 L 1410.78 1960.50 L 1411.44 1964.52 L 1413.46 1965.23 L 1419.42 1962.48 L 1419.70 1965.19 L 1421.71 1966.43 L 1419.63 1971.47 L 1423.26 1971.44 L 1420.33 1978.99 L 1420.51 1991.12 L 1418.46 1993.94 L 1418.07 1999.33 L 1422.59 2004.66 L 1426.61 2015.38 L 1429.96 2016.79 L 1432.43 2023.24 L 1441.42 2027.90 L 1444.07 2031.25 L 1452.81 2025.33 L 1455.73 2021.09 L 1459.17 2021.14 L 1466.55 2014.91 L 1472.99 2013.71 L 1475.68 2010.42 L 1495.48 2011.62 L 1501.12 2005.98 L 1505.74 2006.55 L 1508.25 2004.69 L 1515.68 2003.70 L 1519.92 2007.11" pathLength="1" fill="none" vector-effect="non-scaling-stroke"/>
  <circle class="trace-start" cx="480.08" cy="516.54" r="6.25"/>
  <circle class="trace-summit-halo" cx="1519.59" cy="2006.20" r="15.97"/>
  <circle class="trace-summit" cx="1519.59" cy="2006.20" r="9.03"/>
</svg>
