<svg xmlns="http://www.w3.org/2000/svg" viewBox="0 0 1600 900" preserveAspectRatio="xMidYMid slice">
  <path class="trace-line" d="M 416.06 -91.32 L 418.38 -91.23 L 423.74 -94.12 L 429.82 -94.53 L 452.53 -91.41 L 457.99 -93.36 L 471.18 -94.91 L 486.44 -92.75 L 489.43 -87.70 L 494.79 -86.88 L 502.56 -91.33 L 508.34 -91.74 L 518.33 -95.55 L 523.28 -100.08 L 531.84 -103.48 L 549.57 -107.39 L 560.68 -117.84 L 582.64 -126.59 L 588.92 -126.39 L 604.49 -113.21 L 602.86 -103.76 L 604.72 -84.20 L 602.86 -78.02 L 603.07 -68.55 L 597.69 -48.45 L 599.39 -39.48 L 602.53 -32.67 L 601.01 -27.29 L 592.82 -12.09 L 590.65 -4.89 L 591.60 -0.74 L 596.45 11.08 L 603.94 13.23 L 612.38 18.61 L 615.16 22.02 L 616.06 25.96 L 613.90 29.10 L 612.74 34.12 L 613.19 39.86 L 619.82 53.54 L 619.12 61.19 L 623.10 80.88 L 626.03 85.71 L 624.87 91.21 L 627.39 102.63 L 633.87 113.46 L 639.18 114.95 L 640.20 117.19 L 639.38 120.52 L 635.76 125.43 L 638.80 152.11 L 637.15 161.99 L 639.80 169.54 L 653.07 190.44 L 658.96 204.52 L 671.81 220.60 L 675.73 231.41 L 676.93 243.68 L 680.19 252.80 L 687.39 266.94 L 691.31 290.03 L 700.35 311.99 L 701.98 319.60 L 708.92 330.33 L 710.14 341.34 L 713.79 356.60 L 720.30 369.26 L 726.57 397.24 L 731.94 404.45 L 731.83 408.88 L 743.69 423.61 L 759.23 431.32 L 770.11 434.97 L 775.18 438.67 L 780.32 453.96 L 787.19 461.64 L 790.17 468.74 L 798.03 474.05 L 801.30 487.63 L 818.02 501.25 L 820.14 506.42 L 830.29 522.37 L 833.70 525.92 L 834.54 522.63 L 837.68 526.17 L 837.52 522.29 L 839.66 525.52 L 839.87 521.19 L 842.52 524.52 L 842.89 520.52 L 847.32 524.91 L 847.52 518.85 L 851.14 522.20 L 851.31 518.06 L 852.18 517.66 L 854.77 520.31 L 856.17 517.73 L 857.09 518.89 L 857.79 517.53 L 860.16 528.51 L 862.98 526.14 L 862.10 529.21 L 862.94 532.18 L 867.73 526.38 L 869.88 532.65 L 871.29 528.29 L 872.91 530.48 L 874.54 527.45 L 875.70 530.83 L 878.67 525.67 L 880.81 532.02 L 882.70 530.66 L 886.82 547.53 L 886.32 556.35 L 887.86 568.61 L 894.63 587.37 L 895.85 592.68 L 895.41 600.28 L 898.46 607.12 L 897.91 611.52 L 899.47 625.37 L 898.72 629.38 L 899.94 632.60 L 898.77 652.28 L 901.61 659.51 L 906.71 651.47 L 907.23 661.05 L 909.21 664.51 L 914.71 656.54 L 915.83 664.46 L 919.14 664.46 L 923.09 659.23 L 926.53 656.94 L 931.69 660.27 L 940.41 669.24 L 943.64 677.65 L 949.87 685.98 L 950.80 694.52 L 954.89 699.23 L 958.46 708.86 L 961.20 709.79 L 963.85 708.15 L 968.80 700.45 L 971.51 699.17 L 972.97 696.91 L 977.29 696.02 L 976.82 693.76 L 978.90 692.04 L 979.53 689.39 L 981.85 689.47 L 983.91 691.94 L 985.91 690.43 L 986.85 692.70 L 989.01 692.41 L 989.37 688.90 L 991.85 691.94 L 992.06 688.97 L 996.33 693.55 L 996.75 692.56 L 999.14 692.56 L 1000.10 690.07 L 1004.22 694.75 L 1006.77 691.68 L 1010.08 693.74 L 1010.96 697.79 L 1007.50 709.46 L 1008.65 716.64 L 1007.14 720.46 L 1008.05 722.52 L 1007.71 730.20 L 1012.08 748.10 L 1010.08 753.10 L 1009.35 762.00 L 1006.23 770.17 L 1007.87 775.46 L 1009.56 774.39 L 1011.36 786.86 L 1012.24 787.71 L 1013.86 784.88 L 1014.30 787.14 L 1018.07 785.37 L 1018.23 794.82 L 1021.51 809.60 L 1024.20 816.40 L 1026.17 818.11 L 1028.23 816.71 L 1032.97 826.57 L 1038.47 823.45 L 1044.38 817.54 L 1050.29 815.74 L 1051.10 816.97 L 1049.43 822.90 L 1052.37 822.75 L 1054.12 825.84 L 1057.90 826.31 L 1061.98 830.69 L 1063.60 830.27 L 1066.47 832.71 L 1067.64 835.94 L 1065.92 838.05 L 1066.98 839.22 L 1074.15 841.59 L 1076.02 843.46 L 1075.55 846.79 L 1068.29 851.38 L 1070.34 855.07 L 1071.05 865.43 L 1075.40 869.78 L 1077.84 876.10 L 1073.24 880.08 L 1075.50 881.49 L 1075.50 882.87 L 1072.56 889.90 L 1074.33 893.96 L 1077.32 893.80 L 1083.21 896.14 L 1083.70 904.05 L 1087.98 905.30 L 1090.19 910.46 L 1089.80 916.65 L 1091.49 920.71 L 1091.83 926.96 L 1093.99 928.88 L 1093.63 932.24 L 1094.70 933.36 L 1094.83 934.85 L 1088.83 941.56 L 1085.19 951.94 L 1086.91 955.46 L 1087.01 963.16 L 1087.69 965.43 L 1089.67 964.80 L 1099.02 957.85 L 1101.02 957.59 L 1098.68 963.32 L 1099.12 968.60 L 1103.73 965.53 L 1105.24 966.29 L 1103.34 974.38 L 1103.84 977.35 L 1105.32 977.87 L 1109.72 975.84 L 1109.93 977.84 L 1111.41 978.75 L 1109.88 982.48 L 1112.56 982.45 L 1110.40 988.02 L 1110.53 996.98 L 1109.02 999.06 L 1108.73 1003.04 L 1112.07 1006.97 L 1115.03 1014.88 L 1117.51 1015.92 L 1119.33 1020.69 L 1125.97 1024.12 L 1127.93 1026.59 L 1134.39 1022.22 L 1136.54 1019.10 L 1139.08 1019.14 L 1144.53 1014.53 L 1149.28 1013.65 L 1151.27 1011.22 L 1165.89 1012.10 L 1170.05 1007.94 L 1173.47 1008.37 L 1175.32 1006.99 L 1180.81 1006.26 L 1183.94 1008.78" pathLength="1" fill="none" vector-effect="non-scaling-stroke"/>
  <circle class="trace-start" cx="416.06" cy="-91.32" r="4.62"/>
  <circle class="trace-summit-halo" cx="1183.70" cy="1008.11" r="11.79"/>
  <circle class="trace-summit" cx="1183.70" cy="1008.11" r="6.67"/>
</svg>
