<svg xmlns="http://www.w3.org/2000/svg" viewBox="-106.5061479 -39.0676402 0.0361718 0.0422227" preserveAspectRatio="xMidYMid meet">
  <path class="trace-line" d="M -106.5031336 -39.0630454 L -106.5030425 -39.0630427 L -106.5028321 -39.0631306 L -106.5025934 -39.0631432 L -106.5017021 -39.0630480 L -106.5014876 -39.0631077 L -106.5009697 -39.0631549 L -106.5003709 -39.0630889 L -106.5002535 -39.0629349 L -106.5000431 -39.0629098 L -106.4997379 -39.0630455 L -106.4995113 -39.0630581 L -106.4991188 -39.0631743 L -106.4989246 -39.0633125 L -106.4985887 -39.0634162 L -106.4978928 -39.0635356 L -106.4974565 -39.0638545 L -106.4965946 -39.0641216 L -106.4963478 -39.0641153 L -106.4957368 -39.0637132 L -106.4957408 -39.0635844 L -106.4958006 -39.0634250 L -106.4957278 -39.0628281 L -106.4958006 -39.0626396 L -106.4957925 -39.0623505 L -106.4959509 -39.0619806 L -106.4960037 -39.0617372 L -106.4959368 -39.0614636 L -106.4958135 -39.0612558 L -106.4958734 -39.0610917 L -106.4961949 -39.0606280 L -106.4962800 -39.0604082 L -106.4962426 -39.0602817 L -106.4960523 -39.0599208 L -106.4957582 -39.0598553 L -106.4954271 -39.0596912 L -106.4953179 -39.0595872 L -106.4952826 -39.0594669 L -106.4953672 -39.0593712 L -106.4954130 -39.0592180 L -106.4953954 -39.0590429 L -106.4951348 -39.0586255 L -106.4951624 -39.0583921 L -106.4950061 -39.0577911 L -106.4948913 -39.0576439 L -106.4949367 -39.0574760 L -106.4948379 -39.0571277 L -106.4945833 -39.0567972 L -106.4943751 -39.0567516 L -106.4943351 -39.0566832 L -106.4943671 -39.0565816 L -106.4945092 -39.0564319 L -106.4944674 -39.0559555 L -106.4943899 -39.0556180 L -106.4944547 -39.0553164 L -106.4943507 -39.0550860 L -106.4938299 -39.0544485 L -106.4935984 -39.0540188 L -106.4930940 -39.0535283 L -106.4929402 -39.0531984 L -106.4928931 -39.0528238 L -106.4927652 -39.0525458 L -106.4924825 -39.0521143 L -106.4923288 -39.0514097 L -106.4919739 -39.0507398 L -106.4919098 -39.0505076 L -106.4916375 -39.0501800 L -106.4915895 -39.0498441 L -106.4914462 -39.0493786 L -106.4911906 -39.0489924 L -106.4910883 -39.0485339 L -106.4909604 -39.0482516 L -106.4909443 -39.0481385 L -106.4907338 -39.0479185 L -106.4907379 -39.0477834 L -106.4906448 -39.0476577 L -106.4902726 -39.0473340 L -106.4896623 -39.0470987 L -106.4892353 -39.0469874 L -106.4890363 -39.0468744 L -106.4888344 -39.0464079 L -106.4885647 -39.0461735 L -106.4884478 -39.0459571 L -106.4881392 -39.0457949 L -106.4880108 -39.0453807 L -106.4873546 -39.0449652 L -106.4872713 -39.0448074 L -106.4868729 -39.0443206 L -106.4867391 -39.0442123 L -106.4867062 -39.0443128 L -106.4865829 -39.0442048 L -106.4865891 -39.0443232 L -106.4865052 -39.0442247 L -106.4864970 -39.0443567 L -106.4863929 -39.0442552 L -106.4863784 -39.0443771 L -106.4862046 -39.0442433 L -106.4861967 -39.0444280 L -106.4860546 -39.0443258 L -106.4860479 -39.0444522 L -106.4860137 -39.0444645 L -106.4859122 -39.0443836 L -106.4858570 -39.0444623 L -106.4858210 -39.0444269 L -106.4857935 -39.0444683 L -106.4857005 -39.0441334 L -106.4856120 -39.0442207 L -106.4855899 -39.0442058 L -106.4856241 -39.0441119 L -106.4855912 -39.0440213 L -106.4854031 -39.0441982 L -106.4853768 -39.0440743 L -106.4853189 -39.0440069 L -106.4852637 -39.0441400 L -106.4851999 -39.0440731 L -106.4851360 -39.0441658 L -106.4850904 -39.0440626 L -106.4849739 -39.0442199 L -106.4848898 -39.0440261 L -106.4848156 -39.0440678 L -106.4846540 -39.0435530 L -106.4846735 -39.0432838 L -106.4846132 -39.0429098 L -106.4843473 -39.0423373 L -106.4842993 -39.0421753 L -106.4843167 -39.0419435 L -106.4841971 -39.0417347 L -106.4842185 -39.0416005 L -106.4841572 -39.0411780 L -106.4841868 -39.0410557 L -106.4841388 -39.0409573 L -106.4841848 -39.0403570 L -106.4840734 -39.0401362 L -106.4838730 -39.0403816 L -106.4838525 -39.0400894 L -106.4837748 -39.0399838 L -106.4835591 -39.0402268 L -106.4835152 -39.0399854 L -106.4833853 -39.0399854 L -106.4832299 -39.0401450 L -106.4830950 -39.0402148 L -106.4828926 -39.0401132 L -106.4825501 -39.0398393 L -106.4824233 -39.0395828 L -106.4821790 -39.0393287 L -106.4821422 -39.0390682 L -106.4819816 -39.0389245 L -106.4818416 -39.0386307 L -106.4817342 -39.0386021 L -106.4816300 -39.0386521 L -106.4814357 -39.0388872 L -106.4813294 -39.0389261 L -106.4812721 -39.0389952 L -106.4811024 -39.0390222 L -106.4811208 -39.0390912 L -106.4810391 -39.0391437 L -106.4810145 -39.0392247 L -106.4809235 -39.0392223 L -106.4808428 -39.0391468 L -106.4807640 -39.0391929 L -106.4807272 -39.0391238 L -106.4806424 -39.0391325 L -106.4806281 -39.0392397 L -106.4805309 -39.0391468 L -106.4805228 -39.0392374 L -106.4804481 -39.0392080 L -106.4803551 -39.0390976 L -106.4803387 -39.0391278 L -106.4802447 -39.0391278 L -106.4802069 -39.0392040 L -106.4801128 -39.0391524 L -106.4800453 -39.0390611 L -106.4799451 -39.0391548 L -106.4798153 -39.0390920 L -106.4797806 -39.0389682 L -106.4799165 -39.0386124 L -106.4798715 -39.0383933 L -106.4799308 -39.0382765 L -106.4798951 -39.0382138 L -106.4799083 -39.0379795 L -106.4797918 -39.0376929 L -106.4797366 -39.0374332 L -106.4798153 -39.0372807 L -106.4798439 -39.0370092 L -106.4799666 -39.0367598 L -106.4799022 -39.0365986 L -106.4798358 -39.0366312 L -106.4797652 -39.0362508 L -106.4797305 -39.0362246 L -106.4796671 -39.0363112 L -106.4796497 -39.0362421 L -106.4795015 -39.0362961 L -106.4794953 -39.0360078 L -106.4793665 -39.0355568 L -106.4792612 -39.0353495 L -106.4791835 -39.0352971 L -106.4791027 -39.0353400 L -106.4789167 -39.0350390 L -106.4787010 -39.0351343 L -106.4784689 -39.0353146 L -106.4782368 -39.0353694 L -106.4782051 -39.0353320 L -106.4782706 -39.0351510 L -106.4781550 -39.0351557 L -106.4780865 -39.0350612 L -106.4779383 -39.0350469 L -106.4777778 -39.0349135 L -106.4777144 -39.0349262 L -106.4776019 -39.0348516 L -106.4775559 -39.0347531 L -106.4776173 -39.0347285 L -106.4776234 -39.0346888 L -106.4775815 -39.0346531 L -106.4773004 -39.0345808 L -106.4772267 -39.0345236 L -106.4772451 -39.0344220 L -106.4775304 -39.0342822 L -106.4774496 -39.0341694 L -106.4774220 -39.0338534 L -106.4772513 -39.0337208 L -106.4771552 -39.0335278 L -106.4773361 -39.0334063 L -106.4772472 -39.0333634 L -106.4772472 -39.0333213 L -106.4773627 -39.0331069 L -106.4772932 -39.0329830 L -106.4771756 -39.0329878 L -106.4769446 -39.0329163 L -106.4769252 -39.0326749 L -106.4767575 -39.0326368 L -106.4766706 -39.0324795 L -106.4766859 -39.0322905 L -106.4766195 -39.0321666 L -106.4766062 -39.0319760 L -106.4765213 -39.0319173 L -106.4765356 -39.0318148 L -106.4764937 -39.0317807 L -106.4764886 -39.0317354 L -106.4767238 -39.0315305 L -106.4767391 -39.0314289 L -106.4768669 -39.0312137 L -106.4767994 -39.0311064 L -106.4767953 -39.0308714 L -106.4767687 -39.0308023 L -106.4766910 -39.0308213 L -106.4763240 -39.0310334 L -106.4762453 -39.0310413 L -106.4763373 -39.0308666 L -106.4763199 -39.0307054 L -106.4761390 -39.0307991 L -106.4760797 -39.0307761 L -106.4761543 -39.0305291 L -106.4761349 -39.0304386 L -106.4760766 -39.0304227 L -106.4759038 -39.0304846 L -106.4758957 -39.0304235 L -106.4758374 -39.0303957 L -106.4758977 -39.0302821 L -106.4757924 -39.0302829 L -106.4758773 -39.0301129 L -106.4758721 -39.0298397 L -106.4759314 -39.0297762 L -106.4759427 -39.0296547 L -106.4758118 -39.0295348 L -106.4756953 -39.0292934 L -106.4755982 -39.0292616 L -106.4755266 -39.0291163 L -106.4752659 -39.0290114 L -106.4751892 -39.0289360 L -106.4749357 -39.0290694 L -106.4748511 -39.0291648 L -106.4747514 -39.0291636 L -106.4745374 -39.0293040 L -106.4743509 -39.0293310 L -106.4742728 -39.0294051 L -106.4736988 -39.0293781 L -106.4735355 -39.0295051 L -106.4734014 -39.0294921 L -106.4733287 -39.0295342 L -106.4731133 -39.0295564 L -106.4729904 -39.0294795" pathLength="1" fill="none" stroke="currentColor" vector-effect="non-scaling-stroke"/>
  <circle class="trace-start" cx="-106.5031336" cy="-39.0630454" r="0.0003800"/>
  <circle class="trace-summit-halo" cx="-106.4730000" cy="-39.0295000" r="0.0009690"/>
  <circle class="trace-summit" cx="-106.4730000" cy="-39.0295000" r="0.0005510"/>
</svg>
