<svg xmlns="http://www.w3.org/2000/svg" viewBox="0 0 1600 900" preserveAspectRatio="xMidYMid slice">
  <path class="trace-line" d="M 1300.00 -60.34 L 1294.17 -57.88 L 1287.53 -49.64 L 1286.57 -45.98 L 1281.80 -36.79 L 1280.89 -33.13 L 1280.17 -28.02 L 1277.95 -1.87 L 1279.35 4.94 L 1282.32 9.77 L 1278.74 24.21 L 1272.56 35.33 L 1266.51 54.87 L 1251.80 72.14 L 1245.62 83.59 L 1242.59 100.45 L 1238.05 109.18 L 1206.80 145.13 L 1201.64 157.34 L 1195.35 166.56 L 1172.95 179.37 L 1158.62 181.15 L 1148.95 172.30 L 1146.42 167.05 L 1139.02 162.29 L 1135.00 163.84 L 1105.06 189.01 L 1090.99 197.36 L 1088.81 197.17 L 1081.70 184.85 L 1074.77 161.72 L 1073.93 152.54 L 1069.24 149.25 L 1066.50 150.19 L 1046.69 178.58 L 1041.22 188.90 L 1019.96 210.06 L 1015.30 217.17 L 1008.71 229.11 L 1002.71 251.45 L 995.40 261.58 L 988.41 267.33 L 974.35 285.01 L 935.35 313.74 L 931.30 319.79 L 922.82 340.43 L 917.75 359.82 L 912.60 364.09 L 903.08 381.85 L 891.05 392.06 L 879.72 409.03 L 873.54 415.08 L 869.99 422.82 L 857.58 434.58 L 843.57 441.68 L 826.01 447.51 L 817.59 452.99 L 808.36 454.54 L 800.35 458.28 L 777.40 463.38 L 761.20 459.26 L 751.65 459.49 L 745.86 461.53 L 724.54 458.77 L 702.60 460.36 L 686.44 467.84 L 686.70 472.38 L 679.27 476.50 L 657.34 492.11 L 649.83 500.72 L 648.40 507.34 L 640.19 510.25 L 630.95 519.62 L 626.41 521.17 L 623.70 525.48 L 612.31 532.55 L 604.45 534.21 L 594.37 540.75 L 585.02 542.98 L 569.00 554.55 L 560.12 568.61 L 553.60 574.54 L 548.62 583.65 L 547.80 596.31 L 552.29 601.08 L 560.50 615.74 L 566.44 621.11 L 573.29 623.75 L 572.79 633.43 L 565.65 643.64 L 538.77 670.85 L 524.62 687.78 L 511.60 695.68 L 497.97 708.08 L 499.04 721.20 L 506.79 722.18 L 515.76 717.45 L 522.81 717.64 L 524.79 722.93 L 522.32 735.22 L 516.93 742.25 L 514.48 752.08 L 509.01 759.86 L 490.13 778.38 L 492.64 782.92 L 459.81 809.34 L 441.43 816.29 L 448.69 820.41 L 452.53 825.02 L 442.45 830.47 L 442.34 835.42 L 418.31 842.22 L 400.83 842.79 L 392.74 842.03 L 385.02 845.10 L 373.45 840.94 L 371.42 841.47 L 376.02 849.33 L 365.53 852.31 L 343.37 846.30 L 331.40 840.90 L 318.58 831.45 L 305.71 816.22 L 304.81 819.96 L 304.81 850.80 L 307.81 856.59 L 303.41 862.29 L 300.00 873.71 L 314.83 886.56 L 316.40 891.40 L 311.36 896.16 L 315.15 900.51 L 309.32 905.42 L 306.52 912.90 L 310.22 913.92 L 317.91 921.26 L 323.85 932.33 L 324.84 942.31 L 321.03 944.99 L 323.91 951.61 L 330.20 956.94 L 335.80 960.34" pathLength="1" fill="none" vector-effect="non-scaling-stroke"/>
  <circle class="trace-start" cx="1300.00" cy="-60.34" r="4.62"/>
  <circle class="trace-summit-halo" cx="335.85" cy="957.69" r="11.79"/>
  <circle class="trace-summit" cx="335.85" cy="957.69" r="6.67"/>
</svg>
