<svg xmlns="http://www.w3.org/2000/svg" viewBox="0 0 2000 2500" preserveAspectRatio="none">
  <path class="trace-underlay" d="M 1628.53 542.83 L 1622.05 544.94 L 1614.67 552.00 L 1613.60 555.14 L 1608.29 563.00 L 1607.29 566.14 L 1606.48 570.51 L 1604.02 592.92 L 1605.57 598.75 L 1608.88 602.89 L 1604.89 615.26 L 1598.03 624.78 L 1591.30 641.52 L 1574.95 656.31 L 1568.09 666.12 L 1564.72 680.56 L 1559.67 688.04 L 1524.93 718.83 L 1519.20 729.29 L 1512.21 737.19 L 1487.31 748.17 L 1471.39 749.69 L 1460.64 742.11 L 1457.82 737.61 L 1449.60 733.53 L 1445.13 734.86 L 1411.85 756.42 L 1396.22 763.58 L 1393.79 763.42 L 1385.89 752.86 L 1378.18 733.05 L 1377.24 725.18 L 1372.03 722.36 L 1368.99 723.17 L 1346.98 747.49 L 1340.89 756.33 L 1317.26 774.46 L 1312.08 780.54 L 1304.76 790.78 L 1298.09 809.91 L 1289.97 818.59 L 1282.20 823.51 L 1266.56 838.66 L 1223.21 863.27 L 1218.71 868.45 L 1209.29 886.13 L 1203.66 902.74 L 1197.93 906.39 L 1187.34 921.61 L 1173.97 930.35 L 1161.38 944.89 L 1154.52 950.07 L 1150.57 956.71 L 1136.78 966.78 L 1121.20 972.86 L 1101.68 977.85 L 1092.33 982.54 L 1082.06 983.87 L 1073.16 987.08 L 1047.65 991.45 L 1029.65 987.92 L 1019.03 988.11 L 1012.59 989.86 L 988.89 987.50 L 964.52 988.86 L 946.55 995.27 L 946.84 999.15 L 938.59 1002.68 L 914.21 1016.05 L 905.86 1023.44 L 904.27 1029.10 L 895.14 1031.60 L 884.88 1039.63 L 879.83 1040.95 L 876.82 1044.64 L 864.16 1050.70 L 855.42 1052.12 L 844.22 1057.72 L 833.83 1059.63 L 816.02 1069.54 L 806.15 1081.59 L 798.90 1086.67 L 793.36 1094.47 L 792.45 1105.32 L 797.44 1109.40 L 806.57 1121.96 L 813.17 1126.56 L 820.78 1128.82 L 820.23 1137.11 L 812.30 1145.85 L 782.42 1169.17 L 766.68 1183.67 L 752.21 1190.44 L 737.06 1201.06 L 738.26 1212.29 L 746.87 1213.13 L 756.84 1209.09 L 764.68 1209.25 L 766.88 1213.78 L 764.13 1224.30 L 758.14 1230.33 L 755.42 1238.74 L 749.33 1245.41 L 728.35 1261.28 L 731.14 1265.16 L 694.65 1287.79 L 674.23 1293.75 L 682.29 1297.28 L 686.56 1301.23 L 675.36 1305.89 L 675.23 1310.13 L 648.52 1315.96 L 629.10 1316.45 L 620.10 1315.80 L 611.52 1318.42 L 598.67 1314.86 L 596.40 1315.32 L 601.51 1322.05 L 589.86 1324.61 L 565.22 1319.46 L 551.92 1314.83 L 537.67 1306.74 L 523.37 1293.69 L 522.36 1296.89 L 522.36 1323.31 L 525.70 1328.27 L 520.81 1333.15 L 517.02 1342.93 L 533.50 1353.94 L 535.25 1358.09 L 529.65 1362.16 L 533.85 1365.89 L 527.38 1370.10 L 524.27 1376.51 L 528.38 1377.38 L 536.93 1383.66 L 543.53 1393.15 L 544.63 1401.70 L 540.39 1404.00 L 543.60 1409.66 L 550.59 1414.23 L 556.81 1417.14" pathLength="1" fill="none" vector-effect="non-scaling-stroke"/>
  <path class="trace-line" d="M 1628.53 542.83 L 1622.05 544.94 L 1614.67 552.00 L 1613.60 555.14 L 1608.29 563.00 L 1607.29 566.14 L 1606.48 570.51 L 1604.02 592.92 L 1605.57 598.75 L 1608.88 602.89 L 1604.89 615.26 L 1598.03 624.78 L 1591.30 641.52 L 1574.95 656.31 L 1568.09 666.12 L 1564.72 680.56 L 1559.67 688.04 L 1524.93 718.83 L 1519.20 729.29 L 1512.21 737.19 L 1487.31 748.17 L 1471.39 749.69 L 1460.64 742.11 L 1457.82 737.61 L 1449.60 733.53 L 1445.13 734.86 L 1411.85 756.42 L 1396.22 763.58 L 1393.79 763.42 L 1385.89 752.86 L 1378.18 733.05 L 1377.24 725.18 L 1372.03 722.36 L 1368.99 723.17 L 1346.98 747.49 L 1340.89 756.33 L 1317.26 774.46 L 1312.08 780.54 L 1304.76 790.78 L 1298.09 809.91 L 1289.97 818.59 L 1282.20 823.51 L 1266.56 838.66 L 1223.21 863.27 L 1218.71 868.45 L 1209.29 886.13 L 1203.66 902.74 L 1197.93 906.39 L 1187.34 921.61 L 1173.97 930.35 L 1161.38 944.89 L 1154.52 950.07 L 1150.57 956.71 L 1136.78 966.78 L 1121.20 972.86 L 1101.68 977.85 L 1092.33 982.54 L 1082.06 983.87 L 1073.16 987.08 L 1047.65 991.45 L 1029.65 987.92 L 1019.03 988.11 L 1012.59 989.86 L 988.89 987.50 L 964.52 988.86 L 946.55 995.27 L 946.84 999.15 L 938.59 1002.68 L 914.21 1016.05 L 905.86 1023.44 L 904.27 1029.10 L 895.14 1031.60 L 884.88 1039.63 L 879.83 1040.95 L 876.82 1044.64 L 864.16 1050.70 L 855.42 1052.12 L 844.22 1057.72 L 833.83 1059.63 L 816.02 1069.54 L 806.15 1081.59 L 798.90 1086.67 L 793.36 1094.47 L 792.45 1105.32 L 797.44 1109.40 L 806.57 1121.96 L 813.17 1126.56 L 820.78 1128.82 L 820.23 1137.11 L 812.30 1145.85 L 782.42 1169.17 L 766.68 1183.67 L 752.21 1190.44 L 737.06 1201.06 L 738.26 1212.29 L 746.87 1213.13 L 756.84 1209.09 L 764.68 1209.25 L 766.88 1213.78 L 764.13 1224.30 L 758.14 1230.33 L 755.42 1238.74 L 749.33 1245.41 L 728.35 1261.28 L 731.14 1265.16 L 694.65 1287.79 L 674.23 1293.75 L 682.29 1297.28 L 686.56 1301.23 L 675.36 1305.89 L 675.23 1310.13 L 648.52 1315.96 L 629.10 1316.45 L 620.10 1315.80 L 611.52 1318.42 L 598.67 1314.86 L 596.40 1315.32 L 601.51 1322.05 L 589.86 1324.61 L 565.22 1319.46 L 551.92 1314.83 L 537.67 1306.74 L 523.37 1293.69 L 522.36 1296.89 L 522.36 1323.31 L 525.70 1328.27 L 520.81 1333.15 L 517.02 1342.93 L 533.50 1353.94 L 535.25 1358.09 L 529.65 1362.16 L 533.85 1365.89 L 527.38 1370.10 L 524.27 1376.51 L 528.38 1377.38 L 536.93 1383.66 L 543.53 1393.15 L 544.63 1401.70 L 540.39 1404.00 L 543.60 1409.66 L 550.59 1414.23 L 556.81 1417.14" pathLength="1" fill="none" vector-effect="non-scaling-stroke"/>
</svg>
