<svg xmlns="http://www.w3.org/2000/svg" viewBox="0 0 2000 2500" preserveAspectRatio="xMidYMid slice">
  <path class="trace-line" d="M 1677.08 558.52 L 1669.20 561.85 L 1660.20 573.02 L 1658.90 577.98 L 1652.43 590.43 L 1651.21 595.40 L 1650.22 602.31 L 1647.23 637.75 L 1649.12 646.97 L 1653.14 653.52 L 1648.29 673.09 L 1639.93 688.14 L 1631.73 714.62 L 1611.81 738.02 L 1603.45 753.54 L 1599.35 776.38 L 1593.19 788.21 L 1550.87 836.92 L 1543.89 853.46 L 1535.37 865.95 L 1505.04 883.31 L 1485.64 885.72 L 1472.54 873.74 L 1469.11 866.62 L 1459.09 860.17 L 1453.65 862.27 L 1413.10 896.37 L 1394.05 907.69 L 1391.10 907.44 L 1381.47 890.74 L 1372.09 859.40 L 1370.94 846.95 L 1364.59 842.50 L 1360.88 843.78 L 1334.07 882.24 L 1326.65 896.22 L 1297.86 924.90 L 1291.55 934.53 L 1282.63 950.71 L 1274.51 980.98 L 1264.61 994.70 L 1255.14 1002.49 L 1236.09 1026.45 L 1183.28 1065.38 L 1177.80 1073.57 L 1166.32 1101.53 L 1159.46 1127.81 L 1152.48 1133.59 L 1139.58 1157.66 L 1123.29 1171.49 L 1107.95 1194.49 L 1099.59 1202.68 L 1094.78 1213.18 L 1077.98 1229.10 L 1059.00 1238.73 L 1035.22 1246.62 L 1023.82 1254.05 L 1011.32 1256.15 L 1000.47 1261.22 L 969.39 1268.13 L 947.46 1262.55 L 934.53 1262.85 L 926.68 1265.62 L 897.81 1261.88 L 868.11 1264.03 L 846.22 1274.17 L 846.57 1280.32 L 836.52 1285.90 L 806.82 1307.05 L 796.64 1318.73 L 794.71 1327.69 L 783.59 1331.63 L 771.08 1344.33 L 764.93 1346.43 L 761.26 1352.27 L 745.84 1361.85 L 735.19 1364.10 L 721.55 1372.96 L 708.89 1375.98 L 687.19 1391.65 L 675.16 1410.71 L 666.33 1418.75 L 659.58 1431.09 L 658.48 1448.25 L 664.55 1454.70 L 675.68 1474.57 L 683.72 1481.84 L 692.99 1485.43 L 692.32 1498.54 L 682.66 1512.36 L 646.25 1549.24 L 627.09 1572.18 L 609.46 1582.88 L 591.00 1599.68 L 592.46 1617.45 L 602.95 1618.78 L 615.10 1612.38 L 624.64 1612.64 L 627.32 1619.81 L 623.97 1636.45 L 616.67 1645.98 L 613.36 1659.29 L 605.95 1669.84 L 580.39 1694.94 L 583.78 1701.08 L 539.33 1736.88 L 514.44 1746.31 L 524.26 1751.89 L 529.47 1758.14 L 515.82 1765.51 L 515.66 1772.22 L 483.13 1781.44 L 459.46 1782.21 L 448.50 1781.18 L 438.05 1785.33 L 422.39 1779.70 L 419.63 1780.41 L 425.86 1791.07 L 411.66 1795.11 L 381.64 1786.97 L 365.43 1779.65 L 348.08 1766.84 L 330.65 1746.20 L 329.42 1751.27 L 329.42 1793.06 L 333.49 1800.90 L 327.53 1808.63 L 322.92 1824.10 L 342.99 1841.51 L 345.12 1848.07 L 338.30 1854.52 L 343.43 1860.41 L 335.54 1867.07 L 331.75 1877.21 L 336.76 1878.59 L 347.17 1888.52 L 355.22 1903.53 L 356.56 1917.05 L 351.39 1920.69 L 355.30 1929.65 L 363.82 1936.87 L 371.39 1941.48" pathLength="1" fill="none" vector-effect="non-scaling-stroke"/>
  <circle class="trace-start" cx="1677.08" cy="558.52" r="6.25"/>
  <circle class="trace-summit-halo" cx="371.47" cy="1937.89" r="15.97"/>
  <circle class="trace-summit" cx="371.47" cy="1937.89" r="9.03"/>
</svg>
