<svg xmlns="http://www.w3.org/2000/svg" viewBox="-105.8222644 -39.6635344 0.0412008 0.0324048" preserveAspectRatio="xMidYMid meet">
  <path d="M -105.7844970 -39.6608340 L -105.7846970 -39.6607690 L -105.7849250 -39.6605510 L -105.7849580 -39.6604540 L -105.7851220 -39.6602110 L -105.7851530 -39.6601140 L -105.7851780 -39.6599790 L -105.7852540 -39.6592870 L -105.7852060 -39.6591070 L -105.7851040 -39.6589790 L -105.7852270 -39.6585970 L -105.7854390 -39.6583030 L -105.7856470 -39.6577860 L -105.7861520 -39.6573290 L -105.7863640 -39.6570260 L -105.7864680 -39.6565800 L -105.7866240 -39.6563490 L -105.7876970 -39.6553980 L -105.7878740 -39.6550750 L -105.7880900 -39.6548310 L -105.7888590 -39.6544920 L -105.7893510 -39.6544450 L -105.7896830 -39.6546790 L -105.7897700 -39.6548180 L -105.7900240 -39.6549440 L -105.7901620 -39.6549030 L -105.7911900 -39.6542370 L -105.7916730 -39.6540160 L -105.7917480 -39.6540210 L -105.7919920 -39.6543470 L -105.7922300 -39.6549590 L -105.7922590 -39.6552020 L -105.7924200 -39.6552890 L -105.7925140 -39.6552640 L -105.7931940 -39.6545130 L -105.7933820 -39.6542400 L -105.7941120 -39.6536800 L -105.7942720 -39.6534920 L -105.7944980 -39.6531760 L -105.7947040 -39.6525850 L -105.7949550 -39.6523170 L -105.7951950 -39.6521650 L -105.7956780 -39.6516970 L -105.7970170 -39.6509370 L -105.7971560 -39.6507770 L -105.7974470 -39.6502310 L -105.7976210 -39.6497180 L -105.7977980 -39.6496050 L -105.7981250 -39.6491350 L -105.7985380 -39.6488650 L -105.7989270 -39.6484160 L -105.7991390 -39.6482560 L -105.7992610 -39.6480510 L -105.7996870 -39.6477400 L -105.8001680 -39.6475520 L -105.8007710 -39.6473980 L -105.8010600 -39.6472530 L -105.8013770 -39.6472120 L -105.8016520 -39.6471130 L -105.8024400 -39.6469780 L -105.8029960 -39.6470870 L -105.8033240 -39.6470810 L -105.8035230 -39.6470270 L -105.8042550 -39.6471000 L -105.8050080 -39.6470580 L -105.8055630 -39.6468600 L -105.8055540 -39.6467400 L -105.8058090 -39.6466310 L -105.8065620 -39.6462180 L -105.8068200 -39.6459900 L -105.8068690 -39.6458150 L -105.8071510 -39.6457380 L -105.8074680 -39.6454900 L -105.8076240 -39.6454490 L -105.8077170 -39.6453350 L -105.8081080 -39.6451480 L -105.8083780 -39.6451040 L -105.8087240 -39.6449310 L -105.8090450 -39.6448720 L -105.8095950 -39.6445660 L -105.8099000 -39.6441940 L -105.8101240 -39.6440370 L -105.8102950 -39.6437960 L -105.8103230 -39.6434610 L -105.8101690 -39.6433350 L -105.8098870 -39.6429470 L -105.8096830 -39.6428050 L -105.8094480 -39.6427350 L -105.8094650 -39.6424790 L -105.8097100 -39.6422090 L -105.8106330 -39.6414890 L -105.8111190 -39.6410410 L -105.8115660 -39.6408320 L -105.8120340 -39.6405040 L -105.8119970 -39.6401570 L -105.8117310 -39.6401310 L -105.8114230 -39.6402560 L -105.8111810 -39.6402510 L -105.8111130 -39.6401110 L -105.8111980 -39.6397860 L -105.8113830 -39.6396000 L -105.8114670 -39.6393400 L -105.8116550 -39.6391340 L -105.8123030 -39.6386440 L -105.8122170 -39.6385240 L -105.8133440 -39.6378250 L -105.8139750 -39.6376410 L -105.8137260 -39.6375320 L -105.8135940 -39.6374100 L -105.8139400 -39.6372660 L -105.8139440 -39.6371350 L -105.8147690 -39.6369550 L -105.8153690 -39.6369400 L -105.8156470 -39.6369600 L -105.8159120 -39.6368790 L -105.8163090 -39.6369890 L -105.8163790 -39.6369750 L -105.8162210 -39.6367670 L -105.8165810 -39.6366880 L -105.8173420 -39.6368470 L -105.8177530 -39.6369900 L -105.8181930 -39.6372400 L -105.8186350 -39.6376430 L -105.8186660 -39.6375440 L -105.8186660 -39.6367280 L -105.8185630 -39.6365750 L -105.8187140 -39.6364240 L -105.8188310 -39.6361220 L -105.8183220 -39.6357820 L -105.8182680 -39.6356540 L -105.8184410 -39.6355280 L -105.8183110 -39.6354130 L -105.8185110 -39.6352830 L -105.8186070 -39.6350850 L -105.8184800 -39.6350580 L -105.8182160 -39.6348640 L -105.8180120 -39.6345710 L -105.8179780 -39.6343070 L -105.8181090 -39.6342360 L -105.8180100 -39.6340610 L -105.8177940 -39.6339200 L -105.8176020 -39.6338300" pathLength="1" fill="none" stroke="currentColor" vector-effect="non-scaling-stroke"/>
</svg>
