<svg xmlns="http://www.w3.org/2000/svg" viewBox="0 0 1600 900" preserveAspectRatio="xMidYMid slice">
  <path class="trace-line" d="M 207.29 687.31 L 217.79 686.03 L 222.99 686.97 L 229.36 689.06 L 232.07 685.85 L 233.34 681.35 L 235.75 678.90 L 239.72 672.57 L 249.71 663.84 L 263.48 664.85 L 274.68 663.23 L 301.37 651.11 L 310.89 651.20 L 320.61 655.10 L 325.31 670.98 L 333.04 656.78 L 354.88 659.47 L 371.34 656.78 L 399.83 659.95 L 460.05 668.89 L 482.90 672.92 L 488.95 670.56 L 491.30 674.26 L 503.73 670.90 L 510.46 669.56 L 525.24 663.50 L 539.69 659.47 L 558.50 662.83 L 562.87 658.80 L 577.32 669.56 L 579.51 677.79 L 577.15 683.67 L 576.98 692.41 L 579.34 694.43 L 579.17 704.01 L 584.88 715.11 L 586.89 722.67 L 587.73 732.75 L 603.53 744.19 L 613.11 738.80 L 622.68 731.58 L 629.07 722.67 L 640.66 716.29 L 657.46 712.25 L 667.37 708.05 L 682.16 704.85 L 690.72 701.32 L 693.24 712.75 L 698.29 713.26 L 705.68 704.35 L 708.36 707.04 L 713.74 703.85 L 720.13 701.66 L 726.00 701.49 L 733.90 704.35 L 746.33 701.16 L 756.41 695.27 L 773.27 691.53 L 784.09 685.09 L 799.98 679.10 L 821.52 679.73 L 842.40 664.38 L 878.28 627.44 L 904.61 609.34 L 936.20 593.49 L 969.96 564.74 L 979.38 555.42 L 982.07 545.19 L 978.99 534.53 L 984.59 525.87 L 977.45 513.13 L 950.33 479.24 L 986.48 449.40 L 995.52 435.20 L 1007.12 414.68 L 1025.33 407.15 L 1035.01 386.77 L 1060.98 374.54 L 1072.06 362.74 L 1082.26 338.67 L 1097.41 317.68 L 1134.32 307.80 L 1168.96 294.04 L 1199.00 280.29 L 1207.76 270.90 L 1231.11 263.22 L 1251.85 251.14 L 1266.36 246.15 L 1304.94 236.47 L 1338.55 204.38 L 1386.43 163.61 L 1390.03 155.81" pathLength="1" fill="none" vector-effect="non-scaling-stroke"/>
  <circle class="trace-start" cx="207.29" cy="687.31" r="5.47"/>
  <circle class="trace-summit-halo" cx="1392.71" cy="159.39" r="13.98"/>
  <circle class="trace-summit" cx="1392.71" cy="159.39" r="7.90"/>
</svg>
