<svg xmlns="http://www.w3.org/2000/svg" viewBox="0 0 2000 2500" preserveAspectRatio="xMidYMid slice">
  <path class="trace-line" d="M 322.92 1521.01 L 334.90 1519.54 L 340.85 1520.61 L 348.12 1523.00 L 351.22 1519.34 L 352.67 1514.20 L 355.42 1511.40 L 359.96 1504.17 L 371.37 1494.20 L 387.10 1495.35 L 399.90 1493.50 L 430.39 1479.67 L 441.27 1479.77 L 452.36 1484.22 L 457.73 1502.35 L 466.56 1486.14 L 491.51 1489.21 L 510.32 1486.14 L 542.86 1489.76 L 611.65 1499.96 L 637.76 1504.57 L 644.67 1501.88 L 647.35 1506.10 L 661.55 1502.27 L 669.24 1500.73 L 686.12 1493.82 L 702.63 1489.21 L 724.12 1493.05 L 729.11 1488.45 L 745.62 1500.73 L 748.12 1510.13 L 745.42 1516.85 L 745.23 1526.83 L 747.92 1529.13 L 747.73 1540.08 L 754.26 1552.75 L 756.56 1561.38 L 757.52 1572.90 L 775.56 1585.95 L 786.50 1579.81 L 797.44 1571.55 L 804.73 1561.38 L 817.98 1554.09 L 837.17 1549.48 L 848.49 1544.68 L 865.38 1541.04 L 875.17 1537.00 L 878.04 1550.06 L 883.81 1550.64 L 892.25 1540.46 L 895.32 1543.53 L 901.46 1539.88 L 908.75 1537.39 L 915.47 1537.19 L 924.49 1540.46 L 938.69 1536.82 L 950.21 1530.09 L 969.46 1525.82 L 981.83 1518.47 L 999.98 1511.63 L 1024.58 1512.35 L 1048.43 1494.82 L 1089.43 1452.64 L 1119.50 1431.96 L 1155.59 1413.87 L 1194.15 1381.03 L 1204.92 1370.38 L 1207.99 1358.71 L 1204.47 1346.53 L 1210.86 1336.64 L 1202.72 1322.09 L 1171.73 1283.40 L 1213.03 1249.32 L 1223.35 1233.10 L 1236.60 1209.67 L 1257.41 1201.07 L 1268.47 1177.79 L 1298.14 1163.83 L 1310.79 1150.35 L 1322.44 1122.87 L 1339.75 1098.89 L 1381.92 1087.62 L 1421.48 1071.90 L 1455.80 1056.20 L 1465.81 1045.47 L 1492.49 1036.70 L 1516.17 1022.91 L 1532.75 1017.21 L 1576.82 1006.16 L 1615.22 969.51 L 1669.91 922.95 L 1674.03 914.05" pathLength="1" fill="none" vector-effect="non-scaling-stroke"/>
  <circle class="trace-start" cx="322.92" cy="1521.01" r="6.25"/>
  <circle class="trace-summit-halo" cx="1677.08" cy="918.13" r="15.97"/>
  <circle class="trace-summit" cx="1677.08" cy="918.13" r="9.03"/>
</svg>
