<svg xmlns="http://www.w3.org/2000/svg" viewBox="0 0 2000 2500" preserveAspectRatio="none">
  <path class="trace-underlay" d="M 534.96 1318.84 L 544.81 1317.91 L 549.71 1318.59 L 555.69 1320.10 L 558.24 1317.78 L 559.43 1314.53 L 561.69 1312.75 L 565.42 1308.17 L 574.81 1301.85 L 587.76 1302.58 L 598.28 1301.41 L 623.36 1292.64 L 632.31 1292.70 L 641.44 1295.52 L 645.86 1307.02 L 653.12 1296.74 L 673.64 1298.69 L 689.11 1296.74 L 715.89 1299.03 L 772.48 1305.50 L 793.95 1308.42 L 799.64 1306.72 L 801.84 1309.39 L 819.85 1305.99 L 833.74 1301.61 L 847.32 1298.69 L 865.00 1301.12 L 869.10 1298.20 L 882.68 1305.99 L 884.73 1311.95 L 882.52 1316.20 L 882.36 1322.53 L 884.58 1323.99 L 884.42 1330.93 L 889.79 1338.95 L 891.68 1344.43 L 892.47 1351.73 L 907.31 1360.00 L 916.31 1356.11 L 925.31 1350.87 L 931.31 1344.43 L 942.20 1339.81 L 957.99 1336.89 L 967.31 1333.85 L 981.20 1331.53 L 989.25 1328.98 L 991.62 1337.25 L 996.36 1337.62 L 1003.30 1331.17 L 1005.83 1333.12 L 1010.88 1330.80 L 1016.88 1329.22 L 1022.40 1329.10 L 1029.82 1331.17 L 1041.51 1328.86 L 1050.98 1324.60 L 1066.82 1321.89 L 1076.99 1317.23 L 1091.93 1312.90 L 1112.16 1313.35 L 1131.78 1302.24 L 1165.51 1275.51 L 1190.25 1262.40 L 1219.94 1250.93 L 1251.65 1230.12 L 1260.51 1223.38 L 1263.04 1215.97 L 1260.14 1208.26 L 1265.40 1201.99 L 1258.70 1192.77 L 1233.21 1168.24 L 1267.18 1146.65 L 1275.68 1136.37 L 1286.58 1121.52 L 1303.69 1116.07 L 1312.79 1101.31 L 1337.19 1092.46 L 1347.60 1083.92 L 1357.19 1066.50 L 1371.43 1051.31 L 1406.12 1044.16 L 1438.66 1034.20 L 1466.90 1024.25 L 1475.13 1017.45 L 1497.07 1011.89 L 1516.56 1003.15 L 1530.20 999.54 L 1566.45 992.53 L 1598.04 969.30 L 1643.03 939.80 L 1646.42 934.16" pathLength="1" fill="none" vector-effect="non-scaling-stroke"/>
  <path class="trace-line" d="M 534.96 1318.84 L 544.81 1317.91 L 549.71 1318.59 L 555.69 1320.10 L 558.24 1317.78 L 559.43 1314.53 L 561.69 1312.75 L 565.42 1308.17 L 574.81 1301.85 L 587.76 1302.58 L 598.28 1301.41 L 623.36 1292.64 L 632.31 1292.70 L 641.44 1295.52 L 645.86 1307.02 L 653.12 1296.74 L 673.64 1298.69 L 689.11 1296.74 L 715.89 1299.03 L 772.48 1305.50 L 793.95 1308.42 L 799.64 1306.72 L 801.84 1309.39 L 819.85 1305.99 L 833.74 1301.61 L 847.32 1298.69 L 865.00 1301.12 L 869.10 1298.20 L 882.68 1305.99 L 884.73 1311.95 L 882.52 1316.20 L 882.36 1322.53 L 884.58 1323.99 L 884.42 1330.93 L 889.79 1338.95 L 891.68 1344.43 L 892.47 1351.73 L 907.31 1360.00 L 916.31 1356.11 L 925.31 1350.87 L 931.31 1344.43 L 942.20 1339.81 L 957.99 1336.89 L 967.31 1333.85 L 981.20 1331.53 L 989.25 1328.98 L 991.62 1337.25 L 996.36 1337.62 L 1003.30 1331.17 L 1005.83 1333.12 L 1010.88 1330.80 L 1016.88 1329.22 L 1022.40 1329.10 L 1029.82 1331.17 L 1041.51 1328.86 L 1050.98 1324.60 L 1066.82 1321.89 L 1076.99 1317.23 L 1091.93 1312.90 L 1112.16 1313.35 L 1131.78 1302.24 L 1165.51 1275.51 L 1190.25 1262.40 L 1219.94 1250.93 L 1251.65 1230.12 L 1260.51 1223.38 L 1263.04 1215.97 L 1260.14 1208.26 L 1265.40 1201.99 L 1258.70 1192.77 L 1233.21 1168.24 L 1267.18 1146.65 L 1275.68 1136.37 L 1286.58 1121.52 L 1303.69 1116.07 L 1312.79 1101.31 L 1337.19 1092.46 L 1347.60 1083.92 L 1357.19 1066.50 L 1371.43 1051.31 L 1406.12 1044.16 L 1438.66 1034.20 L 1466.90 1024.25 L 1475.13 1017.45 L 1497.07 1011.89 L 1516.56 1003.15 L 1530.20 999.54 L 1566.45 992.53 L 1598.04 969.30 L 1643.03 939.80 L 1646.42 934.16" pathLength="1" fill="none" vector-effect="non-scaling-stroke"/>
</svg>
