<svg xmlns="http://www.w3.org/2000/svg" viewBox="-106.1315080 -39.3362850 0.0260280 0.0100112" preserveAspectRatio="xMidYMid meet">
  <path d="M -106.1293390 -39.3279144 L -106.1291466 -39.3279326 L -106.1290511 -39.3279193 L -106.1289344 -39.3278897 L -106.1288846 -39.3279351 L -106.1288613 -39.3279989 L -106.1288172 -39.3280337 L -106.1287444 -39.3281235 L -106.1285612 -39.3282472 L -106.1283086 -39.3282329 L -106.1281032 -39.3282559 L -106.1276137 -39.3284277 L -106.1274391 -39.3284264 L -106.1272610 -39.3283712 L -106.1271748 -39.3281460 L -106.1270330 -39.3283473 L -106.1266325 -39.3283092 L -106.1263306 -39.3283473 L -106.1258081 -39.3283024 L -106.1247038 -39.3281757 L -106.1242847 -39.3281185 L -106.1241738 -39.3281519 L -106.1241307 -39.3280995 L -106.1237794 -39.3281662 L -106.1235083 -39.3282520 L -106.1232433 -39.3283092 L -106.1228983 -39.3282615 L -106.1228182 -39.3283187 L -106.1225532 -39.3281662 L -106.1225131 -39.3280494 L -106.1225563 -39.3279660 L -106.1225594 -39.3278421 L -106.1225162 -39.3278135 L -106.1225193 -39.3276776 L -106.1224145 -39.3275203 L -106.1223776 -39.3274131 L -106.1223622 -39.3272701 L -106.1220725 -39.3271080 L -106.1218969 -39.3271843 L -106.1217213 -39.3272868 L -106.1216042 -39.3274131 L -106.1213916 -39.3275036 L -106.1210835 -39.3275608 L -106.1209017 -39.3276204 L -106.1206306 -39.3276657 L -106.1204735 -39.3277158 L -106.1204273 -39.3275537 L -106.1203348 -39.3275465 L -106.1201993 -39.3276729 L -106.1201500 -39.3276347 L -106.1200514 -39.3276800 L -106.1199343 -39.3277110 L -106.1198265 -39.3277134 L -106.1196817 -39.3276729 L -106.1194537 -39.3277181 L -106.1192688 -39.3278016 L -106.1189597 -39.3278546 L -106.1187612 -39.3279459 L -106.1184698 -39.3280308 L -106.1180749 -39.3280219 L -106.1176920 -39.3282396 L -106.1170339 -39.3287633 L -106.1165511 -39.3290200 L -106.1159717 -39.3292447 L -106.1153527 -39.3296524 L -106.1151798 -39.3297846 L -106.1151305 -39.3299296 L -106.1151871 -39.3300808 L -106.1150844 -39.3302036 L -106.1152152 -39.3303842 L -106.1157127 -39.3308647 L -106.1150497 -39.3312878 L -106.1148839 -39.3314892 L -106.1146712 -39.3317801 L -106.1143372 -39.3318869 L -106.1141597 -39.3321759 L -106.1136834 -39.3323493 L -106.1134803 -39.3325166 L -106.1132932 -39.3328579 L -106.1130154 -39.3331556 L -106.1123384 -39.3332956 L -106.1117033 -39.3334907 L -106.1111523 -39.3336857 L -106.1109916 -39.3338189 L -106.1105634 -39.3339278 L -106.1101832 -39.3340990 L -106.1099170 -39.3341698 L -106.1092095 -39.3343070 L -106.1085931 -39.3347621 L -106.1077151 -39.3353401 L -106.1076490 -39.3354507" pathLength="1" fill="none" stroke="currentColor" vector-effect="non-scaling-stroke"/>
</svg>
