<svg xmlns="http://www.w3.org/2000/svg" viewBox="0 0 2000 2500" preserveAspectRatio="xMidYMid slice">
  <path class="trace-line" d="M 1661.00 1168.73 L 1668.40 1151.98 L 1673.10 1146.38 L 1677.08 1145.03 L 1674.66 1139.67 L 1671.55 1136.04 L 1662.48 1131.51 L 1663.59 1141.40 L 1657.36 1145.79 L 1655.98 1149.11 L 1658.47 1140.35 L 1651.19 1129.21 L 1651.78 1127.52 L 1649.01 1132.53 L 1650.50 1140.14 L 1642.30 1131.05 L 1637.42 1118.08 L 1635.93 1127.66 L 1633.69 1121.78 L 1632.61 1123.78 L 1637.18 1142.12 L 1620.19 1119.63 L 1619.95 1113.93 L 1616.56 1120.74 L 1616.32 1112.20 L 1610.89 1092.48 L 1611.61 1088.05 L 1608.88 1090.75 L 1607.28 1110.56 L 1603.62 1119.70 L 1608.19 1141.73 L 1592.79 1137.69 L 1591.13 1141.46 L 1588.81 1142.28 L 1588.40 1133.68 L 1591.65 1131.46 L 1588.54 1130.56 L 1582.00 1136.75 L 1569.61 1137.72 L 1564.60 1132.40 L 1575.18 1129.73 L 1562.77 1124.61 L 1553.90 1116.61 L 1544.16 1113.88 L 1543.45 1118.00 L 1545.53 1122.77 L 1544.41 1121.87 L 1543.92 1131.16 L 1532.69 1133.32 L 1530.01 1131.50 L 1519.79 1130.97 L 1510.35 1121.77 L 1499.28 1114.78 L 1477.69 1111.46 L 1471.25 1114.57 L 1463.43 1114.43 L 1460.23 1111.27 L 1466.27 1109.05 L 1457.83 1107.20 L 1454.13 1109.42 L 1428.21 1107.14 L 1420.92 1109.66 L 1416.59 1108.31 L 1413.82 1104.58 L 1399.33 1114.76 L 1397.93 1113.66 L 1399.28 1110.97 L 1392.08 1115.85 L 1380.68 1117.65 L 1373.76 1124.91 L 1372.29 1124.12 L 1375.87 1112.13 L 1370.86 1117.86 L 1368.78 1118.41 L 1368.71 1116.37 L 1365.08 1117.69 L 1352.80 1125.57 L 1341.28 1138.44 L 1333.56 1142.35 L 1330.19 1147.69 L 1281.88 1159.78 L 1268.00 1160.71 L 1258.80 1158.40 L 1232.37 1157.88 L 1217.60 1154.28 L 1198.92 1145.32 L 1180.48 1148.78 L 1173.83 1152.72 L 1149.34 1155.08 L 1136.64 1163.10 L 1124.36 1179.36 L 1112.60 1187.87 L 1110.35 1191.43 L 1099.49 1195.75 L 1088.94 1195.37 L 1082.53 1205.47 L 1082.74 1214.57 L 1088.21 1222.28 L 1081.67 1225.81 L 1073.33 1227.82 L 1065.65 1226.09 L 1050.50 1226.61 L 1036.25 1223.32 L 1028.77 1218.69 L 1011.20 1215.99 L 1003.14 1227.06 L 989.75 1227.79 L 985.81 1234.95 L 978.16 1234.12 L 967.33 1239.93 L 944.88 1238.58 L 944.08 1244.11 L 941.83 1245.84 L 906.13 1247.82 L 897.07 1251.03 L 891.60 1249.61 L 863.30 1255.25 L 843.31 1265.14 L 841.40 1265.04 L 842.96 1262.55 L 829.75 1265.84 L 824.76 1272.31 L 816.39 1275.97 L 796.67 1257.09 L 787.47 1254.32 L 779.93 1255.98 L 771.90 1264.32 L 768.54 1275.11 L 752.15 1287.02 L 748.10 1284.09 L 740.18 1291.25 L 736.89 1289.60 L 732.77 1295.66 L 728.59 1294.93 L 717.07 1284.78 L 719.02 1279.43 L 716.98 1272.69 L 697.99 1266.70 L 693.96 1254.94 L 689.68 1261.82 L 684.70 1264.85 L 678.80 1272.20 L 674.82 1256.05 L 671.19 1251.78 L 664.57 1236.05 L 647.15 1211.20 L 647.29 1241.55 L 640.26 1270.85 L 630.89 1290.12 L 621.41 1304.48 L 612.97 1312.50 L 608.82 1324.44 L 597.28 1346.58 L 595.18 1340.39 L 596.25 1321.56 L 573.57 1348.41 L 578.44 1322.33 L 555.62 1345.29 L 557.70 1339.97 L 553.69 1343.18 L 553.48 1341.45 L 557.67 1335.01 L 558.08 1328.52 L 538.98 1345.45 L 537.29 1345.90 L 537.81 1343.97 L 533.02 1346.66 L 536.30 1340.49 L 533.43 1341.27 L 535.82 1338.19 L 527.24 1342.13 L 524.52 1341.65 L 527.67 1338.12 L 518.68 1341.70 L 527.88 1329.25 L 515.89 1331.75 L 524.20 1321.84 L 526.13 1318.94 L 524.12 1318.97 L 524.82 1317.55 L 531.11 1309.25 L 526.86 1295.73 L 524.13 1305.22 L 513.04 1315.41 L 516.17 1308.56 L 510.86 1312.38 L 513.54 1305.03 L 506.72 1309.60 L 510.10 1300.29 L 508.52 1293.48 L 504.06 1299.41 L 504.42 1296.24 L 503.13 1298.15 L 500.81 1296.33 L 494.32 1300.79 L 482.58 1301.28 L 480.40 1302.95 L 474.55 1301.09 L 471.71 1302.92 L 474.01 1293.17 L 466.38 1298.94 L 471.63 1271.58 L 467.65 1265.30 L 460.49 1271.94 L 452.50 1283.50 L 449.29 1277.36 L 447.32 1285.73 L 442.55 1290.41 L 431.67 1310.76 L 430.08 1312.73 L 429.09 1310.38 L 420.06 1322.50 L 411.55 1339.45 L 398.51 1353.53 L 390.64 1370.42 L 388.27 1381.38 L 398.67 1407.94 L 386.92 1401.10 L 393.27 1411.84 L 385.02 1406.40 L 382.84 1402.90 L 381.45 1402.24 L 382.63 1404.92 L 377.34 1401.55 L 377.46 1403.56 L 373.57 1399.65 L 374.24 1402.52 L 369.83 1396.71 L 361.16 1391.95 L 357.96 1381.80 L 357.06 1361.82 L 353.41 1367.65 L 347.01 1390.17 L 346.68 1393.85 L 349.25 1398.65 L 343.95 1393.16 L 344.59 1386.43 L 341.53 1387.58 L 341.06 1384.32 L 337.64 1388.86 L 336.34 1387.68 L 338.81 1381.64 L 336.96 1373.22 L 338.69 1365.85 L 333.89 1369.64 L 333.76 1367.51 L 331.20 1373.29 L 331.15 1367.16 L 324.98 1377.45 L 322.92 1364.08" pathLength="1" fill="none" vector-effect="non-scaling-stroke"/>
  <circle class="trace-start" cx="1661.00" cy="1168.73" r="6.25"/>
  <circle class="trace-summit-halo" cx="322.95" cy="1366.27" r="15.97"/>
  <circle class="trace-summit" cx="322.95" cy="1366.27" r="9.03"/>
</svg>
