<svg xmlns="http://www.w3.org/2000/svg" viewBox="0 0 2000 2500" preserveAspectRatio="none">
  <path class="trace-underlay" d="M 3855.21 600.54 L 3872.21 570.93 L 3883.01 561.01 L 3892.15 558.63 L 3886.59 549.14 L 3879.44 542.72 L 3858.63 534.70 L 3862.05 540.27 L 3861.17 552.20 L 3846.88 559.97 L 3843.70 565.85 L 3849.41 550.35 L 3832.71 530.65 L 3834.06 527.65 L 3828.42 531.93 L 3827.70 536.52 L 3831.12 549.98 L 3812.29 533.89 L 3808.88 521.41 L 3801.10 510.94 L 3797.68 527.89 L 3792.52 517.49 L 3790.05 521.04 L 3800.54 553.47 L 3761.54 513.70 L 3760.99 503.60 L 3753.20 515.66 L 3752.64 500.54 L 3740.17 465.67 L 3741.84 457.83 L 3735.57 462.61 L 3730.80 482.37 L 3731.90 497.65 L 3723.50 513.82 L 3724.69 523.61 L 3730.49 529.36 L 3733.98 552.80 L 3698.63 545.64 L 3694.82 552.31 L 3689.48 553.76 L 3691.49 551.63 L 3688.55 538.54 L 3696.01 534.62 L 3688.87 533.03 L 3673.86 543.98 L 3645.42 545.70 L 3633.90 536.27 L 3658.21 531.56 L 3629.69 522.51 L 3609.35 508.35 L 3593.06 507.04 L 3586.99 503.52 L 3585.36 510.80 L 3590.12 519.24 L 3587.55 517.65 L 3586.43 534.08 L 3560.66 537.91 L 3554.50 534.70 L 3531.03 533.75 L 3509.35 517.47 L 3483.93 505.11 L 3434.37 499.24 L 3419.60 504.74 L 3401.65 504.50 L 3394.30 498.90 L 3408.16 494.98 L 3388.78 491.71 L 3380.28 495.63 L 3320.79 491.59 L 3304.03 496.06 L 3294.11 493.67 L 3287.75 487.06 L 3254.47 505.08 L 3251.26 503.12 L 3254.35 498.38 L 3246.72 499.88 L 3237.83 507.01 L 3211.66 510.19 L 3195.78 523.04 L 3192.40 521.63 L 3201.81 504.13 L 3200.62 500.43 L 3189.11 510.56 L 3184.34 511.54 L 3184.18 507.93 L 3175.84 510.25 L 3147.65 524.20 L 3121.20 546.97 L 3103.49 553.88 L 3095.74 563.33 L 2984.82 584.72 L 2952.97 586.37 L 2931.84 582.27 L 2871.16 581.35 L 2837.25 574.99 L 2794.36 559.14 L 2752.02 565.26 L 2736.77 572.23 L 2680.54 576.40 L 2651.39 590.59 L 2636.70 602.46 L 2623.19 619.35 L 2596.19 634.40 L 2591.03 640.71 L 2566.09 648.35 L 2541.86 647.68 L 2527.17 665.55 L 2527.65 681.64 L 2540.19 695.29 L 2525.18 701.53 L 2506.04 705.08 L 2488.41 702.02 L 2453.62 702.94 L 2420.90 697.12 L 2403.74 688.92 L 2363.39 684.15 L 2344.89 703.73 L 2314.15 705.02 L 2305.10 717.69 L 2287.54 716.22 L 2262.68 726.50 L 2211.13 724.11 L 2208.20 727.29 L 2209.31 733.90 L 2204.14 736.96 L 2122.18 740.45 L 2101.37 746.14 L 2088.82 743.63 L 2043.78 752.69 L 2023.85 753.61 L 1977.94 771.11 L 1973.57 770.92 L 1977.15 766.52 L 1946.81 772.33 L 1935.37 783.78 L 1916.15 790.26 L 1870.88 756.85 L 1849.75 751.95 L 1832.43 754.89 L 1821.15 766.70 L 1814.01 769.64 L 1806.30 788.73 L 1768.67 809.80 L 1759.36 804.61 L 1741.17 817.28 L 1733.63 814.37 L 1724.17 825.08 L 1714.57 823.80 L 1688.12 805.83 L 1692.60 796.38 L 1687.91 784.45 L 1644.31 773.86 L 1640.22 758.38 L 1635.06 753.06 L 1625.25 765.23 L 1613.81 770.59 L 1600.27 783.59 L 1591.13 755.01 L 1582.80 747.46 L 1567.58 719.64 L 1527.59 675.68 L 1525.33 679.17 L 1529.22 694.37 L 1527.91 729.37 L 1521.48 742.65 L 1511.79 781.20 L 1490.27 815.29 L 1468.50 840.69 L 1449.12 854.88 L 1439.59 876.00 L 1423.23 896.50 L 1413.10 915.16 L 1408.30 904.21 L 1410.74 870.90 L 1358.67 918.40 L 1369.86 872.27 L 1317.45 912.88 L 1322.24 903.47 L 1313.03 909.15 L 1312.55 906.09 L 1322.16 894.69 L 1323.11 883.22 L 1279.27 913.17 L 1275.38 913.97 L 1276.57 910.54 L 1265.57 915.32 L 1273.12 904.39 L 1266.52 905.77 L 1272.00 900.32 L 1252.31 907.30 L 1246.07 906.44 L 1253.30 900.20 L 1232.65 906.54 L 1253.78 884.51 L 1226.25 888.94 L 1245.32 871.41 L 1249.76 866.27 L 1245.15 866.33 L 1246.75 863.82 L 1261.20 849.13 L 1251.43 825.20 L 1245.16 842.00 L 1219.70 860.02 L 1226.89 847.91 L 1214.70 854.67 L 1220.85 841.67 L 1205.21 849.74 L 1212.95 833.28 L 1209.33 821.24 L 1199.09 831.72 L 1199.92 826.12 L 1196.95 829.49 L 1191.62 826.27 L 1176.73 834.17 L 1149.77 835.03 L 1144.76 837.99 L 1131.34 834.69 L 1124.83 837.93 L 1130.11 820.68 L 1112.59 830.89 L 1124.63 782.49 L 1115.49 771.38 L 1099.05 783.13 L 1089.16 793.32 L 1087.04 799.96 L 1084.68 798.40 L 1080.72 803.57 L 1073.36 792.72 L 1068.83 807.52 L 1057.87 815.81 L 1032.89 851.79 L 1029.24 855.28 L 1029.00 849.56 L 1026.98 851.12 L 1006.24 872.57 L 986.70 902.56 L 956.76 927.47 L 938.69 957.33 L 933.25 976.73 L 943.98 1003.26 L 957.12 1023.70 L 930.16 1011.61 L 944.73 1030.62 L 925.79 1020.98 L 920.78 1014.80 L 917.61 1013.63 L 920.31 1018.38 L 908.15 1012.41 L 908.43 1015.96 L 899.50 1009.05 L 901.04 1014.12 L 890.92 1003.84 L 871.02 995.43 L 863.68 977.46 L 861.61 942.12 L 853.23 952.43 L 842.94 986.34 L 838.54 992.27 L 837.78 998.80 L 843.66 1007.27 L 831.51 997.57 L 832.98 985.67 L 825.95 987.69 L 824.87 981.93 L 819.91 983.59 L 817.01 989.95 L 814.03 987.87 L 819.69 977.19 L 816.87 976.68 L 819.76 974.74 L 819.55 968.04 L 815.46 962.29 L 820.15 954.24 L 815.74 952.83 L 819.44 949.25 L 811.93 951.30 L 808.40 955.95 L 808.12 952.19 L 802.24 962.41 L 802.12 951.58 L 787.96 969.77 L 783.21 946.12" pathLength="1" fill="none" vector-effect="non-scaling-stroke"/>
  <path class="trace-line" d="M 3855.21 600.54 L 3872.21 570.93 L 3883.01 561.01 L 3892.15 558.63 L 3886.59 549.14 L 3879.44 542.72 L 3858.63 534.70 L 3862.05 540.27 L 3861.17 552.20 L 3846.88 559.97 L 3843.70 565.85 L 3849.41 550.35 L 3832.71 530.65 L 3834.06 527.65 L 3828.42 531.93 L 3827.70 536.52 L 3831.12 549.98 L 3812.29 533.89 L 3808.88 521.41 L 3801.10 510.94 L 3797.68 527.89 L 3792.52 517.49 L 3790.05 521.04 L 3800.54 553.47 L 3761.54 513.70 L 3760.99 503.60 L 3753.20 515.66 L 3752.64 500.54 L 3740.17 465.67 L 3741.84 457.83 L 3735.57 462.61 L 3730.80 482.37 L 3731.90 497.65 L 3723.50 513.82 L 3724.69 523.61 L 3730.49 529.36 L 3733.98 552.80 L 3698.63 545.64 L 3694.82 552.31 L 3689.48 553.76 L 3691.49 551.63 L 3688.55 538.54 L 3696.01 534.62 L 3688.87 533.03 L 3673.86 543.98 L 3645.42 545.70 L 3633.90 536.27 L 3658.21 531.56 L 3629.69 522.51 L 3609.35 508.35 L 3593.06 507.04 L 3586.99 503.52 L 3585.36 510.80 L 3590.12 519.24 L 3587.55 517.65 L 3586.43 534.08 L 3560.66 537.91 L 3554.50 534.70 L 3531.03 533.75 L 3509.35 517.47 L 3483.93 505.11 L 3434.37 499.24 L 3419.60 504.74 L 3401.65 504.50 L 3394.30 498.90 L 3408.16 494.98 L 3388.78 491.71 L 3380.28 495.63 L 3320.79 491.59 L 3304.03 496.06 L 3294.11 493.67 L 3287.75 487.06 L 3254.47 505.08 L 3251.26 503.12 L 3254.35 498.38 L 3246.72 499.88 L 3237.83 507.01 L 3211.66 510.19 L 3195.78 523.04 L 3192.40 521.63 L 3201.81 504.13 L 3200.62 500.43 L 3189.11 510.56 L 3184.34 511.54 L 3184.18 507.93 L 3175.84 510.25 L 3147.65 524.20 L 3121.20 546.97 L 3103.49 553.88 L 3095.74 563.33 L 2984.82 584.72 L 2952.97 586.37 L 2931.84 582.27 L 2871.16 581.35 L 2837.25 574.99 L 2794.36 559.14 L 2752.02 565.26 L 2736.77 572.23 L 2680.54 576.40 L 2651.39 590.59 L 2636.70 602.46 L 2623.19 619.35 L 2596.19 634.40 L 2591.03 640.71 L 2566.09 648.35 L 2541.86 647.68 L 2527.17 665.55 L 2527.65 681.64 L 2540.19 695.29 L 2525.18 701.53 L 2506.04 705.08 L 2488.41 702.02 L 2453.62 702.94 L 2420.90 697.12 L 2403.74 688.92 L 2363.39 684.15 L 2344.89 703.73 L 2314.15 705.02 L 2305.10 717.69 L 2287.54 716.22 L 2262.68 726.50 L 2211.13 724.11 L 2208.20 727.29 L 2209.31 733.90 L 2204.14 736.96 L 2122.18 740.45 L 2101.37 746.14 L 2088.82 743.63 L 2043.78 752.69 L 2023.85 753.61 L 1977.94 771.11 L 1973.57 770.92 L 1977.15 766.52 L 1946.81 772.33 L 1935.37 783.78 L 1916.15 790.26 L 1870.88 756.85 L 1849.75 751.95 L 1832.43 754.89 L 1821.15 766.70 L 1814.01 769.64 L 1806.30 788.73 L 1768.67 809.80 L 1759.36 804.61 L 1741.17 817.28 L 1733.63 814.37 L 1724.17 825.08 L 1714.57 823.80 L 1688.12 805.83 L 1692.60 796.38 L 1687.91 784.45 L 1644.31 773.86 L 1640.22 758.38 L 1635.06 753.06 L 1625.25 765.23 L 1613.81 770.59 L 1600.27 783.59 L 1591.13 755.01 L 1582.80 747.46 L 1567.58 719.64 L 1527.59 675.68 L 1525.33 679.17 L 1529.22 694.37 L 1527.91 729.37 L 1521.48 742.65 L 1511.79 781.20 L 1490.27 815.29 L 1468.50 840.69 L 1449.12 854.88 L 1439.59 876.00 L 1423.23 896.50 L 1413.10 915.16 L 1408.30 904.21 L 1410.74 870.90 L 1358.67 918.40 L 1369.86 872.27 L 1317.45 912.88 L 1322.24 903.47 L 1313.03 909.15 L 1312.55 906.09 L 1322.16 894.69 L 1323.11 883.22 L 1279.27 913.17 L 1275.38 913.97 L 1276.57 910.54 L 1265.57 915.32 L 1273.12 904.39 L 1266.52 905.77 L 1272.00 900.32 L 1252.31 907.30 L 1246.07 906.44 L 1253.30 900.20 L 1232.65 906.54 L 1253.78 884.51 L 1226.25 888.94 L 1245.32 871.41 L 1249.76 866.27 L 1245.15 866.33 L 1246.75 863.82 L 1261.20 849.13 L 1251.43 825.20 L 1245.16 842.00 L 1219.70 860.02 L 1226.89 847.91 L 1214.70 854.67 L 1220.85 841.67 L 1205.21 849.74 L 1212.95 833.28 L 1209.33 821.24 L 1199.09 831.72 L 1199.92 826.12 L 1196.95 829.49 L 1191.62 826.27 L 1176.73 834.17 L 1149.77 835.03 L 1144.76 837.99 L 1131.34 834.69 L 1124.83 837.93 L 1130.11 820.68 L 1112.59 830.89 L 1124.63 782.49 L 1115.49 771.38 L 1099.05 783.13 L 1089.16 793.32 L 1087.04 799.96 L 1084.68 798.40 L 1080.72 803.57 L 1073.36 792.72 L 1068.83 807.52 L 1057.87 815.81 L 1032.89 851.79 L 1029.24 855.28 L 1029.00 849.56 L 1026.98 851.12 L 1006.24 872.57 L 986.70 902.56 L 956.76 927.47 L 938.69 957.33 L 933.25 976.73 L 943.98 1003.26 L 957.12 1023.70 L 930.16 1011.61 L 944.73 1030.62 L 925.79 1020.98 L 920.78 1014.80 L 917.61 1013.63 L 920.31 1018.38 L 908.15 1012.41 L 908.43 1015.96 L 899.50 1009.05 L 901.04 1014.12 L 890.92 1003.84 L 871.02 995.43 L 863.68 977.46 L 861.61 942.12 L 853.23 952.43 L 842.94 986.34 L 838.54 992.27 L 837.78 998.80 L 843.66 1007.27 L 831.51 997.57 L 832.98 985.67 L 825.95 987.69 L 824.87 981.93 L 819.91 983.59 L 817.01 989.95 L 814.03 987.87 L 819.69 977.19 L 816.87 976.68 L 819.76 974.74 L 819.55 968.04 L 815.46 962.29 L 820.15 954.24 L 815.74 952.83 L 819.44 949.25 L 811.93 951.30 L 808.40 955.95 L 808.12 952.19 L 802.24 962.41 L 802.12 951.58 L 787.96 969.77 L 783.21 946.12" pathLength="1" fill="none" vector-effect="non-scaling-stroke"/>
</svg>
