<svg xmlns="http://www.w3.org/2000/svg" viewBox="0 0 1600 900" preserveAspectRatio="xMidYMid slice">
  <path class="trace-line" d="M 1378.62 378.83 L 1385.10 364.17 L 1389.22 359.26 L 1392.71 358.08 L 1390.58 353.39 L 1387.86 350.21 L 1379.93 346.24 L 1380.89 354.90 L 1375.44 358.75 L 1374.23 361.66 L 1376.41 353.99 L 1370.04 344.23 L 1370.56 342.75 L 1368.13 347.14 L 1369.43 353.80 L 1362.26 345.84 L 1357.99 334.48 L 1356.68 342.87 L 1354.72 337.72 L 1353.78 339.48 L 1357.77 355.53 L 1342.90 335.84 L 1342.69 330.84 L 1339.73 336.81 L 1339.51 329.33 L 1334.76 312.06 L 1335.39 308.19 L 1333.00 310.55 L 1331.60 327.90 L 1328.40 335.90 L 1332.40 355.19 L 1318.92 351.65 L 1317.47 354.95 L 1315.43 355.67 L 1315.07 348.14 L 1317.92 346.20 L 1315.19 345.41 L 1309.47 350.83 L 1298.63 351.68 L 1294.24 347.02 L 1303.51 344.68 L 1292.63 340.20 L 1284.87 333.20 L 1276.35 330.80 L 1275.73 334.41 L 1277.55 338.59 L 1276.56 337.80 L 1276.14 345.93 L 1266.31 347.83 L 1263.96 346.24 L 1255.01 345.77 L 1246.75 337.71 L 1237.06 331.59 L 1218.16 328.68 L 1212.52 331.41 L 1205.68 331.29 L 1202.88 328.52 L 1208.16 326.58 L 1200.77 324.96 L 1197.53 326.90 L 1174.85 324.90 L 1168.46 327.11 L 1164.68 325.93 L 1162.25 322.66 L 1149.56 331.58 L 1148.34 330.61 L 1149.52 328.26 L 1143.22 332.53 L 1133.24 334.10 L 1127.18 340.47 L 1125.90 339.77 L 1129.03 329.27 L 1124.64 334.29 L 1122.82 334.77 L 1122.76 332.99 L 1119.58 334.14 L 1108.83 341.04 L 1098.75 352.31 L 1091.99 355.73 L 1089.04 360.41 L 1046.75 371.00 L 1034.60 371.81 L 1026.55 369.79 L 1003.41 369.33 L 990.48 366.18 L 974.13 358.34 L 957.99 361.37 L 952.17 364.82 L 930.73 366.88 L 919.62 373.91 L 908.86 388.14 L 898.57 395.59 L 896.60 398.71 L 887.09 402.50 L 877.85 402.16 L 872.25 411.01 L 872.43 418.98 L 877.22 425.73 L 871.49 428.82 L 864.19 430.58 L 857.47 429.06 L 844.21 429.52 L 831.73 426.64 L 825.19 422.58 L 809.80 420.22 L 802.75 429.91 L 791.03 430.55 L 787.58 436.82 L 780.88 436.09 L 771.40 441.18 L 751.75 440.00 L 751.05 444.85 L 749.08 446.36 L 717.83 448.09 L 709.90 450.90 L 705.11 449.66 L 680.34 454.60 L 662.83 463.26 L 661.17 463.17 L 662.53 460.99 L 650.96 463.87 L 646.60 469.53 L 639.27 472.74 L 622.01 456.20 L 613.95 453.78 L 607.35 455.24 L 600.33 462.54 L 597.39 471.99 L 583.04 482.41 L 579.49 479.85 L 572.56 486.12 L 569.68 484.68 L 566.07 489.98 L 562.41 489.34 L 552.33 480.45 L 554.04 475.77 L 552.25 469.87 L 535.62 464.63 L 532.10 454.33 L 528.36 460.35 L 523.99 463.00 L 518.83 469.44 L 515.35 455.29 L 512.17 451.55 L 506.37 437.79 L 491.12 416.02 L 491.24 442.60 L 485.09 468.26 L 476.89 485.13 L 468.59 497.71 L 461.20 504.73 L 457.57 515.19 L 447.47 534.57 L 445.63 529.15 L 446.56 512.66 L 426.71 536.17 L 430.98 513.34 L 411.00 533.44 L 412.82 528.78 L 409.31 531.60 L 409.13 530.08 L 412.79 524.44 L 413.15 518.76 L 396.44 533.59 L 394.95 533.98 L 395.41 532.28 L 391.21 534.65 L 394.09 529.24 L 391.58 529.92 L 393.67 527.23 L 386.16 530.68 L 383.78 530.26 L 386.53 527.17 L 378.66 530.30 L 386.72 519.40 L 376.22 521.59 L 383.49 512.91 L 385.19 510.37 L 383.43 510.40 L 384.04 509.16 L 389.55 501.89 L 385.82 490.04 L 383.43 498.36 L 373.72 507.28 L 376.46 501.28 L 371.82 504.63 L 374.16 498.19 L 368.20 502.19 L 371.15 494.04 L 369.77 488.08 L 365.86 493.27 L 366.18 490.49 L 365.05 492.16 L 363.02 490.57 L 357.34 494.48 L 347.06 494.90 L 345.15 496.37 L 340.03 494.74 L 337.55 496.34 L 339.56 487.80 L 332.88 492.86 L 337.47 468.90 L 333.99 463.40 L 327.72 469.21 L 320.73 479.33 L 317.92 473.96 L 316.20 481.29 L 312.02 485.39 L 302.49 503.20 L 301.10 504.93 L 300.24 502.87 L 292.33 513.49 L 284.88 528.33 L 273.47 540.66 L 266.58 555.45 L 264.50 565.05 L 273.60 588.30 L 263.32 582.32 L 268.88 591.72 L 261.66 586.95 L 259.75 583.89 L 258.54 583.31 L 259.57 585.66 L 254.93 582.71 L 255.04 584.47 L 251.63 581.04 L 252.22 583.56 L 248.36 578.47 L 240.78 574.30 L 237.97 565.41 L 237.19 547.92 L 233.99 553.02 L 228.39 572.74 L 228.10 575.97 L 230.34 580.17 L 225.71 575.36 L 226.27 569.47 L 223.59 570.47 L 223.18 567.62 L 220.18 571.59 L 219.05 570.56 L 221.20 565.28 L 219.59 557.90 L 221.11 551.45 L 216.90 554.76 L 216.79 552.90 L 214.55 557.96 L 214.50 552.60 L 209.10 561.60 L 207.29 549.90" pathLength="1" fill="none" vector-effect="non-scaling-stroke"/>
  <circle class="trace-start" cx="1378.62" cy="378.83" r="5.47"/>
  <circle class="trace-summit-halo" cx="207.33" cy="551.82" r="13.98"/>
  <circle class="trace-summit" cx="207.33" cy="551.82" r="7.90"/>
</svg>
