<svg xmlns="http://www.w3.org/2000/svg" viewBox="-105.0528018 -38.8596568 0.1259864 0.0234709" preserveAspectRatio="xMidYMid meet">
  <path d="M -104.9385615 -38.8528293 L -104.9379875 -38.8538403 L -104.9376227 -38.8541787 L -104.9373142 -38.8542601 L -104.9375020 -38.8545839 L -104.9377434 -38.8548032 L -104.9384461 -38.8550768 L -104.9383308 -38.8548867 L -104.9383603 -38.8544794 L -104.9388431 -38.8542142 L -104.9389504 -38.8540136 L -104.9387576 -38.8545426 L -104.9393216 -38.8552153 L -104.9392760 -38.8553177 L -104.9394664 -38.8551714 L -104.9394906 -38.8550148 L -104.9393753 -38.8545553 L -104.9400109 -38.8551046 L -104.9401263 -38.8555307 L -104.9403891 -38.8558879 L -104.9405045 -38.8553093 L -104.9406788 -38.8556644 L -104.9407620 -38.8555432 L -104.9404079 -38.8544362 L -104.9417249 -38.8557939 L -104.9417436 -38.8561385 L -104.9420065 -38.8557270 L -104.9420253 -38.8562430 L -104.9424464 -38.8574335 L -104.9423901 -38.8577009 L -104.9426020 -38.8575379 L -104.9427629 -38.8568633 L -104.9427259 -38.8563418 L -104.9430096 -38.8557897 L -104.9429694 -38.8554555 L -104.9427736 -38.8552591 L -104.9426556 -38.8544592 L -104.9438492 -38.8547036 L -104.9439779 -38.8544759 L -104.9441584 -38.8544264 L -104.9440906 -38.8544989 L -104.9441898 -38.8549459 L -104.9439377 -38.8550795 L -104.9441791 -38.8551339 L -104.9446860 -38.8547600 L -104.9456463 -38.8547015 L -104.9460352 -38.8550232 L -104.9452144 -38.8551840 L -104.9461773 -38.8554931 L -104.9468645 -38.8559763 L -104.9474143 -38.8560211 L -104.9476195 -38.8561412 L -104.9476745 -38.8558927 L -104.9475136 -38.8556045 L -104.9476007 -38.8556588 L -104.9476383 -38.8550979 L -104.9485087 -38.8549674 L -104.9487165 -38.8550770 L -104.9495091 -38.8551094 L -104.9502414 -38.8556650 L -104.9510997 -38.8560869 L -104.9527734 -38.8562874 L -104.9532723 -38.8560995 L -104.9538784 -38.8561078 L -104.9541266 -38.8562990 L -104.9536585 -38.8564327 L -104.9543130 -38.8565444 L -104.9545999 -38.8564107 L -104.9566090 -38.8565485 L -104.9571749 -38.8563960 L -104.9575101 -38.8564775 L -104.9577247 -38.8567031 L -104.9588487 -38.8560880 L -104.9589572 -38.8561548 L -104.9588526 -38.8563167 L -104.9591102 -38.8562656 L -104.9594105 -38.8560222 L -104.9602943 -38.8559136 L -104.9608307 -38.8554750 L -104.9609447 -38.8555230 L -104.9606269 -38.8561203 L -104.9606672 -38.8562468 L -104.9610560 -38.8559010 L -104.9612170 -38.8558676 L -104.9612223 -38.8559908 L -104.9615040 -38.8559115 L -104.9624561 -38.8554353 L -104.9633493 -38.8546582 L -104.9639474 -38.8544222 L -104.9642089 -38.8540995 L -104.9679547 -38.8533695 L -104.9690302 -38.8533131 L -104.9697437 -38.8534530 L -104.9717929 -38.8534844 L -104.9729382 -38.8537016 L -104.9743866 -38.8542426 L -104.9758162 -38.8540337 L -104.9763312 -38.8537956 L -104.9782302 -38.8536535 L -104.9792145 -38.8531689 L -104.9797108 -38.8527637 L -104.9801668 -38.8521872 L -104.9810787 -38.8516734 L -104.9812531 -38.8514582 L -104.9820953 -38.8511972 L -104.9829134 -38.8512201 L -104.9834096 -38.8506101 L -104.9833935 -38.8500608 L -104.9829697 -38.8495950 L -104.9834766 -38.8493819 L -104.9841230 -38.8492607 L -104.9847185 -38.8493651 L -104.9858933 -38.8493338 L -104.9869984 -38.8495323 L -104.9875777 -38.8498122 L -104.9889403 -38.8499751 L -104.9895652 -38.8493067 L -104.9906032 -38.8492628 L -104.9909090 -38.8488304 L -104.9915018 -38.8488806 L -104.9923413 -38.8485296 L -104.9940821 -38.8486111 L -104.9941813 -38.8485025 L -104.9941438 -38.8482768 L -104.9943181 -38.8481724 L -104.9970861 -38.8480533 L -104.9977889 -38.8478590 L -104.9982127 -38.8479447 L -104.9997335 -38.8476355 L -105.0004067 -38.8476042 L -105.0019570 -38.8470068 L -105.0021046 -38.8470130 L -105.0019838 -38.8471634 L -105.0030084 -38.8469650 L -105.0033947 -38.8465743 L -105.0040438 -38.8463529 L -105.0047278 -38.8469504 L -105.0055726 -38.8474935 L -105.0062861 -38.8476606 L -105.0068708 -38.8475603 L -105.0072517 -38.8471572 L -105.0074931 -38.8470569 L -105.0077533 -38.8464051 L -105.0090240 -38.8456860 L -105.0093384 -38.8458630 L -105.0099527 -38.8454306 L -105.0102075 -38.8455299 L -105.0105267 -38.8451643 L -105.0108512 -38.8452081 L -105.0117444 -38.8458213 L -105.0115929 -38.8461440 L -105.0117512 -38.8465514 L -105.0132236 -38.8469127 L -105.0133618 -38.8474413 L -105.0135361 -38.8476230 L -105.0138674 -38.8472073 L -105.0142537 -38.8470246 L -105.0147109 -38.8465806 L -105.0150195 -38.8475562 L -105.0153010 -38.8478141 L -105.0158148 -38.8487636 L -105.0171652 -38.8502644 L -105.0172416 -38.8501453 L -105.0171102 -38.8496263 L -105.0171544 -38.8484314 L -105.0173718 -38.8479782 L -105.0176989 -38.8466621 L -105.0184258 -38.8454985 L -105.0191607 -38.8446315 L -105.0198152 -38.8441469 L -105.0201370 -38.8434261 L -105.0206896 -38.8427263 L -105.0210316 -38.8420892 L -105.0211939 -38.8424631 L -105.0211114 -38.8436002 L -105.0228699 -38.8419787 L -105.0224920 -38.8435536 L -105.0242617 -38.8421671 L -105.0241001 -38.8424883 L -105.0244111 -38.8422944 L -105.0244272 -38.8423989 L -105.0241027 -38.8427880 L -105.0240705 -38.8431796 L -105.0255511 -38.8421571 L -105.0256826 -38.8421299 L -105.0256423 -38.8422469 L -105.0260139 -38.8420840 L -105.0257589 -38.8424569 L -105.0259816 -38.8424098 L -105.0257965 -38.8425958 L -105.0264617 -38.8423577 L -105.0266723 -38.8423869 L -105.0264282 -38.8425999 L -105.0271256 -38.8423837 L -105.0264120 -38.8431357 L -105.0273415 -38.8429844 L -105.0266977 -38.8435829 L -105.0265475 -38.8437583 L -105.0267032 -38.8437563 L -105.0266494 -38.8438419 L -105.0261613 -38.8443433 L -105.0264912 -38.8451601 L -105.0267031 -38.8445866 L -105.0275628 -38.8439715 L -105.0273200 -38.8443851 L -105.0277317 -38.8441542 L -105.0275238 -38.8445981 L -105.0280522 -38.8443224 L -105.0277908 -38.8448843 L -105.0279129 -38.8452954 L -105.0282588 -38.8449376 L -105.0282306 -38.8451288 L -105.0283312 -38.8450138 L -105.0285109 -38.8451236 L -105.0290139 -38.8448541 L -105.0299244 -38.8448248 L -105.0300935 -38.8447236 L -105.0305467 -38.8448363 L -105.0307666 -38.8447256 L -105.0305883 -38.8453147 L -105.0311798 -38.8449659 L -105.0307734 -38.8466182 L -105.0310818 -38.8469974 L -105.0316370 -38.8465963 L -105.0319710 -38.8462485 L -105.0320427 -38.8460218 L -105.0321225 -38.8460750 L -105.0322560 -38.8458985 L -105.0325048 -38.8462689 L -105.0326576 -38.8457638 L -105.0330278 -38.8454808 L -105.0338713 -38.8442524 L -105.0339947 -38.8441334 L -105.0340027 -38.8443286 L -105.0340711 -38.8442754 L -105.0347712 -38.8435432 L -105.0354311 -38.8425196 L -105.0364421 -38.8416692 L -105.0370524 -38.8406497 L -105.0372362 -38.8399875 L -105.0368740 -38.8390818 L -105.0364301 -38.8383840 L -105.0373407 -38.8387967 L -105.0368485 -38.8381480 L -105.0374882 -38.8384770 L -105.0376572 -38.8386880 L -105.0377645 -38.8387278 L -105.0376733 -38.8385659 L -105.0380838 -38.8387696 L -105.0380744 -38.8386484 L -105.0383760 -38.8388844 L -105.0383238 -38.8387110 L -105.0386657 -38.8390620 L -105.0393376 -38.8393492 L -105.0395857 -38.8399625 L -105.0396554 -38.8411689 L -105.0399385 -38.8408169 L -105.0402858 -38.8396595 L -105.0404346 -38.8394569 L -105.0404602 -38.8392343 L -105.0402616 -38.8389450 L -105.0406721 -38.8392761 L -105.0406224 -38.8396825 L -105.0408598 -38.8396135 L -105.0408961 -38.8398100 L -105.0410637 -38.8397535 L -105.0411615 -38.8395362 L -105.0412621 -38.8396073 L -105.0410710 -38.8399718 L -105.0411664 -38.8399891 L -105.0410689 -38.8400554 L -105.0410758 -38.8402842 L -105.0412139 -38.8404806 L -105.0410557 -38.8407553 L -105.0412045 -38.8408034 L -105.0410797 -38.8409256 L -105.0413332 -38.8408556 L -105.0414525 -38.8406968 L -105.0414620 -38.8408252 L -105.0416604 -38.8404763 L -105.0416645 -38.8408461 L -105.0421426 -38.8402250 L -105.0423029 -38.8410325" pathLength="1" fill="none" stroke="currentColor" vector-effect="non-scaling-stroke"/>
</svg>
