<svg xmlns="http://www.w3.org/2000/svg" viewBox="0 0 2000 2500" preserveAspectRatio="xMidYMid slice">
  <path class="trace-line" d="M 1669.09 1643.27 L 1677.08 1655.85 L 1666.24 1664.38 L 1664.07 1677.96 L 1664.65 1694.86 L 1666.82 1704.26 L 1660.60 1712.80 L 1656.27 1711.78 L 1648.32 1715.25 L 1637.34 1714.09 L 1631.99 1720.89 L 1617.10 1716.40 L 1615.23 1721.03 L 1608.58 1718.57 L 1606.70 1724.65 L 1596.01 1727.24 L 1587.77 1730.27 L 1580.69 1728.83 L 1572.16 1738.38 L 1567.25 1745.60 L 1568.84 1754.70 L 1566.52 1761.64 L 1558.44 1774.07 L 1551.50 1782.31 L 1549.33 1791.85 L 1538.20 1797.92 L 1537.34 1805.14 L 1530.11 1822.35 L 1521.87 1823.20 L 1506.84 1833.03 L 1493.98 1836.65 L 1489.79 1835.92 L 1475.34 1840.13 L 1468.40 1839.68 L 1460.16 1835.21 L 1450.92 1836.37 L 1438.64 1832.32 L 1435.17 1831.88 L 1429.53 1827.41 L 1414.65 1823.50 L 1405.25 1824.37 L 1392.82 1817.58 L 1378.08 1814.40 L 1359.44 1806.88 L 1349.76 1804.71 L 1336.32 1797.48 L 1322.16 1791.13 L 1309.00 1785.93 L 1284.73 1783.75 L 1275.05 1774.79 L 1262.48 1774.65 L 1252.21 1766.55 L 1243.69 1766.41 L 1226.78 1753.83 L 1202.79 1753.98 L 1198.60 1750.80 L 1197.01 1737.65 L 1189.66 1703.13 L 1165.31 1675.00 L 1146.79 1664.53 L 1128.43 1660.61 L 1106.83 1660.31 L 1081.12 1662.63 L 1048.17 1658.01 L 1025.33 1650.50 L 994.84 1641.83 L 974.17 1642.98 L 963.34 1647.46 L 955.24 1648.04 L 937.90 1647.76 L 925.47 1648.62 L 910.73 1655.56 L 893.97 1665.09 L 876.92 1672.17 L 872.73 1668.57 L 853.37 1672.33 L 835.30 1675.06 L 822.15 1675.65 L 802.79 1675.79 L 706.28 1710.20 L 681.54 1702.32 L 628.31 1719.85 L 616.25 1732.86 L 603.93 1740.22 L 557.63 1724.11 L 523.42 1686.87 L 521.15 1591.75 L 528.19 1472.14 L 574.69 1402.21 L 579.92 1378.26 L 604.48 1372.55 L 626.81 1343.19 L 628.31 1328.66 L 613.39 1322.36 L 614.32 1301.80 L 578.17 1267.82 L 480.90 1297.42 L 474.30 1259.15 L 478.05 1225.90 L 470.03 1169.04 L 469.93 1134.03 L 461.62 1058.57 L 452.97 1026.79 L 442.85 1008.62 L 429.54 995.90 L 436.33 963.74 L 424.87 941.62 L 420.40 838.55 L 429.54 821.19 L 429.89 798.75 L 422.21 763.19 L 424.01 733.86 L 421.10 687.61 L 411.52 659.88 L 368.08 687.02 L 333.72 689.97 L 327.42 688.04" pathLength="1" fill="none" vector-effect="non-scaling-stroke"/>
  <circle class="trace-start" cx="1669.09" cy="1643.27" r="6.25"/>
  <circle class="trace-summit-halo" cx="322.92" cy="686.09" r="15.97"/>
  <circle class="trace-summit" cx="322.92" cy="686.09" r="9.03"/>
</svg>
