<svg xmlns="http://www.w3.org/2000/svg" viewBox="0 0 2000 2500" preserveAspectRatio="none">
  <path class="trace-underlay" d="M 1492.77 1300.12 L 1499.35 1308.10 L 1490.42 1313.52 L 1488.63 1322.14 L 1489.11 1332.87 L 1490.90 1338.83 L 1485.77 1344.25 L 1482.20 1343.61 L 1475.66 1345.81 L 1466.61 1345.07 L 1462.21 1349.39 L 1449.95 1346.54 L 1448.40 1349.48 L 1442.92 1347.91 L 1441.38 1351.77 L 1432.57 1353.42 L 1425.79 1355.34 L 1419.95 1354.43 L 1412.93 1360.49 L 1408.89 1365.07 L 1410.19 1370.85 L 1408.29 1375.25 L 1401.63 1383.14 L 1395.91 1388.37 L 1394.12 1394.43 L 1384.96 1398.28 L 1384.25 1402.86 L 1378.29 1413.78 L 1371.51 1414.33 L 1359.13 1420.57 L 1348.54 1422.86 L 1345.08 1422.40 L 1333.18 1425.07 L 1327.47 1424.79 L 1320.68 1421.95 L 1313.06 1422.68 L 1302.95 1420.11 L 1300.09 1419.83 L 1295.45 1416.99 L 1283.19 1414.52 L 1275.45 1415.07 L 1265.21 1410.75 L 1253.08 1408.74 L 1237.72 1403.97 L 1229.75 1402.59 L 1218.68 1398.00 L 1196.18 1390.67 L 1176.18 1389.28 L 1168.21 1383.60 L 1157.85 1383.51 L 1149.40 1378.37 L 1142.38 1378.28 L 1128.46 1370.30 L 1108.69 1370.39 L 1105.24 1368.37 L 1103.93 1360.03 L 1097.88 1338.12 L 1077.82 1320.26 L 1062.57 1313.62 L 1047.44 1311.13 L 1029.66 1310.94 L 1008.48 1312.41 L 981.34 1309.48 L 962.53 1304.71 L 937.41 1299.21 L 920.39 1299.94 L 911.46 1302.78 L 904.80 1303.15 L 890.52 1302.97 L 880.28 1303.52 L 868.13 1307.92 L 854.33 1313.97 L 840.29 1318.47 L 836.83 1316.18 L 820.89 1318.56 L 806.01 1320.30 L 779.23 1320.76 L 699.74 1342.60 L 679.36 1337.60 L 635.52 1348.73 L 625.58 1356.98 L 615.44 1361.66 L 577.30 1351.43 L 549.12 1327.79 L 547.25 1267.42 L 553.06 1191.51 L 591.36 1147.12 L 595.66 1131.92 L 615.89 1128.29 L 634.29 1109.66 L 635.52 1100.44 L 623.23 1096.44 L 623.99 1083.39 L 594.22 1061.83 L 514.10 1080.61 L 508.67 1056.32 L 511.75 1035.22 L 505.15 999.13 L 505.07 976.91 L 498.22 929.01 L 491.10 908.84 L 482.76 897.31 L 471.80 889.23 L 477.39 868.82 L 467.95 854.78 L 464.27 789.36 L 471.80 778.34 L 472.09 764.10 L 465.76 741.54 L 467.25 722.92 L 464.84 693.56 L 456.95 675.96 L 421.17 693.19 L 392.88 695.06 L 387.69 693.84" pathLength="1" fill="none" vector-effect="non-scaling-stroke"/>
  <path class="trace-line" d="M 1492.77 1300.12 L 1499.35 1308.10 L 1490.42 1313.52 L 1488.63 1322.14 L 1489.11 1332.87 L 1490.90 1338.83 L 1485.77 1344.25 L 1482.20 1343.61 L 1475.66 1345.81 L 1466.61 1345.07 L 1462.21 1349.39 L 1449.95 1346.54 L 1448.40 1349.48 L 1442.92 1347.91 L 1441.38 1351.77 L 1432.57 1353.42 L 1425.79 1355.34 L 1419.95 1354.43 L 1412.93 1360.49 L 1408.89 1365.07 L 1410.19 1370.85 L 1408.29 1375.25 L 1401.63 1383.14 L 1395.91 1388.37 L 1394.12 1394.43 L 1384.96 1398.28 L 1384.25 1402.86 L 1378.29 1413.78 L 1371.51 1414.33 L 1359.13 1420.57 L 1348.54 1422.86 L 1345.08 1422.40 L 1333.18 1425.07 L 1327.47 1424.79 L 1320.68 1421.95 L 1313.06 1422.68 L 1302.95 1420.11 L 1300.09 1419.83 L 1295.45 1416.99 L 1283.19 1414.52 L 1275.45 1415.07 L 1265.21 1410.75 L 1253.08 1408.74 L 1237.72 1403.97 L 1229.75 1402.59 L 1218.68 1398.00 L 1196.18 1390.67 L 1176.18 1389.28 L 1168.21 1383.60 L 1157.85 1383.51 L 1149.40 1378.37 L 1142.38 1378.28 L 1128.46 1370.30 L 1108.69 1370.39 L 1105.24 1368.37 L 1103.93 1360.03 L 1097.88 1338.12 L 1077.82 1320.26 L 1062.57 1313.62 L 1047.44 1311.13 L 1029.66 1310.94 L 1008.48 1312.41 L 981.34 1309.48 L 962.53 1304.71 L 937.41 1299.21 L 920.39 1299.94 L 911.46 1302.78 L 904.80 1303.15 L 890.52 1302.97 L 880.28 1303.52 L 868.13 1307.92 L 854.33 1313.97 L 840.29 1318.47 L 836.83 1316.18 L 820.89 1318.56 L 806.01 1320.30 L 779.23 1320.76 L 699.74 1342.60 L 679.36 1337.60 L 635.52 1348.73 L 625.58 1356.98 L 615.44 1361.66 L 577.30 1351.43 L 549.12 1327.79 L 547.25 1267.42 L 553.06 1191.51 L 591.36 1147.12 L 595.66 1131.92 L 615.89 1128.29 L 634.29 1109.66 L 635.52 1100.44 L 623.23 1096.44 L 623.99 1083.39 L 594.22 1061.83 L 514.10 1080.61 L 508.67 1056.32 L 511.75 1035.22 L 505.15 999.13 L 505.07 976.91 L 498.22 929.01 L 491.10 908.84 L 482.76 897.31 L 471.80 889.23 L 477.39 868.82 L 467.95 854.78 L 464.27 789.36 L 471.80 778.34 L 472.09 764.10 L 465.76 741.54 L 467.25 722.92 L 464.84 693.56 L 456.95 675.96 L 421.17 693.19 L 392.88 695.06 L 387.69 693.84" pathLength="1" fill="none" vector-effect="non-scaling-stroke"/>
</svg>
