<svg xmlns="http://www.w3.org/2000/svg" viewBox="0 0 1600 900" preserveAspectRatio="xMidYMid slice">
  <path class="trace-line" d="M 1294.10 740.25 L 1300.00 749.53 L 1291.99 755.83 L 1290.39 765.85 L 1290.82 778.33 L 1292.42 785.27 L 1287.83 791.56 L 1284.63 790.82 L 1278.76 793.37 L 1270.65 792.52 L 1266.70 797.53 L 1255.71 794.22 L 1254.32 797.64 L 1249.41 795.82 L 1248.02 800.31 L 1240.13 802.22 L 1234.05 804.46 L 1228.82 803.40 L 1222.52 810.44 L 1218.90 815.77 L 1220.07 822.49 L 1218.36 827.61 L 1212.38 836.79 L 1207.26 842.87 L 1205.66 849.91 L 1197.44 854.39 L 1196.80 859.72 L 1191.46 872.42 L 1185.38 873.05 L 1174.28 880.30 L 1164.79 882.97 L 1161.69 882.44 L 1151.02 885.54 L 1145.90 885.21 L 1139.81 881.91 L 1132.98 882.76 L 1123.92 879.78 L 1121.35 879.45 L 1117.19 876.15 L 1106.20 873.27 L 1099.26 873.91 L 1090.08 868.90 L 1079.20 866.55 L 1065.44 861.00 L 1058.29 859.40 L 1048.36 854.06 L 1037.90 849.37 L 1028.19 845.54 L 1010.26 843.93 L 1003.11 837.32 L 993.83 837.21 L 986.25 831.24 L 979.95 831.13 L 967.47 821.85 L 949.75 821.96 L 946.66 819.61 L 945.48 809.91 L 940.06 784.43 L 922.08 763.67 L 908.40 755.94 L 894.84 753.04 L 878.89 752.82 L 859.90 754.54 L 835.57 751.13 L 818.71 745.59 L 796.19 739.19 L 780.93 740.04 L 772.92 743.34 L 766.95 743.77 L 754.15 743.56 L 744.97 744.20 L 734.08 749.32 L 721.70 756.36 L 709.11 761.58 L 706.01 758.92 L 691.72 761.69 L 678.37 763.71 L 668.66 764.14 L 654.36 764.25 L 583.10 789.65 L 564.83 783.83 L 525.52 796.77 L 516.62 806.37 L 507.52 811.80 L 473.33 799.91 L 448.06 772.43 L 446.39 702.22 L 451.59 613.95 L 485.93 562.34 L 489.79 544.66 L 507.92 540.44 L 524.42 518.78 L 525.52 508.06 L 514.50 503.40 L 515.19 488.23 L 488.50 463.16 L 416.66 485.00 L 411.79 456.75 L 414.56 432.22 L 408.64 390.25 L 408.56 364.41 L 402.43 308.72 L 396.04 285.26 L 388.57 271.85 L 378.74 262.46 L 383.75 238.73 L 375.29 222.40 L 371.99 146.33 L 378.74 133.52 L 379.00 116.96 L 373.33 90.72 L 374.66 69.07 L 372.50 34.93 L 365.43 14.46 L 333.35 34.49 L 307.98 36.67 L 303.33 35.25" pathLength="1" fill="none" vector-effect="non-scaling-stroke"/>
  <circle class="trace-start" cx="1294.10" cy="740.25" r="4.62"/>
  <circle class="trace-summit-halo" cx="300.00" cy="33.81" r="11.79"/>
  <circle class="trace-summit" cx="300.00" cy="33.81" r="6.67"/>
</svg>
