<svg xmlns="http://www.w3.org/2000/svg" viewBox="-105.5868908 -37.9681122 0.0172652 0.0119028" preserveAspectRatio="xMidYMid meet">
  <path d="M -105.5711495 -37.9588557 L -105.5710643 -37.9587500 L -105.5711799 -37.9586783 L -105.5712030 -37.9585642 L -105.5711968 -37.9584221 L -105.5711737 -37.9583431 L -105.5712400 -37.9582714 L -105.5712862 -37.9582799 L -105.5713709 -37.9582508 L -105.5714880 -37.9582605 L -105.5715450 -37.9582034 L -105.5717037 -37.9582411 L -105.5717237 -37.9582022 L -105.5717946 -37.9582229 L -105.5718146 -37.9581718 L -105.5719286 -37.9581500 L -105.5720164 -37.9581245 L -105.5720919 -37.9581366 L -105.5721828 -37.9580564 L -105.5722351 -37.9579957 L -105.5722182 -37.9579192 L -105.5722429 -37.9578609 L -105.5723291 -37.9577564 L -105.5724031 -37.9576872 L -105.5724262 -37.9576070 L -105.5725448 -37.9575560 L -105.5725540 -37.9574953 L -105.5726311 -37.9573507 L -105.5727189 -37.9573435 L -105.5728791 -37.9572609 L -105.5730162 -37.9572305 L -105.5730609 -37.9572366 L -105.5732149 -37.9572013 L -105.5732889 -37.9572050 L -105.5733767 -37.9572426 L -105.5734753 -37.9572329 L -105.5736062 -37.9572669 L -105.5736432 -37.9572706 L -105.5737033 -37.9573082 L -105.5738619 -37.9573410 L -105.5739621 -37.9573337 L -105.5740946 -37.9573908 L -105.5742517 -37.9574175 L -105.5744504 -37.9574807 L -105.5745536 -37.9574989 L -105.5746969 -37.9575597 L -105.5748479 -37.9576131 L -105.5749881 -37.9576568 L -105.5752469 -37.9576751 L -105.5753501 -37.9577504 L -105.5754841 -37.9577516 L -105.5755935 -37.9578196 L -105.5756844 -37.9578208 L -105.5758646 -37.9579265 L -105.5761204 -37.9579253 L -105.5761650 -37.9579520 L -105.5761820 -37.9580625 L -105.5762603 -37.9583526 L -105.5765199 -37.9585890 L -105.5767173 -37.9586770 L -105.5769131 -37.9587100 L -105.5771433 -37.9587125 L -105.5774174 -37.9586930 L -105.5777687 -37.9587318 L -105.5780121 -37.9587949 L -105.5783372 -37.9588678 L -105.5785575 -37.9588581 L -105.5786730 -37.9588205 L -105.5787593 -37.9588156 L -105.5789441 -37.9588180 L -105.5790766 -37.9588107 L -105.5792338 -37.9587524 L -105.5794125 -37.9586723 L -105.5795942 -37.9586128 L -105.5796389 -37.9586431 L -105.5798453 -37.9586115 L -105.5800379 -37.9585885 L -105.5803845 -37.9585824 L -105.5814133 -37.9582932 L -105.5816770 -37.9583594 L -105.5822444 -37.9582121 L -105.5823730 -37.9581028 L -105.5825043 -37.9580409 L -105.5829979 -37.9581763 L -105.5833626 -37.9584893 L -105.5833868 -37.9592887 L -105.5833117 -37.9602939 L -105.5828160 -37.9608816 L -105.5827603 -37.9610829 L -105.5824985 -37.9611309 L -105.5822604 -37.9613776 L -105.5822444 -37.9614997 L -105.5824035 -37.9615527 L -105.5823936 -37.9617255 L -105.5827789 -37.9620110 L -105.5838159 -37.9617623 L -105.5838862 -37.9620839 L -105.5838463 -37.9623633 L -105.5839317 -37.9628412 L -105.5839328 -37.9631354 L -105.5840214 -37.9637696 L -105.5841136 -37.9640367 L -105.5842215 -37.9641894 L -105.5843634 -37.9642963 L -105.5842910 -37.9645666 L -105.5844132 -37.9647525 L -105.5844608 -37.9656187 L -105.5843634 -37.9657646 L -105.5843596 -37.9659532 L -105.5844415 -37.9662520 L -105.5844223 -37.9664985 L -105.5844534 -37.9668872 L -105.5845555 -37.9671203 L -105.5850186 -37.9668922 L -105.5853848 -37.9668674 L -105.5854520 -37.9668836" pathLength="1" fill="none" stroke="currentColor" vector-effect="non-scaling-stroke"/>
</svg>
