<svg xmlns="http://www.w3.org/2000/svg" viewBox="0 0 2000 2500" preserveAspectRatio="none">
  <path class="trace-underlay" d="M 705.01 1507.83 L 718.07 1505.65 L 720.90 1506.61 L 726.37 1505.65 L 729.72 1499.94 L 736.08 1496.95 L 743.84 1495.99 L 756.37 1495.72 L 766.60 1494.09 L 774.90 1493.41 L 780.37 1495.18 L 782.14 1489.19 L 784.61 1482.53 L 787.43 1479.53 L 793.25 1478.30 L 796.61 1476.00 L 799.07 1472.73 L 805.78 1462.26 L 818.66 1463.61 L 823.79 1463.75 L 831.55 1462.39 L 829.26 1458.04 L 822.55 1454.09 L 821.67 1450.42 L 818.31 1448.11 L 813.72 1439.95 L 805.43 1432.60 L 794.66 1424.85 L 780.02 1410.15 L 781.78 1408.79 L 800.67 1413.69 L 812.13 1417.09 L 820.96 1418.72 L 826.78 1422.67 L 837.20 1424.44 L 844.25 1427.70 L 850.96 1428.24 L 852.72 1427.42 L 852.37 1424.85 L 846.73 1419.67 L 840.72 1416.28 L 840.72 1414.50 L 844.61 1414.23 L 849.37 1416.14 L 856.61 1417.50 L 859.96 1420.49 L 867.73 1421.85 L 871.43 1425.52 L 878.49 1429.47 L 886.61 1430.15 L 881.49 1422.53 L 879.19 1417.36 L 872.14 1412.87 L 871.08 1409.75 L 853.07 1395.46 L 843.19 1389.48 L 836.14 1387.16 L 823.25 1378.59 L 838.43 1377.09 L 840.37 1375.87 L 845.67 1376.96 L 852.02 1376.01 L 857.84 1377.50 L 865.43 1376.14 L 888.02 1382.67 L 894.72 1383.22 L 899.67 1382.26 L 902.13 1380.09 L 902.31 1376.96 L 899.32 1368.66 L 895.61 1354.38 L 892.61 1351.38 L 892.96 1347.30 L 887.49 1338.73 L 886.61 1335.33 L 882.90 1329.75 L 875.32 1321.86 L 869.84 1316.97 L 845.13 1302.82 L 837.02 1296.42 L 825.72 1289.21 L 814.78 1284.05 L 801.73 1278.87 L 776.49 1264.46 L 759.55 1255.62 L 754.25 1252.21 L 737.49 1246.91 L 724.25 1241.46 L 716.13 1234.80 L 712.96 1230.85 L 705.19 1228.81 L 716.49 1225.55 L 723.72 1224.32 L 729.72 1220.79 L 762.90 1209.77 L 766.08 1206.50 L 762.90 1201.07 L 762.90 1198.48 L 751.61 1195.35 L 751.61 1193.31 L 772.26 1186.50 L 792.90 1183.24 L 798.90 1182.97 L 805.95 1183.38 L 806.14 1179.98 L 817.43 1180.79 L 831.19 1177.94 L 851.31 1174.54 L 885.02 1171.13 L 891.37 1173.99 L 901.08 1169.23 L 906.02 1166.24 L 915.19 1167.46 L 932.49 1158.89 L 940.43 1157.94 L 946.08 1156.03 L 953.67 1159.98 L 962.67 1156.03 L 966.20 1158.35 L 971.85 1154.27 L 976.96 1156.17 L 984.37 1154.27 L 989.32 1156.03 L 996.55 1155.76 L 1009.97 1150.46 L 1012.26 1152.91 L 1017.91 1148.42 L 1021.78 1150.87 L 1032.91 1145.70 L 1041.73 1145.83 L 1050.56 1142.16 L 1061.14 1145.42 L 1070.67 1143.66 L 1082.14 1145.83 L 1084.44 1141.75 L 1100.85 1137.26 L 1105.08 1132.77 L 1110.20 1134.95 L 1112.85 1138.35 L 1120.43 1136.17 L 1124.14 1139.58 L 1129.26 1143.11 L 1135.97 1143.93 L 1141.79 1139.03 L 1146.20 1140.93 L 1154.85 1134.81 L 1156.43 1130.46 L 1161.90 1129.78 L 1165.79 1132.64 L 1186.08 1117.68 L 1188.02 1119.17 L 1186.96 1122.16 L 1192.09 1125.02 L 1199.50 1124.89 L 1207.44 1118.62 L 1216.09 1118.62 L 1218.21 1122.44 L 1222.79 1124.48 L 1227.73 1119.03 L 1232.85 1117.27 L 1235.14 1119.03 L 1255.26 1111.42 L 1261.09 1111.56 L 1271.49 1103.52 L 1288.89 1108.76 L 1300.31 1107.58 L 1308.08 1104.86 L 1331.85 1106.56 L 1338.30 1101.44 L 1341.36 1093.89 L 1351.45 1092.53 L 1372.93 1098.06 L 1378.57 1090.99 L 1395.59 1088.66 L 1400.38 1085.16 L 1403.04 1081.32 L 1408.94 1081.71 L 1412.66 1083.16 L 1418.69 1082.07 L 1424.73 1078.61 L 1425.58 1072.16 L 1427.81 1065.86 L 1436.02 1061.38 L 1446.04 1060.47 L 1453.44 1059.23 L 1458.24 1054.15 L 1465.67 1052.26 L 1469.58 1048.85 L 1480.21 1045.17 L 1489.65 1040.73 L 1515.51 1023.75 L 1546.90 1009.86 L 1577.19 1000.62 L 1619.46 990.72 L 1679.57 981.13 L 1715.02 982.48 L 1737.58 975.99 L 1784.06 967.23 L 1815.51 961.93" pathLength="1" fill="none" vector-effect="non-scaling-stroke"/>
  <path class="trace-line" d="M 705.01 1507.83 L 718.07 1505.65 L 720.90 1506.61 L 726.37 1505.65 L 729.72 1499.94 L 736.08 1496.95 L 743.84 1495.99 L 756.37 1495.72 L 766.60 1494.09 L 774.90 1493.41 L 780.37 1495.18 L 782.14 1489.19 L 784.61 1482.53 L 787.43 1479.53 L 793.25 1478.30 L 796.61 1476.00 L 799.07 1472.73 L 805.78 1462.26 L 818.66 1463.61 L 823.79 1463.75 L 831.55 1462.39 L 829.26 1458.04 L 822.55 1454.09 L 821.67 1450.42 L 818.31 1448.11 L 813.72 1439.95 L 805.43 1432.60 L 794.66 1424.85 L 780.02 1410.15 L 781.78 1408.79 L 800.67 1413.69 L 812.13 1417.09 L 820.96 1418.72 L 826.78 1422.67 L 837.20 1424.44 L 844.25 1427.70 L 850.96 1428.24 L 852.72 1427.42 L 852.37 1424.85 L 846.73 1419.67 L 840.72 1416.28 L 840.72 1414.50 L 844.61 1414.23 L 849.37 1416.14 L 856.61 1417.50 L 859.96 1420.49 L 867.73 1421.85 L 871.43 1425.52 L 878.49 1429.47 L 886.61 1430.15 L 881.49 1422.53 L 879.19 1417.36 L 872.14 1412.87 L 871.08 1409.75 L 853.07 1395.46 L 843.19 1389.48 L 836.14 1387.16 L 823.25 1378.59 L 838.43 1377.09 L 840.37 1375.87 L 845.67 1376.96 L 852.02 1376.01 L 857.84 1377.50 L 865.43 1376.14 L 888.02 1382.67 L 894.72 1383.22 L 899.67 1382.26 L 902.13 1380.09 L 902.31 1376.96 L 899.32 1368.66 L 895.61 1354.38 L 892.61 1351.38 L 892.96 1347.30 L 887.49 1338.73 L 886.61 1335.33 L 882.90 1329.75 L 875.32 1321.86 L 869.84 1316.97 L 845.13 1302.82 L 837.02 1296.42 L 825.72 1289.21 L 814.78 1284.05 L 801.73 1278.87 L 776.49 1264.46 L 759.55 1255.62 L 754.25 1252.21 L 737.49 1246.91 L 724.25 1241.46 L 716.13 1234.80 L 712.96 1230.85 L 705.19 1228.81 L 716.49 1225.55 L 723.72 1224.32 L 729.72 1220.79 L 762.90 1209.77 L 766.08 1206.50 L 762.90 1201.07 L 762.90 1198.48 L 751.61 1195.35 L 751.61 1193.31 L 772.26 1186.50 L 792.90 1183.24 L 798.90 1182.97 L 805.95 1183.38 L 806.14 1179.98 L 817.43 1180.79 L 831.19 1177.94 L 851.31 1174.54 L 885.02 1171.13 L 891.37 1173.99 L 901.08 1169.23 L 906.02 1166.24 L 915.19 1167.46 L 932.49 1158.89 L 940.43 1157.94 L 946.08 1156.03 L 953.67 1159.98 L 962.67 1156.03 L 966.20 1158.35 L 971.85 1154.27 L 976.96 1156.17 L 984.37 1154.27 L 989.32 1156.03 L 996.55 1155.76 L 1009.97 1150.46 L 1012.26 1152.91 L 1017.91 1148.42 L 1021.78 1150.87 L 1032.91 1145.70 L 1041.73 1145.83 L 1050.56 1142.16 L 1061.14 1145.42 L 1070.67 1143.66 L 1082.14 1145.83 L 1084.44 1141.75 L 1100.85 1137.26 L 1105.08 1132.77 L 1110.20 1134.95 L 1112.85 1138.35 L 1120.43 1136.17 L 1124.14 1139.58 L 1129.26 1143.11 L 1135.97 1143.93 L 1141.79 1139.03 L 1146.20 1140.93 L 1154.85 1134.81 L 1156.43 1130.46 L 1161.90 1129.78 L 1165.79 1132.64 L 1186.08 1117.68 L 1188.02 1119.17 L 1186.96 1122.16 L 1192.09 1125.02 L 1199.50 1124.89 L 1207.44 1118.62 L 1216.09 1118.62 L 1218.21 1122.44 L 1222.79 1124.48 L 1227.73 1119.03 L 1232.85 1117.27 L 1235.14 1119.03 L 1255.26 1111.42 L 1261.09 1111.56 L 1271.49 1103.52 L 1288.89 1108.76 L 1300.31 1107.58 L 1308.08 1104.86 L 1331.85 1106.56 L 1338.30 1101.44 L 1341.36 1093.89 L 1351.45 1092.53 L 1372.93 1098.06 L 1378.57 1090.99 L 1395.59 1088.66 L 1400.38 1085.16 L 1403.04 1081.32 L 1408.94 1081.71 L 1412.66 1083.16 L 1418.69 1082.07 L 1424.73 1078.61 L 1425.58 1072.16 L 1427.81 1065.86 L 1436.02 1061.38 L 1446.04 1060.47 L 1453.44 1059.23 L 1458.24 1054.15 L 1465.67 1052.26 L 1469.58 1048.85 L 1480.21 1045.17 L 1489.65 1040.73 L 1515.51 1023.75 L 1546.90 1009.86 L 1577.19 1000.62 L 1619.46 990.72 L 1679.57 981.13 L 1715.02 982.48 L 1737.58 975.99 L 1784.06 967.23 L 1815.51 961.93" pathLength="1" fill="none" vector-effect="non-scaling-stroke"/>
</svg>
