<svg xmlns="http://www.w3.org/2000/svg" viewBox="0 0 2000 2500" preserveAspectRatio="xMidYMid slice">
  <path class="trace-line" d="M 322.92 1681.80 L 338.84 1678.36 L 342.29 1679.87 L 348.96 1678.36 L 353.04 1669.33 L 360.80 1664.59 L 370.26 1663.08 L 385.54 1662.66 L 398.02 1660.06 L 408.14 1659.00 L 414.81 1661.79 L 416.96 1652.33 L 419.98 1641.78 L 423.41 1637.04 L 430.51 1635.10 L 434.61 1631.45 L 437.61 1626.28 L 445.80 1609.71 L 461.50 1611.86 L 467.75 1612.08 L 477.22 1609.93 L 474.42 1603.04 L 466.24 1596.79 L 465.17 1590.98 L 461.07 1587.32 L 455.48 1574.42 L 445.37 1562.79 L 432.24 1550.53 L 420.19 1534.38 L 414.38 1527.28 L 416.53 1525.13 L 439.56 1532.88 L 453.54 1538.25 L 464.31 1540.83 L 471.41 1547.09 L 484.11 1549.88 L 492.71 1555.04 L 500.88 1555.90 L 503.04 1554.61 L 502.60 1550.53 L 495.72 1542.35 L 488.40 1536.97 L 488.40 1534.16 L 493.14 1533.73 L 498.95 1536.76 L 507.77 1538.90 L 511.86 1543.64 L 521.33 1545.79 L 525.85 1551.60 L 534.45 1557.85 L 544.36 1558.91 L 538.12 1546.87 L 535.32 1538.69 L 526.71 1531.58 L 525.42 1526.64 L 503.47 1504.04 L 491.42 1494.57 L 482.81 1490.91 L 467.10 1477.36 L 485.61 1474.98 L 487.97 1473.05 L 494.43 1474.76 L 502.17 1473.27 L 509.28 1475.63 L 518.53 1473.48 L 546.08 1483.81 L 554.25 1484.67 L 560.28 1483.16 L 563.29 1479.72 L 563.51 1474.76 L 559.85 1461.64 L 555.34 1439.05 L 551.67 1434.31 L 552.10 1427.85 L 545.43 1414.30 L 544.36 1408.91 L 539.83 1400.09 L 530.59 1387.60 L 523.91 1379.87 L 493.78 1357.48 L 483.89 1347.36 L 470.11 1335.95 L 456.77 1327.78 L 440.85 1319.60 L 410.07 1296.80 L 389.42 1282.81 L 382.96 1277.42 L 362.52 1269.03 L 346.37 1260.42 L 336.48 1249.87 L 332.60 1243.63 L 323.14 1240.41 L 336.91 1235.24 L 345.73 1233.30 L 353.04 1227.71 L 388.34 1212.86 L 393.51 1210.28 L 397.38 1205.11 L 393.51 1196.51 L 393.51 1192.42 L 379.73 1187.46 L 379.73 1184.24 L 404.91 1173.47 L 430.08 1168.31 L 437.40 1167.88 L 446.01 1168.53 L 446.23 1163.14 L 460.00 1164.44 L 476.78 1159.92 L 501.31 1154.54 L 542.42 1149.15 L 550.17 1153.68 L 562.01 1146.14 L 568.03 1141.42 L 579.21 1143.35 L 600.31 1129.79 L 609.99 1128.28 L 616.88 1125.27 L 626.14 1131.51 L 637.10 1125.27 L 641.41 1128.93 L 648.30 1122.47 L 654.54 1125.48 L 663.57 1122.47 L 669.60 1125.27 L 678.43 1124.84 L 694.78 1116.45 L 697.58 1120.33 L 704.47 1113.22 L 709.19 1117.10 L 722.76 1108.92 L 733.51 1109.13 L 744.28 1103.33 L 757.19 1108.48 L 768.81 1105.69 L 782.80 1109.13 L 785.59 1102.68 L 805.60 1095.57 L 810.77 1088.47 L 817.01 1091.92 L 820.24 1097.29 L 829.49 1093.85 L 834.01 1099.23 L 840.25 1104.82 L 848.43 1106.12 L 855.53 1098.37 L 860.91 1101.38 L 871.46 1091.70 L 873.39 1084.81 L 880.06 1083.73 L 884.80 1088.26 L 909.55 1064.59 L 911.91 1066.95 L 910.62 1071.69 L 916.87 1076.21 L 925.90 1076.00 L 935.59 1066.08 L 946.13 1066.08 L 948.72 1072.12 L 954.30 1075.35 L 960.33 1066.73 L 966.57 1063.94 L 969.37 1066.73 L 993.91 1054.69 L 1001.01 1054.90 L 1013.70 1042.20 L 1034.91 1050.48 L 1048.83 1048.61 L 1058.31 1044.31 L 1087.29 1047.00 L 1095.16 1038.91 L 1098.90 1026.95 L 1111.20 1024.80 L 1137.39 1033.56 L 1144.27 1022.36 L 1165.02 1018.68 L 1170.86 1013.14 L 1174.10 1007.07 L 1181.30 1007.69 L 1185.84 1009.98 L 1193.18 1008.26 L 1200.56 1002.78 L 1201.60 992.58 L 1204.31 982.61 L 1214.33 975.53 L 1226.54 974.10 L 1235.57 972.13 L 1241.42 964.08 L 1250.48 961.10 L 1255.25 955.71 L 1268.21 949.88 L 1279.72 942.86 L 1311.26 915.99 L 1349.54 894.02 L 1386.47 879.41 L 1438.01 863.75 L 1511.32 848.58 L 1554.54 850.71 L 1582.05 840.44 L 1638.73 826.58 L 1677.08 818.20" pathLength="1" fill="none" vector-effect="non-scaling-stroke"/>
  <circle class="trace-start" cx="322.92" cy="1681.80" r="6.25"/>
  <circle class="trace-summit-halo" cx="1676.43" cy="824.14" r="15.97"/>
  <circle class="trace-summit" cx="1676.43" cy="824.14" r="9.03"/>
</svg>
