<svg xmlns="http://www.w3.org/2000/svg" viewBox="0 0 1600 900" preserveAspectRatio="xMidYMid slice">
  <path class="trace-line" d="M 277.21 783.50 L 289.51 780.84 L 292.17 782.01 L 297.32 780.84 L 300.47 773.87 L 306.46 770.21 L 313.77 769.04 L 325.57 768.71 L 335.20 766.71 L 343.01 765.89 L 348.16 768.05 L 349.83 760.74 L 352.15 752.59 L 354.81 748.93 L 360.29 747.43 L 363.45 744.61 L 365.77 740.62 L 372.09 727.82 L 384.22 729.48 L 389.04 729.65 L 396.35 727.99 L 394.19 722.67 L 387.87 717.84 L 387.05 713.36 L 383.88 710.53 L 379.57 700.56 L 371.76 691.58 L 361.62 682.11 L 352.32 669.64 L 347.83 664.15 L 349.49 662.50 L 367.27 668.48 L 378.07 672.63 L 386.38 674.63 L 391.86 679.45 L 401.67 681.61 L 408.31 685.60 L 414.62 686.26 L 416.28 685.26 L 415.95 682.11 L 410.64 675.79 L 404.99 671.64 L 404.99 669.47 L 408.64 669.14 L 413.13 671.48 L 419.94 673.13 L 423.10 676.79 L 430.41 678.45 L 433.90 682.94 L 440.54 687.77 L 448.19 688.59 L 443.37 679.29 L 441.21 672.97 L 434.57 667.48 L 433.57 663.66 L 416.62 646.21 L 407.31 638.89 L 400.67 636.07 L 388.54 625.60 L 402.83 623.76 L 404.65 622.27 L 409.64 623.60 L 415.62 622.44 L 421.10 624.26 L 428.25 622.61 L 449.52 630.58 L 455.83 631.25 L 460.49 630.08 L 462.81 627.42 L 462.98 623.60 L 460.15 613.46 L 456.67 596.01 L 453.84 592.35 L 454.17 587.37 L 449.02 576.90 L 448.19 572.73 L 444.70 565.92 L 437.56 556.28 L 432.40 550.30 L 409.14 533.01 L 401.50 525.20 L 390.87 516.39 L 380.57 510.08 L 368.27 503.76 L 344.51 486.14 L 328.56 475.34 L 323.57 471.18 L 307.79 464.70 L 295.32 458.05 L 287.68 449.90 L 284.69 445.08 L 277.38 442.59 L 288.02 438.60 L 294.83 437.11 L 300.47 432.79 L 327.72 421.32 L 331.72 419.32 L 334.71 415.33 L 331.72 408.69 L 331.72 405.53 L 321.08 401.70 L 321.08 399.21 L 340.52 390.89 L 359.96 386.91 L 365.61 386.58 L 372.25 387.08 L 372.42 382.92 L 383.06 383.92 L 396.02 380.42 L 414.95 376.27 L 446.69 372.11 L 452.68 375.61 L 461.82 369.79 L 466.47 366.14 L 475.10 367.63 L 491.39 357.16 L 498.87 355.99 L 504.19 353.66 L 511.33 358.48 L 519.80 353.66 L 523.13 356.49 L 528.45 351.50 L 533.26 353.83 L 540.24 351.50 L 544.89 353.66 L 551.71 353.33 L 564.34 346.85 L 566.49 349.85 L 571.81 344.36 L 575.46 347.35 L 585.93 341.03 L 594.24 341.20 L 602.55 336.72 L 612.52 340.70 L 621.49 338.54 L 632.29 341.20 L 634.45 336.22 L 649.90 330.73 L 653.89 325.24 L 658.71 327.90 L 661.20 332.05 L 668.35 329.40 L 671.83 333.56 L 676.65 337.87 L 682.97 338.87 L 688.45 332.89 L 692.61 335.21 L 700.75 327.74 L 702.24 322.42 L 707.39 321.58 L 711.05 325.08 L 730.16 306.80 L 731.98 308.62 L 730.99 312.28 L 735.81 315.77 L 742.79 315.61 L 750.26 307.95 L 758.41 307.95 L 760.40 312.61 L 764.72 315.11 L 769.37 308.45 L 774.19 306.29 L 776.35 308.45 L 795.29 299.15 L 800.78 299.32 L 810.58 289.50 L 826.95 295.90 L 837.70 294.46 L 845.02 291.13 L 867.40 293.21 L 873.48 286.96 L 876.36 277.73 L 885.86 276.07 L 906.08 282.83 L 911.39 274.19 L 927.42 271.34 L 931.92 267.06 L 934.43 262.37 L 939.98 262.85 L 943.49 264.62 L 949.16 263.29 L 954.85 259.06 L 955.66 251.18 L 957.75 243.48 L 965.49 238.01 L 974.91 236.91 L 981.89 235.38 L 986.40 229.17 L 993.40 226.87 L 997.08 222.71 L 1007.09 218.20 L 1015.98 212.78 L 1040.33 192.03 L 1069.88 175.06 L 1098.40 163.78 L 1138.20 151.68 L 1194.80 139.96 L 1228.17 141.61 L 1249.41 133.68 L 1293.18 122.97 L 1322.79 116.50" pathLength="1" fill="none" vector-effect="non-scaling-stroke"/>
  <circle class="trace-start" cx="277.21" cy="783.50" r="4.83"/>
  <circle class="trace-summit-halo" cx="1322.29" cy="121.09" r="12.33"/>
  <circle class="trace-summit" cx="1322.29" cy="121.09" r="6.97"/>
</svg>
