<svg xmlns="http://www.w3.org/2000/svg" viewBox="-105.5701663 -37.9768265 0.0162248 0.0081564" preserveAspectRatio="xMidYMid meet">
  <path class="trace-line" d="M -105.5688142 -37.9693498 L -105.5686552 -37.9693769 L -105.5686208 -37.9693650 L -105.5685542 -37.9693769 L -105.5685134 -37.9694480 L -105.5684360 -37.9694853 L -105.5683415 -37.9694972 L -105.5681889 -37.9695005 L -105.5680643 -37.9695209 L -105.5679633 -37.9695293 L -105.5678967 -37.9695073 L -105.5678752 -37.9695818 L -105.5678451 -37.9696648 L -105.5678108 -37.9697021 L -105.5677399 -37.9697174 L -105.5676990 -37.9697461 L -105.5676690 -37.9697868 L -105.5675873 -37.9699172 L -105.5674305 -37.9699003 L -105.5673681 -37.9698986 L -105.5672736 -37.9699155 L -105.5673015 -37.9699697 L -105.5673832 -37.9700189 L -105.5673939 -37.9700646 L -105.5674348 -37.9700934 L -105.5674906 -37.9701950 L -105.5675916 -37.9702865 L -105.5677227 -37.9703830 L -105.5679010 -37.9705660 L -105.5678795 -37.9705829 L -105.5676496 -37.9705219 L -105.5675100 -37.9704796 L -105.5674025 -37.9704593 L -105.5673316 -37.9704101 L -105.5672048 -37.9703881 L -105.5671189 -37.9703475 L -105.5670373 -37.9703407 L -105.5670158 -37.9703509 L -105.5670201 -37.9703830 L -105.5670888 -37.9704474 L -105.5671619 -37.9704897 L -105.5671619 -37.9705118 L -105.5671146 -37.9705152 L -105.5670566 -37.9704914 L -105.5669685 -37.9704745 L -105.5669277 -37.9704372 L -105.5668331 -37.9704203 L -105.5667880 -37.9703746 L -105.5667021 -37.9703254 L -105.5666032 -37.9703170 L -105.5666655 -37.9704118 L -105.5666935 -37.9704762 L -105.5667794 -37.9705321 L -105.5667923 -37.9705710 L -105.5670115 -37.9707489 L -105.5671318 -37.9708234 L -105.5672177 -37.9708522 L -105.5673746 -37.9709589 L -105.5671898 -37.9709776 L -105.5671662 -37.9709928 L -105.5671017 -37.9709793 L -105.5670244 -37.9709911 L -105.5669535 -37.9709725 L -105.5668611 -37.9709894 L -105.5665860 -37.9709081 L -105.5665044 -37.9709013 L -105.5664442 -37.9709132 L -105.5664142 -37.9709403 L -105.5664120 -37.9709793 L -105.5664485 -37.9710826 L -105.5664936 -37.9712604 L -105.5665302 -37.9712977 L -105.5665259 -37.9713485 L -105.5665925 -37.9714552 L -105.5666032 -37.9714976 L -105.5666484 -37.9715670 L -105.5667407 -37.9716653 L -105.5668074 -37.9717262 L -105.5671082 -37.9719024 L -105.5672070 -37.9719820 L -105.5673445 -37.9720718 L -105.5674777 -37.9721361 L -105.5676367 -37.9722005 L -105.5679440 -37.9723800 L -105.5681502 -37.9724901 L -105.5682147 -37.9725325 L -105.5684188 -37.9725985 L -105.5685800 -37.9726663 L -105.5686788 -37.9727493 L -105.5687175 -37.9727984 L -105.5688120 -37.9728238 L -105.5686745 -37.9728645 L -105.5685864 -37.9728797 L -105.5685134 -37.9729237 L -105.5681094 -37.9730609 L -105.5680707 -37.9731016 L -105.5681094 -37.9731693 L -105.5681094 -37.9732015 L -105.5682469 -37.9732405 L -105.5682469 -37.9732659 L -105.5679955 -37.9733506 L -105.5677442 -37.9733912 L -105.5676711 -37.9733946 L -105.5675852 -37.9733895 L -105.5675830 -37.9734319 L -105.5674455 -37.9734217 L -105.5672779 -37.9734573 L -105.5670330 -37.9734996 L -105.5666226 -37.9735420 L -105.5665452 -37.9735064 L -105.5664270 -37.9735657 L -105.5663669 -37.9736029 L -105.5662552 -37.9735877 L -105.5660446 -37.9736944 L -105.5659479 -37.9737063 L -105.5658791 -37.9737300 L -105.5657867 -37.9736809 L -105.5656772 -37.9737300 L -105.5656342 -37.9737012 L -105.5655654 -37.9737520 L -105.5655031 -37.9737283 L -105.5654129 -37.9737520 L -105.5653527 -37.9737300 L -105.5652646 -37.9737334 L -105.5651013 -37.9737994 L -105.5650734 -37.9737689 L -105.5650046 -37.9738248 L -105.5649574 -37.9737943 L -105.5648220 -37.9738587 L -105.5647146 -37.9738570 L -105.5646071 -37.9739027 L -105.5644782 -37.9738621 L -105.5643622 -37.9738841 L -105.5642225 -37.9738570 L -105.5641946 -37.9739078 L -105.5639948 -37.9739637 L -105.5639432 -37.9740196 L -105.5638809 -37.9739925 L -105.5638487 -37.9739502 L -105.5637563 -37.9739773 L -105.5637112 -37.9739349 L -105.5636489 -37.9738909 L -105.5635672 -37.9738807 L -105.5634963 -37.9739417 L -105.5634426 -37.9739180 L -105.5633373 -37.9739942 L -105.5633180 -37.9740484 L -105.5632514 -37.9740569 L -105.5632041 -37.9740213 L -105.5629570 -37.9742076 L -105.5629334 -37.9741890 L -105.5629463 -37.9741517 L -105.5628839 -37.9741161 L -105.5627937 -37.9741178 L -105.5626970 -37.9741958 L -105.5625917 -37.9741958 L -105.5625659 -37.9741483 L -105.5625101 -37.9741229 L -105.5624499 -37.9741907 L -105.5623876 -37.9742127 L -105.5623597 -37.9741907 L -105.5621147 -37.9742855 L -105.5620438 -37.9742838 L -105.5619171 -37.9743838 L -105.5617053 -37.9743186 L -105.5615663 -37.9743333 L -105.5614717 -37.9743672 L -105.5611823 -37.9743460 L -105.5611037 -37.9744097 L -105.5610664 -37.9745038 L -105.5609436 -37.9745207 L -105.5606821 -37.9744518 L -105.5606134 -37.9745399 L -105.5604062 -37.9745689 L -105.5603479 -37.9746125 L -105.5603155 -37.9746603 L -105.5602437 -37.9746554 L -105.5601983 -37.9746374 L -105.5601250 -37.9746509 L -105.5600514 -37.9746940 L -105.5600410 -37.9747743 L -105.5600139 -37.9748528 L -105.5599139 -37.9749085 L -105.5597920 -37.9749198 L -105.5597018 -37.9749353 L -105.5596434 -37.9749986 L -105.5595529 -37.9750221 L -105.5595053 -37.9750645 L -105.5593759 -37.9751104 L -105.5592610 -37.9751656 L -105.5589461 -37.9753771 L -105.5585639 -37.9755500 L -105.5581951 -37.9756650 L -105.5576805 -37.9757883 L -105.5569486 -37.9759077 L -105.5565170 -37.9758909 L -105.5562424 -37.9759717 L -105.5556764 -37.9760808 L -105.5552935 -37.9761468" pathLength="1" fill="none" stroke="currentColor" vector-effect="non-scaling-stroke"/>
  <circle class="trace-start" cx="-105.5688142" cy="-37.9693498" r="0.0001460"/>
  <circle class="trace-summit-halo" cx="-105.5553000" cy="-37.9761000" r="0.0003724"/>
  <circle class="trace-summit" cx="-105.5553000" cy="-37.9761000" r="0.0002117"/>
</svg>
