<svg xmlns="http://www.w3.org/2000/svg" viewBox="0 0 2000 2500" preserveAspectRatio="xMidYMid slice">
  <path class="trace-line" d="M 322.92 1419.67 L 334.40 1416.42 L 343.48 1417.71 L 352.03 1422.85 L 363.98 1419.82 L 371.17 1413.54 L 373.03 1403.67 L 387.32 1396.29 L 392.10 1395.58 L 401.61 1389.63 L 414.25 1386.98 L 429.85 1379.16 L 447.82 1377.56 L 461.09 1370.57 L 466.18 1370.77 L 483.84 1359.38 L 487.98 1340.46 L 493.94 1333.55 L 502.23 1333.33 L 514.06 1325.72 L 518.46 1317.37 L 530.28 1303.16 L 534.00 1303.64 L 529.60 1312.25 L 526.05 1316.00 L 534.98 1309.08 L 542.37 1299.75 L 545.58 1299.07 L 569.15 1303.35 L 575.42 1300.73 L 583.67 1300.73 L 591.40 1287.75 L 591.55 1281.12 L 594.57 1274.49 L 600.69 1266.45 L 607.32 1263.47 L 635.16 1226.45 L 643.26 1219.26 L 653.32 1214.72 L 661.24 1207.50 L 672.93 1204.06 L 683.94 1198.21 L 696.09 1197.18 L 698.04 1192.71 L 685.77 1189.50 L 687.84 1185.60 L 692.31 1184.34 L 696.44 1178.95 L 694.95 1170.35 L 692.65 1168.18 L 694.26 1165.19 L 715.02 1165.31 L 723.39 1161.18 L 743.91 1159.23 L 746.55 1163.36 L 754.12 1162.56 L 763.26 1169.09 L 774.77 1170.38 L 789.68 1164.42 L 812.57 1160.19 L 825.01 1150.30 L 828.68 1149.96 L 830.51 1145.03 L 838.88 1138.27 L 839.00 1134.48 L 836.13 1132.08 L 840.49 1125.54 L 845.76 1123.59 L 845.07 1113.50 L 853.33 1109.26 L 854.36 1103.99 L 872.48 1096.88 L 875.35 1092.18 L 876.38 1083.01 L 881.54 1076.82 L 891.05 1075.10 L 896.10 1069.94 L 909.40 1048.16 L 922.21 1042.72 L 925.67 1042.79 L 935.68 1035.16 L 937.01 1031.65 L 940.04 1031.12 L 941.96 1028.08 L 954.78 1023.15 L 974.27 1010.33 L 989.22 993.94 L 992.47 984.29 L 1012.75 959.86 L 1016.05 953.32 L 1024.56 944.55 L 1035.53 939.42 L 1063.31 933.28 L 1075.98 926.06 L 1088.75 914.79 L 1105.30 903.93 L 1118.40 899.48 L 1126.06 894.96 L 1131.06 887.33 L 1174.71 865.88 L 1184.34 864.86 L 1219.95 869.79 L 1228.25 873.23 L 1242.36 869.18 L 1251.25 865.00 L 1259.18 865.27 L 1267.48 863.38 L 1276.47 858.55 L 1289.34 847.88 L 1302.66 842.20 L 1326.67 828.12 L 1329.38 817.87 L 1334.09 812.71 L 1340.70 809.70 L 1347.24 800.63 L 1355.20 803.16 L 1361.85 791.41 L 1389.65 781.67 L 1396.99 780.40 L 1428.02 765.29 L 1435.60 765.44 L 1440.17 763.63 L 1463.94 763.39 L 1487.28 755.10 L 1496.44 756.31 L 1504.62 770.06 L 1505.00 772.89 L 1520.31 782.30 L 1524.54 787.81 L 1532.69 793.27 L 1535.65 798.19 L 1542.88 800.24 L 1546.61 799.16 L 1554.95 802.04 L 1561.14 806.04 L 1585.07 828.30 L 1608.97 846.12 L 1613.52 847.73 L 1616.08 853.37 L 1615.27 861.00 L 1621.47 869.85 L 1630.91 867.95 L 1635.60 865.06 L 1656.97 877.76 L 1675.24 899.17 L 1674.57 908.44 L 1672.02 915.36 L 1665.34 920.29 L 1659.99 928.91 L 1643.73 934.49 L 1641.53 936.13 L 1641.57 938.92 L 1647.62 945.34 L 1658.19 949.87 L 1672.60 953.51 L 1672.25 955.55 L 1677.08 958.34 L 1670.92 967.60 L 1661.13 971.69 L 1664.71 978.76 L 1662.78 990.36 L 1659.21 1000.12 L 1658.30 1007.00 L 1652.25 1017.76 L 1663.33 1019.45 L 1664.63 1020.00 L 1663.53 1021.39 L 1638.58 1036.20 L 1632.74 1041.38 L 1627.97 1041.60 L 1618.66 1049.37 L 1617.35 1048.72 L 1616.84 1050.30 L 1614.57 1049.51 L 1611.73 1050.88 L 1595.73 1048.72 L 1590.33 1049.73 L 1574.55 1045.77 L 1559.51 1044.47 L 1561.55 1048.07 L 1572.05 1058.15 L 1560.93 1059.08 L 1575.06 1071.75 L 1575.57 1075.70 L 1571.60 1075.42 L 1569.84 1078.87 L 1568.19 1077.00 L 1564.67 1078.58 L 1559.23 1076.14 L 1556.39 1083.33 L 1552.07 1084.77 L 1548.38 1081.39 L 1547.93 1085.78 L 1543.90 1084.70 L 1542.20 1087.36 L 1534.87 1081.75 L 1532.89 1089.59 L 1528.46 1085.92 L 1526.98 1090.60 L 1520.74 1087.36 L 1519.83 1090.82 L 1514.50 1087.43 L 1513.59 1090.38 L 1501.55 1092.40 L 1502.52 1097.00 L 1497.41 1106.86 L 1483.39 1123.56 L 1481.12 1134.85 L 1482.14 1144.35 L 1486.34 1158.31 L 1485.55 1160.04 L 1488.44 1165.65 L 1487.25 1167.02 L 1499.52 1211.40 L 1509.13 1236.21 L 1506.18 1250.88 L 1506.11 1258.67 L 1497.48 1275.76 L 1485.30 1292.86 L 1475.32 1318.04 L 1474.18 1325.91 L 1477.58 1336.88 L 1474.56 1355.18 L 1483.18 1378.03 L 1488.10 1385.82 L 1487.87 1391.04 L 1489.92 1396.63 L 1490.22 1424.47 L 1491.73 1427.57 L 1490.22 1429.54 L 1488.55 1449.96 L 1485.98 1458.66 L 1480.84 1462.90 L 1475.32 1482.19 L 1475.54 1488.01 L 1470.63 1509.19 L 1462.68 1535.14 L 1458.37 1542.62 L 1458.67 1545.72 L 1454.97 1548.22 L 1444.22 1568.19 L 1443.24 1575.76 L 1439.08 1579.69 L 1436.88 1588.16 L 1432.27 1595.58 L 1430.68 1605.41 L 1427.81 1608.13 L 1428.64 1610.93 L 1408.74 1638.09 L 1401.93 1654.89 L 1394.90 1665.70 L 1391.49 1677.20 L 1390.06 1691.05 L 1392.48 1694.68 L 1392.86 1699.90 L 1398.00 1710.94 L 1401.70 1729.70 L 1400.87 1734.92 L 1404.60 1744.83" pathLength="1" fill="none" vector-effect="non-scaling-stroke"/>
  <circle class="trace-start" cx="322.92" cy="1419.67" r="6.25"/>
  <circle class="trace-summit-halo" cx="1405.83" cy="1744.90" r="15.97"/>
  <circle class="trace-summit" cx="1405.83" cy="1744.90" r="9.03"/>
</svg>
