<svg xmlns="http://www.w3.org/2000/svg" viewBox="0 0 2000 2500" preserveAspectRatio="none">
  <path class="trace-underlay" d="M 133.36 722.86 L 143.77 720.59 L 152.00 721.49 L 159.75 725.08 L 170.58 722.97 L 177.10 718.58 L 178.78 711.68 L 191.73 706.53 L 196.06 706.03 L 204.68 701.88 L 216.14 700.03 L 230.28 694.57 L 246.57 693.45 L 258.60 688.57 L 263.21 688.71 L 279.22 680.75 L 282.98 667.53 L 288.38 662.71 L 295.89 662.56 L 306.61 657.24 L 310.60 651.41 L 321.31 641.49 L 324.68 641.82 L 320.70 647.83 L 317.48 650.45 L 325.58 645.62 L 332.27 639.10 L 335.19 638.63 L 356.55 641.62 L 362.23 639.79 L 369.70 639.79 L 376.71 630.72 L 376.85 626.09 L 379.59 621.46 L 385.13 615.85 L 391.14 613.77 L 416.37 587.91 L 423.72 582.89 L 432.84 579.72 L 440.01 574.68 L 450.61 572.27 L 460.59 568.19 L 471.61 567.47 L 473.37 564.35 L 462.25 562.10 L 464.12 559.38 L 468.18 558.50 L 471.92 554.74 L 470.57 548.73 L 468.49 547.21 L 469.94 545.13 L 488.76 545.21 L 496.34 542.33 L 514.95 540.97 L 517.34 543.85 L 524.20 543.29 L 532.48 547.85 L 542.92 548.75 L 556.43 544.59 L 577.18 541.63 L 588.45 534.73 L 591.78 534.49 L 593.44 531.05 L 601.03 526.32 L 601.13 523.68 L 598.54 522.00 L 602.49 517.44 L 607.27 516.08 L 606.64 509.03 L 614.13 506.07 L 615.06 502.38 L 631.48 497.42 L 634.08 494.14 L 635.02 487.73 L 639.69 483.41 L 648.32 482.21 L 652.89 478.61 L 662.98 466.92 L 664.95 463.40 L 676.56 459.59 L 679.70 459.64 L 688.77 454.32 L 689.97 451.87 L 692.72 451.49 L 694.46 449.37 L 706.09 445.93 L 723.74 436.97 L 727.70 432.73 L 737.30 425.52 L 739.81 421.61 L 740.24 418.78 L 758.62 401.73 L 759.25 399.56 L 761.61 397.16 L 769.33 391.03 L 779.27 387.45 L 804.45 383.16 L 815.93 378.12 L 827.51 370.25 L 842.52 362.66 L 854.38 359.55 L 861.33 356.40 L 865.86 351.07 L 905.42 336.08 L 914.16 335.38 L 946.43 338.82 L 953.96 341.22 L 966.74 338.39 L 974.80 335.47 L 981.99 335.66 L 989.51 334.34 L 997.66 330.97 L 1009.33 323.52 L 1021.40 319.55 L 1043.17 309.72 L 1045.62 302.56 L 1049.89 298.96 L 1055.88 296.85 L 1061.80 290.52 L 1069.02 292.28 L 1075.05 284.08 L 1100.25 277.27 L 1106.90 276.39 L 1135.03 265.83 L 1141.89 265.94 L 1146.04 264.68 L 1167.58 264.51 L 1188.74 258.72 L 1197.04 259.56 L 1200.06 264.47 L 1204.45 269.17 L 1204.80 271.15 L 1218.67 277.72 L 1222.51 281.56 L 1229.90 285.37 L 1232.58 288.81 L 1239.13 290.24 L 1242.51 289.49 L 1250.08 291.50 L 1255.69 294.29 L 1277.38 309.84 L 1299.03 322.28 L 1303.16 323.42 L 1305.48 327.35 L 1304.75 332.68 L 1310.37 338.86 L 1318.92 337.53 L 1323.17 335.52 L 1342.54 344.38 L 1359.10 359.34 L 1359.42 362.54 L 1358.50 365.81 L 1356.18 370.65 L 1350.13 374.09 L 1345.29 380.11 L 1330.54 384.00 L 1328.55 385.15 L 1328.59 387.10 L 1334.07 391.58 L 1343.65 394.75 L 1356.72 397.29 L 1356.40 398.72 L 1360.78 400.66 L 1355.19 407.13 L 1346.32 409.98 L 1349.56 414.92 L 1347.82 423.03 L 1346.60 427.03 L 1344.57 429.85 L 1344.08 431.58 L 1344.75 432.49 L 1343.76 434.65 L 1338.27 442.16 L 1348.31 443.34 L 1349.49 443.72 L 1348.49 444.70 L 1325.88 455.04 L 1320.58 458.66 L 1316.26 458.81 L 1310.14 463.03 L 1308.44 463.08 L 1307.82 464.24 L 1306.64 463.78 L 1306.17 464.89 L 1304.12 464.34 L 1301.54 465.29 L 1287.03 463.78 L 1282.14 464.49 L 1267.84 461.72 L 1254.21 460.82 L 1256.06 463.33 L 1265.58 470.37 L 1255.49 471.02 L 1268.31 479.87 L 1268.77 482.63 L 1265.17 482.43 L 1263.57 484.84 L 1262.08 483.53 L 1258.89 484.64 L 1253.95 482.93 L 1251.38 487.96 L 1249.73 487.76 L 1247.47 488.96 L 1244.12 486.60 L 1243.71 489.67 L 1240.06 488.91 L 1238.51 490.77 L 1231.88 486.85 L 1230.08 492.33 L 1226.06 489.77 L 1224.73 493.03 L 1219.07 490.77 L 1218.24 493.18 L 1213.41 490.82 L 1212.48 491.17 L 1212.58 492.88 L 1210.17 492.58 L 1201.68 494.29 L 1202.55 497.51 L 1200.96 498.76 L 1197.92 504.39 L 1194.73 506.40 L 1193.34 509.07 L 1185.21 516.05 L 1183.16 523.94 L 1184.08 530.58 L 1187.89 540.33 L 1187.17 541.53 L 1189.79 545.45 L 1188.71 546.41 L 1199.84 577.40 L 1208.55 594.73 L 1205.87 604.97 L 1205.80 610.42 L 1197.98 622.35 L 1186.95 634.29 L 1177.89 651.88 L 1176.87 657.38 L 1179.95 665.04 L 1177.21 677.82 L 1185.03 693.77 L 1189.48 699.22 L 1189.28 702.86 L 1191.13 706.77 L 1190.51 708.46 L 1191.27 710.84 L 1191.40 726.21 L 1192.77 728.38 L 1191.40 729.75 L 1189.89 744.01 L 1187.56 750.09 L 1182.90 753.05 L 1177.89 766.52 L 1178.10 770.59 L 1173.64 785.38 L 1168.36 797.00 L 1166.44 803.50 L 1162.53 808.73 L 1162.81 810.90 L 1159.45 812.64 L 1149.71 826.59 L 1148.82 831.87 L 1145.05 834.62 L 1143.06 840.53 L 1138.88 845.71 L 1137.44 852.58 L 1134.83 854.48 L 1135.59 856.44 L 1117.55 875.40 L 1111.38 887.13 L 1105.00 894.69 L 1101.92 902.72 L 1100.62 912.39 L 1102.81 914.92 L 1103.15 918.57 L 1107.82 926.28 L 1111.17 939.39 L 1110.42 943.03 L 1113.80 949.95" pathLength="1" fill="none" vector-effect="non-scaling-stroke"/>
  <path class="trace-line" d="M 133.36 722.86 L 143.77 720.59 L 152.00 721.49 L 159.75 725.08 L 170.58 722.97 L 177.10 718.58 L 178.78 711.68 L 191.73 706.53 L 196.06 706.03 L 204.68 701.88 L 216.14 700.03 L 230.28 694.57 L 246.57 693.45 L 258.60 688.57 L 263.21 688.71 L 279.22 680.75 L 282.98 667.53 L 288.38 662.71 L 295.89 662.56 L 306.61 657.24 L 310.60 651.41 L 321.31 641.49 L 324.68 641.82 L 320.70 647.83 L 317.48 650.45 L 325.58 645.62 L 332.27 639.10 L 335.19 638.63 L 356.55 641.62 L 362.23 639.79 L 369.70 639.79 L 376.71 630.72 L 376.85 626.09 L 379.59 621.46 L 385.13 615.85 L 391.14 613.77 L 416.37 587.91 L 423.72 582.89 L 432.84 579.72 L 440.01 574.68 L 450.61 572.27 L 460.59 568.19 L 471.61 567.47 L 473.37 564.35 L 462.25 562.10 L 464.12 559.38 L 468.18 558.50 L 471.92 554.74 L 470.57 548.73 L 468.49 547.21 L 469.94 545.13 L 488.76 545.21 L 496.34 542.33 L 514.95 540.97 L 517.34 543.85 L 524.20 543.29 L 532.48 547.85 L 542.92 548.75 L 556.43 544.59 L 577.18 541.63 L 588.45 534.73 L 591.78 534.49 L 593.44 531.05 L 601.03 526.32 L 601.13 523.68 L 598.54 522.00 L 602.49 517.44 L 607.27 516.08 L 606.64 509.03 L 614.13 506.07 L 615.06 502.38 L 631.48 497.42 L 634.08 494.14 L 635.02 487.73 L 639.69 483.41 L 648.32 482.21 L 652.89 478.61 L 662.98 466.92 L 664.95 463.40 L 676.56 459.59 L 679.70 459.64 L 688.77 454.32 L 689.97 451.87 L 692.72 451.49 L 694.46 449.37 L 706.09 445.93 L 723.74 436.97 L 727.70 432.73 L 737.30 425.52 L 739.81 421.61 L 740.24 418.78 L 758.62 401.73 L 759.25 399.56 L 761.61 397.16 L 769.33 391.03 L 779.27 387.45 L 804.45 383.16 L 815.93 378.12 L 827.51 370.25 L 842.52 362.66 L 854.38 359.55 L 861.33 356.40 L 865.86 351.07 L 905.42 336.08 L 914.16 335.38 L 946.43 338.82 L 953.96 341.22 L 966.74 338.39 L 974.80 335.47 L 981.99 335.66 L 989.51 334.34 L 997.66 330.97 L 1009.33 323.52 L 1021.40 319.55 L 1043.17 309.72 L 1045.62 302.56 L 1049.89 298.96 L 1055.88 296.85 L 1061.80 290.52 L 1069.02 292.28 L 1075.05 284.08 L 1100.25 277.27 L 1106.90 276.39 L 1135.03 265.83 L 1141.89 265.94 L 1146.04 264.68 L 1167.58 264.51 L 1188.74 258.72 L 1197.04 259.56 L 1200.06 264.47 L 1204.45 269.17 L 1204.80 271.15 L 1218.67 277.72 L 1222.51 281.56 L 1229.90 285.37 L 1232.58 288.81 L 1239.13 290.24 L 1242.51 289.49 L 1250.08 291.50 L 1255.69 294.29 L 1277.38 309.84 L 1299.03 322.28 L 1303.16 323.42 L 1305.48 327.35 L 1304.75 332.68 L 1310.37 338.86 L 1318.92 337.53 L 1323.17 335.52 L 1342.54 344.38 L 1359.10 359.34 L 1359.42 362.54 L 1358.50 365.81 L 1356.18 370.65 L 1350.13 374.09 L 1345.29 380.11 L 1330.54 384.00 L 1328.55 385.15 L 1328.59 387.10 L 1334.07 391.58 L 1343.65 394.75 L 1356.72 397.29 L 1356.40 398.72 L 1360.78 400.66 L 1355.19 407.13 L 1346.32 409.98 L 1349.56 414.92 L 1347.82 423.03 L 1346.60 427.03 L 1344.57 429.85 L 1344.08 431.58 L 1344.75 432.49 L 1343.76 434.65 L 1338.27 442.16 L 1348.31 443.34 L 1349.49 443.72 L 1348.49 444.70 L 1325.88 455.04 L 1320.58 458.66 L 1316.26 458.81 L 1310.14 463.03 L 1308.44 463.08 L 1307.82 464.24 L 1306.64 463.78 L 1306.17 464.89 L 1304.12 464.34 L 1301.54 465.29 L 1287.03 463.78 L 1282.14 464.49 L 1267.84 461.72 L 1254.21 460.82 L 1256.06 463.33 L 1265.58 470.37 L 1255.49 471.02 L 1268.31 479.87 L 1268.77 482.63 L 1265.17 482.43 L 1263.57 484.84 L 1262.08 483.53 L 1258.89 484.64 L 1253.95 482.93 L 1251.38 487.96 L 1249.73 487.76 L 1247.47 488.96 L 1244.12 486.60 L 1243.71 489.67 L 1240.06 488.91 L 1238.51 490.77 L 1231.88 486.85 L 1230.08 492.33 L 1226.06 489.77 L 1224.73 493.03 L 1219.07 490.77 L 1218.24 493.18 L 1213.41 490.82 L 1212.48 491.17 L 1212.58 492.88 L 1210.17 492.58 L 1201.68 494.29 L 1202.55 497.51 L 1200.96 498.76 L 1197.92 504.39 L 1194.73 506.40 L 1193.34 509.07 L 1185.21 516.05 L 1183.16 523.94 L 1184.08 530.58 L 1187.89 540.33 L 1187.17 541.53 L 1189.79 545.45 L 1188.71 546.41 L 1199.84 577.40 L 1208.55 594.73 L 1205.87 604.97 L 1205.80 610.42 L 1197.98 622.35 L 1186.95 634.29 L 1177.89 651.88 L 1176.87 657.38 L 1179.95 665.04 L 1177.21 677.82 L 1185.03 693.77 L 1189.48 699.22 L 1189.28 702.86 L 1191.13 706.77 L 1190.51 708.46 L 1191.27 710.84 L 1191.40 726.21 L 1192.77 728.38 L 1191.40 729.75 L 1189.89 744.01 L 1187.56 750.09 L 1182.90 753.05 L 1177.89 766.52 L 1178.10 770.59 L 1173.64 785.38 L 1168.36 797.00 L 1166.44 803.50 L 1162.53 808.73 L 1162.81 810.90 L 1159.45 812.64 L 1149.71 826.59 L 1148.82 831.87 L 1145.05 834.62 L 1143.06 840.53 L 1138.88 845.71 L 1137.44 852.58 L 1134.83 854.48 L 1135.59 856.44 L 1117.55 875.40 L 1111.38 887.13 L 1105.00 894.69 L 1101.92 902.72 L 1100.62 912.39 L 1102.81 914.92 L 1103.15 918.57 L 1107.82 926.28 L 1111.17 939.39 L 1110.42 943.03 L 1113.80 949.95" pathLength="1" fill="none" vector-effect="non-scaling-stroke"/>
</svg>
