<svg xmlns="http://www.w3.org/2000/svg" viewBox="0 0 1600 900" preserveAspectRatio="xMidYMid slice">
  <path class="trace-line" d="M 300.00 575.23 L 308.48 572.83 L 315.19 573.77 L 321.50 577.57 L 330.33 575.34 L 335.63 570.70 L 337.01 563.42 L 347.56 557.97 L 351.09 557.44 L 358.11 553.05 L 367.45 551.10 L 378.96 545.32 L 392.23 544.15 L 402.04 538.99 L 405.80 539.14 L 418.83 530.73 L 421.90 516.76 L 426.30 511.66 L 432.42 511.50 L 441.15 505.89 L 444.40 499.72 L 453.13 489.24 L 455.88 489.59 L 452.63 495.94 L 450.01 498.71 L 456.60 493.60 L 462.05 486.71 L 464.43 486.22 L 481.84 489.37 L 486.46 487.44 L 492.55 487.44 L 498.27 477.86 L 498.38 472.97 L 500.61 468.07 L 505.12 462.14 L 510.02 459.94 L 530.58 432.62 L 536.56 427.31 L 543.99 423.96 L 549.84 418.63 L 558.47 416.09 L 566.60 411.78 L 575.58 411.02 L 577.02 407.72 L 567.96 405.35 L 569.48 402.47 L 572.78 401.54 L 575.83 397.56 L 574.73 391.22 L 573.04 389.61 L 574.22 387.41 L 589.55 387.49 L 595.73 384.45 L 610.89 383.01 L 612.83 386.06 L 618.43 385.46 L 625.17 390.29 L 633.68 391.24 L 644.68 386.84 L 661.59 383.72 L 670.77 376.42 L 673.48 376.16 L 674.84 372.53 L 681.02 367.54 L 681.10 364.74 L 678.99 362.97 L 682.21 358.14 L 686.10 356.71 L 685.59 349.26 L 691.69 346.13 L 692.45 342.24 L 705.83 336.99 L 707.95 333.52 L 708.71 326.75 L 712.52 322.19 L 719.55 320.92 L 723.27 317.11 L 733.10 301.04 L 742.56 297.02 L 745.11 297.07 L 752.50 291.44 L 753.48 288.85 L 755.72 288.45 L 757.14 286.21 L 766.61 282.58 L 781.00 273.12 L 792.04 261.02 L 794.44 253.89 L 809.41 235.87 L 811.85 231.04 L 818.14 224.56 L 826.23 220.78 L 846.75 216.25 L 856.11 210.92 L 865.54 202.60 L 877.76 194.59 L 887.43 191.30 L 893.09 187.96 L 896.79 182.34 L 929.02 166.50 L 936.13 165.75 L 962.42 169.39 L 968.56 171.93 L 978.97 168.94 L 985.53 165.85 L 991.39 166.05 L 997.52 164.66 L 1004.16 161.10 L 1013.67 153.22 L 1023.51 149.03 L 1041.24 138.64 L 1043.24 131.07 L 1046.71 127.26 L 1051.59 125.04 L 1056.42 118.34 L 1062.30 120.21 L 1067.21 111.54 L 1087.74 104.35 L 1093.16 103.41 L 1116.08 92.26 L 1121.67 92.37 L 1125.05 91.04 L 1142.60 90.86 L 1159.83 84.74 L 1166.60 85.63 L 1172.64 95.79 L 1172.92 97.88 L 1184.23 104.82 L 1187.35 108.88 L 1193.37 112.91 L 1195.55 116.55 L 1200.89 118.06 L 1203.65 117.26 L 1209.81 119.39 L 1214.38 122.34 L 1232.05 138.77 L 1249.70 151.92 L 1253.06 153.11 L 1254.95 157.27 L 1254.35 162.90 L 1258.93 169.43 L 1265.90 168.03 L 1269.36 165.90 L 1285.15 175.27 L 1298.64 191.08 L 1298.14 197.91 L 1296.26 203.02 L 1291.33 206.66 L 1287.38 213.02 L 1275.37 217.14 L 1273.74 218.35 L 1273.77 220.41 L 1278.24 225.15 L 1286.05 228.49 L 1296.69 231.18 L 1296.43 232.68 L 1300.00 234.74 L 1295.45 241.58 L 1288.22 244.59 L 1290.86 249.81 L 1289.44 258.38 L 1286.80 265.58 L 1286.13 270.65 L 1281.66 278.59 L 1289.85 279.84 L 1290.80 280.25 L 1289.99 281.28 L 1271.57 292.21 L 1267.25 296.03 L 1263.73 296.19 L 1256.85 301.93 L 1255.89 301.45 L 1255.51 302.61 L 1253.84 302.03 L 1251.74 303.04 L 1239.92 301.45 L 1235.94 302.19 L 1224.29 299.27 L 1213.18 298.31 L 1214.69 300.97 L 1222.44 308.40 L 1214.22 309.10 L 1224.66 318.44 L 1225.04 321.36 L 1222.11 321.15 L 1220.81 323.70 L 1219.59 322.32 L 1216.99 323.49 L 1212.97 321.68 L 1210.87 326.99 L 1207.69 328.05 L 1204.96 325.56 L 1204.62 328.80 L 1201.65 328.00 L 1200.39 329.97 L 1194.98 325.82 L 1193.52 331.61 L 1190.25 328.90 L 1189.16 332.36 L 1184.55 329.97 L 1183.88 332.52 L 1179.94 330.02 L 1179.27 332.20 L 1170.38 333.68 L 1171.09 337.08 L 1167.32 344.36 L 1156.96 356.68 L 1155.29 365.02 L 1156.04 372.03 L 1159.14 382.33 L 1158.56 383.61 L 1160.70 387.75 L 1159.81 388.76 L 1168.88 421.51 L 1175.97 439.82 L 1173.80 450.65 L 1173.74 456.40 L 1167.37 469.01 L 1158.38 481.63 L 1151.00 500.22 L 1150.16 506.03 L 1152.68 514.12 L 1150.44 527.63 L 1156.81 544.49 L 1160.44 550.24 L 1160.27 554.09 L 1161.78 558.22 L 1162.01 578.77 L 1163.13 581.05 L 1162.01 582.51 L 1160.78 597.58 L 1158.88 604.00 L 1155.08 607.13 L 1151.00 621.36 L 1151.17 625.66 L 1147.54 641.29 L 1141.67 660.44 L 1138.49 665.97 L 1138.71 668.26 L 1135.97 670.10 L 1128.04 684.84 L 1127.31 690.42 L 1124.24 693.32 L 1122.62 699.58 L 1119.21 705.05 L 1118.04 712.31 L 1115.92 714.32 L 1116.53 716.38 L 1101.84 736.43 L 1096.81 748.82 L 1091.62 756.81 L 1089.10 765.29 L 1088.04 775.51 L 1089.83 778.19 L 1090.11 782.04 L 1093.91 790.19 L 1096.64 804.04 L 1096.03 807.89 L 1098.78 815.21" pathLength="1" fill="none" vector-effect="non-scaling-stroke"/>
  <circle class="trace-start" cx="300.00" cy="575.23" r="4.62"/>
  <circle class="trace-summit-halo" cx="1099.69" cy="815.26" r="11.79"/>
  <circle class="trace-summit" cx="1099.69" cy="815.26" r="6.67"/>
</svg>
