<svg xmlns="http://www.w3.org/2000/svg" viewBox="-107.4749183 -37.9577788 0.0661806 0.0381587" preserveAspectRatio="xMidYMid meet">
  <path class="trace-line" d="M -107.4694032 -37.9332484 L -107.4689354 -37.9333529 L -107.4685657 -37.9333116 L -107.4682176 -37.9331464 L -107.4677307 -37.9332436 L -107.4674380 -37.9334453 L -107.4673623 -37.9337625 L -107.4667804 -37.9339995 L -107.4665858 -37.9340224 L -107.4661984 -37.9342137 L -107.4656835 -37.9342987 L -107.4650483 -37.9345500 L -107.4643165 -37.9346013 L -107.4637758 -37.9348258 L -107.4635685 -37.9348194 L -107.4628494 -37.9351854 L -107.4626806 -37.9357934 L -107.4624379 -37.9360153 L -107.4621003 -37.9360223 L -107.4616186 -37.9362668 L -107.4614395 -37.9365350 L -107.4609580 -37.9369915 L -107.4608066 -37.9369763 L -107.4609857 -37.9366996 L -107.4611301 -37.9365792 L -107.4609857 -37.9366996 L -107.4607665 -37.9368015 L -107.4604658 -37.9371013 L -107.4603347 -37.9371230 L -107.4593748 -37.9369856 L -107.4591197 -37.9370696 L -107.4587837 -37.9370696 L -107.4584687 -37.9374867 L -107.4584627 -37.9376997 L -107.4583396 -37.9379128 L -107.4580906 -37.9381708 L -107.4578206 -37.9382668 L -107.4566868 -37.9394560 L -107.4563568 -37.9396871 L -107.4559469 -37.9398329 L -107.4556246 -37.9400649 L -107.4551483 -37.9401754 L -107.4547000 -37.9403633 L -107.4542050 -37.9403964 L -107.4541256 -37.9405400 L -107.4546253 -37.9406432 L -107.4545412 -37.9407684 L -107.4543591 -37.9408089 L -107.4541910 -37.9409820 L -107.4542517 -37.9412582 L -107.4543451 -37.9413282 L -107.4542797 -37.9414240 L -107.4534344 -37.9414203 L -107.4530935 -37.9415529 L -107.4522576 -37.9416155 L -107.4521502 -37.9414829 L -107.4518419 -37.9415087 L -107.4517073 -37.9414643 L -107.4514697 -37.9412987 L -107.4510007 -37.9412573 L -107.4503937 -37.9414489 L -107.4494613 -37.9415848 L -107.4491790 -37.9417293 L -107.4489548 -37.9419024 L -107.4488054 -37.9419135 L -107.4487306 -37.9420718 L -107.4483897 -37.9422891 L -107.4483851 -37.9424107 L -107.4485018 -37.9424880 L -107.4483243 -37.9426979 L -107.4481095 -37.9427605 L -107.4481375 -37.9430846 L -107.4478013 -37.9432209 L -107.4477593 -37.9433903 L -107.4470214 -37.9436186 L -107.4469047 -37.9437696 L -107.4468626 -37.9440643 L -107.4466525 -37.9442631 L -107.4462649 -37.9443184 L -107.4460594 -37.9444841 L -107.4456064 -37.9450218 L -107.4455177 -37.9451838 L -107.4449960 -37.9453587 L -107.4448551 -37.9453565 L -107.4444476 -37.9456015 L -107.4443934 -37.9457142 L -107.4442698 -37.9457315 L -107.4441918 -37.9458291 L -107.4436694 -37.9459873 L -107.4428760 -37.9463992 L -107.4426983 -37.9465943 L -107.4422669 -37.9469259 L -107.4421542 -37.9471058 L -107.4421347 -37.9472359 L -107.4413088 -37.9480206 L -107.4412806 -37.9481203 L -107.4411744 -37.9482308 L -107.4408276 -37.9485126 L -107.4403811 -37.9486774 L -107.4392496 -37.9488746 L -107.4387337 -37.9491066 L -107.4382134 -37.9494685 L -107.4375393 -37.9498175 L -107.4370061 -37.9499606 L -107.4366939 -37.9501058 L -107.4364902 -37.9503508 L -107.4347127 -37.9510401 L -107.4343203 -37.9510726 L -107.4328702 -37.9509144 L -107.4325320 -37.9508038 L -107.4319576 -37.9509339 L -107.4315956 -37.9510683 L -107.4312726 -37.9510596 L -107.4309345 -37.9511203 L -107.4305682 -37.9512753 L -107.4300441 -37.9516183 L -107.4295015 -37.9518007 L -107.4287980 -37.9521563 L -107.4285236 -37.9522529 L -107.4284133 -37.9525824 L -107.4282217 -37.9527480 L -107.4279525 -37.9528450 L -107.4276862 -37.9531363 L -107.4273621 -37.9530549 L -107.4270912 -37.9534323 L -107.4259589 -37.9537455 L -107.4256598 -37.9537862 L -107.4243961 -37.9542716 L -107.4240876 -37.9542669 L -107.4239012 -37.9543249 L -107.4229334 -37.9543327 L -107.4219829 -37.9545989 L -107.4216096 -37.9545602 L -107.4214739 -37.9543343 L -107.4212766 -37.9541182 L -107.4212610 -37.9540273 L -107.4206377 -37.9537251 L -107.4204654 -37.9535482 L -107.4201334 -37.9533728 L -107.4200129 -37.9532146 L -107.4197184 -37.9531488 L -107.4195665 -37.9531833 L -107.4192267 -37.9530909 L -107.4189746 -37.9529625 L -107.4179999 -37.9522474 L -107.4170269 -37.9516749 L -107.4168414 -37.9516229 L -107.4167373 -37.9514418 L -107.4167701 -37.9511968 L -107.4165178 -37.9509124 L -107.4161333 -37.9509734 L -107.4159423 -37.9510663 L -107.4150719 -37.9506583 L -107.4143279 -37.9499703 L -107.4143135 -37.9498231 L -107.4143551 -37.9496727 L -107.4144591 -37.9494503 L -107.4147311 -37.9492919 L -107.4149487 -37.9490151 L -107.4156111 -37.9488359 L -107.4157007 -37.9487831 L -107.4156991 -37.9486935 L -107.4154527 -37.9484871 L -107.4150223 -37.9483415 L -107.4144351 -37.9482247 L -107.4144495 -37.9481591 L -107.4142527 -37.9480695 L -107.4145039 -37.9477719 L -107.4149023 -37.9476407 L -107.4148927 -37.9475751 L -107.4147567 -37.9474135 L -107.4148351 -37.9470407 L -107.4148895 -37.9468567 L -107.4149807 -37.9467271 L -107.4150031 -37.9466471 L -107.4149727 -37.9466055 L -107.4150175 -37.9465063 L -107.4152639 -37.9461607 L -107.4148127 -37.9461063 L -107.4147599 -37.9460887 L -107.4148047 -37.9460439 L -107.4158207 -37.9455682 L -107.4160588 -37.9454017 L -107.4162530 -37.9453948 L -107.4165281 -37.9452006 L -107.4166044 -37.9451983 L -107.4166322 -37.9451451 L -107.4166853 -37.9451659 L -107.4167061 -37.9451151 L -107.4167986 -37.9451405 L -107.4169142 -37.9450966 L -107.4175661 -37.9451659 L -107.4177858 -37.9451335 L -107.4184284 -37.9452607 L -107.4190411 -37.9453023 L -107.4189578 -37.9451867 L -107.4185302 -37.9448631 L -107.4189833 -37.9448330 L -107.4184076 -37.9444261 L -107.4183868 -37.9442990 L -107.4185486 -37.9443082 L -107.4186203 -37.9441973 L -107.4186874 -37.9442574 L -107.4188307 -37.9442065 L -107.4190526 -37.9442851 L -107.4191682 -37.9440539 L -107.4192422 -37.9440632 L -107.4193439 -37.9440077 L -107.4194942 -37.9441164 L -107.4195127 -37.9439753 L -107.4196768 -37.9440100 L -107.4197462 -37.9439245 L -107.4200444 -37.9441048 L -107.4201253 -37.9438528 L -107.4203056 -37.9439707 L -107.4203657 -37.9438204 L -107.4206200 -37.9439245 L -107.4206570 -37.9438135 L -107.4208743 -37.9439222 L -107.4209159 -37.9439060 L -107.4209113 -37.9438274 L -107.4210200 -37.9438413 L -107.4214014 -37.9437627 L -107.4213621 -37.9436147 L -107.4214338 -37.9435569 L -107.4215702 -37.9432980 L -107.4217135 -37.9432055 L -107.4217759 -37.9430830 L -107.4221412 -37.9427616 L -107.4222336 -37.9423987 L -107.4221920 -37.9420935 L -107.4220210 -37.9416450 L -107.4220533 -37.9415896 L -107.4219354 -37.9414092 L -107.4219840 -37.9413653 L -107.4214841 -37.9399396 L -107.4210928 -37.9391426 L -107.4212129 -37.9386712 L -107.4212160 -37.9384209 L -107.4215673 -37.9378718 L -107.4220633 -37.9373226 L -107.4224700 -37.9365134 L -107.4225162 -37.9362607 L -107.4223776 -37.9359083 L -107.4225008 -37.9353203 L -107.4221496 -37.9345864 L -107.4219493 -37.9343361 L -107.4219586 -37.9341684 L -107.4218754 -37.9339886 L -107.4219031 -37.9339108 L -107.4218692 -37.9338015 L -107.4218630 -37.9330943 L -107.4218014 -37.9329947 L -107.4218630 -37.9329315 L -107.4219308 -37.9322754 L -107.4220356 -37.9319959 L -107.4222451 -37.9318598 L -107.4224700 -37.9312401 L -107.4224608 -37.9310530 L -107.4226610 -37.9303726 L -107.4228983 -37.9298379 L -107.4229845 -37.9295390 L -107.4231602 -37.9292984 L -107.4231478 -37.9291988 L -107.4232988 -37.9291186 L -107.4237363 -37.9284770 L -107.4237764 -37.9282339 L -107.4239458 -37.9281076 L -107.4240352 -37.9278354 L -107.4242231 -37.9275972 L -107.4242878 -37.9272813 L -107.4244049 -37.9271938 L -107.4243710 -37.9271039 L -107.4251813 -37.9262314 L -107.4254586 -37.9256918 L -107.4257452 -37.9253443 L -107.4258838 -37.9249749 L -107.4259423 -37.9245301 L -107.4258438 -37.9244135 L -107.4258283 -37.9242458 L -107.4256188 -37.9238909 L -107.4254679 -37.9232882 L -107.4255018 -37.9231205 L -107.4253500 -37.9228021" pathLength="1" fill="none" stroke="currentColor" vector-effect="non-scaling-stroke"/>
  <circle class="trace-start" cx="-107.4694032" cy="-37.9332484" r="0.0005956"/>
  <circle class="trace-summit-halo" cx="-107.4253000" cy="-37.9228000" r="0.0015188"/>
  <circle class="trace-summit" cx="-107.4253000" cy="-37.9228000" r="0.0008637"/>
</svg>
