<svg xmlns="http://www.w3.org/2000/svg" viewBox="0 0 1600 900" preserveAspectRatio="xMidYMid slice">
  <path class="trace-line" d="M 1169.97 -126.59 L 1174.80 -117.10 L 1175.02 -107.96 L 1176.29 -102.47 L 1176.29 -84.91 L 1178.10 -78.47 L 1176.66 -69.86 L 1176.83 -64.73 L 1179.37 -55.52 L 1179.80 -43.67 L 1181.42 -39.14 L 1181.74 -26.10 L 1183.59 -11.89 L 1182.16 -6.06 L 1184.29 -1.01 L 1180.52 12.96 L 1181.69 18.84 L 1181.18 25.16 L 1177.92 34.02 L 1177.51 38.33 L 1178.25 42.38 L 1177.58 46.69 L 1176.15 50.55 L 1177.15 53.64 L 1176.20 62.65 L 1176.87 69.66 L 1175.41 76.15 L 1173.65 80.90 L 1173.36 88.29 L 1175.13 90.49 L 1172.79 95.88 L 1172.92 105.35 L 1170.45 111.96 L 1168.86 119.35 L 1167.83 130.41 L 1166.24 139.47 L 1167.09 147.01 L 1169.65 157.75 L 1171.93 164.28 L 1174.35 166.73 L 1179.02 175.40 L 1186.23 193.55 L 1186.45 200.96 L 1185.38 206.68 L 1185.29 220.70 L 1187.39 224.90 L 1191.85 238.88 L 1191.48 244.74 L 1191.78 251.49 L 1190.90 257.77 L 1184.72 272.58 L 1187.59 275.40 L 1186.32 283.12 L 1187.06 288.20 L 1188.90 291.30 L 1188.43 294.39 L 1187.06 298.30 L 1184.58 303.49 L 1184.80 314.77 L 1184.38 323.77 L 1183.32 329.98 L 1184.10 335.21 L 1181.37 351.75 L 1180.83 353.06 L 1176.39 355.97 L 1175.41 359.95 L 1175.06 368.45 L 1168.99 383.56 L 1168.32 388.11 L 1164.84 395.10 L 1161.25 405.98 L 1158.34 412.89 L 1151.80 426.28 L 1149.16 429.73 L 1144.87 432.72 L 1144.26 434.17 L 1143.45 441.89 L 1142.60 444.86 L 1137.67 451.17 L 1135.08 456.63 L 1133.14 458.98 L 1131.42 464.92 L 1124.94 475.01 L 1123.41 479.73 L 1122.69 484.85 L 1113.73 507.37 L 1112.69 511.50 L 1111.82 519.64 L 1109.53 525.17 L 1102.58 533.69 L 1098.11 544.02 L 1094.61 547.34 L 1078.92 569.90 L 1070.57 585.36 L 1066.19 590.43 L 1058.57 595.38 L 1053.07 601.49 L 1039.44 609.61 L 1039.01 617.74 L 1037.13 625.70 L 1035.72 629.41 L 1028.29 644.20 L 1016.47 661.26 L 1013.61 669.60 L 1012.38 671.94 L 1009.96 675.31 L 1005.20 679.89 L 1001.13 691.35 L 998.41 702.79 L 992.93 715.23 L 991.60 719.29 L 990.69 720.17 L 990.97 722.47 L 990.57 723.77 L 986.67 730.70 L 979.53 740.31 L 973.93 745.42 L 965.79 754.84 L 962.91 757.21 L 958.29 758.63 L 956.61 759.96 L 953.84 766.51 L 944.94 774.51 L 941.36 779.92 L 936.04 782.29 L 934.54 787.83 L 932.62 789.33 L 931.16 791.38 L 929.25 800.28 L 926.79 804.94 L 926.45 808.40 L 927.81 811.03 L 932.34 814.36 L 934.20 816.97 L 934.33 819.49 L 933.39 821.88 L 933.26 824.91 L 937.22 834.08 L 939.63 849.55 L 940.51 853.12 L 942.78 857.73 L 944.10 864.46 L 941.05 869.11 L 937.05 877.59 L 937.63 890.66 L 934.95 895.04 L 925.56 905.73 L 915.66 913.18 L 912.12 915.13 L 904.13 921.33 L 896.81 924.94 L 891.11 929.52 L 888.11 931.24 L 884.31 936.56 L 881.70 938.22 L 880.06 943.53 L 879.68 949.16 L 878.87 952.63 L 878.90 957.08 L 877.19 956.02 L 875.25 956.38 L 871.42 955.26 L 874.68 958.90 L 874.35 959.06 L 867.49 957.14 L 878.91 969.06 L 879.97 971.10 L 879.85 972.11 L 880.94 973.44 L 880.15 973.11 L 878.94 973.51 L 875.79 973.35 L 874.98 975.34 L 876.63 977.40 L 869.94 978.31 L 865.62 981.16 L 863.15 981.34 L 860.20 982.53 L 856.94 982.22 L 853.37 983.03 L 848.65 983.19 L 843.27 982.83 L 839.09 981.92 L 830.34 978.41 L 825.08 977.29 L 823.32 976.28 L 820.05 975.90 L 814.28 976.11 L 809.28 975.50 L 807.70 975.80 L 803.46 974.50 L 800.96 975.50 L 796.87 980.46 L 784.06 975.52 L 782.23 974.27 L 781.52 972.46 L 777.32 974.67 L 773.66 974.28 L 764.93 975.28 L 760.88 980.80 L 761.82 985.96 L 761.62 989.88 L 760.36 994.71 L 760.84 999.06 L 759.60 1001.17 L 756.73 1003.20 L 756.43 1004.78 L 754.24 1006.58 L 754.84 1008.34 L 754.04 1009.14 L 751.21 1009.82 L 751.09 1010.73 L 751.94 1011.75 L 756.77 1016.32 L 758.32 1017.16 L 758.43 1022.04 L 753.20 1024.27 L 752.48 1025.67 L 751.51 1026.15 L 749.28 1026.59 L 743.62 1026.09 L 736.24 1024.33 L 732.27 1024.04 L 721.23 1016.33 L 717.71 1012.61 L 716.25 1010.16 L 715.08 1006.42 L 711.83 1000.35 L 709.72 998.52 L 703.88 995.35 L 701.61 991.15 L 699.79 986.76 L 699.43 984.62 L 696.65 988.94 L 695.34 992.60 L 693.59 988.02 L 693.60 984.22 L 691.94 985.49 L 691.31 983.87 L 690.06 984.36 L 688.92 983.50 L 688.65 981.83 L 688.94 979.46 L 690.11 978.51 L 690.04 977.59 L 691.10 977.37 L 691.01 976.38 L 691.49 975.67 L 689.93 968.41 L 690.01 966.98 L 693.07 965.35 L 693.99 963.50 L 691.81 958.60 L 688.97 956.01 L 688.51 954.97 L 688.96 952.90 L 686.66 951.91" pathLength="1" fill="none" vector-effect="non-scaling-stroke"/>
  <circle class="trace-start" cx="1169.97" cy="-126.59" r="4.62"/>
  <circle class="trace-summit-halo" cx="686.70" cy="951.52" r="11.79"/>
  <circle class="trace-summit" cx="686.70" cy="951.52" r="6.67"/>
</svg>
