<svg xmlns="http://www.w3.org/2000/svg" viewBox="0 0 2000 2500" preserveAspectRatio="xMidYMid slice">
  <path class="trace-line" d="M 1417.66 468.75 L 1424.21 481.62 L 1424.51 494.00 L 1426.23 501.43 L 1426.23 525.23 L 1428.68 533.96 L 1426.73 545.62 L 1426.96 552.57 L 1430.39 565.05 L 1430.98 581.11 L 1433.17 587.24 L 1433.60 604.92 L 1436.10 624.17 L 1434.18 632.07 L 1437.06 638.91 L 1431.95 657.83 L 1433.54 665.80 L 1432.85 674.36 L 1428.43 686.38 L 1427.87 692.21 L 1428.88 697.71 L 1427.98 703.55 L 1426.04 708.77 L 1427.40 712.95 L 1426.10 725.16 L 1427.01 734.66 L 1425.04 743.45 L 1422.66 749.90 L 1422.26 759.90 L 1424.66 762.89 L 1421.48 770.19 L 1421.67 783.01 L 1418.32 791.98 L 1416.17 801.99 L 1414.77 816.97 L 1412.61 829.26 L 1413.77 839.46 L 1417.23 854.02 L 1420.32 862.86 L 1423.59 866.19 L 1429.92 877.93 L 1439.69 902.53 L 1439.98 912.56 L 1438.54 920.32 L 1438.42 939.31 L 1441.25 945.00 L 1447.30 963.94 L 1446.80 971.89 L 1447.20 981.03 L 1446.00 989.53 L 1437.65 1009.61 L 1441.53 1013.43 L 1439.81 1023.89 L 1440.81 1030.77 L 1443.31 1034.97 L 1442.67 1039.15 L 1440.81 1044.46 L 1437.45 1051.49 L 1437.74 1066.77 L 1437.18 1078.97 L 1435.75 1087.38 L 1436.80 1094.47 L 1433.10 1116.87 L 1432.37 1118.65 L 1426.36 1122.60 L 1425.04 1127.99 L 1424.56 1139.50 L 1416.34 1159.98 L 1415.43 1166.14 L 1410.72 1175.61 L 1405.85 1190.35 L 1401.92 1199.71 L 1393.06 1217.87 L 1389.49 1222.54 L 1383.67 1226.59 L 1382.85 1228.56 L 1381.76 1239.01 L 1380.60 1243.03 L 1373.92 1251.58 L 1370.42 1258.98 L 1367.79 1262.17 L 1365.47 1270.22 L 1356.69 1283.89 L 1354.62 1290.28 L 1353.64 1297.22 L 1341.51 1327.73 L 1340.10 1333.32 L 1338.93 1344.36 L 1335.82 1351.85 L 1326.41 1363.40 L 1320.36 1377.39 L 1315.62 1381.89 L 1294.37 1412.45 L 1283.07 1433.40 L 1277.13 1440.28 L 1266.82 1446.98 L 1259.36 1455.26 L 1240.91 1466.26 L 1240.32 1477.28 L 1237.78 1488.07 L 1235.87 1493.08 L 1225.81 1513.13 L 1209.81 1536.24 L 1205.93 1547.55 L 1204.26 1550.71 L 1200.98 1555.28 L 1194.55 1561.48 L 1189.03 1577.02 L 1185.35 1592.51 L 1177.93 1609.36 L 1176.13 1614.87 L 1174.90 1616.07 L 1175.27 1619.18 L 1174.73 1620.94 L 1169.44 1630.34 L 1159.78 1643.35 L 1152.20 1650.27 L 1141.17 1663.03 L 1137.28 1666.25 L 1131.02 1668.17 L 1128.74 1669.98 L 1124.99 1678.85 L 1112.95 1689.69 L 1108.09 1697.03 L 1100.89 1700.23 L 1098.86 1707.74 L 1096.25 1709.77 L 1094.29 1712.55 L 1091.69 1724.60 L 1088.36 1730.93 L 1087.90 1735.61 L 1089.74 1739.17 L 1095.87 1743.69 L 1098.39 1747.23 L 1098.57 1750.63 L 1097.30 1753.88 L 1097.12 1757.98 L 1102.49 1770.40 L 1105.75 1791.36 L 1106.94 1796.20 L 1110.01 1802.45 L 1111.80 1811.57 L 1107.67 1817.87 L 1102.26 1829.36 L 1103.05 1847.07 L 1099.41 1853.00 L 1086.70 1867.48 L 1073.29 1877.58 L 1068.49 1880.22 L 1057.67 1888.63 L 1047.76 1893.51 L 1040.05 1899.72 L 1035.98 1902.05 L 1030.83 1909.26 L 1027.30 1911.51 L 1025.08 1918.70 L 1024.57 1926.33 L 1023.47 1931.03 L 1023.51 1937.06 L 1021.20 1935.63 L 1018.57 1936.12 L 1013.39 1934.59 L 1017.79 1939.52 L 1017.34 1939.74 L 1008.07 1937.14 L 1023.52 1953.29 L 1024.96 1956.06 L 1024.80 1957.43 L 1026.28 1959.23 L 1025.21 1958.79 L 1023.56 1959.32 L 1019.30 1959.11 L 1018.20 1961.80 L 1020.43 1964.60 L 1011.37 1965.83 L 1005.53 1969.69 L 1002.18 1969.93 L 998.19 1971.54 L 993.78 1971.12 L 988.93 1972.23 L 982.55 1972.44 L 975.26 1971.95 L 969.61 1970.71 L 957.75 1965.96 L 950.63 1964.45 L 948.25 1963.08 L 943.82 1962.56 L 936.01 1962.84 L 929.23 1962.01 L 927.09 1962.42 L 921.35 1960.66 L 917.97 1962.01 L 912.42 1968.74 L 895.08 1962.04 L 892.61 1960.35 L 891.65 1957.90 L 885.96 1960.89 L 881.00 1960.37 L 869.18 1961.72 L 863.70 1969.20 L 864.96 1976.19 L 864.70 1981.50 L 862.98 1988.05 L 863.64 1993.94 L 861.96 1996.81 L 858.08 1999.55 L 857.67 2001.69 L 854.70 2004.13 L 855.51 2006.51 L 854.42 2007.60 L 850.60 2008.52 L 850.43 2009.76 L 851.58 2011.14 L 858.12 2017.33 L 860.22 2018.47 L 860.37 2025.08 L 853.29 2028.10 L 852.31 2030.00 L 851.01 2030.64 L 847.99 2031.25 L 840.32 2030.57 L 830.33 2028.18 L 824.95 2027.78 L 810.00 2017.35 L 805.24 2012.30 L 803.25 2008.98 L 801.68 2003.91 L 797.27 1995.69 L 794.41 1993.21 L 786.50 1988.91 L 783.43 1983.23 L 780.97 1977.27 L 780.47 1974.37 L 776.71 1980.24 L 774.94 1985.20 L 772.57 1978.99 L 772.59 1973.83 L 770.34 1975.56 L 769.49 1973.36 L 767.79 1974.02 L 766.24 1972.85 L 765.89 1970.60 L 766.28 1967.39 L 767.86 1966.10 L 767.76 1964.85 L 769.19 1964.55 L 769.07 1963.21 L 769.73 1962.25 L 767.62 1952.41 L 767.73 1950.47 L 771.87 1948.26 L 773.11 1945.76 L 770.16 1939.13 L 766.31 1935.61 L 765.69 1934.21 L 766.30 1931.40 L 763.19 1930.05" pathLength="1" fill="none" vector-effect="non-scaling-stroke"/>
  <circle class="trace-start" cx="1417.66" cy="468.75" r="6.25"/>
  <circle class="trace-summit-halo" cx="763.25" cy="1929.53" r="15.97"/>
  <circle class="trace-summit" cx="763.25" cy="1929.53" r="9.03"/>
</svg>
