<svg xmlns="http://www.w3.org/2000/svg" viewBox="0 0 2000 2500" preserveAspectRatio="none">
  <path class="trace-underlay" d="M 2490.94 -1987.08 L 2508.03 -1961.22 L 2508.81 -1936.31 L 2513.31 -1921.37 L 2513.31 -1873.53 L 2519.69 -1855.97 L 2514.61 -1832.53 L 2515.21 -1818.55 L 2524.17 -1793.46 L 2525.70 -1761.17 L 2531.42 -1748.84 L 2532.54 -1713.31 L 2539.07 -1674.59 L 2534.04 -1658.71 L 2541.56 -1644.96 L 2528.23 -1606.91 L 2532.37 -1590.88 L 2530.57 -1573.67 L 2519.04 -1549.52 L 2517.59 -1537.78 L 2520.22 -1526.74 L 2517.86 -1515.00 L 2512.80 -1504.50 L 2516.35 -1496.09 L 2513.29 -1480.85 L 2512.97 -1471.54 L 2514.95 -1462.61 L 2515.33 -1452.43 L 2510.20 -1434.76 L 2503.98 -1421.80 L 2502.94 -1401.69 L 2509.20 -1395.67 L 2500.92 -1381.00 L 2501.40 -1355.22 L 2492.65 -1337.20 L 2487.05 -1317.07 L 2483.41 -1286.93 L 2477.77 -1262.24 L 2480.79 -1241.72 L 2489.83 -1212.44 L 2497.87 -1194.67 L 2506.42 -1187.98 L 2522.94 -1164.37 L 2548.42 -1114.91 L 2549.18 -1094.74 L 2545.42 -1079.15 L 2545.11 -1040.96 L 2552.51 -1029.52 L 2568.28 -991.43 L 2566.97 -975.46 L 2568.01 -957.09 L 2564.90 -939.98 L 2543.09 -899.62 L 2553.22 -891.93 L 2548.73 -870.91 L 2551.35 -857.07 L 2557.86 -848.63 L 2556.20 -840.22 L 2551.35 -829.54 L 2542.58 -815.42 L 2543.35 -784.68 L 2541.88 -760.17 L 2538.14 -743.25 L 2540.89 -729.00 L 2540.15 -720.76 L 2534.65 -703.41 L 2531.24 -683.95 L 2529.33 -680.39 L 2513.63 -672.43 L 2510.19 -661.59 L 2510.27 -643.96 L 2508.93 -638.45 L 2487.50 -597.28 L 2485.12 -584.89 L 2472.83 -565.84 L 2460.13 -536.21 L 2449.87 -517.39 L 2426.76 -480.89 L 2417.44 -471.50 L 2402.25 -463.36 L 2400.10 -459.40 L 2397.26 -438.38 L 2394.23 -430.29 L 2376.82 -413.10 L 2367.68 -398.22 L 2360.80 -391.82 L 2354.76 -375.63 L 2331.85 -348.14 L 2326.45 -335.30 L 2323.88 -321.34 L 2317.39 -310.83 L 2310.33 -294.63 L 2292.23 -259.99 L 2288.55 -248.75 L 2285.49 -226.55 L 2277.38 -211.50 L 2269.80 -203.32 L 2257.94 -194.46 L 2252.82 -188.29 L 2237.04 -160.15 L 2224.68 -151.09 L 2169.23 -89.65 L 2157.82 -74.53 L 2146.55 -55.50 L 2139.73 -47.53 L 2124.23 -33.70 L 2097.33 -20.24 L 2077.87 -3.59 L 2029.72 18.53 L 2028.19 40.70 L 2021.57 62.38 L 2016.58 72.47 L 1990.33 112.76 L 1948.57 159.24 L 1938.45 181.97 L 1934.10 188.33 L 1925.54 197.51 L 1908.74 210.00 L 1894.34 241.23 L 1884.75 272.38 L 1865.38 306.27 L 1860.68 317.33 L 1857.47 319.75 L 1858.44 325.99 L 1857.04 329.55 L 1843.24 348.43 L 1818.03 374.60 L 1798.24 388.52 L 1769.47 414.17 L 1759.31 420.65 L 1742.98 424.50 L 1737.02 428.15 L 1729.93 443.18 L 1727.24 445.98 L 1695.81 467.77 L 1683.14 482.52 L 1664.37 488.97 L 1659.65 499.25 L 1659.05 504.05 L 1652.25 508.15 L 1647.12 513.74 L 1642.94 524.79 L 1640.34 537.97 L 1631.66 550.68 L 1630.46 560.11 L 1632.11 564.19 L 1635.26 567.26 L 1651.26 576.34 L 1657.83 583.45 L 1658.32 590.30 L 1654.99 596.83 L 1654.51 605.07 L 1666.30 624.22 L 1668.52 630.05 L 1669.32 638.66 L 1677.03 672.19 L 1680.15 681.93 L 1688.17 694.50 L 1692.83 712.82 L 1682.05 725.49 L 1667.94 748.59 L 1670.52 775.66 L 1669.99 784.20 L 1660.50 796.13 L 1627.33 825.25 L 1592.34 845.54 L 1579.82 850.86 L 1551.59 867.76 L 1525.72 877.58 L 1505.59 890.07 L 1494.97 894.74 L 1493.52 897.47 L 1488.91 899.95 L 1486.06 905.32 L 1481.55 909.25 L 1472.32 913.76 L 1466.54 928.22 L 1465.21 943.57 L 1462.32 953.02 L 1461.53 960.47 L 1462.44 965.15 L 1456.40 962.25 L 1449.54 963.25 L 1436.03 960.18 L 1447.52 970.09 L 1446.35 970.53 L 1422.14 965.30 L 1462.48 997.78 L 1466.23 1003.35 L 1465.80 1006.10 L 1469.66 1009.72 L 1466.87 1008.83 L 1462.58 1009.90 L 1451.44 1009.47 L 1448.59 1014.88 L 1454.41 1020.51 L 1430.77 1022.97 L 1415.53 1030.75 L 1406.78 1031.22 L 1396.37 1034.47 L 1384.86 1033.62 L 1372.21 1035.84 L 1355.55 1036.28 L 1336.54 1035.29 L 1321.78 1032.80 L 1290.85 1023.24 L 1272.26 1020.20 L 1266.06 1017.45 L 1254.49 1016.42 L 1234.10 1016.98 L 1216.42 1015.31 L 1210.84 1016.13 L 1195.85 1012.59 L 1187.05 1015.31 L 1175.57 1027.23 L 1172.57 1028.84 L 1127.31 1015.37 L 1120.86 1011.98 L 1118.35 1007.03 L 1103.52 1013.06 L 1090.58 1012.01 L 1059.72 1014.72 L 1045.42 1029.75 L 1048.72 1043.82 L 1048.04 1054.49 L 1044.24 1062.72 L 1043.55 1067.66 L 1045.26 1079.50 L 1040.90 1085.27 L 1030.76 1090.79 L 1029.70 1095.08 L 1021.96 1100.00 L 1024.07 1104.78 L 1021.22 1106.97 L 1011.24 1108.83 L 1010.81 1111.31 L 1013.82 1114.08 L 1030.88 1126.53 L 1036.35 1128.82 L 1036.74 1142.12 L 1033.15 1144.21 L 1018.27 1148.18 L 1015.71 1152.01 L 1012.31 1153.30 L 1004.43 1154.52 L 984.42 1153.14 L 958.35 1148.34 L 944.32 1147.55 L 905.30 1126.56 L 892.87 1116.43 L 887.70 1109.75 L 883.58 1099.55 L 872.08 1083.03 L 864.62 1078.03 L 843.98 1069.39 L 835.96 1057.97 L 829.54 1045.99 L 828.26 1040.16 L 818.44 1051.95 L 813.81 1061.92 L 807.63 1049.44 L 807.67 1039.07 L 801.80 1042.55 L 799.59 1038.13 L 795.16 1039.46 L 791.13 1037.11 L 790.19 1032.57 L 791.62 1029.35 L 791.21 1026.12 L 795.35 1023.53 L 795.08 1021.01 L 798.82 1020.42 L 798.50 1017.71 L 800.21 1015.78 L 797.21 1001.69 L 794.71 996.01 L 794.99 992.10 L 805.80 987.66 L 809.05 982.64 L 807.85 978.58 L 801.34 969.30 L 791.30 962.22 L 789.69 959.40 L 791.27 953.76 L 783.15 951.05" pathLength="1" fill="none" vector-effect="non-scaling-stroke"/>
  <path class="trace-line" d="M 2490.94 -1987.08 L 2508.03 -1961.22 L 2508.81 -1936.31 L 2513.31 -1921.37 L 2513.31 -1873.53 L 2519.69 -1855.97 L 2514.61 -1832.53 L 2515.21 -1818.55 L 2524.17 -1793.46 L 2525.70 -1761.17 L 2531.42 -1748.84 L 2532.54 -1713.31 L 2539.07 -1674.59 L 2534.04 -1658.71 L 2541.56 -1644.96 L 2528.23 -1606.91 L 2532.37 -1590.88 L 2530.57 -1573.67 L 2519.04 -1549.52 L 2517.59 -1537.78 L 2520.22 -1526.74 L 2517.86 -1515.00 L 2512.80 -1504.50 L 2516.35 -1496.09 L 2513.29 -1480.85 L 2512.97 -1471.54 L 2514.95 -1462.61 L 2515.33 -1452.43 L 2510.20 -1434.76 L 2503.98 -1421.80 L 2502.94 -1401.69 L 2509.20 -1395.67 L 2500.92 -1381.00 L 2501.40 -1355.22 L 2492.65 -1337.20 L 2487.05 -1317.07 L 2483.41 -1286.93 L 2477.77 -1262.24 L 2480.79 -1241.72 L 2489.83 -1212.44 L 2497.87 -1194.67 L 2506.42 -1187.98 L 2522.94 -1164.37 L 2548.42 -1114.91 L 2549.18 -1094.74 L 2545.42 -1079.15 L 2545.11 -1040.96 L 2552.51 -1029.52 L 2568.28 -991.43 L 2566.97 -975.46 L 2568.01 -957.09 L 2564.90 -939.98 L 2543.09 -899.62 L 2553.22 -891.93 L 2548.73 -870.91 L 2551.35 -857.07 L 2557.86 -848.63 L 2556.20 -840.22 L 2551.35 -829.54 L 2542.58 -815.42 L 2543.35 -784.68 L 2541.88 -760.17 L 2538.14 -743.25 L 2540.89 -729.00 L 2540.15 -720.76 L 2534.65 -703.41 L 2531.24 -683.95 L 2529.33 -680.39 L 2513.63 -672.43 L 2510.19 -661.59 L 2510.27 -643.96 L 2508.93 -638.45 L 2487.50 -597.28 L 2485.12 -584.89 L 2472.83 -565.84 L 2460.13 -536.21 L 2449.87 -517.39 L 2426.76 -480.89 L 2417.44 -471.50 L 2402.25 -463.36 L 2400.10 -459.40 L 2397.26 -438.38 L 2394.23 -430.29 L 2376.82 -413.10 L 2367.68 -398.22 L 2360.80 -391.82 L 2354.76 -375.63 L 2331.85 -348.14 L 2326.45 -335.30 L 2323.88 -321.34 L 2317.39 -310.83 L 2310.33 -294.63 L 2292.23 -259.99 L 2288.55 -248.75 L 2285.49 -226.55 L 2277.38 -211.50 L 2269.80 -203.32 L 2257.94 -194.46 L 2252.82 -188.29 L 2237.04 -160.15 L 2224.68 -151.09 L 2169.23 -89.65 L 2157.82 -74.53 L 2146.55 -55.50 L 2139.73 -47.53 L 2124.23 -33.70 L 2097.33 -20.24 L 2077.87 -3.59 L 2029.72 18.53 L 2028.19 40.70 L 2021.57 62.38 L 2016.58 72.47 L 1990.33 112.76 L 1948.57 159.24 L 1938.45 181.97 L 1934.10 188.33 L 1925.54 197.51 L 1908.74 210.00 L 1894.34 241.23 L 1884.75 272.38 L 1865.38 306.27 L 1860.68 317.33 L 1857.47 319.75 L 1858.44 325.99 L 1857.04 329.55 L 1843.24 348.43 L 1818.03 374.60 L 1798.24 388.52 L 1769.47 414.17 L 1759.31 420.65 L 1742.98 424.50 L 1737.02 428.15 L 1729.93 443.18 L 1727.24 445.98 L 1695.81 467.77 L 1683.14 482.52 L 1664.37 488.97 L 1659.65 499.25 L 1659.05 504.05 L 1652.25 508.15 L 1647.12 513.74 L 1642.94 524.79 L 1640.34 537.97 L 1631.66 550.68 L 1630.46 560.11 L 1632.11 564.19 L 1635.26 567.26 L 1651.26 576.34 L 1657.83 583.45 L 1658.32 590.30 L 1654.99 596.83 L 1654.51 605.07 L 1666.30 624.22 L 1668.52 630.05 L 1669.32 638.66 L 1677.03 672.19 L 1680.15 681.93 L 1688.17 694.50 L 1692.83 712.82 L 1682.05 725.49 L 1667.94 748.59 L 1670.52 775.66 L 1669.99 784.20 L 1660.50 796.13 L 1627.33 825.25 L 1592.34 845.54 L 1579.82 850.86 L 1551.59 867.76 L 1525.72 877.58 L 1505.59 890.07 L 1494.97 894.74 L 1493.52 897.47 L 1488.91 899.95 L 1486.06 905.32 L 1481.55 909.25 L 1472.32 913.76 L 1466.54 928.22 L 1465.21 943.57 L 1462.32 953.02 L 1461.53 960.47 L 1462.44 965.15 L 1456.40 962.25 L 1449.54 963.25 L 1436.03 960.18 L 1447.52 970.09 L 1446.35 970.53 L 1422.14 965.30 L 1462.48 997.78 L 1466.23 1003.35 L 1465.80 1006.10 L 1469.66 1009.72 L 1466.87 1008.83 L 1462.58 1009.90 L 1451.44 1009.47 L 1448.59 1014.88 L 1454.41 1020.51 L 1430.77 1022.97 L 1415.53 1030.75 L 1406.78 1031.22 L 1396.37 1034.47 L 1384.86 1033.62 L 1372.21 1035.84 L 1355.55 1036.28 L 1336.54 1035.29 L 1321.78 1032.80 L 1290.85 1023.24 L 1272.26 1020.20 L 1266.06 1017.45 L 1254.49 1016.42 L 1234.10 1016.98 L 1216.42 1015.31 L 1210.84 1016.13 L 1195.85 1012.59 L 1187.05 1015.31 L 1175.57 1027.23 L 1172.57 1028.84 L 1127.31 1015.37 L 1120.86 1011.98 L 1118.35 1007.03 L 1103.52 1013.06 L 1090.58 1012.01 L 1059.72 1014.72 L 1045.42 1029.75 L 1048.72 1043.82 L 1048.04 1054.49 L 1044.24 1062.72 L 1043.55 1067.66 L 1045.26 1079.50 L 1040.90 1085.27 L 1030.76 1090.79 L 1029.70 1095.08 L 1021.96 1100.00 L 1024.07 1104.78 L 1021.22 1106.97 L 1011.24 1108.83 L 1010.81 1111.31 L 1013.82 1114.08 L 1030.88 1126.53 L 1036.35 1128.82 L 1036.74 1142.12 L 1033.15 1144.21 L 1018.27 1148.18 L 1015.71 1152.01 L 1012.31 1153.30 L 1004.43 1154.52 L 984.42 1153.14 L 958.35 1148.34 L 944.32 1147.55 L 905.30 1126.56 L 892.87 1116.43 L 887.70 1109.75 L 883.58 1099.55 L 872.08 1083.03 L 864.62 1078.03 L 843.98 1069.39 L 835.96 1057.97 L 829.54 1045.99 L 828.26 1040.16 L 818.44 1051.95 L 813.81 1061.92 L 807.63 1049.44 L 807.67 1039.07 L 801.80 1042.55 L 799.59 1038.13 L 795.16 1039.46 L 791.13 1037.11 L 790.19 1032.57 L 791.62 1029.35 L 791.21 1026.12 L 795.35 1023.53 L 795.08 1021.01 L 798.82 1020.42 L 798.50 1017.71 L 800.21 1015.78 L 797.21 1001.69 L 794.71 996.01 L 794.99 992.10 L 805.80 987.66 L 809.05 982.64 L 807.85 978.58 L 801.34 969.30 L 791.30 962.22 L 789.69 959.40 L 791.27 953.76 L 783.15 951.05" pathLength="1" fill="none" vector-effect="non-scaling-stroke"/>
</svg>
