<svg xmlns="http://www.w3.org/2000/svg" viewBox="-107.4705441 -38.2213573 0.0964474 0.1734166" preserveAspectRatio="xMidYMid meet">
  <path d="M -107.3856159 -38.2069059 L -107.3848466 -38.2057160 L -107.3848117 -38.2045702 L -107.3846090 -38.2038830 L -107.3846090 -38.2016825 L -107.3843215 -38.2008748 L -107.3845505 -38.1997964 L -107.3845232 -38.1991531 L -107.3841200 -38.1979990 L -107.3840511 -38.1965140 L -107.3837936 -38.1959465 L -107.3837429 -38.1943121 L -107.3834490 -38.1925310 L -107.3836756 -38.1918005 L -107.3833370 -38.1911680 L -107.3839371 -38.1894178 L -107.3837507 -38.1886805 L -107.3838320 -38.1878890 L -107.3843510 -38.1867780 L -107.3844160 -38.1862380 L -107.3842980 -38.1857300 L -107.3844040 -38.1851900 L -107.3846320 -38.1847070 L -107.3844720 -38.1843200 L -107.3846100 -38.1836190 L -107.3846240 -38.1831910 L -107.3845350 -38.1827800 L -107.3845180 -38.1823120 L -107.3847490 -38.1814990 L -107.3850290 -38.1809030 L -107.3850758 -38.1799779 L -107.3847940 -38.1797010 L -107.3851668 -38.1790262 L -107.3851450 -38.1778400 L -107.3855390 -38.1770110 L -107.3857910 -38.1760850 L -107.3859550 -38.1746990 L -107.3862090 -38.1735630 L -107.3860730 -38.1726190 L -107.3856662 -38.1712723 L -107.3853040 -38.1704550 L -107.3849190 -38.1701470 L -107.3841753 -38.1690609 L -107.3830280 -38.1667860 L -107.3829940 -38.1658580 L -107.3831630 -38.1651410 L -107.3831770 -38.1633840 L -107.3828440 -38.1628580 L -107.3821340 -38.1611060 L -107.3821928 -38.1603710 L -107.3821460 -38.1595260 L -107.3822860 -38.1587392 L -107.3832679 -38.1568825 L -107.3828120 -38.1565290 L -107.3830140 -38.1555620 L -107.3828960 -38.1549250 L -107.3826030 -38.1545370 L -107.3826780 -38.1541500 L -107.3828960 -38.1536590 L -107.3832910 -38.1530094 L -107.3832564 -38.1515954 L -107.3833224 -38.1504677 L -107.3834910 -38.1496893 L -107.3833670 -38.1490340 L -107.3834003 -38.1486549 L -107.3836481 -38.1478569 L -107.3838016 -38.1469617 L -107.3838875 -38.1467978 L -107.3845944 -38.1464320 L -107.3847493 -38.1459332 L -107.3847457 -38.1451223 L -107.3848059 -38.1448688 L -107.3857711 -38.1429749 L -107.3858781 -38.1424051 L -107.3864314 -38.1415288 L -107.3870031 -38.1401655 L -107.3874654 -38.1393001 L -107.3885059 -38.1376209 L -107.3889254 -38.1371888 L -107.3896091 -38.1368145 L -107.3897058 -38.1366323 L -107.3898340 -38.1356655 L -107.3899702 -38.1352933 L -107.3907543 -38.1345024 L -107.3911655 -38.1338182 L -107.3914753 -38.1335236 L -107.3917476 -38.1327791 L -107.3927787 -38.1315146 L -107.3930218 -38.1309239 L -107.3931377 -38.1302818 L -107.3934299 -38.1297983 L -107.3945626 -38.1274594 L -107.3947282 -38.1269424 L -107.3948660 -38.1259213 L -107.3952312 -38.1252290 L -107.3955725 -38.1248526 L -107.3961067 -38.1244452 L -107.3963369 -38.1241612 L -107.3970474 -38.1228671 L -107.3976041 -38.1224503 L -107.4001008 -38.1196239 L -107.4006141 -38.1189286 L -107.4011215 -38.1180532 L -107.4014288 -38.1176864 L -107.4021265 -38.1170504 L -107.4033380 -38.1164309 L -107.4042139 -38.1156651 L -107.4063817 -38.1146475 L -107.4064509 -38.1136278 L -107.4067489 -38.1126305 L -107.4069732 -38.1121664 L -107.4081554 -38.1103129 L -107.4100353 -38.1081748 L -107.4104913 -38.1071292 L -107.4106869 -38.1068368 L -107.4110722 -38.1064144 L -107.4118287 -38.1058402 L -107.4124771 -38.1044032 L -107.4129089 -38.1029706 L -107.4137812 -38.1014118 L -107.4139926 -38.1009028 L -107.4141371 -38.1007917 L -107.4140935 -38.1005043 L -107.4141565 -38.1003408 L -107.4147779 -38.0994720 L -107.4159127 -38.0982682 L -107.4168038 -38.0976281 L -107.4180990 -38.0964480 L -107.4185567 -38.0961503 L -107.4192920 -38.0959729 L -107.4195601 -38.0958052 L -107.4198793 -38.0951138 L -107.4200005 -38.0949851 L -107.4214155 -38.0939828 L -107.4219860 -38.0933042 L -107.4228313 -38.0930074 L -107.4230437 -38.0925345 L -107.4230706 -38.0923135 L -107.4233767 -38.0921252 L -107.4236077 -38.0918681 L -107.4237961 -38.0913596 L -107.4239129 -38.0907535 L -107.4243040 -38.0901687 L -107.4243581 -38.0897351 L -107.4242835 -38.0895474 L -107.4241420 -38.0894061 L -107.4234213 -38.0889885 L -107.4231255 -38.0886612 L -107.4231037 -38.0883462 L -107.4232534 -38.0880458 L -107.4232751 -38.0876669 L -107.4227443 -38.0867858 L -107.4226443 -38.0865175 L -107.4226084 -38.0861218 L -107.4222611 -38.0845791 L -107.4221209 -38.0841314 L -107.4217598 -38.0835531 L -107.4215496 -38.0827104 L -107.4220350 -38.0821274 L -107.4226706 -38.0810649 L -107.4225544 -38.0798196 L -107.4225783 -38.0794269 L -107.4230055 -38.0788782 L -107.4244987 -38.0775386 L -107.4260740 -38.0766052 L -107.4266378 -38.0763605 L -107.4279090 -38.0755831 L -107.4290737 -38.0751314 L -107.4299798 -38.0745570 L -107.4304582 -38.0743420 L -107.4305234 -38.0742165 L -107.4307312 -38.0741024 L -107.4308593 -38.0738551 L -107.4310623 -38.0736744 L -107.4314778 -38.0734671 L -107.4317383 -38.0728019 L -107.4317981 -38.0720958 L -107.4319280 -38.0716613 L -107.4319228 -38.0711032 L -107.4321945 -38.0712363 L -107.4325037 -38.0711906 L -107.4331120 -38.0713318 L -107.4325943 -38.0708758 L -107.4326473 -38.0708557 L -107.4337373 -38.0710964 L -107.4319211 -38.0696021 L -107.4317521 -38.0693460 L -107.4317714 -38.0692195 L -107.4315975 -38.0690531 L -107.4317231 -38.0690940 L -107.4319164 -38.0690445 L -107.4324178 -38.0690645 L -107.4325465 -38.0688153 L -107.4322842 -38.0685564 L -107.4333486 -38.0684432 L -107.4340348 -38.0680856 L -107.4344286 -38.0680637 L -107.4348974 -38.0679144 L -107.4354157 -38.0679534 L -107.4359851 -38.0678512 L -107.4367351 -38.0678310 L -107.4375911 -38.0678767 L -107.4382557 -38.0679911 L -107.4396482 -38.0684309 L -107.4404854 -38.0685708 L -107.4407646 -38.0686973 L -107.4412853 -38.0687449 L -107.4422032 -38.0687190 L -107.4429994 -38.0687956 L -107.4432505 -38.0687580 L -107.4439254 -38.0689207 L -107.4443218 -38.0687956 L -107.4448387 -38.0682472 L -107.4449737 -38.0681733 L -107.4470115 -38.0687931 L -107.4473020 -38.0689491 L -107.4474147 -38.0691764 L -107.4480828 -38.0688993 L -107.4486654 -38.0689477 L -107.4500544 -38.0688227 L -107.4506985 -38.0681313 L -107.4505499 -38.0674843 L -107.4505807 -38.0669933 L -107.4507517 -38.0666149 L -107.4507825 -38.0663876 L -107.4507056 -38.0658428 L -107.4509021 -38.0655778 L -107.4513585 -38.0653238 L -107.4514064 -38.0651261 L -107.4517549 -38.0649001 L -107.4516599 -38.0646803 L -107.4517880 -38.0645795 L -107.4522374 -38.0644939 L -107.4522567 -38.0643797 L -107.4521214 -38.0642523 L -107.4513530 -38.0636797 L -107.4511066 -38.0635742 L -107.4510893 -38.0629627 L -107.4512511 -38.0628662 L -107.4519208 -38.0626835 L -107.4520362 -38.0625075 L -107.4521893 -38.0624481 L -107.4525438 -38.0623921 L -107.4534450 -38.0624554 L -107.4546187 -38.0626762 L -107.4552505 -38.0627127 L -107.4570071 -38.0636781 L -107.4575667 -38.0641444 L -107.4577996 -38.0644515 L -107.4579850 -38.0649206 L -107.4585027 -38.0656808 L -107.4588386 -38.0659106 L -107.4597678 -38.0663080 L -107.4601289 -38.0668335 L -107.4604182 -38.0673846 L -107.4604759 -38.0676527 L -107.4609180 -38.0671104 L -107.4611263 -38.0666516 L -107.4614048 -38.0672257 L -107.4614026 -38.0677026 L -107.4616670 -38.0675429 L -107.4617668 -38.0677460 L -107.4619661 -38.0676850 L -107.4621477 -38.0677931 L -107.4621897 -38.0680018 L -107.4621253 -38.0681499 L -107.4621439 -38.0682984 L -107.4619576 -38.0684174 L -107.4619697 -38.0685334 L -107.4618013 -38.0685608 L -107.4618156 -38.0686854 L -107.4617385 -38.0687739 L -107.4618738 -38.0694222 L -107.4619862 -38.0696837 L -107.4619735 -38.0698634 L -107.4614872 -38.0700676 L -107.4613406 -38.0702987 L -107.4613948 -38.0704854 L -107.4616877 -38.0709124 L -107.4621399 -38.0712377 L -107.4622123 -38.0713676 L -107.4621412 -38.0716272 L -107.4625068 -38.0717516" pathLength="1" fill="none" stroke="currentColor" vector-effect="non-scaling-stroke"/>
</svg>
