<svg xmlns="http://www.w3.org/2000/svg" viewBox="0 0 2000 2500" preserveAspectRatio="xMidYMid slice">
  <path class="trace-line" d="M 1365.40 468.75 L 1314.37 485.33 L 1216.44 556.60 L 1196.82 590.84 L 1196.20 625.20 L 1175.06 691.12 L 1136.34 797.86 L 1112.45 879.32 L 1081.53 930.90 L 1052.52 954.41 L 1029.31 966.01 L 1004.66 962.77 L 980.00 974.65 L 971.03 1001.98 L 975.41 1051.44 L 990.77 1117.75 L 1018.00 1146.90 L 1071.54 1173.78 L 1099.11 1187.01 L 1149.18 1253.32 L 1151.93 1290.88 L 1152.22 1363.47 L 1128.37 1464.71 L 1096.25 1506.31 L 1082.08 1554.09 L 1083.69 1589.89 L 1057.70 1641.24 L 1044.35 1648.66 L 1023.59 1690.17 L 995.47 1725.09 L 978.84 1747.95 L 967.40 1769.36 L 965.65 1787.64 L 952.62 1803.01 L 899.44 1853.72 L 877.84 1897.65 L 859.19 1915.65 L 841.03 1947.87 L 796.45 1976.52 L 729.69 2006.65 L 717.42 2022.00 L 701.92 2028.56 L 677.13 2031.25 L 638.94 2020.86" pathLength="1" fill="none" vector-effect="non-scaling-stroke"/>
  <circle class="trace-start" cx="1365.40" cy="468.75" r="6.25"/>
  <circle class="trace-summit-halo" cx="634.60" cy="2028.33" r="15.97"/>
  <circle class="trace-summit" cx="634.60" cy="2028.33" r="9.03"/>
</svg>
