<svg xmlns="http://www.w3.org/2000/svg" viewBox="0 0 2000 2500" preserveAspectRatio="none">
  <path class="trace-underlay" d="M 1103.51 1044.45 L 1088.73 1048.16 L 1060.36 1064.07 L 1054.68 1071.71 L 1054.50 1079.39 L 1048.37 1094.10 L 1037.15 1117.94 L 1030.23 1136.13 L 1021.27 1147.64 L 1012.87 1152.89 L 1006.15 1155.48 L 999.00 1154.76 L 991.86 1157.41 L 989.26 1163.51 L 990.53 1174.56 L 994.98 1189.36 L 1002.87 1195.87 L 1018.38 1201.87 L 1026.37 1204.83 L 1040.87 1219.63 L 1041.67 1228.02 L 1041.75 1244.23 L 1034.84 1266.83 L 1025.54 1276.12 L 1021.43 1286.79 L 1021.90 1294.78 L 1014.37 1306.25 L 1010.50 1307.91 L 1004.49 1317.17 L 996.34 1324.97 L 993.79 1327.57 L 991.52 1330.07 L 988.21 1334.86 L 987.70 1338.94 L 983.93 1342.37 L 968.52 1353.69 L 962.26 1363.50 L 956.86 1367.52 L 951.60 1374.71 L 938.68 1381.11 L 919.34 1387.84 L 915.79 1391.26 L 911.30 1392.73 L 904.11 1393.33 L 893.05 1391.01" pathLength="1" fill="none" vector-effect="non-scaling-stroke"/>
  <path class="trace-line" d="M 1103.51 1044.45 L 1088.73 1048.16 L 1060.36 1064.07 L 1054.68 1071.71 L 1054.50 1079.39 L 1048.37 1094.10 L 1037.15 1117.94 L 1030.23 1136.13 L 1021.27 1147.64 L 1012.87 1152.89 L 1006.15 1155.48 L 999.00 1154.76 L 991.86 1157.41 L 989.26 1163.51 L 990.53 1174.56 L 994.98 1189.36 L 1002.87 1195.87 L 1018.38 1201.87 L 1026.37 1204.83 L 1040.87 1219.63 L 1041.67 1228.02 L 1041.75 1244.23 L 1034.84 1266.83 L 1025.54 1276.12 L 1021.43 1286.79 L 1021.90 1294.78 L 1014.37 1306.25 L 1010.50 1307.91 L 1004.49 1317.17 L 996.34 1324.97 L 993.79 1327.57 L 991.52 1330.07 L 988.21 1334.86 L 987.70 1338.94 L 983.93 1342.37 L 968.52 1353.69 L 962.26 1363.50 L 956.86 1367.52 L 951.60 1374.71 L 938.68 1381.11 L 919.34 1387.84 L 915.79 1391.26 L 911.30 1392.73 L 904.11 1393.33 L 893.05 1391.01" pathLength="1" fill="none" vector-effect="non-scaling-stroke"/>
</svg>
