<svg xmlns="http://www.w3.org/2000/svg" viewBox="0 0 1600 900" preserveAspectRatio="xMidYMid slice">
  <path class="trace-line" d="M 1069.83 -126.59 L 1032.15 -114.36 L 959.83 -61.76 L 945.35 -36.49 L 944.89 -11.13 L 929.27 37.52 L 900.68 116.30 L 883.04 176.42 L 860.21 214.49 L 838.78 231.84 L 821.65 240.40 L 803.44 238.01 L 785.23 246.78 L 778.61 266.95 L 781.84 303.45 L 793.18 352.39 L 813.29 373.91 L 852.83 393.74 L 873.19 403.51 L 910.17 452.45 L 912.20 480.17 L 912.41 533.75 L 894.80 608.47 L 871.08 639.17 L 860.61 674.43 L 861.80 700.86 L 842.61 738.75 L 832.75 744.23 L 817.42 774.87 L 796.65 800.64 L 784.37 817.50 L 775.92 833.31 L 774.64 846.80 L 765.01 858.15 L 725.74 895.57 L 709.79 928.00 L 696.02 941.28 L 682.61 965.05 L 649.68 986.20 L 600.39 1008.44 L 591.32 1019.77 L 579.88 1024.61 L 561.57 1026.59 L 533.37 1018.93" pathLength="1" fill="none" vector-effect="non-scaling-stroke"/>
  <circle class="trace-start" cx="1069.83" cy="-126.59" r="4.62"/>
  <circle class="trace-summit-halo" cx="530.17" cy="1024.44" r="11.79"/>
  <circle class="trace-summit" cx="530.17" cy="1024.44" r="6.67"/>
</svg>
