<svg xmlns="http://www.w3.org/2000/svg" viewBox="-106.8618942 -39.0193468 0.0063074 0.0105416" preserveAspectRatio="xMidYMid meet">
  <path d="M -106.8561124 -39.0184683 L -106.8564816 -39.0183751 L -106.8571902 -39.0179744 L -106.8573321 -39.0177819 L -106.8573366 -39.0175887 L -106.8574896 -39.0172181 L -106.8577697 -39.0166180 L -106.8579426 -39.0161600 L -106.8581663 -39.0158700 L -106.8583762 -39.0157378 L -106.8585441 -39.0156726 L -106.8587225 -39.0156908 L -106.8589009 -39.0156240 L -106.8589658 -39.0154704 L -106.8589341 -39.0151923 L -106.8588230 -39.0148195 L -106.8586260 -39.0146556 L -106.8582386 -39.0145045 L -106.8580391 -39.0144301 L -106.8576768 -39.0140573 L -106.8576569 -39.0138461 L -106.8576548 -39.0134380 L -106.8578274 -39.0128688 L -106.8580598 -39.0126349 L -106.8581623 -39.0123663 L -106.8581507 -39.0121650 L -106.8583387 -39.0118763 L -106.8584353 -39.0118346 L -106.8585855 -39.0116012 L -106.8587890 -39.0114049 L -106.8588528 -39.0113395 L -106.8589093 -39.0112764 L -106.8589921 -39.0111560 L -106.8590047 -39.0110532 L -106.8590990 -39.0109668 L -106.8594838 -39.0106817 L -106.8596401 -39.0104347 L -106.8597750 -39.0103335 L -106.8599064 -39.0101524 L -106.8602290 -39.0099913 L -106.8607120 -39.0098219 L -106.8608008 -39.0097356 L -106.8609129 -39.0096987 L -106.8610923 -39.0096836 L -106.8613686 -39.0097420" pathLength="1" fill="none" stroke="currentColor" vector-effect="non-scaling-stroke"/>
</svg>
