<svg xmlns="http://www.w3.org/2000/svg" viewBox="0 0 2000 2500" preserveAspectRatio="xMidYMid slice">
  <path class="trace-line" d="M 389.62 468.75 L 392.19 470.66 L 385.86 483.20 L 386.72 488.97 L 388.14 492.21 L 388.54 497.59 L 383.79 509.94 L 380.67 514.51 L 378.44 515.21 L 372.70 513.52 L 369.89 514.01 L 362.84 520.13 L 362.47 522.13 L 368.25 539.61 L 373.01 547.85 L 371.43 550.75 L 364.33 555.76 L 361.15 559.99 L 360.74 566.78 L 363.12 578.79 L 364.36 581.48 L 370.01 585.71 L 373.35 590.18 L 374.06 597.13 L 373.32 601.42 L 368.74 607.97 L 367.60 612.04 L 368.31 621.37 L 367.54 626.52 L 359.42 637.06 L 355.62 644.25 L 355.52 646.81 L 356.95 650.05 L 362.07 657.28 L 362.17 662.22 L 364.14 667.87 L 355.00 679.85 L 354.47 681.89 L 354.72 684.82 L 356.82 690.07 L 356.45 700.20 L 354.66 703.47 L 348.42 708.72 L 346.75 711.44 L 348.51 716.59 L 346.60 722.06 L 349.01 724.74 L 355.28 728.79 L 357.47 732.10 L 358.06 737.99 L 359.66 741.23 L 357.69 746.11 L 352.59 747.56 L 351.70 750.50 L 353.27 760.13 L 349.35 765.10 L 349.07 767.35 L 354.10 776.50 L 355.83 783.44 L 357.75 785.91 L 376.00 804.13 L 379.86 805.52 L 382.92 809.41 L 384.84 810.43 L 390.18 810.83 L 392.47 812.31 L 393.98 815.16 L 396.63 828.03 L 399.04 831.92 L 400.59 837.02 L 401.39 838.43 L 407.60 839.86 L 409.61 841.86 L 413.84 850.20 L 414.36 852.55 L 412.76 859.46 L 412.64 868.73 L 416.12 880.40 L 417.70 882.63 L 426.01 889.67 L 428.11 892.23 L 428.51 894.48 L 432.49 896.73 L 441.08 899.36 L 449.30 904.70 L 455.50 905.81 L 462.46 912.05 L 465.61 913.26 L 472.99 931.81 L 476.17 934.37 L 478.92 939.26 L 483.64 944.66 L 490.38 957.78 L 492.79 969.36 L 499.93 979.82 L 500.63 982.86 L 499.03 985.28 L 502.94 995.14 L 506.61 1002.47 L 511.81 1009.26 L 518.33 1034.24 L 530.19 1052.30 L 536.46 1072.53 L 541.09 1080.62 L 541.62 1087.88 L 544.83 1094.43 L 545.25 1098.80 L 543.78 1101.40 L 544.27 1104.55 L 557.34 1130.86 L 560.89 1147.81 L 565.00 1155.07 L 568.18 1164.15 L 577.63 1199.70 L 578.53 1212.94 L 580.66 1220.57 L 581.62 1228.23 L 579.76 1248.61 L 579.48 1269.20 L 580.32 1271.86 L 577.85 1290.27 L 577.26 1306.98 L 578.56 1317.51 L 585.63 1331.87 L 584.12 1338.04 L 586.53 1343.20 L 585.94 1346.59 L 587.61 1355.27 L 586.22 1364.11 L 587.76 1368.37 L 584.83 1376.34 L 582.39 1391.59 L 587.98 1402.06 L 589.03 1408.64 L 594.46 1417.35 L 596.35 1425.10 L 600.15 1431.06 L 606.20 1437.76 L 610.31 1437.98 L 612.44 1441.06 L 615.38 1442.98 L 619.60 1442.15 L 622.45 1445.05 L 623.22 1448.17 L 626.21 1451.97 L 636.60 1456.44 L 639.71 1459.32 L 648.86 1462.01 L 655.40 1465.49 L 688.27 1488.94 L 693.18 1501.85 L 695.40 1505.58 L 702.23 1512.10 L 710.04 1516.23 L 716.59 1525.04 L 727.28 1534.73 L 747.72 1548.60 L 772.03 1559.90 L 777.77 1561.79 L 783.12 1565.77 L 788.25 1566.33 L 791.30 1567.72 L 798.59 1577.26 L 804.03 1579.05 L 809.40 1577.51 L 812.25 1578.96 L 816.47 1583.74 L 819.88 1580.87 L 821.91 1583.74 L 824.07 1581.18 L 827.47 1580.59 L 831.70 1581.43 L 834.39 1584.05 L 839.27 1585.01 L 844.90 1583.53 L 848.94 1586.15 L 849.79 1587.86 L 850.14 1595.73 L 860.27 1599.31 L 865.34 1602.03 L 887.42 1609.04 L 894.34 1605.82 L 897.54 1607.11 L 915.19 1619.66 L 920.07 1621.05 L 926.81 1620.44 L 934.49 1621.30 L 955.44 1625.38 L 958.74 1623.88 L 958.46 1617.65 L 972.73 1612.96 L 982.34 1613.58 L 985.95 1611.51 L 1005.44 1613.11 L 1015.14 1618.49 L 1018.63 1616.97 L 1021.94 1617.44 L 1037.93 1622.87 L 1045.25 1623.65 L 1054.89 1629.47 L 1058.55 1632.81 L 1063.79 1634.55 L 1070.03 1634.76 L 1079.75 1641.80 L 1082.38 1645.14 L 1085.97 1645.29 L 1090.60 1646.81 L 1091.67 1649.27 L 1093.84 1651.07 L 1098.53 1652.55 L 1100.57 1654.59 L 1106.69 1656.97 L 1110.08 1665.00 L 1113.82 1669.35 L 1124.26 1679.58 L 1130.19 1681.93 L 1132.33 1685.40 L 1136.20 1686.26 L 1142.18 1698.32 L 1145.45 1701.42 L 1149.54 1709.27 L 1156.31 1716.48 L 1165.75 1704.65 L 1168.06 1703.14 L 1176.22 1705.05 L 1197.21 1704.44 L 1199.55 1705.94 L 1210.01 1702.56 L 1215.84 1701.78 L 1223.07 1702.65 L 1227.95 1701.72 L 1243.46 1707.68 L 1250.10 1706.80 L 1254.94 1713.27 L 1261.40 1718.03 L 1267.20 1719.23 L 1270.32 1721.24 L 1274.59 1725.72 L 1275.30 1730.04 L 1276.87 1732.70 L 1280.89 1735.82 L 1286.85 1743.05 L 1294.20 1748.05 L 1298.22 1755.52 L 1305.50 1760.22 L 1314.34 1768.68 L 1319.34 1771.33 L 1323.36 1775.90 L 1322.41 1781.89 L 1338.39 1795.26 L 1344.98 1798.02 L 1357.83 1810.50 L 1367.28 1815.38 L 1372.53 1819.21 L 1378.71 1821.49 L 1392.98 1823.29 L 1400.34 1830.14 L 1407.31 1832.18 L 1415.58 1841.87 L 1422.01 1847.50 L 1434.57 1854.60 L 1445.54 1862.74 L 1451.35 1864.23 L 1455.94 1869.20 L 1460.06 1869.76 L 1465.86 1874.81 L 1467.83 1878.28 L 1471.57 1879.68 L 1474.48 1883.43 L 1483.37 1886.98 L 1486.46 1892.32 L 1495.73 1894.38 L 1499.85 1898.60 L 1508.46 1903.46 L 1513.05 1908.52 L 1516.70 1910.86 L 1517.54 1913.95 L 1522.97 1917.88 L 1527.28 1917.88 L 1531.69 1922.19 L 1539.94 1934.53 L 1543.39 1937.68 L 1548.25 1939.88 L 1556.55 1946.64 L 1562.42 1956.83 L 1570.88 1963.51 L 1592.01 1977.40 L 1598.87 1983.33 L 1600.84 1986.55 L 1605.65 1986.14 L 1610.71 1987.73 L 1625.78 2001.21 L 1632.33 2008.52 L 1641.74 2022.25 L 1653.22 2031.20" pathLength="1" fill="none" vector-effect="non-scaling-stroke"/>
  <circle class="trace-start" cx="389.62" cy="468.75" r="6.25"/>
  <circle class="trace-summit-halo" cx="1653.40" cy="2031.25" r="15.97"/>
  <circle class="trace-summit" cx="1653.40" cy="2031.25" r="9.03"/>
</svg>
