<svg xmlns="http://www.w3.org/2000/svg" viewBox="0 0 1600 900" preserveAspectRatio="xMidYMid slice">
  <path class="trace-line" d="M 349.26 -126.59 L 351.15 -125.18 L 346.48 -115.93 L 347.12 -111.67 L 348.16 -109.28 L 348.46 -105.31 L 344.95 -96.20 L 342.65 -92.83 L 341.00 -92.30 L 336.76 -93.55 L 334.68 -93.19 L 329.48 -88.68 L 329.21 -87.20 L 333.48 -74.30 L 336.99 -68.21 L 335.83 -66.07 L 330.58 -62.38 L 328.23 -59.26 L 327.93 -54.25 L 329.69 -45.38 L 330.60 -43.40 L 334.78 -40.27 L 337.24 -36.97 L 337.77 -31.84 L 337.22 -28.67 L 333.84 -23.84 L 333.00 -20.84 L 333.52 -13.96 L 332.95 -10.15 L 326.95 -2.38 L 324.15 2.93 L 324.08 4.82 L 325.13 7.21 L 328.92 12.55 L 328.98 16.19 L 330.44 20.36 L 323.69 29.20 L 323.30 30.71 L 323.49 32.88 L 325.04 36.75 L 324.76 44.22 L 323.44 46.64 L 318.83 50.51 L 317.60 52.52 L 318.90 56.32 L 317.49 60.36 L 319.27 62.34 L 323.90 65.32 L 325.52 67.76 L 325.95 72.11 L 327.14 74.51 L 325.68 78.11 L 321.91 79.18 L 321.25 81.35 L 322.42 88.45 L 319.52 92.13 L 319.31 93.79 L 323.03 100.54 L 324.31 105.66 L 325.72 107.48 L 339.20 120.93 L 342.05 121.95 L 344.31 124.83 L 345.73 125.58 L 349.67 125.87 L 351.36 126.97 L 352.48 129.07 L 354.44 138.57 L 356.22 141.44 L 357.36 145.20 L 357.95 146.25 L 362.54 147.30 L 364.02 148.78 L 367.14 154.93 L 367.53 156.66 L 366.35 161.77 L 366.25 168.61 L 368.83 177.22 L 369.99 178.86 L 376.13 184.06 L 377.68 185.95 L 377.98 187.61 L 380.92 189.27 L 387.26 191.21 L 393.33 195.16 L 397.91 195.98 L 403.04 200.58 L 405.37 201.47 L 410.82 215.16 L 413.17 217.06 L 415.20 220.66 L 418.69 224.64 L 423.66 234.33 L 425.44 242.88 L 430.71 250.59 L 431.24 252.84 L 430.05 254.63 L 432.94 261.90 L 435.65 267.32 L 439.49 272.32 L 444.30 290.76 L 453.06 304.09 L 457.69 319.02 L 461.11 324.99 L 461.50 330.35 L 463.87 335.18 L 464.18 338.41 L 463.10 340.33 L 463.46 342.65 L 473.11 362.07 L 475.73 374.58 L 478.77 379.94 L 481.12 386.64 L 488.10 412.87 L 488.76 422.65 L 490.33 428.28 L 491.04 433.93 L 489.67 448.97 L 489.46 464.17 L 490.08 466.14 L 488.26 479.72 L 487.82 492.05 L 488.78 499.82 L 494.00 510.42 L 492.89 514.98 L 494.67 518.79 L 494.23 521.29 L 495.47 527.70 L 494.44 534.22 L 495.58 537.36 L 493.41 543.24 L 491.61 554.50 L 495.74 562.23 L 496.51 567.08 L 500.53 573.51 L 501.92 579.23 L 504.73 583.63 L 509.19 588.58 L 512.23 588.74 L 513.80 591.01 L 515.97 592.43 L 519.09 591.81 L 521.19 593.96 L 521.76 596.26 L 523.97 599.06 L 531.64 602.36 L 533.94 604.48 L 540.69 606.47 L 545.53 609.04 L 569.80 626.34 L 573.42 635.87 L 575.07 638.63 L 580.11 643.44 L 585.88 646.49 L 590.71 652.99 L 598.60 660.14 L 613.70 670.38 L 631.65 678.72 L 635.89 680.11 L 639.84 683.05 L 643.63 683.46 L 645.88 684.49 L 651.27 691.53 L 655.28 692.85 L 659.25 691.71 L 661.35 692.79 L 664.47 696.32 L 666.99 694.19 L 668.49 696.32 L 670.09 694.42 L 672.60 693.99 L 675.72 694.61 L 677.71 696.54 L 681.31 697.25 L 685.46 696.16 L 688.45 698.10 L 689.07 699.35 L 689.33 705.16 L 696.82 707.80 L 700.56 709.81 L 716.87 714.99 L 721.98 712.61 L 724.34 713.56 L 737.37 722.83 L 740.98 723.85 L 745.95 723.40 L 751.63 724.03 L 767.09 727.04 L 769.53 725.94 L 769.33 721.34 L 779.87 717.88 L 786.96 718.34 L 789.63 716.81 L 804.02 717.99 L 811.18 721.96 L 813.76 720.84 L 816.20 721.18 L 828.01 725.19 L 833.42 725.77 L 840.53 730.07 L 843.23 732.53 L 847.11 733.81 L 851.71 733.97 L 858.89 739.17 L 860.83 741.63 L 863.49 741.74 L 866.90 742.86 L 867.70 744.68 L 869.30 746.01 L 872.76 747.10 L 874.27 748.60 L 878.79 750.36 L 881.29 756.29 L 884.06 759.50 L 891.76 767.05 L 896.14 768.78 L 897.72 771.34 L 900.58 771.98 L 904.99 780.88 L 907.41 783.17 L 910.43 788.96 L 915.43 794.28 L 922.40 785.55 L 924.10 784.44 L 930.13 785.85 L 945.64 785.39 L 947.36 786.50 L 955.08 784.00 L 959.39 783.43 L 964.73 784.07 L 968.33 783.39 L 979.78 787.79 L 984.69 787.14 L 988.27 791.91 L 993.03 795.42 L 997.32 796.31 L 999.62 797.80 L 1002.77 801.10 L 1003.30 804.29 L 1004.46 806.25 L 1007.43 808.56 L 1011.83 813.89 L 1017.26 817.58 L 1020.22 823.10 L 1025.60 826.56 L 1032.13 832.81 L 1035.82 834.77 L 1038.79 838.14 L 1038.09 842.56 L 1049.89 852.42 L 1054.75 854.46 L 1064.24 863.67 L 1071.22 867.27 L 1075.10 870.10 L 1079.66 871.78 L 1090.20 873.11 L 1095.64 878.17 L 1100.78 879.67 L 1106.89 886.83 L 1111.64 890.98 L 1120.92 896.22 L 1129.01 902.22 L 1133.30 903.33 L 1136.69 906.99 L 1139.73 907.41 L 1144.02 911.14 L 1145.47 913.69 L 1148.24 914.73 L 1150.38 917.50 L 1156.95 920.12 L 1159.23 924.06 L 1166.08 925.58 L 1169.12 928.69 L 1175.48 932.28 L 1178.87 936.01 L 1181.56 937.74 L 1182.19 940.02 L 1186.20 942.93 L 1189.38 942.93 L 1192.63 946.10 L 1198.72 955.21 L 1201.28 957.54 L 1204.86 959.16 L 1210.99 964.15 L 1215.33 971.67 L 1221.58 976.60 L 1237.17 986.85 L 1242.24 991.23 L 1243.70 993.60 L 1247.25 993.30 L 1250.98 994.48 L 1262.11 1004.42 L 1266.95 1009.82 L 1273.90 1019.95 L 1282.38 1026.56" pathLength="1" fill="none" vector-effect="non-scaling-stroke"/>
  <circle class="trace-start" cx="349.26" cy="-126.59" r="4.62"/>
  <circle class="trace-summit-halo" cx="1282.51" cy="1026.59" r="11.79"/>
  <circle class="trace-summit" cx="1282.51" cy="1026.59" r="6.67"/>
</svg>
