<svg xmlns="http://www.w3.org/2000/svg" viewBox="0 0 2000 2500" preserveAspectRatio="none">
  <path class="trace-underlay" d="M 682.38 640.74 L 684.57 641.99 L 679.18 650.21 L 681.46 659.64 L 677.42 667.73 L 674.77 670.73 L 672.87 671.19 L 667.99 670.08 L 665.59 670.40 L 659.60 674.41 L 659.29 675.73 L 664.20 687.18 L 668.25 692.58 L 666.91 694.48 L 660.86 697.77 L 658.16 700.54 L 657.82 704.99 L 659.84 712.86 L 660.89 714.62 L 665.70 717.40 L 668.54 720.33 L 669.14 724.88 L 668.51 727.70 L 664.62 731.99 L 663.65 734.66 L 664.25 740.77 L 663.60 744.15 L 656.69 751.05 L 653.45 755.77 L 653.38 757.45 L 654.59 759.57 L 658.95 764.31 L 659.03 767.55 L 660.71 771.25 L 652.93 779.10 L 652.48 780.44 L 654.48 785.80 L 654.16 792.44 L 652.64 794.58 L 645.91 799.81 L 647.41 803.19 L 645.78 806.77 L 653.17 811.18 L 655.03 813.35 L 655.53 817.21 L 656.90 819.34 L 655.22 822.54 L 650.88 823.48 L 650.12 825.41 L 651.46 831.72 L 648.12 834.98 L 647.89 836.46 L 652.17 842.45 L 653.64 847.00 L 655.27 848.62 L 670.80 860.56 L 674.08 861.47 L 676.68 864.02 L 684.80 865.93 L 686.09 867.79 L 688.35 876.23 L 691.71 882.12 L 692.40 883.05 L 697.68 883.98 L 702.98 890.76 L 703.43 892.30 L 702.07 896.83 L 701.96 902.90 L 704.93 910.55 L 706.27 912.01 L 713.34 916.63 L 715.46 919.78 L 726.16 922.98 L 733.15 926.48 L 738.43 927.21 L 744.34 931.30 L 747.02 932.09 L 753.30 944.25 L 756.01 945.93 L 762.37 952.67 L 768.10 961.27 L 770.15 968.86 L 776.22 975.72 L 776.82 977.71 L 775.46 979.30 L 778.79 985.76 L 781.91 990.57 L 786.33 995.01 L 791.87 1011.39 L 801.96 1023.23 L 807.30 1036.49 L 811.24 1041.79 L 811.69 1046.54 L 814.42 1050.84 L 814.77 1053.70 L 813.52 1055.41 L 813.95 1057.47 L 825.06 1074.72 L 828.08 1085.83 L 831.58 1090.59 L 834.28 1096.54 L 842.32 1119.84 L 843.09 1128.52 L 845.71 1138.54 L 844.14 1151.90 L 843.90 1165.40 L 844.61 1167.14 L 842.51 1179.21 L 842.01 1190.16 L 843.11 1197.06 L 849.13 1206.47 L 847.84 1210.52 L 849.89 1213.90 L 849.39 1216.12 L 850.81 1221.81 L 849.63 1227.60 L 850.94 1230.39 L 848.45 1235.62 L 846.37 1245.62 L 851.13 1252.48 L 852.02 1256.79 L 856.64 1262.50 L 858.25 1267.58 L 861.48 1271.49 L 866.63 1275.88 L 870.12 1276.02 L 874.43 1279.30 L 878.03 1278.75 L 880.45 1280.66 L 881.11 1282.70 L 883.65 1285.19 L 892.49 1288.12 L 895.14 1290.01 L 902.92 1291.77 L 908.48 1294.06 L 936.44 1309.42 L 942.51 1320.33 L 948.32 1324.60 L 954.97 1327.31 L 960.54 1333.08 L 969.63 1339.44 L 987.02 1348.53 L 1012.59 1357.17 L 1017.14 1359.78 L 1024.10 1361.06 L 1030.30 1367.31 L 1034.92 1368.49 L 1039.50 1367.47 L 1041.91 1368.43 L 1045.51 1371.56 L 1048.41 1369.68 L 1050.14 1371.56 L 1051.98 1369.88 L 1054.87 1369.50 L 1064.90 1372.39 L 1069.69 1371.42 L 1073.85 1374.26 L 1074.15 1379.42 L 1087.08 1383.55 L 1105.87 1388.14 L 1111.75 1386.04 L 1129.49 1395.11 L 1133.64 1396.02 L 1145.91 1396.18 L 1163.73 1398.85 L 1166.53 1397.87 L 1166.30 1393.79 L 1178.44 1390.71 L 1186.61 1391.12 L 1189.69 1389.76 L 1206.27 1390.81 L 1214.51 1394.34 L 1217.48 1393.34 L 1220.30 1393.65 L 1233.91 1397.21 L 1240.13 1397.72 L 1251.44 1403.72 L 1255.90 1404.86 L 1261.21 1405.01 L 1269.48 1409.62 L 1271.72 1411.81 L 1278.71 1412.90 L 1281.47 1415.69 L 1292.40 1419.56 L 1295.29 1424.82 L 1298.47 1427.68 L 1307.35 1434.38 L 1312.39 1435.92 L 1314.21 1438.19 L 1317.50 1438.76 L 1322.59 1446.67 L 1325.37 1448.70 L 1328.85 1453.84 L 1334.61 1458.57 L 1342.64 1450.81 L 1344.60 1449.82 L 1351.54 1451.08 L 1369.41 1450.67 L 1371.39 1451.66 L 1380.29 1449.44 L 1395.55 1448.89 L 1408.75 1452.80 L 1414.40 1452.22 L 1418.52 1456.46 L 1424.01 1459.58 L 1428.95 1460.37 L 1431.60 1461.69 L 1435.23 1464.62 L 1435.83 1467.46 L 1437.17 1469.20 L 1445.66 1475.98 L 1451.92 1479.26 L 1455.33 1484.16 L 1461.53 1487.23 L 1469.05 1492.78 L 1473.30 1494.52 L 1476.72 1497.51 L 1475.92 1501.44 L 1489.51 1510.20 L 1495.11 1512.01 L 1506.04 1520.19 L 1518.55 1525.90 L 1523.80 1527.39 L 1535.94 1528.57 L 1542.21 1533.07 L 1548.13 1534.40 L 1555.18 1540.76 L 1560.64 1544.44 L 1571.33 1549.10 L 1580.66 1554.43 L 1585.60 1555.41 L 1589.51 1558.67 L 1593.01 1559.03 L 1597.95 1562.35 L 1599.62 1564.62 L 1602.81 1565.54 L 1605.28 1567.99 L 1612.84 1570.32 L 1615.47 1573.82 L 1623.36 1575.17 L 1626.86 1577.94 L 1634.19 1581.12 L 1641.20 1585.97 L 1641.92 1588.00 L 1646.54 1590.58 L 1650.20 1590.58 L 1653.95 1593.40 L 1660.96 1601.49 L 1663.91 1603.55 L 1668.04 1605.00 L 1675.10 1609.42 L 1680.09 1616.11 L 1705.26 1629.59 L 1711.10 1633.47 L 1712.78 1635.58 L 1716.87 1635.32 L 1721.17 1636.36 L 1733.99 1645.19 L 1739.57 1649.98 L 1747.57 1658.99 L 1757.33 1664.85" pathLength="1" fill="none" vector-effect="non-scaling-stroke"/>
  <path class="trace-line" d="M 682.38 640.74 L 684.57 641.99 L 679.18 650.21 L 681.46 659.64 L 677.42 667.73 L 674.77 670.73 L 672.87 671.19 L 667.99 670.08 L 665.59 670.40 L 659.60 674.41 L 659.29 675.73 L 664.20 687.18 L 668.25 692.58 L 666.91 694.48 L 660.86 697.77 L 658.16 700.54 L 657.82 704.99 L 659.84 712.86 L 660.89 714.62 L 665.70 717.40 L 668.54 720.33 L 669.14 724.88 L 668.51 727.70 L 664.62 731.99 L 663.65 734.66 L 664.25 740.77 L 663.60 744.15 L 656.69 751.05 L 653.45 755.77 L 653.38 757.45 L 654.59 759.57 L 658.95 764.31 L 659.03 767.55 L 660.71 771.25 L 652.93 779.10 L 652.48 780.44 L 654.48 785.80 L 654.16 792.44 L 652.64 794.58 L 645.91 799.81 L 647.41 803.19 L 645.78 806.77 L 653.17 811.18 L 655.03 813.35 L 655.53 817.21 L 656.90 819.34 L 655.22 822.54 L 650.88 823.48 L 650.12 825.41 L 651.46 831.72 L 648.12 834.98 L 647.89 836.46 L 652.17 842.45 L 653.64 847.00 L 655.27 848.62 L 670.80 860.56 L 674.08 861.47 L 676.68 864.02 L 684.80 865.93 L 686.09 867.79 L 688.35 876.23 L 691.71 882.12 L 692.40 883.05 L 697.68 883.98 L 702.98 890.76 L 703.43 892.30 L 702.07 896.83 L 701.96 902.90 L 704.93 910.55 L 706.27 912.01 L 713.34 916.63 L 715.46 919.78 L 726.16 922.98 L 733.15 926.48 L 738.43 927.21 L 744.34 931.30 L 747.02 932.09 L 753.30 944.25 L 756.01 945.93 L 762.37 952.67 L 768.10 961.27 L 770.15 968.86 L 776.22 975.72 L 776.82 977.71 L 775.46 979.30 L 778.79 985.76 L 781.91 990.57 L 786.33 995.01 L 791.87 1011.39 L 801.96 1023.23 L 807.30 1036.49 L 811.24 1041.79 L 811.69 1046.54 L 814.42 1050.84 L 814.77 1053.70 L 813.52 1055.41 L 813.95 1057.47 L 825.06 1074.72 L 828.08 1085.83 L 831.58 1090.59 L 834.28 1096.54 L 842.32 1119.84 L 843.09 1128.52 L 845.71 1138.54 L 844.14 1151.90 L 843.90 1165.40 L 844.61 1167.14 L 842.51 1179.21 L 842.01 1190.16 L 843.11 1197.06 L 849.13 1206.47 L 847.84 1210.52 L 849.89 1213.90 L 849.39 1216.12 L 850.81 1221.81 L 849.63 1227.60 L 850.94 1230.39 L 848.45 1235.62 L 846.37 1245.62 L 851.13 1252.48 L 852.02 1256.79 L 856.64 1262.50 L 858.25 1267.58 L 861.48 1271.49 L 866.63 1275.88 L 870.12 1276.02 L 874.43 1279.30 L 878.03 1278.75 L 880.45 1280.66 L 881.11 1282.70 L 883.65 1285.19 L 892.49 1288.12 L 895.14 1290.01 L 902.92 1291.77 L 908.48 1294.06 L 936.44 1309.42 L 942.51 1320.33 L 948.32 1324.60 L 954.97 1327.31 L 960.54 1333.08 L 969.63 1339.44 L 987.02 1348.53 L 1012.59 1357.17 L 1017.14 1359.78 L 1024.10 1361.06 L 1030.30 1367.31 L 1034.92 1368.49 L 1039.50 1367.47 L 1041.91 1368.43 L 1045.51 1371.56 L 1048.41 1369.68 L 1050.14 1371.56 L 1051.98 1369.88 L 1054.87 1369.50 L 1064.90 1372.39 L 1069.69 1371.42 L 1073.85 1374.26 L 1074.15 1379.42 L 1087.08 1383.55 L 1105.87 1388.14 L 1111.75 1386.04 L 1129.49 1395.11 L 1133.64 1396.02 L 1145.91 1396.18 L 1163.73 1398.85 L 1166.53 1397.87 L 1166.30 1393.79 L 1178.44 1390.71 L 1186.61 1391.12 L 1189.69 1389.76 L 1206.27 1390.81 L 1214.51 1394.34 L 1217.48 1393.34 L 1220.30 1393.65 L 1233.91 1397.21 L 1240.13 1397.72 L 1251.44 1403.72 L 1255.90 1404.86 L 1261.21 1405.01 L 1269.48 1409.62 L 1271.72 1411.81 L 1278.71 1412.90 L 1281.47 1415.69 L 1292.40 1419.56 L 1295.29 1424.82 L 1298.47 1427.68 L 1307.35 1434.38 L 1312.39 1435.92 L 1314.21 1438.19 L 1317.50 1438.76 L 1322.59 1446.67 L 1325.37 1448.70 L 1328.85 1453.84 L 1334.61 1458.57 L 1342.64 1450.81 L 1344.60 1449.82 L 1351.54 1451.08 L 1369.41 1450.67 L 1371.39 1451.66 L 1380.29 1449.44 L 1395.55 1448.89 L 1408.75 1452.80 L 1414.40 1452.22 L 1418.52 1456.46 L 1424.01 1459.58 L 1428.95 1460.37 L 1431.60 1461.69 L 1435.23 1464.62 L 1435.83 1467.46 L 1437.17 1469.20 L 1445.66 1475.98 L 1451.92 1479.26 L 1455.33 1484.16 L 1461.53 1487.23 L 1469.05 1492.78 L 1473.30 1494.52 L 1476.72 1497.51 L 1475.92 1501.44 L 1489.51 1510.20 L 1495.11 1512.01 L 1506.04 1520.19 L 1518.55 1525.90 L 1523.80 1527.39 L 1535.94 1528.57 L 1542.21 1533.07 L 1548.13 1534.40 L 1555.18 1540.76 L 1560.64 1544.44 L 1571.33 1549.10 L 1580.66 1554.43 L 1585.60 1555.41 L 1589.51 1558.67 L 1593.01 1559.03 L 1597.95 1562.35 L 1599.62 1564.62 L 1602.81 1565.54 L 1605.28 1567.99 L 1612.84 1570.32 L 1615.47 1573.82 L 1623.36 1575.17 L 1626.86 1577.94 L 1634.19 1581.12 L 1641.20 1585.97 L 1641.92 1588.00 L 1646.54 1590.58 L 1650.20 1590.58 L 1653.95 1593.40 L 1660.96 1601.49 L 1663.91 1603.55 L 1668.04 1605.00 L 1675.10 1609.42 L 1680.09 1616.11 L 1705.26 1629.59 L 1711.10 1633.47 L 1712.78 1635.58 L 1716.87 1635.32 L 1721.17 1636.36 L 1733.99 1645.19 L 1739.57 1649.98 L 1747.57 1658.99 L 1757.33 1664.85" pathLength="1" fill="none" vector-effect="non-scaling-stroke"/>
</svg>
