<svg xmlns="http://www.w3.org/2000/svg" viewBox="-105.4761080 -37.6134701 0.0340451 0.0322583" preserveAspectRatio="xMidYMid meet">
  <path class="trace-line" d="M -105.4723368 -37.6107819 L -105.4722811 -37.6107490 L -105.4724186 -37.6105333 L -105.4723603 -37.6102858 L -105.4724635 -37.6100733 L -105.4725312 -37.6099947 L -105.4725795 -37.6099825 L -105.4727042 -37.6100117 L -105.4727653 -37.6100032 L -105.4729182 -37.6098980 L -105.4729262 -37.6098635 L -105.4728008 -37.6095628 L -105.4726975 -37.6094210 L -105.4727317 -37.6093711 L -105.4728860 -37.6092850 L -105.4729550 -37.6092122 L -105.4729638 -37.6090954 L -105.4729121 -37.6088887 L -105.4728853 -37.6088425 L -105.4727626 -37.6087697 L -105.4726902 -37.6086927 L -105.4726747 -37.6085732 L -105.4726908 -37.6084993 L -105.4727901 -37.6083867 L -105.4728149 -37.6083166 L -105.4727995 -37.6081562 L -105.4728162 -37.6080675 L -105.4729926 -37.6078863 L -105.4730751 -37.6077625 L -105.4730771 -37.6077185 L -105.4730462 -37.6076627 L -105.4729349 -37.6075384 L -105.4729329 -37.6074534 L -105.4728900 -37.6073562 L -105.4730885 -37.6071501 L -105.4730999 -37.6071150 L -105.4730489 -37.6069742 L -105.4730570 -37.6068000 L -105.4730958 -37.6067437 L -105.4732313 -37.6066534 L -105.4732675 -37.6066066 L -105.4732293 -37.6065179 L -105.4732709 -37.6064239 L -105.4730824 -37.6063081 L -105.4730348 -37.6062512 L -105.4730221 -37.6061498 L -105.4729872 -37.6060940 L -105.4730301 -37.6060100 L -105.4731408 -37.6059851 L -105.4731602 -37.6059346 L -105.4731260 -37.6057689 L -105.4732112 -37.6056833 L -105.4732172 -37.6056446 L -105.4731079 -37.6054873 L -105.4730704 -37.6053678 L -105.4730288 -37.6053253 L -105.4726325 -37.6050119 L -105.4725487 -37.6049880 L -105.4724823 -37.6049210 L -105.4722751 -37.6048711 L -105.4722422 -37.6048222 L -105.4721846 -37.6046007 L -105.4720987 -37.6044461 L -105.4720813 -37.6044217 L -105.4719465 -37.6043972 L -105.4718111 -37.6042193 L -105.4717997 -37.6041789 L -105.4718345 -37.6040599 L -105.4718372 -37.6039005 L -105.4717615 -37.6036997 L -105.4717273 -37.6036614 L -105.4715469 -37.6035403 L -105.4715013 -37.6034962 L -105.4714926 -37.6034574 L -105.4712196 -37.6033735 L -105.4710413 -37.6032816 L -105.4709065 -37.6032625 L -105.4707556 -37.6031552 L -105.4706872 -37.6031344 L -105.4705270 -37.6028152 L -105.4704579 -37.6027711 L -105.4702956 -37.6025942 L -105.4701494 -37.6023684 L -105.4700971 -37.6021692 L -105.4699421 -37.6019893 L -105.4699268 -37.6019370 L -105.4699616 -37.6018953 L -105.4698766 -37.6017257 L -105.4697970 -37.6015995 L -105.4696841 -37.6014828 L -105.4695426 -37.6010530 L -105.4692851 -37.6007422 L -105.4691490 -37.6003942 L -105.4690485 -37.6002550 L -105.4690370 -37.6001302 L -105.4689673 -37.6000175 L -105.4689582 -37.5999423 L -105.4689901 -37.5998975 L -105.4689793 -37.5998433 L -105.4686957 -37.5993906 L -105.4686186 -37.5990990 L -105.4685294 -37.5989741 L -105.4684603 -37.5988179 L -105.4682551 -37.5982064 L -105.4682357 -37.5979785 L -105.4681686 -37.5977155 L -105.4682089 -37.5973649 L -105.4682150 -37.5970106 L -105.4681968 -37.5969648 L -105.4682504 -37.5966481 L -105.4682632 -37.5963607 L -105.4682350 -37.5961795 L -105.4680815 -37.5959325 L -105.4681143 -37.5958262 L -105.4680620 -37.5957375 L -105.4680748 -37.5956791 L -105.4680385 -37.5955298 L -105.4680687 -37.5953778 L -105.4680352 -37.5953045 L -105.4680989 -37.5951674 L -105.4681519 -37.5949049 L -105.4680305 -37.5947248 L -105.4680077 -37.5946117 L -105.4678897 -37.5944618 L -105.4678488 -37.5943285 L -105.4677662 -37.5942259 L -105.4676349 -37.5941106 L -105.4675457 -37.5941069 L -105.4674357 -37.5940208 L -105.4673439 -37.5940352 L -105.4672822 -37.5939852 L -105.4672654 -37.5939316 L -105.4672004 -37.5938662 L -105.4669750 -37.5937892 L -105.4669073 -37.5937398 L -105.4667088 -37.5936935 L -105.4665667 -37.5936335 L -105.4658532 -37.5932302 L -105.4656983 -37.5929439 L -105.4655501 -37.5928317 L -105.4653805 -37.5927606 L -105.4652383 -37.5926091 L -105.4650063 -37.5924423 L -105.4645624 -37.5922037 L -105.4639100 -37.5919768 L -105.4637939 -37.5919083 L -105.4636163 -37.5918748 L -105.4634580 -37.5917106 L -105.4633400 -37.5916798 L -105.4632233 -37.5917064 L -105.4631616 -37.5916814 L -105.4630698 -37.5915991 L -105.4629958 -37.5916486 L -105.4629517 -37.5915991 L -105.4629048 -37.5916432 L -105.4628310 -37.5916533 L -105.4627392 -37.5916389 L -105.4626808 -37.5915938 L -105.4625749 -37.5915773 L -105.4624528 -37.5916028 L -105.4623466 -37.5915283 L -105.4623389 -37.5913929 L -105.4620089 -37.5912845 L -105.4615295 -37.5911639 L -105.4613793 -37.5912192 L -105.4609267 -37.5909811 L -105.4608207 -37.5909572 L -105.4605076 -37.5909530 L -105.4600529 -37.5908828 L -105.4599813 -37.5909085 L -105.4599872 -37.5910157 L -105.4596774 -37.5910964 L -105.4594689 -37.5910858 L -105.4593904 -37.5911214 L -105.4589673 -37.5910938 L -105.4587568 -37.5910013 L -105.4586810 -37.5910274 L -105.4586092 -37.5910194 L -105.4582619 -37.5909259 L -105.4581030 -37.5909126 L -105.4578144 -37.5907549 L -105.4577006 -37.5907250 L -105.4575652 -37.5907213 L -105.4573540 -37.5906002 L -105.4572970 -37.5905428 L -105.4571186 -37.5905141 L -105.4570482 -37.5904408 L -105.4567692 -37.5903393 L -105.4566955 -37.5902011 L -105.4566143 -37.5901262 L -105.4563877 -37.5899503 L -105.4562590 -37.5899099 L -105.4562126 -37.5898502 L -105.4561285 -37.5898354 L -105.4559988 -37.5896278 L -105.4559277 -37.5895745 L -105.4558390 -37.5894394 L -105.4556919 -37.5893154 L -105.4554871 -37.5895189 L -105.4554369 -37.5895449 L -105.4552598 -37.5895120 L -105.4548039 -37.5895226 L -105.4547532 -37.5894968 L -105.4545262 -37.5895550 L -105.4541367 -37.5895694 L -105.4538000 -37.5894668 L -105.4536558 -37.5894820 L -105.4535506 -37.5893706 L -105.4534104 -37.5892888 L -105.4532844 -37.5892681 L -105.4532167 -37.5892335 L -105.4531241 -37.5891565 L -105.4531087 -37.5890821 L -105.4530745 -37.5890364 L -105.4528579 -37.5888584 L -105.4526983 -37.5887723 L -105.4526111 -37.5886437 L -105.4524529 -37.5885630 L -105.4522611 -37.5884174 L -105.4521525 -37.5883717 L -105.4520653 -37.5882931 L -105.4520858 -37.5881901 L -105.4517389 -37.5879601 L -105.4515959 -37.5879126 L -105.4513170 -37.5876979 L -105.4509978 -37.5875481 L -105.4508637 -37.5875088 L -105.4505539 -37.5874779 L -105.4503940 -37.5873599 L -105.4502428 -37.5873249 L -105.4500631 -37.5871581 L -105.4499236 -37.5870614 L -105.4496508 -37.5869392 L -105.4494127 -37.5867992 L -105.4492866 -37.5867734 L -105.4491870 -37.5866880 L -105.4490976 -37.5866784 L -105.4489716 -37.5865914 L -105.4489289 -37.5865318 L -105.4488476 -37.5865076 L -105.4487845 -37.5864432 L -105.4485914 -37.5863820 L -105.4485244 -37.5862902 L -105.4483231 -37.5862547 L -105.4482337 -37.5861822 L -105.4480467 -37.5860985 L -105.4478678 -37.5859712 L -105.4478495 -37.5859181 L -105.4477316 -37.5858504 L -105.4476381 -37.5858504 L -105.4475425 -37.5857763 L -105.4473634 -37.5855640 L -105.4472883 -37.5855098 L -105.4471828 -37.5854719 L -105.4470027 -37.5853557 L -105.4468752 -37.5851803 L -105.4462329 -37.5848264 L -105.4460840 -37.5847244 L -105.4460411 -37.5846691 L -105.4459367 -37.5846761 L -105.4458269 -37.5846487 L -105.4454997 -37.5844168 L -105.4453574 -37.5842911 L -105.4451533 -37.5840548 L -105.4449040 -37.5839008" pathLength="1" fill="none" stroke="currentColor" vector-effect="non-scaling-stroke"/>
  <circle class="trace-start" cx="-105.4723368" cy="-37.6107819" r="0.0003064"/>
  <circle class="trace-summit-halo" cx="-105.4449000" cy="-37.5839000" r="0.0007813"/>
  <circle class="trace-summit" cx="-105.4449000" cy="-37.5839000" r="0.0004443"/>
</svg>
