<svg xmlns="http://www.w3.org/2000/svg" viewBox="0 0 2000 2500" preserveAspectRatio="none">
  <path class="trace-underlay" d="M -245.16 944.67 L -238.76 948.50 L -219.38 958.15 L -212.68 959.39 L -185.56 957.39 L -162.76 954.51 L -117.17 951.65 L -103.10 948.17 L -88.54 950.27 L -65.77 951.81 L -40.36 951.42 L -31.01 950.30 L -11.05 950.08 L -1.28 948.46 L 8.14 947.75 L 14.99 949.03 L 23.66 949.37 L 27.97 950.12 L 32.33 952.67 L 48.83 952.92 L 54.30 951.71 L 74.95 949.85 L 90.38 945.71 L 99.39 941.90 L 109.67 938.69 L 124.79 932.62 L 132.14 927.53 L 141.35 924.06 L 158.67 927.15 L 167.38 928.17 L 176.13 926.87 L 183.63 923.53 L 191.82 921.20 L 204.29 920.66 L 212.03 921.00 L 218.73 923.36 L 227.62 923.14 L 239.10 925.57 L 251.05 926.97 L 259.54 930.47 L 262.42 930.13 L 279.18 925.16 L 292.20 923.37 L 303.20 922.98 L 319.92 928.96 L 339.10 931.97 L 348.32 932.76 L 356.90 932.73 L 364.53 928.41 L 382.98 911.61 L 395.85 902.45 L 407.92 897.58 L 418.97 891.00 L 437.82 888.72 L 448.81 888.31 L 459.35 888.68 L 465.26 889.37 L 471.32 891.63 L 478.73 891.69 L 491.85 888.28 L 498.47 887.53 L 514.99 883.39 L 526.51 882.25 L 538.14 882.40 L 549.34 881.13 L 561.40 881.88 L 580.47 878.17 L 591.24 878.72 L 601.32 882.57 L 620.19 891.07 L 633.81 900.20 L 639.14 906.12 L 643.88 907.98 L 647.48 908.15 L 660.01 911.46 L 672.56 915.66 L 691.07 923.34 L 705.91 926.09 L 718.75 926.69 L 727.21 927.72 L 735.29 929.86 L 747.26 936.53 L 759.32 941.48 L 778.67 956.48 L 784.15 961.69 L 788.74 962.66 L 793.67 962.53 L 803.81 959.95 L 812.62 958.29 L 831.36 952.40 L 836.55 949.27 L 843.41 947.73 L 854.18 947.70 L 861.30 943.53 L 864.16 943.41 L 867.18 941.99 L 873.25 937.47 L 875.72 936.25 L 878.14 935.59 L 882.53 935.33 L 883.98 934.69 L 884.97 933.87 L 887.39 928.81 L 887.40 927.64 L 886.76 926.55 L 882.53 935.33 L 883.25 937.70 L 888.96 938.35 L 889.65 938.99 L 890.10 940.51 L 891.22 941.24 L 892.30 942.82 L 895.43 944.49 L 895.90 945.49 L 895.59 951.26 L 899.27 954.90 L 899.50 955.68 L 898.98 958.96 L 903.09 963.02 L 903.94 964.89 L 904.19 969.04 L 908.37 973.45 L 911.67 974.02 L 913.48 975.63 L 913.55 985.14 L 908.59 993.58 L 906.34 995.88 L 906.05 998.36 L 908.27 1005.16 L 908.94 1010.82 L 910.88 1014.06 L 911.97 1017.73 L 914.14 1020.36 L 913.78 1021.81 L 910.74 1026.96 L 911.46 1028.73 L 914.13 1030.90 L 915.48 1040.24 L 915.45 1046.25 L 911.23 1050.87 L 906.75 1062.43 L 905.25 1064.62 L 903.06 1066.50 L 901.45 1069.40 L 902.81 1073.06 L 902.18 1077.18 L 904.16 1081.15 L 903.12 1083.24 L 901.28 1085.37 L 899.04 1087.04 L 901.47 1089.28 L 903.62 1094.38 L 903.83 1096.12 L 903.28 1100.93 L 903.79 1103.86 L 905.69 1107.13 L 904.60 1109.30 L 904.43 1113.88 L 905.22 1116.02 L 905.86 1120.19 L 905.21 1124.57 L 908.36 1138.06 L 911.89 1142.13 L 916.63 1144.79 L 921.77 1149.85 L 923.95 1151.23 L 932.26 1153.47 L 944.25 1155.78 L 948.14 1154.83 L 954.58 1156.48 L 956.43 1158.38 L 961.00 1161.75 L 965.22 1166.79 L 969.48 1174.51 L 971.05 1174.31 L 972.79 1172.26 L 975.77 1163.60 L 977.46 1160.98 L 978.26 1160.45 L 979.55 1160.67 L 981.32 1162.59 L 982.52 1162.95 L 986.55 1167.39 L 988.39 1171.28 L 990.58 1174.51 L 992.84 1181.45 L 994.49 1184.19 L 995.18 1188.84 L 996.23 1189.77 L 1001.19 1187.46 L 1006.59 1184.07 L 1010.70 1183.31 L 1012.97 1181.66 L 1015.95 1177.22 L 1021.47 1173.50 L 1026.87 1168.23 L 1029.28 1166.60 L 1032.80 1168.67 L 1039.48 1167.30 L 1041.48 1165.05 L 1047.05 1152.70 L 1049.74 1147.95 L 1051.99 1145.87 L 1052.60 1141.86 L 1054.26 1136.90 L 1053.68 1135.25 L 1054.47 1133.39 L 1054.26 1130.73 L 1055.58 1128.92 L 1052.73 1125.91 L 1052.69 1124.95 L 1053.64 1123.83 L 1052.40 1122.24 L 1052.57 1119.54 L 1051.75 1117.16 L 1053.60 1114.24 L 1052.81 1113.68 L 1053.28 1112.23 L 1060.67 1106.39 L 1060.97 1104.84 L 1062.08 1103.31 L 1060.20 1102.12 L 1060.13 1101.41 L 1061.33 1099.48 L 1060.23 1097.65 L 1060.95 1091.08 L 1061.45 1089.92 L 1063.98 1088.20 L 1066.56 1084.95 L 1066.54 1082.27 L 1068.14 1079.57 L 1070.92 1077.67 L 1071.78 1073.58 L 1076.43 1071.18 L 1084.42 1065.74 L 1090.89 1063.47 L 1093.74 1060.38 L 1101.93 1056.88 L 1102.62 1056.29 L 1103.79 1052.80 L 1105.98 1049.87 L 1110.23 1046.07 L 1112.25 1045.54 L 1113.73 1044.10 L 1116.31 1043.54 L 1124.71 1038.87 L 1140.17 1031.64 L 1144.12 1028.52 L 1146.90 1027.51 L 1150.40 1023.95 L 1152.02 1021.27 L 1155.83 1019.91 L 1162.02 1015.81 L 1164.58 1014.62 L 1173.32 1007.14 L 1178.45 1004.67 L 1182.32 1002.05 L 1187.17 996.83 L 1194.32 992.38 L 1199.62 987.80 L 1202.43 982.89 L 1207.15 979.31 L 1208.24 977.70 L 1212.27 967.99 L 1214.80 964.75 L 1216.51 960.24 L 1217.42 950.45" pathLength="1" fill="none" vector-effect="non-scaling-stroke"/>
  <path class="trace-line" d="M -245.16 944.67 L -238.76 948.50 L -219.38 958.15 L -212.68 959.39 L -185.56 957.39 L -162.76 954.51 L -117.17 951.65 L -103.10 948.17 L -88.54 950.27 L -65.77 951.81 L -40.36 951.42 L -31.01 950.30 L -11.05 950.08 L -1.28 948.46 L 8.14 947.75 L 14.99 949.03 L 23.66 949.37 L 27.97 950.12 L 32.33 952.67 L 48.83 952.92 L 54.30 951.71 L 74.95 949.85 L 90.38 945.71 L 99.39 941.90 L 109.67 938.69 L 124.79 932.62 L 132.14 927.53 L 141.35 924.06 L 158.67 927.15 L 167.38 928.17 L 176.13 926.87 L 183.63 923.53 L 191.82 921.20 L 204.29 920.66 L 212.03 921.00 L 218.73 923.36 L 227.62 923.14 L 239.10 925.57 L 251.05 926.97 L 259.54 930.47 L 262.42 930.13 L 279.18 925.16 L 292.20 923.37 L 303.20 922.98 L 319.92 928.96 L 339.10 931.97 L 348.32 932.76 L 356.90 932.73 L 364.53 928.41 L 382.98 911.61 L 395.85 902.45 L 407.92 897.58 L 418.97 891.00 L 437.82 888.72 L 448.81 888.31 L 459.35 888.68 L 465.26 889.37 L 471.32 891.63 L 478.73 891.69 L 491.85 888.28 L 498.47 887.53 L 514.99 883.39 L 526.51 882.25 L 538.14 882.40 L 549.34 881.13 L 561.40 881.88 L 580.47 878.17 L 591.24 878.72 L 601.32 882.57 L 620.19 891.07 L 633.81 900.20 L 639.14 906.12 L 643.88 907.98 L 647.48 908.15 L 660.01 911.46 L 672.56 915.66 L 691.07 923.34 L 705.91 926.09 L 718.75 926.69 L 727.21 927.72 L 735.29 929.86 L 747.26 936.53 L 759.32 941.48 L 778.67 956.48 L 784.15 961.69 L 788.74 962.66 L 793.67 962.53 L 803.81 959.95 L 812.62 958.29 L 831.36 952.40 L 836.55 949.27 L 843.41 947.73 L 854.18 947.70 L 861.30 943.53 L 864.16 943.41 L 867.18 941.99 L 873.25 937.47 L 875.72 936.25 L 878.14 935.59 L 882.53 935.33 L 883.98 934.69 L 884.97 933.87 L 887.39 928.81 L 887.40 927.64 L 886.76 926.55 L 882.53 935.33 L 883.25 937.70 L 888.96 938.35 L 889.65 938.99 L 890.10 940.51 L 891.22 941.24 L 892.30 942.82 L 895.43 944.49 L 895.90 945.49 L 895.59 951.26 L 899.27 954.90 L 899.50 955.68 L 898.98 958.96 L 903.09 963.02 L 903.94 964.89 L 904.19 969.04 L 908.37 973.45 L 911.67 974.02 L 913.48 975.63 L 913.55 985.14 L 908.59 993.58 L 906.34 995.88 L 906.05 998.36 L 908.27 1005.16 L 908.94 1010.82 L 910.88 1014.06 L 911.97 1017.73 L 914.14 1020.36 L 913.78 1021.81 L 910.74 1026.96 L 911.46 1028.73 L 914.13 1030.90 L 915.48 1040.24 L 915.45 1046.25 L 911.23 1050.87 L 906.75 1062.43 L 905.25 1064.62 L 903.06 1066.50 L 901.45 1069.40 L 902.81 1073.06 L 902.18 1077.18 L 904.16 1081.15 L 903.12 1083.24 L 901.28 1085.37 L 899.04 1087.04 L 901.47 1089.28 L 903.62 1094.38 L 903.83 1096.12 L 903.28 1100.93 L 903.79 1103.86 L 905.69 1107.13 L 904.60 1109.30 L 904.43 1113.88 L 905.22 1116.02 L 905.86 1120.19 L 905.21 1124.57 L 908.36 1138.06 L 911.89 1142.13 L 916.63 1144.79 L 921.77 1149.85 L 923.95 1151.23 L 932.26 1153.47 L 944.25 1155.78 L 948.14 1154.83 L 954.58 1156.48 L 956.43 1158.38 L 961.00 1161.75 L 965.22 1166.79 L 969.48 1174.51 L 971.05 1174.31 L 972.79 1172.26 L 975.77 1163.60 L 977.46 1160.98 L 978.26 1160.45 L 979.55 1160.67 L 981.32 1162.59 L 982.52 1162.95 L 986.55 1167.39 L 988.39 1171.28 L 990.58 1174.51 L 992.84 1181.45 L 994.49 1184.19 L 995.18 1188.84 L 996.23 1189.77 L 1001.19 1187.46 L 1006.59 1184.07 L 1010.70 1183.31 L 1012.97 1181.66 L 1015.95 1177.22 L 1021.47 1173.50 L 1026.87 1168.23 L 1029.28 1166.60 L 1032.80 1168.67 L 1039.48 1167.30 L 1041.48 1165.05 L 1047.05 1152.70 L 1049.74 1147.95 L 1051.99 1145.87 L 1052.60 1141.86 L 1054.26 1136.90 L 1053.68 1135.25 L 1054.47 1133.39 L 1054.26 1130.73 L 1055.58 1128.92 L 1052.73 1125.91 L 1052.69 1124.95 L 1053.64 1123.83 L 1052.40 1122.24 L 1052.57 1119.54 L 1051.75 1117.16 L 1053.60 1114.24 L 1052.81 1113.68 L 1053.28 1112.23 L 1060.67 1106.39 L 1060.97 1104.84 L 1062.08 1103.31 L 1060.20 1102.12 L 1060.13 1101.41 L 1061.33 1099.48 L 1060.23 1097.65 L 1060.95 1091.08 L 1061.45 1089.92 L 1063.98 1088.20 L 1066.56 1084.95 L 1066.54 1082.27 L 1068.14 1079.57 L 1070.92 1077.67 L 1071.78 1073.58 L 1076.43 1071.18 L 1084.42 1065.74 L 1090.89 1063.47 L 1093.74 1060.38 L 1101.93 1056.88 L 1102.62 1056.29 L 1103.79 1052.80 L 1105.98 1049.87 L 1110.23 1046.07 L 1112.25 1045.54 L 1113.73 1044.10 L 1116.31 1043.54 L 1124.71 1038.87 L 1140.17 1031.64 L 1144.12 1028.52 L 1146.90 1027.51 L 1150.40 1023.95 L 1152.02 1021.27 L 1155.83 1019.91 L 1162.02 1015.81 L 1164.58 1014.62 L 1173.32 1007.14 L 1178.45 1004.67 L 1182.32 1002.05 L 1187.17 996.83 L 1194.32 992.38 L 1199.62 987.80 L 1202.43 982.89 L 1207.15 979.31 L 1208.24 977.70 L 1212.27 967.99 L 1214.80 964.75 L 1216.51 960.24 L 1217.42 950.45" pathLength="1" fill="none" vector-effect="non-scaling-stroke"/>
</svg>
