<svg xmlns="http://www.w3.org/2000/svg" viewBox="0 0 1600 900" preserveAspectRatio="xMidYMid slice">
  <path class="trace-line" d="M 207.15 356.04 L 212.33 360.07 L 228.04 370.22 L 233.47 371.53 L 255.45 369.42 L 273.93 366.39 L 310.88 363.38 L 322.28 359.72 L 334.08 361.93 L 352.54 363.54 L 373.13 363.13 L 380.71 361.96 L 396.89 361.73 L 404.81 360.03 L 412.44 359.27 L 418.00 360.62 L 425.02 360.98 L 428.51 361.77 L 432.05 364.46 L 445.42 364.71 L 449.86 363.44 L 466.59 361.49 L 479.10 357.13 L 486.40 353.12 L 494.73 349.75 L 506.99 343.36 L 512.94 338.00 L 520.41 334.35 L 534.45 337.60 L 541.51 338.67 L 548.60 337.30 L 554.68 333.79 L 561.32 331.34 L 571.42 330.77 L 577.69 331.13 L 583.13 333.61 L 590.33 333.38 L 599.63 335.94 L 609.32 337.41 L 613.97 340.20 L 616.20 341.09 L 618.53 340.73 L 632.12 335.51 L 642.67 333.63 L 651.59 333.22 L 665.14 339.50 L 680.69 342.67 L 688.16 343.50 L 695.11 343.47 L 701.30 338.93 L 716.25 321.25 L 726.68 311.61 L 736.47 306.48 L 745.42 299.56 L 760.70 297.16 L 769.60 296.73 L 778.15 297.12 L 782.93 297.84 L 787.85 300.23 L 793.85 300.29 L 804.49 296.70 L 809.85 295.91 L 823.24 291.56 L 832.58 290.35 L 842.00 290.51 L 851.08 289.18 L 860.86 289.97 L 876.32 286.07 L 885.04 286.64 L 893.22 290.69 L 908.50 299.63 L 919.55 309.24 L 923.86 315.47 L 927.70 317.43 L 930.63 317.61 L 940.78 321.09 L 950.96 325.51 L 965.95 333.60 L 977.98 336.49 L 988.39 337.12 L 995.25 338.20 L 1001.79 340.45 L 1011.50 347.47 L 1021.27 352.68 L 1036.96 368.46 L 1041.40 373.94 L 1045.11 374.97 L 1049.11 374.83 L 1057.33 372.11 L 1064.47 370.36 L 1079.66 364.17 L 1083.87 360.87 L 1089.42 359.25 L 1098.15 359.22 L 1103.93 354.84 L 1106.25 354.71 L 1108.69 353.22 L 1113.61 348.46 L 1115.61 347.17 L 1117.58 346.48 L 1121.13 346.21 L 1122.31 345.53 L 1123.11 344.67 L 1125.07 339.34 L 1125.08 338.12 L 1124.56 336.97 L 1121.13 346.21 L 1121.72 348.70 L 1123.09 349.15 L 1126.35 349.39 L 1126.90 350.06 L 1127.27 351.66 L 1128.18 352.43 L 1129.05 354.08 L 1131.58 355.84 L 1131.97 356.90 L 1131.72 362.97 L 1133.47 364.82 L 1134.70 366.80 L 1134.89 367.63 L 1134.47 371.07 L 1135.54 372.86 L 1137.04 373.99 L 1137.80 375.34 L 1138.49 377.31 L 1138.69 381.67 L 1142.07 386.32 L 1144.75 386.92 L 1146.22 388.62 L 1146.27 398.62 L 1142.25 407.50 L 1140.43 409.92 L 1140.19 412.53 L 1142.00 419.69 L 1142.54 425.64 L 1144.11 429.05 L 1145.00 432.91 L 1146.75 435.67 L 1146.46 437.20 L 1144.00 442.62 L 1144.58 444.49 L 1146.74 446.77 L 1146.71 448.64 L 1147.84 456.60 L 1147.81 462.92 L 1144.39 467.78 L 1140.76 479.95 L 1139.54 482.25 L 1137.77 484.23 L 1136.47 487.28 L 1137.57 491.13 L 1137.05 495.47 L 1138.66 499.64 L 1137.82 501.84 L 1136.33 504.09 L 1134.51 505.84 L 1136.48 508.20 L 1138.23 513.57 L 1138.40 515.40 L 1137.95 520.46 L 1138.37 523.54 L 1139.91 526.99 L 1139.02 529.27 L 1138.88 534.09 L 1139.53 536.34 L 1140.04 540.72 L 1139.51 545.33 L 1142.07 559.52 L 1144.93 563.81 L 1148.77 566.61 L 1152.94 571.94 L 1154.70 573.39 L 1161.44 575.74 L 1162.77 575.80 L 1171.16 578.18 L 1174.31 577.18 L 1179.53 578.91 L 1181.03 580.91 L 1184.73 584.45 L 1188.15 589.75 L 1191.60 597.88 L 1192.88 597.67 L 1194.29 595.51 L 1196.70 586.40 L 1198.07 583.64 L 1198.72 583.09 L 1199.77 583.32 L 1201.20 585.34 L 1202.17 585.72 L 1205.44 590.39 L 1206.93 594.48 L 1208.70 597.88 L 1210.53 605.19 L 1211.88 608.06 L 1212.43 612.95 L 1213.29 613.93 L 1214.50 612.90 L 1217.31 611.51 L 1221.68 607.94 L 1225.01 607.14 L 1226.85 605.40 L 1229.27 600.73 L 1233.74 596.82 L 1238.12 591.27 L 1240.07 589.55 L 1240.64 589.69 L 1240.94 590.40 L 1242.28 590.93 L 1242.93 591.73 L 1244.09 591.15 L 1246.01 591.20 L 1248.34 590.30 L 1249.96 587.92 L 1254.47 574.93 L 1256.66 569.93 L 1258.48 567.75 L 1258.97 563.52 L 1260.32 558.30 L 1259.85 556.57 L 1260.49 554.61 L 1260.32 551.81 L 1261.39 549.91 L 1259.08 546.74 L 1259.04 545.74 L 1259.82 544.56 L 1258.81 542.88 L 1258.95 540.04 L 1258.29 537.53 L 1259.79 534.46 L 1259.14 533.87 L 1259.52 532.35 L 1265.52 526.20 L 1265.76 524.57 L 1266.66 522.96 L 1265.13 521.71 L 1265.08 520.96 L 1266.05 518.93 L 1265.15 517.01 L 1265.74 510.09 L 1266.14 508.88 L 1268.20 507.07 L 1270.29 503.64 L 1270.27 500.82 L 1271.57 497.99 L 1272.49 496.83 L 1273.82 495.98 L 1274.52 491.67 L 1278.28 489.16 L 1284.77 483.43 L 1288.78 481.90 L 1290.01 481.04 L 1292.32 477.79 L 1298.96 474.11 L 1299.51 473.49 L 1300.46 469.81 L 1302.24 466.73 L 1305.68 462.73 L 1307.32 462.17 L 1308.52 460.66 L 1310.61 460.07 L 1317.42 455.16 L 1329.95 447.55 L 1333.15 444.26 L 1335.40 443.20 L 1338.24 439.46 L 1339.55 436.64 L 1342.64 435.20 L 1347.65 430.89 L 1349.74 429.64 L 1356.82 421.77 L 1360.97 419.17 L 1364.11 416.41 L 1368.04 410.92 L 1373.84 406.23 L 1378.13 401.42 L 1380.41 396.25 L 1381.74 395.28 L 1384.23 392.49 L 1385.12 390.79 L 1388.39 380.58 L 1390.44 377.16 L 1391.82 372.42 L 1392.56 362.11" pathLength="1" fill="none" vector-effect="non-scaling-stroke"/>
  <circle class="trace-start" cx="207.15" cy="356.04" r="5.47"/>
  <circle class="trace-summit-halo" cx="1391.98" cy="361.64" r="13.98"/>
  <circle class="trace-summit" cx="1391.98" cy="361.64" r="7.90"/>
</svg>
