<svg xmlns="http://www.w3.org/2000/svg" viewBox="0 0 2000 2500" preserveAspectRatio="xMidYMid slice">
  <path class="trace-line" d="M 322.75 1142.70 L 328.67 1147.30 L 346.61 1158.90 L 352.82 1160.39 L 377.93 1157.98 L 399.04 1154.52 L 441.25 1151.09 L 454.28 1146.90 L 467.75 1149.43 L 488.84 1151.27 L 512.36 1150.80 L 521.02 1149.46 L 539.50 1149.20 L 548.55 1147.25 L 557.27 1146.39 L 563.61 1147.93 L 571.64 1148.34 L 575.63 1149.25 L 579.66 1152.31 L 594.95 1152.60 L 600.01 1151.15 L 619.13 1148.92 L 633.41 1143.94 L 641.76 1139.37 L 651.27 1135.51 L 665.28 1128.22 L 672.08 1122.10 L 680.61 1117.93 L 696.64 1121.65 L 704.71 1122.87 L 712.81 1121.30 L 719.76 1117.29 L 727.34 1114.50 L 738.88 1113.85 L 746.04 1114.25 L 752.25 1117.09 L 760.49 1116.82 L 771.11 1119.74 L 782.18 1121.42 L 787.48 1124.61 L 790.03 1125.63 L 792.70 1125.22 L 808.22 1119.25 L 820.27 1117.10 L 830.46 1116.63 L 845.94 1123.81 L 863.70 1127.44 L 872.23 1128.38 L 880.18 1128.34 L 887.24 1123.16 L 904.32 1102.97 L 916.25 1091.96 L 927.42 1086.11 L 937.65 1078.20 L 955.10 1075.46 L 965.28 1074.97 L 975.04 1075.42 L 980.50 1076.24 L 986.12 1078.97 L 992.98 1079.03 L 1005.12 1074.94 L 1011.25 1074.03 L 1026.55 1069.06 L 1037.21 1067.68 L 1047.98 1067.87 L 1058.35 1066.34 L 1069.52 1067.25 L 1087.18 1062.79 L 1097.15 1063.44 L 1106.49 1068.07 L 1123.95 1078.28 L 1136.57 1089.26 L 1141.50 1096.37 L 1145.88 1098.61 L 1149.22 1098.81 L 1160.82 1102.78 L 1172.45 1107.83 L 1189.58 1117.07 L 1203.32 1120.37 L 1215.21 1121.09 L 1223.04 1122.33 L 1230.52 1124.89 L 1241.61 1132.91 L 1252.78 1138.86 L 1270.69 1156.88 L 1275.76 1163.15 L 1280.01 1164.32 L 1284.58 1164.16 L 1293.97 1161.05 L 1302.13 1159.06 L 1319.47 1151.99 L 1324.28 1148.22 L 1330.63 1146.37 L 1340.60 1146.33 L 1347.20 1141.33 L 1349.84 1141.18 L 1352.64 1139.48 L 1358.26 1134.04 L 1360.54 1132.58 L 1362.79 1131.79 L 1366.85 1131.47 L 1368.20 1130.70 L 1369.11 1129.71 L 1371.35 1123.63 L 1371.36 1122.23 L 1370.77 1120.92 L 1366.85 1131.47 L 1367.52 1134.32 L 1369.08 1134.84 L 1372.81 1135.11 L 1373.44 1135.87 L 1373.86 1137.70 L 1374.90 1138.58 L 1375.89 1140.47 L 1378.79 1142.47 L 1379.22 1143.68 L 1378.94 1150.61 L 1380.94 1152.73 L 1382.34 1154.99 L 1382.57 1155.93 L 1382.08 1159.86 L 1383.31 1161.91 L 1385.03 1163.20 L 1385.89 1164.74 L 1386.67 1166.99 L 1386.90 1171.97 L 1390.77 1177.28 L 1393.83 1177.96 L 1395.51 1179.90 L 1395.57 1191.33 L 1390.97 1201.46 L 1388.89 1204.23 L 1388.62 1207.21 L 1390.68 1215.38 L 1391.30 1222.18 L 1393.10 1226.08 L 1394.11 1230.48 L 1396.12 1233.64 L 1395.79 1235.39 L 1392.97 1241.57 L 1393.63 1243.70 L 1396.10 1246.32 L 1396.07 1248.45 L 1397.36 1257.53 L 1397.33 1264.76 L 1393.42 1270.30 L 1389.27 1284.20 L 1387.88 1286.83 L 1385.86 1289.09 L 1384.37 1292.58 L 1385.62 1296.97 L 1385.04 1301.92 L 1386.87 1306.69 L 1385.91 1309.20 L 1384.21 1311.77 L 1382.13 1313.77 L 1384.39 1316.46 L 1386.38 1322.59 L 1386.57 1324.68 L 1386.06 1330.46 L 1386.54 1333.98 L 1388.30 1337.92 L 1387.28 1340.52 L 1387.12 1346.02 L 1387.86 1348.60 L 1388.45 1353.60 L 1387.85 1358.87 L 1390.76 1375.07 L 1394.03 1379.97 L 1398.42 1383.16 L 1403.18 1389.25 L 1405.20 1390.90 L 1412.90 1393.60 L 1414.42 1393.66 L 1424.00 1396.37 L 1427.59 1395.23 L 1433.56 1397.21 L 1435.27 1399.49 L 1439.50 1403.54 L 1443.41 1409.60 L 1447.35 1418.88 L 1448.81 1418.63 L 1450.42 1416.17 L 1453.18 1405.76 L 1454.74 1402.61 L 1455.49 1401.98 L 1456.68 1402.24 L 1458.32 1404.56 L 1459.43 1404.99 L 1463.16 1410.32 L 1464.87 1414.99 L 1466.89 1418.87 L 1468.98 1427.22 L 1470.51 1430.50 L 1471.15 1436.09 L 1472.13 1437.21 L 1473.51 1436.03 L 1476.71 1434.44 L 1481.71 1430.37 L 1485.52 1429.45 L 1487.62 1427.46 L 1490.38 1422.14 L 1495.49 1417.67 L 1500.49 1411.33 L 1502.72 1409.37 L 1503.37 1409.52 L 1503.71 1410.33 L 1505.25 1410.94 L 1505.98 1411.85 L 1507.32 1411.19 L 1509.51 1411.25 L 1512.17 1410.22 L 1514.01 1407.50 L 1519.17 1392.67 L 1521.67 1386.95 L 1523.75 1384.46 L 1524.31 1379.64 L 1525.85 1373.68 L 1525.31 1371.70 L 1526.05 1369.46 L 1525.85 1366.27 L 1527.07 1364.09 L 1524.44 1360.47 L 1524.40 1359.33 L 1525.28 1357.98 L 1524.13 1356.07 L 1524.29 1352.83 L 1523.53 1349.96 L 1525.24 1346.45 L 1524.50 1345.78 L 1524.94 1344.04 L 1531.79 1337.02 L 1532.07 1335.15 L 1533.09 1333.32 L 1531.35 1331.89 L 1531.29 1331.04 L 1532.40 1328.72 L 1531.37 1326.52 L 1532.05 1318.63 L 1532.50 1317.23 L 1534.85 1315.17 L 1537.24 1311.25 L 1537.22 1308.04 L 1538.70 1304.80 L 1539.75 1303.48 L 1541.28 1302.51 L 1542.07 1297.59 L 1546.37 1294.72 L 1553.78 1288.18 L 1558.37 1286.43 L 1559.77 1285.45 L 1562.40 1281.74 L 1569.99 1277.53 L 1570.62 1276.82 L 1571.71 1272.62 L 1573.74 1269.10 L 1577.67 1264.54 L 1579.54 1263.90 L 1580.91 1262.18 L 1583.30 1261.50 L 1591.08 1255.89 L 1605.40 1247.20 L 1609.05 1243.45 L 1611.63 1242.24 L 1614.86 1237.96 L 1616.36 1234.74 L 1619.89 1233.10 L 1625.62 1228.17 L 1628.00 1226.75 L 1636.09 1217.76 L 1640.83 1214.79 L 1644.41 1211.64 L 1648.91 1205.37 L 1655.53 1200.02 L 1660.43 1194.52 L 1663.04 1188.62 L 1664.56 1187.51 L 1667.40 1184.32 L 1668.42 1182.38 L 1672.15 1170.72 L 1674.49 1166.82 L 1676.07 1161.40 L 1676.92 1149.63" pathLength="1" fill="none" vector-effect="non-scaling-stroke"/>
  <circle class="trace-start" cx="322.75" cy="1142.70" r="6.25"/>
  <circle class="trace-summit-halo" cx="1676.25" cy="1149.10" r="15.97"/>
  <circle class="trace-summit" cx="1676.25" cy="1149.10" r="9.03"/>
</svg>
