<svg xmlns="http://www.w3.org/2000/svg" viewBox="-106.2436779 -39.2298373 0.0803027 0.0172000" preserveAspectRatio="xMidYMid meet">
  <path class="trace-line" d="M -106.2369860 -39.2253450 L -106.2366933 -39.2251689 L -106.2358067 -39.2247250 L -106.2354999 -39.2246679 L -106.2342591 -39.2247601 L -106.2332161 -39.2248926 L -106.2311301 -39.2250239 L -106.2304863 -39.2251842 L -106.2298202 -39.2250874 L -106.2287783 -39.2250169 L -106.2276158 -39.2250349 L -106.2271880 -39.2250863 L -106.2262746 -39.2250961 L -106.2258274 -39.2251707 L -106.2253966 -39.2252037 L -106.2250831 -39.2251447 L -106.2246866 -39.2251291 L -106.2244895 -39.2250944 L -106.2242900 -39.2249770 L -106.2235348 -39.2249658 L -106.2232845 -39.2250215 L -106.2223398 -39.2251068 L -106.2216338 -39.2252974 L -106.2212216 -39.2254726 L -106.2207513 -39.2256201 L -106.2200592 -39.2258994 L -106.2197232 -39.2261337 L -106.2193017 -39.2262934 L -106.2185092 -39.2261510 L -106.2181106 -39.2261042 L -106.2177105 -39.2261642 L -106.2173670 -39.2263176 L -106.2169923 -39.2264247 L -106.2164218 -39.2264495 L -106.2160680 -39.2264340 L -106.2157612 -39.2263255 L -106.2153543 -39.2263357 L -106.2148294 -39.2262239 L -106.2142825 -39.2261595 L -106.2138942 -39.2259986 L -106.2137624 -39.2260142 L -106.2129953 -39.2262427 L -106.2123998 -39.2263248 L -106.2118963 -39.2263428 L -106.2111312 -39.2260680 L -106.2102536 -39.2259293 L -106.2098321 -39.2258931 L -106.2094394 -39.2258946 L -106.2090903 -39.2260930 L -106.2082463 -39.2268661 L -106.2076571 -39.2272873 L -106.2071049 -39.2275115 L -106.2065993 -39.2278142 L -106.2057370 -39.2279190 L -106.2052342 -39.2279377 L -106.2047519 -39.2279206 L -106.2044817 -39.2278891 L -106.2042040 -39.2277848 L -106.2038653 -39.2277822 L -106.2032650 -39.2279391 L -106.2029622 -39.2279738 L -106.2022060 -39.2281639 L -106.2016792 -39.2282167 L -106.2011470 -39.2282097 L -106.2006346 -39.2282680 L -106.2000826 -39.2282333 L -106.1992100 -39.2284040 L -106.1987173 -39.2283791 L -106.1982560 -39.2282020 L -106.1973930 -39.2278110 L -106.1967696 -39.2273908 L -106.1965259 -39.2271187 L -106.1963091 -39.2270327 L -106.1961440 -39.2270250 L -106.1955708 -39.2268730 L -106.1949965 -39.2266797 L -106.1941499 -39.2263262 L -106.1934708 -39.2261998 L -106.1928831 -39.2261721 L -106.1924961 -39.2261249 L -106.1921265 -39.2260266 L -106.1915786 -39.2257196 L -106.1910268 -39.2254919 L -106.1901416 -39.2248021 L -106.1898908 -39.2245623 L -106.1896811 -39.2245175 L -106.1894553 -39.2245235 L -106.1889912 -39.2246424 L -106.1885881 -39.2247188 L -106.1877311 -39.2249895 L -106.1874932 -39.2251338 L -106.1871797 -39.2252046 L -106.1866869 -39.2252060 L -106.1863608 -39.2253975 L -106.1862300 -39.2254031 L -106.1860920 -39.2254683 L -106.1858143 -39.2256765 L -106.1857012 -39.2257326 L -106.1855903 -39.2257628 L -106.1853898 -39.2257748 L -106.1853231 -39.2258043 L -106.1852781 -39.2258422 L -106.1851674 -39.2260749 L -106.1851666 -39.2261286 L -106.1851961 -39.2261788 L -106.1853898 -39.2257748 L -106.1853565 -39.2256658 L -106.1850953 -39.2256357 L -106.1850641 -39.2256063 L -106.1850433 -39.2255364 L -106.1849920 -39.2255029 L -106.1849427 -39.2254305 L -106.1847996 -39.2253536 L -106.1847781 -39.2253076 L -106.1847922 -39.2250422 L -106.1846239 -39.2248744 L -106.1846130 -39.2248385 L -106.1846370 -39.2246879 L -106.1844489 -39.2245012 L -106.1844100 -39.2244152 L -106.1843986 -39.2242243 L -106.1842075 -39.2240212 L -106.1840563 -39.2239952 L -106.1839734 -39.2239209 L -106.1839704 -39.2234835 L -106.1841974 -39.2230955 L -106.1843003 -39.2229895 L -106.1843137 -39.2228755 L -106.1842118 -39.2225625 L -106.1841813 -39.2223023 L -106.1840925 -39.2221532 L -106.1840425 -39.2219846 L -106.1839433 -39.2218636 L -106.1839597 -39.2217968 L -106.1840988 -39.2215599 L -106.1840660 -39.2214784 L -106.1839439 -39.2213784 L -106.1838819 -39.2209490 L -106.1838836 -39.2206724 L -106.1840767 -39.2204602 L -106.1842816 -39.2199282 L -106.1843503 -39.2198274 L -106.1844502 -39.2197409 L -106.1845240 -39.2196074 L -106.1844619 -39.2194391 L -106.1844908 -39.2192497 L -106.1844002 -39.2190671 L -106.1844475 -39.2189710 L -106.1845317 -39.2188728 L -106.1846343 -39.2187962 L -106.1845230 -39.2186931 L -106.1844247 -39.2184583 L -106.1844150 -39.2183783 L -106.1844401 -39.2181572 L -106.1844167 -39.2180224 L -106.1843298 -39.2178718 L -106.1843798 -39.2177720 L -106.1843878 -39.2175614 L -106.1843513 -39.2174629 L -106.1843221 -39.2172712 L -106.1843520 -39.2170696 L -106.1842078 -39.2164493 L -106.1840465 -39.2162618 L -106.1838293 -39.2161397 L -106.1835942 -39.2159067 L -106.1834947 -39.2158433 L -106.1831141 -39.2157402 L -106.1825656 -39.2156339 L -106.1823879 -39.2156776 L -106.1820932 -39.2156020 L -106.1820084 -39.2155145 L -106.1817995 -39.2153596 L -106.1816064 -39.2151277 L -106.1814115 -39.2147725 L -106.1813396 -39.2147818 L -106.1812600 -39.2148762 L -106.1811236 -39.2152744 L -106.1810462 -39.2153950 L -106.1810095 -39.2154192 L -106.1809504 -39.2154092 L -106.1808694 -39.2153207 L -106.1808148 -39.2153041 L -106.1806304 -39.2150999 L -106.1805459 -39.2149212 L -106.1804460 -39.2147726 L -106.1803427 -39.2144531 L -106.1802670 -39.2143273 L -106.1802355 -39.2141135 L -106.1801872 -39.2140707 L -106.1799605 -39.2141767 L -106.1797136 -39.2143326 L -106.1795253 -39.2143676 L -106.1794214 -39.2144437 L -106.1792850 -39.2146477 L -106.1790325 -39.2148188 L -106.1787857 -39.2150614 L -106.1786751 -39.2151365 L -106.1785141 -39.2150414 L -106.1782084 -39.2151040 L -106.1781172 -39.2152079 L -106.1778624 -39.2157758 L -106.1777390 -39.2159945 L -106.1776361 -39.2160898 L -106.1776084 -39.2162745 L -106.1775322 -39.2165026 L -106.1775590 -39.2165783 L -106.1775225 -39.2166641 L -106.1775322 -39.2167864 L -106.1774720 -39.2168696 L -106.1776022 -39.2170082 L -106.1776042 -39.2170521 L -106.1775605 -39.2171037 L -106.1776172 -39.2171769 L -106.1776095 -39.2173010 L -106.1776471 -39.2174108 L -106.1775623 -39.2175449 L -106.1775988 -39.2175707 L -106.1775773 -39.2176372 L -106.1772389 -39.2179061 L -106.1772251 -39.2179775 L -106.1771744 -39.2180476 L -106.1772604 -39.2181025 L -106.1772636 -39.2181350 L -106.1772088 -39.2182240 L -106.1772593 -39.2183081 L -106.1772260 -39.2186102 L -106.1772035 -39.2186635 L -106.1770874 -39.2187426 L -106.1769695 -39.2188925 L -106.1769705 -39.2190155 L -106.1768972 -39.2191396 L -106.1767699 -39.2192272 L -106.1767307 -39.2194155 L -106.1765181 -39.2195255 L -106.1761522 -39.2197759 L -106.1758561 -39.2198803 L -106.1757259 -39.2200223 L -106.1753510 -39.2201833 L -106.1753197 -39.2202105 L -106.1752660 -39.2203713 L -106.1751659 -39.2205060 L -106.1749714 -39.2206807 L -106.1748789 -39.2207051 L -106.1748113 -39.2207712 L -106.1746931 -39.2207970 L -106.1743090 -39.2210119 L -106.1736014 -39.2213444 L -106.1734209 -39.2214882 L -106.1732935 -39.2215344 L -106.1731336 -39.2216983 L -106.1730595 -39.2218214 L -106.1728849 -39.2218843 L -106.1726020 -39.2220729 L -106.1724845 -39.2221275 L -106.1720848 -39.2224714 L -106.1718503 -39.2225851 L -106.1716732 -39.2227059 L -106.1714512 -39.2229460 L -106.1711238 -39.2231507 L -106.1708817 -39.2233611 L -106.1707528 -39.2235870 L -106.1705371 -39.2237517 L -106.1704870 -39.2238260 L -106.1703026 -39.2242723 L -106.1701868 -39.2244216 L -106.1701089 -39.2246290 L -106.1700671 -39.2250795" pathLength="1" fill="none" stroke="currentColor" vector-effect="non-scaling-stroke"/>
  <circle class="trace-start" cx="-106.2369860" cy="-39.2253450" r="0.0007227"/>
  <circle class="trace-summit-halo" cx="-106.1701000" cy="-39.2251000" r="0.0018429"/>
  <circle class="trace-summit" cx="-106.1701000" cy="-39.2251000" r="0.0010479"/>
</svg>
