<svg xmlns="http://www.w3.org/2000/svg" viewBox="0 0 2000 2500" preserveAspectRatio="xMidYMid slice">
  <path class="trace-line" d="M 1670.22 1381.77 L 1675.04 1366.32 L 1677.08 1353.00 L 1672.47 1338.14 L 1660.95 1316.56 L 1644.99 1306.68 L 1633.40 1306.42 L 1622.80 1309.59 L 1615.74 1307.41 L 1610.89 1303.71 L 1604.28 1301.73 L 1598.66 1303.38 L 1593.54 1308.01 L 1587.59 1314.78 L 1579.50 1317.10 L 1574.00 1322.62 L 1554.67 1317.01 L 1544.92 1317.83 L 1536.83 1317.34 L 1527.74 1319.32 L 1516.84 1322.45 L 1509.24 1327.25 L 1502.31 1326.59 L 1499.99 1329.39 L 1490.74 1333.68 L 1488.27 1336.83 L 1482.97 1337.99 L 1474.22 1341.78 L 1469.92 1346.74 L 1464.64 1354.17 L 1450.93 1362.76 L 1436.39 1368.05 L 1430.45 1373.00 L 1398.70 1389.93 L 1382.91 1405.72 L 1375.02 1411.42 L 1367.68 1417.41 L 1360.06 1421.23 L 1352.99 1426.66 L 1341.29 1434.56 L 1322.24 1445.44 L 1308.24 1454.22 L 1305.77 1457.86 L 1299.65 1459.34 L 1291.89 1462.81 L 1288.09 1462.64 L 1281.32 1459.84 L 1270.58 1458.19 L 1261.00 1456.20 L 1257.03 1456.36 L 1249.93 1458.68 L 1244.32 1458.19 L 1236.88 1456.53 L 1226.47 1454.88 L 1211.61 1456.20 L 1201.53 1451.08 L 1195.25 1450.26 L 1185.68 1450.42 L 1180.72 1452.73 L 1172.12 1453.89 L 1168.16 1452.90 L 1164.52 1448.94 L 1161.55 1451.74 L 1157.75 1447.60 L 1148.83 1442.49 L 1142.73 1441.66 L 1139.42 1439.68 L 1133.63 1437.53 L 1127.53 1437.87 L 1124.72 1435.22 L 1119.27 1436.04 L 1108.86 1434.23 L 1091.35 1429.77 L 1077.31 1424.98 L 1066.90 1420.19 L 1057.82 1421.68 L 1053.85 1420.69 L 1042.95 1419.53 L 1032.04 1414.90 L 1025.43 1414.73 L 1024.44 1413.74 L 1022.14 1412.59 L 1006.11 1408.13 L 990.25 1405.32 L 985.29 1404.99 L 980.01 1403.01 L 975.88 1403.17 L 973.23 1404.82 L 969.43 1405.32 L 966.63 1404.49 L 964.81 1401.85 L 960.19 1400.04 L 951.27 1401.52 L 945.15 1399.87 L 942.68 1400.20 L 940.86 1398.22 L 935.74 1395.24 L 929.29 1393.59 L 918.56 1389.47 L 912.61 1386.48 L 906.67 1385.33 L 901.38 1382.52 L 895.10 1381.04 L 882.71 1375.42 L 879.74 1375.42 L 876.27 1372.12 L 873.80 1371.95 L 868.18 1374.10 L 865.54 1374.10 L 864.21 1371.46 L 859.09 1369.31 L 854.46 1368.49 L 846.70 1365.01 L 839.44 1364.52 L 837.61 1366.00 L 835.14 1364.85 L 830.34 1365.34 L 824.56 1366.66 L 821.75 1365.83 L 816.47 1366.66 L 809.04 1366.84 L 805.75 1365.33 L 800.12 1364.52 L 796.49 1365.01 L 795.50 1363.69 L 786.14 1376.27 L 781.01 1389.70 L 772.86 1398.16 L 759.21 1408.12 L 755.27 1397.10 L 744.41 1389.10 L 733.33 1400.38 L 719.08 1400.80 L 707.09 1398.17 L 690.62 1408.75 L 677.65 1423.05 L 664.42 1416.23 L 650.12 1411.66 L 644.20 1396.91 L 632.95 1390.31 L 631.24 1379.11 L 628.78 1369.19 L 621.98 1363.93 L 608.57 1364.10 L 592.44 1355.73 L 585.65 1336.15 L 580.53 1327.61 L 567.19 1318.75 L 558.99 1309.50 L 544.36 1297.88 L 535.80 1290.23 L 533.84 1270.64 L 531.85 1265.87 L 527.19 1264.31 L 520.19 1266.49 L 513.84 1265.43 L 509.34 1263.55 L 503.34 1256.69 L 502.53 1246.27 L 503.19 1235.36 L 511.63 1225.56 L 517.49 1216.33 L 522.56 1209.26 L 532.28 1198.08 L 538.90 1189.43 L 545.33 1183.52 L 550.31 1177.15 L 554.86 1173.88 L 559.08 1167.86 L 561.98 1159.14 L 565.60 1152.53 L 574.12 1143.70 L 575.83 1143.99 L 577.53 1142.50 L 587.16 1129.86 L 586.46 1124.64 L 586.15 1114.12 L 588.36 1110.50 L 588.96 1107.40 L 587.25 1102.78 L 583.34 1102.38 L 579.93 1098.07 L 579.93 1094.06 L 582.24 1089.95 L 584.05 1084.12 L 583.65 1081.12 L 586.36 1076.51 L 587.76 1072.60 L 587.16 1069.28 L 587.25 1065.28 L 588.36 1063.67 L 587.76 1060.86 L 586.36 1059.56 L 583.34 1059.56 L 580.54 1056.54 L 576.93 1053.74 L 573.61 1054.05 L 571.81 1051.14 L 571.62 1048.83 L 570.01 1046.13 L 560.38 1037.19 L 558.07 1038.70 L 512.50 1051.42 L 500.80 1060.13 L 500.23 1070.17 L 498.53 1080.53 L 499.35 1088.81 L 497.57 1100.09 L 494.79 1111.16 L 479.67 1137.67 L 470.48 1140.01 L 458.03 1148.27 L 449.86 1155.00 L 444.86 1167.59 L 431.46 1181.44 L 420.94 1190.10 L 414.04 1197.77 L 412.73 1214.17 L 404.98 1226.16 L 392.98 1240.84 L 376.17 1258.23 L 370.84 1266.67 L 359.33 1282.09 L 327.12 1357.92" pathLength="1" fill="none" vector-effect="non-scaling-stroke"/>
  <circle class="trace-start" cx="1670.22" cy="1381.77" r="6.25"/>
  <circle class="trace-summit-halo" cx="322.92" cy="1356.05" r="15.97"/>
  <circle class="trace-summit" cx="322.92" cy="1356.05" r="9.03"/>
</svg>
