<svg xmlns="http://www.w3.org/2000/svg" viewBox="0 0 2000 2500" preserveAspectRatio="none">
  <path class="trace-underlay" d="M 1629.49 1298.37 L 1633.46 1288.57 L 1635.14 1280.12 L 1631.34 1270.69 L 1621.86 1257.00 L 1608.71 1250.73 L 1599.16 1250.57 L 1590.43 1252.58 L 1584.62 1251.20 L 1580.62 1248.85 L 1575.18 1247.59 L 1570.55 1248.64 L 1566.33 1251.58 L 1561.43 1255.87 L 1554.77 1257.34 L 1550.24 1260.84 L 1534.32 1257.28 L 1526.29 1257.81 L 1519.63 1257.49 L 1503.16 1260.74 L 1496.91 1263.78 L 1491.19 1263.36 L 1489.29 1265.14 L 1481.67 1267.86 L 1479.63 1269.86 L 1475.27 1270.59 L 1468.06 1273.00 L 1464.52 1276.15 L 1460.17 1280.86 L 1448.88 1286.31 L 1436.91 1289.67 L 1432.01 1292.81 L 1405.86 1303.55 L 1392.86 1313.57 L 1380.31 1320.99 L 1374.04 1323.41 L 1368.21 1326.86 L 1358.58 1331.87 L 1342.89 1338.77 L 1331.36 1344.34 L 1329.32 1346.65 L 1324.29 1347.59 L 1317.89 1349.79 L 1314.76 1349.69 L 1309.19 1347.91 L 1292.45 1345.60 L 1289.18 1345.70 L 1283.33 1347.17 L 1278.71 1346.86 L 1264.01 1344.76 L 1251.77 1345.60 L 1243.47 1342.35 L 1238.30 1341.83 L 1230.41 1341.93 L 1226.33 1343.40 L 1219.25 1344.13 L 1215.99 1343.50 L 1212.99 1340.99 L 1210.55 1342.77 L 1207.42 1340.15 L 1200.07 1336.90 L 1195.04 1336.38 L 1192.32 1335.12 L 1187.55 1333.75 L 1182.52 1333.97 L 1180.21 1332.29 L 1175.72 1332.81 L 1167.15 1331.66 L 1152.72 1328.83 L 1141.16 1325.79 L 1132.59 1322.75 L 1125.11 1323.69 L 1121.84 1323.07 L 1112.86 1322.33 L 1103.88 1319.39 L 1098.44 1319.29 L 1095.72 1317.93 L 1082.52 1315.10 L 1069.46 1313.31 L 1065.38 1313.11 L 1061.02 1311.85 L 1057.63 1311.95 L 1055.44 1313.00 L 1052.31 1313.31 L 1050.01 1312.79 L 1048.51 1311.12 L 1044.70 1309.96 L 1037.35 1310.91 L 1032.32 1309.86 L 1030.28 1310.07 L 1028.78 1308.81 L 1024.57 1306.92 L 1019.25 1305.87 L 1010.41 1303.26 L 1005.51 1301.36 L 1000.62 1300.63 L 996.27 1298.85 L 991.09 1297.91 L 980.89 1294.34 L 978.44 1294.34 L 975.58 1292.25 L 973.55 1292.14 L 968.92 1293.51 L 966.74 1293.51 L 965.65 1291.83 L 961.44 1290.47 L 957.62 1289.95 L 951.23 1287.74 L 945.25 1287.43 L 943.75 1288.37 L 941.71 1287.64 L 933.00 1288.79 L 930.68 1288.26 L 926.33 1288.79 L 920.21 1288.90 L 917.51 1287.94 L 912.86 1287.43 L 909.87 1287.74 L 909.06 1286.90 L 901.35 1294.88 L 897.12 1303.41 L 890.41 1308.78 L 879.17 1315.09 L 875.93 1308.10 L 866.98 1303.02 L 857.85 1310.18 L 846.12 1310.45 L 836.25 1308.78 L 822.68 1315.49 L 812.00 1324.57 L 801.11 1320.24 L 789.33 1317.34 L 784.44 1307.98 L 775.18 1303.80 L 773.77 1296.68 L 771.75 1290.39 L 766.15 1287.05 L 755.11 1287.16 L 741.82 1281.85 L 736.22 1269.43 L 732.01 1264.01 L 721.02 1258.39 L 714.27 1252.52 L 702.22 1245.15 L 695.17 1240.29 L 693.55 1227.86 L 691.92 1224.84 L 688.08 1223.85 L 682.31 1225.23 L 677.09 1224.56 L 673.38 1223.36 L 668.44 1219.01 L 667.77 1212.40 L 668.31 1205.48 L 675.26 1199.26 L 684.27 1188.92 L 692.27 1181.82 L 697.72 1176.33 L 703.02 1172.59 L 707.12 1168.54 L 710.87 1166.47 L 714.34 1162.65 L 716.73 1157.12 L 719.71 1152.92 L 726.73 1147.32 L 728.14 1147.51 L 729.53 1146.56 L 737.47 1138.54 L 736.89 1135.23 L 736.64 1128.55 L 738.46 1126.26 L 738.95 1124.29 L 737.55 1121.36 L 734.32 1121.10 L 731.52 1118.37 L 731.52 1115.82 L 733.42 1113.21 L 734.91 1109.52 L 734.58 1107.61 L 736.81 1104.69 L 737.96 1102.21 L 737.47 1100.11 L 737.55 1097.56 L 738.46 1096.55 L 737.96 1094.76 L 736.81 1093.94 L 734.32 1093.94 L 732.02 1092.02 L 729.04 1090.24 L 726.31 1090.44 L 724.83 1088.59 L 724.67 1087.12 L 723.35 1085.41 L 715.41 1079.74 L 713.51 1080.70 L 675.98 1088.77 L 666.34 1094.29 L 665.88 1100.67 L 664.48 1107.24 L 665.15 1112.50 L 663.68 1119.65 L 661.39 1126.67 L 648.94 1143.49 L 641.37 1144.98 L 631.12 1150.22 L 624.39 1154.49 L 620.27 1162.48 L 609.24 1171.26 L 600.57 1176.76 L 594.89 1181.63 L 593.81 1192.03 L 587.42 1199.64 L 577.54 1208.95 L 563.70 1219.99 L 559.31 1225.34 L 549.83 1235.13 L 523.30 1283.24" pathLength="1" fill="none" vector-effect="non-scaling-stroke"/>
  <path class="trace-line" d="M 1629.49 1298.37 L 1633.46 1288.57 L 1635.14 1280.12 L 1631.34 1270.69 L 1621.86 1257.00 L 1608.71 1250.73 L 1599.16 1250.57 L 1590.43 1252.58 L 1584.62 1251.20 L 1580.62 1248.85 L 1575.18 1247.59 L 1570.55 1248.64 L 1566.33 1251.58 L 1561.43 1255.87 L 1554.77 1257.34 L 1550.24 1260.84 L 1534.32 1257.28 L 1526.29 1257.81 L 1519.63 1257.49 L 1503.16 1260.74 L 1496.91 1263.78 L 1491.19 1263.36 L 1489.29 1265.14 L 1481.67 1267.86 L 1479.63 1269.86 L 1475.27 1270.59 L 1468.06 1273.00 L 1464.52 1276.15 L 1460.17 1280.86 L 1448.88 1286.31 L 1436.91 1289.67 L 1432.01 1292.81 L 1405.86 1303.55 L 1392.86 1313.57 L 1380.31 1320.99 L 1374.04 1323.41 L 1368.21 1326.86 L 1358.58 1331.87 L 1342.89 1338.77 L 1331.36 1344.34 L 1329.32 1346.65 L 1324.29 1347.59 L 1317.89 1349.79 L 1314.76 1349.69 L 1309.19 1347.91 L 1292.45 1345.60 L 1289.18 1345.70 L 1283.33 1347.17 L 1278.71 1346.86 L 1264.01 1344.76 L 1251.77 1345.60 L 1243.47 1342.35 L 1238.30 1341.83 L 1230.41 1341.93 L 1226.33 1343.40 L 1219.25 1344.13 L 1215.99 1343.50 L 1212.99 1340.99 L 1210.55 1342.77 L 1207.42 1340.15 L 1200.07 1336.90 L 1195.04 1336.38 L 1192.32 1335.12 L 1187.55 1333.75 L 1182.52 1333.97 L 1180.21 1332.29 L 1175.72 1332.81 L 1167.15 1331.66 L 1152.72 1328.83 L 1141.16 1325.79 L 1132.59 1322.75 L 1125.11 1323.69 L 1121.84 1323.07 L 1112.86 1322.33 L 1103.88 1319.39 L 1098.44 1319.29 L 1095.72 1317.93 L 1082.52 1315.10 L 1069.46 1313.31 L 1065.38 1313.11 L 1061.02 1311.85 L 1057.63 1311.95 L 1055.44 1313.00 L 1052.31 1313.31 L 1050.01 1312.79 L 1048.51 1311.12 L 1044.70 1309.96 L 1037.35 1310.91 L 1032.32 1309.86 L 1030.28 1310.07 L 1028.78 1308.81 L 1024.57 1306.92 L 1019.25 1305.87 L 1010.41 1303.26 L 1005.51 1301.36 L 1000.62 1300.63 L 996.27 1298.85 L 991.09 1297.91 L 980.89 1294.34 L 978.44 1294.34 L 975.58 1292.25 L 973.55 1292.14 L 968.92 1293.51 L 966.74 1293.51 L 965.65 1291.83 L 961.44 1290.47 L 957.62 1289.95 L 951.23 1287.74 L 945.25 1287.43 L 943.75 1288.37 L 941.71 1287.64 L 933.00 1288.79 L 930.68 1288.26 L 926.33 1288.79 L 920.21 1288.90 L 917.51 1287.94 L 912.86 1287.43 L 909.87 1287.74 L 909.06 1286.90 L 901.35 1294.88 L 897.12 1303.41 L 890.41 1308.78 L 879.17 1315.09 L 875.93 1308.10 L 866.98 1303.02 L 857.85 1310.18 L 846.12 1310.45 L 836.25 1308.78 L 822.68 1315.49 L 812.00 1324.57 L 801.11 1320.24 L 789.33 1317.34 L 784.44 1307.98 L 775.18 1303.80 L 773.77 1296.68 L 771.75 1290.39 L 766.15 1287.05 L 755.11 1287.16 L 741.82 1281.85 L 736.22 1269.43 L 732.01 1264.01 L 721.02 1258.39 L 714.27 1252.52 L 702.22 1245.15 L 695.17 1240.29 L 693.55 1227.86 L 691.92 1224.84 L 688.08 1223.85 L 682.31 1225.23 L 677.09 1224.56 L 673.38 1223.36 L 668.44 1219.01 L 667.77 1212.40 L 668.31 1205.48 L 675.26 1199.26 L 684.27 1188.92 L 692.27 1181.82 L 697.72 1176.33 L 703.02 1172.59 L 707.12 1168.54 L 710.87 1166.47 L 714.34 1162.65 L 716.73 1157.12 L 719.71 1152.92 L 726.73 1147.32 L 728.14 1147.51 L 729.53 1146.56 L 737.47 1138.54 L 736.89 1135.23 L 736.64 1128.55 L 738.46 1126.26 L 738.95 1124.29 L 737.55 1121.36 L 734.32 1121.10 L 731.52 1118.37 L 731.52 1115.82 L 733.42 1113.21 L 734.91 1109.52 L 734.58 1107.61 L 736.81 1104.69 L 737.96 1102.21 L 737.47 1100.11 L 737.55 1097.56 L 738.46 1096.55 L 737.96 1094.76 L 736.81 1093.94 L 734.32 1093.94 L 732.02 1092.02 L 729.04 1090.24 L 726.31 1090.44 L 724.83 1088.59 L 724.67 1087.12 L 723.35 1085.41 L 715.41 1079.74 L 713.51 1080.70 L 675.98 1088.77 L 666.34 1094.29 L 665.88 1100.67 L 664.48 1107.24 L 665.15 1112.50 L 663.68 1119.65 L 661.39 1126.67 L 648.94 1143.49 L 641.37 1144.98 L 631.12 1150.22 L 624.39 1154.49 L 620.27 1162.48 L 609.24 1171.26 L 600.57 1176.76 L 594.89 1181.63 L 593.81 1192.03 L 587.42 1199.64 L 577.54 1208.95 L 563.70 1219.99 L 559.31 1225.34 L 549.83 1235.13 L 523.30 1283.24" pathLength="1" fill="none" vector-effect="non-scaling-stroke"/>
</svg>
