<svg xmlns="http://www.w3.org/2000/svg" viewBox="0 0 1600 900" preserveAspectRatio="xMidYMid slice">
  <path class="trace-line" d="M 1386.70 565.39 L 1390.92 551.86 L 1392.71 540.20 L 1388.67 527.18 L 1378.58 508.28 L 1364.61 499.64 L 1354.46 499.41 L 1345.19 502.18 L 1339.01 500.28 L 1334.76 497.04 L 1328.98 495.30 L 1324.06 496.75 L 1319.57 500.80 L 1314.36 506.73 L 1307.28 508.76 L 1302.47 513.59 L 1285.54 508.68 L 1277.01 509.40 L 1269.93 508.97 L 1261.98 510.70 L 1252.43 513.44 L 1245.78 517.64 L 1239.71 517.07 L 1237.68 519.52 L 1229.58 523.28 L 1227.42 526.04 L 1222.79 527.05 L 1215.12 530.37 L 1211.36 534.71 L 1206.74 541.22 L 1194.73 548.74 L 1182.01 553.37 L 1176.80 557.71 L 1149.01 572.53 L 1135.19 586.36 L 1128.29 591.35 L 1121.86 596.60 L 1115.19 599.94 L 1109.00 604.70 L 1098.76 611.61 L 1082.08 621.14 L 1069.83 628.83 L 1067.66 632.02 L 1062.31 633.32 L 1055.51 636.35 L 1052.19 636.21 L 1046.26 633.75 L 1036.86 632.30 L 1028.47 630.56 L 1025.00 630.70 L 1018.78 632.74 L 1013.87 632.30 L 1007.36 630.85 L 998.25 629.40 L 985.24 630.56 L 976.41 626.08 L 970.92 625.36 L 962.54 625.50 L 958.20 627.53 L 950.67 628.54 L 947.21 627.67 L 944.02 624.20 L 941.42 626.66 L 938.10 623.04 L 930.28 618.56 L 924.94 617.84 L 922.05 616.10 L 916.98 614.21 L 911.64 614.51 L 909.18 612.19 L 904.40 612.91 L 895.29 611.32 L 879.96 607.42 L 867.67 603.22 L 858.56 599.03 L 850.61 600.33 L 847.14 599.47 L 837.59 598.45 L 828.05 594.40 L 822.26 594.25 L 821.40 593.39 L 819.38 592.38 L 805.35 588.47 L 791.47 586.01 L 787.13 585.72 L 782.50 583.98 L 778.89 584.13 L 776.57 585.57 L 773.24 586.01 L 770.79 585.28 L 769.20 582.97 L 765.15 581.38 L 757.34 582.68 L 751.99 581.24 L 749.82 581.53 L 748.23 579.79 L 743.75 577.18 L 738.10 575.74 L 728.71 572.13 L 723.50 569.52 L 718.30 568.50 L 713.67 566.05 L 708.17 564.75 L 697.33 559.82 L 694.73 559.82 L 691.69 556.93 L 689.52 556.79 L 684.60 558.67 L 682.29 558.67 L 681.13 556.36 L 676.65 554.48 L 672.60 553.76 L 665.80 550.71 L 659.44 550.28 L 657.85 551.58 L 655.69 550.57 L 651.49 551.00 L 646.43 552.16 L 643.97 551.43 L 639.34 552.16 L 632.84 552.31 L 629.96 550.99 L 625.03 550.28 L 621.85 550.71 L 620.98 549.56 L 612.79 560.57 L 608.30 572.33 L 601.16 579.74 L 589.22 588.46 L 585.77 578.81 L 576.26 571.81 L 566.56 581.68 L 554.09 582.05 L 543.60 579.75 L 529.17 589.01 L 517.82 601.54 L 506.24 595.56 L 493.73 591.56 L 488.54 578.65 L 478.69 572.87 L 477.19 563.05 L 475.04 554.38 L 469.09 549.76 L 457.35 549.92 L 443.23 542.59 L 437.28 525.44 L 432.81 517.97 L 421.13 510.20 L 413.95 502.10 L 401.14 491.93 L 393.65 485.23 L 391.93 468.08 L 390.19 463.90 L 386.11 462.53 L 379.98 464.44 L 374.43 463.51 L 370.49 461.86 L 365.24 455.86 L 364.52 446.73 L 365.10 437.18 L 372.49 428.60 L 377.62 420.52 L 382.06 414.33 L 390.57 404.53 L 396.36 396.96 L 401.99 391.79 L 406.35 386.20 L 410.33 383.35 L 414.03 378.07 L 416.57 370.44 L 419.73 364.65 L 427.19 356.92 L 428.69 357.17 L 430.17 355.86 L 438.61 344.80 L 438.00 340.23 L 437.73 331.01 L 439.66 327.84 L 440.18 325.13 L 438.69 321.08 L 435.27 320.73 L 432.28 316.95 L 432.28 313.45 L 434.30 309.84 L 435.89 304.75 L 435.53 302.11 L 437.91 298.08 L 439.13 294.65 L 438.61 291.75 L 438.69 288.24 L 439.66 286.84 L 439.13 284.37 L 437.91 283.24 L 435.27 283.24 L 432.81 280.60 L 429.65 278.14 L 426.75 278.41 L 425.17 275.86 L 425.00 273.84 L 423.60 271.47 L 415.16 263.65 L 413.15 264.97 L 373.25 276.11 L 363.01 283.73 L 362.51 292.53 L 361.03 301.60 L 361.74 308.85 L 360.18 318.73 L 357.75 328.42 L 344.51 351.63 L 336.47 353.68 L 325.57 360.92 L 318.42 366.81 L 314.04 377.83 L 302.31 389.96 L 293.10 397.55 L 287.07 404.27 L 285.91 418.62 L 279.13 429.13 L 268.62 441.98 L 253.91 457.21 L 249.25 464.60 L 239.17 478.10 L 210.97 544.50" pathLength="1" fill="none" vector-effect="non-scaling-stroke"/>
  <circle class="trace-start" cx="1386.70" cy="565.39" r="5.47"/>
  <circle class="trace-summit-halo" cx="207.29" cy="542.87" r="13.98"/>
  <circle class="trace-summit" cx="207.29" cy="542.87" r="7.90"/>
</svg>
