<svg xmlns="http://www.w3.org/2000/svg" viewBox="-107.6241506 -37.6248666 0.0174078 0.0043336" preserveAspectRatio="xMidYMid meet">
  <path class="trace-line" d="M -107.6082670 -37.6215818 L -107.6082154 -37.6217129 L -107.6081935 -37.6218259 L -107.6082429 -37.6219520 L -107.6083663 -37.6221351 L -107.6085373 -37.6222189 L -107.6086615 -37.6222211 L -107.6087750 -37.6221942 L -107.6088506 -37.6222127 L -107.6089026 -37.6222441 L -107.6089734 -37.6222609 L -107.6090336 -37.6222469 L -107.6090885 -37.6222076 L -107.6091522 -37.6221502 L -107.6092389 -37.6221305 L -107.6092978 -37.6220837 L -107.6095049 -37.6221313 L -107.6096093 -37.6221243 L -107.6096960 -37.6221285 L -107.6099101 -37.6220851 L -107.6099915 -37.6220444 L -107.6100658 -37.6220500 L -107.6100906 -37.6220262 L -107.6101897 -37.6219898 L -107.6102162 -37.6219631 L -107.6102729 -37.6219533 L -107.6103667 -37.6219211 L -107.6104127 -37.6218790 L -107.6104693 -37.6218160 L -107.6106162 -37.6217431 L -107.6107719 -37.6216982 L -107.6108356 -37.6216562 L -107.6111757 -37.6215126 L -107.6113448 -37.6213786 L -107.6115080 -37.6212794 L -107.6115896 -37.6212470 L -107.6116654 -37.6212009 L -107.6117907 -37.6211339 L -107.6119948 -37.6210416 L -107.6121447 -37.6209671 L -107.6121712 -37.6209362 L -107.6122367 -37.6209236 L -107.6123199 -37.6208942 L -107.6123606 -37.6208956 L -107.6124331 -37.6209194 L -107.6126508 -37.6209503 L -107.6126933 -37.6209489 L -107.6127694 -37.6209292 L -107.6128295 -37.6209334 L -107.6130207 -37.6209615 L -107.6131799 -37.6209503 L -107.6132879 -37.6209937 L -107.6133551 -37.6210007 L -107.6134577 -37.6209993 L -107.6135108 -37.6209797 L -107.6136029 -37.6209699 L -107.6136453 -37.6209783 L -107.6136843 -37.6210119 L -107.6137161 -37.6209881 L -107.6137568 -37.6210232 L -107.6138524 -37.6210666 L -107.6139178 -37.6210736 L -107.6139532 -37.6210904 L -107.6140152 -37.6211087 L -107.6140806 -37.6211058 L -107.6141107 -37.6211283 L -107.6141691 -37.6211213 L -107.6142806 -37.6211367 L -107.6144682 -37.6211745 L -107.6146186 -37.6212152 L -107.6147301 -37.6212558 L -107.6148274 -37.6212432 L -107.6148699 -37.6212516 L -107.6149867 -37.6212614 L -107.6151035 -37.6213007 L -107.6151743 -37.6213021 L -107.6152096 -37.6213203 L -107.6153813 -37.6213581 L -107.6155512 -37.6213820 L -107.6156043 -37.6213848 L -107.6156609 -37.6214016 L -107.6157051 -37.6214002 L -107.6157335 -37.6213862 L -107.6157742 -37.6213820 L -107.6158042 -37.6213890 L -107.6158237 -37.6214114 L -107.6158732 -37.6214268 L -107.6159688 -37.6214142 L -107.6160343 -37.6214282 L -107.6160608 -37.6214254 L -107.6160803 -37.6214422 L -107.6161351 -37.6214675 L -107.6162042 -37.6214815 L -107.6163192 -37.6215165 L -107.6163829 -37.6215418 L -107.6164466 -37.6215516 L -107.6165032 -37.6215754 L -107.6165705 -37.6215880 L -107.6167032 -37.6216357 L -107.6167350 -37.6216357 L -107.6167722 -37.6216637 L -107.6167987 -37.6216651 L -107.6168589 -37.6216469 L -107.6168872 -37.6216469 L -107.6169014 -37.6216693 L -107.6169562 -37.6216875 L -107.6170058 -37.6216945 L -107.6170890 -37.6217240 L -107.6171668 -37.6217282 L -107.6171863 -37.6217156 L -107.6172128 -37.6217254 L -107.6173261 -37.6217100 L -107.6173562 -37.6217170 L -107.6174128 -37.6217100 L -107.6174924 -37.6217085 L -107.6175276 -37.6217213 L -107.6175880 -37.6217282 L -107.6176269 -37.6217240 L -107.6176375 -37.6217352 L -107.6177377 -37.6216285 L -107.6177927 -37.6215145 L -107.6178800 -37.6214427 L -107.6180262 -37.6213582 L -107.6180684 -37.6214517 L -107.6181848 -37.6215196 L -107.6183035 -37.6214239 L -107.6184561 -37.6214203 L -107.6185845 -37.6214426 L -107.6187610 -37.6213529 L -107.6188999 -37.6212315 L -107.6190416 -37.6212894 L -107.6191948 -37.6213282 L -107.6192583 -37.6214533 L -107.6193788 -37.6215093 L -107.6193971 -37.6216044 L -107.6194234 -37.6216885 L -107.6194963 -37.6217332 L -107.6196399 -37.6217317 L -107.6198127 -37.6218027 L -107.6198855 -37.6219689 L -107.6199403 -37.6220413 L -107.6200832 -37.6221165 L -107.6201711 -37.6221950 L -107.6203278 -37.6222936 L -107.6204195 -37.6223585 L -107.6204405 -37.6225247 L -107.6204618 -37.6225652 L -107.6205117 -37.6225784 L -107.6205867 -37.6225599 L -107.6206547 -37.6225689 L -107.6207029 -37.6225849 L -107.6207672 -37.6226431 L -107.6207759 -37.6227315 L -107.6207688 -37.6228241 L -107.6206784 -37.6229072 L -107.6205613 -37.6230455 L -107.6204572 -37.6231404 L -107.6203863 -37.6232138 L -107.6203174 -37.6232639 L -107.6202640 -37.6233180 L -107.6202153 -37.6233457 L -107.6201701 -37.6233968 L -107.6201390 -37.6234708 L -107.6201003 -37.6235269 L -107.6200090 -37.6236018 L -107.6199907 -37.6235993 L -107.6199725 -37.6236120 L -107.6198693 -37.6237192 L -107.6198768 -37.6237635 L -107.6198801 -37.6238528 L -107.6198564 -37.6238835 L -107.6198500 -37.6239098 L -107.6198683 -37.6239490 L -107.6199102 -37.6239524 L -107.6199467 -37.6239890 L -107.6199467 -37.6240230 L -107.6199220 -37.6240579 L -107.6199026 -37.6241073 L -107.6199069 -37.6241328 L -107.6198779 -37.6241719 L -107.6198629 -37.6242051 L -107.6198693 -37.6242332 L -107.6198683 -37.6242672 L -107.6198564 -37.6242808 L -107.6198629 -37.6243047 L -107.6198779 -37.6243157 L -107.6199102 -37.6243157 L -107.6199402 -37.6243413 L -107.6199789 -37.6243651 L -107.6200144 -37.6243625 L -107.6200337 -37.6243872 L -107.6200358 -37.6244068 L -107.6200530 -37.6244297 L -107.6201562 -37.6245055 L -107.6201809 -37.6244927 L -107.6206691 -37.6243848 L -107.6207944 -37.6243109 L -107.6208005 -37.6242257 L -107.6208187 -37.6241378 L -107.6208100 -37.6240675 L -107.6208290 -37.6239718 L -107.6208588 -37.6238779 L -107.6210208 -37.6236530 L -107.6211192 -37.6236331 L -107.6212526 -37.6235630 L -107.6213401 -37.6235059 L -107.6213937 -37.6233991 L -107.6215372 -37.6232816 L -107.6216499 -37.6232081 L -107.6217238 -37.6231430 L -107.6217379 -37.6230039 L -107.6218209 -37.6229021 L -107.6219495 -37.6227776 L -107.6221295 -37.6226300 L -107.6221866 -37.6225584 L -107.6223099 -37.6224276 L -107.6226550 -37.6217842" pathLength="1" fill="none" stroke="currentColor" vector-effect="non-scaling-stroke"/>
  <circle class="trace-start" cx="-107.6082670" cy="-37.6215818" r="0.0001567"/>
  <circle class="trace-summit-halo" cx="-107.6227000" cy="-37.6218000" r="0.0003995"/>
  <circle class="trace-summit" cx="-107.6227000" cy="-37.6218000" r="0.0002272"/>
</svg>
