<svg xmlns="http://www.w3.org/2000/svg" viewBox="0 0 2000 2500" preserveAspectRatio="xMidYMid slice">
  <path class="trace-line" d="M 322.92 767.73 L 335.14 775.41 L 356.80 783.09 L 369.42 784.68 L 397.58 789.71 L 407.73 794.97 L 422.83 810.58 L 447.52 816.91 L 460.20 817.07 L 470.80 822.36 L 479.11 825.82 L 490.52 827.53 L 499.77 827.71 L 522.96 840.10 L 531.25 843.16 L 542.15 842.34 L 551.83 846.66 L 560.72 849.27 L 585.85 860.46 L 625.46 904.65 L 625.76 911.49 L 639.77 966.82 L 641.59 1029.66 L 654.95 1117.61 L 694.54 1147.08 L 855.16 1217.84 L 930.41 1269.54 L 974.65 1309.26 L 973.40 1316.94 L 964.01 1333.47 L 958.11 1348.26 L 953.31 1378.89 L 959.59 1411.27 L 1001.92 1481.58 L 1032.84 1517.69 L 1102.62 1568.93 L 1112.76 1570.97 L 1125.24 1571.38 L 1145.61 1568.70 L 1158.28 1566.19 L 1161.73 1563.91 L 1168.02 1564.06 L 1188.50 1560.94 L 1198.95 1557.60 L 1216.15 1555.44 L 1239.37 1549.24 L 1266.40 1546.48 L 1275.66 1546.56 L 1297.51 1541.05 L 1309.87 1544.12 L 1340.53 1553.67 L 1362.31 1558.21 L 1381.38 1569.37 L 1400.79 1577.25 L 1423.58 1582.65 L 1434.93 1590.15 L 1446.78 1609.52 L 1465.50 1620.18 L 1489.42 1638.23 L 1495.01 1641.68 L 1524.14 1653.55 L 1531.47 1657.54 L 1545.24 1662.06 L 1569.83 1672.68 L 1585.38 1685.25 L 1600.39 1692.38 L 1603.50 1694.81 L 1613.16 1696.94 L 1675.84 1729.45" pathLength="1" fill="none" vector-effect="non-scaling-stroke"/>
  <circle class="trace-start" cx="322.92" cy="767.73" r="6.25"/>
  <circle class="trace-summit-halo" cx="1677.08" cy="1732.27" r="15.97"/>
  <circle class="trace-summit" cx="1677.08" cy="1732.27" r="9.03"/>
</svg>
