<svg xmlns="http://www.w3.org/2000/svg" viewBox="0 0 1600 900" preserveAspectRatio="xMidYMid slice">
  <path class="trace-line" d="M 300.00 94.07 L 309.02 99.74 L 325.02 105.40 L 334.34 106.57 L 355.13 110.29 L 362.63 114.17 L 373.78 125.69 L 392.01 130.36 L 401.38 130.48 L 409.21 134.39 L 415.34 136.94 L 423.77 138.20 L 430.60 138.34 L 447.72 147.48 L 453.85 149.74 L 461.89 149.13 L 469.04 152.32 L 475.61 154.24 L 494.16 162.50 L 523.42 195.11 L 523.64 200.16 L 533.98 241.00 L 535.33 287.38 L 545.19 352.29 L 574.43 374.04 L 693.04 426.27 L 748.61 464.42 L 781.28 493.73 L 780.35 499.40 L 773.43 511.61 L 769.06 522.52 L 765.52 545.12 L 770.16 569.03 L 801.42 620.91 L 824.25 647.57 L 875.78 685.39 L 883.27 686.89 L 892.49 687.19 L 907.53 685.21 L 916.88 683.36 L 919.43 681.68 L 924.08 681.79 L 939.20 679.48 L 946.91 677.02 L 959.62 675.42 L 976.76 670.85 L 996.73 668.81 L 1003.56 668.87 L 1019.70 664.80 L 1028.83 667.07 L 1051.47 674.12 L 1067.55 677.47 L 1081.63 685.71 L 1095.97 691.52 L 1112.80 695.51 L 1121.18 701.05 L 1129.93 715.34 L 1143.75 723.20 L 1161.42 736.53 L 1165.55 739.08 L 1187.06 747.83 L 1192.47 750.78 L 1202.64 754.12 L 1220.80 761.96 L 1232.28 771.24 L 1243.37 776.50 L 1245.66 778.29 L 1252.80 779.86 L 1299.08 803.85" pathLength="1" fill="none" vector-effect="non-scaling-stroke"/>
  <circle class="trace-start" cx="300.00" cy="94.07" r="4.62"/>
  <circle class="trace-summit-halo" cx="1300.00" cy="805.93" r="11.79"/>
  <circle class="trace-summit" cx="1300.00" cy="805.93" r="6.67"/>
</svg>
