<svg xmlns="http://www.w3.org/2000/svg" viewBox="0 0 2000 2500" preserveAspectRatio="none">
  <path class="trace-underlay" d="M 462.84 927.14 L 472.88 932.00 L 490.68 936.86 L 501.05 937.86 L 524.19 941.05 L 532.53 944.38 L 544.94 954.26 L 565.22 958.26 L 575.64 958.36 L 584.35 961.71 L 591.18 963.90 L 600.55 964.98 L 608.15 965.10 L 627.21 972.94 L 634.02 974.88 L 642.97 974.36 L 650.93 977.09 L 658.23 978.74 L 678.88 985.82 L 711.43 1013.79 L 711.67 1018.12 L 723.18 1053.14 L 724.68 1092.91 L 735.66 1148.57 L 768.18 1167.22 L 900.15 1212.01 L 961.99 1244.73 L 998.34 1269.87 L 997.30 1274.73 L 989.59 1285.19 L 984.74 1294.55 L 980.80 1313.93 L 985.96 1334.43 L 1020.74 1378.93 L 1046.14 1401.78 L 1103.48 1434.21 L 1111.81 1435.50 L 1122.07 1435.76 L 1138.80 1434.06 L 1149.21 1432.48 L 1152.05 1431.03 L 1157.21 1431.13 L 1174.04 1429.15 L 1182.62 1427.04 L 1196.76 1425.67 L 1215.83 1421.75 L 1238.05 1420.00 L 1245.65 1420.05 L 1263.61 1416.56 L 1273.77 1418.51 L 1298.95 1424.55 L 1316.85 1427.43 L 1332.51 1434.49 L 1348.47 1439.48 L 1367.19 1442.90 L 1376.51 1447.64 L 1386.26 1459.90 L 1401.63 1466.64 L 1421.29 1478.07 L 1425.88 1480.26 L 1449.81 1487.76 L 1455.84 1490.29 L 1467.15 1493.15 L 1487.35 1499.87 L 1500.13 1507.83 L 1512.47 1512.34 L 1515.02 1513.88 L 1522.96 1515.23 L 1574.46 1535.80" pathLength="1" fill="none" vector-effect="non-scaling-stroke"/>
  <path class="trace-line" d="M 462.84 927.14 L 472.88 932.00 L 490.68 936.86 L 501.05 937.86 L 524.19 941.05 L 532.53 944.38 L 544.94 954.26 L 565.22 958.26 L 575.64 958.36 L 584.35 961.71 L 591.18 963.90 L 600.55 964.98 L 608.15 965.10 L 627.21 972.94 L 634.02 974.88 L 642.97 974.36 L 650.93 977.09 L 658.23 978.74 L 678.88 985.82 L 711.43 1013.79 L 711.67 1018.12 L 723.18 1053.14 L 724.68 1092.91 L 735.66 1148.57 L 768.18 1167.22 L 900.15 1212.01 L 961.99 1244.73 L 998.34 1269.87 L 997.30 1274.73 L 989.59 1285.19 L 984.74 1294.55 L 980.80 1313.93 L 985.96 1334.43 L 1020.74 1378.93 L 1046.14 1401.78 L 1103.48 1434.21 L 1111.81 1435.50 L 1122.07 1435.76 L 1138.80 1434.06 L 1149.21 1432.48 L 1152.05 1431.03 L 1157.21 1431.13 L 1174.04 1429.15 L 1182.62 1427.04 L 1196.76 1425.67 L 1215.83 1421.75 L 1238.05 1420.00 L 1245.65 1420.05 L 1263.61 1416.56 L 1273.77 1418.51 L 1298.95 1424.55 L 1316.85 1427.43 L 1332.51 1434.49 L 1348.47 1439.48 L 1367.19 1442.90 L 1376.51 1447.64 L 1386.26 1459.90 L 1401.63 1466.64 L 1421.29 1478.07 L 1425.88 1480.26 L 1449.81 1487.76 L 1455.84 1490.29 L 1467.15 1493.15 L 1487.35 1499.87 L 1500.13 1507.83 L 1512.47 1512.34 L 1515.02 1513.88 L 1522.96 1515.23 L 1574.46 1535.80" pathLength="1" fill="none" vector-effect="non-scaling-stroke"/>
</svg>
