<svg xmlns="http://www.w3.org/2000/svg" viewBox="-105.2186163 -37.1409373 0.0357996 0.0203316" preserveAspectRatio="xMidYMid meet">
  <path class="trace-line" d="M -105.2156330 -37.1392430 L -105.2153638 -37.1391081 L -105.2148866 -37.1389732 L -105.2146086 -37.1389454 L -105.2139882 -37.1388570 L -105.2137646 -37.1387645 L -105.2134318 -37.1384903 L -105.2128880 -37.1383792 L -105.2126086 -37.1383764 L -105.2123750 -37.1382834 L -105.2121920 -37.1382226 L -105.2119407 -37.1381926 L -105.2117369 -37.1381894 L -105.2112260 -37.1379718 L -105.2110433 -37.1379180 L -105.2108032 -37.1379324 L -105.2105900 -37.1378565 L -105.2103941 -37.1378108 L -105.2098405 -37.1376142 L -105.2089678 -37.1368380 L -105.2089612 -37.1367178 L -105.2086526 -37.1357459 L -105.2086125 -37.1346420 L -105.2083181 -37.1330971 L -105.2074460 -37.1325794 L -105.2039075 -37.1313364 L -105.2022495 -37.1304282 L -105.2012749 -37.1297306 L -105.2013026 -37.1295957 L -105.2015093 -37.1293052 L -105.2016394 -37.1290455 L -105.2017450 -37.1285075 L -105.2016067 -37.1279386 L -105.2006741 -37.1267036 L -105.1999930 -37.1260692 L -105.1984557 -37.1251691 L -105.1982324 -37.1251334 L -105.1979573 -37.1251261 L -105.1975087 -37.1251733 L -105.1972296 -37.1252173 L -105.1971534 -37.1252574 L -105.1970149 -37.1252548 L -105.1965638 -37.1253096 L -105.1963336 -37.1253682 L -105.1959546 -37.1254062 L -105.1954431 -37.1255151 L -105.1948475 -37.1255636 L -105.1946436 -37.1255621 L -105.1941622 -37.1256590 L -105.1938898 -37.1256050 L -105.1932144 -37.1254372 L -105.1927347 -37.1253575 L -105.1923146 -37.1251615 L -105.1918868 -37.1250230 L -105.1913847 -37.1249281 L -105.1911348 -37.1247964 L -105.1908736 -37.1244561 L -105.1904614 -37.1242690 L -105.1899343 -37.1239518 L -105.1898111 -37.1238912 L -105.1891694 -37.1236828 L -105.1890079 -37.1236126 L -105.1887046 -37.1235332 L -105.1881629 -37.1233467 L -105.1878202 -37.1231258 L -105.1874895 -37.1230006 L -105.1874210 -37.1229580 L -105.1872082 -37.1229206 L -105.1858274 -37.1223495" pathLength="1" fill="none" stroke="currentColor" vector-effect="non-scaling-stroke"/>
  <circle class="trace-start" cx="-105.2156330" cy="-37.1392430" r="0.0003222"/>
  <circle class="trace-summit-halo" cx="-105.1858000" cy="-37.1223000" r="0.0008216"/>
  <circle class="trace-summit" cx="-105.1858000" cy="-37.1223000" r="0.0004672"/>
</svg>
