<svg xmlns="http://www.w3.org/2000/svg" viewBox="0 0 2000 2500" preserveAspectRatio="xMidYMid slice">
  <path class="trace-line" d="M 1185.12 1609.53 L 1192.46 1608.11 L 1200.83 1608.49 L 1214.93 1626.41 L 1217.54 1625.58 L 1236.37 1600.20 L 1244.15 1593.24 L 1262.01 1589.99 L 1270.62 1591.65 L 1277.94 1586.53 L 1288.40 1582.98 L 1292.02 1579.86 L 1294.02 1568.95 L 1314.41 1526.39 L 1318.18 1507.03 L 1326.82 1493.80 L 1329.98 1481.20 L 1330.27 1472.53 L 1339.42 1458.62 L 1339.16 1440.56 L 1334.63 1429.40 L 1339.64 1401.73 L 1357.15 1365.43 L 1362.55 1360.17 L 1388.57 1350.63 L 1432.40 1322.76 L 1470.82 1310.30 L 1479.81 1303.32 L 1495.80 1295.68 L 1499.67 1293.06 L 1506.65 1283.66 L 1514.91 1277.35 L 1522.41 1268.35 L 1536.79 1260.79 L 1544.16 1253.04 L 1550.57 1249.06 L 1577.33 1235.98 L 1618.95 1207.73 L 1636.98 1190.31 L 1647.60 1183.94 L 1666.41 1168.12 L 1677.08 1153.30 L 1672.89 1151.28 L 1670.72 1143.88 L 1664.63 1135.85 L 1645.65 1122.99 L 1643.20 1121.57 L 1636.69 1121.62 L 1606.48 1108.65 L 1567.70 1098.92 L 1554.20 1099.48 L 1533.81 1094.78 L 1495.21 1089.13 L 1477.08 1081.85 L 1460.40 1077.80 L 1453.38 1078.50 L 1445.51 1077.21 L 1433.46 1073.82 L 1415.49 1071.23 L 1403.71 1066.35 L 1382.90 1064.09 L 1379.45 1060.77 L 1374.28 1059.63 L 1369.50 1048.40 L 1365.12 1044.46 L 1351.94 1040.88 L 1346.04 1037.49 L 1337.82 1021.99 L 1334.93 1010.64 L 1321.94 995.95 L 1319.24 985.41 L 1312.28 978.45 L 1311.76 972.76 L 1300.87 960.52 L 1298.31 952.41 L 1279.20 917.21 L 1273.93 911.44 L 1262.64 893.37 L 1248.71 880.26 L 1239.42 875.50 L 1232.64 868.64 L 1225.24 864.97 L 1212.24 852.08 L 1199.37 844.11 L 1183.71 830.57 L 1184.63 822.95 L 1163.92 791.53 L 1154.54 723.23 L 1146.00 706.48 L 1143.25 692.90 L 1134.68 685.68 L 1137.11 672.76 L 1133.23 658.64 L 1128.53 649.98 L 1125.17 635.64 L 1121.72 631.44 L 1113.87 615.91 L 1111.27 613.56 L 1080.86 605.37 L 1074.24 606.06 L 1069.10 609.45 L 1065.74 615.72 L 1065.10 628.52 L 1061.90 637.04 L 1053.78 642.99 L 1053.03 647.78 L 1044.16 664.37 L 1043.52 670.81 L 1041.99 673.23 L 1034.47 680.28 L 1029.23 682.96 L 1007.07 678.91 L 1000.56 679.64 L 982.95 678.20 L 974.12 674.32 L 965.89 665.68 L 956.49 659.23 L 946.35 658.19 L 931.86 652.68 L 919.26 651.00 L 896.49 645.03 L 895.74 647.09 L 903.81 658.40 L 906.97 669.27 L 929.11 705.23 L 929.99 711.00 L 925.03 714.37 L 909.30 712.77 L 895.74 718.92 L 869.78 724.95 L 864.36 724.66 L 850.57 730.47 L 849.70 732.50 L 890.30 755.61 L 906.95 767.61 L 924.71 772.44 L 912.73 775.73 L 888.17 775.45 L 863.45 782.27 L 817.00 779.44 L 807.37 781.14 L 799.06 785.66 L 795.75 790.72 L 788.21 796.33 L 787.39 798.31 L 793.05 806.10 L 842.64 840.80 L 861.10 851.27 L 860.45 853.44 L 851.18 859.06 L 838.90 879.25 L 826.86 886.03 L 825.30 889.72 L 825.01 896.73 L 827.30 907.17 L 827.25 911.59 L 823.16 924.74 L 823.66 936.06 L 826.79 945.21 L 824.68 963.91 L 814.88 970.18 L 807.76 971.92 L 791.13 980.18 L 777.89 983.44 L 772.46 1009.15 L 760.57 1018.23 L 759.29 1020.90 L 758.56 1032.13 L 756.29 1040.98 L 751.02 1059.69 L 748.03 1064.69 L 738.44 1072.69 L 737.00 1077.43 L 731.53 1082.47 L 720.33 1084.87 L 712.90 1094.90 L 708.12 1098.27 L 706.07 1104.56 L 699.82 1114.08 L 698.96 1123.95 L 689.78 1140.64 L 684.98 1160.22 L 683.95 1161.58 L 676.41 1163.53 L 669.36 1176.69 L 668.01 1184.27 L 664.19 1186.44 L 653.49 1183.84 L 650.13 1185.39 L 645.45 1192.92 L 637.65 1200.10 L 628.90 1214.38 L 613.67 1229.93 L 600.38 1253.22 L 599.93 1258.16 L 596.34 1263.72 L 587.92 1269.47 L 570.30 1299.43 L 552.80 1311.46 L 542.06 1323.01 L 521.19 1337.26 L 502.85 1354.67 L 497.47 1361.45 L 492.47 1364.38 L 480.15 1380.21 L 466.77 1384.25 L 458.55 1396.22 L 443.08 1413.68 L 429.12 1421.43 L 409.38 1425.04 L 401.37 1434.82 L 387.56 1439.40 L 380.82 1446.07 L 372.42 1450.72 L 354.11 1457.41 L 348.65 1463.44 L 337.71 1470.48 L 324.30 1484.75 L 324.67 1490.97 L 322.92 1493.51 L 324.23 1513.61 L 333.04 1542.86 L 341.94 1559.53 L 344.35 1569.95 L 354.80 1577.58 L 360.79 1577.17 L 364.35 1580.59 L 366.63 1585.96 L 365.87 1605.71 L 352.44 1640.63 L 358.22 1667.06 L 355.04 1682.41 L 355.84 1692.70 L 352.27 1707.76 L 352.63 1726.24 L 356.83 1743.68 L 363.89 1755.70 L 372.84 1762.46 L 383.21 1773.29 L 386.65 1781.45 L 392.38 1783.00 L 403.99 1793.47 L 407.98 1793.28 L 414.08 1800.17 L 422.12 1804.03 L 431.88 1814.45 L 438.85 1829.21 L 443.55 1835.53 L 446.89 1846.89 L 454.98 1857.83 L 486.09 1872.95 L 492.47 1878.45 L 502.59 1883.72 L 517.87 1894.46 L 522.67 1894.37 L 526.58 1892.36 L 531.66 1887.57 L 536.98 1885.64 L 543.63 1880.89 L 555.20 1868.08 L 598.88 1826.74" pathLength="1" fill="none" vector-effect="non-scaling-stroke"/>
  <circle class="trace-start" cx="1185.12" cy="1609.53" r="6.25"/>
  <circle class="trace-summit-halo" cx="599.60" cy="1823.37" r="15.97"/>
  <circle class="trace-summit" cx="599.60" cy="1823.37" r="9.03"/>
</svg>
