<svg xmlns="http://www.w3.org/2000/svg" viewBox="0 0 2000 2500" preserveAspectRatio="none">
  <path class="trace-underlay" d="M 1335.37 1628.54 L 1356.82 1627.45 L 1376.07 1646.32 L 1379.65 1645.45 L 1405.35 1618.72 L 1415.98 1611.40 L 1440.38 1607.97 L 1452.13 1609.72 L 1481.36 1597.31 L 1484.09 1585.83 L 1511.95 1541.02 L 1517.09 1520.64 L 1528.89 1506.71 L 1533.20 1493.44 L 1533.60 1484.31 L 1546.10 1469.67 L 1545.74 1450.66 L 1539.56 1438.91 L 1546.40 1409.77 L 1570.32 1371.56 L 1577.69 1366.02 L 1613.23 1355.98 L 1673.09 1326.63 L 1725.57 1313.52 L 1737.84 1306.17 L 1759.68 1298.13 L 1796.02 1269.36 L 1815.67 1261.40 L 1825.73 1253.24 L 1834.49 1249.04 L 1871.04 1235.28 L 1927.88 1205.53 L 1952.49 1187.20 L 1967.00 1180.49 L 1992.70 1163.83 L 2007.27 1148.23 L 2001.54 1146.10 L 1998.58 1138.31 L 1990.27 1129.86 L 1964.34 1116.33 L 1952.10 1114.88 L 1910.85 1101.22 L 1857.88 1090.98 L 1839.45 1091.57 L 1758.88 1080.68 L 1734.11 1073.01 L 1711.33 1068.75 L 1691.00 1068.12 L 1650.00 1061.83 L 1633.91 1056.69 L 1605.48 1054.31 L 1600.77 1050.82 L 1593.71 1049.61 L 1587.18 1037.80 L 1581.20 1033.64 L 1563.20 1029.88 L 1555.14 1026.31 L 1543.91 1009.99 L 1539.97 998.04 L 1522.22 982.58 L 1518.54 971.48 L 1509.03 964.15 L 1508.33 958.16 L 1493.45 945.28 L 1489.95 936.74 L 1463.86 899.68 L 1456.66 893.60 L 1441.23 874.58 L 1422.20 860.77 L 1390.15 844.69 L 1372.40 831.12 L 1354.83 822.72 L 1333.44 808.46 L 1334.69 800.44 L 1306.40 767.37 L 1293.59 695.46 L 1281.94 677.82 L 1278.17 663.52 L 1266.47 655.93 L 1269.78 642.32 L 1264.50 627.46 L 1258.07 618.34 L 1253.48 603.25 L 1234.49 580.00 L 1192.97 571.38 L 1183.93 572.11 L 1176.90 575.68 L 1172.32 582.28 L 1171.44 595.75 L 1167.07 604.72 L 1155.98 610.98 L 1154.95 616.02 L 1142.84 633.49 L 1139.88 642.82 L 1122.46 653.06 L 1092.18 648.80 L 1059.24 648.06 L 1047.18 643.96 L 1035.94 634.87 L 1023.10 628.08 L 1009.25 626.98 L 989.47 621.19 L 941.16 613.13 L 940.13 615.30 L 951.15 627.20 L 955.46 638.65 L 985.70 676.51 L 986.91 682.58 L 980.13 686.14 L 958.65 684.45 L 940.13 690.92 L 904.67 697.27 L 897.27 696.96 L 878.45 703.08 L 877.25 705.22 L 932.71 729.55 L 955.44 742.18 L 979.70 747.26 L 963.33 750.73 L 929.80 750.43 L 896.03 757.61 L 832.59 754.64 L 819.43 756.43 L 808.09 761.18 L 792.15 774.51 L 799.88 782.70 L 867.61 819.23 L 892.82 830.26 L 891.93 832.55 L 879.27 838.46 L 862.50 859.71 L 846.06 866.85 L 843.92 870.73 L 843.53 878.12 L 846.65 889.11 L 846.59 893.77 L 841.00 907.60 L 841.69 919.53 L 845.96 929.16 L 843.08 948.85 L 829.70 955.45 L 819.97 957.28 L 797.26 965.97 L 779.18 969.40 L 771.76 996.47 L 755.52 1006.04 L 753.77 1008.85 L 752.78 1020.66 L 749.68 1029.99 L 742.48 1049.68 L 738.39 1054.95 L 725.30 1063.37 L 723.32 1068.36 L 715.86 1073.66 L 700.57 1076.19 L 690.41 1086.75 L 683.88 1090.30 L 681.09 1096.92 L 672.55 1106.94 L 671.38 1117.34 L 658.83 1134.91 L 652.28 1155.51 L 640.57 1159.00 L 630.95 1172.86 L 629.10 1180.83 L 623.89 1183.12 L 609.27 1180.38 L 604.68 1182.01 L 598.30 1189.95 L 587.64 1197.51 L 575.68 1212.53 L 554.89 1228.91 L 536.73 1253.43 L 536.13 1258.63 L 531.22 1264.48 L 519.72 1270.54 L 495.66 1302.08 L 471.75 1314.74 L 457.08 1326.90 L 428.58 1341.90 L 396.18 1367.37 L 389.36 1370.45 L 372.53 1387.12 L 354.25 1391.38 L 343.02 1403.98 L 321.90 1422.36 L 302.84 1430.52 L 275.87 1434.32 L 264.94 1444.61 L 246.08 1449.44 L 236.86 1456.46 L 225.39 1461.35 L 200.39 1468.40 L 192.92 1474.74 L 177.99 1482.16 L 159.67 1497.18 L 160.18 1503.73 L 157.78 1506.40 L 159.58 1527.56 L 171.61 1558.36 L 183.77 1575.91 L 187.06 1586.88 L 201.32 1594.91 L 209.51 1594.48 L 214.37 1598.08 L 217.48 1603.73 L 216.45 1624.53 L 198.10 1661.29 L 205.99 1689.11 L 201.66 1705.28 L 202.75 1716.10 L 197.88 1731.96 L 198.36 1751.41 L 204.10 1769.78 L 213.74 1782.43 L 240.13 1800.94 L 244.83 1809.54 L 252.65 1811.17 L 268.51 1822.20 L 273.96 1821.99 L 282.29 1829.25 L 293.27 1833.31 L 306.60 1844.28 L 316.13 1859.82 L 322.54 1866.47 L 327.10 1878.44 L 338.15 1889.95 L 380.65 1905.87 L 424.05 1928.52 L 435.94 1926.31 L 442.88 1921.26 L 459.23 1914.23 L 475.03 1900.74 L 534.68 1857.22" pathLength="1" fill="none" vector-effect="non-scaling-stroke"/>
  <path class="trace-line" d="M 1335.37 1628.54 L 1356.82 1627.45 L 1376.07 1646.32 L 1379.65 1645.45 L 1405.35 1618.72 L 1415.98 1611.40 L 1440.38 1607.97 L 1452.13 1609.72 L 1481.36 1597.31 L 1484.09 1585.83 L 1511.95 1541.02 L 1517.09 1520.64 L 1528.89 1506.71 L 1533.20 1493.44 L 1533.60 1484.31 L 1546.10 1469.67 L 1545.74 1450.66 L 1539.56 1438.91 L 1546.40 1409.77 L 1570.32 1371.56 L 1577.69 1366.02 L 1613.23 1355.98 L 1673.09 1326.63 L 1725.57 1313.52 L 1737.84 1306.17 L 1759.68 1298.13 L 1796.02 1269.36 L 1815.67 1261.40 L 1825.73 1253.24 L 1834.49 1249.04 L 1871.04 1235.28 L 1927.88 1205.53 L 1952.49 1187.20 L 1967.00 1180.49 L 1992.70 1163.83 L 2007.27 1148.23 L 2001.54 1146.10 L 1998.58 1138.31 L 1990.27 1129.86 L 1964.34 1116.33 L 1952.10 1114.88 L 1910.85 1101.22 L 1857.88 1090.98 L 1839.45 1091.57 L 1758.88 1080.68 L 1734.11 1073.01 L 1711.33 1068.75 L 1691.00 1068.12 L 1650.00 1061.83 L 1633.91 1056.69 L 1605.48 1054.31 L 1600.77 1050.82 L 1593.71 1049.61 L 1587.18 1037.80 L 1581.20 1033.64 L 1563.20 1029.88 L 1555.14 1026.31 L 1543.91 1009.99 L 1539.97 998.04 L 1522.22 982.58 L 1518.54 971.48 L 1509.03 964.15 L 1508.33 958.16 L 1493.45 945.28 L 1489.95 936.74 L 1463.86 899.68 L 1456.66 893.60 L 1441.23 874.58 L 1422.20 860.77 L 1390.15 844.69 L 1372.40 831.12 L 1354.83 822.72 L 1333.44 808.46 L 1334.69 800.44 L 1306.40 767.37 L 1293.59 695.46 L 1281.94 677.82 L 1278.17 663.52 L 1266.47 655.93 L 1269.78 642.32 L 1264.50 627.46 L 1258.07 618.34 L 1253.48 603.25 L 1234.49 580.00 L 1192.97 571.38 L 1183.93 572.11 L 1176.90 575.68 L 1172.32 582.28 L 1171.44 595.75 L 1167.07 604.72 L 1155.98 610.98 L 1154.95 616.02 L 1142.84 633.49 L 1139.88 642.82 L 1122.46 653.06 L 1092.18 648.80 L 1059.24 648.06 L 1047.18 643.96 L 1035.94 634.87 L 1023.10 628.08 L 1009.25 626.98 L 989.47 621.19 L 941.16 613.13 L 940.13 615.30 L 951.15 627.20 L 955.46 638.65 L 985.70 676.51 L 986.91 682.58 L 980.13 686.14 L 958.65 684.45 L 940.13 690.92 L 904.67 697.27 L 897.27 696.96 L 878.45 703.08 L 877.25 705.22 L 932.71 729.55 L 955.44 742.18 L 979.70 747.26 L 963.33 750.73 L 929.80 750.43 L 896.03 757.61 L 832.59 754.64 L 819.43 756.43 L 808.09 761.18 L 792.15 774.51 L 799.88 782.70 L 867.61 819.23 L 892.82 830.26 L 891.93 832.55 L 879.27 838.46 L 862.50 859.71 L 846.06 866.85 L 843.92 870.73 L 843.53 878.12 L 846.65 889.11 L 846.59 893.77 L 841.00 907.60 L 841.69 919.53 L 845.96 929.16 L 843.08 948.85 L 829.70 955.45 L 819.97 957.28 L 797.26 965.97 L 779.18 969.40 L 771.76 996.47 L 755.52 1006.04 L 753.77 1008.85 L 752.78 1020.66 L 749.68 1029.99 L 742.48 1049.68 L 738.39 1054.95 L 725.30 1063.37 L 723.32 1068.36 L 715.86 1073.66 L 700.57 1076.19 L 690.41 1086.75 L 683.88 1090.30 L 681.09 1096.92 L 672.55 1106.94 L 671.38 1117.34 L 658.83 1134.91 L 652.28 1155.51 L 640.57 1159.00 L 630.95 1172.86 L 629.10 1180.83 L 623.89 1183.12 L 609.27 1180.38 L 604.68 1182.01 L 598.30 1189.95 L 587.64 1197.51 L 575.68 1212.53 L 554.89 1228.91 L 536.73 1253.43 L 536.13 1258.63 L 531.22 1264.48 L 519.72 1270.54 L 495.66 1302.08 L 471.75 1314.74 L 457.08 1326.90 L 428.58 1341.90 L 396.18 1367.37 L 389.36 1370.45 L 372.53 1387.12 L 354.25 1391.38 L 343.02 1403.98 L 321.90 1422.36 L 302.84 1430.52 L 275.87 1434.32 L 264.94 1444.61 L 246.08 1449.44 L 236.86 1456.46 L 225.39 1461.35 L 200.39 1468.40 L 192.92 1474.74 L 177.99 1482.16 L 159.67 1497.18 L 160.18 1503.73 L 157.78 1506.40 L 159.58 1527.56 L 171.61 1558.36 L 183.77 1575.91 L 187.06 1586.88 L 201.32 1594.91 L 209.51 1594.48 L 214.37 1598.08 L 217.48 1603.73 L 216.45 1624.53 L 198.10 1661.29 L 205.99 1689.11 L 201.66 1705.28 L 202.75 1716.10 L 197.88 1731.96 L 198.36 1751.41 L 204.10 1769.78 L 213.74 1782.43 L 240.13 1800.94 L 244.83 1809.54 L 252.65 1811.17 L 268.51 1822.20 L 273.96 1821.99 L 282.29 1829.25 L 293.27 1833.31 L 306.60 1844.28 L 316.13 1859.82 L 322.54 1866.47 L 327.10 1878.44 L 338.15 1889.95 L 380.65 1905.87 L 424.05 1928.52 L 435.94 1926.31 L 442.88 1921.26 L 459.23 1914.23 L 475.03 1900.74 L 534.68 1857.22" pathLength="1" fill="none" vector-effect="non-scaling-stroke"/>
</svg>
