<svg xmlns="http://www.w3.org/2000/svg" viewBox="0 0 1600 900" preserveAspectRatio="xMidYMid slice">
  <path class="trace-line" d="M 936.71 715.35 L 942.12 714.30 L 948.31 714.58 L 958.72 727.81 L 960.65 727.20 L 974.55 708.46 L 980.29 703.33 L 993.48 700.93 L 999.84 702.15 L 1005.25 698.37 L 1012.98 695.75 L 1015.65 693.45 L 1017.12 685.40 L 1032.18 653.99 L 1034.96 639.70 L 1041.34 629.93 L 1043.68 620.63 L 1043.89 614.24 L 1050.65 603.97 L 1050.45 590.64 L 1047.11 582.41 L 1050.81 561.98 L 1063.74 535.19 L 1067.73 531.31 L 1086.94 524.27 L 1119.31 503.70 L 1147.68 494.50 L 1154.32 489.35 L 1166.13 483.72 L 1168.98 481.78 L 1174.14 474.84 L 1180.24 470.18 L 1185.78 463.54 L 1196.40 457.96 L 1201.84 452.25 L 1206.58 449.30 L 1226.34 439.65 L 1257.07 418.80 L 1270.38 405.95 L 1278.23 401.24 L 1292.12 389.57 L 1300.00 378.63 L 1296.90 377.14 L 1295.30 371.68 L 1290.80 365.75 L 1276.79 356.26 L 1274.98 355.22 L 1270.17 355.25 L 1247.86 345.67 L 1219.22 338.49 L 1209.26 338.91 L 1194.20 335.44 L 1165.70 331.27 L 1152.30 325.90 L 1139.99 322.91 L 1134.81 323.43 L 1128.99 322.47 L 1120.10 319.97 L 1106.83 318.06 L 1098.13 314.46 L 1082.75 312.79 L 1080.21 310.34 L 1076.39 309.50 L 1072.86 301.21 L 1069.63 298.30 L 1059.89 295.66 L 1055.54 293.16 L 1049.46 281.72 L 1047.34 273.34 L 1037.74 262.50 L 1035.75 254.72 L 1030.61 249.58 L 1030.23 245.39 L 1022.18 236.35 L 1020.29 230.37 L 1006.18 204.39 L 1002.29 200.13 L 993.95 186.79 L 983.66 177.11 L 976.81 173.60 L 971.79 168.54 L 966.33 165.83 L 956.73 156.32 L 947.23 150.44 L 935.66 140.44 L 936.34 134.82 L 921.05 111.63 L 914.12 61.22 L 907.82 48.86 L 905.78 38.83 L 899.46 33.51 L 901.25 23.97 L 898.39 13.55 L 894.91 7.16 L 892.43 -3.42 L 889.88 -6.52 L 884.09 -17.98 L 882.17 -19.72 L 859.71 -25.76 L 854.82 -25.25 L 851.02 -22.75 L 848.55 -18.12 L 848.07 -8.67 L 845.71 -2.39 L 839.72 2.00 L 839.16 5.53 L 832.61 17.78 L 832.14 22.53 L 831.01 24.32 L 825.45 29.52 L 821.59 31.50 L 805.22 28.51 L 800.41 29.05 L 787.41 27.99 L 780.89 25.12 L 774.81 18.75 L 767.87 13.99 L 760.38 13.22 L 749.68 9.15 L 740.37 7.91 L 723.56 3.51 L 723.01 5.03 L 728.96 13.37 L 731.30 21.40 L 747.65 47.94 L 748.30 52.19 L 744.63 54.69 L 733.02 53.50 L 723.01 58.04 L 703.84 62.49 L 699.83 62.28 L 689.66 66.56 L 689.01 68.07 L 718.99 85.12 L 731.29 93.97 L 744.40 97.54 L 735.55 99.97 L 717.42 99.76 L 699.16 104.79 L 664.86 102.71 L 657.75 103.96 L 651.61 107.30 L 649.17 111.03 L 643.60 115.17 L 642.99 116.64 L 647.17 122.38 L 683.80 147.99 L 697.43 155.72 L 696.95 157.32 L 690.10 161.47 L 681.04 176.37 L 672.14 181.37 L 670.99 184.10 L 670.78 189.27 L 672.46 196.98 L 672.43 200.24 L 669.41 209.94 L 669.78 218.30 L 672.09 225.05 L 670.53 238.85 L 663.30 243.48 L 658.04 244.77 L 645.76 250.86 L 635.98 253.27 L 631.97 272.24 L 623.19 278.95 L 622.24 280.92 L 621.71 289.20 L 620.03 295.74 L 616.14 309.54 L 613.93 313.24 L 606.85 319.14 L 605.78 322.64 L 601.75 326.36 L 593.48 328.13 L 587.99 335.53 L 584.46 338.02 L 582.95 342.66 L 578.33 349.68 L 577.69 356.97 L 570.91 369.29 L 567.37 383.74 L 566.61 384.74 L 561.04 386.18 L 555.84 395.90 L 554.84 401.49 L 552.02 403.09 L 544.11 401.17 L 541.63 402.31 L 538.18 407.88 L 532.42 413.17 L 525.95 423.71 L 514.71 435.19 L 504.89 452.38 L 504.57 456.02 L 501.91 460.13 L 495.70 464.37 L 482.69 486.48 L 469.76 495.36 L 461.83 503.88 L 446.42 514.40 L 432.87 527.25 L 428.90 532.25 L 425.21 534.42 L 416.11 546.10 L 406.23 549.09 L 400.16 557.92 L 388.73 570.80 L 378.43 576.52 L 363.85 579.19 L 357.94 586.41 L 347.74 589.79 L 342.76 594.71 L 336.56 598.14 L 323.04 603.08 L 319.00 607.53 L 310.92 612.73 L 301.02 623.26 L 301.30 627.85 L 300.00 629.72 L 300.97 644.55 L 307.47 666.15 L 314.05 678.45 L 315.83 686.14 L 323.54 691.77 L 327.97 691.46 L 330.59 693.99 L 332.28 697.95 L 331.72 712.53 L 321.80 738.30 L 326.07 757.81 L 323.72 769.14 L 324.31 776.73 L 321.68 787.84 L 321.94 801.48 L 325.04 814.36 L 330.25 823.23 L 336.87 828.22 L 344.52 836.21 L 347.07 842.23 L 351.29 843.37 L 359.87 851.11 L 362.82 850.96 L 367.32 856.05 L 373.25 858.89 L 380.47 866.58 L 385.62 877.48 L 389.08 882.14 L 391.55 890.53 L 397.52 898.61 L 420.50 909.76 L 425.21 913.82 L 432.68 917.71 L 443.97 925.64 L 447.51 925.57 L 450.40 924.09 L 454.15 920.55 L 458.08 919.13 L 462.99 915.62 L 471.53 906.17 L 503.79 875.66" pathLength="1" fill="none" vector-effect="non-scaling-stroke"/>
  <circle class="trace-start" cx="936.71" cy="715.35" r="4.62"/>
  <circle class="trace-summit-halo" cx="504.32" cy="873.17" r="11.79"/>
  <circle class="trace-summit" cx="504.32" cy="873.17" r="6.67"/>
</svg>
