<svg xmlns="http://www.w3.org/2000/svg" viewBox="0 0 1600 900" preserveAspectRatio="xMidYMid slice">
  <path class="trace-line" d="M 603.19 729.14 L 598.12 725.28 L 598.94 723.19 L 600.84 721.23 L 601.92 719.46 L 601.79 717.37 L 599.89 714.46 L 599.45 709.71 L 597.20 704.52 L 586.84 693.33 L 584.66 688.21 L 582.07 673.47 L 582.03 664.65 L 580.30 658.47 L 575.25 650.66 L 571.05 639.94 L 567.76 635.71 L 561.18 630.49 L 559.21 627.48 L 557.52 617.34 L 558.18 607.57 L 556.33 604.35 L 551.81 600.86 L 544.00 591.62 L 537.42 578.73 L 533.43 573.14 L 531.29 571.34 L 512.36 565.41 L 511.27 563.44 L 512.21 562.72 L 516.87 562.64 L 517.31 561.92 L 516.72 560.68 L 511.34 556.82 L 505.59 550.79 L 506.54 548.47 L 508.50 547.45 L 507.20 544.94 L 504.98 542.51 L 496.75 538.18 L 481.54 517.27 L 472.25 508.71 L 470.15 505.91 L 470.35 503.01 L 472.49 500.95 L 490.87 494.66 L 493.59 492.55 L 494.53 489.54 L 492.97 485.21 L 489.84 481.04 L 487.71 476.50 L 486.47 465.30 L 484.95 458.49 L 485.61 447.98 L 484.91 439.85 L 487.54 432.93 L 487.99 429.34 L 487.25 425.65 L 480.51 410.33 L 477.51 399.14 L 469.57 378.65 L 458.63 355.73 L 457.44 346.54 L 455.59 339.30 L 454.11 321.56 L 451.85 313.53 L 449.51 308.99 L 445.76 305.61 L 432.03 298.64 L 428.70 296.16 L 420.52 285.23 L 412.38 278.95 L 403.37 269.02 L 400.21 259.35 L 397.74 255.39 L 385.94 241.87 L 384.87 237.97 L 385.53 229.04 L 383.68 220.38 L 381.33 217.05 L 375.86 213.04 L 371.38 206.02 L 365.09 202.37 L 360.49 197.36 L 358.72 194.29 L 356.04 186.27 L 353.25 184.31 L 345.19 185.21 L 341.16 184.58 L 336.72 182.41 L 328.99 171.75 L 322.25 166.10 L 320.39 162.08 L 318.46 159.92 L 314.47 159.49 L 309.25 160.50 L 304.28 159.92 L 302.34 156.43 L 303.13 147.35 L 305.18 139.27 L 304.36 135.41 L 300.45 129.76 L 300.00 125.12 L 303.62 121.58 L 309.33 119.10 L 314.47 114.66 L 324.67 101.83 L 328.87 90.10 L 328.62 85.99 L 326.97 80.18 L 326.77 75.21 L 327.55 72.04 L 348.40 24.41 L 349.71 18.18 L 349.34 8.62 L 346.67 5.88 L 339.72 5.30 L 336.72 2.60 L 336.27 -0.04 L 344.57 -26.34 L 344.45 -29.87 L 341.08 -33.52 L 336.47 -36.00 L 334.05 -38.64 L 332.57 -42.50 L 332.52 -46.14 L 334.33 -52.37 L 334.58 -70.27 L 340.79 -86.70 L 348.36 -86.91 L 366.69 -90.29 L 381.04 -88.07 L 385.20 -88.12 L 408.87 -92.16 L 415.73 -91.15 L 424.81 -95.63 L 438.20 -96.53 L 440.95 -97.07 L 445.82 -97.08 L 451.34 -98.08 L 462.53 -95.25 L 464.37 -91.15 L 471.56 -86.06 L 476.83 -83.38 L 481.67 -82.13 L 488.78 -78.71 L 497.39 -77.37 L 503.82 -77.45 L 509.34 -78.88 L 516.86 -76.93 L 530.39 -70.43 L 538.82 -67.84 L 545.81 -63.25 L 556.25 -52.48 L 566.69 -44.56 L 581.39 -39.96 L 589.83 -34.86 L 621.92 -16.78 L 628.95 -16.99 L 636.13 -15.49 L 647.34 -10.73 L 655.95 -5.39 L 664.72 -1.04 L 673.58 5.47 L 679.68 10.73 L 683.14 16.07 L 693.71 22.30 L 698.40 27.37 L 704.40 36.40 L 712.58 44.06 L 728.33 67.50 L 730.51 73.15 L 732.28 82.34 L 738.24 90.58 L 749.18 112.92 L 754.98 118.94 L 760.20 122.16 L 763.73 123.11 L 771.22 123.37 L 786.10 126.86 L 791.57 127.02 L 813.90 130.13 L 825.74 133.41 L 847.08 143.39 L 852.88 145.29 L 875.49 149.41 L 885.77 150.25 L 891.53 152.31 L 900.74 158.02 L 913.57 169.26 L 926.11 178.40 L 931.29 180.72 L 938.61 182.62 L 945.19 183.15 L 950.12 184.42 L 968.67 192.66 L 986.76 198.15 L 1002.43 205.91 L 1010.86 211.93 L 1016.22 231.29 L 1023.45 236.44 L 1064.88 240.67 L 1091.93 242.14 L 1109.81 241.66 L 1121.45 237.97 L 1132.90 237.24 L 1157.73 237.65 L 1160.65 239.45 L 1161.68 241.35 L 1161.97 244.94 L 1159.33 251.91 L 1148.97 270.07 L 1137.73 276.09 L 1122.27 288.75 L 1117.97 302.93 L 1113.53 308.88 L 1106.69 313.94 L 1105.17 315.84 L 1104.92 326.86 L 1103.91 333.69 L 1103.78 341.41 L 1104.92 347.74 L 1116.20 368.03 L 1117.85 374.42 L 1118.59 389.89 L 1121.97 402.48 L 1120.73 425.05 L 1124.43 442.78 L 1122.29 454.02 L 1127.43 469.00 L 1146.57 508.77 L 1156.90 521.13 L 1179.24 540.08 L 1207.44 566.01 L 1214.43 575.51 L 1239.76 583.19 L 1256.81 600.57 L 1268.17 615.60 L 1268.01 627.30 L 1270.01 641.66 L 1269.35 654.02 L 1270.85 664.55 L 1268.51 674.07 L 1264.33 681.09 L 1259.01 693.06 L 1257.28 704.68 L 1255.55 708.38 L 1250.41 714.45 L 1248.27 718.09 L 1237.25 748.62 L 1234.09 752.63 L 1230.19 760.54 L 1219.58 774.23 L 1211.21 788.16 L 1201.66 802.36 L 1194.90 806.92 L 1186.03 814.08 L 1177.04 819.28 L 1174.45 824.85 L 1177.34 831.67 L 1177.59 841.19 L 1178.29 845.36 L 1180.92 856.34 L 1183.39 861.89 L 1195.85 882.96 L 1209.91 898.75 L 1225.78 910.53 L 1245.19 919.24 L 1265.25 925.19 L 1277.53 931.52 L 1282.77 939.70 L 1294.82 956.94 L 1298.15 970.20 L 1300.00 984.09 L 1297.82 998.08" pathLength="1" fill="none" vector-effect="non-scaling-stroke"/>
  <circle class="trace-start" cx="603.19" cy="729.14" r="4.62"/>
  <circle class="trace-summit-halo" cx="1298.77" cy="997.18" r="11.79"/>
  <circle class="trace-summit" cx="1298.77" cy="997.18" r="6.67"/>
</svg>
