<svg xmlns="http://www.w3.org/2000/svg" viewBox="0 0 2000 2500" preserveAspectRatio="xMidYMid slice">
  <path class="trace-line" d="M 733.48 1628.22 L 726.62 1622.99 L 727.74 1620.16 L 730.31 1617.49 L 731.77 1615.10 L 731.59 1612.26 L 729.02 1608.32 L 728.42 1601.89 L 725.38 1594.86 L 711.35 1579.69 L 708.40 1572.75 L 704.89 1552.79 L 704.83 1540.84 L 702.50 1532.47 L 695.65 1521.88 L 689.97 1507.36 L 685.51 1501.63 L 676.60 1494.55 L 673.93 1490.47 L 671.65 1476.73 L 672.54 1463.49 L 670.03 1459.13 L 663.91 1454.41 L 653.33 1441.89 L 644.42 1424.43 L 639.02 1416.84 L 636.12 1414.41 L 610.48 1406.37 L 609.01 1403.71 L 610.29 1402.73 L 616.59 1402.63 L 617.19 1401.64 L 616.40 1399.96 L 609.11 1394.74 L 601.32 1386.56 L 602.60 1383.41 L 605.26 1382.03 L 603.49 1378.63 L 600.49 1375.34 L 589.35 1369.48 L 568.75 1341.14 L 556.17 1329.55 L 553.33 1325.76 L 553.60 1321.82 L 556.50 1319.03 L 581.39 1310.52 L 585.06 1307.66 L 586.34 1303.58 L 584.23 1297.71 L 580.00 1292.06 L 577.10 1285.90 L 575.43 1270.74 L 573.37 1261.51 L 574.26 1247.27 L 573.32 1236.25 L 576.88 1226.87 L 577.49 1222.01 L 576.49 1217.00 L 567.36 1196.25 L 563.29 1181.08 L 552.55 1153.32 L 537.73 1122.27 L 536.12 1109.82 L 533.61 1100.01 L 531.61 1075.97 L 528.55 1065.10 L 525.37 1058.94 L 520.31 1054.36 L 501.71 1044.92 L 497.20 1041.56 L 486.12 1026.75 L 475.09 1018.23 L 462.90 1004.78 L 458.61 991.69 L 455.27 986.32 L 439.29 968.00 L 437.84 962.71 L 438.73 950.62 L 436.23 938.88 L 433.05 934.37 L 425.65 928.94 L 419.58 919.42 L 411.06 914.48 L 404.82 907.68 L 402.43 903.53 L 398.81 892.66 L 395.02 890.01 L 384.11 891.23 L 378.65 890.37 L 372.64 887.44 L 362.17 872.98 L 353.04 865.33 L 350.53 859.89 L 347.92 856.95 L 342.52 856.38 L 335.45 857.74 L 328.71 856.95 L 326.09 852.23 L 327.15 839.93 L 329.93 828.98 L 328.82 823.75 L 323.53 816.10 L 322.92 809.80 L 327.82 805.01 L 335.56 801.65 L 342.52 795.64 L 356.33 778.25 L 362.00 762.36 L 361.67 756.78 L 359.44 748.91 L 359.17 742.19 L 360.22 737.89 L 388.45 673.35 L 390.24 664.91 L 389.73 651.96 L 386.11 648.24 L 376.70 647.45 L 372.64 643.80 L 372.03 640.23 L 383.28 604.59 L 383.11 599.80 L 378.54 594.86 L 372.31 591.50 L 369.02 587.92 L 367.02 582.70 L 366.96 577.76 L 369.41 569.32 L 369.74 545.06 L 378.15 522.81 L 388.40 522.52 L 413.23 517.95 L 432.66 520.95 L 438.29 520.88 L 470.35 515.41 L 479.63 516.77 L 491.93 510.71 L 510.06 509.48 L 513.79 508.76 L 520.38 508.74 L 527.85 507.38 L 543.01 511.23 L 545.51 516.77 L 555.24 523.68 L 562.37 527.30 L 568.93 528.99 L 578.55 533.63 L 590.21 535.44 L 598.93 535.33 L 606.40 533.41 L 616.58 536.05 L 634.90 544.85 L 646.31 548.35 L 655.78 554.58 L 669.92 569.18 L 684.06 579.91 L 703.97 586.13 L 715.40 593.04 L 758.84 617.54 L 768.37 617.25 L 778.10 619.29 L 793.27 625.74 L 804.93 632.98 L 816.81 638.87 L 828.81 647.69 L 837.07 654.82 L 841.75 662.05 L 856.06 670.49 L 862.41 677.36 L 870.54 689.60 L 881.62 699.97 L 902.95 731.74 L 905.90 739.40 L 908.29 751.85 L 916.37 763.01 L 931.18 793.27 L 939.03 801.43 L 946.10 805.80 L 950.89 807.08 L 961.02 807.44 L 981.18 812.16 L 988.59 812.38 L 1018.82 816.60 L 1034.86 821.04 L 1063.75 834.56 L 1071.61 837.14 L 1102.23 842.72 L 1116.15 843.86 L 1123.95 846.65 L 1136.42 854.38 L 1153.79 869.62 L 1170.77 882.00 L 1177.79 885.15 L 1187.70 887.72 L 1196.61 888.44 L 1203.29 890.15 L 1228.40 901.32 L 1252.90 908.76 L 1274.12 919.28 L 1285.53 927.43 L 1292.79 953.66 L 1302.58 960.64 L 1358.70 966.37 L 1395.32 968.37 L 1419.53 967.71 L 1435.30 962.71 L 1450.80 961.72 L 1484.43 962.28 L 1488.38 964.71 L 1489.77 967.29 L 1490.16 972.15 L 1486.60 981.60 L 1472.57 1006.21 L 1457.34 1014.37 L 1436.41 1031.52 L 1430.58 1050.73 L 1424.57 1058.79 L 1415.31 1065.65 L 1413.25 1068.22 L 1412.91 1083.15 L 1411.54 1092.41 L 1411.37 1102.87 L 1412.91 1111.45 L 1428.19 1138.94 L 1430.42 1147.60 L 1431.42 1168.56 L 1436.01 1185.62 L 1434.32 1216.19 L 1439.33 1240.22 L 1436.43 1255.45 L 1443.39 1275.74 L 1469.31 1329.63 L 1483.30 1346.38 L 1513.55 1372.05 L 1551.75 1407.18 L 1561.21 1420.06 L 1595.50 1430.47 L 1618.60 1454.01 L 1633.99 1474.38 L 1633.76 1490.23 L 1636.47 1509.69 L 1635.57 1526.44 L 1637.61 1540.70 L 1634.44 1553.60 L 1628.78 1563.11 L 1621.57 1579.34 L 1619.23 1595.08 L 1616.89 1600.09 L 1609.93 1608.31 L 1607.04 1613.25 L 1592.11 1654.61 L 1587.83 1660.05 L 1582.55 1670.76 L 1568.19 1689.31 L 1556.85 1708.19 L 1543.92 1727.43 L 1534.76 1733.60 L 1522.75 1743.30 L 1510.58 1750.35 L 1507.07 1757.89 L 1510.97 1767.14 L 1511.32 1780.04 L 1512.27 1785.69 L 1515.83 1800.57 L 1519.17 1808.09 L 1536.04 1836.63 L 1555.09 1858.03 L 1576.58 1873.98 L 1602.86 1885.79 L 1630.02 1893.85 L 1646.66 1902.43 L 1653.75 1913.51 L 1670.07 1936.88 L 1674.58 1954.84 L 1677.08 1973.65 L 1674.13 1992.62" pathLength="1" fill="none" vector-effect="non-scaling-stroke"/>
  <circle class="trace-start" cx="733.48" cy="1628.22" r="6.25"/>
  <circle class="trace-summit-halo" cx="1675.41" cy="1991.40" r="15.97"/>
  <circle class="trace-summit" cx="1675.41" cy="1991.40" r="9.03"/>
</svg>
