<svg xmlns="http://www.w3.org/2000/svg" viewBox="0 0 2000 2500" preserveAspectRatio="none">
  <path class="trace-underlay" d="M 880.71 1593.24 L 875.08 1589.93 L 875.99 1588.14 L 878.10 1586.46 L 879.30 1584.94 L 879.16 1583.15 L 877.05 1580.66 L 876.56 1576.59 L 874.06 1572.15 L 862.54 1562.56 L 860.12 1558.17 L 857.24 1545.55 L 857.19 1538.00 L 855.27 1532.70 L 849.65 1526.01 L 844.99 1516.83 L 841.33 1513.21 L 834.02 1508.73 L 831.82 1506.15 L 829.95 1497.47 L 830.68 1489.10 L 828.62 1486.34 L 823.59 1483.36 L 814.91 1475.44 L 807.60 1464.40 L 803.16 1459.61 L 800.79 1458.07 L 779.74 1452.99 L 778.52 1451.30 L 779.58 1450.68 L 784.75 1450.62 L 785.24 1450.00 L 784.59 1448.94 L 778.61 1445.63 L 772.22 1440.46 L 773.27 1438.47 L 775.45 1437.60 L 774.00 1435.45 L 771.53 1433.37 L 762.39 1429.66 L 745.48 1411.75 L 735.14 1404.42 L 732.81 1402.03 L 733.04 1399.54 L 735.42 1397.77 L 755.85 1392.39 L 758.87 1390.58 L 759.92 1388.00 L 758.18 1384.29 L 754.71 1380.72 L 752.33 1376.83 L 750.96 1367.24 L 749.27 1361.41 L 750.00 1352.40 L 749.22 1345.44 L 752.15 1339.51 L 752.65 1336.44 L 751.83 1333.27 L 744.33 1320.15 L 741.00 1310.56 L 732.17 1293.01 L 720.01 1273.38 L 718.69 1265.51 L 716.63 1259.31 L 714.99 1244.12 L 712.47 1237.24 L 709.87 1233.35 L 705.71 1230.45 L 690.44 1224.48 L 686.74 1222.36 L 677.64 1212.99 L 668.59 1207.61 L 658.58 1199.11 L 655.06 1190.83 L 652.32 1187.44 L 639.20 1175.86 L 638.01 1172.51 L 638.74 1164.87 L 636.68 1157.45 L 634.08 1154.60 L 628.00 1151.16 L 623.02 1145.14 L 616.02 1142.02 L 610.90 1137.73 L 608.94 1135.10 L 605.97 1128.23 L 602.86 1126.55 L 593.90 1127.32 L 589.42 1126.78 L 584.48 1124.92 L 575.89 1115.79 L 568.39 1110.95 L 566.34 1107.51 L 564.19 1105.66 L 559.75 1105.29 L 553.95 1106.15 L 548.42 1105.66 L 546.27 1102.67 L 547.14 1094.89 L 549.42 1087.97 L 548.51 1084.67 L 544.17 1079.83 L 543.66 1075.85 L 547.69 1072.82 L 554.04 1070.69 L 559.75 1066.89 L 571.09 1055.90 L 575.75 1045.86 L 575.48 1042.33 L 573.65 1037.35 L 573.42 1033.10 L 574.29 1030.39 L 597.46 989.59 L 598.93 984.25 L 598.52 976.06 L 595.54 973.71 L 587.82 973.21 L 584.48 970.90 L 583.98 968.64 L 593.21 946.12 L 593.08 943.09 L 589.33 939.97 L 584.21 937.84 L 581.51 935.58 L 579.87 932.28 L 579.82 929.15 L 581.83 923.82 L 582.11 908.48 L 589.01 894.41 L 597.42 894.23 L 617.81 891.34 L 633.76 893.24 L 638.38 893.19 L 664.70 889.74 L 672.32 890.60 L 682.41 886.77 L 697.30 885.99 L 700.36 885.53 L 705.77 885.52 L 711.90 884.66 L 724.35 887.09 L 726.40 890.60 L 734.39 894.96 L 740.24 897.25 L 745.63 898.32 L 753.53 901.25 L 763.10 902.40 L 770.25 902.33 L 776.39 901.11 L 784.74 902.78 L 799.78 908.35 L 809.15 910.56 L 816.92 914.50 L 828.53 923.73 L 840.14 930.51 L 856.48 934.45 L 901.53 954.30 L 909.35 954.12 L 917.34 955.41 L 929.79 959.48 L 939.36 964.06 L 949.12 967.78 L 958.97 973.36 L 965.75 977.87 L 969.59 982.44 L 981.34 987.78 L 986.55 992.12 L 993.23 999.85 L 1002.32 1006.41 L 1019.83 1026.50 L 1022.25 1031.34 L 1024.22 1039.21 L 1030.85 1046.26 L 1043.01 1065.40 L 1049.45 1070.55 L 1055.26 1073.31 L 1059.19 1074.13 L 1067.51 1074.35 L 1084.05 1077.34 L 1090.13 1077.47 L 1114.95 1080.14 L 1128.12 1082.95 L 1151.84 1091.50 L 1158.29 1093.13 L 1183.43 1096.65 L 1194.86 1097.38 L 1201.26 1099.14 L 1211.49 1104.03 L 1225.76 1113.66 L 1239.70 1121.49 L 1245.46 1123.48 L 1253.59 1125.11 L 1260.91 1125.56 L 1266.39 1126.64 L 1287.01 1133.70 L 1307.12 1138.40 L 1324.54 1145.05 L 1333.91 1150.21 L 1339.87 1166.79 L 1347.90 1171.20 L 1393.97 1174.83 L 1424.04 1176.09 L 1443.91 1175.67 L 1456.86 1172.51 L 1469.58 1171.89 L 1497.19 1172.24 L 1500.43 1173.78 L 1501.57 1175.41 L 1501.89 1178.48 L 1498.97 1184.45 L 1487.45 1200.01 L 1474.95 1205.17 L 1457.77 1216.01 L 1452.98 1228.16 L 1448.05 1233.25 L 1440.45 1237.59 L 1438.76 1239.22 L 1438.48 1248.65 L 1437.35 1254.51 L 1437.21 1261.12 L 1438.48 1266.54 L 1451.02 1283.92 L 1452.85 1289.39 L 1453.67 1302.65 L 1457.44 1313.43 L 1456.06 1332.76 L 1460.17 1347.95 L 1457.78 1357.58 L 1463.50 1370.41 L 1484.78 1404.47 L 1496.26 1415.06 L 1521.09 1431.29 L 1552.45 1453.50 L 1560.22 1461.64 L 1588.37 1468.22 L 1607.33 1483.10 L 1619.96 1495.98 L 1619.78 1506.00 L 1622.01 1518.30 L 1621.27 1528.89 L 1622.94 1537.91 L 1620.34 1546.06 L 1615.69 1552.07 L 1609.77 1562.33 L 1607.85 1572.28 L 1605.93 1575.45 L 1600.22 1580.65 L 1597.84 1583.77 L 1585.59 1609.92 L 1582.07 1613.36 L 1577.74 1620.13 L 1565.95 1631.86 L 1556.64 1643.79 L 1546.02 1655.95 L 1538.51 1659.86 L 1528.64 1665.99 L 1518.66 1670.45 L 1515.78 1675.21 L 1518.98 1681.06 L 1519.26 1689.21 L 1520.04 1692.79 L 1522.97 1702.19 L 1525.71 1706.94 L 1539.56 1724.99 L 1555.19 1738.52 L 1572.84 1748.60 L 1594.41 1756.07 L 1616.71 1761.17 L 1630.37 1766.59 L 1636.19 1773.59 L 1649.59 1788.36 L 1653.29 1799.72 L 1655.34 1811.61 L 1652.92 1823.60" pathLength="1" fill="none" vector-effect="non-scaling-stroke"/>
  <path class="trace-line" d="M 880.71 1593.24 L 875.08 1589.93 L 875.99 1588.14 L 878.10 1586.46 L 879.30 1584.94 L 879.16 1583.15 L 877.05 1580.66 L 876.56 1576.59 L 874.06 1572.15 L 862.54 1562.56 L 860.12 1558.17 L 857.24 1545.55 L 857.19 1538.00 L 855.27 1532.70 L 849.65 1526.01 L 844.99 1516.83 L 841.33 1513.21 L 834.02 1508.73 L 831.82 1506.15 L 829.95 1497.47 L 830.68 1489.10 L 828.62 1486.34 L 823.59 1483.36 L 814.91 1475.44 L 807.60 1464.40 L 803.16 1459.61 L 800.79 1458.07 L 779.74 1452.99 L 778.52 1451.30 L 779.58 1450.68 L 784.75 1450.62 L 785.24 1450.00 L 784.59 1448.94 L 778.61 1445.63 L 772.22 1440.46 L 773.27 1438.47 L 775.45 1437.60 L 774.00 1435.45 L 771.53 1433.37 L 762.39 1429.66 L 745.48 1411.75 L 735.14 1404.42 L 732.81 1402.03 L 733.04 1399.54 L 735.42 1397.77 L 755.85 1392.39 L 758.87 1390.58 L 759.92 1388.00 L 758.18 1384.29 L 754.71 1380.72 L 752.33 1376.83 L 750.96 1367.24 L 749.27 1361.41 L 750.00 1352.40 L 749.22 1345.44 L 752.15 1339.51 L 752.65 1336.44 L 751.83 1333.27 L 744.33 1320.15 L 741.00 1310.56 L 732.17 1293.01 L 720.01 1273.38 L 718.69 1265.51 L 716.63 1259.31 L 714.99 1244.12 L 712.47 1237.24 L 709.87 1233.35 L 705.71 1230.45 L 690.44 1224.48 L 686.74 1222.36 L 677.64 1212.99 L 668.59 1207.61 L 658.58 1199.11 L 655.06 1190.83 L 652.32 1187.44 L 639.20 1175.86 L 638.01 1172.51 L 638.74 1164.87 L 636.68 1157.45 L 634.08 1154.60 L 628.00 1151.16 L 623.02 1145.14 L 616.02 1142.02 L 610.90 1137.73 L 608.94 1135.10 L 605.97 1128.23 L 602.86 1126.55 L 593.90 1127.32 L 589.42 1126.78 L 584.48 1124.92 L 575.89 1115.79 L 568.39 1110.95 L 566.34 1107.51 L 564.19 1105.66 L 559.75 1105.29 L 553.95 1106.15 L 548.42 1105.66 L 546.27 1102.67 L 547.14 1094.89 L 549.42 1087.97 L 548.51 1084.67 L 544.17 1079.83 L 543.66 1075.85 L 547.69 1072.82 L 554.04 1070.69 L 559.75 1066.89 L 571.09 1055.90 L 575.75 1045.86 L 575.48 1042.33 L 573.65 1037.35 L 573.42 1033.10 L 574.29 1030.39 L 597.46 989.59 L 598.93 984.25 L 598.52 976.06 L 595.54 973.71 L 587.82 973.21 L 584.48 970.90 L 583.98 968.64 L 593.21 946.12 L 593.08 943.09 L 589.33 939.97 L 584.21 937.84 L 581.51 935.58 L 579.87 932.28 L 579.82 929.15 L 581.83 923.82 L 582.11 908.48 L 589.01 894.41 L 597.42 894.23 L 617.81 891.34 L 633.76 893.24 L 638.38 893.19 L 664.70 889.74 L 672.32 890.60 L 682.41 886.77 L 697.30 885.99 L 700.36 885.53 L 705.77 885.52 L 711.90 884.66 L 724.35 887.09 L 726.40 890.60 L 734.39 894.96 L 740.24 897.25 L 745.63 898.32 L 753.53 901.25 L 763.10 902.40 L 770.25 902.33 L 776.39 901.11 L 784.74 902.78 L 799.78 908.35 L 809.15 910.56 L 816.92 914.50 L 828.53 923.73 L 840.14 930.51 L 856.48 934.45 L 901.53 954.30 L 909.35 954.12 L 917.34 955.41 L 929.79 959.48 L 939.36 964.06 L 949.12 967.78 L 958.97 973.36 L 965.75 977.87 L 969.59 982.44 L 981.34 987.78 L 986.55 992.12 L 993.23 999.85 L 1002.32 1006.41 L 1019.83 1026.50 L 1022.25 1031.34 L 1024.22 1039.21 L 1030.85 1046.26 L 1043.01 1065.40 L 1049.45 1070.55 L 1055.26 1073.31 L 1059.19 1074.13 L 1067.51 1074.35 L 1084.05 1077.34 L 1090.13 1077.47 L 1114.95 1080.14 L 1128.12 1082.95 L 1151.84 1091.50 L 1158.29 1093.13 L 1183.43 1096.65 L 1194.86 1097.38 L 1201.26 1099.14 L 1211.49 1104.03 L 1225.76 1113.66 L 1239.70 1121.49 L 1245.46 1123.48 L 1253.59 1125.11 L 1260.91 1125.56 L 1266.39 1126.64 L 1287.01 1133.70 L 1307.12 1138.40 L 1324.54 1145.05 L 1333.91 1150.21 L 1339.87 1166.79 L 1347.90 1171.20 L 1393.97 1174.83 L 1424.04 1176.09 L 1443.91 1175.67 L 1456.86 1172.51 L 1469.58 1171.89 L 1497.19 1172.24 L 1500.43 1173.78 L 1501.57 1175.41 L 1501.89 1178.48 L 1498.97 1184.45 L 1487.45 1200.01 L 1474.95 1205.17 L 1457.77 1216.01 L 1452.98 1228.16 L 1448.05 1233.25 L 1440.45 1237.59 L 1438.76 1239.22 L 1438.48 1248.65 L 1437.35 1254.51 L 1437.21 1261.12 L 1438.48 1266.54 L 1451.02 1283.92 L 1452.85 1289.39 L 1453.67 1302.65 L 1457.44 1313.43 L 1456.06 1332.76 L 1460.17 1347.95 L 1457.78 1357.58 L 1463.50 1370.41 L 1484.78 1404.47 L 1496.26 1415.06 L 1521.09 1431.29 L 1552.45 1453.50 L 1560.22 1461.64 L 1588.37 1468.22 L 1607.33 1483.10 L 1619.96 1495.98 L 1619.78 1506.00 L 1622.01 1518.30 L 1621.27 1528.89 L 1622.94 1537.91 L 1620.34 1546.06 L 1615.69 1552.07 L 1609.77 1562.33 L 1607.85 1572.28 L 1605.93 1575.45 L 1600.22 1580.65 L 1597.84 1583.77 L 1585.59 1609.92 L 1582.07 1613.36 L 1577.74 1620.13 L 1565.95 1631.86 L 1556.64 1643.79 L 1546.02 1655.95 L 1538.51 1659.86 L 1528.64 1665.99 L 1518.66 1670.45 L 1515.78 1675.21 L 1518.98 1681.06 L 1519.26 1689.21 L 1520.04 1692.79 L 1522.97 1702.19 L 1525.71 1706.94 L 1539.56 1724.99 L 1555.19 1738.52 L 1572.84 1748.60 L 1594.41 1756.07 L 1616.71 1761.17 L 1630.37 1766.59 L 1636.19 1773.59 L 1649.59 1788.36 L 1653.29 1799.72 L 1655.34 1811.61 L 1652.92 1823.60" pathLength="1" fill="none" vector-effect="non-scaling-stroke"/>
</svg>
