<svg xmlns="http://www.w3.org/2000/svg" viewBox="-106.3242220 -38.9267164 0.0291840 0.0249091" preserveAspectRatio="xMidYMid meet">
  <path d="M -106.3144165 -38.9089758 L -106.3145397 -38.9090489 L -106.3145197 -38.9090885 L -106.3144735 -38.9091257 L -106.3144473 -38.9091592 L -106.3144504 -38.9091988 L -106.3144966 -38.9092539 L -106.3145074 -38.9093438 L -106.3145620 -38.9094420 L -106.3148140 -38.9096540 L -106.3148670 -38.9097510 L -106.3149300 -38.9100300 L -106.3149310 -38.9101970 L -106.3149730 -38.9103140 L -106.3150960 -38.9104620 L -106.3151980 -38.9106650 L -106.3152780 -38.9107450 L -106.3154380 -38.9108440 L -106.3154860 -38.9109010 L -106.3155270 -38.9110930 L -106.3155110 -38.9112780 L -106.3155560 -38.9113390 L -106.3156660 -38.9114050 L -106.3158560 -38.9115800 L -106.3160160 -38.9118240 L -106.3161130 -38.9119300 L -106.3161650 -38.9119640 L -106.3166255 -38.9120764 L -106.3166520 -38.9121136 L -106.3166290 -38.9121273 L -106.3165158 -38.9121287 L -106.3165051 -38.9121425 L -106.3165193 -38.9121659 L -106.3166502 -38.9122389 L -106.3167900 -38.9123532 L -106.3167670 -38.9123972 L -106.3167193 -38.9124165 L -106.3167510 -38.9124640 L -106.3168050 -38.9125100 L -106.3170050 -38.9125920 L -106.3173750 -38.9129880 L -106.3176010 -38.9131500 L -106.3176520 -38.9132030 L -106.3176470 -38.9132580 L -106.3175950 -38.9132970 L -106.3171480 -38.9134160 L -106.3170820 -38.9134560 L -106.3170590 -38.9135130 L -106.3170970 -38.9135950 L -106.3171730 -38.9136740 L -106.3172250 -38.9137600 L -106.3172550 -38.9139720 L -106.3172920 -38.9141010 L -106.3172760 -38.9143000 L -106.3172930 -38.9144540 L -106.3172290 -38.9145850 L -106.3172180 -38.9146530 L -106.3172360 -38.9147230 L -106.3174000 -38.9150130 L -106.3174730 -38.9152250 L -106.3176660 -38.9156130 L -106.3179320 -38.9160470 L -106.3179610 -38.9162210 L -106.3180060 -38.9163580 L -106.3180420 -38.9166940 L -106.3180970 -38.9168460 L -106.3181540 -38.9169320 L -106.3182450 -38.9169960 L -106.3185790 -38.9171280 L -106.3186600 -38.9171750 L -106.3188590 -38.9173820 L -106.3190570 -38.9175010 L -106.3192760 -38.9176890 L -106.3193530 -38.9178720 L -106.3194130 -38.9179470 L -106.3197000 -38.9182030 L -106.3197260 -38.9182770 L -106.3197100 -38.9184460 L -106.3197550 -38.9186100 L -106.3198120 -38.9186730 L -106.3199450 -38.9187490 L -106.3200540 -38.9188820 L -106.3202070 -38.9189510 L -106.3203190 -38.9190460 L -106.3203620 -38.9191040 L -106.3204270 -38.9192560 L -106.3204950 -38.9192930 L -106.3206910 -38.9192760 L -106.3207890 -38.9192880 L -106.3208970 -38.9193290 L -106.3210850 -38.9195310 L -106.3212490 -38.9196380 L -106.3212940 -38.9197140 L -106.3213410 -38.9197550 L -106.3214380 -38.9197630 L -106.3215650 -38.9197440 L -106.3216860 -38.9197550 L -106.3217330 -38.9198210 L -106.3217140 -38.9199930 L -106.3216640 -38.9201460 L -106.3216840 -38.9202190 L -106.3217790 -38.9203260 L -106.3217900 -38.9204140 L -106.3217020 -38.9204810 L -106.3215630 -38.9205280 L -106.3214380 -38.9206120 L -106.3211900 -38.9208550 L -106.3210880 -38.9210770 L -106.3210940 -38.9211550 L -106.3211340 -38.9212650 L -106.3211390 -38.9213590 L -106.3211200 -38.9214190 L -106.3206130 -38.9223210 L -106.3205810 -38.9224390 L -106.3205900 -38.9226200 L -106.3206550 -38.9226720 L -106.3208240 -38.9226830 L -106.3208970 -38.9227340 L -106.3209080 -38.9227840 L -106.3207060 -38.9232820 L -106.3207090 -38.9233490 L -106.3207910 -38.9234180 L -106.3209030 -38.9234650 L -106.3209620 -38.9235150 L -106.3209980 -38.9235880 L -106.3209990 -38.9236570 L -106.3209550 -38.9237750 L -106.3209490 -38.9241140 L -106.3207980 -38.9244250 L -106.3206140 -38.9244290 L -106.3201680 -38.9244930 L -106.3198190 -38.9244510 L -106.3197180 -38.9244520 L -106.3191422 -38.9245284 L -106.3189755 -38.9245094 L -106.3187547 -38.9245941 L -106.3184290 -38.9246113 L -106.3183620 -38.9246214 L -106.3182437 -38.9246217 L -106.3181095 -38.9246406 L -106.3178372 -38.9245869 L -106.3177924 -38.9245094 L -106.3176176 -38.9244129 L -106.3174896 -38.9243623 L -106.3173717 -38.9243386 L -106.3171989 -38.9242738 L -106.3169895 -38.9242485 L -106.3168330 -38.9242500 L -106.3166988 -38.9242769 L -106.3165160 -38.9242400 L -106.3161870 -38.9241170 L -106.3159820 -38.9240680 L -106.3158120 -38.9239810 L -106.3155580 -38.9237770 L -106.3153040 -38.9236270 L -106.3149466 -38.9235400 L -106.3139610 -38.9231010 L -106.3137900 -38.9231051 L -106.3136152 -38.9230766 L -106.3133428 -38.9229865 L -106.3131334 -38.9228853 L -106.3129200 -38.9228030 L -106.3127045 -38.9226797 L -106.3125561 -38.9225800 L -106.3124720 -38.9224790 L -106.3122150 -38.9223610 L -106.3121010 -38.9222650 L -106.3119550 -38.9220940 L -106.3117560 -38.9219490 L -106.3113730 -38.9215050 L -106.3113200 -38.9213980 L -106.3112770 -38.9212240 L -106.3111320 -38.9210680 L -106.3108660 -38.9206450 L -106.3107250 -38.9205310 L -106.3105980 -38.9204700 L -106.3105120 -38.9204520 L -106.3103300 -38.9204470 L -106.3099680 -38.9203810 L -106.3098350 -38.9203780 L -106.3092920 -38.9203190 L -106.3090040 -38.9202570 L -106.3084850 -38.9200680 L -106.3083440 -38.9200320 L -106.3077940 -38.9199540 L -106.3075440 -38.9199380 L -106.3074040 -38.9198990 L -106.3071800 -38.9197910 L -106.3068680 -38.9195780 L -106.3065630 -38.9194050 L -106.3064370 -38.9193610 L -106.3062590 -38.9193250 L -106.3060990 -38.9193150 L -106.3059790 -38.9192910 L -106.3055280 -38.9191350 L -106.3050880 -38.9190310 L -106.3047070 -38.9188840 L -106.3045020 -38.9187700 L -106.3043716 -38.9184034 L -106.3041958 -38.9183059 L -106.3031880 -38.9182258 L -106.3025303 -38.9181979 L -106.3020955 -38.9182071 L -106.3018123 -38.9182770 L -106.3015339 -38.9182908 L -106.3009300 -38.9182830 L -106.3008590 -38.9182490 L -106.3008340 -38.9182130 L -106.3008270 -38.9181450 L -106.3008910 -38.9180130 L -106.3011430 -38.9176690 L -106.3014164 -38.9175550 L -106.3017923 -38.9173153 L -106.3018970 -38.9170468 L -106.3020049 -38.9169341 L -106.3021712 -38.9168383 L -106.3022082 -38.9168023 L -106.3022144 -38.9165937 L -106.3022390 -38.9164643 L -106.3022421 -38.9163181 L -106.3022144 -38.9161982 L -106.3019400 -38.9158140 L -106.3019000 -38.9156930 L -106.3018820 -38.9154000 L -106.3017996 -38.9151616 L -106.3018298 -38.9147343 L -106.3017399 -38.9143985 L -106.3017920 -38.9141856 L -106.3016670 -38.9139020 L -106.3012015 -38.9131489 L -106.3009502 -38.9129148 L -106.3004070 -38.9125560 L -106.2997210 -38.9120650 L -106.2995510 -38.9118850 L -106.2989351 -38.9117396 L -106.2985204 -38.9114106 L -106.2982440 -38.9111259 L -106.2982481 -38.9109044 L -106.2981993 -38.9106324 L -106.2982155 -38.9103983 L -106.2981789 -38.9101990 L -106.2982359 -38.9100187 L -106.2983375 -38.9098858 L -106.2984670 -38.9096590 L -106.2985090 -38.9094390 L -106.2985510 -38.9093690 L -106.2986760 -38.9092540 L -106.2987280 -38.9091850 L -106.2989960 -38.9086070 L -106.2990730 -38.9085310 L -106.2991677 -38.9083812 L -106.2994257 -38.9081220 L -106.2996294 -38.9078582 L -106.2998616 -38.9075893 L -106.3000260 -38.9075030 L -106.3002418 -38.9073674 L -106.3004603 -38.9072689 L -106.3005233 -38.9071635 L -106.3004532 -38.9070343 L -106.3004470 -38.9068540 L -106.3004300 -38.9067750 L -106.3003660 -38.9065670 L -106.3003060 -38.9064620 L -106.3000030 -38.9060630 L -106.2996610 -38.9057640 L -106.2992750 -38.9055410 L -106.2988030 -38.9053760 L -106.2983152 -38.9052633 L -106.2980164 -38.9051434 L -106.2978891 -38.9049886 L -106.2975960 -38.9046620 L -106.2975150 -38.9044110 L -106.2974700 -38.9041480 L -106.2975230 -38.9038830" pathLength="1" fill="none" stroke="currentColor" vector-effect="non-scaling-stroke"/>
</svg>
