<svg xmlns="http://www.w3.org/2000/svg" viewBox="0 0 1600 900" preserveAspectRatio="xMidYMid slice">
  <path class="trace-line" d="M 741.62 1026.59 L 731.97 1017.93 L 729.85 1011.72 L 724.29 1008.77 L 719.87 1004.69 L 720.04 1000.93 L 722.16 997.98 L 723.30 992.26 L 723.80 986.86 L 721.83 977.54 L 724.05 965.40 L 716.29 950.64 L 717.37 939.91 L 713.81 927.21 L 711.27 878.41 L 707.36 873.46 L 699.79 853.12 L 700.76 841.49 L 695.23 825.46 L 686.61 812.29 L 687.18 796.44 L 684.10 791.50 L 686.48 786.04 L 679.89 772.31 L 675.88 746.10 L 669.37 731.80 L 665.66 715.83 L 653.42 680.49 L 644.48 669.86 L 639.72 654.35 L 638.36 643.01 L 634.03 624.84 L 638.61 618.48 L 641.32 618.85 L 642.36 615.71 L 643.69 605.54 L 641.28 592.35 L 645.62 582.45 L 647.12 570.58 L 640.47 563.13 L 636.73 554.10 L 630.68 547.31 L 619.30 517.82 L 614.43 515.10 L 599.33 491.84 L 600.76 484.08 L 607.42 479.55 L 608.57 476.78 L 607.45 451.56 L 607.96 445.26 L 610.59 442.54 L 612.07 438.10 L 611.27 435.12 L 600.13 429.16 L 596.27 422.02 L 597.48 417.56 L 594.00 400.39 L 588.96 387.00 L 589.15 383.64 L 584.25 375.67 L 580.34 364.28 L 559.92 347.66 L 529.17 328.37 L 528.31 324.22 L 523.45 315.00 L 521.37 295.41 L 518.80 291.91 L 518.33 288.22 L 520.27 279.85 L 519.35 275.43 L 504.06 223.25 L 500.19 216.62 L 496.60 205.25 L 492.26 178.46 L 489.22 169.16 L 490.50 157.34 L 488.73 150.61 L 491.75 129.02 L 489.69 113.70 L 486.93 112.28 L 483.46 112.41 L 479.96 106.48 L 479.13 100.13 L 480.51 93.93 L 479.19 88.35 L 475.72 84.96 L 471.54 77.87 L 469.27 68.49 L 468.12 58.40 L 469.13 46.67 L 473.33 30.38 L 473.02 21.99 L 483.77 7.78 L 493.40 -14.89 L 502.13 -30.58 L 505.80 -43.22 L 506.75 -51.11 L 514.38 -68.89 L 518.03 -93.73 L 518.37 -105.73 L 517.40 -112.62 L 514.00 -121.86 L 514.40 -126.59 L 518.37 -105.73 L 523.92 -98.76 L 526.79 -83.06 L 529.04 -79.23 L 531.18 -66.15 L 530.03 -61.18 L 532.65 -59.53 L 535.07 -51.39 L 530.70 -45.76 L 530.55 -36.95 L 526.77 -22.07 L 522.42 -15.52 L 521.32 -11.17 L 520.94 -6.38 L 522.85 0.38 L 516.20 34.92 L 518.38 45.54 L 516.65 49.83 L 514.04 52.26 L 515.08 56.05 L 517.76 58.44 L 517.94 61.62 L 521.84 69.42 L 525.70 59.52 L 527.81 56.19 L 529.92 55.79 L 530.78 57.25 L 529.81 62.52 L 533.73 70.61 L 535.25 79.39 L 539.04 89.21 L 541.20 90.87 L 544.65 77.23 L 547.91 68.69 L 551.55 63.38 L 556.06 75.50 L 558.44 94.15 L 559.85 97.83 L 561.29 97.33 L 569.02 86.57 L 573.85 75.52 L 577.96 82.95 L 582.03 77.52 L 585.67 87.19 L 588.30 82.10 L 589.37 80.75 L 590.08 81.32 L 592.54 90.83 L 599.44 82.12 L 600.96 89.58 L 605.20 84.61 L 606.87 84.95 L 607.93 95.36 L 615.32 85.62 L 619.33 82.21 L 620.09 91.61 L 623.65 87.08 L 624.91 87.52 L 625.83 96.00 L 625.03 97.71 L 639.22 88.61 L 640.06 97.00 L 646.25 90.42 L 647.00 115.04 L 639.10 133.31 L 639.44 134.77 L 640.51 134.44 L 645.39 129.50 L 650.27 129.88 L 658.22 125.44 L 655.94 133.50 L 649.59 139.01 L 647.55 145.68 L 650.86 154.27 L 657.77 164.81 L 685.90 196.01 L 690.92 198.56 L 699.36 199.97 L 701.38 202.25 L 703.93 202.98 L 721.23 204.25 L 726.63 206.17 L 728.02 205.45 L 724.38 192.62 L 724.57 185.59 L 734.10 190.76 L 747.14 194.11 L 756.18 201.68 L 758.87 202.64 L 761.15 194.96 L 760.22 190.81 L 760.75 184.01 L 750.89 170.12 L 752.90 162.83 L 755.35 160.16 L 758.42 163.51 L 765.52 165.40 L 767.64 164.60 L 769.57 160.09 L 779.76 158.38 L 782.93 156.79 L 784.35 154.14 L 787.18 153.17 L 811.35 153.09 L 815.71 154.10 L 821.23 152.47 L 835.83 142.82 L 850.21 141.51 L 862.56 143.17 L 878.34 142.45 L 884.30 149.15 L 890.26 153.22 L 894.64 155.47 L 899.56 156.16 L 904.65 153.15 L 913.81 143.04 L 919.85 139.03 L 930.80 138.70 L 943.35 141.95 L 954.30 137.71 L 970.39 139.92 L 976.10 142.05 L 982.90 139.83 L 995.45 130.91 L 999.23 129.83 L 1001.91 126.81 L 1000.36 125.16 L 1003.33 121.81 L 1004.08 118.84 L 1007.29 117.47 L 1026.55 124.60 L 1029.95 128.92 L 1031.95 128.00 L 1034.53 130.07 L 1037.32 126.57 L 1039.39 128.07 L 1043.54 138.70 L 1046.04 151.80 L 1054.34 147.15 L 1055.20 147.87 L 1054.41 151.23 L 1059.35 161.38 L 1057.60 166.10 L 1058.83 171.14 L 1060.81 172.13 L 1057.70 184.58 L 1058.31 185.81 L 1065.77 184.02 L 1065.91 198.03 L 1082.66 193.03 L 1087.33 190.29 L 1088.28 191.52 L 1087.57 196.99 L 1088.56 199.53 L 1087.33 205.33 L 1094.69 203.87 L 1090.40 220.76 L 1099.41 220.52 L 1100.55 221.94 L 1096.68 224.72 L 1095.03 228.44 L 1112.34 224.95 L 1105.08 236.84 L 1109.23 236.55 L 1107.95 239.24 L 1116.40 238.16 L 1113.71 243.58 L 1131.88 241.04 L 1129.71 245.85 L 1122.02 256.03 L 1113.15 265.32 L 1108.52 274.81 L 1126.45 271.79 L 1123.48 275.70 L 1120.60 282.73 L 1130.18 282.59 L 1127.26 289.19 L 1121.74 293.95 L 1120.60 298.58 L 1115.37 306.12 L 1110.46 317.87 L 1113.67 319.95 L 1113.17 322.63 L 1107.94 331.15 L 1113.54 334.82 L 1114.85 338.12 L 1114.23 341.23 L 1117.15 347.87 L 1123.76 355.80 L 1124.07 360.65 L 1121.76 363.76 L 1118.59 375.27 L 1118.77 379.69 L 1120.83 383.74 L 1123.59 386.10" pathLength="1" fill="none" vector-effect="non-scaling-stroke"/>
  <circle class="trace-start" cx="741.62" cy="1026.59" r="4.62"/>
  <circle class="trace-summit-halo" cx="1123.54" cy="384.71" r="11.79"/>
  <circle class="trace-summit" cx="1123.54" cy="384.71" r="6.67"/>
</svg>
