<svg xmlns="http://www.w3.org/2000/svg" viewBox="0 0 2000 2500" preserveAspectRatio="none">
  <path class="trace-underlay" d="M 985.42 2256.64 L 970.35 2246.20 L 967.03 2238.72 L 951.45 2230.25 L 951.70 2225.72 L 955.02 2222.18 L 956.81 2215.28 L 957.58 2208.78 L 954.51 2197.56 L 957.98 2182.94 L 945.85 2165.16 L 947.54 2152.24 L 941.98 2136.94 L 938.01 2078.17 L 931.91 2072.21 L 920.09 2047.71 L 921.61 2033.70 L 912.97 2014.40 L 899.50 1998.53 L 900.39 1979.45 L 895.59 1973.50 L 899.29 1966.92 L 889.01 1950.39 L 882.74 1918.83 L 872.57 1901.60 L 866.79 1882.37 L 847.67 1839.81 L 833.71 1827.00 L 826.27 1808.32 L 824.15 1794.66 L 817.38 1772.78 L 824.53 1765.12 L 828.76 1765.57 L 830.39 1761.78 L 832.47 1749.54 L 828.70 1733.66 L 835.48 1721.72 L 837.83 1707.43 L 827.43 1698.47 L 821.61 1687.58 L 812.15 1679.41 L 794.37 1643.89 L 786.78 1640.61 L 763.19 1612.61 L 765.43 1603.26 L 775.82 1597.80 L 777.62 1594.46 L 775.87 1564.09 L 776.67 1556.50 L 780.77 1553.23 L 783.09 1547.88 L 781.84 1544.29 L 764.43 1537.12 L 758.40 1528.51 L 760.30 1523.14 L 754.87 1502.46 L 747.00 1486.34 L 747.30 1482.30 L 739.63 1472.69 L 733.53 1458.98 L 701.64 1438.96 L 653.62 1415.72 L 652.28 1410.73 L 644.68 1399.62 L 641.44 1376.03 L 637.41 1371.81 L 636.69 1367.37 L 639.71 1357.30 L 638.27 1351.97 L 614.39 1289.13 L 608.35 1281.14 L 602.75 1267.45 L 595.97 1235.18 L 591.22 1223.99 L 593.22 1209.74 L 590.46 1201.64 L 595.17 1175.63 L 591.95 1157.19 L 582.23 1155.64 L 576.76 1148.49 L 575.46 1140.84 L 577.62 1133.38 L 575.55 1126.66 L 563.60 1114.03 L 560.06 1102.73 L 558.27 1090.58 L 559.85 1076.46 L 566.41 1056.84 L 565.92 1046.73 L 582.70 1029.63 L 597.76 1002.32 L 611.39 983.42 L 618.59 958.70 L 630.52 937.28 L 636.21 907.37 L 636.74 892.91 L 635.24 884.62 L 629.93 873.50 L 630.55 867.79 L 636.74 892.91 L 645.41 901.31 L 649.90 920.22 L 653.41 924.83 L 656.75 940.59 L 654.95 946.57 L 659.05 948.56 L 662.83 958.37 L 656.00 965.15 L 655.77 975.75 L 649.86 993.67 L 643.07 1001.57 L 641.36 1006.80 L 640.76 1012.57 L 643.75 1020.71 L 633.36 1062.31 L 636.77 1075.10 L 634.07 1080.27 L 629.99 1083.20 L 642.16 1103.86 L 648.20 1091.93 L 651.49 1087.93 L 654.78 1087.44 L 656.13 1089.20 L 654.62 1095.54 L 660.73 1105.30 L 663.12 1115.87 L 669.02 1127.69 L 672.41 1129.70 L 677.80 1113.27 L 682.89 1102.98 L 688.57 1096.58 L 695.61 1111.19 L 701.53 1138.08 L 715.85 1124.51 L 723.39 1111.21 L 729.82 1120.15 L 736.17 1113.62 L 741.86 1125.26 L 745.97 1119.13 L 748.74 1118.19 L 752.58 1129.65 L 763.36 1119.16 L 765.73 1128.14 L 772.36 1122.16 L 774.96 1122.56 L 776.62 1135.10 L 794.42 1119.26 L 795.61 1130.59 L 801.18 1125.13 L 803.14 1125.66 L 804.58 1135.87 L 803.32 1137.93 L 825.48 1126.97 L 826.80 1137.08 L 836.48 1129.15 L 837.64 1158.80 L 825.30 1180.80 L 827.50 1182.17 L 835.13 1176.22 L 842.75 1176.68 L 855.16 1171.32 L 851.60 1181.03 L 841.69 1187.67 L 838.49 1195.70 L 843.66 1206.05 L 854.46 1218.75 L 898.39 1256.32 L 906.23 1259.39 L 919.41 1261.09 L 926.55 1264.72 L 953.57 1266.24 L 962.00 1268.56 L 964.17 1267.69 L 958.49 1252.24 L 958.78 1243.77 L 973.67 1250.00 L 994.04 1254.03 L 1012.36 1264.31 L 1015.92 1255.06 L 1015.29 1241.86 L 999.88 1225.13 L 1003.04 1216.35 L 1006.85 1213.15 L 1011.66 1217.18 L 1022.73 1219.46 L 1026.05 1218.49 L 1029.06 1213.06 L 1044.98 1211.00 L 1056.57 1204.72 L 1101.13 1205.85 L 1109.75 1203.88 L 1132.56 1192.26 L 1155.01 1190.68 L 1174.30 1192.68 L 1198.93 1191.81 L 1208.25 1199.88 L 1217.55 1204.79 L 1232.07 1208.33 L 1240.04 1204.70 L 1254.33 1192.52 L 1263.77 1187.69 L 1280.87 1187.29 L 1300.47 1191.21 L 1317.57 1186.10 L 1351.62 1191.33 L 1362.23 1188.66 L 1381.84 1177.92 L 1387.74 1176.61 L 1391.93 1172.98 L 1389.50 1170.99 L 1395.32 1163.38 L 1400.34 1161.73 L 1430.41 1170.31 L 1435.72 1175.52 L 1438.85 1174.40 L 1442.87 1176.90 L 1447.23 1172.68 L 1450.47 1174.49 L 1456.94 1187.29 L 1460.86 1203.07 L 1475.15 1198.34 L 1473.93 1202.38 L 1481.63 1214.61 L 1478.91 1220.29 L 1480.82 1226.37 L 1483.92 1227.56 L 1479.05 1242.56 L 1480.01 1244.04 L 1491.66 1241.88 L 1491.88 1258.75 L 1525.34 1249.43 L 1527.25 1260.56 L 1525.34 1267.55 L 1536.84 1265.79 L 1530.13 1286.12 L 1544.21 1285.84 L 1545.98 1287.54 L 1539.93 1290.89 L 1537.35 1295.38 L 1564.40 1291.18 L 1553.05 1305.49 L 1559.54 1305.15 L 1557.55 1308.39 L 1570.74 1307.08 L 1566.54 1313.61 L 1594.91 1310.55 L 1579.51 1328.61 L 1565.66 1339.80 L 1558.43 1351.22 L 1586.44 1347.58 L 1577.30 1360.76 L 1592.26 1360.59 L 1587.69 1368.54 L 1579.07 1374.28 L 1577.30 1379.84 L 1569.12 1388.93 L 1561.45 1403.08 L 1566.47 1405.59 L 1565.69 1408.81 L 1557.52 1419.07 L 1566.28 1423.50 L 1568.32 1427.47 L 1567.35 1431.22 L 1571.90 1439.21 L 1582.22 1448.76 L 1582.71 1454.60 L 1579.11 1458.35 L 1574.15 1472.22 L 1574.44 1477.54 L 1581.97 1485.26" pathLength="1" fill="none" vector-effect="non-scaling-stroke"/>
  <path class="trace-line" d="M 985.42 2256.64 L 970.35 2246.20 L 967.03 2238.72 L 951.45 2230.25 L 951.70 2225.72 L 955.02 2222.18 L 956.81 2215.28 L 957.58 2208.78 L 954.51 2197.56 L 957.98 2182.94 L 945.85 2165.16 L 947.54 2152.24 L 941.98 2136.94 L 938.01 2078.17 L 931.91 2072.21 L 920.09 2047.71 L 921.61 2033.70 L 912.97 2014.40 L 899.50 1998.53 L 900.39 1979.45 L 895.59 1973.50 L 899.29 1966.92 L 889.01 1950.39 L 882.74 1918.83 L 872.57 1901.60 L 866.79 1882.37 L 847.67 1839.81 L 833.71 1827.00 L 826.27 1808.32 L 824.15 1794.66 L 817.38 1772.78 L 824.53 1765.12 L 828.76 1765.57 L 830.39 1761.78 L 832.47 1749.54 L 828.70 1733.66 L 835.48 1721.72 L 837.83 1707.43 L 827.43 1698.47 L 821.61 1687.58 L 812.15 1679.41 L 794.37 1643.89 L 786.78 1640.61 L 763.19 1612.61 L 765.43 1603.26 L 775.82 1597.80 L 777.62 1594.46 L 775.87 1564.09 L 776.67 1556.50 L 780.77 1553.23 L 783.09 1547.88 L 781.84 1544.29 L 764.43 1537.12 L 758.40 1528.51 L 760.30 1523.14 L 754.87 1502.46 L 747.00 1486.34 L 747.30 1482.30 L 739.63 1472.69 L 733.53 1458.98 L 701.64 1438.96 L 653.62 1415.72 L 652.28 1410.73 L 644.68 1399.62 L 641.44 1376.03 L 637.41 1371.81 L 636.69 1367.37 L 639.71 1357.30 L 638.27 1351.97 L 614.39 1289.13 L 608.35 1281.14 L 602.75 1267.45 L 595.97 1235.18 L 591.22 1223.99 L 593.22 1209.74 L 590.46 1201.64 L 595.17 1175.63 L 591.95 1157.19 L 582.23 1155.64 L 576.76 1148.49 L 575.46 1140.84 L 577.62 1133.38 L 575.55 1126.66 L 563.60 1114.03 L 560.06 1102.73 L 558.27 1090.58 L 559.85 1076.46 L 566.41 1056.84 L 565.92 1046.73 L 582.70 1029.63 L 597.76 1002.32 L 611.39 983.42 L 618.59 958.70 L 630.52 937.28 L 636.21 907.37 L 636.74 892.91 L 635.24 884.62 L 629.93 873.50 L 630.55 867.79 L 636.74 892.91 L 645.41 901.31 L 649.90 920.22 L 653.41 924.83 L 656.75 940.59 L 654.95 946.57 L 659.05 948.56 L 662.83 958.37 L 656.00 965.15 L 655.77 975.75 L 649.86 993.67 L 643.07 1001.57 L 641.36 1006.80 L 640.76 1012.57 L 643.75 1020.71 L 633.36 1062.31 L 636.77 1075.10 L 634.07 1080.27 L 629.99 1083.20 L 642.16 1103.86 L 648.20 1091.93 L 651.49 1087.93 L 654.78 1087.44 L 656.13 1089.20 L 654.62 1095.54 L 660.73 1105.30 L 663.12 1115.87 L 669.02 1127.69 L 672.41 1129.70 L 677.80 1113.27 L 682.89 1102.98 L 688.57 1096.58 L 695.61 1111.19 L 701.53 1138.08 L 715.85 1124.51 L 723.39 1111.21 L 729.82 1120.15 L 736.17 1113.62 L 741.86 1125.26 L 745.97 1119.13 L 748.74 1118.19 L 752.58 1129.65 L 763.36 1119.16 L 765.73 1128.14 L 772.36 1122.16 L 774.96 1122.56 L 776.62 1135.10 L 794.42 1119.26 L 795.61 1130.59 L 801.18 1125.13 L 803.14 1125.66 L 804.58 1135.87 L 803.32 1137.93 L 825.48 1126.97 L 826.80 1137.08 L 836.48 1129.15 L 837.64 1158.80 L 825.30 1180.80 L 827.50 1182.17 L 835.13 1176.22 L 842.75 1176.68 L 855.16 1171.32 L 851.60 1181.03 L 841.69 1187.67 L 838.49 1195.70 L 843.66 1206.05 L 854.46 1218.75 L 898.39 1256.32 L 906.23 1259.39 L 919.41 1261.09 L 926.55 1264.72 L 953.57 1266.24 L 962.00 1268.56 L 964.17 1267.69 L 958.49 1252.24 L 958.78 1243.77 L 973.67 1250.00 L 994.04 1254.03 L 1012.36 1264.31 L 1015.92 1255.06 L 1015.29 1241.86 L 999.88 1225.13 L 1003.04 1216.35 L 1006.85 1213.15 L 1011.66 1217.18 L 1022.73 1219.46 L 1026.05 1218.49 L 1029.06 1213.06 L 1044.98 1211.00 L 1056.57 1204.72 L 1101.13 1205.85 L 1109.75 1203.88 L 1132.56 1192.26 L 1155.01 1190.68 L 1174.30 1192.68 L 1198.93 1191.81 L 1208.25 1199.88 L 1217.55 1204.79 L 1232.07 1208.33 L 1240.04 1204.70 L 1254.33 1192.52 L 1263.77 1187.69 L 1280.87 1187.29 L 1300.47 1191.21 L 1317.57 1186.10 L 1351.62 1191.33 L 1362.23 1188.66 L 1381.84 1177.92 L 1387.74 1176.61 L 1391.93 1172.98 L 1389.50 1170.99 L 1395.32 1163.38 L 1400.34 1161.73 L 1430.41 1170.31 L 1435.72 1175.52 L 1438.85 1174.40 L 1442.87 1176.90 L 1447.23 1172.68 L 1450.47 1174.49 L 1456.94 1187.29 L 1460.86 1203.07 L 1475.15 1198.34 L 1473.93 1202.38 L 1481.63 1214.61 L 1478.91 1220.29 L 1480.82 1226.37 L 1483.92 1227.56 L 1479.05 1242.56 L 1480.01 1244.04 L 1491.66 1241.88 L 1491.88 1258.75 L 1525.34 1249.43 L 1527.25 1260.56 L 1525.34 1267.55 L 1536.84 1265.79 L 1530.13 1286.12 L 1544.21 1285.84 L 1545.98 1287.54 L 1539.93 1290.89 L 1537.35 1295.38 L 1564.40 1291.18 L 1553.05 1305.49 L 1559.54 1305.15 L 1557.55 1308.39 L 1570.74 1307.08 L 1566.54 1313.61 L 1594.91 1310.55 L 1579.51 1328.61 L 1565.66 1339.80 L 1558.43 1351.22 L 1586.44 1347.58 L 1577.30 1360.76 L 1592.26 1360.59 L 1587.69 1368.54 L 1579.07 1374.28 L 1577.30 1379.84 L 1569.12 1388.93 L 1561.45 1403.08 L 1566.47 1405.59 L 1565.69 1408.81 L 1557.52 1419.07 L 1566.28 1423.50 L 1568.32 1427.47 L 1567.35 1431.22 L 1571.90 1439.21 L 1582.22 1448.76 L 1582.71 1454.60 L 1579.11 1458.35 L 1574.15 1472.22 L 1574.44 1477.54 L 1581.97 1485.26" pathLength="1" fill="none" vector-effect="non-scaling-stroke"/>
</svg>
