<svg xmlns="http://www.w3.org/2000/svg" viewBox="0 0 2000 2500" preserveAspectRatio="xMidYMid slice">
  <path class="trace-line" d="M 920.95 2031.25 L 907.88 2019.51 L 905.00 2011.09 L 897.47 2007.10 L 891.49 2001.57 L 891.71 1996.47 L 894.59 1992.48 L 896.14 1984.73 L 896.81 1977.42 L 894.15 1964.79 L 897.16 1948.34 L 886.64 1928.34 L 888.10 1913.80 L 883.28 1896.59 L 879.84 1830.47 L 874.55 1823.76 L 864.30 1796.20 L 865.62 1780.45 L 858.13 1758.73 L 846.45 1740.87 L 847.22 1719.40 L 843.06 1712.72 L 846.27 1705.31 L 837.35 1686.71 L 831.91 1651.20 L 823.10 1631.83 L 818.09 1610.19 L 801.51 1562.31 L 789.40 1547.89 L 782.96 1526.88 L 781.12 1511.51 L 775.25 1486.90 L 781.45 1478.28 L 785.12 1478.79 L 786.52 1474.52 L 788.33 1460.75 L 785.06 1442.88 L 790.94 1429.46 L 792.98 1413.38 L 783.96 1403.29 L 778.91 1391.05 L 770.71 1381.85 L 755.30 1341.89 L 748.71 1338.20 L 728.26 1306.70 L 730.20 1296.18 L 739.21 1290.04 L 740.77 1286.28 L 739.25 1252.11 L 739.95 1243.57 L 743.50 1239.89 L 745.51 1233.88 L 744.43 1229.84 L 729.34 1221.77 L 724.11 1212.08 L 725.75 1206.05 L 721.05 1182.78 L 714.22 1164.64 L 714.48 1160.09 L 707.83 1149.29 L 702.54 1133.86 L 674.89 1111.34 L 633.25 1085.19 L 632.09 1079.58 L 625.50 1067.08 L 622.69 1040.54 L 619.20 1035.79 L 618.57 1030.79 L 621.20 1019.46 L 619.95 1013.47 L 599.24 942.77 L 594.00 933.78 L 589.15 918.38 L 583.27 882.08 L 579.15 869.48 L 580.89 853.46 L 578.49 844.34 L 582.58 815.09 L 579.78 794.33 L 576.06 792.41 L 571.35 792.59 L 566.61 784.55 L 565.49 775.94 L 567.36 767.55 L 565.56 759.99 L 560.87 755.39 L 555.20 745.78 L 552.13 733.07 L 550.58 719.40 L 551.95 703.51 L 557.64 681.44 L 557.21 670.07 L 571.77 650.82 L 584.82 620.10 L 596.64 598.84 L 601.60 581.72 L 602.88 571.02 L 613.22 546.93 L 618.16 513.28 L 618.62 497.01 L 617.32 487.69 L 612.71 475.17 L 613.26 468.75 L 618.62 497.01 L 626.14 506.46 L 630.03 527.74 L 633.07 532.92 L 635.97 550.65 L 634.41 557.38 L 637.96 559.62 L 641.24 570.65 L 635.32 578.28 L 635.12 590.21 L 630.00 610.38 L 624.11 619.25 L 622.62 625.14 L 622.10 631.63 L 624.69 640.79 L 615.69 687.59 L 618.64 701.98 L 616.30 707.80 L 612.76 711.09 L 614.17 716.22 L 617.80 719.47 L 618.04 723.78 L 623.32 734.33 L 628.55 720.92 L 631.41 716.42 L 634.26 715.86 L 635.43 717.84 L 634.12 724.98 L 639.42 735.96 L 641.49 747.85 L 646.61 761.15 L 649.55 763.41 L 654.22 744.92 L 658.63 733.35 L 663.56 726.15 L 669.66 742.58 L 672.88 767.84 L 674.80 772.83 L 676.74 772.15 L 687.21 757.57 L 693.75 742.61 L 699.32 752.67 L 704.83 745.32 L 709.77 758.41 L 713.33 751.52 L 714.77 749.70 L 715.73 750.46 L 719.06 763.35 L 728.41 751.55 L 730.47 761.65 L 736.21 754.92 L 738.46 755.37 L 739.90 769.49 L 749.91 756.29 L 755.34 751.66 L 756.37 764.41 L 761.20 758.27 L 762.90 758.87 L 764.15 770.35 L 763.06 772.67 L 782.27 760.33 L 783.41 771.71 L 791.80 762.79 L 792.81 796.15 L 782.11 820.90 L 782.58 822.88 L 784.02 822.44 L 790.64 815.74 L 797.25 816.26 L 808.01 810.23 L 804.92 821.16 L 796.32 828.62 L 793.55 837.66 L 798.03 849.30 L 807.40 863.59 L 845.49 905.86 L 852.29 909.31 L 863.72 911.22 L 866.45 914.31 L 869.90 915.31 L 893.33 917.02 L 900.64 919.63 L 902.52 918.66 L 897.60 901.27 L 897.85 891.74 L 910.76 898.75 L 928.42 903.28 L 940.67 913.54 L 944.31 914.85 L 947.40 904.44 L 946.14 898.82 L 946.85 889.60 L 933.49 870.77 L 936.22 860.90 L 939.53 857.29 L 943.70 861.82 L 953.30 864.39 L 956.18 863.30 L 958.79 857.19 L 972.59 854.88 L 976.88 852.72 L 978.80 849.13 L 982.64 847.81 L 1015.37 847.71 L 1021.27 849.08 L 1028.75 846.87 L 1048.53 833.79 L 1067.99 832.02 L 1084.72 834.26 L 1106.08 833.29 L 1114.15 842.37 L 1122.23 847.89 L 1128.16 850.93 L 1134.81 851.87 L 1141.72 847.79 L 1154.11 834.08 L 1162.29 828.65 L 1177.12 828.20 L 1194.12 832.61 L 1208.94 826.86 L 1230.74 829.86 L 1238.47 832.74 L 1247.67 829.74 L 1264.67 817.66 L 1269.78 816.19 L 1273.42 812.10 L 1271.32 809.86 L 1275.34 805.33 L 1276.36 801.30 L 1280.71 799.45 L 1306.79 809.10 L 1311.39 814.96 L 1314.10 813.70 L 1317.59 816.51 L 1321.37 811.77 L 1324.18 813.80 L 1329.79 828.20 L 1333.18 845.96 L 1344.42 839.66 L 1345.58 840.63 L 1344.52 845.18 L 1351.20 858.94 L 1348.84 865.33 L 1350.50 872.17 L 1353.18 873.51 L 1348.96 890.38 L 1349.79 892.04 L 1359.89 889.61 L 1360.08 908.59 L 1382.77 901.82 L 1389.10 898.11 L 1390.37 899.77 L 1389.42 907.18 L 1390.76 910.63 L 1389.10 918.49 L 1399.07 916.51 L 1393.25 939.39 L 1405.45 939.07 L 1406.99 940.99 L 1401.75 944.76 L 1399.51 949.80 L 1422.97 945.08 L 1413.12 961.18 L 1418.75 960.79 L 1417.02 964.44 L 1428.46 962.97 L 1424.82 970.32 L 1449.42 966.87 L 1446.48 973.39 L 1436.07 987.19 L 1424.05 999.78 L 1417.79 1012.62 L 1442.07 1008.53 L 1438.05 1013.84 L 1434.15 1023.36 L 1447.12 1023.16 L 1443.16 1032.11 L 1435.68 1038.57 L 1434.15 1044.83 L 1427.06 1055.05 L 1420.41 1070.97 L 1424.76 1073.79 L 1424.09 1077.42 L 1417.00 1088.96 L 1424.59 1093.94 L 1426.36 1098.41 L 1425.52 1102.62 L 1429.47 1111.62 L 1438.42 1122.36 L 1438.84 1128.93 L 1435.72 1133.15 L 1431.42 1148.75 L 1431.67 1154.74 L 1434.46 1160.22 L 1438.20 1163.42" pathLength="1" fill="none" vector-effect="non-scaling-stroke"/>
  <circle class="trace-start" cx="920.95" cy="2031.25" r="6.25"/>
  <circle class="trace-summit-halo" cx="1438.13" cy="1161.53" r="15.97"/>
  <circle class="trace-summit" cx="1438.13" cy="1161.53" r="9.03"/>
</svg>
