<svg xmlns="http://www.w3.org/2000/svg" viewBox="-106.4650658 -38.9637849 0.0298675 0.0403805" preserveAspectRatio="xMidYMid meet">
  <path d="M -106.4523210 -38.9267695 L -106.4526828 -38.9270223 L -106.4527626 -38.9272036 L -106.4531367 -38.9274088 L -106.4531305 -38.9275185 L -106.4530508 -38.9276044 L -106.4530079 -38.9277714 L -106.4529895 -38.9279289 L -106.4530631 -38.9282008 L -106.4529798 -38.9285551 L -106.4532710 -38.9289858 L -106.4532305 -38.9292990 L -106.4533640 -38.9296695 L -106.4534593 -38.9310935 L -106.4536058 -38.9312380 L -106.4538895 -38.9318316 L -106.4538531 -38.9321709 L -106.4540605 -38.9326386 L -106.4543840 -38.9330231 L -106.4543626 -38.9334855 L -106.4544779 -38.9336295 L -106.4543889 -38.9337890 L -106.4546358 -38.9341896 L -106.4547864 -38.9349543 L -106.4550304 -38.9353716 L -106.4551693 -38.9358376 L -106.4556283 -38.9368688 L -106.4559636 -38.9371792 L -106.4561421 -38.9376317 L -106.4561930 -38.9379627 L -106.4563555 -38.9384928 L -106.4561838 -38.9386784 L -106.4560823 -38.9386675 L -106.4560433 -38.9387593 L -106.4559932 -38.9390560 L -106.4560838 -38.9394408 L -106.4559209 -38.9397299 L -106.4558646 -38.9400762 L -106.4561142 -38.9402934 L -106.4562541 -38.9405571 L -106.4564812 -38.9407551 L -106.4569080 -38.9416158 L -106.4570903 -38.9416951 L -106.4576567 -38.9423737 L -106.4576030 -38.9426002 L -106.4573535 -38.9427324 L -106.4573103 -38.9428133 L -106.4573522 -38.9435493 L -106.4573329 -38.9437331 L -106.4572346 -38.9438124 L -106.4571789 -38.9439419 L -106.4572089 -38.9440289 L -106.4576268 -38.9442027 L -106.4577716 -38.9444113 L -106.4577261 -38.9445413 L -106.4578564 -38.9450424 L -106.4580454 -38.9454330 L -106.4580383 -38.9455310 L -106.4582223 -38.9457637 L -106.4583689 -38.9460959 L -106.4591344 -38.9465809 L -106.4602875 -38.9471440 L -106.4605021 -38.9475341 L -106.4605799 -38.9481057 L -106.4606765 -38.9482079 L -106.4606940 -38.9483156 L -106.4606213 -38.9485596 L -106.4606559 -38.9486887 L -106.4612292 -38.9502113 L -106.4613744 -38.9504048 L -106.4615087 -38.9507366 L -106.4616716 -38.9515183 L -106.4617855 -38.9517896 L -106.4617375 -38.9521347 L -106.4618039 -38.9523311 L -106.4616907 -38.9529611 L -106.4617681 -38.9534081 L -106.4620015 -38.9534456 L -106.4621329 -38.9536187 L -106.4621639 -38.9538041 L -106.4621122 -38.9539848 L -106.4621618 -38.9541477 L -106.4624487 -38.9544537 L -106.4625338 -38.9547274 L -106.4625768 -38.9550218 L -106.4625387 -38.9553641 L -106.4623813 -38.9558393 L -106.4623931 -38.9560842 L -106.4619901 -38.9564987 L -106.4616287 -38.9571603 L -106.4613014 -38.9576182 L -106.4611284 -38.9582173 L -106.4608421 -38.9587362 L -106.4607053 -38.9594609 L -106.4606926 -38.9598112 L -106.4607288 -38.9600121 L -106.4608562 -38.9602816 L -106.4608412 -38.9604199 L -106.4606926 -38.9598112 L -106.4604845 -38.9596077 L -106.4603767 -38.9591495 L -106.4602925 -38.9590379 L -106.4602122 -38.9586560 L -106.4602554 -38.9585112 L -106.4601570 -38.9584629 L -106.4600663 -38.9582253 L -106.4602303 -38.9580610 L -106.4602358 -38.9578041 L -106.4603776 -38.9573698 L -106.4605407 -38.9571786 L -106.4605818 -38.9570519 L -106.4605962 -38.9569121 L -106.4605245 -38.9567147 L -106.4607738 -38.9557069 L -106.4606920 -38.9553970 L -106.4608548 -38.9552008 L -106.4605625 -38.9547002 L -106.4604176 -38.9549891 L -106.4603385 -38.9550861 L -106.4602595 -38.9550980 L -106.4602272 -38.9550554 L -106.4602634 -38.9549016 L -106.4601166 -38.9546653 L -106.4600594 -38.9544092 L -106.4599176 -38.9541227 L -106.4598363 -38.9540741 L -106.4597069 -38.9544722 L -106.4595847 -38.9547215 L -106.4594483 -38.9548764 L -106.4592792 -38.9545226 L -106.4591370 -38.9538711 L -106.4587933 -38.9541998 L -106.4586123 -38.9545220 L -106.4584579 -38.9543054 L -106.4583055 -38.9544637 L -106.4581688 -38.9541817 L -106.4580701 -38.9543301 L -106.4580036 -38.9543530 L -106.4579113 -38.9540753 L -106.4576526 -38.9543294 L -106.4575956 -38.9541119 L -106.4574365 -38.9542568 L -106.4573741 -38.9542471 L -106.4573343 -38.9539431 L -106.4569069 -38.9543270 L -106.4568782 -38.9540525 L -106.4567446 -38.9541848 L -106.4566974 -38.9541719 L -106.4566628 -38.9539246 L -106.4566931 -38.9538746 L -106.4561610 -38.9541403 L -106.4561295 -38.9538952 L -106.4558971 -38.9540873 L -106.4558691 -38.9533689 L -106.4561655 -38.9528359 L -106.4561126 -38.9528028 L -106.4559294 -38.9529470 L -106.4557464 -38.9529358 L -106.4554484 -38.9530656 L -106.4555340 -38.9528303 L -106.4557720 -38.9526696 L -106.4558487 -38.9524749 L -106.4557246 -38.9522242 L -106.4554652 -38.9519165 L -106.4544105 -38.9510061 L -106.4542222 -38.9509318 L -106.4539058 -38.9508907 L -106.4537345 -38.9508027 L -106.4530857 -38.9507658 L -106.4528834 -38.9507097 L -106.4528312 -38.9507306 L -106.4529675 -38.9511051 L -106.4529605 -38.9513102 L -106.4526030 -38.9511593 L -106.4521141 -38.9510617 L -106.4516742 -38.9508126 L -106.4515886 -38.9510367 L -106.4516038 -38.9513564 L -106.4519737 -38.9517618 L -106.4518980 -38.9519745 L -106.4518064 -38.9520522 L -106.4516910 -38.9519546 L -106.4514251 -38.9518993 L -106.4513455 -38.9519228 L -106.4512732 -38.9520544 L -106.4508909 -38.9521042 L -106.4506127 -38.9522563 L -106.4495429 -38.9522291 L -106.4493358 -38.9522767 L -106.4487883 -38.9525583 L -106.4482493 -38.9525965 L -106.4477860 -38.9525482 L -106.4471946 -38.9525691 L -106.4469710 -38.9523736 L -106.4467475 -38.9522547 L -106.4463989 -38.9521690 L -106.4462077 -38.9522569 L -106.4458645 -38.9525520 L -106.4456380 -38.9526690 L -106.4452274 -38.9526786 L -106.4447567 -38.9525837 L -106.4443462 -38.9527075 L -106.4435286 -38.9525809 L -106.4432738 -38.9526456 L -106.4428031 -38.9529057 L -106.4426615 -38.9529374 L -106.4425607 -38.9530254 L -106.4426191 -38.9530736 L -106.4424793 -38.9532580 L -106.4423589 -38.9532979 L -106.4416369 -38.9530901 L -106.4415094 -38.9529638 L -106.4414343 -38.9529909 L -106.4413377 -38.9529304 L -106.4412331 -38.9530326 L -106.4411553 -38.9529888 L -106.4409999 -38.9526786 L -106.4409059 -38.9522963 L -106.4405626 -38.9524110 L -106.4405921 -38.9523130 L -106.4404071 -38.9520167 L -106.4404725 -38.9518791 L -106.4404265 -38.9517318 L -106.4403522 -38.9517029 L -106.4404690 -38.9513396 L -106.4404460 -38.9513038 L -106.4401664 -38.9513561 L -106.4401611 -38.9509474 L -106.4393577 -38.9511731 L -106.4393117 -38.9509034 L -106.4393577 -38.9507341 L -106.4390816 -38.9507768 L -106.4392427 -38.9502841 L -106.4389047 -38.9502910 L -106.4388622 -38.9502497 L -106.4390073 -38.9501685 L -106.4390692 -38.9500598 L -106.4384198 -38.9501616 L -106.4386923 -38.9498148 L -106.4385366 -38.9498231 L -106.4385844 -38.9497446 L -106.4382676 -38.9497763 L -106.4383685 -38.9496180 L -106.4376872 -38.9496923 L -106.4380570 -38.9492547 L -106.4383897 -38.9489836 L -106.4385631 -38.9487069 L -106.4378907 -38.9487950 L -106.4381101 -38.9484757 L -106.4377509 -38.9484799 L -106.4378606 -38.9482872 L -106.4380676 -38.9481482 L -106.4381101 -38.9480133 L -106.4383065 -38.9477931 L -106.4384906 -38.9474504 L -106.4383701 -38.9473896 L -106.4383888 -38.9473115 L -106.4385850 -38.9470628 L -106.4383748 -38.9469556 L -106.4383258 -38.9468594 L -106.4383491 -38.9467686 L -106.4382397 -38.9465748 L -106.4379919 -38.9463436 L -106.4379802 -38.9462020 L -106.4380666 -38.9461112 L -106.4381857 -38.9457752 L -106.4381787 -38.9456463 L -106.4379980 -38.9454592" pathLength="1" fill="none" stroke="currentColor" vector-effect="non-scaling-stroke"/>
</svg>
