<svg xmlns="http://www.w3.org/2000/svg" viewBox="0 0 2000 2500" preserveAspectRatio="none">
  <path class="trace-underlay" d="M 1698.65 1478.05 L 1694.68 1473.29 L 1690.41 1469.51 L 1686.38 1468.16 L 1681.35 1465.44 L 1671.54 1463.21 L 1652.55 1455.07 L 1644.12 1448.09 L 1637.71 1445.08 L 1632.46 1443.56 L 1628.81 1441.43 L 1622.02 1440.36 L 1620.89 1438.61 L 1622.65 1436.29 L 1629.94 1431.93 L 1634.72 1427.47 L 1640.51 1419.71 L 1640.26 1417.77 L 1638.37 1417.29 L 1626.80 1421.94 L 1619.63 1423.59 L 1616.23 1424.07 L 1614.85 1423.10 L 1615.85 1421.75 L 1618.37 1420.39 L 1620.76 1417.58 L 1624.28 1411.86 L 1628.18 1398.28 L 1627.43 1388.71 L 1624.69 1380.27 L 1622.94 1371.50 L 1615.93 1364.58 L 1608.05 1360.19 L 1605.75 1357.23 L 1607.17 1349.64 L 1606.19 1348.20 L 1601.05 1345.62 L 1599.52 1345.88 L 1599.08 1346.89 L 1600.06 1348.24 L 1599.41 1350.18 L 1594.37 1353.81 L 1591.52 1357.02 L 1584.30 1362.84 L 1578.71 1365.54 L 1573.24 1366.64 L 1560.87 1366.64 L 1550.25 1368.32 L 1536.56 1365.88 L 1522.87 1370.43 L 1516.09 1371.03 L 1509.41 1370.43 L 1488.91 1370.61 L 1477.79 1372.97 L 1474.14 1375.66 L 1470.32 1376.23 L 1465.84 1378.66 L 1460.62 1385.44 L 1457.71 1388.19 L 1451.49 1391.33 L 1449.58 1391.52 L 1449.17 1390.43 L 1449.66 1388.51 L 1455.72 1371.54 L 1461.11 1363.61 L 1470.99 1356.32 L 1470.24 1355.10 L 1468.50 1354.33 L 1464.68 1354.53 L 1450.58 1356.70 L 1428.72 1354.32 L 1426.15 1353.00 L 1423.67 1348.88 L 1412.14 1339.19 L 1410.04 1336.83 L 1410.04 1335.07 L 1408.80 1333.75 L 1399.17 1334.71 L 1396.41 1335.88 L 1392.69 1335.88 L 1384.59 1334.26 L 1377.82 1334.19 L 1367.16 1330.87 L 1361.58 1330.13 L 1360.65 1328.51 L 1361.56 1325.61 L 1358.67 1321.16 L 1359.35 1319.63 L 1363.47 1317.55 L 1371.19 1310.56 L 1369.73 1302.18 L 1373.75 1296.76 L 1375.23 1296.76 L 1376.37 1293.59 L 1370.94 1292.31 L 1363.89 1289.58 L 1359.40 1289.30 L 1357.82 1287.22 L 1357.73 1285.67 L 1350.76 1279.71 L 1347.84 1279.51 L 1343.27 1277.54 L 1347.22 1280.07 L 1351.58 1292.83 L 1349.46 1297.98 L 1340.66 1299.42 L 1334.11 1298.19 L 1330.72 1299.18 L 1324.76 1299.07 L 1321.83 1298.33 L 1314.81 1298.55 L 1303.73 1297.45 L 1285.45 1296.75 L 1282.92 1297.61 L 1278.67 1297.04 L 1273.73 1297.83 L 1266.77 1297.12 L 1262.70 1297.97 L 1255.03 1297.65 L 1244.71 1295.69 L 1236.35 1295.04 L 1232.33 1293.13 L 1204.92 1286.21 L 1203.69 1284.95 L 1188.57 1282.46 L 1187.70 1280.57 L 1187.85 1278.45 L 1189.44 1277.28 L 1195.65 1277.67 L 1205.83 1276.62 L 1213.13 1275.61 L 1223.53 1272.72 L 1230.32 1271.94 L 1234.58 1272.11 L 1239.21 1273.44 L 1245.13 1271.83 L 1246.86 1270.05 L 1248.96 1264.20 L 1248.55 1262.28 L 1243.40 1255.12 L 1235.85 1246.80 L 1233.61 1245.97 L 1232.04 1247.06 L 1231.62 1249.56 L 1230.79 1250.58 L 1226.31 1249.56 L 1223.16 1252.11 L 1221.50 1252.11 L 1217.02 1247.32 L 1208.22 1242.07 L 1201.07 1238.79 L 1197.68 1238.07 L 1188.43 1231.72 L 1186.34 1228.99 L 1186.19 1220.16 L 1187.20 1215.60 L 1185.32 1211.64 L 1184.45 1203.07 L 1183.22 1199.34 L 1180.87 1196.18 L 1180.30 1192.95 L 1181.09 1188.78 L 1180.44 1179.04 L 1181.45 1173.36 L 1184.63 1167.40 L 1183.59 1165.53 L 1180.64 1165.19 L 1177.35 1165.86 L 1174.73 1167.47 L 1172.21 1170.42 L 1162.35 1175.23 L 1156.00 1181.98 L 1151.73 1185.78 L 1148.89 1187.30 L 1145.71 1190.93 L 1135.60 1199.04 L 1122.45 1202.57 L 1116.35 1203.16 L 1107.58 1202.50 L 1103.86 1203.23 L 1093.66 1201.62 L 1083.65 1201.62 L 1070.98 1198.46 L 1062.40 1194.27 L 1052.30 1193.39 L 1041.99 1190.58 L 1036.77 1190.05 L 1020.48 1190.78 L 1004.57 1189.66 L 1000.11 1190.05 L 991.43 1192.43 L 978.96 1194.04 L 962.70 1192.89 L 955.23 1190.20 L 944.36 1188.16 L 930.42 1183.94 L 918.39 1179.20 L 910.77 1178.15 L 885.85 1171.69 L 878.50 1167.54 L 863.49 1166.05 L 860.15 1164.99 L 831.13 1165.35 L 833.77 1163.25 L 829.06 1163.86 L 822.32 1163.13 L 826.14 1159.96 L 825.25 1159.33 L 808.08 1159.58 L 800.80 1160.72 L 804.32 1157.88 L 809.92 1155.39 L 807.22 1155.00 L 803.83 1155.47 L 790.70 1153.73 L 796.61 1151.27 L 781.49 1150.36 L 782.63 1148.66 L 788.24 1147.14 L 795.18 1143.84 L 787.70 1143.78 L 795.08 1141.18 L 794.22 1140.40 L 785.01 1140.59 L 783.28 1139.82 L 778.16 1140.48 L 769.00 1139.56 L 768.08 1138.87 L 762.05 1138.55 L 754.10 1135.83 L 762.30 1134.80 L 767.60 1132.65 L 766.76 1131.75 L 764.59 1131.73 L 758.44 1129.01 L 755.78 1125.74 L 746.06 1118.48 L 729.75 1109.52 L 727.52 1107.72 L 713.51 1102.38 L 695.60 1101.58 L 682.58 1098.91 L 675.50 1101.81 L 668.50 1103.37 L 658.15 1107.15 L 661.61 1103.65 L 664.97 1101.46 L 665.09 1100.74 L 660.76 1100.65 L 665.15 1095.44 L 662.01 1095.31 L 657.11 1096.63 L 659.96 1092.54 L 659.86 1091.71 L 648.48 1093.44 L 640.93 1096.95 L 632.31 1099.30 L 629.40 1100.87 L 614.24 1101.83 L 609.01 1097.08 L 599.98 1087.09 L 591.95 1075.02 L 587.70 1070.59 L 588.08 1068.12 L 594.69 1061.43 L 595.07 1059.29 L 594.55 1057.35 L 591.04 1052.41 L 590.84 1046.93" pathLength="1" fill="none" vector-effect="non-scaling-stroke"/>
  <path class="trace-line" d="M 1698.65 1478.05 L 1694.68 1473.29 L 1690.41 1469.51 L 1686.38 1468.16 L 1681.35 1465.44 L 1671.54 1463.21 L 1652.55 1455.07 L 1644.12 1448.09 L 1637.71 1445.08 L 1632.46 1443.56 L 1628.81 1441.43 L 1622.02 1440.36 L 1620.89 1438.61 L 1622.65 1436.29 L 1629.94 1431.93 L 1634.72 1427.47 L 1640.51 1419.71 L 1640.26 1417.77 L 1638.37 1417.29 L 1626.80 1421.94 L 1619.63 1423.59 L 1616.23 1424.07 L 1614.85 1423.10 L 1615.85 1421.75 L 1618.37 1420.39 L 1620.76 1417.58 L 1624.28 1411.86 L 1628.18 1398.28 L 1627.43 1388.71 L 1624.69 1380.27 L 1622.94 1371.50 L 1615.93 1364.58 L 1608.05 1360.19 L 1605.75 1357.23 L 1607.17 1349.64 L 1606.19 1348.20 L 1601.05 1345.62 L 1599.52 1345.88 L 1599.08 1346.89 L 1600.06 1348.24 L 1599.41 1350.18 L 1594.37 1353.81 L 1591.52 1357.02 L 1584.30 1362.84 L 1578.71 1365.54 L 1573.24 1366.64 L 1560.87 1366.64 L 1550.25 1368.32 L 1536.56 1365.88 L 1522.87 1370.43 L 1516.09 1371.03 L 1509.41 1370.43 L 1488.91 1370.61 L 1477.79 1372.97 L 1474.14 1375.66 L 1470.32 1376.23 L 1465.84 1378.66 L 1460.62 1385.44 L 1457.71 1388.19 L 1451.49 1391.33 L 1449.58 1391.52 L 1449.17 1390.43 L 1449.66 1388.51 L 1455.72 1371.54 L 1461.11 1363.61 L 1470.99 1356.32 L 1470.24 1355.10 L 1468.50 1354.33 L 1464.68 1354.53 L 1450.58 1356.70 L 1428.72 1354.32 L 1426.15 1353.00 L 1423.67 1348.88 L 1412.14 1339.19 L 1410.04 1336.83 L 1410.04 1335.07 L 1408.80 1333.75 L 1399.17 1334.71 L 1396.41 1335.88 L 1392.69 1335.88 L 1384.59 1334.26 L 1377.82 1334.19 L 1367.16 1330.87 L 1361.58 1330.13 L 1360.65 1328.51 L 1361.56 1325.61 L 1358.67 1321.16 L 1359.35 1319.63 L 1363.47 1317.55 L 1371.19 1310.56 L 1369.73 1302.18 L 1373.75 1296.76 L 1375.23 1296.76 L 1376.37 1293.59 L 1370.94 1292.31 L 1363.89 1289.58 L 1359.40 1289.30 L 1357.82 1287.22 L 1357.73 1285.67 L 1350.76 1279.71 L 1347.84 1279.51 L 1343.27 1277.54 L 1347.22 1280.07 L 1351.58 1292.83 L 1349.46 1297.98 L 1340.66 1299.42 L 1334.11 1298.19 L 1330.72 1299.18 L 1324.76 1299.07 L 1321.83 1298.33 L 1314.81 1298.55 L 1303.73 1297.45 L 1285.45 1296.75 L 1282.92 1297.61 L 1278.67 1297.04 L 1273.73 1297.83 L 1266.77 1297.12 L 1262.70 1297.97 L 1255.03 1297.65 L 1244.71 1295.69 L 1236.35 1295.04 L 1232.33 1293.13 L 1204.92 1286.21 L 1203.69 1284.95 L 1188.57 1282.46 L 1187.70 1280.57 L 1187.85 1278.45 L 1189.44 1277.28 L 1195.65 1277.67 L 1205.83 1276.62 L 1213.13 1275.61 L 1223.53 1272.72 L 1230.32 1271.94 L 1234.58 1272.11 L 1239.21 1273.44 L 1245.13 1271.83 L 1246.86 1270.05 L 1248.96 1264.20 L 1248.55 1262.28 L 1243.40 1255.12 L 1235.85 1246.80 L 1233.61 1245.97 L 1232.04 1247.06 L 1231.62 1249.56 L 1230.79 1250.58 L 1226.31 1249.56 L 1223.16 1252.11 L 1221.50 1252.11 L 1217.02 1247.32 L 1208.22 1242.07 L 1201.07 1238.79 L 1197.68 1238.07 L 1188.43 1231.72 L 1186.34 1228.99 L 1186.19 1220.16 L 1187.20 1215.60 L 1185.32 1211.64 L 1184.45 1203.07 L 1183.22 1199.34 L 1180.87 1196.18 L 1180.30 1192.95 L 1181.09 1188.78 L 1180.44 1179.04 L 1181.45 1173.36 L 1184.63 1167.40 L 1183.59 1165.53 L 1180.64 1165.19 L 1177.35 1165.86 L 1174.73 1167.47 L 1172.21 1170.42 L 1162.35 1175.23 L 1156.00 1181.98 L 1151.73 1185.78 L 1148.89 1187.30 L 1145.71 1190.93 L 1135.60 1199.04 L 1122.45 1202.57 L 1116.35 1203.16 L 1107.58 1202.50 L 1103.86 1203.23 L 1093.66 1201.62 L 1083.65 1201.62 L 1070.98 1198.46 L 1062.40 1194.27 L 1052.30 1193.39 L 1041.99 1190.58 L 1036.77 1190.05 L 1020.48 1190.78 L 1004.57 1189.66 L 1000.11 1190.05 L 991.43 1192.43 L 978.96 1194.04 L 962.70 1192.89 L 955.23 1190.20 L 944.36 1188.16 L 930.42 1183.94 L 918.39 1179.20 L 910.77 1178.15 L 885.85 1171.69 L 878.50 1167.54 L 863.49 1166.05 L 860.15 1164.99 L 831.13 1165.35 L 833.77 1163.25 L 829.06 1163.86 L 822.32 1163.13 L 826.14 1159.96 L 825.25 1159.33 L 808.08 1159.58 L 800.80 1160.72 L 804.32 1157.88 L 809.92 1155.39 L 807.22 1155.00 L 803.83 1155.47 L 790.70 1153.73 L 796.61 1151.27 L 781.49 1150.36 L 782.63 1148.66 L 788.24 1147.14 L 795.18 1143.84 L 787.70 1143.78 L 795.08 1141.18 L 794.22 1140.40 L 785.01 1140.59 L 783.28 1139.82 L 778.16 1140.48 L 769.00 1139.56 L 768.08 1138.87 L 762.05 1138.55 L 754.10 1135.83 L 762.30 1134.80 L 767.60 1132.65 L 766.76 1131.75 L 764.59 1131.73 L 758.44 1129.01 L 755.78 1125.74 L 746.06 1118.48 L 729.75 1109.52 L 727.52 1107.72 L 713.51 1102.38 L 695.60 1101.58 L 682.58 1098.91 L 675.50 1101.81 L 668.50 1103.37 L 658.15 1107.15 L 661.61 1103.65 L 664.97 1101.46 L 665.09 1100.74 L 660.76 1100.65 L 665.15 1095.44 L 662.01 1095.31 L 657.11 1096.63 L 659.96 1092.54 L 659.86 1091.71 L 648.48 1093.44 L 640.93 1096.95 L 632.31 1099.30 L 629.40 1100.87 L 614.24 1101.83 L 609.01 1097.08 L 599.98 1087.09 L 591.95 1075.02 L 587.70 1070.59 L 588.08 1068.12 L 594.69 1061.43 L 595.07 1059.29 L 594.55 1057.35 L 591.04 1052.41 L 590.84 1046.93" pathLength="1" fill="none" vector-effect="non-scaling-stroke"/>
</svg>
