<svg xmlns="http://www.w3.org/2000/svg" viewBox="0 0 2000 2500" preserveAspectRatio="xMidYMid slice">
  <path class="trace-line" d="M 1677.08 1590.97 L 1672.24 1583.45 L 1667.03 1577.46 L 1662.12 1575.32 L 1655.99 1571.02 L 1644.03 1567.50 L 1620.88 1554.62 L 1610.61 1543.58 L 1602.79 1538.82 L 1596.40 1536.41 L 1591.95 1533.04 L 1583.67 1531.36 L 1582.29 1528.59 L 1584.44 1524.92 L 1593.33 1518.01 L 1599.15 1510.96 L 1606.21 1498.69 L 1605.90 1495.63 L 1603.60 1494.86 L 1589.50 1502.22 L 1580.76 1504.83 L 1576.62 1505.60 L 1574.93 1504.06 L 1576.16 1501.91 L 1579.22 1499.77 L 1582.14 1495.32 L 1586.43 1486.28 L 1591.18 1464.81 L 1590.26 1449.67 L 1586.93 1436.32 L 1584.79 1422.44 L 1581.32 1417.10 L 1576.25 1411.49 L 1566.64 1404.55 L 1563.84 1399.88 L 1565.57 1387.86 L 1564.37 1385.60 L 1558.11 1381.51 L 1556.24 1381.91 L 1555.71 1383.51 L 1556.91 1385.65 L 1556.11 1388.72 L 1549.97 1394.46 L 1546.50 1399.53 L 1537.69 1408.74 L 1530.88 1413.02 L 1524.21 1414.75 L 1509.13 1414.75 L 1496.19 1417.42 L 1479.50 1413.55 L 1462.82 1420.76 L 1454.55 1421.69 L 1446.41 1420.76 L 1421.42 1421.03 L 1407.87 1424.77 L 1403.42 1429.02 L 1398.77 1429.93 L 1393.31 1433.77 L 1389.87 1438.53 L 1386.93 1444.50 L 1383.40 1448.85 L 1375.81 1453.80 L 1373.48 1454.11 L 1372.98 1452.39 L 1373.58 1449.35 L 1380.96 1422.50 L 1387.54 1409.96 L 1393.30 1403.69 L 1397.75 1400.76 L 1399.58 1398.43 L 1398.66 1396.50 L 1396.54 1395.29 L 1391.89 1395.60 L 1374.69 1399.04 L 1367.42 1398.64 L 1359.67 1396.78 L 1352.93 1396.55 L 1348.06 1395.27 L 1344.92 1393.18 L 1341.90 1386.67 L 1327.84 1371.33 L 1325.29 1367.61 L 1325.29 1364.83 L 1323.77 1362.73 L 1312.04 1364.25 L 1308.67 1366.10 L 1304.14 1366.10 L 1294.26 1363.54 L 1286.01 1363.43 L 1273.02 1358.18 L 1266.22 1357.00 L 1265.09 1354.45 L 1266.19 1349.86 L 1262.67 1342.82 L 1263.50 1340.40 L 1268.52 1337.11 L 1277.93 1326.05 L 1276.14 1312.80 L 1281.05 1304.23 L 1282.85 1304.23 L 1284.24 1299.22 L 1277.63 1297.18 L 1269.03 1292.87 L 1263.56 1292.43 L 1261.63 1289.15 L 1261.53 1286.69 L 1253.03 1277.25 L 1249.46 1276.95 L 1243.89 1273.83 L 1248.71 1277.82 L 1254.03 1298.02 L 1251.44 1306.16 L 1240.71 1308.43 L 1232.74 1306.49 L 1228.60 1308.05 L 1221.33 1307.88 L 1217.76 1306.71 L 1209.20 1307.06 L 1195.70 1305.31 L 1194.34 1305.79 L 1173.41 1304.21 L 1170.33 1305.57 L 1165.15 1304.66 L 1159.13 1305.92 L 1150.64 1304.79 L 1145.69 1306.14 L 1138.79 1305.18 L 1136.34 1305.64 L 1123.76 1302.53 L 1113.57 1301.51 L 1108.67 1298.48 L 1098.33 1295.61 L 1083.12 1289.58 L 1075.26 1287.54 L 1073.76 1285.54 L 1055.33 1281.61 L 1054.27 1278.62 L 1054.45 1275.27 L 1056.39 1273.42 L 1063.96 1274.04 L 1076.37 1272.37 L 1085.27 1270.78 L 1097.95 1266.20 L 1106.22 1264.97 L 1111.42 1265.23 L 1117.05 1267.35 L 1124.27 1264.79 L 1126.38 1261.98 L 1128.94 1252.73 L 1128.44 1249.69 L 1122.17 1238.37 L 1112.96 1225.22 L 1110.23 1223.90 L 1108.31 1225.62 L 1107.80 1229.57 L 1106.79 1231.18 L 1101.33 1229.57 L 1097.49 1233.61 L 1095.46 1233.61 L 1090.00 1226.02 L 1079.29 1217.73 L 1070.57 1212.54 L 1066.43 1211.39 L 1055.16 1201.35 L 1052.61 1197.04 L 1052.42 1183.08 L 1053.66 1175.86 L 1051.37 1169.60 L 1050.31 1156.04 L 1048.81 1150.14 L 1045.95 1145.15 L 1045.24 1140.04 L 1046.21 1133.44 L 1045.42 1118.03 L 1046.65 1109.05 L 1050.52 1099.63 L 1049.26 1096.66 L 1045.66 1096.13 L 1041.66 1097.19 L 1038.45 1099.73 L 1035.38 1104.40 L 1023.37 1112.01 L 1015.63 1122.69 L 1010.43 1128.69 L 1006.96 1131.09 L 1003.09 1136.83 L 990.76 1149.67 L 986.81 1150.61 L 982.63 1153.16 L 974.73 1155.25 L 967.30 1156.18 L 956.61 1155.13 L 952.08 1156.30 L 939.64 1153.74 L 927.44 1153.74 L 917.10 1149.79 L 911.99 1148.75 L 901.54 1142.12 L 889.22 1140.73 L 876.66 1136.29 L 870.30 1135.45 L 850.44 1136.60 L 831.05 1134.84 L 825.61 1135.45 L 815.03 1139.21 L 799.83 1141.76 L 789.82 1141.45 L 780.01 1139.94 L 770.91 1135.69 L 757.66 1132.45 L 740.66 1125.78 L 726.00 1118.29 L 716.72 1116.62 L 706.94 1112.75 L 686.34 1106.41 L 677.37 1099.85 L 659.08 1097.48 L 655.01 1095.81 L 619.63 1096.39 L 622.85 1093.06 L 618.73 1093.19 L 617.12 1094.02 L 608.90 1092.87 L 613.55 1087.85 L 612.47 1086.86 L 591.54 1087.25 L 582.66 1089.06 L 586.96 1084.57 L 593.78 1080.63 L 590.49 1080.02 L 586.36 1080.75 L 570.36 1078.00 L 577.56 1074.11 L 559.13 1072.67 L 560.52 1069.98 L 567.36 1067.59 L 575.81 1062.36 L 566.70 1062.27 L 575.70 1058.15 L 574.65 1056.91 L 563.41 1057.22 L 561.31 1056.01 L 555.07 1057.04 L 543.91 1055.58 L 542.79 1054.50 L 535.43 1053.99 L 525.74 1049.69 L 535.74 1048.05 L 542.20 1044.67 L 541.17 1043.23 L 538.52 1043.20 L 531.03 1038.90 L 527.79 1033.73 L 515.94 1022.25 L 496.07 1008.07 L 493.34 1005.23 L 476.26 996.78 L 454.44 995.52 L 445.35 992.51 L 438.57 991.30 L 429.93 995.88 L 421.40 998.35 L 408.79 1004.32 L 413.00 998.80 L 417.10 995.33 L 417.24 994.19 L 411.97 994.05 L 417.32 985.80 L 413.49 985.60 L 407.51 987.69 L 410.99 981.23 L 410.87 979.91 L 397.00 982.65 L 387.79 988.20 L 377.29 991.91 L 373.74 994.39 L 370.64 994.07 L 355.26 995.91 L 348.89 988.40 L 337.88 972.59 L 328.10 953.51 L 322.92 946.50 L 323.38 942.59 L 331.43 932.01 L 331.89 928.63 L 331.26 925.56 L 326.98 917.74 L 326.74 909.08" pathLength="1" fill="none" vector-effect="non-scaling-stroke"/>
  <circle class="trace-start" cx="1677.08" cy="1590.97" r="6.25"/>
  <circle class="trace-summit-halo" cx="327.92" cy="909.03" r="15.97"/>
  <circle class="trace-summit" cx="327.92" cy="909.03" r="9.03"/>
</svg>
