<svg xmlns="http://www.w3.org/2000/svg" viewBox="0 0 1600 900" preserveAspectRatio="xMidYMid slice">
  <path class="trace-line" d="M 1392.71 748.58 L 1388.47 741.99 L 1383.90 736.75 L 1379.61 734.87 L 1374.24 731.11 L 1363.77 728.02 L 1343.51 716.74 L 1334.52 707.08 L 1327.67 702.92 L 1322.07 700.81 L 1318.18 697.85 L 1310.93 696.38 L 1309.72 693.96 L 1311.60 690.74 L 1319.39 684.69 L 1324.49 678.52 L 1330.66 667.78 L 1330.39 665.09 L 1328.38 664.42 L 1316.03 670.86 L 1308.38 673.15 L 1304.76 673.82 L 1303.28 672.48 L 1304.36 670.59 L 1307.04 668.72 L 1309.59 664.82 L 1313.35 656.90 L 1317.51 638.10 L 1316.70 624.84 L 1313.78 613.16 L 1311.92 601.00 L 1308.88 596.32 L 1304.44 591.41 L 1296.03 585.34 L 1293.57 581.24 L 1295.09 570.72 L 1294.04 568.74 L 1288.56 565.16 L 1286.92 565.51 L 1286.45 566.91 L 1287.51 568.79 L 1286.81 571.47 L 1281.43 576.50 L 1278.39 580.94 L 1270.68 589.01 L 1264.73 592.75 L 1258.88 594.27 L 1245.68 594.27 L 1234.35 596.60 L 1219.75 593.22 L 1205.14 599.53 L 1197.90 600.35 L 1190.78 599.53 L 1168.90 599.76 L 1157.04 603.04 L 1153.15 606.76 L 1149.07 607.56 L 1144.29 610.92 L 1141.28 615.09 L 1138.71 620.31 L 1135.62 624.12 L 1128.97 628.46 L 1126.94 628.73 L 1126.50 627.23 L 1127.03 624.57 L 1133.49 601.06 L 1139.25 590.08 L 1144.29 584.58 L 1148.19 582.01 L 1149.78 579.97 L 1148.98 578.29 L 1147.12 577.23 L 1143.05 577.50 L 1128.00 580.51 L 1121.63 580.16 L 1114.85 578.53 L 1108.95 578.33 L 1104.68 577.21 L 1101.94 575.38 L 1099.29 569.68 L 1086.99 556.25 L 1084.75 552.99 L 1084.75 550.55 L 1083.42 548.72 L 1073.15 550.04 L 1070.20 551.67 L 1066.24 551.67 L 1057.59 549.43 L 1050.37 549.33 L 1039.00 544.73 L 1033.04 543.70 L 1032.05 541.46 L 1033.01 537.45 L 1029.94 531.28 L 1030.66 529.16 L 1035.05 526.28 L 1043.29 516.59 L 1041.73 504.99 L 1046.02 497.49 L 1047.61 497.49 L 1048.82 493.10 L 1043.03 491.32 L 1035.51 487.54 L 1030.72 487.15 L 1029.03 484.28 L 1028.94 482.13 L 1021.50 473.86 L 1018.37 473.60 L 1013.50 470.86 L 1017.71 474.36 L 1022.37 492.05 L 1020.11 499.18 L 1010.72 501.17 L 1003.73 499.46 L 1000.11 500.83 L 993.75 500.69 L 990.62 499.66 L 983.13 499.96 L 971.31 498.44 L 970.12 498.85 L 951.80 497.47 L 949.11 498.66 L 944.57 497.87 L 939.30 498.97 L 931.87 497.98 L 927.53 499.16 L 921.49 498.32 L 919.35 498.72 L 908.34 496.00 L 899.42 495.11 L 895.13 492.45 L 886.07 489.94 L 872.76 484.66 L 865.88 482.87 L 864.57 481.12 L 848.43 477.68 L 847.51 475.06 L 847.66 472.13 L 849.36 470.51 L 855.99 471.05 L 866.85 469.58 L 874.64 468.20 L 885.74 464.19 L 892.98 463.11 L 897.53 463.34 L 902.47 465.19 L 908.79 462.96 L 910.63 460.49 L 912.87 452.39 L 912.43 449.73 L 906.94 439.81 L 898.89 428.30 L 896.49 427.14 L 894.81 428.65 L 894.37 432.11 L 893.48 433.52 L 888.70 432.11 L 885.34 435.65 L 883.57 435.65 L 878.79 429.00 L 869.41 421.74 L 861.78 417.20 L 858.15 416.19 L 848.29 407.40 L 846.05 403.62 L 845.89 391.40 L 846.97 385.07 L 844.97 379.60 L 844.04 367.72 L 842.73 362.56 L 840.22 358.18 L 839.60 353.71 L 840.45 347.93 L 839.76 334.43 L 840.84 326.57 L 844.23 318.32 L 843.12 315.72 L 839.97 315.26 L 836.47 316.19 L 833.66 318.41 L 830.98 322.50 L 820.46 329.16 L 813.68 338.52 L 809.13 343.78 L 806.09 345.88 L 802.70 350.90 L 791.91 362.15 L 788.46 362.96 L 784.79 365.20 L 777.88 367.03 L 771.37 367.85 L 762.01 366.93 L 758.05 367.95 L 747.16 365.71 L 736.49 365.71 L 727.43 362.25 L 722.96 361.33 L 713.81 355.54 L 703.03 354.31 L 692.03 350.43 L 686.46 349.69 L 669.08 350.70 L 652.11 349.15 L 647.34 349.69 L 638.08 352.98 L 624.78 355.21 L 616.01 354.95 L 607.42 353.62 L 599.46 349.90 L 587.86 347.07 L 572.98 341.22 L 560.14 334.66 L 552.02 333.20 L 543.46 329.81 L 525.43 324.26 L 517.58 318.52 L 501.56 316.45 L 498.01 314.98 L 467.03 315.48 L 469.85 312.57 L 466.24 312.69 L 464.83 313.41 L 457.64 312.40 L 461.71 308.01 L 460.76 307.14 L 442.44 307.49 L 434.67 309.07 L 438.43 305.14 L 444.41 301.69 L 441.52 301.15 L 437.91 301.79 L 423.90 299.38 L 430.21 295.98 L 414.07 294.72 L 415.29 292.36 L 421.28 290.26 L 428.68 285.69 L 420.70 285.61 L 428.57 282.00 L 427.65 280.92 L 417.82 281.19 L 415.98 280.13 L 410.52 281.03 L 400.75 279.76 L 399.76 278.80 L 393.32 278.36 L 384.84 274.60 L 393.59 273.16 L 399.25 270.19 L 398.35 268.94 L 396.03 268.91 L 389.47 265.15 L 386.63 260.62 L 376.26 250.57 L 358.87 238.15 L 356.48 235.67 L 341.53 228.27 L 322.43 227.16 L 314.47 224.53 L 308.53 223.46 L 300.98 227.47 L 293.50 229.64 L 282.47 234.87 L 286.16 230.03 L 289.74 226.99 L 289.86 225.99 L 285.25 225.87 L 289.93 218.65 L 286.58 218.47 L 281.35 220.30 L 284.40 214.64 L 284.28 213.49 L 272.15 215.89 L 264.09 220.74 L 254.89 224.00 L 251.78 226.17 L 249.07 225.88 L 235.61 227.50 L 230.03 220.92 L 220.39 207.08 L 211.83 190.37 L 207.29 184.23 L 207.70 180.81 L 214.75 171.54 L 215.15 168.59 L 214.60 165.89 L 210.85 159.05 L 210.64 151.46" pathLength="1" fill="none" vector-effect="non-scaling-stroke"/>
  <circle class="trace-start" cx="1392.71" cy="748.58" r="5.47"/>
  <circle class="trace-summit-halo" cx="211.67" cy="151.42" r="13.98"/>
  <circle class="trace-summit" cx="211.67" cy="151.42" r="7.90"/>
</svg>
