<svg xmlns="http://www.w3.org/2000/svg" viewBox="0 0 2000 2500" preserveAspectRatio="none">
  <path class="trace-underlay" d="M 249.99 1097.88 L 245.99 1103.11 L 243.63 1104.72 L 251.24 1095.58 L 247.68 1095.23 L 236.35 1105.73 L 250.92 1100.34 L 259.27 1092.71 L 262.35 1092.21 L 279.51 1095.16 L 284.95 1095.37 L 290.96 1093.44 L 298.87 1093.44 L 306.28 1083.84 L 306.43 1078.94 L 309.32 1074.04 L 315.19 1068.10 L 321.54 1065.89 L 348.23 1038.54 L 356.00 1033.22 L 365.65 1029.87 L 373.24 1024.53 L 384.45 1021.99 L 395.01 1017.66 L 406.66 1016.90 L 408.53 1013.60 L 396.77 1011.23 L 398.75 1008.35 L 403.03 1007.41 L 406.99 1003.43 L 405.56 997.08 L 403.36 995.47 L 404.90 993.26 L 424.80 993.35 L 432.83 990.30 L 443.16 988.94 L 452.51 988.86 L 455.03 991.91 L 462.29 991.31 L 465.46 992.34 L 471.05 996.15 L 482.10 997.10 L 496.39 992.69 L 518.34 989.56 L 524.98 986.24 L 530.26 982.26 L 533.78 982.00 L 535.54 978.36 L 543.56 973.36 L 543.67 970.56 L 540.93 968.79 L 545.10 963.96 L 550.16 962.52 L 549.50 955.06 L 557.42 951.93 L 558.41 948.03 L 575.78 942.78 L 578.52 939.30 L 579.52 932.52 L 584.46 927.95 L 593.59 926.68 L 598.42 922.87 L 609.09 910.50 L 611.18 906.77 L 618.76 904.90 L 623.46 902.75 L 626.78 902.80 L 636.37 897.16 L 637.65 894.57 L 640.56 894.17 L 642.39 891.92 L 649.08 889.33 L 654.69 888.28 L 673.37 878.81 L 677.55 874.32 L 687.71 866.69 L 690.36 862.55 L 690.82 859.56 L 710.26 841.51 L 710.93 839.22 L 713.43 836.67 L 721.59 830.19 L 732.10 826.40 L 758.74 821.86 L 770.89 816.53 L 783.14 808.20 L 799.01 800.17 L 811.56 796.88 L 818.91 793.54 L 823.70 787.90 L 865.55 772.05 L 874.79 771.30 L 898.06 774.34 L 908.93 774.94 L 916.89 777.48 L 930.41 774.49 L 938.93 771.40 L 946.54 771.60 L 954.50 770.20 L 963.12 766.63 L 974.70 759.94 L 975.46 758.74 L 977.26 758.78 L 981.63 756.13 L 988.23 754.55 L 1004.79 746.37 L 1011.25 744.14 L 1013.85 736.56 L 1018.36 732.75 L 1024.70 730.52 L 1030.97 723.82 L 1032.51 723.61 L 1036.98 725.80 L 1038.60 725.69 L 1044.98 717.01 L 1060.42 713.41 L 1071.63 709.81 L 1078.67 708.87 L 1103.48 698.89 L 1106.55 698.89 L 1108.42 697.70 L 1115.69 697.81 L 1120.07 696.48 L 1142.86 696.30 L 1165.24 690.18 L 1174.89 691.62 L 1177.22 696.26 L 1181.86 701.23 L 1182.23 703.32 L 1196.90 710.28 L 1200.96 714.35 L 1208.78 718.38 L 1211.61 722.02 L 1218.55 723.53 L 1222.12 722.74 L 1230.12 724.87 L 1236.06 727.82 L 1259.00 744.27 L 1281.91 757.44 L 1286.28 758.64 L 1287.98 760.31 L 1288.73 762.80 L 1287.96 768.44 L 1289.98 771.51 L 1293.90 774.98 L 1302.95 773.58 L 1307.44 771.44 L 1327.93 780.83 L 1345.45 796.66 L 1345.79 800.04 L 1344.81 803.50 L 1342.36 808.62 L 1335.96 812.26 L 1330.84 818.63 L 1315.24 822.75 L 1313.13 823.97 L 1313.17 826.03 L 1316.18 829.27 L 1318.97 830.78 L 1329.10 834.13 L 1342.93 836.81 L 1342.59 838.32 L 1347.22 840.38 L 1341.31 847.23 L 1334.45 848.81 L 1331.93 850.25 L 1332.15 851.76 L 1335.36 855.48 L 1333.51 864.05 L 1332.23 868.28 L 1330.08 871.27 L 1329.55 873.11 L 1330.27 874.06 L 1329.22 876.35 L 1327.60 879.14 L 1323.49 883.15 L 1323.41 884.30 L 1334.04 885.55 L 1335.28 885.95 L 1334.23 886.98 L 1310.31 897.93 L 1306.06 901.06 L 1304.81 901.01 L 1304.70 901.76 L 1300.13 901.92 L 1293.65 906.38 L 1291.86 906.44 L 1291.20 907.66 L 1289.95 907.18 L 1289.46 908.35 L 1287.28 907.77 L 1284.56 908.78 L 1269.22 907.18 L 1264.04 907.93 L 1248.92 905.00 L 1234.49 904.04 L 1236.45 906.70 L 1246.52 914.15 L 1235.85 914.84 L 1249.41 924.20 L 1249.90 927.12 L 1248.26 927.60 L 1246.09 926.91 L 1244.40 929.46 L 1242.82 928.08 L 1241.68 927.87 L 1240.86 929.04 L 1239.44 929.25 L 1234.22 927.44 L 1231.50 932.76 L 1229.76 932.55 L 1227.36 933.83 L 1223.82 931.32 L 1223.39 934.57 L 1219.53 933.77 L 1217.89 935.74 L 1210.87 931.59 L 1209.95 936.43 L 1208.97 937.39 L 1206.08 934.89 L 1204.72 934.68 L 1203.31 938.13 L 1197.32 935.74 L 1196.45 938.29 L 1191.33 935.79 L 1190.35 936.17 L 1190.46 937.97 L 1187.90 937.65 L 1178.93 939.46 L 1179.85 942.87 L 1178.16 944.20 L 1178.11 945.58 L 1175.28 948.50 L 1174.95 950.15 L 1171.58 952.28 L 1170.11 955.10 L 1161.51 962.49 L 1159.33 970.84 L 1160.31 977.86 L 1163.52 986.00 L 1163.31 987.11 L 1164.34 988.18 L 1163.58 989.45 L 1164.83 990.20 L 1164.50 991.48 L 1166.35 993.60 L 1165.21 994.61 L 1167.50 1000.36" pathLength="1" fill="none" vector-effect="non-scaling-stroke"/>
  <path class="trace-line" d="M 249.99 1097.88 L 245.99 1103.11 L 243.63 1104.72 L 251.24 1095.58 L 247.68 1095.23 L 236.35 1105.73 L 250.92 1100.34 L 259.27 1092.71 L 262.35 1092.21 L 279.51 1095.16 L 284.95 1095.37 L 290.96 1093.44 L 298.87 1093.44 L 306.28 1083.84 L 306.43 1078.94 L 309.32 1074.04 L 315.19 1068.10 L 321.54 1065.89 L 348.23 1038.54 L 356.00 1033.22 L 365.65 1029.87 L 373.24 1024.53 L 384.45 1021.99 L 395.01 1017.66 L 406.66 1016.90 L 408.53 1013.60 L 396.77 1011.23 L 398.75 1008.35 L 403.03 1007.41 L 406.99 1003.43 L 405.56 997.08 L 403.36 995.47 L 404.90 993.26 L 424.80 993.35 L 432.83 990.30 L 443.16 988.94 L 452.51 988.86 L 455.03 991.91 L 462.29 991.31 L 465.46 992.34 L 471.05 996.15 L 482.10 997.10 L 496.39 992.69 L 518.34 989.56 L 524.98 986.24 L 530.26 982.26 L 533.78 982.00 L 535.54 978.36 L 543.56 973.36 L 543.67 970.56 L 540.93 968.79 L 545.10 963.96 L 550.16 962.52 L 549.50 955.06 L 557.42 951.93 L 558.41 948.03 L 575.78 942.78 L 578.52 939.30 L 579.52 932.52 L 584.46 927.95 L 593.59 926.68 L 598.42 922.87 L 609.09 910.50 L 611.18 906.77 L 618.76 904.90 L 623.46 902.75 L 626.78 902.80 L 636.37 897.16 L 637.65 894.57 L 640.56 894.17 L 642.39 891.92 L 649.08 889.33 L 654.69 888.28 L 673.37 878.81 L 677.55 874.32 L 687.71 866.69 L 690.36 862.55 L 690.82 859.56 L 710.26 841.51 L 710.93 839.22 L 713.43 836.67 L 721.59 830.19 L 732.10 826.40 L 758.74 821.86 L 770.89 816.53 L 783.14 808.20 L 799.01 800.17 L 811.56 796.88 L 818.91 793.54 L 823.70 787.90 L 865.55 772.05 L 874.79 771.30 L 898.06 774.34 L 908.93 774.94 L 916.89 777.48 L 930.41 774.49 L 938.93 771.40 L 946.54 771.60 L 954.50 770.20 L 963.12 766.63 L 974.70 759.94 L 975.46 758.74 L 977.26 758.78 L 981.63 756.13 L 988.23 754.55 L 1004.79 746.37 L 1011.25 744.14 L 1013.85 736.56 L 1018.36 732.75 L 1024.70 730.52 L 1030.97 723.82 L 1032.51 723.61 L 1036.98 725.80 L 1038.60 725.69 L 1044.98 717.01 L 1060.42 713.41 L 1071.63 709.81 L 1078.67 708.87 L 1103.48 698.89 L 1106.55 698.89 L 1108.42 697.70 L 1115.69 697.81 L 1120.07 696.48 L 1142.86 696.30 L 1165.24 690.18 L 1174.89 691.62 L 1177.22 696.26 L 1181.86 701.23 L 1182.23 703.32 L 1196.90 710.28 L 1200.96 714.35 L 1208.78 718.38 L 1211.61 722.02 L 1218.55 723.53 L 1222.12 722.74 L 1230.12 724.87 L 1236.06 727.82 L 1259.00 744.27 L 1281.91 757.44 L 1286.28 758.64 L 1287.98 760.31 L 1288.73 762.80 L 1287.96 768.44 L 1289.98 771.51 L 1293.90 774.98 L 1302.95 773.58 L 1307.44 771.44 L 1327.93 780.83 L 1345.45 796.66 L 1345.79 800.04 L 1344.81 803.50 L 1342.36 808.62 L 1335.96 812.26 L 1330.84 818.63 L 1315.24 822.75 L 1313.13 823.97 L 1313.17 826.03 L 1316.18 829.27 L 1318.97 830.78 L 1329.10 834.13 L 1342.93 836.81 L 1342.59 838.32 L 1347.22 840.38 L 1341.31 847.23 L 1334.45 848.81 L 1331.93 850.25 L 1332.15 851.76 L 1335.36 855.48 L 1333.51 864.05 L 1332.23 868.28 L 1330.08 871.27 L 1329.55 873.11 L 1330.27 874.06 L 1329.22 876.35 L 1327.60 879.14 L 1323.49 883.15 L 1323.41 884.30 L 1334.04 885.55 L 1335.28 885.95 L 1334.23 886.98 L 1310.31 897.93 L 1306.06 901.06 L 1304.81 901.01 L 1304.70 901.76 L 1300.13 901.92 L 1293.65 906.38 L 1291.86 906.44 L 1291.20 907.66 L 1289.95 907.18 L 1289.46 908.35 L 1287.28 907.77 L 1284.56 908.78 L 1269.22 907.18 L 1264.04 907.93 L 1248.92 905.00 L 1234.49 904.04 L 1236.45 906.70 L 1246.52 914.15 L 1235.85 914.84 L 1249.41 924.20 L 1249.90 927.12 L 1248.26 927.60 L 1246.09 926.91 L 1244.40 929.46 L 1242.82 928.08 L 1241.68 927.87 L 1240.86 929.04 L 1239.44 929.25 L 1234.22 927.44 L 1231.50 932.76 L 1229.76 932.55 L 1227.36 933.83 L 1223.82 931.32 L 1223.39 934.57 L 1219.53 933.77 L 1217.89 935.74 L 1210.87 931.59 L 1209.95 936.43 L 1208.97 937.39 L 1206.08 934.89 L 1204.72 934.68 L 1203.31 938.13 L 1197.32 935.74 L 1196.45 938.29 L 1191.33 935.79 L 1190.35 936.17 L 1190.46 937.97 L 1187.90 937.65 L 1178.93 939.46 L 1179.85 942.87 L 1178.16 944.20 L 1178.11 945.58 L 1175.28 948.50 L 1174.95 950.15 L 1171.58 952.28 L 1170.11 955.10 L 1161.51 962.49 L 1159.33 970.84 L 1160.31 977.86 L 1163.52 986.00 L 1163.31 987.11 L 1164.34 988.18 L 1163.58 989.45 L 1164.83 990.20 L 1164.50 991.48 L 1166.35 993.60 L 1165.21 994.61 L 1167.50 1000.36" pathLength="1" fill="none" vector-effect="non-scaling-stroke"/>
</svg>
