<svg xmlns="http://www.w3.org/2000/svg" viewBox="0 0 2000 2500" preserveAspectRatio="xMidYMid slice">
  <path class="trace-line" d="M 339.56 1566.24 L 337.31 1568.70 L 334.68 1574.51 L 332.73 1575.25 L 331.80 1577.05 L 341.08 1562.60 L 336.73 1562.05 L 322.92 1578.66 L 340.68 1570.13 L 350.86 1558.06 L 354.62 1557.27 L 375.54 1561.94 L 382.17 1562.27 L 389.49 1559.21 L 399.13 1559.21 L 408.17 1544.03 L 408.35 1536.28 L 411.88 1528.53 L 419.02 1519.14 L 426.77 1515.65 L 459.31 1472.37 L 468.78 1463.96 L 480.54 1458.66 L 489.79 1450.21 L 503.46 1446.19 L 516.33 1439.36 L 530.53 1438.15 L 532.81 1432.93 L 518.47 1429.17 L 520.88 1424.61 L 526.11 1423.14 L 530.93 1416.84 L 529.19 1406.79 L 526.51 1404.24 L 528.39 1400.76 L 547.02 1401.56 L 552.65 1400.89 L 562.43 1396.07 L 575.03 1393.92 L 586.42 1393.79 L 589.50 1398.61 L 598.35 1397.68 L 602.21 1399.29 L 605.86 1403.42 L 609.03 1405.32 L 622.49 1406.82 L 631.73 1403.92 L 639.91 1399.85 L 647.03 1397.95 L 659.17 1397.01 L 666.67 1394.91 L 674.77 1389.65 L 681.20 1383.35 L 685.49 1382.95 L 687.64 1377.18 L 697.42 1369.28 L 697.55 1364.85 L 694.20 1362.04 L 699.30 1354.40 L 705.46 1352.12 L 704.66 1340.33 L 714.31 1335.37 L 715.51 1329.21 L 736.69 1320.90 L 740.04 1315.40 L 741.24 1304.68 L 747.27 1297.45 L 758.40 1295.43 L 764.29 1289.40 L 777.30 1269.84 L 779.84 1263.94 L 789.09 1260.99 L 794.81 1257.58 L 798.86 1257.66 L 810.55 1248.74 L 812.11 1244.64 L 815.65 1244.01 L 817.89 1240.46 L 826.04 1236.36 L 832.88 1234.70 L 855.65 1219.72 L 860.75 1212.62 L 873.13 1200.55 L 876.37 1194.00 L 876.93 1189.27 L 900.63 1160.71 L 901.44 1157.09 L 904.48 1153.07 L 914.44 1142.81 L 927.25 1136.81 L 955.87 1131.21 L 959.72 1129.64 L 974.53 1121.20 L 989.46 1108.03 L 1008.80 1095.33 L 1024.11 1090.12 L 1033.07 1084.84 L 1038.91 1075.92 L 1056.83 1067.95 L 1076.61 1056.75 L 1089.92 1050.84 L 1101.18 1049.65 L 1129.55 1054.47 L 1142.80 1055.41 L 1152.50 1059.44 L 1168.99 1054.70 L 1179.38 1049.81 L 1188.65 1050.13 L 1198.35 1047.92 L 1208.86 1042.28 L 1216.86 1035.34 L 1222.98 1031.69 L 1223.90 1029.80 L 1226.10 1029.85 L 1231.42 1025.67 L 1239.47 1023.16 L 1253.77 1014.96 L 1259.66 1010.22 L 1267.54 1006.70 L 1270.70 994.72 L 1276.20 988.69 L 1283.93 985.16 L 1289.82 975.81 L 1291.57 974.56 L 1293.45 974.22 L 1298.89 977.69 L 1300.87 977.52 L 1305.50 970.74 L 1308.64 963.79 L 1327.48 958.09 L 1331.16 955.75 L 1341.14 952.39 L 1349.72 950.91 L 1358.75 945.72 L 1366.17 943.16 L 1379.97 935.12 L 1383.70 935.12 L 1385.99 933.25 L 1394.84 933.42 L 1400.19 931.31 L 1420.41 930.28 L 1427.96 931.02 L 1455.24 921.34 L 1464.95 922.53 L 1467.02 923.61 L 1469.85 930.97 L 1475.51 938.83 L 1475.96 942.14 L 1478.61 944.59 L 1488.50 949.15 L 1493.85 953.13 L 1498.79 959.57 L 1508.32 965.95 L 1511.78 971.71 L 1520.23 974.10 L 1524.59 972.85 L 1534.34 976.21 L 1541.57 980.88 L 1569.55 1006.91 L 1597.47 1027.74 L 1602.79 1029.63 L 1604.87 1032.27 L 1605.78 1036.22 L 1604.84 1045.14 L 1607.31 1049.99 L 1612.08 1055.48 L 1623.11 1053.26 L 1628.60 1049.88 L 1638.83 1055.07 L 1653.57 1064.73 L 1674.92 1089.77 L 1675.34 1095.12 L 1674.14 1100.60 L 1671.16 1108.69 L 1663.35 1114.45 L 1657.11 1124.53 L 1638.10 1131.05 L 1635.53 1132.97 L 1635.57 1136.23 L 1639.25 1141.35 L 1642.65 1143.74 L 1655.00 1149.04 L 1671.85 1153.29 L 1671.44 1155.67 L 1677.08 1158.93 L 1669.87 1169.76 L 1661.52 1172.27 L 1658.44 1174.54 L 1658.72 1176.93 L 1662.62 1182.81 L 1660.37 1196.37 L 1658.81 1203.07 L 1656.19 1207.78 L 1655.55 1210.69 L 1656.42 1212.21 L 1655.14 1215.82 L 1653.16 1220.24 L 1648.16 1226.59 L 1648.06 1228.39 L 1661.01 1230.37 L 1662.53 1231.01 L 1661.24 1232.64 L 1650.04 1238.35 L 1641.50 1244.82 L 1632.08 1249.95 L 1626.91 1254.92 L 1625.38 1254.83 L 1625.25 1256.01 L 1619.68 1256.26 L 1611.78 1263.33 L 1609.59 1263.41 L 1608.80 1265.35 L 1607.27 1264.59 L 1606.68 1266.44 L 1604.02 1265.52 L 1602.76 1266.95 L 1600.70 1267.12 L 1582.00 1264.59 L 1575.69 1265.77 L 1557.25 1261.14 L 1551.34 1261.48 L 1539.67 1259.63 L 1542.06 1263.84 L 1553.20 1273.51 L 1554.33 1275.61 L 1541.32 1276.71 L 1557.85 1291.51 L 1558.44 1296.14 L 1556.45 1296.90 L 1553.80 1295.80 L 1551.74 1299.84 L 1549.82 1297.65 L 1548.42 1297.32 L 1547.43 1299.17 L 1546.43 1298.49 L 1545.70 1299.51 L 1539.34 1296.65 L 1536.02 1305.06 L 1533.89 1304.72 L 1530.98 1306.74 L 1526.66 1302.78 L 1526.13 1307.92 L 1521.42 1306.66 L 1519.43 1309.77 L 1510.87 1303.21 L 1509.75 1310.86 L 1508.55 1312.38 L 1505.04 1308.42 L 1503.38 1308.09 L 1501.65 1313.55 L 1494.35 1309.77 L 1493.29 1313.81 L 1487.06 1309.85 L 1485.86 1310.44 L 1486.00 1313.30 L 1482.88 1312.79 L 1471.93 1315.65 L 1473.06 1321.04 L 1471.00 1323.14 L 1470.93 1325.33 L 1467.48 1329.96 L 1467.09 1332.56 L 1462.97 1335.93 L 1461.18 1340.39 L 1450.70 1352.08 L 1448.05 1365.29 L 1449.24 1376.40 L 1453.16 1389.27 L 1452.89 1391.03 L 1454.15 1392.72 L 1453.22 1394.73 L 1454.75 1395.91 L 1454.35 1397.93 L 1456.61 1401.30 L 1455.21 1402.89 L 1458.00 1411.98" pathLength="1" fill="none" vector-effect="non-scaling-stroke"/>
  <circle class="trace-start" cx="339.56" cy="1566.24" r="6.25"/>
  <circle class="trace-summit-halo" cx="1460.49" cy="1419.83" r="15.97"/>
  <circle class="trace-summit" cx="1460.49" cy="1419.83" r="9.03"/>
</svg>
