<svg xmlns="http://www.w3.org/2000/svg" viewBox="0 0 1600 900" preserveAspectRatio="xMidYMid slice">
  <path class="trace-line" d="M 221.86 726.93 L 219.90 729.08 L 217.59 734.16 L 215.89 734.82 L 215.07 736.39 L 223.19 723.74 L 219.39 723.26 L 207.29 737.80 L 222.84 730.33 L 231.76 719.76 L 235.05 719.07 L 253.36 723.16 L 259.16 723.44 L 265.57 720.77 L 274.01 720.77 L 281.93 707.48 L 282.08 700.69 L 285.17 693.90 L 291.42 685.68 L 298.21 682.62 L 326.69 644.73 L 334.98 637.36 L 345.28 632.72 L 353.37 625.32 L 365.34 621.80 L 376.60 615.81 L 389.04 614.76 L 391.03 610.18 L 378.48 606.89 L 380.59 602.91 L 385.17 601.61 L 389.39 596.10 L 387.86 587.30 L 385.52 585.07 L 387.16 582.01 L 403.47 582.72 L 408.40 582.13 L 416.96 577.91 L 427.99 576.03 L 437.96 575.91 L 440.66 580.14 L 448.40 579.32 L 451.78 580.73 L 454.98 584.35 L 457.75 586.01 L 469.53 587.33 L 477.62 584.79 L 484.78 581.22 L 491.02 579.56 L 501.65 578.73 L 508.21 576.89 L 515.30 572.29 L 520.93 566.77 L 524.68 566.42 L 526.56 561.37 L 535.13 554.45 L 535.24 550.57 L 532.31 548.11 L 536.77 541.42 L 542.17 539.43 L 541.46 529.10 L 549.91 524.76 L 550.96 519.36 L 569.50 512.08 L 572.43 507.27 L 573.49 497.88 L 578.77 491.55 L 588.51 489.78 L 593.67 484.50 L 605.05 467.37 L 607.28 462.21 L 615.37 459.62 L 620.38 456.64 L 623.92 456.71 L 634.16 448.90 L 635.52 445.31 L 638.63 444.76 L 640.59 441.65 L 647.72 438.06 L 653.71 436.61 L 673.64 423.48 L 678.10 417.26 L 688.94 406.70 L 691.77 400.96 L 692.26 396.82 L 713.01 371.81 L 713.72 368.64 L 716.39 365.12 L 725.10 356.14 L 736.32 350.89 L 761.37 345.98 L 764.74 344.60 L 777.70 337.21 L 790.77 325.68 L 807.71 314.56 L 821.10 310.00 L 828.95 305.37 L 834.06 297.56 L 849.75 290.59 L 867.06 280.78 L 878.72 275.60 L 888.57 274.56 L 913.40 278.78 L 925.00 279.60 L 933.50 283.13 L 947.93 278.98 L 957.02 274.70 L 965.14 274.98 L 973.63 273.04 L 982.83 268.10 L 989.83 262.03 L 995.19 258.83 L 996.00 257.17 L 997.92 257.22 L 1002.58 253.56 L 1009.63 251.36 L 1022.14 244.18 L 1027.30 240.03 L 1034.20 236.95 L 1036.97 226.45 L 1041.78 221.18 L 1048.54 218.09 L 1053.70 209.90 L 1055.23 208.80 L 1056.88 208.50 L 1061.64 211.55 L 1063.38 211.40 L 1067.43 205.46 L 1070.18 199.37 L 1086.67 194.38 L 1089.89 192.34 L 1098.63 189.39 L 1106.14 188.09 L 1114.05 183.55 L 1120.54 181.31 L 1132.62 174.27 L 1135.88 174.27 L 1137.89 172.63 L 1145.64 172.78 L 1150.32 170.93 L 1168.02 170.03 L 1174.63 170.68 L 1198.51 162.20 L 1207.01 163.25 L 1208.82 164.19 L 1211.30 170.63 L 1216.25 177.51 L 1216.64 180.41 L 1218.97 182.56 L 1227.62 186.55 L 1232.30 190.04 L 1236.63 195.68 L 1244.97 201.27 L 1248.00 206.31 L 1255.40 208.40 L 1259.21 207.31 L 1267.75 210.25 L 1274.08 214.34 L 1298.57 237.13 L 1323.01 255.37 L 1327.67 257.03 L 1329.49 259.34 L 1330.29 262.80 L 1329.46 270.61 L 1331.62 274.86 L 1335.80 279.67 L 1345.46 277.72 L 1350.26 274.76 L 1359.22 279.30 L 1372.13 287.76 L 1390.82 309.69 L 1391.18 314.38 L 1390.13 319.17 L 1387.52 326.26 L 1380.69 331.30 L 1375.22 340.13 L 1358.58 345.84 L 1356.33 347.52 L 1356.37 350.37 L 1359.58 354.86 L 1362.56 356.95 L 1373.37 361.59 L 1388.12 365.31 L 1387.76 367.40 L 1392.71 370.26 L 1386.39 379.74 L 1379.08 381.93 L 1376.39 383.92 L 1376.63 386.01 L 1380.04 391.16 L 1378.07 403.04 L 1376.71 408.90 L 1374.42 413.03 L 1373.85 415.58 L 1374.62 416.91 L 1373.49 420.07 L 1371.76 423.94 L 1367.38 429.50 L 1367.30 431.08 L 1378.64 432.81 L 1379.96 433.37 L 1378.84 434.80 L 1369.03 439.80 L 1361.56 445.47 L 1353.31 449.96 L 1348.78 454.31 L 1347.45 454.23 L 1347.33 455.27 L 1342.45 455.49 L 1335.54 461.67 L 1333.63 461.75 L 1332.93 463.44 L 1331.59 462.78 L 1331.07 464.40 L 1328.75 463.59 L 1327.64 464.84 L 1325.84 464.99 L 1309.47 462.78 L 1303.95 463.81 L 1287.80 459.76 L 1282.63 460.06 L 1272.41 458.43 L 1274.51 462.12 L 1284.26 470.59 L 1285.25 472.43 L 1273.86 473.39 L 1288.33 486.35 L 1288.85 490.40 L 1287.11 491.07 L 1284.78 490.11 L 1282.98 493.64 L 1281.30 491.73 L 1280.08 491.44 L 1279.21 493.05 L 1278.34 492.46 L 1277.70 493.35 L 1272.12 490.85 L 1269.22 498.21 L 1267.36 497.92 L 1264.81 499.69 L 1261.03 496.22 L 1260.57 500.72 L 1256.44 499.61 L 1254.70 502.34 L 1247.21 496.59 L 1246.22 503.30 L 1245.18 504.62 L 1242.10 501.16 L 1240.65 500.86 L 1239.14 505.65 L 1232.75 502.34 L 1231.82 505.87 L 1226.36 502.41 L 1225.31 502.93 L 1225.43 505.43 L 1222.70 504.99 L 1213.12 507.49 L 1214.11 512.21 L 1212.30 514.05 L 1212.25 515.97 L 1209.23 520.02 L 1208.88 522.30 L 1205.28 525.25 L 1203.71 529.15 L 1194.53 539.39 L 1192.21 550.96 L 1193.26 560.68 L 1196.68 571.95 L 1196.45 573.50 L 1197.55 574.97 L 1196.74 576.74 L 1198.08 577.77 L 1197.73 579.54 L 1199.70 582.49 L 1198.48 583.89 L 1200.92 591.84" pathLength="1" fill="none" vector-effect="non-scaling-stroke"/>
  <circle class="trace-start" cx="221.86" cy="726.93" r="5.47"/>
  <circle class="trace-summit-halo" cx="1203.10" cy="598.71" r="13.98"/>
  <circle class="trace-summit" cx="1203.10" cy="598.71" r="7.90"/>
</svg>
