<svg xmlns="http://www.w3.org/2000/svg" viewBox="0 0 2000 2500" preserveAspectRatio="none">
  <path class="trace-underlay" d="M 856.33 1202.68 L 858.41 1213.64 L 859.83 1218.49 L 863.68 1220.73 L 871.05 1223.57 L 884.37 1226.72 L 893.69 1228.61 L 903.02 1227.90 L 909.31 1229.41 L 916.11 1232.55 L 922.15 1235.86 L 928.52 1241.35 L 935.99 1244.55 L 941.97 1248.14 L 950.28 1251.60 L 962.23 1253.27 L 970.46 1256.08 L 978.52 1258.04 L 986.92 1264.17 L 995.72 1266.48 L 1018.56 1268.84 L 1026.14 1270.19 L 1033.32 1267.54 L 1048.35 1267.13 L 1054.00 1263.82 L 1064.92 1267.29 L 1076.32 1262.64 L 1086.56 1262.71 L 1114.13 1263.55 L 1125.20 1261.80 L 1136.04 1263.94 L 1146.09 1264.04 L 1152.98 1262.06 L 1168.24 1260.57 L 1175.69 1262.23 L 1182.00 1267.37" pathLength="1" fill="none" vector-effect="non-scaling-stroke"/>
  <path class="trace-line" d="M 856.33 1202.68 L 858.41 1213.64 L 859.83 1218.49 L 863.68 1220.73 L 871.05 1223.57 L 884.37 1226.72 L 893.69 1228.61 L 903.02 1227.90 L 909.31 1229.41 L 916.11 1232.55 L 922.15 1235.86 L 928.52 1241.35 L 935.99 1244.55 L 941.97 1248.14 L 950.28 1251.60 L 962.23 1253.27 L 970.46 1256.08 L 978.52 1258.04 L 986.92 1264.17 L 995.72 1266.48 L 1018.56 1268.84 L 1026.14 1270.19 L 1033.32 1267.54 L 1048.35 1267.13 L 1054.00 1263.82 L 1064.92 1267.29 L 1076.32 1262.64 L 1086.56 1262.71 L 1114.13 1263.55 L 1125.20 1261.80 L 1136.04 1263.94 L 1146.09 1264.04 L 1152.98 1262.06 L 1168.24 1260.57 L 1175.69 1262.23 L 1182.00 1267.37" pathLength="1" fill="none" vector-effect="non-scaling-stroke"/>
</svg>
