<svg xmlns="http://www.w3.org/2000/svg" viewBox="0 0 1600 900" preserveAspectRatio="xMidYMid slice">
  <path class="trace-line" d="M 207.50 291.37 L 215.04 342.88 L 220.16 365.69 L 234.12 376.21 L 260.79 389.54 L 308.99 404.34 L 342.75 413.20 L 376.50 409.90 L 399.26 416.99 L 423.86 431.74 L 445.74 447.32 L 468.78 473.08 L 495.82 488.16 L 517.46 505.01 L 547.56 521.29 L 590.80 529.11 L 620.58 542.30 L 649.76 551.54 L 680.16 580.34 L 712.01 591.18 L 794.67 602.30 L 822.12 608.63 L 848.11 596.20 L 902.51 594.24 L 922.96 578.71 L 962.46 595.03 L 1003.72 573.15 L 1040.81 573.49 L 1140.57 577.44 L 1180.65 569.21 L 1219.90 579.27 L 1256.25 579.74 L 1281.20 570.41 L 1336.40 563.43 L 1363.39 571.21 L 1386.23 595.36" pathLength="1" fill="none" vector-effect="non-scaling-stroke"/>
  <circle class="trace-start" cx="207.50" cy="291.37" r="6.53"/>
  <circle class="trace-summit-halo" cx="1392.50" cy="597.17" r="16.68"/>
  <circle class="trace-summit" cx="1392.50" cy="597.17" r="9.43"/>
</svg>
