<svg xmlns="http://www.w3.org/2000/svg" viewBox="0 0 2000 2500" preserveAspectRatio="xMidYMid slice">
  <path class="trace-line" d="M 432.71 1098.22 L 439.92 1147.51 L 444.83 1169.33 L 458.19 1179.40 L 483.72 1192.15 L 529.88 1206.31 L 562.19 1214.79 L 594.51 1211.63 L 616.31 1218.42 L 639.86 1232.53 L 660.81 1247.44 L 682.87 1272.08 L 708.75 1286.51 L 729.48 1302.63 L 758.30 1318.21 L 799.70 1325.69 L 828.21 1338.31 L 856.15 1347.15 L 885.26 1374.71 L 915.75 1385.08 L 994.90 1395.72 L 1021.18 1401.78 L 1046.06 1389.88 L 1098.15 1388.01 L 1117.73 1373.15 L 1155.55 1388.76 L 1195.05 1367.83 L 1230.57 1368.15 L 1326.08 1371.94 L 1364.45 1364.06 L 1402.04 1373.69 L 1436.84 1374.13 L 1460.73 1365.21 L 1513.59 1358.53 L 1539.43 1365.97 L 1561.30 1389.08" pathLength="1" fill="none" vector-effect="non-scaling-stroke"/>
  <circle class="trace-start" cx="432.71" cy="1098.22" r="6.25"/>
  <circle class="trace-summit-halo" cx="1567.29" cy="1390.81" r="15.97"/>
  <circle class="trace-summit" cx="1567.29" cy="1390.81" r="9.03"/>
</svg>
