<svg xmlns="http://www.w3.org/2000/svg" viewBox="-107.6006196 -37.6231085 0.0095752 0.0020399" preserveAspectRatio="xMidYMid meet">
  <path d="M -107.5998217 -37.6229385 L -107.5997707 -37.6226625 L -107.5997360 -37.6225403 L -107.5996415 -37.6224839 L -107.5994610 -37.6224125 L -107.5991347 -37.6223332 L -107.5989062 -37.6222857 L -107.5986777 -37.6223034 L -107.5985236 -37.6222654 L -107.5983571 -37.6221864 L -107.5982090 -37.6221029 L -107.5980530 -37.6219649 L -107.5978700 -37.6218841 L -107.5977235 -37.6217938 L -107.5975197 -37.6217066 L -107.5972270 -37.6216647 L -107.5970254 -37.6215940 L -107.5968279 -37.6215445 L -107.5966221 -37.6213902 L -107.5964065 -37.6213321 L -107.5958469 -37.6212725 L -107.5956611 -37.6212386 L -107.5954852 -37.6213052 L -107.5951169 -37.6213157 L -107.5949785 -37.6213989 L -107.5947111 -37.6213115 L -107.5944318 -37.6214287 L -107.5941807 -37.6214269 L -107.5935054 -37.6214057 L -107.5932341 -37.6214498 L -107.5929684 -37.6213959 L -107.5927223 -37.6213934 L -107.5925534 -37.6214434 L -107.5921797 -37.6214808 L -107.5919970 -37.6214391 L -107.5918424 -37.6213097" pathLength="1" fill="none" stroke="currentColor" vector-effect="non-scaling-stroke"/>
</svg>
