<svg xmlns="http://www.w3.org/2000/svg" viewBox="0 0 2000 2500" preserveAspectRatio="none">
  <path class="trace-underlay" d="M 459.14 1376.61 L 462.48 1376.24 L 464.38 1375.51 L 469.63 1371.96 L 481.33 1367.38 L 485.98 1367.15 L 495.71 1368.94 L 501.66 1369.39 L 521.78 1367.23 L 529.82 1368.59 L 535.53 1370.37 L 551.43 1372.19 L 557.31 1375.41 L 570.48 1379.06 L 576.85 1382.41 L 579.31 1384.45 L 580.83 1386.83 L 581.33 1395.88 L 583.01 1400.43 L 589.96 1411.84 L 592.35 1422.18 L 591.04 1425.38 L 588.54 1428.71 L 587.31 1431.45 L 588.41 1433.39 L 591.38 1436.36 L 594.63 1437.89 L 600.05 1435.58 L 604.64 1437.99 L 609.29 1435.43 L 616.09 1438.40 L 618.71 1440.14 L 619.96 1442.78 L 620.20 1444.59 L 621.23 1446.03 L 623.15 1447.41 L 631.24 1451.41 L 637.50 1456.02 L 642.07 1458.21 L 652.87 1460.51 L 660.32 1463.13 L 667.76 1467.08 L 671.29 1468.33 L 677.17 1468.44 L 681.37 1467.50 L 701.83 1466.01 L 705.97 1464.88 L 714.03 1460.88 L 728.86 1448.90 L 733.83 1443.72 L 735.59 1443.32 L 740.33 1444.72 L 750.82 1440.92 L 755.08 1440.19 L 771.35 1432.68 L 772.92 1430.78 L 775.05 1426.61 L 774.77 1423.50 L 776.70 1417.45 L 778.39 1415.38 L 780.27 1414.12 L 781.86 1414.10 L 785.70 1416.68 L 786.85 1416.17 L 788.78 1416.30 L 793.13 1417.98 L 795.48 1417.28 L 796.47 1415.71 L 796.85 1413.78 L 796.08 1411.38 L 797.01 1409.74 L 802.96 1405.99 L 804.36 1404.64 L 804.67 1398.80 L 806.95 1395.77 L 817.00 1389.10 L 821.58 1389.00 L 823.37 1388.53 L 829.50 1384.29 L 832.51 1383.39 L 834.43 1381.50 L 835.59 1377.65 L 837.98 1376.28 L 843.71 1375.00 L 847.17 1373.47 L 851.43 1368.85 L 858.52 1365.59 L 863.27 1361.79 L 867.58 1360.53 L 874.53 1359.80 L 878.04 1358.14 L 882.28 1354.84 L 884.94 1353.68 L 889.81 1353.17 L 892.20 1353.40 L 899.10 1356.09 L 901.75 1355.60 L 902.85 1354.66 L 905.15 1350.86 L 906.70 1345.58 L 910.58 1339.96 L 915.57 1334.14 L 918.91 1331.85 L 923.71 1330.49 L 926.63 1329.03 L 931.20 1324.98 L 933.76 1321.81 L 941.12 1317.02 L 944.60 1311.79 L 954.08 1303.02 L 957.19 1299.05 L 959.05 1295.80 L 963.54 1291.06 L 964.23 1288.82 L 963.61 1282.39 L 964.15 1279.05 L 966.86 1274.98 L 961.44 1264.85 L 959.22 1262.94 L 954.20 1262.33 L 952.48 1261.65 L 949.37 1259.17 L 945.53 1256.97 L 941.74 1256.73 L 939.76 1255.61 L 939.98 1253.98 L 941.39 1252.70 L 943.87 1251.82 L 945.06 1250.31 L 944.34 1248.29 L 948.13 1246.65 L 952.47 1242.93 L 946.33 1241.50 L 950.16 1239.07 L 955.52 1236.63 L 956.48 1235.37 L 956.78 1233.23 L 960.38 1231.19 L 964.73 1230.16 L 968.99 1230.37 L 970.13 1229.73 L 970.33 1227.80 L 973.03 1226.22 L 973.77 1223.17 L 975.58 1221.41 L 973.47 1219.21 L 972.11 1216.67 L 973.62 1215.14 L 976.47 1213.83 L 977.17 1212.65 L 976.52 1210.98 L 972.01 1208.21 L 974.02 1206.76 L 981.86 1204.52 L 984.10 1203.14 L 988.06 1198.88 L 992.75 1196.56 L 995.94 1193.42 L 996.98 1191.81 L 997.36 1189.07 L 998.10 1188.30 L 999.46 1187.98 L 1004.61 1190.86 L 1006.20 1191.20 L 1012.25 1189.35 L 1018.19 1192.20 L 1023.10 1188.03 L 1026.61 1186.40 L 1027.44 1181.92 L 1029.95 1179.14 L 1035.46 1177.32 L 1039.83 1174.07 L 1043.83 1169.72 L 1047.19 1162.48 L 1046.22 1157.36 L 1043.81 1153.89 L 1044.24 1151.09 L 1048.91 1148.83 L 1054.33 1145.36 L 1070.31 1137.84 L 1072.42 1133.36 L 1077.37 1132.70 L 1083.97 1133.31 L 1086.01 1131.87 L 1086.96 1128.87 L 1092.73 1125.71 L 1096.65 1121.99 L 1101.00 1120.77 L 1110.49 1120.89 L 1119.83 1121.61 L 1127.36 1122.91 L 1137.37 1126.96 L 1146.90 1134.65 L 1149.06 1135.13 L 1154.49 1132.93 L 1169.40 1132.07 L 1189.09 1128.49 L 1197.22 1122.83 L 1206.43 1121.08 L 1219.12 1113.67 L 1223.48 1111.69 L 1226.75 1103.82 L 1231.02 1097.12 L 1234.95 1092.57 L 1240.32 1088.39 L 1249.50 1087.42 L 1255.47 1088.15 L 1261.52 1086.00 L 1279.56 1084.34 L 1284.86 1079.75 L 1291.37 1078.10 L 1298.59 1073.88 L 1319.20 1065.33 L 1326.75 1063.96 L 1335.28 1066.26 L 1338.75 1062.41 L 1339.31 1057.93 L 1346.81 1056.57 L 1356.65 1056.09 L 1370.72 1064.49 L 1372.70 1050.13 L 1385.09 1058.76 L 1387.07 1048.38 L 1403.03 1063.42 L 1406.89 1063.27 L 1409.67 1050.29 L 1412.74 1047.23 L 1418.38 1049.52 L 1422.94 1042.04 L 1423.22 1040.00 L 1424.88 1038.64 L 1426.36 1039.44 L 1431.07 1044.60 L 1434.12 1040.84 L 1437.04 1035.91 L 1439.24 1034.63 L 1440.78 1034.98 L 1442.17 1036.35 L 1443.16 1040.19 L 1443.31 1045.06 L 1445.04 1049.18 L 1446.62 1049.27 L 1448.26 1050.13 L 1448.43 1051.38 L 1449.55 1051.97 L 1451.66 1051.22 L 1452.92 1050.06 L 1454.63 1050.65 L 1455.96 1051.83 L 1460.90 1047.69 L 1462.53 1045.29 L 1465.58 1043.45 L 1470.28 1041.85 L 1479.77 1034.71 L 1483.19 1033.43 L 1489.66 1028.01 L 1497.76 1019.17 L 1505.26 1013.84 L 1507.59 1010.46 L 1510.47 1008.73 L 1512.72 1010.02 L 1515.57 1013.25 L 1519.21 1016.31 L 1524.49 1018.59 L 1527.43 1020.93 L 1533.48 1027.70 L 1534.49 1029.50 L 1536.81 1030.17 L 1538.33 1031.69 L 1541.39 1038.52 L 1543.73 1041.89 L 1546.72 1049.66 L 1550.89 1052.16 L 1558.56 1061.28 L 1561.51 1063.83 L 1566.50 1070.24 L 1570.07 1076.12 L 1570.04 1079.82 L 1568.51 1087.13 L 1569.25 1095.69 L 1564.41 1106.56" pathLength="1" fill="none" vector-effect="non-scaling-stroke"/>
  <path class="trace-line" d="M 459.14 1376.61 L 462.48 1376.24 L 464.38 1375.51 L 469.63 1371.96 L 481.33 1367.38 L 485.98 1367.15 L 495.71 1368.94 L 501.66 1369.39 L 521.78 1367.23 L 529.82 1368.59 L 535.53 1370.37 L 551.43 1372.19 L 557.31 1375.41 L 570.48 1379.06 L 576.85 1382.41 L 579.31 1384.45 L 580.83 1386.83 L 581.33 1395.88 L 583.01 1400.43 L 589.96 1411.84 L 592.35 1422.18 L 591.04 1425.38 L 588.54 1428.71 L 587.31 1431.45 L 588.41 1433.39 L 591.38 1436.36 L 594.63 1437.89 L 600.05 1435.58 L 604.64 1437.99 L 609.29 1435.43 L 616.09 1438.40 L 618.71 1440.14 L 619.96 1442.78 L 620.20 1444.59 L 621.23 1446.03 L 623.15 1447.41 L 631.24 1451.41 L 637.50 1456.02 L 642.07 1458.21 L 652.87 1460.51 L 660.32 1463.13 L 667.76 1467.08 L 671.29 1468.33 L 677.17 1468.44 L 681.37 1467.50 L 701.83 1466.01 L 705.97 1464.88 L 714.03 1460.88 L 728.86 1448.90 L 733.83 1443.72 L 735.59 1443.32 L 740.33 1444.72 L 750.82 1440.92 L 755.08 1440.19 L 771.35 1432.68 L 772.92 1430.78 L 775.05 1426.61 L 774.77 1423.50 L 776.70 1417.45 L 778.39 1415.38 L 780.27 1414.12 L 781.86 1414.10 L 785.70 1416.68 L 786.85 1416.17 L 788.78 1416.30 L 793.13 1417.98 L 795.48 1417.28 L 796.47 1415.71 L 796.85 1413.78 L 796.08 1411.38 L 797.01 1409.74 L 802.96 1405.99 L 804.36 1404.64 L 804.67 1398.80 L 806.95 1395.77 L 817.00 1389.10 L 821.58 1389.00 L 823.37 1388.53 L 829.50 1384.29 L 832.51 1383.39 L 834.43 1381.50 L 835.59 1377.65 L 837.98 1376.28 L 843.71 1375.00 L 847.17 1373.47 L 851.43 1368.85 L 858.52 1365.59 L 863.27 1361.79 L 867.58 1360.53 L 874.53 1359.80 L 878.04 1358.14 L 882.28 1354.84 L 884.94 1353.68 L 889.81 1353.17 L 892.20 1353.40 L 899.10 1356.09 L 901.75 1355.60 L 902.85 1354.66 L 905.15 1350.86 L 906.70 1345.58 L 910.58 1339.96 L 915.57 1334.14 L 918.91 1331.85 L 923.71 1330.49 L 926.63 1329.03 L 931.20 1324.98 L 933.76 1321.81 L 941.12 1317.02 L 944.60 1311.79 L 954.08 1303.02 L 957.19 1299.05 L 959.05 1295.80 L 963.54 1291.06 L 964.23 1288.82 L 963.61 1282.39 L 964.15 1279.05 L 966.86 1274.98 L 961.44 1264.85 L 959.22 1262.94 L 954.20 1262.33 L 952.48 1261.65 L 949.37 1259.17 L 945.53 1256.97 L 941.74 1256.73 L 939.76 1255.61 L 939.98 1253.98 L 941.39 1252.70 L 943.87 1251.82 L 945.06 1250.31 L 944.34 1248.29 L 948.13 1246.65 L 952.47 1242.93 L 946.33 1241.50 L 950.16 1239.07 L 955.52 1236.63 L 956.48 1235.37 L 956.78 1233.23 L 960.38 1231.19 L 964.73 1230.16 L 968.99 1230.37 L 970.13 1229.73 L 970.33 1227.80 L 973.03 1226.22 L 973.77 1223.17 L 975.58 1221.41 L 973.47 1219.21 L 972.11 1216.67 L 973.62 1215.14 L 976.47 1213.83 L 977.17 1212.65 L 976.52 1210.98 L 972.01 1208.21 L 974.02 1206.76 L 981.86 1204.52 L 984.10 1203.14 L 988.06 1198.88 L 992.75 1196.56 L 995.94 1193.42 L 996.98 1191.81 L 997.36 1189.07 L 998.10 1188.30 L 999.46 1187.98 L 1004.61 1190.86 L 1006.20 1191.20 L 1012.25 1189.35 L 1018.19 1192.20 L 1023.10 1188.03 L 1026.61 1186.40 L 1027.44 1181.92 L 1029.95 1179.14 L 1035.46 1177.32 L 1039.83 1174.07 L 1043.83 1169.72 L 1047.19 1162.48 L 1046.22 1157.36 L 1043.81 1153.89 L 1044.24 1151.09 L 1048.91 1148.83 L 1054.33 1145.36 L 1070.31 1137.84 L 1072.42 1133.36 L 1077.37 1132.70 L 1083.97 1133.31 L 1086.01 1131.87 L 1086.96 1128.87 L 1092.73 1125.71 L 1096.65 1121.99 L 1101.00 1120.77 L 1110.49 1120.89 L 1119.83 1121.61 L 1127.36 1122.91 L 1137.37 1126.96 L 1146.90 1134.65 L 1149.06 1135.13 L 1154.49 1132.93 L 1169.40 1132.07 L 1189.09 1128.49 L 1197.22 1122.83 L 1206.43 1121.08 L 1219.12 1113.67 L 1223.48 1111.69 L 1226.75 1103.82 L 1231.02 1097.12 L 1234.95 1092.57 L 1240.32 1088.39 L 1249.50 1087.42 L 1255.47 1088.15 L 1261.52 1086.00 L 1279.56 1084.34 L 1284.86 1079.75 L 1291.37 1078.10 L 1298.59 1073.88 L 1319.20 1065.33 L 1326.75 1063.96 L 1335.28 1066.26 L 1338.75 1062.41 L 1339.31 1057.93 L 1346.81 1056.57 L 1356.65 1056.09 L 1370.72 1064.49 L 1372.70 1050.13 L 1385.09 1058.76 L 1387.07 1048.38 L 1403.03 1063.42 L 1406.89 1063.27 L 1409.67 1050.29 L 1412.74 1047.23 L 1418.38 1049.52 L 1422.94 1042.04 L 1423.22 1040.00 L 1424.88 1038.64 L 1426.36 1039.44 L 1431.07 1044.60 L 1434.12 1040.84 L 1437.04 1035.91 L 1439.24 1034.63 L 1440.78 1034.98 L 1442.17 1036.35 L 1443.16 1040.19 L 1443.31 1045.06 L 1445.04 1049.18 L 1446.62 1049.27 L 1448.26 1050.13 L 1448.43 1051.38 L 1449.55 1051.97 L 1451.66 1051.22 L 1452.92 1050.06 L 1454.63 1050.65 L 1455.96 1051.83 L 1460.90 1047.69 L 1462.53 1045.29 L 1465.58 1043.45 L 1470.28 1041.85 L 1479.77 1034.71 L 1483.19 1033.43 L 1489.66 1028.01 L 1497.76 1019.17 L 1505.26 1013.84 L 1507.59 1010.46 L 1510.47 1008.73 L 1512.72 1010.02 L 1515.57 1013.25 L 1519.21 1016.31 L 1524.49 1018.59 L 1527.43 1020.93 L 1533.48 1027.70 L 1534.49 1029.50 L 1536.81 1030.17 L 1538.33 1031.69 L 1541.39 1038.52 L 1543.73 1041.89 L 1546.72 1049.66 L 1550.89 1052.16 L 1558.56 1061.28 L 1561.51 1063.83 L 1566.50 1070.24 L 1570.07 1076.12 L 1570.04 1079.82 L 1568.51 1087.13 L 1569.25 1095.69 L 1564.41 1106.56" pathLength="1" fill="none" vector-effect="non-scaling-stroke"/>
</svg>
