<svg xmlns="http://www.w3.org/2000/svg" viewBox="0 0 1600 900" preserveAspectRatio="xMidYMid slice">
  <path class="trace-line" d="M 207.29 641.16 L 210.86 640.66 L 212.88 639.64 L 214.54 637.72 L 218.49 634.72 L 230.98 628.39 L 235.94 628.06 L 246.32 630.55 L 252.66 631.16 L 263.13 630.09 L 274.13 628.18 L 282.72 630.06 L 288.81 632.52 L 305.78 635.05 L 312.05 639.51 L 326.10 644.56 L 329.60 646.51 L 332.90 649.20 L 335.52 652.03 L 337.15 655.31 L 337.68 667.86 L 339.47 674.15 L 346.89 689.96 L 349.44 704.27 L 348.04 708.71 L 345.37 713.33 L 344.06 717.12 L 345.23 719.80 L 348.40 723.92 L 350.19 725.39 L 351.87 726.03 L 357.66 722.84 L 362.55 726.17 L 367.51 722.63 L 374.77 726.74 L 377.57 729.16 L 378.90 732.81 L 379.15 735.31 L 380.25 737.31 L 382.30 739.22 L 390.93 744.76 L 397.62 751.14 L 402.49 754.18 L 414.01 757.37 L 421.96 761.00 L 429.91 766.47 L 433.67 768.19 L 439.94 768.36 L 444.42 767.04 L 466.26 764.98 L 470.67 763.41 L 474.80 761.16 L 479.28 757.88 L 495.10 741.29 L 500.40 734.11 L 502.28 733.56 L 507.34 735.49 L 518.53 730.24 L 523.08 729.23 L 529.99 724.86 L 537.98 720.68 L 540.44 718.82 L 542.12 716.20 L 544.39 710.41 L 544.09 706.11 L 546.15 697.73 L 547.95 694.86 L 549.96 693.11 L 551.65 693.09 L 555.76 696.67 L 556.97 695.96 L 559.04 696.14 L 563.68 698.46 L 566.18 697.50 L 567.24 695.31 L 567.65 692.65 L 566.82 689.32 L 567.81 687.04 L 574.17 681.85 L 575.67 679.99 L 575.99 671.90 L 578.42 667.70 L 585.43 661.17 L 589.15 658.46 L 594.04 658.32 L 595.94 657.68 L 602.49 651.80 L 605.70 650.56 L 607.75 647.94 L 608.99 642.61 L 611.54 640.70 L 617.65 638.93 L 621.35 636.82 L 625.89 630.41 L 633.45 625.90 L 638.52 620.64 L 640.52 619.51 L 643.12 618.90 L 650.53 617.89 L 654.28 615.59 L 658.80 611.02 L 661.65 609.41 L 666.84 608.70 L 669.39 609.02 L 676.76 612.74 L 678.09 612.79 L 679.59 612.07 L 680.76 610.76 L 683.21 605.50 L 684.87 598.19 L 689.00 590.41 L 694.33 582.34 L 697.89 579.17 L 700.23 577.95 L 703.01 577.29 L 706.13 575.27 L 711.00 569.66 L 713.74 565.27 L 721.59 558.63 L 725.31 551.39 L 732.09 542.69 L 735.42 539.24 L 738.74 533.75 L 740.72 529.25 L 745.52 522.68 L 746.25 519.57 L 745.59 510.66 L 746.16 506.05 L 749.06 500.41 L 746.26 494.50 L 745.01 489.82 L 743.27 486.38 L 740.90 483.73 L 735.55 482.88 L 733.71 481.94 L 730.39 478.52 L 726.30 475.47 L 722.25 475.13 L 720.14 473.58 L 720.38 471.32 L 721.88 469.55 L 724.53 468.34 L 725.80 466.25 L 725.03 463.44 L 729.07 461.17 L 733.70 456.01 L 727.15 454.03 L 731.24 450.67 L 736.95 447.30 L 737.98 445.54 L 738.30 442.58 L 742.14 439.76 L 746.78 438.34 L 751.33 438.62 L 752.55 437.74 L 752.76 435.07 L 755.64 432.87 L 756.43 428.64 L 758.36 426.21 L 756.12 423.17 L 754.66 419.65 L 756.27 417.53 L 759.31 415.71 L 760.06 414.08 L 759.37 411.77 L 754.55 407.94 L 756.70 405.93 L 765.06 402.82 L 767.46 400.91 L 771.67 395.01 L 776.69 391.79 L 780.09 387.45 L 781.20 385.22 L 781.60 381.42 L 782.39 380.36 L 783.84 379.91 L 789.33 383.90 L 791.03 384.38 L 794.42 382.66 L 797.49 381.81 L 803.83 385.76 L 809.07 379.98 L 812.82 377.72 L 813.70 371.52 L 816.38 367.67 L 822.25 365.14 L 826.92 360.65 L 831.19 354.63 L 834.77 344.59 L 833.73 337.50 L 831.17 332.70 L 831.62 328.81 L 836.61 325.69 L 842.39 320.89 L 859.44 310.46 L 861.70 304.26 L 866.98 303.35 L 874.02 304.19 L 876.20 302.20 L 877.21 298.04 L 883.36 293.67 L 887.55 288.51 L 892.19 286.83 L 902.32 286.99 L 912.28 287.99 L 920.32 289.79 L 931.00 295.40 L 941.17 306.05 L 943.47 306.72 L 949.27 303.66 L 965.17 302.48 L 986.19 297.51 L 994.86 289.69 L 1004.69 287.25 L 1018.23 276.99 L 1022.88 274.25 L 1026.37 263.35 L 1030.93 254.07 L 1035.12 247.77 L 1040.85 241.98 L 1050.64 240.64 L 1057.02 241.64 L 1063.48 238.67 L 1082.72 236.38 L 1088.38 230.01 L 1095.32 227.72 L 1103.02 221.89 L 1125.02 210.04 L 1133.07 208.14 L 1142.18 211.33 L 1145.88 205.99 L 1146.48 199.79 L 1154.48 197.91 L 1164.98 197.24 L 1180.00 208.88 L 1182.11 188.99 L 1195.33 200.95 L 1197.44 186.56 L 1214.47 207.40 L 1218.59 207.19 L 1221.55 189.21 L 1224.83 184.98 L 1230.85 188.15 L 1235.72 177.78 L 1236.01 174.96 L 1237.78 173.08 L 1239.37 174.19 L 1244.39 181.33 L 1247.64 176.12 L 1250.76 169.29 L 1253.11 167.52 L 1254.75 168.00 L 1256.23 169.90 L 1257.29 175.22 L 1257.45 181.96 L 1259.30 187.67 L 1260.99 187.80 L 1262.73 188.99 L 1262.92 190.71 L 1264.11 191.54 L 1266.36 190.50 L 1267.70 188.89 L 1269.53 189.71 L 1270.95 191.35 L 1276.22 185.61 L 1277.96 182.28 L 1281.21 179.74 L 1286.23 177.52 L 1296.36 167.63 L 1300.00 165.86 L 1306.90 158.35 L 1315.55 146.11 L 1323.55 138.73 L 1326.04 134.05 L 1329.11 131.64 L 1331.51 133.44 L 1334.55 137.91 L 1338.44 142.14 L 1344.07 145.31 L 1347.21 148.54 L 1353.66 157.93 L 1354.75 160.42 L 1357.22 161.34 L 1358.84 163.45 L 1362.11 172.91 L 1364.61 177.57 L 1367.79 188.33 L 1372.25 191.80 L 1377.73 199.65 L 1380.43 204.44 L 1383.57 207.97 L 1388.90 216.84 L 1392.71 224.98 L 1392.68 230.11 L 1391.04 240.24 L 1391.83 252.08 L 1386.67 267.15" pathLength="1" fill="none" vector-effect="non-scaling-stroke"/>
  <circle class="trace-start" cx="207.29" cy="641.16" r="5.47"/>
  <circle class="trace-summit-halo" cx="1385.29" cy="268.71" r="13.98"/>
  <circle class="trace-summit" cx="1385.29" cy="268.71" r="7.90"/>
</svg>
