<svg xmlns="http://www.w3.org/2000/svg" viewBox="0 0 2000 2500" preserveAspectRatio="xMidYMid slice">
  <path class="trace-line" d="M 322.92 1468.30 L 326.99 1467.72 L 329.30 1466.57 L 331.19 1464.37 L 335.70 1460.95 L 349.97 1453.71 L 355.64 1453.34 L 367.50 1456.18 L 374.74 1456.88 L 386.70 1455.66 L 399.27 1453.47 L 409.08 1455.63 L 416.03 1458.43 L 435.42 1461.32 L 442.58 1466.41 L 458.64 1472.18 L 462.63 1474.41 L 466.40 1477.48 L 469.40 1480.71 L 471.26 1484.46 L 471.86 1498.79 L 473.91 1505.98 L 482.38 1524.03 L 485.29 1540.38 L 483.69 1545.44 L 480.65 1550.71 L 479.15 1555.04 L 480.49 1558.11 L 484.11 1562.81 L 486.16 1564.49 L 488.08 1565.22 L 494.69 1561.58 L 500.28 1565.38 L 505.94 1561.34 L 514.23 1566.04 L 517.43 1568.79 L 518.95 1572.96 L 519.24 1575.82 L 520.50 1578.10 L 522.84 1580.28 L 532.70 1586.60 L 540.33 1593.90 L 545.90 1597.37 L 559.06 1601.01 L 568.14 1605.16 L 577.22 1611.40 L 581.52 1613.37 L 588.69 1613.55 L 593.80 1612.05 L 618.75 1609.70 L 623.79 1607.91 L 628.51 1605.34 L 633.62 1601.59 L 651.70 1582.64 L 657.75 1574.44 L 659.90 1573.81 L 665.67 1576.02 L 678.46 1570.02 L 683.65 1568.87 L 691.55 1563.88 L 700.68 1559.11 L 703.49 1556.98 L 705.40 1553.99 L 708.00 1547.38 L 707.66 1542.47 L 710.02 1532.90 L 712.07 1529.62 L 714.37 1527.63 L 716.30 1527.60 L 720.98 1531.69 L 722.38 1530.88 L 724.74 1531.09 L 730.04 1533.74 L 732.90 1532.64 L 734.10 1530.14 L 734.58 1527.10 L 733.63 1523.30 L 734.76 1520.70 L 742.02 1514.77 L 743.73 1512.64 L 744.10 1503.41 L 746.88 1498.61 L 754.88 1491.15 L 759.13 1488.05 L 764.72 1487.90 L 766.90 1487.16 L 774.37 1480.45 L 778.04 1479.03 L 780.38 1476.04 L 781.80 1469.95 L 784.71 1467.78 L 791.69 1465.75 L 795.91 1463.34 L 801.10 1456.02 L 809.74 1450.88 L 815.53 1444.87 L 817.82 1443.58 L 820.78 1442.88 L 829.25 1441.72 L 833.53 1439.10 L 838.70 1433.88 L 841.95 1432.04 L 847.88 1431.23 L 850.79 1431.59 L 859.21 1435.84 L 860.74 1435.90 L 862.44 1435.08 L 863.78 1433.59 L 866.59 1427.58 L 868.48 1419.23 L 873.20 1410.34 L 879.29 1401.13 L 883.35 1397.51 L 886.03 1396.12 L 889.20 1395.36 L 892.77 1393.05 L 898.33 1386.65 L 901.45 1381.64 L 910.42 1374.06 L 914.68 1365.79 L 922.43 1355.85 L 926.22 1351.91 L 930.02 1345.64 L 932.28 1340.50 L 937.76 1333.00 L 938.60 1329.45 L 937.84 1319.28 L 938.50 1314.00 L 941.80 1307.57 L 938.61 1300.81 L 937.18 1295.47 L 935.19 1291.54 L 932.49 1288.52 L 926.38 1287.55 L 924.28 1286.48 L 920.48 1282.56 L 915.81 1279.08 L 911.19 1278.70 L 908.77 1276.93 L 909.04 1274.35 L 910.76 1272.33 L 913.78 1270.94 L 915.23 1268.55 L 914.36 1265.35 L 918.98 1262.76 L 924.26 1256.86 L 916.77 1254.60 L 921.45 1250.77 L 927.98 1246.91 L 929.15 1244.91 L 929.51 1241.52 L 933.90 1238.31 L 939.20 1236.68 L 944.40 1237.00 L 945.79 1236.00 L 946.03 1232.95 L 949.32 1230.44 L 950.22 1225.61 L 952.44 1222.83 L 949.87 1219.36 L 948.21 1215.35 L 950.05 1212.93 L 953.52 1210.85 L 954.37 1208.98 L 953.58 1206.35 L 948.08 1201.96 L 950.53 1199.67 L 960.09 1196.12 L 962.82 1193.94 L 967.64 1187.20 L 973.37 1183.53 L 977.26 1178.57 L 978.52 1176.03 L 978.98 1171.68 L 979.88 1170.47 L 981.54 1169.96 L 987.82 1174.52 L 989.76 1175.06 L 993.62 1173.10 L 997.13 1172.13 L 1004.38 1176.64 L 1010.36 1170.04 L 1014.64 1167.46 L 1015.65 1160.38 L 1018.71 1155.98 L 1025.42 1153.09 L 1030.75 1147.96 L 1035.63 1141.09 L 1039.72 1129.63 L 1038.54 1121.53 L 1035.60 1116.05 L 1036.13 1111.61 L 1041.82 1108.04 L 1048.43 1102.56 L 1067.90 1090.65 L 1070.48 1083.57 L 1076.51 1082.53 L 1084.55 1083.49 L 1087.05 1081.22 L 1088.21 1076.46 L 1095.23 1071.47 L 1100.01 1065.58 L 1105.32 1063.66 L 1116.89 1063.85 L 1128.27 1064.99 L 1137.45 1067.04 L 1149.65 1073.45 L 1161.27 1085.61 L 1163.90 1086.37 L 1170.52 1082.89 L 1188.69 1081.53 L 1212.70 1075.86 L 1222.60 1066.92 L 1233.83 1064.15 L 1249.29 1052.43 L 1254.61 1049.29 L 1258.59 1036.85 L 1263.81 1026.26 L 1268.59 1019.06 L 1275.14 1012.45 L 1286.32 1010.92 L 1293.61 1012.06 L 1300.99 1008.66 L 1322.97 1006.05 L 1329.44 998.78 L 1337.36 996.17 L 1346.16 989.50 L 1371.29 975.97 L 1380.49 973.81 L 1390.89 977.45 L 1395.12 971.35 L 1395.81 964.26 L 1404.94 962.12 L 1416.94 961.36 L 1434.10 974.65 L 1436.51 951.94 L 1451.61 965.59 L 1454.02 949.16 L 1473.47 972.95 L 1478.18 972.72 L 1481.56 952.18 L 1485.31 947.35 L 1492.19 950.97 L 1497.75 939.14 L 1498.08 935.91 L 1500.10 933.76 L 1501.91 935.03 L 1507.65 943.18 L 1511.37 937.23 L 1514.93 929.44 L 1517.62 927.42 L 1519.49 927.96 L 1521.18 930.13 L 1522.39 936.21 L 1522.57 943.91 L 1524.68 950.43 L 1526.61 950.58 L 1528.61 951.94 L 1528.82 953.90 L 1530.18 954.84 L 1532.75 953.66 L 1534.29 951.82 L 1536.37 952.75 L 1538.00 954.62 L 1544.01 948.07 L 1546.00 944.27 L 1549.72 941.37 L 1555.45 938.83 L 1567.02 927.54 L 1571.19 925.52 L 1579.07 916.94 L 1588.94 902.96 L 1598.09 894.54 L 1600.93 889.20 L 1604.43 886.45 L 1607.18 888.50 L 1610.65 893.60 L 1615.09 898.43 L 1621.52 902.05 L 1625.12 905.74 L 1632.48 916.46 L 1633.72 919.31 L 1636.55 920.36 L 1638.40 922.77 L 1642.13 933.57 L 1644.98 938.90 L 1648.62 951.18 L 1653.71 955.14 L 1659.98 964.11 L 1663.06 969.57 L 1666.65 973.60 L 1672.73 983.73 L 1677.08 993.04 L 1677.05 998.89 L 1675.18 1010.46 L 1676.09 1023.99 L 1670.18 1041.18" pathLength="1" fill="none" vector-effect="non-scaling-stroke"/>
  <circle class="trace-start" cx="322.92" cy="1468.30" r="6.25"/>
  <circle class="trace-summit-halo" cx="1668.61" cy="1042.97" r="15.97"/>
  <circle class="trace-summit" cx="1668.61" cy="1042.97" r="9.03"/>
</svg>
