<svg xmlns="http://www.w3.org/2000/svg" viewBox="-105.5185902 -37.5815345 0.0360856 0.0153559" preserveAspectRatio="xMidYMid meet">
  <path class="trace-line" d="M -105.5155831 -37.5700146 L -105.5154926 -37.5700247 L -105.5154413 -37.5700451 L -105.5152992 -37.5701439 L -105.5149823 -37.5702713 L -105.5148564 -37.5702778 L -105.5145931 -37.5702279 L -105.5144322 -37.5702155 L -105.5138876 -37.5702755 L -105.5136697 -37.5702376 L -105.5135153 -37.5701882 L -105.5130848 -37.5701374 L -105.5129257 -37.5700478 L -105.5125692 -37.5699462 L -105.5123968 -37.5698530 L -105.5123303 -37.5697962 L -105.5122890 -37.5697301 L -105.5122756 -37.5694780 L -105.5122301 -37.5693515 L -105.5120420 -37.5690338 L -105.5119773 -37.5687461 L -105.5120128 -37.5686570 L -105.5120804 -37.5685642 L -105.5121136 -37.5684880 L -105.5120839 -37.5684340 L -105.5120035 -37.5683513 L -105.5119155 -37.5683088 L -105.5117687 -37.5683730 L -105.5116446 -37.5683060 L -105.5115188 -37.5683772 L -105.5113347 -37.5682945 L -105.5112636 -37.5682460 L -105.5112298 -37.5681726 L -105.5112234 -37.5681223 L -105.5111955 -37.5680821 L -105.5111436 -37.5680438 L -105.5109246 -37.5679325 L -105.5107550 -37.5678041 L -105.5106315 -37.5677431 L -105.5103391 -37.5676790 L -105.5101375 -37.5676060 L -105.5099359 -37.5674961 L -105.5098404 -37.5674615 L -105.5096813 -37.5674582 L -105.5095677 -37.5674846 L -105.5090137 -37.5675261 L -105.5089018 -37.5675575 L -105.5086834 -37.5676688 L -105.5082820 -37.5680022 L -105.5081476 -37.5681465 L -105.5080999 -37.5681576 L -105.5079717 -37.5681187 L -105.5076877 -37.5682243 L -105.5075724 -37.5682446 L -105.5071320 -37.5684538 L -105.5070894 -37.5685065 L -105.5070318 -37.5686228 L -105.5070393 -37.5687092 L -105.5069870 -37.5688777 L -105.5069414 -37.5689353 L -105.5068904 -37.5689705 L -105.5068475 -37.5689709 L -105.5067434 -37.5688990 L -105.5067125 -37.5689133 L -105.5066601 -37.5689096 L -105.5065424 -37.5688629 L -105.5064789 -37.5688823 L -105.5064521 -37.5689262 L -105.5064416 -37.5689798 L -105.5064626 -37.5690467 L -105.5064375 -37.5690924 L -105.5062762 -37.5691968 L -105.5062383 -37.5692342 L -105.5062301 -37.5693967 L -105.5061684 -37.5694812 L -105.5059907 -37.5696124 L -105.5058963 -37.5696669 L -105.5057722 -37.5696696 L -105.5057239 -37.5696826 L -105.5055578 -37.5698008 L -105.5054763 -37.5698257 L -105.5054244 -37.5698784 L -105.5053930 -37.5699855 L -105.5053283 -37.5700238 L -105.5051733 -37.5700594 L -105.5050795 -37.5701019 L -105.5049643 -37.5702306 L -105.5047725 -37.5703212 L -105.5046438 -37.5704269 L -105.5045272 -37.5704620 L -105.5043391 -37.5704823 L -105.5042441 -37.5705285 L -105.5041293 -37.5706204 L -105.5040571 -37.5706527 L -105.5039254 -37.5706670 L -105.5038608 -37.5706606 L -105.5036738 -37.5705858 L -105.5036021 -37.5705992 L -105.5035724 -37.5706255 L -105.5035101 -37.5707312 L -105.5034681 -37.5708781 L -105.5033632 -37.5710346 L -105.5032281 -37.5711967 L -105.5031378 -37.5712604 L -105.5030079 -37.5712983 L -105.5029286 -37.5713389 L -105.5028051 -37.5714516 L -105.5027358 -37.5715398 L -105.5025366 -37.5716732 L -105.5024422 -37.5718187 L -105.5021858 -37.5720629 L -105.5021014 -37.5721733 L -105.5020513 -37.5722638 L -105.5019295 -37.5723958 L -105.5019109 -37.5724582 L -105.5019278 -37.5726373 L -105.5019132 -37.5727301 L -105.5018398 -37.5728433 L -105.5019866 -37.5731254 L -105.5020466 -37.5731785 L -105.5021824 -37.5731956 L -105.5022290 -37.5732145 L -105.5023132 -37.5732834 L -105.5024171 -37.5733447 L -105.5025197 -37.5733514 L -105.5025733 -37.5733826 L -105.5025673 -37.5734280 L -105.5025291 -37.5734636 L -105.5024620 -37.5734880 L -105.5024298 -37.5735300 L -105.5024493 -37.5735863 L -105.5023467 -37.5736320 L -105.5022293 -37.5737357 L -105.5023956 -37.5737755 L -105.5022917 -37.5738430 L -105.5021468 -37.5739108 L -105.5021207 -37.5739461 L -105.5021127 -37.5740057 L -105.5020152 -37.5740623 L -105.5018975 -37.5740909 L -105.5017821 -37.5740853 L -105.5017512 -37.5741029 L -105.5017459 -37.5741566 L -105.5016728 -37.5742007 L -105.5016528 -37.5742857 L -105.5016037 -37.5743346 L -105.5016607 -37.5743958 L -105.5016976 -37.5744664 L -105.5016567 -37.5745090 L -105.5015796 -37.5745456 L -105.5015607 -37.5745785 L -105.5015782 -37.5746248 L -105.5017003 -37.5747019 L -105.5016460 -37.5747423 L -105.5014337 -37.5748047 L -105.5013730 -37.5748432 L -105.5012660 -37.5749617 L -105.5011389 -37.5750263 L -105.5010525 -37.5751137 L -105.5010244 -37.5751584 L -105.5010143 -37.5752349 L -105.5009942 -37.5752562 L -105.5009573 -37.5752652 L -105.5008180 -37.5751849 L -105.5007749 -37.5751754 L -105.5006112 -37.5752270 L -105.5004502 -37.5751476 L -105.5003173 -37.5752638 L -105.5002223 -37.5753092 L -105.5002000 -37.5754338 L -105.5001320 -37.5755111 L -105.4999829 -37.5755620 L -105.4998646 -37.5756523 L -105.4997563 -37.5757733 L -105.4996654 -37.5759750 L -105.4996917 -37.5761175 L -105.4997568 -37.5762140 L -105.4997452 -37.5762921 L -105.4996188 -37.5763549 L -105.4994720 -37.5764514 L -105.4990396 -37.5766609 L -105.4989823 -37.5767856 L -105.4988484 -37.5768039 L -105.4986698 -37.5767870 L -105.4986144 -37.5768269 L -105.4985887 -37.5769106 L -105.4984327 -37.5769985 L -105.4983265 -37.5771021 L -105.4982087 -37.5771359 L -105.4979518 -37.5771326 L -105.4976991 -37.5771125 L -105.4974952 -37.5770764 L -105.4972243 -37.5769637 L -105.4969662 -37.5767496 L -105.4969078 -37.5767362 L -105.4967609 -37.5767976 L -105.4963574 -37.5768214 L -105.4958242 -37.5769212 L -105.4956043 -37.5770785 L -105.4953548 -37.5771274 L -105.4950115 -37.5773336 L -105.4948935 -37.5773888 L -105.4948050 -37.5776078 L -105.4946892 -37.5777942 L -105.4945830 -37.5779209 L -105.4944375 -37.5780372 L -105.4941892 -37.5780642 L -105.4940275 -37.5780441 L -105.4938636 -37.5781039 L -105.4933754 -37.5781499 L -105.4932318 -37.5782778 L -105.4930558 -37.5783238 L -105.4928604 -37.5784411 L -105.4923025 -37.5786792 L -105.4920981 -37.5787173 L -105.4918672 -37.5786532 L -105.4917733 -37.5787606 L -105.4917580 -37.5788853 L -105.4915551 -37.5789230 L -105.4912886 -37.5789364 L -105.4909077 -37.5787025 L -105.4908541 -37.5791022 L -105.4905188 -37.5788620 L -105.4904652 -37.5791511 L -105.4900333 -37.5787323 L -105.4899287 -37.5787365 L -105.4898536 -37.5790979 L -105.4897705 -37.5791829 L -105.4896176 -37.5791192 L -105.4894942 -37.5793275 L -105.4894868 -37.5793843 L -105.4894419 -37.5794221 L -105.4894017 -37.5793998 L -105.4892743 -37.5792563 L -105.4891918 -37.5793610 L -105.4891127 -37.5794981 L -105.4890530 -37.5795337 L -105.4890114 -37.5795241 L -105.4889739 -37.5794859 L -105.4889470 -37.5793790 L -105.4889430 -37.5792435 L -105.4888961 -37.5791287 L -105.4888532 -37.5791261 L -105.4888089 -37.5791022 L -105.4888042 -37.5790676 L -105.4887740 -37.5790511 L -105.4887170 -37.5790719 L -105.4886828 -37.5791043 L -105.4886366 -37.5790878 L -105.4886004 -37.5790549 L -105.4884669 -37.5791702 L -105.4884227 -37.5792371 L -105.4883402 -37.5792882 L -105.4882128 -37.5793328 L -105.4879560 -37.5795316 L -105.4878634 -37.5795672 L -105.4876884 -37.5797181 L -105.4874691 -37.5799641 L -105.4872660 -37.5801124 L -105.4872029 -37.5802064 L -105.4871251 -37.5802548 L -105.4870641 -37.5802187 L -105.4869870 -37.5801289 L -105.4868884 -37.5800438 L -105.4867456 -37.5799801 L -105.4866658 -37.5799152 L -105.4865022 -37.5797266 L -105.4864747 -37.5796764 L -105.4864120 -37.5796580 L -105.4863708 -37.5796155 L -105.4862880 -37.5794255 L -105.4862246 -37.5793317 L -105.4861438 -37.5791155 L -105.4860308 -37.5790458 L -105.4858233 -37.5787918 L -105.4857435 -37.5787209 L -105.4856084 -37.5785426 L -105.4855118 -37.5783789 L -105.4855125 -37.5782758 L -105.4855540 -37.5780723 L -105.4855339 -37.5778342 L -105.4856650 -37.5775315" pathLength="1" fill="none" stroke="currentColor" vector-effect="non-scaling-stroke"/>
  <circle class="trace-start" cx="-105.5155831" cy="-37.5700146" r="0.0003248"/>
  <circle class="trace-summit-halo" cx="-105.4857000" cy="-37.5775000" r="0.0008282"/>
  <circle class="trace-summit" cx="-105.4857000" cy="-37.5775000" r="0.0004709"/>
</svg>
