<svg xmlns="http://www.w3.org/2000/svg" viewBox="0 0 2000 2500" preserveAspectRatio="none">
  <path class="trace-underlay" d="M 1942.88 724.33 L 1939.37 722.76 L 1935.56 721.62 L 1929.22 721.10 L 1910.61 714.84 L 1898.65 711.25 L 1895.09 710.51 L 1888.24 709.80 L 1878.86 709.51 L 1873.06 710.75 L 1870.04 711.96 L 1862.57 718.50 L 1845.89 734.55 L 1843.66 737.32 L 1825.64 748.68 L 1815.43 758.20 L 1808.51 767.48 L 1805.51 769.67 L 1800.73 771.88 L 1796.36 773.05 L 1788.91 770.38 L 1783.83 771.39 L 1778.41 770.60 L 1743.83 761.77 L 1732.96 758.18 L 1694.82 749.13 L 1684.89 746.13 L 1642.34 732.00 L 1624.34 720.53 L 1616.93 710.67 L 1604.93 705.05 L 1594.54 703.89 L 1585.71 699.72 L 1570.39 699.37 L 1558.60 702.28 L 1544.53 701.80 L 1526.14 705.78 L 1515.82 719.77 L 1508.63 723.92 L 1492.80 727.96 L 1480.41 734.34 L 1417.34 741.08 L 1377.31 741.33 L 1364.48 744.05 L 1350.71 744.87 L 1336.94 744.87 L 1327.41 744.23 L 1317.17 746.41 L 1303.88 745.05 L 1289.99 747.13 L 1271.98 749.22 L 1263.39 752.84 L 1253.51 755.02 L 1243.74 756.02 L 1232.91 755.47 L 1224.21 754.02 L 1212.44 754.29 L 1206.20 756.02 L 1184.90 760.10 L 1159.75 765.50 L 1081.47 778.50 L 1074.91 791.06 L 1067.42 816.45 L 1055.85 827.33 L 1046.59 835.36 L 1043.63 842.75 L 1037.90 849.80 L 1027.94 857.14 L 1008.33 869.11 L 994.03 879.78 L 985.09 891.02 L 978.73 893.83 L 971.67 895.37 L 963.31 895.37 L 956.96 893.92 L 951.78 893.56 L 943.66 895.28 L 932.37 901.36 L 922.95 905.25 L 908.12 908.34 L 898.47 915.23 L 879.64 922.21 L 872.11 919.76 L 862.70 918.67 L 853.29 921.48 L 845.75 925.66 L 831.98 931.10 L 823.87 938.44 L 813.16 946.87 L 807.86 950.05 L 803.74 951.23 L 800.35 950.41 L 795.91 948.35 L 789.96 948.15 L 786.36 948.33 L 783.04 949.65" pathLength="1" fill="none" vector-effect="non-scaling-stroke"/>
  <path class="trace-line" d="M 1942.88 724.33 L 1939.37 722.76 L 1935.56 721.62 L 1929.22 721.10 L 1910.61 714.84 L 1898.65 711.25 L 1895.09 710.51 L 1888.24 709.80 L 1878.86 709.51 L 1873.06 710.75 L 1870.04 711.96 L 1862.57 718.50 L 1845.89 734.55 L 1843.66 737.32 L 1825.64 748.68 L 1815.43 758.20 L 1808.51 767.48 L 1805.51 769.67 L 1800.73 771.88 L 1796.36 773.05 L 1788.91 770.38 L 1783.83 771.39 L 1778.41 770.60 L 1743.83 761.77 L 1732.96 758.18 L 1694.82 749.13 L 1684.89 746.13 L 1642.34 732.00 L 1624.34 720.53 L 1616.93 710.67 L 1604.93 705.05 L 1594.54 703.89 L 1585.71 699.72 L 1570.39 699.37 L 1558.60 702.28 L 1544.53 701.80 L 1526.14 705.78 L 1515.82 719.77 L 1508.63 723.92 L 1492.80 727.96 L 1480.41 734.34 L 1417.34 741.08 L 1377.31 741.33 L 1364.48 744.05 L 1350.71 744.87 L 1336.94 744.87 L 1327.41 744.23 L 1317.17 746.41 L 1303.88 745.05 L 1289.99 747.13 L 1271.98 749.22 L 1263.39 752.84 L 1253.51 755.02 L 1243.74 756.02 L 1232.91 755.47 L 1224.21 754.02 L 1212.44 754.29 L 1206.20 756.02 L 1184.90 760.10 L 1159.75 765.50 L 1081.47 778.50 L 1074.91 791.06 L 1067.42 816.45 L 1055.85 827.33 L 1046.59 835.36 L 1043.63 842.75 L 1037.90 849.80 L 1027.94 857.14 L 1008.33 869.11 L 994.03 879.78 L 985.09 891.02 L 978.73 893.83 L 971.67 895.37 L 963.31 895.37 L 956.96 893.92 L 951.78 893.56 L 943.66 895.28 L 932.37 901.36 L 922.95 905.25 L 908.12 908.34 L 898.47 915.23 L 879.64 922.21 L 872.11 919.76 L 862.70 918.67 L 853.29 921.48 L 845.75 925.66 L 831.98 931.10 L 823.87 938.44 L 813.16 946.87 L 807.86 950.05 L 803.74 951.23 L 800.35 950.41 L 795.91 948.35 L 789.96 948.15 L 786.36 948.33 L 783.04 949.65" pathLength="1" fill="none" vector-effect="non-scaling-stroke"/>
</svg>
