<svg xmlns="http://www.w3.org/2000/svg" viewBox="0 0 1600 900" preserveAspectRatio="xMidYMid slice">
  <path class="trace-line" d="M 1392.71 316.03 L 1389.12 313.94 L 1385.22 312.44 L 1378.74 311.75 L 1359.73 303.44 L 1347.50 298.67 L 1343.86 297.69 L 1336.86 296.75 L 1327.28 296.36 L 1321.35 298.01 L 1318.26 299.61 L 1310.62 308.30 L 1293.58 329.59 L 1291.30 333.27 L 1276.21 345.95 L 1272.88 348.34 L 1262.45 360.97 L 1255.38 373.29 L 1252.31 376.19 L 1247.42 379.12 L 1242.96 380.67 L 1235.34 377.13 L 1230.15 378.47 L 1224.61 377.43 L 1189.27 365.70 L 1178.16 360.94 L 1139.18 348.94 L 1129.03 344.96 L 1085.54 326.21 L 1067.14 310.98 L 1059.57 297.90 L 1047.31 290.44 L 1036.69 288.90 L 1027.67 283.37 L 1012.01 282.91 L 999.95 286.77 L 985.57 286.13 L 966.77 291.41 L 956.23 309.98 L 948.89 315.49 L 932.70 320.85 L 920.04 329.31 L 855.58 338.25 L 814.67 338.58 L 801.55 342.19 L 787.48 343.28 L 773.41 343.28 L 763.67 342.43 L 753.20 345.32 L 739.62 343.51 L 725.42 346.28 L 707.02 349.05 L 698.24 353.86 L 688.14 356.75 L 678.15 358.07 L 667.09 357.35 L 658.19 355.42 L 646.16 355.79 L 639.79 358.07 L 618.02 363.48 L 592.31 370.66 L 512.31 387.90 L 505.60 404.57 L 497.95 438.26 L 486.12 452.69 L 476.66 463.35 L 473.63 473.15 L 467.77 482.50 L 457.59 492.24 L 437.55 508.13 L 422.94 522.28 L 417.77 531.19 L 413.80 537.20 L 407.30 540.93 L 400.09 542.98 L 391.55 542.98 L 385.05 541.05 L 379.76 540.57 L 371.46 542.86 L 359.91 550.92 L 350.29 556.09 L 335.14 560.18 L 325.28 569.32 L 306.03 578.59 L 298.33 575.34 L 288.71 573.90 L 279.09 577.63 L 271.39 583.16 L 257.32 590.38 L 249.02 600.13 L 238.08 611.31 L 232.67 615.53 L 228.46 617.09 L 224.99 616.00 L 220.45 613.28 L 214.37 613.00 L 210.69 613.25 L 207.29 614.99" pathLength="1" fill="none" vector-effect="non-scaling-stroke"/>
  <circle class="trace-start" cx="1392.71" cy="316.03" r="5.47"/>
  <circle class="trace-summit-halo" cx="207.56" cy="615.46" r="13.98"/>
  <circle class="trace-summit" cx="207.56" cy="615.46" r="7.90"/>
</svg>
