<svg xmlns="http://www.w3.org/2000/svg" viewBox="0 0 2000 2500" preserveAspectRatio="xMidYMid slice">
  <path class="trace-line" d="M 1677.08 1097.00 L 1672.99 1094.62 L 1668.53 1092.91 L 1661.13 1092.12 L 1639.41 1082.63 L 1625.44 1077.19 L 1621.28 1076.06 L 1613.29 1074.99 L 1602.34 1074.55 L 1595.56 1076.43 L 1592.04 1078.26 L 1583.31 1088.18 L 1563.85 1112.50 L 1561.24 1116.69 L 1544.00 1131.18 L 1540.20 1133.91 L 1528.28 1148.33 L 1520.20 1162.39 L 1516.70 1165.71 L 1511.12 1169.05 L 1506.02 1170.83 L 1497.31 1166.78 L 1491.38 1168.31 L 1485.06 1167.12 L 1444.68 1153.73 L 1431.99 1148.29 L 1387.47 1134.59 L 1375.87 1130.04 L 1326.19 1108.64 L 1305.17 1091.24 L 1296.52 1076.31 L 1282.52 1067.79 L 1270.38 1066.03 L 1260.08 1059.71 L 1242.19 1059.19 L 1228.42 1063.60 L 1211.99 1062.87 L 1190.52 1068.89 L 1178.48 1090.10 L 1170.08 1096.39 L 1151.59 1102.51 L 1137.13 1112.18 L 1063.49 1122.38 L 1016.75 1122.76 L 1001.78 1126.88 L 985.70 1128.12 L 969.63 1128.12 L 958.50 1127.16 L 946.54 1130.46 L 931.02 1128.40 L 914.81 1131.55 L 893.78 1134.72 L 883.75 1140.21 L 872.21 1143.51 L 860.81 1145.02 L 848.17 1144.19 L 838.00 1142.00 L 824.26 1142.41 L 816.98 1145.02 L 792.11 1151.20 L 762.75 1159.40 L 671.35 1179.08 L 663.69 1198.12 L 654.95 1236.60 L 641.44 1253.07 L 630.63 1265.24 L 627.17 1276.44 L 620.48 1287.12 L 608.85 1298.24 L 585.95 1316.38 L 569.26 1332.55 L 563.35 1342.71 L 558.82 1349.58 L 551.40 1353.84 L 543.15 1356.18 L 533.40 1356.18 L 525.98 1353.98 L 519.93 1353.43 L 510.45 1356.04 L 497.26 1365.25 L 486.27 1371.15 L 468.96 1375.82 L 457.69 1386.27 L 435.71 1396.85 L 426.92 1393.14 L 415.93 1391.49 L 404.93 1395.75 L 396.14 1402.07 L 380.07 1410.31 L 370.59 1421.44 L 358.08 1434.22 L 351.90 1439.03 L 347.09 1440.81 L 343.13 1439.57 L 337.95 1436.46 L 331.00 1436.15 L 326.79 1436.43 L 322.92 1438.42" pathLength="1" fill="none" vector-effect="non-scaling-stroke"/>
  <circle class="trace-start" cx="1677.08" cy="1097.00" r="6.25"/>
  <circle class="trace-summit-halo" cx="323.22" cy="1438.95" r="15.97"/>
  <circle class="trace-summit" cx="323.22" cy="1438.95" r="9.03"/>
</svg>
