<svg xmlns="http://www.w3.org/2000/svg" viewBox="-106.3441992 -38.9773874 0.0634464 0.0139024" preserveAspectRatio="xMidYMid meet">
  <path class="trace-line" d="M -106.2860400 -38.9750809 L -106.2861998 -38.9751532 L -106.2863739 -38.9752053 L -106.2866629 -38.9752292 L -106.2875109 -38.9755172 L -106.2880564 -38.9756824 L -106.2882187 -38.9757166 L -106.2885309 -38.9757492 L -106.2889583 -38.9757625 L -106.2892228 -38.9757055 L -106.2893603 -38.9756499 L -106.2897011 -38.9753488 L -106.2904612 -38.9746105 L -106.2905628 -38.9744832 L -106.2913844 -38.9739605 L -106.2918498 -38.9735228 L -106.2921652 -38.9730958 L -106.2923019 -38.9729952 L -106.2925200 -38.9728936 L -106.2927191 -38.9728397 L -106.2930590 -38.9729625 L -106.2932905 -38.9729162 L -106.2935375 -38.9729522 L -106.2951139 -38.9733588 L -106.2956093 -38.9735239 L -106.2973478 -38.9739398 L -106.2978006 -38.9740779 L -106.2997402 -38.9747278 L -106.3005608 -38.9752558 L -106.3008988 -38.9757091 L -106.3014454 -38.9759678 L -106.3019192 -38.9760212 L -106.3023216 -38.9762131 L -106.3030200 -38.9762289 L -106.3035576 -38.9760950 L -106.3041991 -38.9761172 L -106.3050375 -38.9759343 L -106.3055076 -38.9752905 L -106.3058353 -38.9750996 L -106.3065572 -38.9749137 L -106.3071220 -38.9746202 L -106.3099970 -38.9743105 L -106.3118219 -38.9742989 L -106.3124067 -38.9741738 L -106.3130343 -38.9741362 L -106.3136619 -38.9741362 L -106.3140965 -38.9741654 L -106.3145632 -38.9740653 L -106.3151693 -38.9741279 L -106.3158023 -38.9740320 L -106.3166231 -38.9739360 L -106.3170147 -38.9737692 L -106.3174653 -38.9736691 L -106.3179106 -38.9736233 L -106.3184041 -38.9736483 L -106.3188011 -38.9737150 L -106.3193375 -38.9737025 L -106.3196218 -38.9736233 L -106.3205928 -38.9734356 L -106.3217393 -38.9731868 L -106.3253078 -38.9725891 L -106.3256068 -38.9720113 L -106.3259483 -38.9708431 L -106.3264756 -38.9703430 L -106.3268976 -38.9699735 L -106.3270328 -38.9696336 L -106.3272941 -38.9693094 L -106.3277481 -38.9689717 L -106.3286421 -38.9684210 L -106.3292939 -38.9679303 L -106.3297015 -38.9674131 L -106.3299912 -38.9672838 L -106.3303131 -38.9672129 L -106.3306940 -38.9672129 L -106.3309836 -38.9672797 L -106.3312197 -38.9672963 L -106.3315898 -38.9672171 L -106.3321048 -38.9669376 L -106.3325340 -38.9667583 L -106.3332099 -38.9666165 L -106.3336498 -38.9662995 L -106.3345081 -38.9659783 L -106.3348514 -38.9660909 L -106.3352805 -38.9661410 L -106.3357097 -38.9660117 L -106.3360530 -38.9658198 L -106.3366807 -38.9655696 L -106.3370508 -38.9652317 L -106.3375390 -38.9648438 L -106.3377804 -38.9646978 L -106.3379681 -38.9646436 L -106.3381228 -38.9646813 L -106.3383251 -38.9647757 L -106.3385965 -38.9647852 L -106.3387606 -38.9647766 L -106.3389120 -38.9647162" pathLength="1" fill="none" stroke="currentColor" vector-effect="non-scaling-stroke"/>
  <circle class="trace-start" cx="-106.2860400" cy="-38.9750809" r="0.0005710"/>
  <circle class="trace-summit-halo" cx="-106.3389000" cy="-38.9647000" r="0.0014561"/>
  <circle class="trace-summit" cx="-106.3389000" cy="-38.9647000" r="0.0008280"/>
</svg>
