<svg xmlns="http://www.w3.org/2000/svg" viewBox="0 0 2000 2500" preserveAspectRatio="xMidYMid slice">
  <path class="trace-line" d="M 1677.08 1220.24 L 1671.66 1225.16 L 1658.81 1228.58 L 1649.06 1232.89 L 1642.74 1239.32 L 1637.51 1246.36 L 1632.89 1249.97 L 1628.17 1255.60 L 1620.24 1260.72 L 1608.08 1266.34 L 1602.36 1269.66 L 1580.56 1282.92 L 1575.64 1286.23 L 1569.92 1285.53 L 1563.69 1287.24 L 1558.26 1290.15 L 1552.54 1290.25 L 1546.41 1288.04 L 1541.89 1291.15 L 1538.48 1294.67 L 1529.24 1297.48 L 1515.08 1302.30 L 1509.85 1308.13 L 1502.92 1312.85 L 1490.97 1316.67 L 1480.82 1321.49 L 1465.06 1326.01 L 1459.03 1330.73 L 1446.68 1336.26 L 1439.24 1340.57 L 1436.13 1344.39 L 1429.50 1347.41 L 1424.18 1353.83 L 1420.06 1356.04 L 1416.24 1359.15 L 1410.72 1365.08 L 1406.90 1366.89 L 1402.69 1363.88 L 1399.67 1360.76 L 1394.35 1358.25 L 1373.05 1358.15 L 1362.61 1361.67 L 1359.40 1366.39 L 1359.60 1375.43 L 1354.27 1379.65 L 1348.25 1383.16 L 1343.43 1383.47 L 1337.40 1380.65 L 1327.45 1373.22 L 1320.52 1368.90 L 1314.20 1366.19 L 1308.77 1361.87 L 1302.95 1356.75 L 1298.03 1354.43 L 1282.76 1350.32 L 1276.13 1347.91 L 1267.29 1345.09 L 1255.14 1340.17 L 1248.61 1331.23 L 1244.09 1324.10 L 1236.46 1316.77 L 1229.62 1311.04 L 1219.38 1303.41 L 1206.42 1294.97 L 1196.58 1290.45 L 1190.03 1286.05 L 1183.63 1280.41 L 1178.10 1276.19 L 1171.77 1273.78 L 1167.45 1273.78 L 1144.65 1267.15 L 1136.72 1267.85 L 1126.58 1266.55 L 1119.54 1264.44 L 1113.32 1263.23 L 1107.09 1260.42 L 1101.87 1260.62 L 1091.32 1262.63 L 1085.50 1264.44 L 1078.57 1263.83 L 1071.84 1264.54 L 1063.10 1263.73 L 1051.45 1265.94 L 1044.11 1266.34 L 1040.20 1262.73 L 1040.30 1256.60 L 1040.90 1251.48 L 1038.49 1245.35 L 1032.76 1243.04 L 1027.34 1242.94 L 1022.32 1246.65 L 1015.49 1247.56 L 1003.44 1247.46 L 992.39 1244.35 L 987.36 1243.24 L 979.13 1237.02 L 970.69 1231.79 L 963.86 1224.06 L 958.74 1220.54 L 946.79 1214.72 L 931.12 1208.09 L 924.39 1210.09 L 915.75 1207.39 L 904.70 1202.86 L 895.96 1202.26 L 873.57 1193.12" pathLength="1" fill="none" vector-effect="non-scaling-stroke"/>
  <circle class="trace-start" cx="1677.08" cy="1220.24" r="6.25"/>
  <circle class="trace-end" cx="873.57" cy="1193.12" r="6.25"/>
  <circle class="trace-summit-halo" cx="322.92" cy="1116.53" r="15.97"/>
  <circle class="trace-summit" cx="322.92" cy="1116.53" r="9.03"/>
</svg>
