<svg xmlns="http://www.w3.org/2000/svg" viewBox="0 0 2000 2500" preserveAspectRatio="none">
  <path class="trace-underlay" d="M 1545.42 1170.92 L 1537.92 1176.17 L 1520.14 1179.81 L 1506.66 1184.40 L 1497.92 1191.25 L 1490.69 1198.75 L 1484.30 1202.60 L 1477.77 1208.60 L 1466.80 1214.05 L 1449.99 1220.04 L 1442.07 1223.58 L 1411.93 1237.70 L 1405.12 1241.24 L 1397.21 1240.49 L 1388.60 1242.31 L 1381.09 1245.41 L 1373.17 1245.52 L 1364.70 1243.16 L 1358.45 1246.48 L 1353.73 1250.23 L 1321.36 1258.36 L 1314.14 1264.56 L 1304.55 1269.60 L 1288.02 1273.66 L 1273.99 1278.80 L 1252.19 1283.62 L 1243.85 1288.65 L 1226.77 1294.54 L 1216.49 1299.13 L 1212.18 1303.20 L 1203.01 1306.42 L 1195.65 1313.26 L 1189.96 1315.62 L 1184.68 1318.93 L 1177.04 1325.25 L 1171.76 1327.18 L 1165.93 1323.97 L 1161.76 1320.65 L 1154.40 1317.97 L 1124.95 1317.86 L 1110.50 1321.61 L 1106.06 1326.64 L 1106.33 1336.28 L 1098.98 1340.77 L 1090.64 1344.51 L 1083.97 1344.84 L 1075.63 1341.84 L 1061.88 1333.92 L 1052.30 1329.32 L 1043.55 1326.43 L 1027.99 1316.37 L 1021.18 1313.90 L 1000.07 1309.52 L 978.68 1303.95 L 961.87 1298.71 L 952.84 1289.18 L 946.59 1281.58 L 936.03 1273.77 L 926.59 1267.67 L 912.42 1259.54 L 894.50 1250.55 L 880.89 1245.73 L 871.83 1241.04 L 862.97 1235.03 L 855.33 1230.53 L 846.58 1227.96 L 840.60 1227.96 L 809.08 1220.90 L 798.10 1221.65 L 784.07 1220.26 L 774.35 1218.01 L 765.73 1216.73 L 757.12 1213.73 L 749.90 1213.94 L 735.31 1216.08 L 727.26 1218.01 L 717.67 1217.37 L 708.37 1218.12 L 696.28 1217.26 L 680.17 1219.62 L 670.03 1220.04 L 664.61 1216.19 L 664.75 1209.67 L 665.59 1204.20 L 662.25 1197.68 L 654.33 1195.21 L 646.83 1195.11 L 639.89 1199.07 L 630.44 1200.03 L 613.77 1199.92 L 598.49 1196.61 L 591.54 1195.43 L 580.16 1188.80 L 568.49 1183.23 L 559.04 1174.99 L 551.96 1171.24 L 535.43 1165.04 L 513.76 1157.97 L 504.45 1160.11 L 492.50 1157.22 L 477.23 1152.41 L 465.14 1151.76 L 434.17 1142.03" pathLength="1" fill="none" vector-effect="non-scaling-stroke"/>
  <path class="trace-line" d="M 1545.42 1170.92 L 1537.92 1176.17 L 1520.14 1179.81 L 1506.66 1184.40 L 1497.92 1191.25 L 1490.69 1198.75 L 1484.30 1202.60 L 1477.77 1208.60 L 1466.80 1214.05 L 1449.99 1220.04 L 1442.07 1223.58 L 1411.93 1237.70 L 1405.12 1241.24 L 1397.21 1240.49 L 1388.60 1242.31 L 1381.09 1245.41 L 1373.17 1245.52 L 1364.70 1243.16 L 1358.45 1246.48 L 1353.73 1250.23 L 1321.36 1258.36 L 1314.14 1264.56 L 1304.55 1269.60 L 1288.02 1273.66 L 1273.99 1278.80 L 1252.19 1283.62 L 1243.85 1288.65 L 1226.77 1294.54 L 1216.49 1299.13 L 1212.18 1303.20 L 1203.01 1306.42 L 1195.65 1313.26 L 1189.96 1315.62 L 1184.68 1318.93 L 1177.04 1325.25 L 1171.76 1327.18 L 1165.93 1323.97 L 1161.76 1320.65 L 1154.40 1317.97 L 1124.95 1317.86 L 1110.50 1321.61 L 1106.06 1326.64 L 1106.33 1336.28 L 1098.98 1340.77 L 1090.64 1344.51 L 1083.97 1344.84 L 1075.63 1341.84 L 1061.88 1333.92 L 1052.30 1329.32 L 1043.55 1326.43 L 1027.99 1316.37 L 1021.18 1313.90 L 1000.07 1309.52 L 978.68 1303.95 L 961.87 1298.71 L 952.84 1289.18 L 946.59 1281.58 L 936.03 1273.77 L 926.59 1267.67 L 912.42 1259.54 L 894.50 1250.55 L 880.89 1245.73 L 871.83 1241.04 L 862.97 1235.03 L 855.33 1230.53 L 846.58 1227.96 L 840.60 1227.96 L 809.08 1220.90 L 798.10 1221.65 L 784.07 1220.26 L 774.35 1218.01 L 765.73 1216.73 L 757.12 1213.73 L 749.90 1213.94 L 735.31 1216.08 L 727.26 1218.01 L 717.67 1217.37 L 708.37 1218.12 L 696.28 1217.26 L 680.17 1219.62 L 670.03 1220.04 L 664.61 1216.19 L 664.75 1209.67 L 665.59 1204.20 L 662.25 1197.68 L 654.33 1195.21 L 646.83 1195.11 L 639.89 1199.07 L 630.44 1200.03 L 613.77 1199.92 L 598.49 1196.61 L 591.54 1195.43 L 580.16 1188.80 L 568.49 1183.23 L 559.04 1174.99 L 551.96 1171.24 L 535.43 1165.04 L 513.76 1157.97 L 504.45 1160.11 L 492.50 1157.22 L 477.23 1152.41 L 465.14 1151.76 L 434.17 1142.03" pathLength="1" fill="none" vector-effect="non-scaling-stroke"/>
</svg>
