<svg xmlns="http://www.w3.org/2000/svg" viewBox="0 0 1600 900" preserveAspectRatio="xMidYMid slice">
  <path class="trace-line" d="M 1392.71 423.94 L 1387.96 428.25 L 1376.71 431.24 L 1368.18 435.02 L 1362.64 440.65 L 1358.07 446.81 L 1354.02 449.97 L 1349.89 454.90 L 1342.94 459.39 L 1332.30 464.31 L 1327.29 467.21 L 1308.21 478.82 L 1303.90 481.73 L 1298.89 481.11 L 1293.44 482.61 L 1288.69 485.16 L 1283.68 485.25 L 1278.32 483.31 L 1274.36 486.04 L 1271.37 489.12 L 1263.29 491.58 L 1250.89 495.80 L 1246.32 500.90 L 1240.25 505.04 L 1229.78 508.38 L 1220.90 512.60 L 1207.10 516.56 L 1201.83 520.69 L 1191.01 525.53 L 1184.51 529.31 L 1181.78 532.65 L 1175.98 535.30 L 1171.32 540.92 L 1167.71 542.86 L 1164.37 545.58 L 1159.54 550.77 L 1156.19 552.36 L 1152.50 549.72 L 1149.86 546.99 L 1145.21 544.79 L 1126.56 544.70 L 1117.42 547.79 L 1114.61 551.92 L 1114.78 559.84 L 1110.12 563.53 L 1104.85 566.61 L 1100.63 566.87 L 1095.35 564.41 L 1086.65 557.90 L 1080.58 554.12 L 1075.04 551.74 L 1070.29 547.96 L 1065.19 543.47 L 1060.89 541.45 L 1047.52 537.84 L 1041.72 535.74 L 1033.98 533.27 L 1023.34 528.96 L 1017.63 521.13 L 1013.67 514.89 L 1006.99 508.47 L 1001.01 503.45 L 992.04 496.77 L 980.70 489.38 L 972.08 485.42 L 966.35 481.57 L 960.74 476.63 L 955.91 472.93 L 950.37 470.82 L 946.58 470.82 L 926.63 465.02 L 919.68 465.63 L 910.80 464.49 L 904.65 462.64 L 899.19 461.59 L 893.74 459.12 L 889.17 459.30 L 879.94 461.06 L 874.84 462.64 L 868.77 462.11 L 862.88 462.73 L 855.23 462.02 L 845.03 463.96 L 838.62 464.31 L 835.19 461.15 L 835.28 455.78 L 835.80 451.29 L 833.69 445.93 L 828.68 443.91 L 823.93 443.82 L 819.54 447.07 L 813.56 447.87 L 803.01 447.78 L 793.34 445.05 L 788.94 444.08 L 781.73 438.63 L 774.34 434.05 L 768.37 427.28 L 763.88 424.21 L 753.42 419.10 L 739.70 413.30 L 733.81 415.06 L 726.25 412.68 L 716.58 408.72 L 708.93 408.19 L 689.32 400.19" pathLength="1" fill="none" vector-effect="non-scaling-stroke"/>
  <circle class="trace-start" cx="1392.71" cy="423.94" r="5.47"/>
  <circle class="trace-end" cx="689.32" cy="400.19" r="5.47"/>
  <circle class="trace-summit-halo" cx="207.29" cy="333.13" r="13.98"/>
  <circle class="trace-summit" cx="207.29" cy="333.13" r="7.90"/>
</svg>
