<svg xmlns="http://www.w3.org/2000/svg" viewBox="-107.0539409 -39.1176076 0.0257491 0.0047323" preserveAspectRatio="xMidYMid meet">
  <path d="M -107.0303375 -39.1166514 L -107.0304823 -39.1165494 L -107.0308256 -39.1164786 L -107.0310858 -39.1163892 L -107.0312547 -39.1162560 L -107.0313942 -39.1161103 L -107.0315176 -39.1160354 L -107.0316437 -39.1159188 L -107.0318556 -39.1158127 L -107.0321801 -39.1156962 L -107.0323330 -39.1156275 L -107.0329150 -39.1153528 L -107.0330465 -39.1152841 L -107.0331993 -39.1152987 L -107.0333656 -39.1152633 L -107.0335105 -39.1152030 L -107.0336634 -39.1152009 L -107.0338270 -39.1152467 L -107.0339477 -39.1151822 L -107.0340389 -39.1151093 L -107.0346638 -39.1149512 L -107.0348033 -39.1148305 L -107.0349884 -39.1147326 L -107.0353076 -39.1146536 L -107.0355785 -39.1145537 L -107.0359996 -39.1144600 L -107.0361605 -39.1143622 L -107.0364904 -39.1142477 L -107.0366889 -39.1141583 L -107.0367720 -39.1140792 L -107.0369491 -39.1140167 L -107.0370912 -39.1138836 L -107.0372012 -39.1138378 L -107.0373031 -39.1137733 L -107.0374506 -39.1136505 L -107.0375526 -39.1136130 L -107.0376652 -39.1136754 L -107.0377457 -39.1137400 L -107.0378878 -39.1137920 L -107.0384565 -39.1137941 L -107.0387354 -39.1137212 L -107.0388212 -39.1136234 L -107.0388159 -39.1134361 L -107.0389580 -39.1133487 L -107.0391190 -39.1132759 L -107.0392477 -39.1132696 L -107.0394087 -39.1133279 L -107.0396742 -39.1134819 L -107.0398593 -39.1135714 L -107.0400282 -39.1136276 L -107.0403287 -39.1138232 L -107.0404601 -39.1138711 L -107.0408678 -39.1139564 L -107.0412808 -39.1140646 L -107.0416054 -39.1141666 L -107.0417797 -39.1143518 L -107.0419004 -39.1144996 L -107.0421043 -39.1146515 L -107.0422867 -39.1147701 L -107.0425602 -39.1149283 L -107.0429063 -39.1151031 L -107.0431691 -39.1151967 L -107.0433440 -39.1152879 L -107.0435151 -39.1154048 L -107.0436626 -39.1154922 L -107.0438316 -39.1155422 L -107.0439470 -39.1155422 L -107.0445558 -39.1156795 L -107.0447677 -39.1156650 L -107.0450386 -39.1156920 L -107.0452264 -39.1157357 L -107.0453927 -39.1157607 L -107.0455590 -39.1158190 L -107.0456984 -39.1158148 L -107.0459801 -39.1157732 L -107.0461356 -39.1157357 L -107.0463207 -39.1157482 L -107.0465004 -39.1157336 L -107.0467338 -39.1157503 L -107.0470449 -39.1157045 L -107.0472407 -39.1156962 L -107.0473453 -39.1157711 L -107.0473426 -39.1158980 L -107.0473265 -39.1160042 L -107.0473909 -39.1161311 L -107.0475438 -39.1161790 L -107.0476886 -39.1161811 L -107.0478227 -39.1161041 L -107.0480051 -39.1160853 L -107.0483270 -39.1160874 L -107.0486220 -39.1161519 L -107.0487562 -39.1161748 L -107.0489761 -39.1163038 L -107.0492014 -39.1164121 L -107.0493838 -39.1165723 L -107.0495206 -39.1166451 L -107.0498398 -39.1167658 L -107.0502582 -39.1169032 L -107.0504379 -39.1168616 L -107.0506686 -39.1169177 L -107.0509636 -39.1170114 L -107.0511970 -39.1170239 L -107.0517951 -39.1172132" pathLength="1" fill="none" stroke="currentColor" vector-effect="non-scaling-stroke"/>
</svg>
