<svg xmlns="http://www.w3.org/2000/svg" viewBox="0 0 2000 2500" preserveAspectRatio="xMidYMid slice">
  <path class="trace-line" d="M 786.89 2031.25 L 780.77 2030.03 L 772.78 2020.61 L 749.93 2011.35 L 731.08 1998.85 L 719.74 1993.41 L 710.08 1985.96 L 655.03 1923.91 L 640.65 1898.99 L 621.91 1875.41 L 602.32 1856.43 L 570.74 1830.76 L 547.03 1816.18 L 529.93 1811.12 L 514.28 1800.86 L 474.83 1754.99 L 451.17 1735.73 L 445.78 1728.79 L 436.74 1724.11 L 408.77 1716.23 L 404.21 1712.33 L 405.05 1706.85 L 430.85 1666.28 L 431.67 1657.07 L 426.93 1632.92 L 431.04 1620.49 L 431.09 1607.55 L 433.47 1608.05 L 452.69 1632.21 L 470.65 1643.47 L 475.85 1649.19 L 477.97 1648.32 L 477.72 1637.78 L 480.68 1620.72 L 500.37 1585.37 L 512.41 1575.81 L 536.39 1551.01 L 556.49 1525.63 L 573.18 1509.86 L 578.92 1502.47 L 584.03 1491.98 L 587.77 1489.63 L 610.92 1493.79 L 622.05 1505.93 L 631.21 1513.49 L 637.32 1516.25 L 664.08 1516.48 L 691.98 1526.74 L 700.60 1536.30 L 707.52 1551.07 L 728.36 1563.68 L 747.32 1571.30 L 753.75 1578.63 L 769.25 1605.83 L 781.56 1611.75 L 802.25 1614.33 L 806.31 1611.69 L 808.91 1604.95 L 808.51 1588.75 L 828.13 1595.67 L 830.59 1595.19 L 831.57 1589.65 L 827.84 1569.04 L 844.97 1569.95 L 859.11 1574.72 L 860.82 1573.97 L 863.20 1565.86 L 867.11 1571.63 L 874.92 1548.55 L 874.83 1531.67 L 867.45 1490.63 L 867.13 1470.69 L 874.92 1440.50 L 878.84 1395.89 L 878.93 1374.25 L 881.71 1355.32 L 885.82 1345.41 L 887.28 1327.88 L 898.54 1303.61 L 899.99 1294.75 L 896.03 1281.45 L 884.36 1257.35 L 879.16 1249.73 L 870.00 1242.28 L 860.93 1230.26 L 853.36 1214.96 L 846.84 1193.91 L 843.47 1188.81 L 832.62 1179.73 L 830.43 1161.43 L 834.99 1137.22 L 838.13 1129.60 L 854.18 1098.23 L 884.90 1051.39 L 894.89 989.71 L 899.86 972.95 L 912.62 952.31 L 918.46 936.07 L 923.84 929.09 L 938.29 917.31 L 944.67 902.12 L 945.35 884.01 L 938.43 865.31 L 935.19 850.12 L 938.43 830.60 L 932.36 815.47 L 937.60 796.95 L 937.01 778.71 L 938.47 773.20 L 943.85 761.01 L 954.56 747.05 L 985.97 725.83 L 1014.46 701.21 L 1019.66 689.13 L 1015.74 668.49 L 1015.17 658.66 L 1017.52 651.02 L 1015.91 648.93 L 1012.96 648.21 L 1004.30 652.99 L 987.44 651.84 L 984.05 650.11 L 989.25 645.41 L 989.25 641.12 L 978.69 639.30 L 970.20 631.14 L 961.58 631.92 L 942.01 623.35 L 934.67 619.73 L 930.21 612.65 L 930.70 603.79 L 944.54 583.78 L 945.62 576.21 L 942.89 567.91 L 942.00 555.86 L 945.35 549.74 L 954.96 548.02 L 963.95 549.50 L 969.15 539.94 L 969.48 531.45 L 979.04 515.59 L 996.69 506.33 L 1004.12 500.64 L 1023.81 479.89 L 1028.10 468.75 L 1030.92 470.53 L 1036.93 484.71 L 1050.70 502.42 L 1054.23 512.05 L 1065.20 522.20 L 1067.22 532.70 L 1079.19 545.14 L 1081.72 554.68 L 1084.97 558.21 L 1092.41 575.19 L 1100.30 585.47 L 1114.21 613.18 L 1121.41 618.82 L 1123.62 633.09 L 1128.80 637.22 L 1127.10 644.05 L 1128.30 646.58 L 1133.94 650.07 L 1139.94 650.92 L 1148.99 659.65 L 1147.16 665.62 L 1147.98 667.32 L 1151.47 666.86 L 1153.67 675.58 L 1158.03 674.11 L 1160.24 682.82 L 1163.54 686.63 L 1160.92 692.00 L 1167.99 694.25 L 1164.22 704.71 L 1169.78 706.55 L 1173.63 710.08 L 1169.14 715.31 L 1168.82 718.89 L 1175.47 721.64 L 1171.20 727.84 L 1173.73 728.07 L 1176.39 734.95 L 1176.71 737.56 L 1173.63 742.79 L 1180.10 744.95 L 1174.46 751.05 L 1181.30 751.88 L 1183.54 754.17 L 1176.71 760.42 L 1184.88 763.72 L 1178.77 769.73 L 1187.95 772.21 L 1182.49 777.16 L 1179.60 784.27 L 1188.36 784.37 L 1183.69 792.58 L 1193.09 792.08 L 1187.08 799.23 L 1197.59 799.97 L 1193.96 805.38 L 1199.88 807.63 L 1198.73 811.90 L 1204.47 813.13 L 1204.75 814.69 L 1192.95 829.15 L 1194.19 831.17 L 1210.85 835.02 L 1207.73 842.36 L 1207.27 868.84 L 1224.76 863.61 L 1227.65 864.94 L 1229.25 868.93 L 1234.80 869.43 L 1238.38 878.47 L 1234.44 885.54 L 1238.11 889.12 L 1233.15 895.22 L 1238.71 894.08 L 1234.68 900.85 L 1233.90 920.90 L 1241.67 915.42 L 1241.96 918.29 L 1247.49 919.07 L 1256.82 924.46 L 1251.45 927.16 L 1257.56 930.55 L 1252.33 936.38 L 1255.87 936.88 L 1254.63 939.91 L 1255.91 946.38 L 1259.95 954.23 L 1266.65 954.50 L 1267.38 955.93 L 1264.49 960.38 L 1265.14 968.36 L 1272.11 977.86 L 1279.46 1009.52 L 1287.30 998.00 L 1291.20 1016.22 L 1297.12 1007.82 L 1301.53 1006.49 L 1298.13 1018.10 L 1299.28 1027.10 L 1298.27 1043.52 L 1305.25 1042.56 L 1305.09 1044.84 L 1315.43 1039.12 L 1311.62 1052.79 L 1310.93 1066.33 L 1317.04 1063.71 L 1320.48 1072.53 L 1325.34 1069.31 L 1329.20 1069.17 L 1331.44 1083.03 L 1336.63 1079.68 L 1338.01 1087.12 L 1341.82 1086.61 L 1346.22 1091.66 L 1347.60 1099.96 L 1362.84 1091.34 L 1357.10 1107.22 L 1356.73 1112.72 L 1364.67 1110.89 L 1364.35 1123.46 L 1375.64 1115.34 L 1380.41 1115.66 L 1383.90 1162.83 L 1397.71 1151.54 L 1399.13 1151.36 L 1400.33 1158.33 L 1399.45 1164.94 L 1415.88 1158.20 L 1414.23 1170.26 L 1409.50 1182.60 L 1409.04 1192.29 L 1398.58 1219.32 L 1393.17 1228.50 L 1401.15 1226.62 L 1407.85 1228.18 L 1411.43 1225.65 L 1417.35 1229.87 L 1424.42 1219.18 L 1434.33 1214.69 L 1446.23 1225.15 L 1456.21 1230.02 L 1471.55 1233.45 L 1486.68 1233.09 L 1510.35 1235.28 L 1517.04 1237.23 L 1530.69 1246.74 L 1554.44 1255.40 L 1576.45 1260.08 L 1578.42 1262.93 L 1582.28 1264.33 L 1592.80 1266.04 L 1595.79 1265.12" pathLength="1" fill="none" vector-effect="non-scaling-stroke"/>
  <circle class="trace-start" cx="786.89" cy="2031.25" r="6.25"/>
  <circle class="trace-summit-halo" cx="1595.07" cy="1267.73" r="15.97"/>
  <circle class="trace-summit" cx="1595.07" cy="1267.73" r="9.03"/>
</svg>
