<svg xmlns="http://www.w3.org/2000/svg" viewBox="0 0 2000 2500" preserveAspectRatio="none">
  <path class="trace-underlay" d="M 693.27 1966.27 L 687.57 1965.39 L 680.12 1958.62 L 658.81 1951.97 L 621.65 1933.73 L 570.32 1889.17 L 556.91 1871.26 L 539.44 1854.33 L 521.18 1840.70 L 491.73 1822.25 L 469.62 1811.78 L 453.68 1808.15 L 439.09 1800.78 L 402.30 1767.83 L 380.24 1753.99 L 375.22 1749.01 L 366.78 1745.65 L 340.70 1739.99 L 336.45 1737.19 L 337.23 1733.25 L 361.29 1704.11 L 362.06 1697.49 L 357.64 1680.14 L 361.46 1671.22 L 361.51 1661.93 L 363.73 1662.28 L 381.65 1679.64 L 398.40 1687.72 L 403.25 1691.84 L 405.23 1691.21 L 404.99 1683.64 L 407.75 1671.39 L 426.12 1645.99 L 437.34 1639.13 L 459.70 1621.31 L 478.44 1603.08 L 494.00 1591.75 L 504.12 1578.91 L 507.60 1577.22 L 529.20 1580.21 L 539.57 1588.93 L 553.81 1596.34 L 578.76 1596.51 L 604.77 1603.88 L 612.81 1610.74 L 619.27 1621.36 L 638.70 1630.41 L 656.38 1635.88 L 662.37 1641.15 L 676.82 1660.69 L 688.30 1664.94 L 707.60 1666.80 L 711.38 1664.90 L 713.81 1660.06 L 713.44 1648.42 L 734.02 1653.05 L 734.93 1649.07 L 731.46 1634.26 L 747.43 1634.92 L 760.61 1638.34 L 762.20 1637.80 L 764.42 1631.98 L 768.07 1636.13 L 775.36 1619.55 L 775.27 1607.42 L 768.38 1577.94 L 768.09 1563.62 L 775.36 1541.93 L 779.01 1509.89 L 779.10 1494.35 L 781.69 1480.74 L 785.52 1473.63 L 786.88 1461.04 L 797.37 1443.60 L 798.73 1437.24 L 795.04 1427.68 L 784.15 1410.38 L 762.31 1390.92 L 755.25 1379.93 L 749.17 1364.81 L 735.91 1354.62 L 733.87 1341.48 L 738.12 1324.09 L 741.05 1318.61 L 756.02 1296.08 L 784.67 1262.44 L 793.97 1218.13 L 798.61 1206.09 L 810.51 1191.27 L 815.95 1179.60 L 820.97 1174.59 L 834.44 1166.13 L 840.39 1155.22 L 841.03 1142.21 L 834.57 1128.77 L 831.55 1117.86 L 834.57 1103.84 L 828.91 1092.98 L 833.80 1079.67 L 833.25 1066.57 L 834.61 1062.61 L 839.63 1053.85 L 849.62 1043.83 L 878.90 1028.59 L 905.47 1010.90 L 910.32 1002.23 L 906.66 987.40 L 906.13 980.34 L 908.32 974.85 L 906.82 973.35 L 904.07 972.84 L 895.99 976.26 L 880.27 975.44 L 877.11 974.20 L 881.96 970.82 L 881.96 967.74 L 872.12 966.43 L 864.20 960.57 L 856.16 961.13 L 837.91 954.98 L 831.07 952.38 L 826.91 947.29 L 827.36 940.93 L 840.27 926.55 L 841.28 921.12 L 838.73 915.15 L 837.91 906.50 L 841.03 902.10 L 849.99 900.87 L 858.37 901.93 L 863.22 895.06 L 863.53 888.96 L 872.44 877.57 L 895.82 866.84 L 914.18 851.93 L 918.18 843.93 L 920.81 845.21 L 926.42 855.39 L 939.26 868.11 L 942.55 875.03 L 952.78 882.32 L 954.66 889.86 L 965.83 898.79 L 968.18 905.65 L 971.22 908.18 L 978.15 920.38 L 985.51 927.76 L 998.47 947.67 L 1005.19 951.72 L 1007.25 961.97 L 1012.08 964.94 L 1010.50 969.85 L 1011.61 971.66 L 1022.47 974.78 L 1030.91 981.05 L 1029.97 986.56 L 1033.22 986.23 L 1035.27 992.49 L 1039.34 991.44 L 1041.39 997.69 L 1044.47 1000.43 L 1042.03 1004.29 L 1048.62 1005.90 L 1045.11 1013.42 L 1053.88 1017.27 L 1049.69 1021.03 L 1049.39 1023.60 L 1055.60 1025.58 L 1051.62 1030.03 L 1053.97 1030.19 L 1056.45 1035.14 L 1056.75 1037.01 L 1053.88 1040.77 L 1059.92 1042.32 L 1054.65 1046.70 L 1061.03 1047.30 L 1063.13 1048.94 L 1056.75 1053.43 L 1064.37 1055.80 L 1058.67 1060.12 L 1067.24 1061.90 L 1062.14 1065.46 L 1059.45 1070.56 L 1067.62 1070.63 L 1063.26 1076.53 L 1072.03 1076.17 L 1066.42 1081.31 L 1076.22 1081.84 L 1072.84 1085.72 L 1078.36 1087.34 L 1077.29 1090.41 L 1082.64 1091.30 L 1071.90 1102.80 L 1073.05 1104.25 L 1088.59 1107.02 L 1085.68 1112.29 L 1085.25 1131.31 L 1101.55 1127.55 L 1104.25 1128.51 L 1105.74 1131.37 L 1110.92 1131.74 L 1114.26 1138.23 L 1110.58 1143.30 L 1114.00 1145.87 L 1109.38 1150.26 L 1114.56 1149.44 L 1110.80 1154.30 L 1110.07 1168.71 L 1117.33 1164.77 L 1117.59 1166.83 L 1122.75 1167.39 L 1131.45 1171.26 L 1126.44 1173.20 L 1132.14 1175.64 L 1127.26 1179.82 L 1130.56 1180.19 L 1129.41 1182.36 L 1130.61 1187.01 L 1134.37 1192.64 L 1141.30 1193.86 L 1138.61 1197.06 L 1139.20 1202.80 L 1145.71 1209.62 L 1152.56 1232.36 L 1159.87 1224.09 L 1163.51 1237.17 L 1169.03 1231.14 L 1173.13 1230.19 L 1169.97 1238.52 L 1171.04 1244.98 L 1170.10 1256.78 L 1176.60 1256.09 L 1176.46 1257.73 L 1186.10 1253.62 L 1182.55 1263.44 L 1181.91 1273.17 L 1187.60 1271.29 L 1190.81 1277.62 L 1198.94 1275.21 L 1201.03 1285.16 L 1205.87 1282.76 L 1207.15 1288.10 L 1210.70 1287.73 L 1214.81 1291.36 L 1216.10 1297.33 L 1230.30 1291.13 L 1224.95 1302.53 L 1224.61 1306.49 L 1232.01 1305.17 L 1231.71 1314.20 L 1242.24 1308.37 L 1246.69 1308.60 L 1249.94 1342.48 L 1262.82 1334.38 L 1264.15 1334.24 L 1265.26 1339.25 L 1264.44 1344.00 L 1279.76 1339.16 L 1278.22 1347.82 L 1273.82 1356.69 L 1273.39 1363.64 L 1263.63 1383.06 L 1258.58 1389.65 L 1266.03 1388.30 L 1272.28 1389.42 L 1275.61 1387.61 L 1281.13 1390.64 L 1287.72 1382.96 L 1296.97 1379.73 L 1308.06 1387.24 L 1317.37 1390.74 L 1331.67 1393.21 L 1367.85 1394.52 L 1374.08 1395.92 L 1386.82 1402.75 L 1408.96 1408.98 L 1429.48 1412.33 L 1434.92 1415.39 L 1447.52 1415.96" pathLength="1" fill="none" vector-effect="non-scaling-stroke"/>
  <path class="trace-line" d="M 693.27 1966.27 L 687.57 1965.39 L 680.12 1958.62 L 658.81 1951.97 L 621.65 1933.73 L 570.32 1889.17 L 556.91 1871.26 L 539.44 1854.33 L 521.18 1840.70 L 491.73 1822.25 L 469.62 1811.78 L 453.68 1808.15 L 439.09 1800.78 L 402.30 1767.83 L 380.24 1753.99 L 375.22 1749.01 L 366.78 1745.65 L 340.70 1739.99 L 336.45 1737.19 L 337.23 1733.25 L 361.29 1704.11 L 362.06 1697.49 L 357.64 1680.14 L 361.46 1671.22 L 361.51 1661.93 L 363.73 1662.28 L 381.65 1679.64 L 398.40 1687.72 L 403.25 1691.84 L 405.23 1691.21 L 404.99 1683.64 L 407.75 1671.39 L 426.12 1645.99 L 437.34 1639.13 L 459.70 1621.31 L 478.44 1603.08 L 494.00 1591.75 L 504.12 1578.91 L 507.60 1577.22 L 529.20 1580.21 L 539.57 1588.93 L 553.81 1596.34 L 578.76 1596.51 L 604.77 1603.88 L 612.81 1610.74 L 619.27 1621.36 L 638.70 1630.41 L 656.38 1635.88 L 662.37 1641.15 L 676.82 1660.69 L 688.30 1664.94 L 707.60 1666.80 L 711.38 1664.90 L 713.81 1660.06 L 713.44 1648.42 L 734.02 1653.05 L 734.93 1649.07 L 731.46 1634.26 L 747.43 1634.92 L 760.61 1638.34 L 762.20 1637.80 L 764.42 1631.98 L 768.07 1636.13 L 775.36 1619.55 L 775.27 1607.42 L 768.38 1577.94 L 768.09 1563.62 L 775.36 1541.93 L 779.01 1509.89 L 779.10 1494.35 L 781.69 1480.74 L 785.52 1473.63 L 786.88 1461.04 L 797.37 1443.60 L 798.73 1437.24 L 795.04 1427.68 L 784.15 1410.38 L 762.31 1390.92 L 755.25 1379.93 L 749.17 1364.81 L 735.91 1354.62 L 733.87 1341.48 L 738.12 1324.09 L 741.05 1318.61 L 756.02 1296.08 L 784.67 1262.44 L 793.97 1218.13 L 798.61 1206.09 L 810.51 1191.27 L 815.95 1179.60 L 820.97 1174.59 L 834.44 1166.13 L 840.39 1155.22 L 841.03 1142.21 L 834.57 1128.77 L 831.55 1117.86 L 834.57 1103.84 L 828.91 1092.98 L 833.80 1079.67 L 833.25 1066.57 L 834.61 1062.61 L 839.63 1053.85 L 849.62 1043.83 L 878.90 1028.59 L 905.47 1010.90 L 910.32 1002.23 L 906.66 987.40 L 906.13 980.34 L 908.32 974.85 L 906.82 973.35 L 904.07 972.84 L 895.99 976.26 L 880.27 975.44 L 877.11 974.20 L 881.96 970.82 L 881.96 967.74 L 872.12 966.43 L 864.20 960.57 L 856.16 961.13 L 837.91 954.98 L 831.07 952.38 L 826.91 947.29 L 827.36 940.93 L 840.27 926.55 L 841.28 921.12 L 838.73 915.15 L 837.91 906.50 L 841.03 902.10 L 849.99 900.87 L 858.37 901.93 L 863.22 895.06 L 863.53 888.96 L 872.44 877.57 L 895.82 866.84 L 914.18 851.93 L 918.18 843.93 L 920.81 845.21 L 926.42 855.39 L 939.26 868.11 L 942.55 875.03 L 952.78 882.32 L 954.66 889.86 L 965.83 898.79 L 968.18 905.65 L 971.22 908.18 L 978.15 920.38 L 985.51 927.76 L 998.47 947.67 L 1005.19 951.72 L 1007.25 961.97 L 1012.08 964.94 L 1010.50 969.85 L 1011.61 971.66 L 1022.47 974.78 L 1030.91 981.05 L 1029.97 986.56 L 1033.22 986.23 L 1035.27 992.49 L 1039.34 991.44 L 1041.39 997.69 L 1044.47 1000.43 L 1042.03 1004.29 L 1048.62 1005.90 L 1045.11 1013.42 L 1053.88 1017.27 L 1049.69 1021.03 L 1049.39 1023.60 L 1055.60 1025.58 L 1051.62 1030.03 L 1053.97 1030.19 L 1056.45 1035.14 L 1056.75 1037.01 L 1053.88 1040.77 L 1059.92 1042.32 L 1054.65 1046.70 L 1061.03 1047.30 L 1063.13 1048.94 L 1056.75 1053.43 L 1064.37 1055.80 L 1058.67 1060.12 L 1067.24 1061.90 L 1062.14 1065.46 L 1059.45 1070.56 L 1067.62 1070.63 L 1063.26 1076.53 L 1072.03 1076.17 L 1066.42 1081.31 L 1076.22 1081.84 L 1072.84 1085.72 L 1078.36 1087.34 L 1077.29 1090.41 L 1082.64 1091.30 L 1071.90 1102.80 L 1073.05 1104.25 L 1088.59 1107.02 L 1085.68 1112.29 L 1085.25 1131.31 L 1101.55 1127.55 L 1104.25 1128.51 L 1105.74 1131.37 L 1110.92 1131.74 L 1114.26 1138.23 L 1110.58 1143.30 L 1114.00 1145.87 L 1109.38 1150.26 L 1114.56 1149.44 L 1110.80 1154.30 L 1110.07 1168.71 L 1117.33 1164.77 L 1117.59 1166.83 L 1122.75 1167.39 L 1131.45 1171.26 L 1126.44 1173.20 L 1132.14 1175.64 L 1127.26 1179.82 L 1130.56 1180.19 L 1129.41 1182.36 L 1130.61 1187.01 L 1134.37 1192.64 L 1141.30 1193.86 L 1138.61 1197.06 L 1139.20 1202.80 L 1145.71 1209.62 L 1152.56 1232.36 L 1159.87 1224.09 L 1163.51 1237.17 L 1169.03 1231.14 L 1173.13 1230.19 L 1169.97 1238.52 L 1171.04 1244.98 L 1170.10 1256.78 L 1176.60 1256.09 L 1176.46 1257.73 L 1186.10 1253.62 L 1182.55 1263.44 L 1181.91 1273.17 L 1187.60 1271.29 L 1190.81 1277.62 L 1198.94 1275.21 L 1201.03 1285.16 L 1205.87 1282.76 L 1207.15 1288.10 L 1210.70 1287.73 L 1214.81 1291.36 L 1216.10 1297.33 L 1230.30 1291.13 L 1224.95 1302.53 L 1224.61 1306.49 L 1232.01 1305.17 L 1231.71 1314.20 L 1242.24 1308.37 L 1246.69 1308.60 L 1249.94 1342.48 L 1262.82 1334.38 L 1264.15 1334.24 L 1265.26 1339.25 L 1264.44 1344.00 L 1279.76 1339.16 L 1278.22 1347.82 L 1273.82 1356.69 L 1273.39 1363.64 L 1263.63 1383.06 L 1258.58 1389.65 L 1266.03 1388.30 L 1272.28 1389.42 L 1275.61 1387.61 L 1281.13 1390.64 L 1287.72 1382.96 L 1296.97 1379.73 L 1308.06 1387.24 L 1317.37 1390.74 L 1331.67 1393.21 L 1367.85 1394.52 L 1374.08 1395.92 L 1386.82 1402.75 L 1408.96 1408.98 L 1429.48 1412.33 L 1434.92 1415.39 L 1447.52 1415.96" pathLength="1" fill="none" vector-effect="non-scaling-stroke"/>
</svg>
