<svg xmlns="http://www.w3.org/2000/svg" viewBox="0 0 1600 900" preserveAspectRatio="xMidYMid slice">
  <path class="trace-line" d="M 642.63 1026.59 L 638.11 1025.69 L 632.21 1018.74 L 615.33 1011.91 L 601.41 1002.68 L 593.04 998.67 L 585.91 993.17 L 545.25 947.38 L 534.63 928.98 L 520.79 911.58 L 506.33 897.57 L 483.01 878.62 L 465.50 867.86 L 452.87 864.13 L 441.32 856.56 L 412.18 822.70 L 394.71 808.49 L 390.73 803.37 L 384.05 799.91 L 363.40 794.10 L 360.03 791.22 L 360.65 787.17 L 379.71 757.23 L 380.31 750.44 L 376.81 732.61 L 379.84 723.44 L 379.88 713.89 L 381.64 714.26 L 395.83 732.09 L 409.10 740.40 L 412.93 744.62 L 414.50 743.98 L 414.31 736.20 L 416.50 723.61 L 431.05 697.52 L 439.93 690.46 L 457.64 672.16 L 472.49 653.43 L 484.81 641.79 L 489.05 636.33 L 492.82 628.59 L 495.58 626.86 L 512.68 629.93 L 520.90 638.89 L 527.66 644.47 L 532.17 646.50 L 551.94 646.68 L 572.54 654.25 L 578.90 661.30 L 584.02 672.20 L 599.40 681.51 L 613.41 687.13 L 618.15 692.54 L 629.60 712.62 L 638.69 716.99 L 653.97 718.89 L 656.97 716.94 L 658.89 711.97 L 658.59 700.01 L 673.08 705.12 L 674.90 704.76 L 675.62 700.68 L 672.87 685.46 L 685.52 686.14 L 695.96 689.66 L 697.22 689.10 L 698.98 683.12 L 701.87 687.38 L 707.63 670.34 L 707.57 657.88 L 702.11 627.59 L 701.88 612.88 L 707.63 590.60 L 710.53 557.67 L 710.60 541.70 L 712.65 527.73 L 715.68 520.41 L 716.76 507.48 L 725.07 489.56 L 726.15 483.03 L 723.22 473.21 L 714.60 455.42 L 710.77 449.80 L 704.00 444.30 L 697.30 435.43 L 691.71 424.14 L 686.90 408.61 L 684.41 404.84 L 676.39 398.14 L 674.78 384.63 L 678.14 366.76 L 680.47 361.14 L 692.32 337.99 L 715.01 303.42 L 722.38 257.90 L 726.05 245.52 L 735.47 230.29 L 739.78 218.31 L 743.76 213.16 L 754.43 204.46 L 759.14 193.25 L 759.65 179.88 L 754.53 166.08 L 752.14 154.87 L 754.53 140.47 L 750.05 129.30 L 753.92 115.63 L 753.49 102.17 L 754.56 98.10 L 758.54 89.10 L 766.45 78.81 L 789.64 63.14 L 810.68 44.97 L 814.52 36.06 L 811.62 20.82 L 811.20 13.57 L 812.94 7.93 L 811.75 6.39 L 809.57 5.86 L 803.17 9.38 L 790.72 8.54 L 788.22 7.26 L 792.06 3.79 L 792.06 0.62 L 784.27 -0.72 L 777.99 -6.74 L 771.63 -6.17 L 757.18 -12.49 L 751.76 -15.16 L 748.46 -20.39 L 748.82 -26.93 L 759.05 -41.70 L 759.84 -47.28 L 757.83 -53.41 L 757.17 -62.30 L 759.65 -66.82 L 766.74 -68.09 L 773.38 -67.00 L 777.22 -74.05 L 777.47 -80.32 L 784.52 -92.02 L 797.55 -98.86 L 803.04 -103.06 L 817.58 -118.37 L 820.75 -126.59 L 822.83 -125.28 L 827.27 -114.82 L 837.44 -101.74 L 840.05 -94.64 L 848.15 -87.15 L 849.64 -79.40 L 858.48 -70.22 L 860.35 -63.17 L 862.75 -60.57 L 868.24 -48.04 L 874.07 -40.45 L 884.34 -20.00 L 889.66 -15.84 L 891.29 -5.31 L 895.11 -2.26 L 893.86 2.79 L 894.74 4.65 L 898.91 7.23 L 903.34 7.86 L 910.03 14.30 L 908.67 18.70 L 909.28 19.95 L 911.85 19.62 L 913.48 26.05 L 916.70 24.97 L 918.33 31.40 L 920.77 34.21 L 918.84 38.18 L 924.05 39.83 L 921.27 47.56 L 925.37 48.91 L 928.22 51.52 L 924.90 55.38 L 924.66 58.02 L 929.58 60.05 L 926.43 64.62 L 928.29 64.79 L 930.26 69.87 L 930.49 71.80 L 928.22 75.66 L 933.00 77.25 L 928.83 81.76 L 933.88 82.37 L 935.54 84.06 L 930.49 88.67 L 936.52 91.10 L 932.02 95.54 L 938.80 97.37 L 934.76 101.03 L 932.63 106.27 L 939.10 106.34 L 935.64 112.40 L 942.59 112.03 L 938.15 117.32 L 945.91 117.86 L 943.23 121.85 L 947.61 123.51 L 946.76 126.66 L 950.99 127.58 L 951.20 128.73 L 942.49 139.39 L 943.40 140.88 L 955.71 143.73 L 953.40 149.14 L 953.06 168.69 L 965.97 164.83 L 968.11 165.81 L 969.29 168.75 L 973.39 169.13 L 976.04 175.80 L 973.12 181.01 L 975.83 183.65 L 972.17 188.16 L 976.27 187.31 L 973.30 192.31 L 972.72 207.11 L 978.47 203.07 L 978.68 205.18 L 982.76 205.76 L 989.65 209.74 L 985.68 211.73 L 990.20 214.24 L 986.34 218.54 L 988.95 218.91 L 988.03 221.14 L 988.98 225.92 L 991.96 231.71 L 996.91 231.91 L 997.45 232.96 L 995.32 236.25 L 995.79 242.14 L 1000.94 249.15 L 1006.37 272.51 L 1012.16 264.02 L 1015.04 277.46 L 1019.41 271.26 L 1022.66 270.28 L 1020.16 278.85 L 1021.01 285.49 L 1020.26 297.61 L 1025.41 296.90 L 1025.30 298.58 L 1032.93 294.36 L 1030.12 304.45 L 1029.61 314.44 L 1034.12 312.51 L 1036.66 319.02 L 1040.25 316.65 L 1043.10 316.54 L 1044.76 326.77 L 1048.59 324.30 L 1049.61 329.79 L 1052.42 329.41 L 1055.67 333.14 L 1056.69 339.27 L 1067.94 332.90 L 1063.70 344.62 L 1063.43 348.68 L 1069.29 347.33 L 1069.06 356.61 L 1077.39 350.61 L 1080.92 350.85 L 1083.49 385.66 L 1093.69 377.34 L 1094.74 377.20 L 1095.63 382.35 L 1094.98 387.22 L 1107.11 382.25 L 1105.89 391.15 L 1102.40 400.26 L 1102.06 407.41 L 1094.34 427.35 L 1090.34 434.13 L 1096.24 432.74 L 1101.18 433.89 L 1103.83 432.03 L 1108.20 435.14 L 1113.41 427.26 L 1120.74 423.94 L 1129.53 431.66 L 1136.90 435.25 L 1148.22 437.79 L 1159.40 437.52 L 1176.87 439.14 L 1181.81 440.57 L 1191.90 447.59 L 1209.44 453.99 L 1225.68 457.44 L 1227.14 459.54 L 1229.99 460.57 L 1237.76 461.84 L 1239.97 461.16" pathLength="1" fill="none" vector-effect="non-scaling-stroke"/>
  <circle class="trace-start" cx="642.63" cy="1026.59" r="4.62"/>
  <circle class="trace-summit-halo" cx="1239.43" cy="463.08" r="11.79"/>
  <circle class="trace-summit" cx="1239.43" cy="463.08" r="6.67"/>
</svg>
