<svg xmlns="http://www.w3.org/2000/svg" viewBox="-106.3895363 -38.9768931 0.0313661 0.0319816" preserveAspectRatio="xMidYMid meet">
  <path d="M -106.3785280 -38.9475767 L -106.3786623 -38.9475976 L -106.3788375 -38.9477582 L -106.3793389 -38.9479161 L -106.3802129 -38.9483492 L -106.3814205 -38.9494075 L -106.3817360 -38.9498327 L -106.3821471 -38.9502348 L -106.3825767 -38.9505585 L -106.3832695 -38.9509965 L -106.3837895 -38.9512451 L -106.3841646 -38.9513314 L -106.3845079 -38.9515064 L -106.3853733 -38.9522889 L -106.3858923 -38.9526174 L -106.3860105 -38.9527357 L -106.3862089 -38.9528156 L -106.3868225 -38.9529499 L -106.3869225 -38.9530164 L -106.3869040 -38.9531100 L -106.3863380 -38.9538020 L -106.3863200 -38.9539590 L -106.3864240 -38.9543710 L -106.3863340 -38.9545830 L -106.3863329 -38.9548036 L -106.3862807 -38.9547951 L -106.3858590 -38.9543830 L -106.3854650 -38.9541910 L -106.3853510 -38.9540934 L -106.3853044 -38.9541083 L -106.3853100 -38.9542880 L -106.3852450 -38.9545790 L -106.3848130 -38.9551820 L -106.3845490 -38.9553450 L -106.3840230 -38.9557680 L -106.3835820 -38.9562010 L -106.3832160 -38.9564700 L -106.3829780 -38.9567750 L -106.3828960 -38.9568150 L -106.3823880 -38.9567440 L -106.3821440 -38.9565370 L -106.3818090 -38.9563610 L -106.3812220 -38.9563570 L -106.3806100 -38.9561820 L -106.3804210 -38.9560190 L -106.3802690 -38.9557670 L -106.3798120 -38.9555520 L -106.3793960 -38.9554220 L -106.3792550 -38.9552970 L -106.3789150 -38.9548330 L -106.3786450 -38.9547320 L -106.3781910 -38.9546880 L -106.3781020 -38.9547330 L -106.3780450 -38.9548480 L -106.3780537 -38.9551244 L -106.3775694 -38.9550145 L -106.3775480 -38.9551090 L -106.3776297 -38.9554606 L -106.3772540 -38.9554450 L -106.3769438 -38.9553636 L -106.3769064 -38.9553765 L -106.3768542 -38.9555147 L -106.3767683 -38.9554163 L -106.3765970 -38.9558100 L -106.3765990 -38.9560980 L -106.3767610 -38.9567980 L -106.3767680 -38.9571380 L -106.3765970 -38.9576530 L -106.3765110 -38.9584140 L -106.3765090 -38.9587830 L -106.3764480 -38.9591060 L -106.3763580 -38.9592750 L -106.3763260 -38.9595740 L -106.3760790 -38.9599880 L -106.3760470 -38.9601390 L -106.3761340 -38.9603660 L -106.3763900 -38.9607770 L -106.3769040 -38.9612390 L -106.3770700 -38.9615000 L -106.3772130 -38.9618590 L -106.3775250 -38.9621010 L -106.3775730 -38.9624130 L -106.3774730 -38.9628260 L -106.3774040 -38.9629560 L -106.3770520 -38.9634910 L -106.3763780 -38.9642900 L -106.3761590 -38.9653420 L -106.3760500 -38.9656280 L -106.3757700 -38.9659800 L -106.3756420 -38.9662570 L -106.3755240 -38.9663760 L -106.3752070 -38.9665770 L -106.3750670 -38.9668360 L -106.3750520 -38.9671450 L -106.3752040 -38.9674640 L -106.3752750 -38.9677230 L -106.3752040 -38.9680560 L -106.3753370 -38.9683140 L -106.3752220 -38.9686300 L -106.3752350 -38.9689410 L -106.3752030 -38.9690350 L -106.3750850 -38.9692430 L -106.3748500 -38.9694810 L -106.3741610 -38.9698430 L -106.3735360 -38.9702630 L -106.3734220 -38.9704690 L -106.3735080 -38.9708210 L -106.3735205 -38.9709887 L -106.3734689 -38.9711191 L -106.3735043 -38.9711547 L -106.3735690 -38.9711669 L -106.3737590 -38.9710855 L -106.3741289 -38.9711050 L -106.3742031 -38.9711346 L -106.3740891 -38.9712148 L -106.3740891 -38.9712879 L -106.3743207 -38.9713189 L -106.3745070 -38.9714581 L -106.3746960 -38.9714449 L -106.3751254 -38.9715910 L -106.3752864 -38.9716527 L -106.3753842 -38.9717736 L -106.3753735 -38.9719246 L -106.3750698 -38.9722659 L -106.3750462 -38.9723950 L -106.3751061 -38.9725367 L -106.3751255 -38.9727422 L -106.3750520 -38.9728465 L -106.3748412 -38.9728759 L -106.3746440 -38.9728506 L -106.3745300 -38.9730137 L -106.3745227 -38.9731586 L -106.3743130 -38.9734290 L -106.3737630 -38.9736840 L -106.3733310 -38.9740380 L -106.3732370 -38.9742280 L -106.3731751 -38.9741976 L -106.3730432 -38.9739558 L -106.3727412 -38.9736537 L -106.3726637 -38.9734894 L -106.3724231 -38.9733164 L -106.3723788 -38.9731372 L -106.3721161 -38.9729251 L -106.3720607 -38.9727623 L -106.3719893 -38.9727021 L -106.3718262 -38.9724125 L -106.3716531 -38.9722372 L -106.3713481 -38.9717645 L -106.3711900 -38.9716683 L -106.3711417 -38.9714249 L -106.3710280 -38.9713545 L -106.3710652 -38.9712379 L -106.3710390 -38.9711948 L -106.3707836 -38.9711207 L -106.3705850 -38.9709718 L -106.3706072 -38.9708411 L -106.3705307 -38.9708489 L -106.3704824 -38.9707002 L -106.3703867 -38.9707252 L -106.3703384 -38.9705766 L -106.3702660 -38.9705116 L -106.3703233 -38.9704200 L -106.3701683 -38.9703817 L -106.3702509 -38.9702032 L -106.3700445 -38.9701117 L -106.3701431 -38.9700225 L -106.3701502 -38.9699614 L -106.3700042 -38.9699145 L -106.3700978 -38.9698088 L -106.3700425 -38.9698049 L -106.3699841 -38.9696875 L -106.3699771 -38.9696429 L -106.3700445 -38.9695537 L -106.3699026 -38.9695169 L -106.3700264 -38.9694128 L -106.3698764 -38.9693987 L -106.3698271 -38.9693596 L -106.3699771 -38.9692531 L -106.3697979 -38.9691968 L -106.3699318 -38.9690943 L -106.3697304 -38.9690520 L -106.3698502 -38.9689675 L -106.3699136 -38.9688462 L -106.3697214 -38.9688446 L -106.3698240 -38.9687045 L -106.3696177 -38.9687131 L -106.3697496 -38.9685910 L -106.3695190 -38.9685785 L -106.3695986 -38.9684862 L -106.3694687 -38.9684478 L -106.3694939 -38.9683750 L -106.3693681 -38.9683539 L -106.3696207 -38.9680808 L -106.3695935 -38.9680463 L -106.3692281 -38.9679806 L -106.3692966 -38.9678554 L -106.3693067 -38.9674038 L -106.3689231 -38.9674930 L -106.3688597 -38.9674703 L -106.3688245 -38.9674022 L -106.3687027 -38.9673936 L -106.3686242 -38.9672394 L -106.3687107 -38.9671189 L -106.3686302 -38.9670579 L -106.3687389 -38.9669538 L -106.3686171 -38.9669733 L -106.3687055 -38.9668578 L -106.3687226 -38.9665157 L -106.3685520 -38.9666092 L -106.3685457 -38.9665603 L -106.3684244 -38.9665470 L -106.3682198 -38.9664551 L -106.3683376 -38.9664089 L -106.3682034 -38.9663511 L -106.3683182 -38.9662517 L -106.3682406 -38.9662431 L -106.3682678 -38.9661915 L -106.3682396 -38.9660811 L -106.3681511 -38.9659473 L -106.3679880 -38.9659183 L -106.3680514 -38.9658424 L -106.3680373 -38.9657062 L -106.3678843 -38.9655442 L -106.3677232 -38.9650042 L -106.3675511 -38.9652006 L -106.3674656 -38.9648899 L -106.3673357 -38.9650331 L -106.3672391 -38.9650558 L -106.3673136 -38.9648578 L -106.3672884 -38.9647044 L -106.3673105 -38.9644242 L -106.3671575 -38.9644406 L -106.3671609 -38.9644018 L -106.3669341 -38.9644993 L -106.3670176 -38.9642661 L -106.3670327 -38.9640352 L -106.3668988 -38.9640798 L -106.3668233 -38.9639295 L -106.3666321 -38.9639867 L -106.3665828 -38.9637503 L -106.3664690 -38.9638074 L -106.3664388 -38.9636806 L -106.3663553 -38.9636893 L -106.3662586 -38.9636032 L -106.3662284 -38.9634615 L -106.3658942 -38.9636086 L -106.3660201 -38.9633378 L -106.3660281 -38.9632439 L -106.3658540 -38.9632752 L -106.3658610 -38.9630608 L -106.3656134 -38.9631993 L -106.3655087 -38.9631938 L -106.3654322 -38.9623892 L -106.3651292 -38.9625817 L -106.3650980 -38.9625849 L -106.3650718 -38.9624659 L -106.3650910 -38.9623532 L -106.3647306 -38.9624682 L -106.3647668 -38.9622624 L -106.3648705 -38.9620519 L -106.3648806 -38.9618867 L -106.3651101 -38.9614257 L -106.3652289 -38.9612691 L -106.3650537 -38.9613012 L -106.3649067 -38.9612746 L -106.3648282 -38.9613177 L -106.3646984 -38.9612457 L -106.3645434 -38.9614280 L -106.3643259 -38.9615047 L -106.3640648 -38.9613263 L -106.3638459 -38.9612432 L -106.3635095 -38.9611846 L -106.3626584 -38.9611534 L -106.3625117 -38.9611202 L -106.3622121 -38.9609580 L -106.3616911 -38.9608102 L -106.3612085 -38.9607305 L -106.3610804 -38.9606580 L -106.3607841 -38.9606444" pathLength="1" fill="none" stroke="currentColor" vector-effect="non-scaling-stroke"/>
</svg>
